<svg xmlns="http://www.w3.org/2000/svg" xmlns:svg="http://www.w3.org/2000/svg" id="svg4311" width="100%" height="100%" version="1.1" viewBox="0 0 64 64"><metadata id="metadata4316"/><g id="layer5" style="display:inline;opacity:1"><ellipse style="display:inline;fill:#ff8080;fill-opacity:1;stroke:#000;stroke-width:1.12779903;stroke-linecap:round;stroke-linejoin:round;stroke-miterlimit:4;stroke-dasharray:none;stroke-dashoffset:0;stroke-opacity:1" id="path4279" cx="31.82" cy="31.549" rx="27.008" ry="26.625"/><g id="g4181" transform="matrix(0.91640451,-0.21458137,0.21458137,0.91640451,61.571558,-7.8548161)"><path id="path4167" d="m -43.562828,21.431542 c 0.722005,-0.756618 1.275402,-1.382925 0.91545,-2.305997 1.451496,0.435242 2.830672,0.48478 4.103745,-0.03157 -0.369838,1.190024 0.378521,1.62714 0.789182,2.400698 -0.392849,1.261784 -0.830203,3.596856 -0.890255,4.85864 l -3.750741,0.04286 c -0.06956,-1.326377 -0.614843,-3.678504 -1.167381,-4.964632 z" style="fill:#d7eef4;fill-opacity:.50196078;fill-rule:evenodd;stroke:#000;stroke-width:.5;stroke-linecap:butt;stroke-linejoin:miter;stroke-miterlimit:4;stroke-dasharray:none;stroke-opacity:1"/><path style="fill:#5df;fill-rule:evenodd;stroke:none;stroke-width:.44999999;stroke-linecap:butt;stroke-linejoin:miter;stroke-miterlimit:4;stroke-dasharray:none;stroke-opacity:1" id="path4171" d="m -50.525963,55.243668 c 1.358853,1.021647 15.289548,1.671991 20.410715,-0.160714 1.337885,-0.478787 1.325638,-2.75775 1.325893,-4.339286 0.0017,-10.364478 -5.146801,-13.378383 -8.374985,-18.711446 -1.932912,0.269515 -4.155151,0.230091 -6.832605,0.128849 -5.979398,7.293507 -7.518526,10.248662 -7.895089,19.10491 -0.06837,1.607985 0.288316,3.167377 1.366071,3.977687 z"/><path id="path4163" d="m -51.5625,56.142858 c 1.509836,1.135163 16.988386,1.857768 22.678572,-0.178571 1.486539,-0.531986 1.472931,-3.064167 1.473214,-4.821429 0.0019,-11.516086 -5.842675,-15.088084 -9.429546,-21.01371 -1.654519,-2.733318 -0.755963,-7.210336 0.545617,-8.227361 l -8.4375,0.04464 c 2.252248,2.242128 2.039589,6.578586 0.424107,8.549107 -6.643776,8.103896 -8.353918,11.387402 -8.772321,21.227678 -0.07597,1.78665 0.320351,3.519307 1.517857,4.419646 z" style="fill:#afdde9;fill-opacity:.25098039;fill-rule:evenodd;stroke:#000;stroke-width:.5;stroke-linecap:butt;stroke-linejoin:miter;stroke-miterlimit:4;stroke-dasharray:none;stroke-opacity:1"/><ellipse id="path4169" cx="-40.501" cy="14.55" rx="5.193" ry="4.94" style="opacity:1;fill:#d7eef4;fill-opacity:.50196078;stroke:#000;stroke-width:.5;stroke-linecap:round;stroke-linejoin:round;stroke-miterlimit:4;stroke-dasharray:none;stroke-dashoffset:0;stroke-opacity:1"/><path id="path4165" d="m -45.614701,22.078671 10.117309,-0.110486 c 0.884708,-0.0097 1.074809,-0.865215 0.03157,-0.852316 l -10.212011,0.126269 c -0.598606,0.0074 -0.614386,0.843932 0.06313,0.836533 z" style="fill:#afdde9;fill-opacity:.83137255;fill-rule:evenodd;stroke:#000;stroke-width:.5;stroke-linecap:butt;stroke-linejoin:miter;stroke-miterlimit:4;stroke-dasharray:none;stroke-opacity:1"/><path id="path4173" d="m -40.532371,10.525051 c 1.160162,0.178925 2.239979,0.967952 2.915645,1.970875 0.84486,0.768244 1.484875,1.901073 1.472205,3.206156 0.297041,-1.289677 -0.05394,-2.64209 -0.829859,-3.762535 -1.031925,-0.981504 -2.36797,-1.518638 -3.557991,-1.414496 z" style="fill:#fff;fill-rule:evenodd;stroke:none;stroke-width:1px;stroke-linecap:butt;stroke-linejoin:miter;stroke-opacity:1"/><path id="path4177" d="m -36.554895,35.968268 c 1.507946,1.388067 2.900167,3.282869 3.780912,5.297567 1.247571,1.697225 2.149907,3.704085 2.216869,5.750976 0.413291,-2.049512 -0.01901,-4.318779 -0.974718,-6.466301 -1.396513,-1.954204 -3.232387,-3.579605 -5.023063,-4.582242 z" style="fill:#fff;fill-opacity:1;fill-rule:evenodd;stroke:none;stroke-width:1px;stroke-linecap:butt;stroke-linejoin:miter;stroke-opacity:1"/></g><path style="display:inline;fill:#f9f9f9;fill-opacity:1;fill-rule:evenodd;stroke:none;stroke-width:1px;stroke-linecap:butt;stroke-linejoin:miter;stroke-opacity:1" id="path4281" d="M 33.310526,8.4466623 C 42.853897,9.7059588 51.837481,12.667445 56.143804,29.852737 42.960254,11.013531 41.261755,14.341438 33.310526,8.4466623 Z"/><flowRoot id="flowRoot4156" xml:space="preserve" style="fill:#000;stroke:none;stroke-opacity:1;stroke-width:1px;stroke-linejoin:miter;stroke-linecap:butt;fill-opacity:1;font-family:sans-serif;font-style:normal;font-weight:400;font-size:40px;line-height:125%;letter-spacing:0;word-spacing:0"><flowRegion id="flowRegion4158"><rect id="rect4160" width="42.679" height="44.068" x="6.566" y="11.22"/></flowRegion><flowPara id="flowPara4162"/></flowRoot><flowRoot id="flowRoot4168" xml:space="preserve" style="fill:#000;stroke:none;stroke-opacity:1;stroke-width:1px;stroke-linejoin:miter;stroke-linecap:butt;fill-opacity:1;font-family:sans-serif;font-style:normal;font-weight:400;font-size:40px;line-height:125%;letter-spacing:0;word-spacing:0"><flowRegion id="flowRegion4170"><rect id="rect4172" width="63.766" height="63.64" x=".253" y="-.271"/></flowRegion><flowPara id="flowPara4174"/></flowRoot><path style="display:inline;fill:#000;fill-opacity:.44859811;fill-rule:evenodd;stroke:none;stroke-width:1px;stroke-linecap:butt;stroke-linejoin:miter;stroke-opacity:1" id="path4283" d="M 43.352343,55.124348 C 18.554601,65.583105 -2.4191261,42.115746 7.6398162,20.86384 7.8289942,39.063247 21.867849,56.944615 43.352343,55.124348 Z"/></g></svg>