<svg xmlns="http://www.w3.org/2000/svg" xmlns:svg="http://www.w3.org/2000/svg" id="svg2" version="1.1" viewBox="0 0 256 256"><metadata id="metadata7"/><g id="layer2" style="opacity:1"><g id="g4171"><path style="fill:#e9c6af;fill-rule:evenodd;stroke:#000;stroke-width:1px;stroke-linecap:butt;stroke-linejoin:round;stroke-opacity:1" id="path4191" d="M 22.51176,74.255757 161.07143,36.000001 233.21428,99.593751 84.64286,145.28571 Z"/><path style="fill:#deaa87;fill-rule:evenodd;stroke:#000;stroke-width:1px;stroke-linecap:butt;stroke-linejoin:round;stroke-opacity:1" id="path4186" d="m 88.99554,230.93304 -2.65626,-86.4509 146.875,-44.910711 -1.71875,84.575891 z"/><path style="fill:#d38d5f;fill-rule:evenodd;stroke:#000;stroke-width:1px;stroke-linecap:butt;stroke-linejoin:round;stroke-opacity:1" id="path4189" d="M 29.28571,155.64286 88.92857,231 86.42857,144.57143 22.5,74.214286 Z"/><path style="fill:#e6e6e6;fill-rule:evenodd;stroke:#000;stroke-width:1px;stroke-linecap:butt;stroke-linejoin:miter;stroke-opacity:1" id="path4193" d="M 33.13497,76.611266 52.32787,98.329546 119.75555,78.88411 97.5322,58.175983 Z"/><path style="fill:#e6e6e6;fill-rule:evenodd;stroke:#000;stroke-width:1px;stroke-linecap:butt;stroke-linejoin:miter;stroke-opacity:1" id="path4195" d="m 148.75148,106.18624 12.42033,12.09382 63.37043,-19.872061 -11.72639,-11.379535 z"/><path style="fill:none;fill-rule:evenodd;stroke:#000;stroke-width:2;stroke-linecap:round;stroke-linejoin:miter;stroke-miterlimit:4;stroke-dasharray:none;stroke-opacity:1" id="path4197" d="m 200.63089,191.01104 8.83883,-2.90419"/><path style="fill:#000;fill-rule:evenodd;stroke:#000;stroke-width:2;stroke-linecap:butt;stroke-linejoin:miter;stroke-miterlimit:4;stroke-dasharray:none;stroke-opacity:1" id="path4199" d="m 204.8609,189.49581 -0.80225,-7.25664 m -4.81672,-8.46385 8.01809,-1.70465 c 0.2736,4.08271 0.88671,8.75994 -3.26707,9.94337 -3.63587,1.03587 -3.56602,-3.15773 -4.75102,-8.23872 z"/><path style="fill:none;fill-rule:evenodd;stroke:#000;stroke-width:3;stroke-linecap:round;stroke-linejoin:miter;stroke-miterlimit:4;stroke-dasharray:none;stroke-opacity:1" id="path4201" d="m 214.3602,186.12202 13.64196,-4.30096"/><path style="fill:none;fill-rule:evenodd;stroke:#000;stroke-width:2;stroke-linecap:round;stroke-linejoin:miter;stroke-miterlimit:4;stroke-dasharray:none;stroke-opacity:1" id="path4203" d="m 216.41452,184.12937 -0.16194,-15.702"/><path style="fill:none;fill-rule:evenodd;stroke:#000;stroke-width:2;stroke-linecap:round;stroke-linejoin:round;stroke-miterlimit:4;stroke-dasharray:none;stroke-opacity:1" id="path4205" d="m 213.28526,172.98389 3.10125,-5.29248 2.80593,4.06359"/><path style="opacity:1;fill:none;fill-rule:evenodd;stroke:#000;stroke-width:2;stroke-linecap:round;stroke-linejoin:miter;stroke-miterlimit:4;stroke-dasharray:none;stroke-opacity:1" id="path4203-6" d="m 225.59906,181.97567 0.0613,-15.43415"/><path style="opacity:1;fill:none;fill-rule:evenodd;stroke:#000;stroke-width:2;stroke-linecap:round;stroke-linejoin:round;stroke-miterlimit:4;stroke-dasharray:none;stroke-opacity:1" id="path4205-1" d="m 222.73766,170.87483 2.96732,-5.06926 2.672,3.79573"/><path style="fill:none;fill-rule:evenodd;stroke:#000;stroke-width:2;stroke-linecap:round;stroke-linejoin:round;stroke-miterlimit:4;stroke-dasharray:none;stroke-opacity:1" id="path4243" d="m 43.75,82.607143 c 0.17857,-0.714286 -0.35714,-7.678571 1.07143,-5 1.42857,2.678571 2.32143,3.214286 2.32143,3.214286 0,0 1.78571,-2.321429 3.03571,-2.321429 1.25,0 6.07143,1.607143 6.07143,1.607143 l -1.60714,-6.964286 5,3.392857 c 0,0 3.39285,-4.107142 5,-3.75 1.60714,0.357143 4.64285,4.107143 4.82143,2.678572 0.17857,-1.428572 3.92857,-4.821429 5.71428,-4.821429 1.78572,0 6.60714,0.714286 6.60714,0.714286 L 90.35714,69.392857 90.71429,66"/><path style="fill:none;fill-rule:evenodd;stroke:#000;stroke-width:2;stroke-linecap:round;stroke-linejoin:round;stroke-miterlimit:4;stroke-dasharray:none;stroke-opacity:1" id="path4245" d="m 48.92858,88.5 c 0,0 7.32142,5.892858 7.32142,4.464286 0,-1.428571 -0.89285,-7.857143 -0.17857,-7.321428 0.71429,0.535714 4.64286,5.892857 4.82143,4.821428 0.17857,-1.071428 -1.60714,-6.607143 1.07143,-6.25 2.67857,0.357143 6.25,4.107143 6.25,3.214286 0,-0.892857 -0.35714,-8.035714 -0.35714,-8.035714"/><path style="fill:none;fill-rule:evenodd;stroke:#000;stroke-width:1px;stroke-linecap:round;stroke-linejoin:round;stroke-opacity:1" id="path4247" d="m 88.21429,85.285715 c 0,0 2.14285,-2.678572 2.85714,-2.5 0.71428,0.178571 2.85714,0.535714 2.85714,0.535714 0,0 1.25,-3.75 1.96429,-3.392857 0.71428,0.357143 3.75,1.428571 3.75,1.428571"/><path style="fill:none;fill-rule:evenodd;stroke:#000;stroke-width:1px;stroke-linecap:round;stroke-linejoin:round;stroke-opacity:1" id="path4249" d="m 105,79.571429 c 0,0 1.07143,-2.5 2.14286,-2.5 1.07143,0 6.07143,0 6.07143,0"/><path style="fill:none;fill-rule:evenodd;stroke:#000;stroke-width:1px;stroke-linecap:round;stroke-linejoin:round;stroke-opacity:1" id="path4251" d="m 89.10714,79.928572 c 0,0 0.89286,-2.142857 3.03572,-1.785714 C 94.28571,78.5 98.03571,76 98.03571,76 l 4.28572,0.535715 0.71428,-3.75 5.17858,1.071428 1.78571,0.535715 -0.17857,-1.607143"/><path style="fill:none;fill-rule:evenodd;stroke:#000;stroke-width:1px;stroke-linecap:butt;stroke-linejoin:miter;stroke-opacity:1" id="path4253" d="m 153.92857,106.08928 9.19643,9.73215"/><path style="fill:none;fill-rule:evenodd;stroke:#000;stroke-width:2;stroke-linecap:butt;stroke-linejoin:miter;stroke-miterlimit:4;stroke-dasharray:none;stroke-opacity:1" id="path4255" d="m 158.125,104.92857 8.75,9.50893"/><path style="fill:none;fill-rule:evenodd;stroke:#000;stroke-width:1px;stroke-linecap:butt;stroke-linejoin:miter;stroke-opacity:1" id="path4257" d="m 161.25,103.94643 8.66071,9.28571"/><path style="opacity:1;fill:none;fill-rule:evenodd;stroke:#000;stroke-width:1px;stroke-linecap:butt;stroke-linejoin:miter;stroke-opacity:1" id="path4253-1" d="m 162.85603,103.27559 9.19643,9.73215"/><path style="opacity:1;fill:none;fill-rule:evenodd;stroke:#000;stroke-width:2;stroke-linecap:butt;stroke-linejoin:miter;stroke-miterlimit:4;stroke-dasharray:none;stroke-opacity:1" id="path4255-6" d="m 167.05246,102.11488 8.75,9.50893"/><path style="opacity:1;fill:none;fill-rule:evenodd;stroke:#000;stroke-width:1px;stroke-linecap:butt;stroke-linejoin:miter;stroke-opacity:1" id="path4257-0" d="m 170.17746,101.13274 8.66071,9.28571"/><path style="opacity:1;fill:none;fill-rule:evenodd;stroke:#000;stroke-width:1px;stroke-linecap:butt;stroke-linejoin:miter;stroke-opacity:1" id="path4253-19" d="m 172.23103,100.55238 9.19643,9.73215"/><path style="opacity:1;fill:none;fill-rule:evenodd;stroke:#000;stroke-width:2;stroke-linecap:butt;stroke-linejoin:miter;stroke-miterlimit:4;stroke-dasharray:none;stroke-opacity:1" id="path4255-1" d="m 176.42746,99.391666 8.75,9.508934"/><path style="opacity:1;fill:none;fill-rule:evenodd;stroke:#000;stroke-width:1px;stroke-linecap:butt;stroke-linejoin:miter;stroke-opacity:1" id="path4253-6" d="m 182.81139,97.605947 9.19643,9.732153"/><path style="opacity:1;fill:none;fill-rule:evenodd;stroke:#000;stroke-width:2;stroke-linecap:butt;stroke-linejoin:miter;stroke-miterlimit:4;stroke-dasharray:none;stroke-opacity:1" id="path4255-4" d="m 185.75782,96.534523 8.75,9.508937"/><path style="opacity:1;fill:none;fill-rule:evenodd;stroke:#000;stroke-width:1px;stroke-linecap:butt;stroke-linejoin:miter;stroke-opacity:1" id="path4253-3" d="m 192.05246,94.748804 9.19643,9.732156"/><path style="opacity:1;fill:none;fill-rule:evenodd;stroke:#000;stroke-width:2;stroke-linecap:butt;stroke-linejoin:miter;stroke-miterlimit:4;stroke-dasharray:none;stroke-opacity:1" id="path4255-0" d="m 195.08818,93.722023 8.75,9.508927"/><path style="opacity:1;fill:none;fill-rule:evenodd;stroke:#000;stroke-width:1px;stroke-linecap:butt;stroke-linejoin:miter;stroke-opacity:1" id="path4257-9" d="m 197.90068,92.963097 8.66071,9.285703"/><path style="opacity:1;fill:none;fill-rule:evenodd;stroke:#000;stroke-width:1px;stroke-linecap:butt;stroke-linejoin:miter;stroke-opacity:1" id="path4253-60" d="m 205.31138,90.730949 8.83929,9.642861"/><path style="opacity:1;fill:none;fill-rule:evenodd;stroke:#000;stroke-width:2;stroke-linecap:butt;stroke-linejoin:miter;stroke-miterlimit:4;stroke-dasharray:none;stroke-opacity:1" id="path4255-2" d="m 209.15067,89.480953 8.75,9.50893"/><path style="opacity:1;fill:none;fill-rule:evenodd;stroke:#000;stroke-width:1px;stroke-linecap:butt;stroke-linejoin:miter;stroke-opacity:1" id="path4257-93" d="m 212.23103,88.677384 8.70535,9.107139"/><path style="opacity:1;fill:none;fill-rule:evenodd;stroke:#000;stroke-width:2;stroke-linecap:butt;stroke-linejoin:miter;stroke-miterlimit:4;stroke-dasharray:none;stroke-opacity:1" id="path4255-0-6" d="m 202.72322,91.781251 8.75,9.508929"/><path style="opacity:1;fill:none;fill-rule:evenodd;stroke:#000;stroke-width:2;stroke-linecap:butt;stroke-linejoin:miter;stroke-miterlimit:4;stroke-dasharray:none;stroke-opacity:1" id="path4255-0-8" d="m 188.70536,95.754465 8.75,9.508925"/><path style="opacity:1;fill:none;fill-rule:evenodd;stroke:#000;stroke-width:1px;stroke-linecap:butt;stroke-linejoin:miter;stroke-opacity:1" id="path4253-19-5" d="m 174.10714,100.10714 9.19643,9.73215"/><path style="opacity:1;fill:none;fill-rule:evenodd;stroke:#000;stroke-width:2;stroke-linecap:butt;stroke-linejoin:miter;stroke-miterlimit:4;stroke-dasharray:none;stroke-opacity:1" id="path4255-6-5" d="m 179.59822,98.790178 8.75,9.508932"/><path style="opacity:1;fill:none;fill-rule:evenodd;stroke:#000;stroke-width:1px;stroke-linecap:butt;stroke-linejoin:miter;stroke-opacity:1" id="path4253-6-6" d="m 199.77678,92.383921 9.19643,9.732159"/><path style="fill:none;fill-rule:evenodd;stroke:#000;stroke-width:1px;stroke-linecap:butt;stroke-linejoin:miter;stroke-opacity:1" id="path4388" d="M 53.98087,108.7318 194.91071,65.821429"/><path style="fill:#f4e3d7;fill-opacity:.78431373;fill-rule:evenodd;stroke:#000;stroke-width:1px;stroke-linecap:butt;stroke-linejoin:miter;stroke-opacity:1" id="path4386" d="m 51.82279,184.44505 -2.39911,-80.93847 140.16633,-42.492716 10.44072,9.26863 -142.52583,42.441726 3.15673,82.57997 z"/></g></g></svg>