<svg xmlns="http://www.w3.org/2000/svg" xmlns:svg="http://www.w3.org/2000/svg" id="svg4311" width="100%" height="100%" version="1.1" viewBox="0 0 64 64"><metadata id="metadata4316"/><g id="layer5" style="display:inline;opacity:1"><ellipse style="display:inline;fill:#ff8080;fill-opacity:1;stroke:#000;stroke-width:1.12779903;stroke-linecap:round;stroke-linejoin:round;stroke-miterlimit:4;stroke-dasharray:none;stroke-dashoffset:0;stroke-opacity:1" id="path4279" cx="31.82" cy="31.549" rx="27.008" ry="26.625"/><path style="display:inline;fill:#f9f9f9;fill-opacity:1;fill-rule:evenodd;stroke:none;stroke-width:1px;stroke-linecap:butt;stroke-linejoin:miter;stroke-opacity:1" id="path4281" d="M 33.310526,8.4466623 C 42.853897,9.7059588 51.837481,12.667445 56.143804,29.852737 42.960254,11.013531 41.261755,14.341438 33.310526,8.4466623 Z"/><flowRoot id="flowRoot4156" xml:space="preserve" style="fill:#000;stroke:none;stroke-opacity:1;stroke-width:1px;stroke-linejoin:miter;stroke-linecap:butt;fill-opacity:1;font-family:sans-serif;font-style:normal;font-weight:400;font-size:40px;line-height:125%;letter-spacing:0;word-spacing:0"><flowRegion id="flowRegion4158"><rect id="rect4160" width="42.679" height="44.068" x="6.566" y="11.22"/></flowRegion><flowPara id="flowPara4162"/></flowRoot><flowRoot id="flowRoot4168" xml:space="preserve" style="fill:#000;stroke:none;stroke-opacity:1;stroke-width:1px;stroke-linejoin:miter;stroke-linecap:butt;fill-opacity:1;font-family:sans-serif;font-style:normal;font-weight:400;font-size:40px;line-height:125%;letter-spacing:0;word-spacing:0"><flowRegion id="flowRegion4170"><rect id="rect4172" width="63.766" height="63.64" x=".253" y="-.271"/></flowRegion><flowPara id="flowPara4174"/></flowRoot><path style="display:inline;fill:#000;fill-opacity:.44859811;fill-rule:evenodd;stroke:none;stroke-width:1px;stroke-linecap:butt;stroke-linejoin:miter;stroke-opacity:1" id="path4283" d="M 43.352343,55.124348 C 18.554601,65.583105 -2.4191261,42.115746 7.6398162,20.86384 7.8289942,39.063247 21.867849,56.944615 43.352343,55.124348 Z"/><g id="g4250" transform="translate(-78.034284,-5.0507627)"><path id="path4172" d="m 93.198065,42.119745 c 1.070317,1.473348 2.097312,2.623053 3.214286,4.419643 2.330328,3.748202 16.461789,8.527589 27.187509,-0.580357 1.37725,-1.169525 1.50401,-3.184784 2.58928,-4.464286 z" style="fill:#dcb882;fill-opacity:1;fill-rule:evenodd;stroke:#000;stroke-width:.5;stroke-linecap:butt;stroke-linejoin:miter;stroke-miterlimit:4;stroke-dasharray:none;stroke-opacity:1"/><path id="path4168" d="m 90.568732,36.442707 c -0.02347,0.868199 -0.05036,3.077459 0.631346,4.008113 7.978898,10.892746 33.468242,6.725437 37.147942,-1.041334 0.53026,-1.119213 0.83252,-2.650945 0.46489,-3.88819 z" style="fill:#e2c394;fill-opacity:1;fill-rule:evenodd;stroke:#000;stroke-width:.5;stroke-linecap:butt;stroke-linejoin:miter;stroke-miterlimit:4;stroke-dasharray:none;stroke-opacity:1"/><ellipse id="path4170" cx="108.892" cy="38.278" rx="19.209" ry="9.833" transform="matrix(0.99974526,-0.02257033,0.02257033,0.99974526,0,0)" style="opacity:1;fill:#e7d1ae;fill-opacity:1;stroke:#000;stroke-width:.46857712;stroke-linecap:round;stroke-linejoin:round;stroke-miterlimit:4;stroke-dasharray:none;stroke-dashoffset:0;stroke-opacity:1"/><ellipse id="path4170-7" cx="108.694" cy="38.333" rx="16.374" ry="8.042" transform="matrix(0.99976549,-0.0216555,0.02352377,0.99972328,0,0)" style="display:inline;opacity:1;fill:#784421;fill-opacity:1;stroke:#000;stroke-width:.39125007;stroke-linecap:round;stroke-linejoin:round;stroke-miterlimit:4;stroke-dasharray:none;stroke-dashoffset:0;stroke-opacity:1"/><ellipse id="path4191" cx="104.069" cy="40.513" rx="1.719" ry="1.473" style="opacity:1;fill:#a40;fill-opacity:1;stroke:#000;stroke-width:.5;stroke-linecap:round;stroke-linejoin:round;stroke-miterlimit:4;stroke-dasharray:none;stroke-dashoffset:0;stroke-opacity:1"/><ellipse id="path4193" cx="114.961" cy="41.897" rx="1.317" ry="1.161" style="opacity:1;fill:#a40;fill-opacity:1;stroke:#000;stroke-width:.5;stroke-linecap:round;stroke-linejoin:round;stroke-miterlimit:4;stroke-dasharray:none;stroke-dashoffset:0;stroke-opacity:1"/><ellipse id="path4195" cx="121.725" cy="38.414" rx="1.607" ry="1.205" style="opacity:1;fill:#a40;fill-opacity:1;stroke:#000;stroke-width:.5;stroke-linecap:round;stroke-linejoin:round;stroke-miterlimit:4;stroke-dasharray:none;stroke-dashoffset:0;stroke-opacity:1"/><ellipse id="path4197" cx="122.863" cy="34.352" rx="1.451" ry="1.25" style="opacity:1;fill:#a40;fill-opacity:1;stroke:#000;stroke-width:.5;stroke-linecap:round;stroke-linejoin:round;stroke-miterlimit:4;stroke-dasharray:none;stroke-dashoffset:0;stroke-opacity:1"/><ellipse id="path4199" cx="112.551" cy="29.53" rx="1.317" ry="1.25" style="opacity:1;fill:#a40;fill-opacity:1;stroke:#000;stroke-width:.5;stroke-linecap:round;stroke-linejoin:round;stroke-miterlimit:4;stroke-dasharray:none;stroke-dashoffset:0;stroke-opacity:1"/><ellipse id="path4201" cx="98.957" cy="38.459" rx="1.643" ry="1.197" style="opacity:1;fill:#a40;fill-opacity:1;stroke:#000;stroke-width:.60672218;stroke-linecap:round;stroke-linejoin:round;stroke-miterlimit:4;stroke-dasharray:none;stroke-dashoffset:0;stroke-opacity:1"/><circle id="path4203" cx="107.819" cy="29.865" r=".96" style="opacity:1;fill:#a40;fill-opacity:1;stroke:#000;stroke-width:.5;stroke-linecap:round;stroke-linejoin:round;stroke-miterlimit:4;stroke-dasharray:none;stroke-dashoffset:0;stroke-opacity:1"/><ellipse id="path4205" cx="96.524" cy="34.397" rx="1.049" ry=".848" style="opacity:1;fill:#a40;fill-opacity:1;stroke:#000;stroke-width:.5;stroke-linecap:round;stroke-linejoin:round;stroke-miterlimit:4;stroke-dasharray:none;stroke-dashoffset:0;stroke-opacity:1"/><path id="path4189" d="m 108.82306,43.548317 c -3.84304,-2.89063 -7.46192,-5.767419 -9.687495,-8.616072 -2.77669,-3.554062 3.941495,-8.572016 10.580355,-3.571429 6.31139,-4.840605 14.55077,0.204409 10.84821,4.107142 -2.79799,2.949257 -6.84524,5.88935 -11.74107,8.080359 z" style="fill:#e2c394;fill-opacity:1;fill-rule:evenodd;stroke:#000;stroke-width:.5;stroke-linecap:butt;stroke-linejoin:miter;stroke-miterlimit:4;stroke-dasharray:none;stroke-opacity:1"/><ellipse style="opacity:1;fill:#fff;fill-opacity:.50196078;stroke:none;stroke-width:.46857712;stroke-linecap:round;stroke-linejoin:round;stroke-miterlimit:4;stroke-dasharray:none;stroke-dashoffset:0;stroke-opacity:1" id="ellipse4216" cx="108.613" cy="38.262" rx="15.764" ry="7.582" transform="matrix(0.99977515,-0.02120511,0.02402335,0.9997114,0,0)"/></g></g></svg>