<svg xmlns="http://www.w3.org/2000/svg" xmlns:svg="http://www.w3.org/2000/svg" id="svg4311" width="100%" height="100%" version="1.1" viewBox="0 0 64 64"><metadata id="metadata4316"/><g id="layer5" style="display:inline;opacity:1"><ellipse style="display:inline;fill:#ff8080;fill-opacity:1;stroke:#000;stroke-width:1.12779903;stroke-linecap:round;stroke-linejoin:round;stroke-miterlimit:4;stroke-dasharray:none;stroke-dashoffset:0;stroke-opacity:1" id="path4279" cx="31.82" cy="31.549" rx="27.008" ry="26.625"/><path style="display:inline;fill:#f9f9f9;fill-opacity:1;fill-rule:evenodd;stroke:none;stroke-width:1px;stroke-linecap:butt;stroke-linejoin:miter;stroke-opacity:1" id="path4281" d="M 33.310526,8.4466623 C 42.853897,9.7059588 51.837481,12.667445 56.143804,29.852737 42.960254,11.013531 41.261755,14.341438 33.310526,8.4466623 Z"/><g id="g4254" transform="matrix(0.95888665,-0.28378934,0.28378934,0.95888665,-76.064099,27.044814)"><path style="fill:#fdf3cf;fill-rule:evenodd;stroke:none;stroke-width:.5;stroke-linecap:butt;stroke-linejoin:miter;stroke-miterlimit:4;stroke-dasharray:none;stroke-opacity:1;fill-opacity:1" id="path4212" d="m 91.607142,51.857144 c -0.01933,2.166283 1.050636,3.803888 2.857143,4.330357 4.718338,1.375061 9.286655,0.874887 13.839285,0.178571 2.40187,-0.367361 3.26802,-2.585233 3.30357,-4.419642 l 0.42226,-21.788429 c -5.23847,0.292994 -11.04202,-6.11788 -18.147957,-6.30016 -0.936309,1.123357 -1.687505,2.422323 -2.060822,4.079767 z"/><path id="path4178" d="m 91.607142,51.857144 c -0.0209,2.166268 1.050636,3.803888 2.857143,4.330357 4.718338,1.375061 9.286655,0.874887 13.839285,0.178571 2.40187,-0.367361 3.26802,-2.585233 3.30357,-4.419642 l 0.44643,-23.035715 c 0.0789,-4.07147 -6.02678,-8.488171 -6.02678,-9.419642 l 0,-1.294643 c 0.64268,0.02976 0.66278,-1.123512 -0.0447,-1.116072 l 0,-0.803571 -7.857141,-0.04464 -0.07892,0.735485 c -0.764613,0.06253 -0.654165,1.114435 -0.04847,1.110656 l -0.0065,1.323502 c -0.0059,1.191231 -6.115157,4.609467 -6.160714,9.330357 z" style="fill:#d7eef4;fill-opacity:.25098039;fill-rule:evenodd;stroke:#000;stroke-width:.5;stroke-linecap:butt;stroke-linejoin:miter;stroke-miterlimit:4;stroke-dasharray:none;stroke-opacity:1"/><path id="path4214-0" d="m 98.04793,16.972666 8.08122,0.126268" style="display:inline;opacity:1;fill:none;fill-rule:evenodd;stroke:#000;stroke-width:.5;stroke-linecap:butt;stroke-linejoin:miter;stroke-miterlimit:4;stroke-dasharray:none;stroke-opacity:1"/><path id="path4181" d="m 97.366071,13.776787 0,2.857143 c 0,0.242643 9.352679,0.383761 9.352679,0.15625 l 0,-2.857143 c 0,-0.654679 -9.352679,-0.711491 -9.352679,-0.15625 z" style="fill:#666;fill-rule:evenodd;stroke:#000;stroke-width:.5;stroke-linecap:butt;stroke-linejoin:miter;stroke-miterlimit:4;stroke-dasharray:none;stroke-opacity:1"/><path id="path4183" d="m 98.671875,13.772396 0.0065,2.720602" style="fill:none;fill-rule:evenodd;stroke:#333;stroke-width:1px;stroke-linecap:butt;stroke-linejoin:miter;stroke-opacity:1"/><path id="path4183-6" d="m 100.8003,13.678092 0.0144,2.910005" style="display:inline;opacity:1;fill:none;fill-rule:evenodd;stroke:#333;stroke-width:1px;stroke-linecap:butt;stroke-linejoin:miter;stroke-opacity:1"/><path id="path4183-7" d="m 105.42546,13.892292 -0.001,2.728494" style="display:inline;opacity:1;fill:none;fill-rule:evenodd;stroke:#333;stroke-width:1px;stroke-linecap:butt;stroke-linejoin:miter;stroke-opacity:1"/><path id="path4183-2" d="m 103.17292,13.717551 0.0144,2.878438" style="display:inline;opacity:1;fill:none;fill-rule:evenodd;stroke:#333;stroke-width:1px;stroke-linecap:butt;stroke-linejoin:miter;stroke-opacity:1"/><path id="path4214" d="m 98.079498,18.069628 8.081222,0.110485" style="fill:none;fill-rule:evenodd;stroke:#000;stroke-width:.5;stroke-linecap:butt;stroke-linejoin:miter;stroke-miterlimit:4;stroke-dasharray:none;stroke-opacity:1"/><path id="path4237" d="m 105.89285,40.562501 0.84822,-2.8125 -1.20536,-2.723214" style="fill:none;fill-rule:evenodd;stroke:#b7c4c8;stroke-width:.25;stroke-linecap:butt;stroke-linejoin:miter;stroke-miterlimit:4;stroke-dasharray:none;stroke-opacity:1"/><path id="path4235-4" d="m 102.73258,43.187022 -1.83019,0.417158 -2.313122,-2.036171 -2.153512,0.384121" style="display:inline;opacity:1;fill:none;fill-rule:evenodd;stroke:#b7c4c8;stroke-width:.25;stroke-linecap:butt;stroke-linejoin:miter;stroke-miterlimit:4;stroke-dasharray:none;stroke-opacity:1"/><path id="path4235" d="m 106.00304,45.64515 1.28725,1.366225 -0.58278,3.026039 1.42265,1.661685" style="fill:none;fill-rule:evenodd;stroke:#b7c4c8;stroke-width:.25;stroke-linecap:butt;stroke-linejoin:miter;stroke-miterlimit:4;stroke-dasharray:none;stroke-opacity:1"/><path id="path4231" d="m 101.55237,34.042401 -2.576753,4.02776 c 2.338593,4.851674 6.274273,8.626892 12.698493,11.153055 l 0.11332,-5.45109 c -6.62779,-2.445172 -7.22592,-5.315549 -10.23506,-9.729725 z" style="fill:#e9c6af;fill-rule:evenodd;stroke:#000;stroke-width:.5;stroke-linecap:butt;stroke-linejoin:miter;stroke-miterlimit:4;stroke-dasharray:none;stroke-opacity:1"/><path id="path4233" d="m 97.98527,46.030979 2.41071,3.928571 c 5.31051,-2.838042 8.06189,-5.529085 11.43944,-9.459659 l 0.0225,-5.590693 c -0.21616,-0.225921 -0.44902,-0.468262 -0.6972,-0.730625 -3.82661,4.738483 -6.13,8.723342 -13.17545,11.852406 z" style="fill:#f4e3d7;fill-rule:evenodd;stroke:#000;stroke-width:.5;stroke-linecap:butt;stroke-linejoin:miter;stroke-miterlimit:4;stroke-dasharray:none;stroke-opacity:1"/></g><path style="display:inline;fill:#000;fill-opacity:.44859811;fill-rule:evenodd;stroke:none;stroke-width:1px;stroke-linecap:butt;stroke-linejoin:miter;stroke-opacity:1" id="path4283" d="M 43.352343,55.124348 C 18.554601,65.583105 -2.4191261,42.115746 7.6398162,20.86384 7.8289942,39.063247 21.867849,56.944615 43.352343,55.124348 Z"/><flowRoot id="flowRoot4156" xml:space="preserve" style="fill:#000;stroke:none;stroke-opacity:1;stroke-width:1px;stroke-linejoin:miter;stroke-linecap:butt;fill-opacity:1;font-family:sans-serif;font-style:normal;font-weight:400;font-size:40px;line-height:125%;letter-spacing:0;word-spacing:0"><flowRegion id="flowRegion4158"><rect id="rect4160" width="42.679" height="44.068" x="6.566" y="11.22"/></flowRegion><flowPara id="flowPara4162"/></flowRoot><flowRoot id="flowRoot4168" xml:space="preserve" style="fill:#000;stroke:none;stroke-opacity:1;stroke-width:1px;stroke-linejoin:miter;stroke-linecap:butt;fill-opacity:1;font-family:sans-serif;font-style:normal;font-weight:400;font-size:40px;line-height:125%;letter-spacing:0;word-spacing:0"><flowRegion id="flowRegion4170"><rect id="rect4172" width="63.766" height="63.64" x=".253" y="-.271"/></flowRegion><flowPara id="flowPara4174"/></flowRoot><path style="fill:#fff;fill-rule:evenodd;stroke:none;stroke-width:1px;stroke-linecap:butt;stroke-linejoin:miter;stroke-opacity:1" id="path4270" d="m 33.035714,19.491073 c 1.466291,0.429244 2.710249,1.373826 3.653454,2.454873 0.310178,0.258671 0.602911,0.534657 0.875347,0.821073 1.240361,1.304007 2.05566,2.820152 2.167627,3.866911 0.115462,-1.079431 -0.500955,-2.76413 -1.643569,-4.305792 -0.250507,-0.337993 -0.526869,-0.669979 -0.827119,-0.987957 -1.232411,-0.972322 -2.68771,-1.688854 -4.22574,-1.849108 z"/></g></svg>