<svg xmlns="http://www.w3.org/2000/svg" xmlns:svg="http://www.w3.org/2000/svg" id="svg4311" width="100%" height="100%" version="1.1" viewBox="0 0 64 64"><metadata id="metadata4316"/><g id="layer5" style="display:inline;opacity:1"><ellipse style="display:inline;fill:#ff8080;fill-opacity:1;stroke:#000;stroke-width:1.12779903;stroke-linecap:round;stroke-linejoin:round;stroke-miterlimit:4;stroke-dasharray:none;stroke-dashoffset:0;stroke-opacity:1" id="path4279" cx="31.82" cy="31.549" rx="27.008" ry="26.625"/><g id="g4338" transform="matrix(0.83256869,-0.16894147,0.17211422,0.81932823,-58.475587,21.067684)"><path id="path4182" d="m 91.324104,16.585966 c -0.195077,-1.10092 2.157096,-3.514489 3.030457,-5.303301 l 2.614668,5.883001 z" style="fill:#a02c5a;fill-rule:evenodd;stroke:#000;stroke-width:.5;stroke-linecap:butt;stroke-linejoin:miter;stroke-miterlimit:4;stroke-dasharray:none;stroke-opacity:1"/><path id="path4178" d="m 110.6117,57.623413 -14.331535,0.947018 -5.050763,-2.08344 0.06313,-39.901025 5.050763,0 14.520945,0.06313 z" style="fill:#f06;fill-rule:evenodd;stroke:#000;stroke-width:.5;stroke-linecap:butt;stroke-linejoin:miter;stroke-miterlimit:4;stroke-dasharray:none;stroke-opacity:1"/><path id="path4180" d="m 107.92848,11.124828 c 1.10136,1.48018 2.96342,3.564525 2.96733,5.42957 l -14.647213,-0.09471 -2.146574,-4.545687 c 1.519683,-1.714082 12.023437,-3.2213224 13.826457,-0.789173 z" style="fill:#f06;fill-rule:evenodd;stroke:#000;stroke-width:.5;stroke-linecap:butt;stroke-linejoin:miter;stroke-miterlimit:4;stroke-dasharray:none;stroke-opacity:1"/><path id="path4184" d="m 96.49572,16.507512 -0.115442,42.10056" style="fill:none;fill-rule:evenodd;stroke:#000;stroke-width:.5;stroke-linecap:butt;stroke-linejoin:miter;stroke-miterlimit:4;stroke-dasharray:none;stroke-opacity:1"/><path id="path4186" d="m 94.171964,11.632872 -0.06482,-3.2578711 13.749996,-0.089286 0.0893,2.9017861 c -5.283,0.109425 -10.145295,-0.01844 -13.774476,0.445371 z" style="fill:#ececec;fill-rule:evenodd;stroke:#000;stroke-width:.5;stroke-linecap:butt;stroke-linejoin:miter;stroke-miterlimit:4;stroke-dasharray:none;stroke-opacity:1"/><ellipse id="path4188" cx="102.442" cy="15.488" rx="5.826" ry="1.429" transform="matrix(0.99989478,-0.01450633,0.01450633,0.99989478,0,0)" style="opacity:1;fill:#ececec;fill-opacity:1;stroke:none;stroke-width:.5;stroke-linecap:round;stroke-linejoin:round;stroke-miterlimit:4;stroke-dasharray:none;stroke-dashoffset:0;stroke-opacity:1"/><path id="path4190" d="m 99.121219,14.34469 c 0,0 0.34724,-0.915451 0.473509,-0.820749 0.126269,0.0947 1.041722,0.631345 1.041722,0.631345 l -0.694482,0.662913 c 0,0 0.126272,-0.34724 0.883882,-0.852316 0.75762,-0.505077 0.69448,-0.69448 0.69448,-0.69448 l 0.94702,1.325825 c 0,0 0.44194,-1.357392 0.59978,-1.294258 0.15783,0.06313 1.10485,0.69448 1.10485,0.69448 l 1.6415,-0.441942 -1.67307,1.04172 c 0,0 -1.01015,-0.599778 -0.88388,-0.599778 0.12627,0 3.53553,0.157836 3.53553,0.157836" style="fill:none;fill-rule:evenodd;stroke:#000;stroke-width:.5;stroke-linecap:round;stroke-linejoin:round;stroke-miterlimit:4;stroke-dasharray:none;stroke-opacity:1"/><ellipse id="path4192" cx="103.616" cy="36.031" rx="6.741" ry="13.46" style="opacity:1;fill:#ececec;fill-opacity:1;stroke:none;stroke-width:.5;stroke-linecap:round;stroke-linejoin:round;stroke-miterlimit:4;stroke-dasharray:none;stroke-dashoffset:0;stroke-opacity:1"/><ellipse id="path4192-5" cx="93.839" cy="35.496" rx="2.277" ry="12.813" style="display:inline;opacity:1;fill:#ececec;fill-opacity:1;stroke:none;stroke-width:.5;stroke-linecap:round;stroke-linejoin:round;stroke-miterlimit:4;stroke-dasharray:none;stroke-dashoffset:0;stroke-opacity:1"/><path id="path4209" d="m 100.53572,32.25893 -0.580367,3.526786 2.053577,-1.116071 -1.42857,-1.160715 c 0,0 3.61607,-1.607143 3.48215,-1.383928 -0.13393,0.223214 -1.5625,2.8125 -1.5625,2.8125 l 1.91964,0.133928 -0.17857,-1.517857 2.32143,-1.428571 -1.42858,2.8125 2.05358,-0.04464 -0.35715,-1.160714" style="fill:none;fill-rule:evenodd;stroke:#000;stroke-width:.5;stroke-linecap:round;stroke-linejoin:round;stroke-miterlimit:4;stroke-dasharray:none;stroke-opacity:1"/><path id="path4211" d="m 100.40179,40.205359 0.0446,-3.794643 c 0,0 1.38393,4.151785 1.38393,3.973214 0,-0.178571 1.51786,-3.883929 1.51786,-3.883929 l -0.26786,3.794643 1.91964,-1.875 -1.91964,-1.875 3.25893,0.803572 -1.47322,2.366071 1.65179,-0.04464 0.13393,-1.116071 0.89286,-0.04464" style="fill:none;fill-rule:evenodd;stroke:#000;stroke-width:.5;stroke-linecap:round;stroke-linejoin:round;stroke-miterlimit:4;stroke-dasharray:none;stroke-opacity:1"/><path id="path4209-9" d="m 92.416081,31.616234 -0.326346,3.190936 0.894556,-0.620348 -0.577943,-1.387486 c 0,0 1.566995,-0.756072 1.505213,-0.574354 -0.06178,0.181715 -0.725595,2.315645 -0.725595,2.315645 l 0.809257,0.52556 -0.04081,-1.462525 1.015058,-0.858016 -0.668925,2.343537 0.870025,0.385768 -0.124555,-1.164343" style="display:inline;opacity:1;fill:none;fill-rule:evenodd;stroke:#000;stroke-width:.31707221;stroke-linecap:round;stroke-linejoin:round;stroke-miterlimit:4;stroke-dasharray:none;stroke-opacity:1"/><path id="path4211-3" d="m 92.17745,39.050387 0.10576,-3.55405 c 0,0 0.490563,4.186935 0.494652,4.019248 0.0041,-0.167702 0.731238,-3.331059 0.731238,-3.331059 l -0.200238,3.50755 0.855258,-1.360912 -0.769391,-2.160503 1.360665,1.433315 -0.677593,1.915022 0.700001,0.30209 0.08223,-1.020149 0.37885,0.144031" style="display:inline;opacity:1;fill:none;fill-rule:evenodd;stroke:#000;stroke-width:.31707221;stroke-linecap:round;stroke-linejoin:round;stroke-miterlimit:4;stroke-dasharray:none;stroke-opacity:1"/><path id="path4231" d="m 100.13393,20.473216 -0.443965,1.218278 1.073895,0.861135 -1.295849,-0.04577 -0.487138,1.287436 -0.356909,-1.246565 -1.374958,-0.06546 1.075263,-0.72465 -0.362634,-1.32789 1.021458,0.798706 z" style="opacity:1;fill:#71c837;fill-opacity:1;stroke:none;stroke-width:.5;stroke-linecap:round;stroke-linejoin:round;stroke-miterlimit:4;stroke-dasharray:none;stroke-dashoffset:0;stroke-opacity:1"/><path id="path4231-4" d="m 108.80607,19.861201 -0.44396,1.218278 1.07389,0.861135 -1.29585,-0.04577 -0.48713,1.287436 -0.35691,-1.246565 -1.37496,-0.06546 1.07526,-0.724651 -0.36263,-1.32789 1.02146,0.798706 z" transform="matrix(0.43216443,0.90179482,-0.90179482,0.43216443,80.969836,-84.330204)" style="display:inline;opacity:1;fill:#71c837;fill-opacity:1;stroke:none;stroke-width:.5;stroke-linecap:round;stroke-linejoin:round;stroke-miterlimit:4;stroke-dasharray:none;stroke-dashoffset:0;stroke-opacity:1"/><path id="path4231-0" d="m 98.700964,50.747741 -0.443967,1.218278 1.07389,0.861135 -1.295844,-0.04577 -0.487138,1.287436 -0.356909,-1.246565 -1.374958,-0.06546 1.075262,-0.72465 -0.362633,-1.32789 1.021458,0.798706 z" transform="matrix(-0.9981235,0.06123291,-0.06123291,-0.9981235,208.95226,96.711749)" style="display:inline;opacity:1;fill:#71c837;fill-opacity:1;stroke:none;stroke-width:.5;stroke-linecap:round;stroke-linejoin:round;stroke-miterlimit:4;stroke-dasharray:none;stroke-dashoffset:0;stroke-opacity:1"/><path id="path4231-4-3" d="m 108.80607,19.861201 -0.44396,1.218278 1.07389,0.861135 -1.29585,-0.04577 -0.48713,1.287436 -0.35691,-1.246565 -1.37496,-0.06546 1.07526,-0.724651 -0.36263,-1.32789 1.02146,0.798706 z" transform="matrix(-0.48657299,-0.87363992,0.87363992,-0.48657299,132.87463,155.53627)" style="display:inline;opacity:1;fill:#71c837;fill-opacity:1;stroke:none;stroke-width:.5;stroke-linecap:round;stroke-linejoin:round;stroke-miterlimit:4;stroke-dasharray:none;stroke-dashoffset:0;stroke-opacity:1"/><path id="path4231-4-3-1" d="m 108.80607,19.861201 -0.44396,1.218278 1.07389,0.861135 -1.29585,-0.04577 -0.48713,1.287436 -0.35691,-1.246565 -1.37496,-0.06546 1.07526,-0.724651 -0.36263,-1.32789 1.02146,0.798706 z" transform="matrix(-0.85449357,-1.9278892,1.9109824,-0.79742876,155.40884,278.58712)" style="display:inline;opacity:1;fill:#ffd42a;fill-opacity:1;stroke:none;stroke-width:.5;stroke-linecap:round;stroke-linejoin:round;stroke-miterlimit:4;stroke-dasharray:none;stroke-dashoffset:0;stroke-opacity:1"/><path id="path4231-4-3-1-0" d="m 108.80607,19.861201 -0.44396,1.218278 1.07389,0.861135 -1.29585,-0.04577 -0.48713,1.287436 -0.35691,-1.246565 -1.37496,-0.06546 1.07526,-0.724651 -0.36263,-1.32789 1.02146,0.798706 z" transform="matrix(-0.55272238,-1.1636869,1.2361038,-0.48133337,136.69993,155.28202)" style="display:inline;opacity:1;fill:#ffd42a;fill-opacity:1;stroke:none;stroke-width:.5;stroke-linecap:round;stroke-linejoin:round;stroke-miterlimit:4;stroke-dasharray:none;stroke-dashoffset:0;stroke-opacity:1"/><path id="path4231-0-4" d="m 98.700964,50.747741 -0.443967,1.218278 1.07389,0.861135 -1.295844,-0.04577 -0.487138,1.287436 -0.356909,-1.246565 -1.374958,-0.06546 1.075262,-0.72465 -0.362633,-1.32789 1.021458,0.798706 z" transform="matrix(-0.28403108,-0.14194901,0.03167803,-0.94876352,120.94598,114.19999)" style="display:inline;opacity:1;fill:#71c837;fill-opacity:1;stroke:none;stroke-width:.5;stroke-linecap:round;stroke-linejoin:round;stroke-miterlimit:4;stroke-dasharray:none;stroke-dashoffset:0;stroke-opacity:1"/><path id="path4231-4-3-8" d="m 108.80607,19.861201 -0.44396,1.218278 1.07389,0.861135 -1.29585,-0.04577 -0.48713,1.287436 -0.35691,-1.246565 -1.37496,-0.06546 1.07526,-0.724651 -0.36263,-1.32789 1.02146,0.798706 z" transform="matrix(-0.09418105,-0.91693534,0.26982788,-0.28201297,96.642669,154.19587)" style="display:inline;opacity:1;fill:#71c837;fill-opacity:1;stroke:none;stroke-width:.5;stroke-linecap:round;stroke-linejoin:round;stroke-miterlimit:4;stroke-dasharray:none;stroke-dashoffset:0;stroke-opacity:1"/><path id="path4231-4-3-1-5" d="m 108.80607,19.861201 -0.44396,1.218278 1.07389,0.861135 -1.29585,-0.04577 -0.48713,1.287436 -0.35691,-1.246565 -1.37496,-0.06546 1.07526,-0.724651 -0.36263,-1.32789 1.02146,0.798706 z" transform="matrix(-0.14610274,-1.9796308,0.57713559,-0.3664478,96.956566,274.15527)" style="display:inline;opacity:1;fill:#ffd42a;fill-opacity:1;stroke:none;stroke-width:.5;stroke-linecap:round;stroke-linejoin:round;stroke-miterlimit:4;stroke-dasharray:none;stroke-dashoffset:0;stroke-opacity:1"/><path id="path4231-1" d="m 90.352743,20.429417 -0.443967,1.218278 1.073891,0.861136 -1.295845,-0.04577 -0.487138,1.287435 -0.356909,-1.246564 -1.374958,-0.06546 1.075263,-0.724651 -0.362634,-1.327889 1.021458,0.798706 z" transform="matrix(0.32874278,0.08383852,-0.01062205,0.96278335,63.236705,-7.1655014)" style="display:inline;opacity:1;fill:#71c837;fill-opacity:1;stroke:none;stroke-width:.5;stroke-linecap:round;stroke-linejoin:round;stroke-miterlimit:4;stroke-dasharray:none;stroke-dashoffset:0;stroke-opacity:1"/><path id="path4231-4-5" d="m 108.80607,19.861201 -0.44396,1.218278 1.07389,0.861135 -1.29585,-0.04577 -0.48713,1.287436 -0.35691,-1.246565 -1.37496,-0.06546 1.07526,-0.724651 -0.36263,-1.32789 1.02146,0.798706 z" transform="matrix(0.13249203,0.90446507,-0.30104901,0.34047558,87.535685,-82.431037)" style="display:inline;opacity:1;fill:#71c837;fill-opacity:1;stroke:none;stroke-width:.5;stroke-linecap:round;stroke-linejoin:round;stroke-miterlimit:4;stroke-dasharray:none;stroke-dashoffset:0;stroke-opacity:1"/><path id="path4231-4-3-1-0-3" d="m 108.80607,19.861201 -0.44396,1.218278 1.07389,0.861135 -1.29585,-0.04577 -0.48713,1.287436 -0.35691,-1.246565 -1.37496,-0.06546 1.07526,-0.724651 -0.36263,-1.32789 1.02146,0.798706 z" transform="matrix(-0.16934275,-1.1667178,0.41147294,-0.35978665,103.31137,152.93595)" style="display:inline;opacity:1;fill:#ffd42a;fill-opacity:1;stroke:none;stroke-width:.5;stroke-linecap:round;stroke-linejoin:round;stroke-miterlimit:4;stroke-dasharray:none;stroke-dashoffset:0;stroke-opacity:1"/></g><path style="display:inline;fill:#f9f9f9;fill-opacity:1;fill-rule:evenodd;stroke:none;stroke-width:1px;stroke-linecap:butt;stroke-linejoin:miter;stroke-opacity:1" id="path4281" d="M 33.310526,8.4466623 C 42.853897,9.7059588 51.837481,12.667445 56.143804,29.852737 42.960254,11.013531 41.261755,14.341438 33.310526,8.4466623 Z"/><path style="display:inline;fill:#000;fill-opacity:.44859811;fill-rule:evenodd;stroke:none;stroke-width:1px;stroke-linecap:butt;stroke-linejoin:miter;stroke-opacity:1" id="path4283" d="M 43.352343,55.124348 C 18.554601,65.583105 -2.4191261,42.115746 7.6398162,20.86384 7.8289942,39.063247 21.867849,56.944615 43.352343,55.124348 Z"/><flowRoot id="flowRoot4156" xml:space="preserve" style="fill:#000;stroke:none;stroke-opacity:1;stroke-width:1px;stroke-linejoin:miter;stroke-linecap:butt;fill-opacity:1;font-family:sans-serif;font-style:normal;font-weight:400;font-size:40px;line-height:125%;letter-spacing:0;word-spacing:0"><flowRegion id="flowRegion4158"><rect id="rect4160" width="42.679" height="44.068" x="6.566" y="11.22"/></flowRegion><flowPara id="flowPara4162"/></flowRoot><flowRoot id="flowRoot4168" xml:space="preserve" style="fill:#000;stroke:none;stroke-opacity:1;stroke-width:1px;stroke-linejoin:miter;stroke-linecap:butt;fill-opacity:1;font-family:sans-serif;font-style:normal;font-weight:400;font-size:40px;line-height:125%;letter-spacing:0;word-spacing:0"><flowRegion id="flowRegion4170"><rect id="rect4172" width="63.766" height="63.64" x=".253" y="-.271"/></flowRegion><flowPara id="flowPara4174"/></flowRoot></g></svg>