<svg xmlns="http://www.w3.org/2000/svg" xmlns:svg="http://www.w3.org/2000/svg" xmlns:xlink="http://www.w3.org/1999/xlink" id="svg4311" width="100%" height="100%" version="1.1" viewBox="0 0 64 64"><defs id="defs4313"><linearGradient id="lilithsGiftGradient"><stop style="stop-color:#d5f;stop-opacity:1" id="stop4214" offset="0"/><stop style="stop-color:#7137c8;stop-opacity:1" id="stop4216" offset="1"/></linearGradient><linearGradient id="linearGradient4218" x1="-61.051" x2="-61.43" y1="18.606" y2="36.347" gradientTransform="matrix(1.3217314,-0.37677654,0.37309618,1.3088207,104.62355,-18.42578)" gradientUnits="userSpaceOnUse" xlink:href="#lilithsGiftGradient"/></defs><metadata id="metadata4316"/><g id="layer5" style="display:inline;opacity:1"><ellipse style="display:inline;fill:#ff8080;fill-opacity:1;stroke:#000;stroke-width:1.12779903;stroke-linecap:round;stroke-linejoin:round;stroke-miterlimit:4;stroke-dasharray:none;stroke-dashoffset:0;stroke-opacity:1" id="path4279" cx="31.82" cy="31.549" rx="27.008" ry="26.625"/><path style="fill:#784421;fill-rule:evenodd;stroke:#000;stroke-width:.5;stroke-linecap:butt;stroke-linejoin:miter;stroke-miterlimit:4;stroke-dasharray:none;stroke-opacity:1" id="path4170" d="M 21.581234,14.718293 C 21.542044,14.5808 20.544275,11.792791 20.544275,11.792791 l 10.068128,-2.870049 0.405961,3.204487 z"/><path style="fill:url(#linearGradient4218);fill-opacity:1;fill-rule:evenodd;stroke:#000;stroke-width:.5;stroke-linecap:butt;stroke-linejoin:miter;stroke-miterlimit:4;stroke-dasharray:none;stroke-opacity:1" id="path4168" d="m 21.511319,19.89499 c -10.640734,3.719337 -7.974295,11.553897 -5.518711,15.098793 2.997197,4.326769 10.668259,8.533391 11.119503,10.416921 0.396659,1.224279 -0.06342,6.25639 -0.09513,9.384585 0.551955,0.291003 0.338824,0.800105 1.697331,0.861191 l 16.919491,-4.511272 c 0.720237,-0.224134 1.378748,-1.442472 1.195598,-1.706385 -1.731682,-2.642865 -3.592061,-3.896948 -5.195048,-7.928596 -0.888707,-2.235172 3.208342,-8.186381 4.185909,-12.442319 2.931086,-12.76077 -7.754037,-14.126775 -12.054087,-12.847904 l -0.579213,-2.154609 c 0.58794,-0.239513 1.0589,-0.445681 1.470263,-0.634859 l -0.697329,-2.561289 c -5.383613,1.626525 -9.776656,2.738871 -15.2136,4.208692 l 0.700853,2.51073 c 0.387939,0.05731 0.90971,-0.03918 1.399131,-0.0985 z"/><path style="fill:#000;fill-rule:evenodd;stroke:none;stroke-width:1px;stroke-linecap:butt;stroke-linejoin:miter;stroke-opacity:1" id="path4172" d="m 22.056103,40.854835 c 0.08556,0.06649 0.17388,0.137178 0.262986,0.209958 1.477214,0.376866 3.764764,1.502682 5.913903,2.835408 1.148097,0.711959 2.255114,1.481653 3.177444,2.225524 0.921998,0.743602 1.660261,1.46201 2.071132,2.0726 -0.391519,-0.625511 -1.114451,-1.363546 -2.024674,-2.129005 -0.909952,-0.765231 -2.006473,-1.557413 -3.145763,-2.292624 -2.127148,-1.372699 -4.410962,-2.552745 -5.918031,-2.984829 -0.118387,0.01673 -0.231083,0.03765 -0.336997,0.06297 z"/><path style="fill:#000;fill-rule:evenodd;stroke:none;stroke-width:1px;stroke-linecap:butt;stroke-linejoin:miter;stroke-opacity:1" id="path4176" d="m 43.116447,35.830637 c -0.07319,0.01681 -0.147066,0.03456 -0.221692,0.05326 -0.844345,1.183739 -2.11779,2.937777 -3.136697,4.781267 -1.061288,1.920169 -1.843969,3.934507 -1.582333,5.494216 -0.210727,-1.55676 0.616095,-3.539342 1.712507,-5.420321 1.054338,-1.808797 2.360208,-3.526226 3.242619,-4.680811 -0.0041,-0.07683 -0.0088,-0.152744 -0.0144,-0.227608 z"/><path style="fill:#000;fill-rule:evenodd;stroke:none;stroke-width:1px;stroke-linecap:butt;stroke-linejoin:miter;stroke-opacity:1" id="path4180" d="m 21.439392,20.120881 c 1.805019,-0.727096 4.204729,0.153515 6.111658,1.104519 -1.77678,-1.038502 -4.245306,-2.148963 -6.2532,-1.496513 z"/><path style="fill:#000;fill-rule:evenodd;stroke:none;stroke-width:1px;stroke-linecap:butt;stroke-linejoin:miter;stroke-opacity:1" id="path4184" d="m 33.948264,16.120148 c -0.03912,-0.06295 -0.07865,-0.125706 -0.118591,-0.188251 -2.692234,1.052178 -3.453778,3.313317 -4.853766,4.878567 1.600756,-1.56539 2.357173,-3.589463 5.001852,-4.470108 -0.01036,-0.07327 -0.02019,-0.146674 -0.02949,-0.220208 z"/><path style="fill:#fff;fill-rule:evenodd;stroke:none;stroke-width:1px;stroke-linecap:butt;stroke-linejoin:miter;stroke-opacity:1" id="path4188" d="m 35.921113,17.103507 c 2.240163,-0.247032 4.008269,0.59458 5.353534,1.934889 0.256902,0.255956 0.50076,0.532332 0.731656,0.826337 1.249703,1.042639 2.342774,2.517598 3.219553,4.223881 -0.495182,-1.831113 -1.26474,-3.601738 -2.339695,-5.045144 -0.309203,-0.284606 -0.630226,-0.546387 -0.962521,-0.782359 -1.783181,-1.266287 -3.813625,-1.738798 -6.002527,-1.157604 z"/><path style="fill:none;fill-rule:evenodd;stroke:#000;stroke-width:.38195232;stroke-linecap:butt;stroke-linejoin:miter;stroke-miterlimit:4;stroke-dasharray:none;stroke-opacity:1" id="path4192" d="m 20.855193,17.501306 c 1.705601,-0.239172 11.656313,-3.194135 12.305683,-3.41153"/><path style="display:inline;fill:#f9f9f9;fill-opacity:1;fill-rule:evenodd;stroke:none;stroke-width:1px;stroke-linecap:butt;stroke-linejoin:miter;stroke-opacity:1" id="path4281" d="M 33.310526,8.4466623 C 42.853897,9.7059588 51.837481,12.667445 56.143804,29.852737 42.960254,11.013531 41.261755,14.341438 33.310526,8.4466623 Z"/><path style="display:inline;fill:#000;fill-opacity:.44859811;fill-rule:evenodd;stroke:none;stroke-width:1px;stroke-linecap:butt;stroke-linejoin:miter;stroke-opacity:1" id="path4283" d="M 43.352343,55.124348 C 18.554601,65.583105 -2.4191261,42.115746 7.6398162,20.86384 7.8289942,39.063247 21.867849,56.944615 43.352343,55.124348 Z"/><flowRoot id="flowRoot4156" xml:space="preserve" style="fill:#000;stroke:none;stroke-opacity:1;stroke-width:1px;stroke-linejoin:miter;stroke-linecap:butt;fill-opacity:1;font-family:sans-serif;font-style:normal;font-weight:400;font-size:40px;line-height:125%;letter-spacing:0;word-spacing:0"><flowRegion id="flowRegion4158"><rect id="rect4160" width="42.679" height="44.068" x="6.566" y="11.22"/></flowRegion><flowPara id="flowPara4162"/></flowRoot><flowRoot id="flowRoot4168" xml:space="preserve" style="fill:#000;stroke:none;stroke-opacity:1;stroke-width:1px;stroke-linejoin:miter;stroke-linecap:butt;fill-opacity:1;font-family:sans-serif;font-style:normal;font-weight:400;font-size:40px;line-height:125%;letter-spacing:0;word-spacing:0"><flowRegion id="flowRegion4170"><rect id="rect4172" width="63.766" height="63.64" x=".253" y="-.271"/></flowRegion><flowPara id="flowPara4174"/></flowRoot></g></svg>