<svg xmlns="http://www.w3.org/2000/svg" xmlns:svg="http://www.w3.org/2000/svg" id="svg4311" width="100%" height="100%" version="1.1" viewBox="0 0 64 64"><metadata id="metadata4316"/><g id="layer5" style="display:inline;opacity:1"><ellipse style="display:inline;fill:#ff8080;fill-opacity:1;stroke:#000;stroke-width:1.12779903;stroke-linecap:round;stroke-linejoin:round;stroke-miterlimit:4;stroke-dasharray:none;stroke-dashoffset:0;stroke-opacity:1" id="path4279" cx="31.82" cy="31.549" rx="27.008" ry="26.625"/><path id="path4207" d="m 32.144424,54.165325 c 0.133168,1.122829 0.654749,2.840099 1.796934,2.687786 3.626353,-0.48355 7.143058,-1.53723 10.521167,-3.311609 1.276726,-0.670633 0.511183,-2.176587 -0.01346,-3.108993 0,0 -2.502113,-4.152381 -3.287545,-6.209301 -1.335116,-3.496465 -2.377935,-10.100603 -2.368971,-10.512092 0.01222,-0.561052 -0.423495,-0.646111 -0.59124,-1.084006 l -2.62849,-6.861848 c -0.196803,-0.513767 -0.145336,-0.691204 -0.266287,-1.084757 -1.34323,-4.37074 -2.304723,-4.221572 -4.08138,-6.792202 -2.895297,0.06605 -4.257348,-0.61869 -7.211969,0.05176 -0.06489,2.804481 -0.764385,6.097239 0.448692,10.702884 0.270384,1.026561 0.248819,0.508426 0.32074,0.790293 l 1.788732,7.011002 c 0.14006,0.548976 -0.0939,0.752583 0.131755,1.26292 0.171172,0.387103 3.162196,5.992984 4.197062,9.759358 0.511397,1.861245 1.244237,6.698851 1.244236,6.698851 z" style="fill:#0fc;fill-opacity:1;fill-rule:evenodd;stroke:none;stroke-width:.5;stroke-linecap:butt;stroke-linejoin:miter;stroke-miterlimit:4;stroke-dasharray:none;stroke-opacity:1"/><ellipse style="display:inline;opacity:1;fill:#d5fff6;fill-opacity:1;stroke:none;stroke-width:.20339063;stroke-linecap:round;stroke-linejoin:round;stroke-miterlimit:4;stroke-dasharray:none;stroke-dashoffset:0;stroke-opacity:1" id="path4252-79" cx="27.522" cy="22.951" rx=".594" ry=".548"/><ellipse style="display:inline;opacity:1;fill:#d5fff6;fill-opacity:1;stroke:none;stroke-width:.20339063;stroke-linecap:round;stroke-linejoin:round;stroke-miterlimit:4;stroke-dasharray:none;stroke-dashoffset:0;stroke-opacity:1" id="path4252-1" cx="28.661" cy="20.25" rx=".75" ry=".659"/><ellipse style="display:inline;opacity:1;fill:#d5fff6;fill-opacity:1;stroke:none;stroke-width:.20339063;stroke-linecap:round;stroke-linejoin:round;stroke-miterlimit:4;stroke-dasharray:none;stroke-dashoffset:0;stroke-opacity:1" id="path4252-78" cx="38.661" cy="50.205" rx=".795" ry=".704"/><ellipse style="display:inline;opacity:1;fill:#d5fff6;fill-opacity:1;stroke:none;stroke-width:.20339063;stroke-linecap:round;stroke-linejoin:round;stroke-miterlimit:4;stroke-dasharray:none;stroke-dashoffset:0;stroke-opacity:1" id="path4252-2" cx="40.246" cy="53.196" rx=".594" ry=".525"/><ellipse style="display:inline;opacity:1;fill:#d5fff6;fill-opacity:1;stroke:none;stroke-width:.20339063;stroke-linecap:round;stroke-linejoin:round;stroke-miterlimit:4;stroke-dasharray:none;stroke-dashoffset:0;stroke-opacity:1" id="path4252-7" cx="31.562" cy="38.04" rx=".929" ry=".86"/><ellipse style="display:inline;opacity:1;fill:#d5fff6;fill-opacity:1;stroke:none;stroke-width:.20339063;stroke-linecap:round;stroke-linejoin:round;stroke-miterlimit:4;stroke-dasharray:none;stroke-dashoffset:0;stroke-opacity:1" id="path4252-4" cx="32.277" cy="45.049" rx=".527" ry=".459"/><ellipse style="opacity:1;fill:#d5fff6;fill-opacity:1;stroke:none;stroke-width:.20339063;stroke-linecap:round;stroke-linejoin:round;stroke-miterlimit:4;stroke-dasharray:none;stroke-dashoffset:0;stroke-opacity:1" id="path4252" cx="33.168" cy="42.663" rx=".795" ry=".704"/><path style="fill:#d7eef4;fill-opacity:.25098039;fill-rule:evenodd;stroke:#000;stroke-width:.5;stroke-linecap:butt;stroke-linejoin:miter;stroke-miterlimit:4;stroke-dasharray:none;stroke-opacity:1" id="path4184" d="m 32.144424,54.165325 c 0.133168,1.122829 0.654749,2.840099 1.796934,2.687786 3.626353,-0.48355 7.143058,-1.53723 10.521167,-3.311609 1.276726,-0.670633 0.511183,-2.176587 -0.01346,-3.108993 0,0 -2.502113,-4.152381 -3.287545,-6.209301 -1.335116,-3.496465 -2.575045,-10.132342 -2.566081,-10.543831 0.01222,-0.561053 -0.226384,-0.614373 -0.394133,-1.052266 l -2.62849,-6.861848 C 35.376013,25.251496 35.42748,25.074059 35.306529,24.680506 33.257458,18.013027 31.215203,20.761888 27.620335,10.588472 28.03476,10.465166 27.852409,9.9446862 27.459579,10.030823 l -0.521441,-1.1174497 -4.408076,1.4234027 0.03936,1.103711 c -0.320015,0.156247 -0.224544,0.689362 0.194537,0.594373 2.80972,9.107717 -0.27459,9.119145 1.697917,16.608086 0.270384,1.026562 0.248819,0.508427 0.32074,0.790294 l 1.788732,7.011002 c 0.14006,0.548976 0.02052,0.669897 0.24618,1.180234 0.171172,0.387103 3.047771,6.075669 4.082637,9.842043 0.511397,1.861246 1.244237,6.698852 1.244236,6.698852 z"/><path style="fill:#0f6;fill-rule:evenodd;stroke:#000;stroke-width:.5;stroke-linecap:butt;stroke-linejoin:miter;stroke-miterlimit:4;stroke-dasharray:none;stroke-opacity:1" id="path4186" d="m 24.807407,29.518977 c 3.631741,-0.965546 7.183604,-1.903434 10.805781,-3.533091 l 2.597577,6.75461 c -3.806406,1.830599 -7.731319,3.002479 -11.605544,3.740404 z"/><path style="fill:#4d4d4d;fill-rule:evenodd;stroke:#000;stroke-width:.5;stroke-linecap:butt;stroke-linejoin:miter;stroke-miterlimit:4;stroke-dasharray:none;stroke-opacity:1" id="path4188" d="m 21.939273,10.986789 c 0.05315,0.190132 5.930494,-1.618282 5.865503,-1.8134894 C 27.6272,8.6400069 27.025282,7.9724965 26.445542,8.0973568 25.330201,8.337572 23.650105,8.8610479 22.324117,9.3929543 21.737319,9.6283472 21.797254,10.479021 21.939273,10.986789 Z"/><path style="fill:none;fill-rule:evenodd;stroke:#000;stroke-width:.25;stroke-linecap:butt;stroke-linejoin:miter;stroke-miterlimit:4;stroke-dasharray:none;stroke-opacity:1" id="path4190" d="m 22.838788,11.921339 c 0.09981,-0.05471 4.580901,-1.399783 4.580901,-1.399783"/><path style="display:inline;opacity:1;fill:none;fill-rule:evenodd;stroke:#000;stroke-width:.25;stroke-linecap:butt;stroke-linejoin:miter;stroke-miterlimit:4;stroke-dasharray:none;stroke-opacity:1" id="path4190-8" d="m 22.630065,11.521302 c 0.09981,-0.0547 4.750401,-1.386783 4.750401,-1.386783"/><path style="fill:none;fill-rule:evenodd;stroke:#000;stroke-width:.44223818;stroke-linecap:round;stroke-linejoin:round;stroke-miterlimit:4;stroke-dasharray:none;stroke-opacity:1" id="path4209" d="m 28.25654,30.422619 c -0.168598,0.05289 -1.179966,0.666099 -1.179966,0.666099 0,0 1.718001,0.01588 1.507254,0.08199 -0.210747,0.06612 -1.527507,1.034061 -1.358909,0.981168 0.168598,-0.05289 2.085357,-2.059839 2.085357,-2.059839 l 0.338072,1.07762 0.673625,-1.247052 0.285362,1.057168 0.199306,-1.283198 0.643573,0.870808 0.367904,-1.336089 1.023246,1.195576 0.758581,-0.385942 -0.454065,-1.152201 1.464885,-0.200635 -1.063972,0.74068 1.243682,-0.02027 -1.159054,0.437601"/><path style="fill:none;fill-rule:evenodd;stroke:#000;stroke-width:.44223818;stroke-linecap:round;stroke-linejoin:round;stroke-miterlimit:4;stroke-dasharray:none;stroke-opacity:1" id="path4211" d="m 27.657745,33.088804 -0.378578,1.154489 1.233118,-0.05394 0.346993,-1.10759 -0.779928,0.02274 1.022917,0.7518 -0.137779,-1.029486 1.107326,0.873279 0.125573,-1.223075 0.443491,1.118528 1.548856,-0.670859 -1.971008,-0.08446 1.179967,-0.666101 c 0,0 -1.854796,0.285968 -1.201424,0.154971 0.65337,-0.130993 1.833665,-0.353318 1.833665,-0.353318 l 0.46463,1.185877 0.209761,-1.397448 1.096763,0.839603 -0.116869,-1.257986 1.001131,-0.203106 -1.074428,0.854931 0.937962,-0.109308 c 0,0 -1.222005,0.827248 -1.053407,0.774356 0.168598,-0.05289 1.273953,-1.842277 1.273953,-1.842277 l 0.580732,1.408384 -0.222079,-1.003041 1.233448,0.389833 -1.201863,-0.436732 0.263024,-0.637366 -1.074647,0.55908"/><path style="fill:none;fill-rule:evenodd;stroke:#000;stroke-width:.25;stroke-linecap:butt;stroke-linejoin:miter;stroke-miterlimit:4;stroke-dasharray:none;stroke-opacity:1" id="path4213" d="m 25.04809,30.248787 c 0.208702,0.355127 10.967426,-2.943894 10.835465,-3.531646"/><path style="display:inline;opacity:1;fill:none;fill-rule:evenodd;stroke:#000;stroke-width:.25;stroke-linecap:butt;stroke-linejoin:miter;stroke-miterlimit:4;stroke-dasharray:none;stroke-opacity:1" id="path4213-3" d="m 26.581842,35.616901 c 0.208702,0.355127 11.247952,-2.998817 11.115991,-3.58657"/><path style="fill:#fff;fill-rule:evenodd;stroke:none;stroke-width:1px;stroke-linecap:butt;stroke-linejoin:miter;stroke-opacity:1" id="path4230" d="m 43.493722,50.76399 c -2.155445,-1.812036 -3.491083,-4.597261 -4.27786,-7.485873 -0.02932,-0.107641 -0.05788,-0.215459 -0.08571,-0.32341 -0.915581,-2.746106 -1.345191,-5.631682 -1.487878,-7.889653 -0.06582,2.255578 0.154912,5.20193 0.887872,8.065922 0.03578,0.108536 0.0723,0.216878 0.109572,0.324979 1.006038,2.917601 2.555647,5.639384 4.853999,7.308035 z"/><path style="fill:#fff;fill-rule:evenodd;stroke:none;stroke-width:1px;stroke-linecap:butt;stroke-linejoin:miter;stroke-opacity:1" id="path4234" d="m 30.4384,19.062554 c 0.422637,0.426123 0.789382,0.937302 1.104349,1.487301 1.085563,1.209791 1.939591,2.843185 2.48756,4.267366 -0.360924,-1.470445 -1.049838,-3.232456 -2.035908,-4.626596 -0.493535,-0.4659 -1.015642,-0.854123 -1.556001,-1.128071 z"/><path style="display:inline;fill:#f9f9f9;fill-opacity:1;fill-rule:evenodd;stroke:none;stroke-width:1px;stroke-linecap:butt;stroke-linejoin:miter;stroke-opacity:1" id="path4281" d="M 33.310526,8.4466623 C 42.853897,9.7059588 51.837481,12.667445 56.143804,29.852737 42.960254,11.013531 41.261755,14.341438 33.310526,8.4466623 Z"/><path style="display:inline;fill:#000;fill-opacity:.44859811;fill-rule:evenodd;stroke:none;stroke-width:1px;stroke-linecap:butt;stroke-linejoin:miter;stroke-opacity:1" id="path4283" d="M 43.352343,55.124348 C 18.554601,65.583105 -2.4191261,42.115746 7.6398162,20.86384 7.8289942,39.063247 21.867849,56.944615 43.352343,55.124348 Z"/><flowRoot id="flowRoot4156" xml:space="preserve" style="fill:#000;stroke:none;stroke-opacity:1;stroke-width:1px;stroke-linejoin:miter;stroke-linecap:butt;fill-opacity:1;font-family:sans-serif;font-style:normal;font-weight:400;font-size:40px;line-height:125%;letter-spacing:0;word-spacing:0"><flowRegion id="flowRegion4158"><rect id="rect4160" width="42.679" height="44.068" x="6.566" y="11.22"/></flowRegion><flowPara id="flowPara4162"/></flowRoot><flowRoot id="flowRoot4168" xml:space="preserve" style="fill:#000;stroke:none;stroke-opacity:1;stroke-width:1px;stroke-linejoin:miter;stroke-linecap:butt;fill-opacity:1;font-family:sans-serif;font-style:normal;font-weight:400;font-size:40px;line-height:125%;letter-spacing:0;word-spacing:0"><flowRegion id="flowRegion4170"><rect id="rect4172" width="63.766" height="63.64" x=".253" y="-.271"/></flowRegion><flowPara id="flowPara4174"/></flowRoot></g></svg>