<svg xmlns="http://www.w3.org/2000/svg" xmlns:svg="http://www.w3.org/2000/svg" id="svg4311" width="100%" height="100%" version="1.1" viewBox="0 0 64 64"><metadata id="metadata4316"/><g id="layer5" style="display:inline;opacity:1"><flowRoot id="flowRoot4156" xml:space="preserve" style="fill:#000;stroke:none;stroke-opacity:1;stroke-width:1px;stroke-linejoin:miter;stroke-linecap:butt;fill-opacity:1;font-family:sans-serif;font-style:normal;font-weight:400;font-size:40px;line-height:125%;letter-spacing:0;word-spacing:0"><flowRegion id="flowRegion4158"><rect id="rect4160" width="42.679" height="44.068" x="6.566" y="11.22"/></flowRegion><flowPara id="flowPara4162"/></flowRoot><flowRoot id="flowRoot4168" xml:space="preserve" style="fill:#000;stroke:none;stroke-opacity:1;stroke-width:1px;stroke-linejoin:miter;stroke-linecap:butt;fill-opacity:1;font-family:sans-serif;font-style:normal;font-weight:400;font-size:40px;line-height:125%;letter-spacing:0;word-spacing:0"><flowRegion id="flowRegion4170"><rect id="rect4172" width="63.766" height="63.64" x=".253" y="-.271"/></flowRegion><flowPara id="flowPara4174"/></flowRoot><path style="fill:#f55;fill-rule:evenodd;stroke:#000;stroke-width:.81px;stroke-linecap:butt;stroke-linejoin:miter;stroke-opacity:1" id="path4190" d="M 5.2998938,41.888011 C 12.651155,47.193782 24.340933,51.842476 32.510832,54.363457 37.085031,51.008923 56.438583,34.930972 58.618867,30.786671 L 41.243645,25.525287 c -11.98125,5.454241 -25.99743,8.2996 -35.9437512,16.362724 z"/><path style="display:inline;opacity:1;fill:#d3c22a;fill-rule:evenodd;stroke:#000;stroke-width:.81px;stroke-linecap:butt;stroke-linejoin:miter;stroke-opacity:1;fill-opacity:1" id="path4192-3" d="m 54.777663,33.873195 c -0.589671,0.615419 0.703943,1.291916 1.228774,0.762159 1.072641,-1.08271 3.95539,-3.221532 3.648065,-4.134967 -0.375726,-1.116738 -2.165864,-1.211467 -4.247729,-1.813642 -0.993213,-0.287286 -1.067536,0.786547 -0.567177,1.104152 1.005051,0.63796 2.252782,0.281918 2.468871,1.014009 0.298177,1.010198 -1.469754,1.960907 -2.530804,3.068289 z"/><path style="display:inline;opacity:1;fill:#d3c22a;fill-rule:evenodd;stroke:#000;stroke-width:.81px;stroke-linecap:butt;stroke-linejoin:miter;stroke-opacity:1;fill-opacity:1" id="path4192-3-1-9-4" d="M 8.9861544,39.189894 C 9.6856566,38.702916 8.5765147,37.963472 7.9574795,38.379265 6.6923032,39.229058 3.8789084,40.705927 3.9999702,41.662043 4.1479775,42.830959 5.423985,43.149177 7.3461166,44.150269 8.2631241,44.62787 8.5478553,43.58981 8.1199955,43.179727 7.2605717,42.356009 5.96712,42.458873 5.8997207,41.698538 5.8067181,40.649367 7.7274727,40.066162 8.9861544,39.189894 Z"/><path style="fill:#ff2a2a;fill-rule:evenodd;stroke:#000;stroke-width:.81px;stroke-linecap:butt;stroke-linejoin:miter;stroke-opacity:1" id="path4198" d="M 5.6795813,41.743368 C 6.2634034,41.443729 10.345879,39.058043 10.308153,39.067475 L 9.5126171,28.002296 6.258153,30.71435 C 4.7535221,34.521867 5.3255004,38.121723 5.6795813,41.743368 Z"/><path style="fill:#f55;fill-rule:evenodd;stroke:#000;stroke-width:.81px;stroke-linecap:butt;stroke-linejoin:miter;stroke-opacity:1" id="path4196" d="M 5.2456522,41.888011 C 4.0431878,41.387858 4.1523903,29.229271 6.0050272,29.647608 l 0.9401791,0.97634 C 5.5967426,34.204051 5.9797195,37.507894 6.1135096,41.273279 Z"/><path style="fill:#f4eed7;fill-rule:evenodd;stroke:#000;stroke-width:.81px;stroke-linecap:butt;stroke-linejoin:miter;stroke-opacity:1" id="path4261" d="M 6.9452063,40.983993 C 6.9090479,40.767029 7.0898488,30.750511 7.0898488,30.750511 l 50.9504472,-9.61875 c -0.615326,3.213956 -2.700293,5.611444 -0.976339,10.125 L 31.912895,52.212427 Z"/><path style="fill:#d3c22a;fill-rule:evenodd;stroke:#000;stroke-width:.81px;stroke-linecap:butt;stroke-linejoin:miter;stroke-opacity:1;fill-opacity:1" id="path4192" d="m 27.357929,51.398278 c -0.7696,-0.366288 -1.573673,1.192228 -0.922097,1.554911 1.830742,1.019037 4.878605,2.177726 5.785714,2.097322 1.683015,-0.14918 3.69335,-1.793387 4.917857,-3.326786 0.645179,-0.80793 -0.836451,-1.341026 -1.193304,-0.867857 -0.216522,0.287097 -2.249461,2.216869 -3.833035,2.332366 -1.688783,0.12317 -4.21103,-1.530992 -4.755135,-1.789956 z"/><path style="fill:#ff8080;fill-rule:evenodd;stroke:#000;stroke-width:.81px;stroke-linecap:butt;stroke-linejoin:miter;stroke-opacity:1" id="path4200" d="M 5.498778,29.991136 C 5.490678,28.653204 33.367811,10.806695 34.9336,10.934439 36.657788,11.075106 59.969842,18.979127 60.390742,20.155421 60.844083,21.422382 33.990348,41.666816 33.125564,41.779529 32.190747,41.90137 5.5052548,31.062367 5.498778,29.991136 Z"/><path style="display:inline;opacity:1;fill:#d3c22a;fill-rule:evenodd;stroke:#000;stroke-width:.81px;stroke-linecap:butt;stroke-linejoin:miter;stroke-opacity:1;fill-opacity:1" id="path4192-3-1" d="m 56.288888,23.091571 c -0.58967,0.615419 0.703943,1.291916 1.228774,0.762159 1.072641,-1.08271 3.95539,-3.221532 3.648065,-4.134967 -0.375726,-1.116738 -2.038017,-1.467162 -4.119882,-2.069337 -0.993213,-0.287286 -1.502217,0.837686 -1.001857,1.155291 1.00505,0.63796 2.892018,0.512043 3.108107,1.244134 0.298178,1.010198 -1.802157,1.935337 -2.863207,3.04272 z"/><path style="fill:none;fill-rule:evenodd;stroke:#000;stroke-width:.405;stroke-linecap:butt;stroke-linejoin:miter;stroke-miterlimit:4;stroke-dasharray:none;stroke-opacity:1" id="path4256" d="m 11.935385,29.991136 18.405804,8.389285 c 1.344468,-0.767234 2.770761,-1.239899 4.59241,-0.289285 L 55.111278,21.963457 C 53.838417,21.347183 53.435327,20.626536 54.568867,19.721493 L 37.030921,13.031761 c -1.574831,1.128342 -2.780049,0.778232 -3.977679,0.397768 L 12.18851,28.146939 c 0.820475,0.440723 1.395058,0.928732 -0.253125,1.844197 z"/><ellipse style="display:inline;opacity:1;fill:none;fill-opacity:1;stroke:#000;stroke-width:.2025;stroke-linecap:round;stroke-linejoin:round;stroke-miterlimit:4;stroke-dasharray:none;stroke-opacity:1" id="path4258-8" cx="34.789" cy="12.724" rx=".663" ry=".283"/><ellipse style="display:inline;opacity:1;fill:none;fill-opacity:1;stroke:#000;stroke-width:.2025;stroke-linecap:round;stroke-linejoin:round;stroke-miterlimit:4;stroke-dasharray:none;stroke-opacity:1" id="path4258" cx="10.742" cy="29.34" rx=".687" ry=".217"/><ellipse style="display:inline;opacity:1;fill:none;fill-opacity:1;stroke:#000;stroke-width:.25882748;stroke-linecap:round;stroke-linejoin:round;stroke-miterlimit:4;stroke-dasharray:none;stroke-opacity:1" id="path4258-9" cx="32.872" cy="39.212" rx=".659" ry=".37"/><ellipse style="display:inline;opacity:1;fill:none;fill-opacity:1;stroke:#000;stroke-width:.25380087;stroke-linecap:round;stroke-linejoin:round;stroke-miterlimit:4;stroke-dasharray:none;stroke-opacity:1" id="path4258-6" cx="56.051" cy="20.788" rx=".661" ry=".354"/><path style="fill:#d38d5f;fill-opacity:1;fill-rule:evenodd;stroke:none;stroke-width:1px;stroke-linecap:butt;stroke-linejoin:miter;stroke-opacity:1" id="path4419" d="m 31.88294,51.688767 c 0.180091,-0.14803 0.365044,-0.298465 0.54761,-0.445858 -0.326351,-1.248053 -0.593364,-2.979622 -0.680452,-4.672559 -0.09438,-1.834683 0.02041,-3.63938 0.511649,-4.762138 -0.696023,1.047985 -1.037773,2.865015 -1.159463,4.757486 -0.11136,1.731826 -0.04012,3.538345 0.10502,4.897892 0.225272,0.0827 0.450928,0.158211 0.675636,0.225177 z"/><path style="fill:#784421;fill-opacity:1;fill-rule:evenodd;stroke:none;stroke-width:1px;stroke-linecap:butt;stroke-linejoin:miter;stroke-opacity:1" id="path4193" d="m 31.655581,50.10744 0.149021,-0.376587 -6.477146,-2.127543 6.179104,2.880717 0.149021,-0.376587 z"/><path style="fill:#784421;fill-opacity:1;fill-rule:evenodd;stroke:none;stroke-width:1px;stroke-linecap:butt;stroke-linejoin:miter;stroke-opacity:1" id="path4197" d="m 31.11317,50.234002 0.380716,0.270126 8.659462,-7.556509 -9.223281,6.856981 0.183103,0.429402 z"/><path style="display:inline;opacity:1;fill:#784421;fill-opacity:1;fill-rule:evenodd;stroke:none;stroke-width:1px;stroke-linecap:butt;stroke-linejoin:miter;stroke-opacity:1" id="path4193-1" d="m 31.722567,45.544005 -12.669288,-4.91546 12.353926,5.661548 z"/><path style="display:inline;opacity:1;fill:#784421;fill-opacity:1;fill-rule:evenodd;stroke:none;stroke-width:1px;stroke-linecap:butt;stroke-linejoin:miter;stroke-opacity:1" id="path4197-4" d="m 31.022476,46.043612 0.394079,0.177215 5.13851,-4.570741 -5.615928,3.969548 0.08334,0.423978 z"/><path style="display:inline;opacity:1;fill:#784421;fill-opacity:1;fill-rule:evenodd;stroke:none;stroke-width:1px;stroke-linecap:butt;stroke-linejoin:miter;stroke-opacity:1" id="path4193-1-9" d="m 23.074829,40.870366 -5.70058,-3.048785 -7.654821,-2.930096 7.28429,3.757773 6.071111,2.221108 z"/><path style="display:inline;opacity:1;fill:#784421;fill-opacity:1;fill-rule:evenodd;stroke:none;stroke-width:1px;stroke-linecap:butt;stroke-linejoin:miter;stroke-opacity:1" id="path4193-1-9-8" d="m 51.431729,32.250315 -5.384244,3.577934 -6.204872,5.355493 6.758505,-4.637278 4.830611,-4.296149 z"/><path style="display:inline;opacity:1;fill:#d3c22a;fill-rule:evenodd;stroke:#000;stroke-width:.81px;stroke-linecap:butt;stroke-linejoin:miter;stroke-opacity:1;fill-opacity:1" id="path4192-3-1-9" d="M 9.9734553,27.093026 C 10.672958,26.606048 9.5638156,25.866604 8.9447804,26.282397 7.6796041,27.13219 4.8662093,28.609059 4.9872711,29.565174 5.1352784,30.734091 6.4112859,31.052309 8.3334175,32.053401 9.250425,32.531002 9.5351562,31.492942 9.1072964,31.082859 8.2478726,30.259141 6.9544209,30.362005 6.8870216,29.60167 6.794019,28.552499 8.7147736,27.969294 9.9734553,27.093026 Z"/><path style="display:inline;opacity:1;fill:#d3c22a;fill-rule:evenodd;stroke:#000;stroke-width:.71041751px;stroke-linecap:butt;stroke-linejoin:miter;stroke-opacity:1;fill-opacity:1" id="path4192-8-0" d="m 39.283043,12.783502 c 0.705748,0.320682 1.493387,-0.949769 0.897235,-1.264749 -1.675022,-0.885004 -4.043639,-1.461556 -4.88875,-1.415966 -1.567989,0.08459 -4.137343,1.373883 -5.315067,2.613869 -0.620529,0.653334 0.742629,1.128389 1.086529,0.745276 0.208662,-0.232456 2.770259,-2.137097 4.244959,-2.196118 1.572675,-0.06294 3.476133,1.290967 3.975094,1.517688 z"/><path style="display:inline;opacity:1;fill:#d3c22a;fill-rule:evenodd;stroke:#000;stroke-width:.81px;stroke-linecap:butt;stroke-linejoin:miter;stroke-opacity:1;fill-opacity:1" id="path4192-8" d="m 27.88757,38.792336 c -0.769601,-0.366287 -1.573673,1.192228 -0.922098,1.554911 1.830743,1.019037 4.878605,2.177727 5.785714,2.097322 1.683015,-0.149179 4.018797,-1.576422 5.243304,-3.109821 0.645178,-0.80793 -0.836452,-1.341025 -1.193305,-0.867857 -0.216522,0.287098 -2.574906,1.999904 -4.158481,2.115401 -1.688783,0.123171 -4.211029,-1.530991 -4.755134,-1.789956 z"/><path style="display:inline;opacity:1;fill:#784421;fill-opacity:1;fill-rule:evenodd;stroke:none;stroke-width:1px;stroke-linecap:butt;stroke-linejoin:miter;stroke-opacity:1" id="path4197-4-5" d="m 55.469922,27.280742 -0.670007,0.920285 -4.78974,3.362283 4.406362,-3.851042 1.053385,-0.431526 z"/><path id="path4190-5" d="m 26.86474,25.128111 c 0.01345,-0.883741 -0.234877,-1.80644 0.347666,-1.909552 0.397406,-0.07643 1.270333,0.794604 2.120867,1.553848 0.375743,0.290917 0.381217,0.635174 0.525039,1.036182 0.208262,0.564244 0.709433,0.530368 0.758215,0.139943 0.185665,-1.291944 -1.816751,-4.47308 -1.160297,-4.682691 0.594739,-0.200715 0.608409,0.659947 0.948834,0.45754 1.322365,-0.688957 2.874658,-1.181011 4.22415,-1.893046 2.242584,-1.166592 0.08439,-2.906751 0.306115,-3.226246 0.221728,-0.319489 2.646944,0.05949 1.653035,2.388039 -0.125414,0.324785 0.316769,0.471934 0.920966,0.0014 0.828654,-0.617811 1.969865,-1.894084 2.397129,-1.821461 0.750754,0.102695 -1.399519,1.88858 -0.606719,2.04271 0.965768,0.225062 2.45013,-1.081486 2.796025,-0.93963 0.373024,0.118771 0.413076,0.47723 0.04554,0.702716 -0.340419,0.202408 -0.471315,0.182932 -0.641524,0.284133 -0.402134,0.211301 0.777884,0.07965 1.452007,0.116657 0.446928,0.01226 1.189668,1.342956 -0.292159,1.077252 -4.403538,-0.745703 -8.214816,-0.119848 -10.744842,1.989154 -1.274813,1.084642 -0.890124,2.371079 1.111306,3.328709 2.028582,0.934551 5.607175,-0.06036 6.976294,-0.832702 0.680853,-0.404816 1.186974,1.170844 0.350109,1.27226 0,0 -3.22674,0.215717 -3.29791,0.494347 -0.02165,0.367342 1.262138,0.278207 1.731457,0.402274 0.973239,0.26232 -0.230443,1.068366 -0.872709,0.873368 -1.291987,-0.427271 -3.26353,-1.235834 -3.712459,-0.941101 -0.530289,0.363952 0.747471,1.195806 2.88853,1.424047 1.108852,0.146934 -0.294889,0.905129 -1.05312,0.76518 -1.997975,-0.30637 -3.59872,-2.433562 -3.823179,-2.2862 -0.530292,0.363955 1.142365,2.691648 1.695316,4.183862 0.367034,1.039784 -2.837347,1.367322 -3.309401,1.071121 -1.047829,-0.634947 -0.490415,-1.021982 -2.261933,-1.782714 -0.733824,-0.335172 -1.227546,-0.264024 -2.341125,-0.276096 -3.271535,-0.0079 -2.916139,-4.889758 0.868781,-5.013408 z" style="fill:#f55;fill-opacity:1;fill-rule:evenodd;stroke:#f55;stroke-width:.37834457px;stroke-linecap:butt;stroke-linejoin:miter;stroke-miterlimit:4;stroke-dasharray:none;stroke-opacity:1"/></g></svg>