<svg xmlns="http://www.w3.org/2000/svg" xmlns:svg="http://www.w3.org/2000/svg" id="svg4311" width="100%" height="100%" version="1.1" viewBox="0 0 64 64"><metadata id="metadata4316"/><g id="layer5" style="display:inline;opacity:1"><path style="display:inline;opacity:1;fill:#ff8080;fill-opacity:1;stroke:#000;stroke-width:.73031849;stroke-linecap:round;stroke-miterlimit:4;stroke-dasharray:none;stroke-dashoffset:0;stroke-opacity:1" id="path4168" d="M 12.142857,4.1785731 -8.3375598,4.867448 -15.321516,-14.397712 0.8425794,-26.993111 17.816495,-15.512335 Z" transform="matrix(1.5645444,0.05692315,-0.03980006,1.6319874,29.237645,49.816223)"/><g id="g4170" transform="matrix(0.9025,0,0,0.9025,56.009389,3.8730075)" style="display:inline;opacity:1;fill:#f55"><path id="path4170" d="m -43.391676,39.40743 c -7.639798,-0.08731 -5.729412,-11.644024 -2.015781,-12.709219 1.04401,-1.766828 2.025162,-2.710362 2.025162,-2.710362 0,0 1.275355,1.282865 2.230482,2.708897 3.987448,0.895705 4.674964,12.789711 -2.239863,12.710684 z" style="display:inline;opacity:1;fill:#f55;fill-rule:evenodd;stroke:none;stroke-width:.5;stroke-linecap:butt;stroke-linejoin:miter;stroke-miterlimit:4;stroke-dasharray:none;stroke-opacity:1"/><path id="path4172" d="m -37.346028,52.259853 c -2.409072,-0.441319 -4.537481,-4.625901 -4.504501,-6.092212 0.07557,-3.359623 7.352928,-14.656794 14.319418,-14.461581 8.049191,0.22555 11.810463,11.49127 12.700016,15.336144 0.605287,2.616224 -2.44021,5.644362 -5.459532,5.916072 -2.458507,0.221241 -4.215617,-2.139623 -7.040968,-2.917358 -2.359447,-0.649487 -7.575004,2.665815 -10.014433,2.218935 z" style="display:inline;opacity:1;fill:#f55;fill-rule:evenodd;stroke:none;stroke-width:.5;stroke-linecap:butt;stroke-linejoin:miter;stroke-miterlimit:4;stroke-dasharray:none;stroke-opacity:1"/><path id="path4170-8" d="m -31.482296,30.547824 c -7.622832,0.51711 -6.629128,-11.154604 -3.011026,-12.510151 0.901518,-1.84387 1.805252,-2.86205 1.805252,-2.86205 0,0 1.372473,1.178008 2.436995,2.524056 4.04559,0.577586 5.668259,12.380105 -1.231221,12.848145 z" style="display:inline;opacity:1;fill:#f55;fill-rule:evenodd;stroke:none;stroke-width:.5;stroke-linecap:butt;stroke-linejoin:miter;stroke-miterlimit:4;stroke-dasharray:none;stroke-opacity:1"/><path id="path4170-6" d="m -19.764233,31.460343 c -7.561214,-1.098318 -4.142423,-12.300591 -0.320808,-12.864626 1.268021,-1.613054 2.365078,-2.418371 2.365078,-2.418371 0,0 1.094858,1.440505 1.853404,2.980511 3.83424,1.415919 2.946035,13.296578 -3.897674,12.302486 z" style="display:inline;opacity:1;fill:#f55;fill-rule:evenodd;stroke:none;stroke-width:.5;stroke-linecap:butt;stroke-linejoin:miter;stroke-miterlimit:4;stroke-dasharray:none;stroke-opacity:1"/><path id="path4170-4" d="m -11.964508,42.221401 c -7.299228,-2.261232 -2.18532,-12.795771 1.67737,-12.758463 1.502695,-1.39623 2.711285,-2.021116 2.711285,-2.021116 0,0 0.858266,1.59335 1.368877,3.232674 3.568227,1.995209 0.849046,13.593565 -5.757532,11.546905 z" style="display:inline;opacity:1;fill:#f55;fill-rule:evenodd;stroke:none;stroke-width:.5;stroke-linecap:butt;stroke-linejoin:miter;stroke-miterlimit:4;stroke-dasharray:none;stroke-opacity:1"/></g><flowRoot id="flowRoot4156" xml:space="preserve" style="fill:#000;stroke:none;stroke-opacity:1;stroke-width:1px;stroke-linejoin:miter;stroke-linecap:butt;fill-opacity:1;font-family:sans-serif;font-style:normal;font-weight:400;font-size:40px;line-height:125%;letter-spacing:0;word-spacing:0"><flowRegion id="flowRegion4158"><rect id="rect4160" width="42.679" height="44.068" x="6.566" y="11.22"/></flowRegion><flowPara id="flowPara4162"/></flowRoot><flowRoot id="flowRoot4168" xml:space="preserve" style="fill:#000;stroke:none;stroke-opacity:1;stroke-width:1px;stroke-linejoin:miter;stroke-linecap:butt;fill-opacity:1;font-family:sans-serif;font-style:normal;font-weight:400;font-size:40px;line-height:125%;letter-spacing:0;word-spacing:0"><flowRegion id="flowRegion4170"><rect id="rect4172" width="63.766" height="63.64" x=".253" y="-.271"/></flowRegion><flowPara id="flowPara4174"/></flowRoot><flowRoot id="flowRoot4156-5" transform="translate(-61.146666,-0.11939061)" xml:space="preserve" style="font-style:normal;font-weight:400;font-size:40px;line-height:125%;font-family:sans-serif;letter-spacing:0;word-spacing:0;display:inline;opacity:1;fill:#000;fill-opacity:1;stroke:none;stroke-width:1px;stroke-linecap:butt;stroke-linejoin:miter;stroke-opacity:1"><flowRegion id="flowRegion4158-4"><rect id="rect4160-6" width="42.679" height="44.068" x="6.566" y="11.22"/></flowRegion><flowPara id="flowPara4162-7"/></flowRoot><flowRoot id="flowRoot4168-3" transform="translate(-61.146666,-0.11939061)" xml:space="preserve" style="font-style:normal;font-weight:400;font-size:40px;line-height:125%;font-family:sans-serif;letter-spacing:0;word-spacing:0;display:inline;opacity:1;fill:#000;fill-opacity:1;stroke:none;stroke-width:1px;stroke-linecap:butt;stroke-linejoin:miter;stroke-opacity:1"><flowRegion id="flowRegion4170-5"><rect id="rect4172-1" width="63.766" height="63.64" x=".253" y="-.271"/></flowRegion><flowPara id="flowPara4174-9"/></flowRoot><g id="g4237" transform="translate(0.625,-0.35714285)"><path style="fill:#e0f8ff;fill-opacity:.54205609;fill-rule:evenodd;stroke:none;stroke-width:.5;stroke-linecap:butt;stroke-linejoin:miter;stroke-miterlimit:4;stroke-dasharray:none;stroke-opacity:1" id="path4210" d="m 24.138813,55.034899 c 3.077577,1.074211 10.474616,1.250821 13.952733,-0.157842 0.703374,-0.284872 0.616603,-32.545478 0.505076,-33.871678 -0.117297,-1.394805 -1.03466,-1.587732 -1.073287,-2.13079 l 5e-6,-1.531013 c 0.974463,-0.05787 0.980671,-2.009783 -0.06314,-2.020305 l -12.437503,0 c -0.921614,0.03753 -0.959125,1.928294 0.126269,2.020305 l 0,1.38896 c 0.0053,0.92074 -0.497802,1.046852 -0.836532,1.862469 -0.487397,1.173584 -0.944289,34.170896 -0.173621,34.439894 z"/><path id="path4138" d="m 32.461021,30.48841 c -1.376278,-1.0026 -2.934241,0.56067 -3.606993,4.638119 -0.829787,5.029468 -0.233368,10.381738 1.679463,12.336645 1.766457,1.805312 4.717901,0.39755 5.697881,-6.125384 1.159529,-7.718029 -0.195251,-14.677073 -2.366339,-17.282165 -2.749647,-3.29935 -6.261613,0.238832 -7.425593,7.790906 -1.488625,9.658374 0.606589,18.039642 3.31736,20.881984 -2.530145,-3.208745 -3.606474,-12.762719 -2.52742,-19.992714 0.963963,-6.463937 4.155243,-7.572688 6.108873,-5.22671 1.456894,1.749455 1.96089,7.719781 1.306226,11.676304 -0.46414,2.805017 -2.115487,5.299771 -3.433786,3.467304 -1.599115,-2.222844 -1.452924,-5.103608 -1.157003,-7.097837 -0.09183,3.053511 0.964247,5.620211 1.941249,5.498174 1.831683,-0.228799 2.014438,-4.418682 1.975993,-5.654221 -0.12847,-4.128232 -1.344714,-4.790037 -1.509911,-4.910405 z" style="display:inline;fill:#ff2a2a;fill-opacity:1;fill-rule:evenodd;stroke:#000;stroke-width:.25;stroke-linecap:butt;stroke-linejoin:miter;stroke-miterlimit:4;stroke-dasharray:none;stroke-opacity:1"/><path id="path4186" d="m 26.190686,21.084302 c 0.07892,0 10.33828,-0.0947 10.33828,-0.0947 l 0.631345,-8.460028 c -3.496751,-0.303023 -8.02933,-0.310997 -11.758807,0.06314 z" style="fill:#d38d5f;fill-rule:evenodd;stroke:#000;stroke-width:.5;stroke-linecap:butt;stroke-linejoin:miter;stroke-miterlimit:4;stroke-dasharray:none;stroke-opacity:1"/><path id="path4178" d="m 24.138813,55.034899 c 3.077577,1.074211 10.474616,1.250821 13.952733,-0.157842 0.703374,-0.284872 0.616603,-32.545478 0.505076,-33.871678 -0.117297,-1.394805 -1.03466,-1.587732 -1.073287,-2.13079 l 5e-6,-1.531013 c 0.974463,-0.05787 0.980671,-2.009783 -0.06314,-2.020305 l -12.437503,0 c -0.921614,0.03753 -0.959125,1.928294 0.126269,2.020305 l 0,1.38896 c 0.0053,0.92074 -0.497802,1.046852 -0.836532,1.862469 -0.487397,1.173584 -0.944289,34.170896 -0.173621,34.439894 z" style="fill:#e0f8ff;fill-opacity:.50196078;fill-rule:evenodd;stroke:#000;stroke-width:.5;stroke-linecap:butt;stroke-linejoin:miter;stroke-miterlimit:4;stroke-dasharray:none;stroke-opacity:1"/><path id="path4180" d="m 25.165494,19.029983 c 0.771662,0.228432 11.341343,0.204027 12.289862,0.03698" style="fill:none;fill-rule:evenodd;stroke:#000;stroke-width:.25;stroke-linecap:butt;stroke-linejoin:miter;stroke-miterlimit:4;stroke-dasharray:none;stroke-opacity:1"/><path id="path4182" d="m 37.499999,17.248098 c -4.318129,0.117916 -8.405883,0.09185 -12.388393,0" style="fill:none;fill-rule:evenodd;stroke:#000;stroke-width:.25;stroke-linecap:butt;stroke-linejoin:miter;stroke-miterlimit:4;stroke-dasharray:none;stroke-opacity:1"/><path id="path4184" d="m 24.722808,54.403552 c 2.788496,0.741409 10.483351,0.642491 12.871112,-0.0504 0.44639,-7.947496 0.232983,-24.913196 0.129293,-33.299576 -0.0106,-0.788557 -0.407381,-1.441581 -0.915179,-1.495535 -3.796389,0.200291 -7.258016,0.126686 -10.736607,0.06696 -0.32559,10e-4 -0.819564,0.570833 -0.959821,1.361607 -0.697166,11.091685 -0.698307,22.241373 -0.388798,33.416947 z" style="fill:none;fill-rule:evenodd;stroke:#000;stroke-width:.25;stroke-linecap:butt;stroke-linejoin:miter;stroke-miterlimit:4;stroke-dasharray:none;stroke-opacity:1"/></g><path style="display:inline;opacity:1;fill:#000;fill-opacity:.44859811;fill-rule:evenodd;stroke:none;stroke-width:1px;stroke-linecap:butt;stroke-linejoin:miter;stroke-opacity:1" id="path4283-0" d="m 48.080706,57.188386 c -12.178352,0.211686 -23.853587,0.07949 -31.971525,0.01292 -3.389298,-9.802718 -6.644633,-20.88831 -10.169575,-31.862713 5.490921,11.946099 6.367366,19.615267 14.750662,26.208567 6.025034,4.738571 15.106093,4.469879 27.390438,5.641226 z"/><path style="display:inline;opacity:1;fill:#f9f9f9;fill-opacity:1;fill-rule:evenodd;stroke:none;stroke-width:1px;stroke-linecap:butt;stroke-linejoin:miter;stroke-opacity:1" id="path4281-0" d="M 32.139902,8.0498411 C 42.693424,15.370052 45.237292,17.573924 56.235872,26.109784 47.345471,23.496154 34.093351,10.724756 32.139902,8.0498411 Z"/></g></svg>