<svg xmlns="http://www.w3.org/2000/svg" xmlns:svg="http://www.w3.org/2000/svg" id="svg4311" width="100%" height="100%" version="1.1" viewBox="0 0 64 64"><metadata id="metadata4316"/><g id="layer5" style="display:inline;opacity:1"><path style="display:inline;opacity:1;fill:#ff8080;fill-opacity:1;stroke:#000;stroke-width:.73031849;stroke-linecap:round;stroke-miterlimit:4;stroke-dasharray:none;stroke-dashoffset:0;stroke-opacity:1" id="path4168" d="M 12.142857,4.1785731 -8.3375598,4.867448 -15.321516,-14.397712 0.8425794,-26.993111 17.816495,-15.512335 Z" transform="matrix(1.5645444,0.05692315,-0.03980006,1.6319874,29.237645,49.816223)"/><g id="g4256" transform="matrix(1.7824211,0,0,1.7824211,89.800371,-67.977319)" style="display:inline;opacity:1;fill:#f55;stroke:none"><path style="fill:#f55;fill-opacity:1;fill-rule:evenodd;stroke:none;stroke-width:.44821417px;stroke-linecap:butt;stroke-linejoin:miter;stroke-miterlimit:4;stroke-dasharray:none;stroke-opacity:1" id="path4213" d="m -39.425798,59.018638 c -2.792729,0.689565 -3.275419,-5.102738 -2.068699,-5.999173 0.20687,-0.965346 0.44822,-1.516998 0.44822,-1.516998 0,0 0.62061,0.517174 1.10331,1.103304 1.551517,0.0689 2.999557,5.792304 0.517169,6.412867 z"/><path style="fill:#f55;fill-opacity:1;fill-rule:evenodd;stroke:none;stroke-width:.44821417px;stroke-linecap:butt;stroke-linejoin:miter;stroke-miterlimit:4;stroke-dasharray:none;stroke-opacity:1" id="path4215" d="m -37.80532,66.121116 c -1.206739,-0.241349 -1.861827,-1.516998 -1.827347,-2.241042 0.206869,-2.344523 1.654956,-2.482435 3.275389,-4.171871 1.275695,-1.310128 2.413478,-2.930606 3.965,-2.86165 2.241041,0.03448 2.758215,1.689436 3.551216,3.378824 0.620609,1.379131 1.792869,2.241087 1.965262,3.103044 0.310304,1.310174 -0.482697,3.585694 -1.99974,3.689129 -1.206739,0.137919 -1.965262,-2.48239 -3.378825,-2.896129 -1.206739,-0.310304 -4.344262,2.206564 -5.550955,1.999695 z"/><path style="fill:#f55;fill-opacity:1;fill-rule:evenodd;stroke:none;stroke-width:.44821417px;stroke-linecap:butt;stroke-linejoin:miter;stroke-miterlimit:4;stroke-dasharray:none;stroke-opacity:1" id="path4217" d="m -34.323061,55.226075 c -2.723784,0.241347 -2.379,-5.585434 -1.068827,-6.275001 0.310305,-0.930913 0.655088,-1.448072 0.655088,-1.448072 0,0 0.482695,0.620594 0.861957,1.275682 1.448088,0.310304 2.034218,6.206042 -0.448218,6.447391 z"/><path style="fill:#f55;fill-opacity:1;fill-rule:evenodd;stroke:none;stroke-width:.44821417px;stroke-linecap:butt;stroke-linejoin:miter;stroke-miterlimit:4;stroke-dasharray:none;stroke-opacity:1" id="path4219" d="m -28.668671,55.984596 c -2.344522,-1.034348 -0.103435,-6.309478 1.172262,-6.343955 0.58613,-0.724044 1.034348,-1.034348 1.034348,-1.034348 0,0 0.20687,0.792999 0.275826,1.585999 1.103304,0.965392 -0.379261,6.723217 -2.482436,5.792304 z"/><path style="fill:#f55;fill-opacity:1;fill-rule:evenodd;stroke:none;stroke-width:.44821417px;stroke-linecap:butt;stroke-linejoin:miter;stroke-miterlimit:4;stroke-dasharray:none;stroke-opacity:1" id="path4221" d="m -25.496671,61.15629 c -1.896303,-1.896305 1.516998,-6.274998 2.723739,-5.82678 0.689564,-0.482697 1.17226,-0.620609 1.17226,-0.620609 0,0 0,0.827478 -0.103435,1.654957 0.758522,1.379129 -2.103174,6.516345 -3.792564,4.792432 z"/></g><flowRoot id="flowRoot4156" xml:space="preserve" style="fill:#000;stroke:none;stroke-opacity:1;stroke-width:1px;stroke-linejoin:miter;stroke-linecap:butt;fill-opacity:1;font-family:sans-serif;font-style:normal;font-weight:400;font-size:40px;line-height:125%;letter-spacing:0;word-spacing:0"><flowRegion id="flowRegion4158"><rect id="rect4160" width="42.679" height="44.068" x="6.566" y="11.22"/></flowRegion><flowPara id="flowPara4162"/></flowRoot><flowRoot id="flowRoot4168" xml:space="preserve" style="fill:#000;stroke:none;stroke-opacity:1;stroke-width:1px;stroke-linejoin:miter;stroke-linecap:butt;fill-opacity:1;font-family:sans-serif;font-style:normal;font-weight:400;font-size:40px;line-height:125%;letter-spacing:0;word-spacing:0"><flowRegion id="flowRegion4170"><rect id="rect4172" width="63.766" height="63.64" x=".253" y="-.271"/></flowRegion><flowPara id="flowPara4174"/></flowRoot><flowRoot id="flowRoot4156-5" transform="translate(-61.146666,-0.11939061)" xml:space="preserve" style="font-style:normal;font-weight:400;font-size:40px;line-height:125%;font-family:sans-serif;letter-spacing:0;word-spacing:0;display:inline;opacity:1;fill:#000;fill-opacity:1;stroke:none;stroke-width:1px;stroke-linecap:butt;stroke-linejoin:miter;stroke-opacity:1"><flowRegion id="flowRegion4158-4"><rect id="rect4160-6" width="42.679" height="44.068" x="6.566" y="11.22"/></flowRegion><flowPara id="flowPara4162-7"/></flowRoot><flowRoot id="flowRoot4168-3" transform="translate(-61.146666,-0.11939061)" xml:space="preserve" style="font-style:normal;font-weight:400;font-size:40px;line-height:125%;font-family:sans-serif;letter-spacing:0;word-spacing:0;display:inline;opacity:1;fill:#000;fill-opacity:1;stroke:none;stroke-width:1px;stroke-linecap:butt;stroke-linejoin:miter;stroke-opacity:1"><flowRegion id="flowRegion4170-5"><rect id="rect4172-1" width="63.766" height="63.64" x=".253" y="-.271"/></flowRegion><flowPara id="flowPara4174-9"/></flowRoot><g id="g4237" transform="translate(0.625,-0.35714285)"><path style="fill:#e0f8ff;fill-opacity:.54205609;fill-rule:evenodd;stroke:none;stroke-width:.5;stroke-linecap:butt;stroke-linejoin:miter;stroke-miterlimit:4;stroke-dasharray:none;stroke-opacity:1" id="path4210" d="m 24.138813,55.034899 c 3.077577,1.074211 10.474616,1.250821 13.952733,-0.157842 0.703374,-0.284872 0.616603,-32.545478 0.505076,-33.871678 -0.117297,-1.394805 -1.03466,-1.587732 -1.073287,-2.13079 l 5e-6,-1.531013 c 0.974463,-0.05787 0.980671,-2.009783 -0.06314,-2.020305 l -12.437503,0 c -0.921614,0.03753 -0.959125,1.928294 0.126269,2.020305 l 0,1.38896 c 0.0053,0.92074 -0.497802,1.046852 -0.836532,1.862469 -0.487397,1.173584 -0.944289,34.170896 -0.173621,34.439894 z"/><path id="path4138" d="m 32.461021,30.48841 c -1.376278,-1.0026 -2.934241,0.56067 -3.606993,4.638119 -0.829787,5.029468 -0.233368,10.381738 1.679463,12.336645 1.766457,1.805312 4.717901,0.39755 5.697881,-6.125384 1.159529,-7.718029 -0.195251,-14.677073 -2.366339,-17.282165 -2.749647,-3.29935 -6.261613,0.238832 -7.425593,7.790906 -1.488625,9.658374 0.606589,18.039642 3.31736,20.881984 -2.530145,-3.208745 -3.606474,-12.762719 -2.52742,-19.992714 0.963963,-6.463937 4.155243,-7.572688 6.108873,-5.22671 1.456894,1.749455 1.96089,7.719781 1.306226,11.676304 -0.46414,2.805017 -2.115487,5.299771 -3.433786,3.467304 -1.599115,-2.222844 -1.452924,-5.103608 -1.157003,-7.097837 -0.09183,3.053511 0.964247,5.620211 1.941249,5.498174 1.831683,-0.228799 2.014438,-4.418682 1.975993,-5.654221 -0.12847,-4.128232 -1.344714,-4.790037 -1.509911,-4.910405 z" style="display:inline;fill:#ff2a2a;fill-opacity:1;fill-rule:evenodd;stroke:#000;stroke-width:.25;stroke-linecap:butt;stroke-linejoin:miter;stroke-miterlimit:4;stroke-dasharray:none;stroke-opacity:1"/><path id="path4186" d="m 26.190686,21.084302 c 0.07892,0 10.33828,-0.0947 10.33828,-0.0947 l 0.631345,-8.460028 c -3.496751,-0.303023 -8.02933,-0.310997 -11.758807,0.06314 z" style="fill:#d38d5f;fill-rule:evenodd;stroke:#000;stroke-width:.5;stroke-linecap:butt;stroke-linejoin:miter;stroke-miterlimit:4;stroke-dasharray:none;stroke-opacity:1"/><path id="path4178" d="m 24.138813,55.034899 c 3.077577,1.074211 10.474616,1.250821 13.952733,-0.157842 0.703374,-0.284872 0.616603,-32.545478 0.505076,-33.871678 -0.117297,-1.394805 -1.03466,-1.587732 -1.073287,-2.13079 l 5e-6,-1.531013 c 0.974463,-0.05787 0.980671,-2.009783 -0.06314,-2.020305 l -12.437503,0 c -0.921614,0.03753 -0.959125,1.928294 0.126269,2.020305 l 0,1.38896 c 0.0053,0.92074 -0.497802,1.046852 -0.836532,1.862469 -0.487397,1.173584 -0.944289,34.170896 -0.173621,34.439894 z" style="fill:#e0f8ff;fill-opacity:.50196078;fill-rule:evenodd;stroke:#000;stroke-width:.5;stroke-linecap:butt;stroke-linejoin:miter;stroke-miterlimit:4;stroke-dasharray:none;stroke-opacity:1"/><path id="path4180" d="m 25.165494,19.029983 c 0.771662,0.228432 11.341343,0.204027 12.289862,0.03698" style="fill:none;fill-rule:evenodd;stroke:#000;stroke-width:.25;stroke-linecap:butt;stroke-linejoin:miter;stroke-miterlimit:4;stroke-dasharray:none;stroke-opacity:1"/><path id="path4182" d="m 37.499999,17.248098 c -4.318129,0.117916 -8.405883,0.09185 -12.388393,0" style="fill:none;fill-rule:evenodd;stroke:#000;stroke-width:.25;stroke-linecap:butt;stroke-linejoin:miter;stroke-miterlimit:4;stroke-dasharray:none;stroke-opacity:1"/><path id="path4184" d="m 24.722808,54.403552 c 2.788496,0.741409 10.483351,0.642491 12.871112,-0.0504 0.44639,-7.947496 0.232983,-24.913196 0.129293,-33.299576 -0.0106,-0.788557 -0.407381,-1.441581 -0.915179,-1.495535 -3.796389,0.200291 -7.258016,0.126686 -10.736607,0.06696 -0.32559,10e-4 -0.819564,0.570833 -0.959821,1.361607 -0.697166,11.091685 -0.698307,22.241373 -0.388798,33.416947 z" style="fill:none;fill-rule:evenodd;stroke:#000;stroke-width:.25;stroke-linecap:butt;stroke-linejoin:miter;stroke-miterlimit:4;stroke-dasharray:none;stroke-opacity:1"/></g><path style="display:inline;opacity:1;fill:#000;fill-opacity:.44859811;fill-rule:evenodd;stroke:none;stroke-width:1px;stroke-linecap:butt;stroke-linejoin:miter;stroke-opacity:1" id="path4283-0" d="m 48.080706,57.188386 c -12.178352,0.211686 -23.853587,0.07949 -31.971525,0.01292 -3.389298,-9.802718 -6.644633,-20.88831 -10.169575,-31.862713 5.490921,11.946099 6.367366,19.615267 14.750662,26.208567 6.025034,4.738571 15.106093,4.469879 27.390438,5.641226 z"/><path style="display:inline;opacity:1;fill:#f9f9f9;fill-opacity:1;fill-rule:evenodd;stroke:none;stroke-width:1px;stroke-linecap:butt;stroke-linejoin:miter;stroke-opacity:1" id="path4281-0" d="M 32.139902,8.0498411 C 42.693424,15.370052 45.237292,17.573924 56.235872,26.109784 47.345471,23.496154 34.093351,10.724756 32.139902,8.0498411 Z"/></g></svg>