<svg xmlns="http://www.w3.org/2000/svg" xmlns:osb="http://www.openswatchbook.org/uri/2009/osb" xmlns:svg="http://www.w3.org/2000/svg" xmlns:xlink="http://www.w3.org/1999/xlink" id="svg4206" version="1.1" viewBox="0 0 256 256"><style id="style3">svg{cursor:default}</style><defs id="defs4208"><linearGradient id="mooMilker1"><stop style="stop-color:#e6e6e6;stop-opacity:1" id="stop5131" offset="0"/><stop style="stop-color:#f9f9f9;stop-opacity:1" id="stop5133" offset="1"/></linearGradient><linearGradient id="linearGradient4509" osb:paint="solid"><stop style="stop-color:#faa;stop-opacity:1" id="stop4511" offset="0"/></linearGradient><linearGradient id="linearGradient4503" osb:paint="solid"><stop style="stop-color:#ff8080;stop-opacity:1" id="stop4505" offset="0"/></linearGradient><linearGradient id="linearGradient4497" osb:paint="solid"><stop style="stop-color:#f55;stop-opacity:1" id="stop4499" offset="0"/></linearGradient><linearGradient id="linearGradient5135-6-0-9-9" x1="110.612" x2="158.594" y1="152.964" y2="106.876" gradientTransform="matrix(1.05,0,0,1.05,-16.412704,-12.765879)" gradientUnits="userSpaceOnUse" xlink:href="#mooMilker1"/></defs><metadata id="metadata4211"/><g id="layer4"><path style="fill:#f55;fill-opacity:1;fill-rule:evenodd;stroke:#000;stroke-width:1.04999995px;stroke-linecap:butt;stroke-linejoin:miter;stroke-opacity:1" id="path5030-0-5-5-3" d="m 227.3432,138.24056 c -28.4094,-5.00548 -38.2412,-22.46706 -41.5891,-69.158039 -0.9827,-13.70431 -9.4194,-20.5275 -14.9287,-24.75112 6.1441,-4.26197 -0.8194,-3.36965 6.5785,-4.81085 19.2127,-2.5683 10.8549,81.366319 49.9393,98.720009 z"/><path style="fill:#ccc;fill-rule:evenodd;stroke:#000;stroke-width:1.04999995px;stroke-linecap:butt;stroke-linejoin:miter;stroke-opacity:1" id="path5053-1-2-8-6" d="m 170.2634,71.877001 c 13.4023,-1.72894 9.5369,-10.17308 11.2695,-16.44023 -3.6214,-3.51548 -7.4455,-4.80763 -10.7392,-5.70105 z"/><path style="fill:#f2f2f2;fill-rule:evenodd;stroke:#000;stroke-width:1.04999995px;stroke-linecap:butt;stroke-linejoin:miter;stroke-opacity:1" id="path5022-5-7-5-3" d="m 114.0873,60.002871 c -2.1234,9.63188 56.5352,17.13198 58.6874,9.65625 2.2784,-7.91414 -56.9872,-17.36822 -58.6874,-9.65625 z"/><path style="fill:none;fill-rule:evenodd;stroke:#000;stroke-width:.52499998;stroke-linecap:butt;stroke-linejoin:miter;stroke-miterlimit:4;stroke-dasharray:none;stroke-opacity:1" id="path5026-7-6-7-7" d="m 144.931,95.440381 c 0.7773,-17.29588 -2.3697,-28.96576 2.8125,-28.59376"/><path style="fill:none;fill-rule:evenodd;stroke:#000;stroke-width:.52499998;stroke-linecap:butt;stroke-linejoin:miter;stroke-miterlimit:4;stroke-dasharray:none;stroke-opacity:1" id="path5024-8-9-9-9" d="m 130.5873,65.159121 c 3.1983,0.14464 2.2641,12.21719 2.25,22.125"/><path style="fill:#e6e6e6;fill-rule:evenodd;stroke:#000;stroke-width:1.04999995px;stroke-linecap:butt;stroke-linejoin:miter;stroke-opacity:1" id="path5020-4-3-6-5" d="m 115.2123,57.190371 c -4.7646,-0.0114 3.0658,-11.64612 4.9688,-12.09375 16.7942,-3.9505 33.848,-0.58017 51.3748,6.68842 2.1963,0.91083 3.4097,16.11877 1.3125,15.24908 -19.8171,-8.21838 -38.8296,-9.7988 -57.6561,-9.84375 z"/><path style="fill:#ececec;fill-opacity:.50196078;fill-rule:evenodd;stroke:#000;stroke-width:1.04999995px;stroke-linecap:butt;stroke-linejoin:miter;stroke-opacity:1" id="path5006-6-5-2-0" d="m 152.0996,101.57549 c -1.3578,-8.622959 3.8444,-16.827349 13.3909,-19.357049 15.9571,-4.22847 16.3368,-11.82631 16.3076,-31.28948 -31.2112,-10.77395 -38.7141,-7.42462 -60.9879,-7.02687 -15.1118,16.06514 -2.3906,12.59316 0.9281,44.68031 z"/><path style="fill:none;fill-rule:evenodd;stroke:#000;stroke-width:.52499998;stroke-linecap:butt;stroke-linejoin:miter;stroke-miterlimit:4;stroke-dasharray:none;stroke-opacity:1" id="path5010-6-8-7-11" d="m 103.2123,85.643501 c -5.9727,-3.25951 3.3907,-30.58779 8.9063,-27.42188"/><path style="fill:#f9f9f9;fill-opacity:.50196078;fill-rule:evenodd;stroke:#000;stroke-width:1.04999995px;stroke-linecap:butt;stroke-linejoin:miter;stroke-opacity:1" id="path5008-1-2-5-9" d="m 104.1048,85.665581 c -7.3947,-3.46103 -6.6613,-4.49663 -10.2635,-3.20396 l -27.709804,9.94369 c -32.8212,2.11018 18.6524,-104.7855 32.880504,-63.90477 l 7.0268,24.52776 c 0.7993,2.78976 1.5576,2.01774 8.5401,6.38594 8.5279,16.16872 0.6261,28.03803 -10.4741,26.25134 z"/><path style="fill:#d7e3f4;fill-opacity:.50196078;fill-rule:evenodd;stroke:#000;stroke-width:1.24369895px;stroke-linecap:butt;stroke-linejoin:miter;stroke-opacity:1" id="path5002-7-8-9-7" d="m 98.2067,139.40346 c -11.310204,25.79146 -3.8351,36.58655 -3.2604,58.77436 0.4158,16.05234 -4.498904,23.53025 -7.172704,36.42195 -1.0711,5.16522 1.5281,9.6419 4.347204,11.23293 16.8531,9.51183 66.1656,9.13874 77.1602,0.90772 3.3271,-2.49068 5.1621,-6.49604 3.4776,-11.11946 -4.9978,-13.71911 -6.9138,-24.71979 -6.8465,-36.19504 0.1244,-21.23934 8.5364,-29.86635 -2.7169,-61.04364 z"/><path style="fill:url(#linearGradient5135-6-0-9-9);fill-opacity:1;fill-rule:evenodd;stroke:#000;stroke-width:1.04999995px;stroke-linecap:butt;stroke-linejoin:miter;stroke-opacity:1" id="path5004-4-9-9-9" d="m 165.8639,138.62899 c -0.4997,-12.1995 -2.59,-17.08832 -13.2741,-27.00761 l 0.029,-10.74351 -19.4133,-14.223349 c -3.2075,-2.34998 1.3726,-19.06291 -6.8328,-22.56998 l -14.6019,-6.24098 c 8.2366,5.26131 -2.6693,28.19643 -8.6138,27.58326 l 22.3681,10.76356 c 2.7349,1.31606 3.5032,9.863679 -3.685,11.212239 -14.1624,2.65703 -27.1905,18.48752 -27.3079,31.32011 -0.049,5.34334 71.5156,4.38772 71.332,-0.0937 z"/><path style="fill:#4d4d4d;fill-rule:evenodd;stroke:#000;stroke-width:1.01799583px;stroke-linecap:butt;stroke-linejoin:miter;stroke-opacity:1" id="path5870-0" d="m 135.464,130.94176 c -4.5414,-3.12629 0.2084,-11.30283 4.5495,-11.08957 4.4367,0.21798 2.5847,-4.75841 6.3307,-3.58711 5.4021,1.68908 11.505,5.91275 13.6476,6.69331 4.8588,1.77016 -17.7895,12.62219 -24.5278,7.98337 z"/><path style="fill:none;fill-rule:evenodd;stroke:#000;stroke-width:.5;stroke-linecap:butt;stroke-linejoin:miter;stroke-miterlimit:4;stroke-dasharray:none;stroke-opacity:1" id="path5048-2-4-7-5" d="m 96.8145,130.18181 c 22.6788,3.64375 53.7394,2.53865 67.5494,-0.25254"/><path style="fill:#ff8080;fill-rule:evenodd;stroke:#000;stroke-width:1.04999995px;stroke-linecap:butt;stroke-linejoin:miter;stroke-opacity:1" id="path5018-9-0-1-1" d="m 56.412396,97.137691 c 4.7932,-2.28167 9.4898,-4.31722 14.8952,-6.45865 15.9773,-19.15457 26.249704,-38.20692 28.459304,-59.83262 -1.2583,-4.14383 -1.8174,-8.63725 -2.3865,-13.12567 -6.756004,26.32231 -18.023704,52.7427 -40.968004,79.41694 z"/><path style="fill:#faa;fill-rule:evenodd;stroke:#000;stroke-width:1.04999995px;stroke-linecap:butt;stroke-linejoin:miter;stroke-opacity:1" id="path5014-2-1-5-8" d="M 93.1672,4.4092514 C 72.211696,5.2759714 30.356196,93.832181 47.274796,100.24841 68.409196,108.26344 112.1556,6.1766814 94.1495,4.4359114 c -0.3217,-0.0311 -0.6497,-0.0404 -0.9823,-0.0267 z m 0.5004,18.2170896 c -0.7924,8.7093 -15.055804,50.21958 -32.615604,66.2915 -0.089,-25.73672 15.0707,-54.97711 32.615604,-66.2915 z"/><path style="fill:#000;fill-rule:evenodd;stroke:none;stroke-width:1px;stroke-linecap:butt;stroke-linejoin:miter;stroke-opacity:1" id="path5032-2-3-3-2" d="M 61.712296,88.201531 61.314705,87.85868 c -2.3178,2.82197 -4.720741,4.849403 -6.810719,5.808115 -2.055973,0.943113 -3.882739,0.886867 -5.07289,-0.637124 1.06709,1.653095 2.962193,1.981707 5.27346,1.122301 2.276906,-0.846629 4.886448,-2.820405 7.405331,-5.60759 l -0.397591,-0.342851 z"/><path style="fill:#000;fill-rule:evenodd;stroke:none;stroke-width:1px;stroke-linecap:butt;stroke-linejoin:miter;stroke-opacity:1" id="path5036-3-6-7-1" d="m 94.153885,23.233033 c 0.419018,-3.320475 0.923421,-6.405201 0.469377,-8.536935 -0.230739,-1.083318 -0.707789,-1.922417 -1.547145,-2.425368 -0.825612,-0.494714 -1.984777,-0.653606 -3.584421,-0.449909 1.62524,-0.118326 2.724325,0.142231 3.439453,0.668748 0.70206,0.516896 1.047891,1.300716 1.174688,2.29539 0.258542,2.028176 -0.387575,4.928215 -0.989922,8.28959 z"/><path style="fill:#000;fill-rule:evenodd;stroke:none;stroke-width:1px;stroke-linecap:butt;stroke-linejoin:miter;stroke-opacity:1" id="path5040-4-0-2-5" d="M 48.962296,83.748411 C 51.421182,67.989521 56.044732,53.871513 63.667886,40.868827 68.678713,31.938374 75.101564,23.474641 83.217596,15.324241 74.941212,23.308262 68.310848,31.651222 63.06733,40.522845 55.597173,53.722882 51.191471,67.963368 48.962296,83.748411 Z"/><path style="fill:#e6e6e6;fill-rule:evenodd;stroke:#000;stroke-width:1;stroke-linecap:butt;stroke-linejoin:miter;stroke-miterlimit:4;stroke-dasharray:none;stroke-opacity:1" id="path5055-7-5-7-6" d="m 145.3009,34.111341 4.9157,-1.03133 c -0.3993,-5.03883 -3.4376,-9.98439 -4.9157,1.03133 z"/><path style="fill:#faa;fill-rule:evenodd;stroke:#000;stroke-width:1px;stroke-linecap:butt;stroke-linejoin:miter;stroke-opacity:1" id="path5866-9" d="m 129.886,34.821791 9.2354,-3.57297 c 13.7425,0.54852 25.6685,0.72515 39.3337,-2.44725 6.8471,-1.58957 27.4686,14.05954 24.0021,41.58466 -6.3074,50.083729 14.0291,57.334589 21.6606,62.027469 8.1848,5.03321 6.3241,7.99848 -1.6072,4.8954 -30.7731,-12.03984 -27.9281,-36.40549 -31.7561,-66.816179 -2.3147,-18.38816 -9.5562,-28.45581 -11.0688,-27.57043 l -3.5498,2.07787 z"/><path style="fill:#ff8080;fill-rule:evenodd;stroke:#000;stroke-width:1.04999995px;stroke-linecap:butt;stroke-linejoin:miter;stroke-opacity:1" id="path5028-5-2-8-9" d="m 119.8998,45.471621 c 0,0 1.0448,-10.93186 10.9464,-11.22321 23.986,-0.70577 41.3148,6.09194 45.6355,8.08327 6.3925,2.94618 5.4644,9.93665 5.5341,14.26494 -16.3197,-11.63911 -54.8362,-15.79706 -62.116,-11.125 z"/><ellipse style="opacity:1;fill:#f2f2f2;fill-opacity:1;stroke:#000;stroke-width:1.02201772;stroke-linecap:round;stroke-linejoin:round;stroke-miterlimit:4;stroke-dasharray:none;stroke-dashoffset:0;stroke-opacity:1" id="path5061-2-9-0-59" cx="129.552" cy="163.768" rx="25.736" ry="7.986"/><path style="fill:none;fill-rule:evenodd;stroke:#000;stroke-width:1.02201772px;stroke-linecap:round;stroke-linejoin:round;stroke-opacity:1" id="path5063-6-9-6-7" d="m 110.8925,165.69064 0.7608,-5.51551 c 0,0 1.395,6.0408 1.395,5.51551 0,-0.52527 1.2681,-4.85889 1.2681,-4.85889 l 1.2682,4.59625 2.4096,-4.99022 -1.9023,4.85891 3.8044,-1.57587 -2.029,-3.28304 4.4386,0.26265 -2.4096,3.93964 4.3118,-0.13133 -2.1558,-3.54568"/><path style="fill:none;fill-rule:evenodd;stroke:#000;stroke-width:1.02201772px;stroke-linecap:round;stroke-linejoin:round;stroke-opacity:1" id="path5065-2-8-4-0" d="m 128.393,165.95329 1.1414,-5.38419 1.1413,2.49512 c 0,0 0.8877,-2.88909 0.8877,-2.23247 0,0.6566 0.5073,5.5155 0.5073,5.5155 l 2.1559,-5.64682 -0.3804,3.54568 c 0,0 2.4094,-4.07098 2.1558,-3.54568 -0.2537,0.52528 -1.6486,6.69739 -1.6486,6.69739 l 3.1704,-0.78792 0.2536,-6.30346 1.7755,1.7072 -2.0291,2.62643 2.9167,1.05057 1.0146,-5.3842 0,5.3842 3.0434,-0.13131 -3.4238,-2.49511 1.7753,0 -2.2826,-2.10116 5.0725,-0.26263 -0.3804,5.38418 0.7608,-5.25286 2.9168,0.91924 -3.2972,1.57586 3.2972,2.62644"/><path style="fill:none;fill-rule:evenodd;stroke:#1c1f24;stroke-width:.95287502;stroke-linecap:round;stroke-linejoin:miter;stroke-miterlimit:4;stroke-dasharray:none;stroke-opacity:1" id="path5067-6-9-7-8" d="m 99.2106,179.08325 c -0.3941,7.76074 1.879,16.64434 1.442,33.17823 -0.3846,14.55525 -3.0757,20.75593 -3.3732,28.97739"/><path style="fill:none;fill-rule:evenodd;stroke:#1c1f24;stroke-width:.95287502;stroke-linecap:round;stroke-linejoin:miter;stroke-miterlimit:4;stroke-dasharray:none;stroke-opacity:1" id="path5069-6-6-3-3" d="m 96.9077,240.87598 c 4.0306,1.72577 6.5416,1.89355 13.5195,2.39207"/><path style="fill:none;fill-rule:evenodd;stroke:#1c1f24;stroke-width:.95287502;stroke-linecap:round;stroke-linejoin:miter;stroke-miterlimit:4;stroke-dasharray:none;stroke-opacity:1" id="path5069-7-2-7-1-7" d="m 98.951,230.27362 c 2.554,1.11856 5.857,1.72787 9.2002,1.92279"/><path style="fill:none;fill-rule:evenodd;stroke:#1c1f24;stroke-width:.95287502;stroke-linecap:round;stroke-linejoin:miter;stroke-miterlimit:4;stroke-dasharray:none;stroke-opacity:1" id="path5069-3-7-3-5-1" d="m 100.4276,219.54648 c 4.0305,1.72577 5.861,2.12043 12.8388,2.61895"/><path style="fill:none;fill-rule:evenodd;stroke:#1c1f24;stroke-width:.95287502;stroke-linecap:round;stroke-linejoin:miter;stroke-miterlimit:4;stroke-dasharray:none;stroke-opacity:1" id="path5069-2-1-4-1-1" d="m 100.8819,208.21218 c 1.9002,1.34123 4.3007,1.62609 8.7459,2.1252"/><path style="fill:none;fill-rule:evenodd;stroke:#1c1f24;stroke-width:.95287502;stroke-linecap:round;stroke-linejoin:miter;stroke-miterlimit:4;stroke-dasharray:none;stroke-opacity:1" id="path5069-5-2-6-0-53" d="m 100.7683,198.21794 c 4.0306,1.72576 5.9744,1.89357 12.9523,2.39206"/><path style="fill:none;fill-rule:evenodd;stroke:#1c1f24;stroke-width:.95287502;stroke-linecap:round;stroke-linejoin:miter;stroke-miterlimit:4;stroke-dasharray:none;stroke-opacity:1" id="path5069-0-7-2-2-9" d="m 99.5186,188.85538 c 2.4404,1.32096 5.6299,1.62666 8.0644,1.72038"/><path style="fill:none;fill-rule:evenodd;stroke:#1c1f24;stroke-width:.95287502;stroke-linecap:round;stroke-linejoin:miter;stroke-miterlimit:4;stroke-dasharray:none;stroke-opacity:1" id="path5069-5-7-5-8-1-5" d="m 98.8218,179.43164 c 4.0306,1.72574 6.7685,2.12042 13.7464,2.61894"/><path style="fill:#fff;fill-rule:evenodd;stroke:none;stroke-width:1px;stroke-linecap:butt;stroke-linejoin:miter;stroke-opacity:1" id="path5125-0-3-9-0" d="m 162.0184,147.07495 c 1.39147,2.66184 2.80067,5.08334 3.97063,7.47591 0.41575,2.38972 0.67952,4.7896 0.70978,7.51566 0.0634,5.70855 -0.90033,12.81538 -3.54601,24.2578 1.90889,-11.6522 2.06665,-18.6873 1.26214,-24.07989 -0.37907,-2.54088 -0.9721,-4.71977 -1.7004,-6.8676 -0.0708,-2.59961 -0.34662,-5.22773 -0.69614,-8.30188 z"/><path style="fill:#000;fill-rule:evenodd;stroke:none;stroke-width:1px;stroke-linecap:butt;stroke-linejoin:miter;stroke-opacity:1" id="path5137-2-6-1-7" d="m 121.35092,108.11408 c 2.62013,-0.57987 4.55221,-0.4262 6.74208,0.0275 -2.06356,-0.78206 -4.05341,-1.32572 -6.90172,-1.06532 z"/><path style="fill:#000;fill-rule:evenodd;stroke:none;stroke-width:1px;stroke-linecap:butt;stroke-linejoin:miter;stroke-opacity:1" id="path5141-8-5-7-8" d="m 152.12484,111.3048 0.48096,3.69858 0.56896,-3.68606 z"/><path style="fill:#000;fill-rule:evenodd;stroke:none;stroke-width:1px;stroke-linecap:butt;stroke-linejoin:miter;stroke-opacity:1" id="path5145-1-3-1-5" d="m 125.6072,96.273731 -0.19736,0.486493 c 0.27965,0.01947 1.11867,0.276501 1.92884,0.528029 0.40714,0.126403 0.81096,0.252726 1.14393,0.350652 0.33552,0.09868 0.59213,0.166645 0.71849,0.180326 -0.0856,-0.09163 -0.3156,-0.24302 -0.61326,-0.420813 -0.2989,-0.178531 -0.66933,-0.385736 -1.04285,-0.592929 -0.751,-0.416586 -1.49844,-0.825154 -1.74043,-1.018251 l -0.19736,0.486493 z"/><path id="path5868-1" d="m 114.4309,109.99304 c -6.3991,3.27314 -12.058,8.89833 -15.6893,15.10747 3.1097,2.70376 6.0248,-0.40365 9.8191,-2.04523 8.1917,-3.54406 22.8036,-5.58483 5.8702,-13.06224 z" style="fill:#4d4d4d;fill-opacity:1;fill-rule:evenodd;stroke:#000;stroke-width:1.04999995px;stroke-linecap:butt;stroke-linejoin:miter;stroke-opacity:1"/><path id="path5887-3" d="m 137.592,89.868341 -4.3865,-3.21382 c -3.2075,-2.34998 1.3726,-19.06291 -6.8328,-22.56998 l -2.6993,-1.15369 c 4.2325,12.83348 -6.9174,12.08752 -5.1374,16.55422 3.0595,7.67761 15.0436,12.51624 19.056,10.38327 z" style="fill:#4d4d4d;fill-opacity:1;fill-rule:evenodd;stroke:#000;stroke-width:1.04999995px;stroke-linecap:butt;stroke-linejoin:miter;stroke-opacity:1"/><path id="path5889-0" d="m 118.4973,142.26091 c 6.1429,0.15691 10.8175,0.31897 20.5658,-0.11017 0.7708,-3.58899 -21.4311,-6.09475 -20.5658,0.11017 z" style="fill:#333;fill-opacity:1;fill-rule:evenodd;stroke:#000;stroke-width:1.04999995px;stroke-linecap:butt;stroke-linejoin:miter;stroke-opacity:1"/></g></svg>