<svg xmlns="http://www.w3.org/2000/svg" xmlns:osb="http://www.openswatchbook.org/uri/2009/osb" xmlns:svg="http://www.w3.org/2000/svg" xmlns:xlink="http://www.w3.org/1999/xlink" id="svg2" version="1.1" viewBox="0 0 256 256"><defs id="defs4"><linearGradient id="linearGradient4183"><stop style="stop-color:#f55;stop-opacity:1" id="stop4185" offset="0"/><stop style="stop-color:#ff8080;stop-opacity:1" id="stop4187" offset="1"/></linearGradient><linearGradient id="linearGradient5760" osb:paint="solid"><stop style="stop-color:#efe7c1;stop-opacity:1" id="stop5762" offset="0"/></linearGradient><linearGradient id="linearGradient4189" x1="130.357" x2="129.286" y1="228.5" y2="177.429" gradientUnits="userSpaceOnUse" xlink:href="#linearGradient4183"/></defs><metadata id="metadata7"/><g id="layer2" style="opacity:1"><g id="g4171"><path style="fill:url(#linearGradient4189);fill-opacity:1;fill-rule:evenodd;stroke:#000;stroke-width:1;stroke-linecap:butt;stroke-linejoin:miter;stroke-miterlimit:4;stroke-dasharray:none;stroke-opacity:1" id="path4183" d="m 123.65926,111.33987 c -2.24933,62.20117 -21.25338,61.52151 -21.83245,80.74642 -0.33981,11.28186 2.10936,13.6004 6.7812,23.10309 4.7626,9.68729 0.10258,26.08084 18.13378,26.07365 26.12936,-0.0104 17.70247,-18.45552 22.87712,-28.05792 5.21561,-9.6784 6.36903,-12.46991 7.33958,-20.80298 0.89365,-7.67275 -6.4516,-9.25044 -7.42947,-23.34715 -0.97658,-14.0781 -4.76613,-27.13951 -7.26274,-42.14035 -2.06915,-12.4325 3.04075,-9.70941 -4.96187,-22.19059 z"/><path style="fill:#faa;fill-rule:evenodd;stroke:#000;stroke-width:1;stroke-linecap:butt;stroke-linejoin:miter;stroke-miterlimit:4;stroke-dasharray:none;stroke-opacity:1" id="path4181" d="m 122.61082,103.8421 c 0.16233,4.13733 -0.6335,8.39492 4.77555,10.13587 6.91239,-2.23881 10.91632,-5.52789 13.15714,-9.45365 1.79772,-6.490965 -1.63921,-10.073763 -6.33492,-10.720642 z"/><path style="fill:#ffd5d5;fill-rule:evenodd;stroke:#000;stroke-width:1;stroke-linecap:butt;stroke-linejoin:miter;stroke-miterlimit:4;stroke-dasharray:none;stroke-opacity:1" id="path4177" d="m 122.56208,92.390502 c -1.58937,1.821601 -6.09599,1.740806 -3.45984,7.553177 2.20349,4.942931 5.11992,5.132921 8.08921,4.970481 0.90077,-2.17661 0.79887,-4.35323 0.9746,-6.529847 z"/><path style="fill:#ff8080;fill-rule:evenodd;stroke:#000;stroke-width:1;stroke-linecap:butt;stroke-linejoin:miter;stroke-miterlimit:4;stroke-dasharray:none;stroke-opacity:1" id="path4175" d="m 108.47907,63.493513 c 1.17923,17.004926 11.83452,27.19894 20.95397,38.496837 14.3133,-20.098706 19.14536,-43.793746 26.41175,-66.565414 z"/><path style="fill:#faa;fill-rule:evenodd;stroke:#000;stroke-width:1;stroke-linecap:butt;stroke-linejoin:miter;stroke-miterlimit:4;stroke-dasharray:none;stroke-opacity:1" id="path4158" d="m 139.56891,10.767472 c 23.06281,6.27913 24.25865,22.393106 11.36385,33.673633 -10.2641,8.979153 -13.53139,18.772322 -28.65805,21.408178 -10.66053,1.857624 -35.565053,1.772462 -12.31989,-36.322131 6.66853,-10.928505 18.76773,-21.7127333 29.61409,-18.75968 z"/><path style="fill:#ffd5d5;fill-rule:evenodd;stroke:#000;stroke-width:1;stroke-linecap:butt;stroke-linejoin:miter;stroke-miterlimit:4;stroke-dasharray:none;stroke-opacity:1" id="path4179" d="m 133.81875,94.778281 c -4.03383,-0.690923 -5.7659,2.224314 -6.82222,4.824287 -0.89778,2.209742 -1.2169,5.074172 1.46191,6.968412 3.74248,-0.27981 4.84536,-3.43855 6.67603,-6.14 1.31676,-4.502371 0.99036,-5.257709 -1.31572,-5.652699 z"/><path style="opacity:1;fill:#f55;fill-rule:evenodd;stroke:#000;stroke-width:1;stroke-linecap:butt;stroke-linejoin:miter;stroke-miterlimit:4;stroke-dasharray:none;stroke-opacity:1" id="path4158-3" d="m 137.72157,18.210971 c 18.7848,5.114392 15.86041,13.658691 5.35751,22.846749 -8.36017,7.313576 -8.09758,13.828269 -20.41835,15.975191 -8.68306,1.513045 -25.946685,5.634475 -7.01335,-25.393808 5.43155,-8.901336 13.23977,-15.833409 22.07419,-13.428132 z"/><path style="fill:#000;fill-rule:evenodd;stroke:none;stroke-width:1px;stroke-linecap:butt;stroke-linejoin:miter;stroke-opacity:1" id="path4199" d="m 114.5216,33.47573 -0.38578,-0.01065 c -0.11797,6.6084 0.60825,10.597912 1.37748,13.638578 0.76653,3.030027 1.57559,5.116017 1.63974,7.959532 0.0645,-2.85865 -0.62421,-4.994704 -1.26374,-8.046478 -0.63728,-3.041037 -1.22658,-6.994736 -0.98192,-13.53034 l -0.38578,-0.01065 z"/><path style="fill:#000;fill-rule:evenodd;stroke:none;stroke-width:1px;stroke-linecap:butt;stroke-linejoin:miter;stroke-opacity:1" id="path4203" d="m 126.51963,19.999162 c 1.23383,5.945342 1.81114,11.328809 0.23325,16.351648 1.83348,-4.975201 1.52119,-10.421145 0.52563,-16.492486 z"/><path style="fill:#000;fill-rule:evenodd;stroke:none;stroke-width:1px;stroke-linecap:butt;stroke-linejoin:miter;stroke-opacity:1" id="path4207" d="m 144.54383,21.020843 c 0.21011,1.556794 0.27946,4.180351 0.19048,5.925044 0.34406,-1.717531 0.53661,-4.351184 0.58032,-5.965116 z"/><path style="fill:#000;fill-rule:evenodd;stroke:none;stroke-width:1px;stroke-linecap:butt;stroke-linejoin:miter;stroke-opacity:1" id="path4211" d="m 127.62409,98.911003 c 0.20998,-2.667423 -0.79629,-5.91955 -1.82838,-9.055639 -1.04054,-3.161797 -2.14621,-6.304131 -2.2103,-8.81899 -0.0645,2.531958 0.92273,5.729264 1.84146,8.932537 0.92582,3.227982 1.75056,6.373301 1.4294,8.863316 z"/><path style="fill:#000;fill-rule:evenodd;stroke:none;stroke-width:1px;stroke-linecap:butt;stroke-linejoin:miter;stroke-opacity:1" id="path4215" d="m 133.61868,94.55255 c -0.16138,-1.191882 -0.043,-3.474047 0.13272,-5.776176 0.17528,-2.295975 0.4054,-4.608227 0.4572,-5.888254 -0.18044,1.27237 -0.53651,3.554055 -0.84104,5.848144 -0.30138,2.27038 -0.55882,4.589824 -0.51826,5.877908 z"/><path style="fill:#000;fill-rule:evenodd;stroke:none;stroke-width:1px;stroke-linecap:butt;stroke-linejoin:miter;stroke-opacity:1" id="path4219" d="m 142.50186,52.787399 c 0.0507,0.195195 0.0519,0.598877 -0.003,1.163954 -0.0539,0.557484 -0.1581,1.249046 -0.29886,2.031627 -0.28143,1.564709 -0.70587,3.477437 -1.1561,5.390181 -0.45012,1.912236 -0.92521,3.821161 -1.3079,5.379516 -0.38253,1.557709 -0.67272,2.764852 -0.75213,3.270678 0.18692,-0.646099 0.44871,-1.523148 0.93857,-3.22091 0.44471,-1.541297 0.98251,-3.435747 1.49561,-5.334719 0.51278,-1.897762 1.00235,-3.805385 1.3495,-5.370753 0.17346,-0.782124 0.31281,-1.485244 0.4014,-2.06136 0.0862,-0.560549 0.13314,-1.049394 0.094,-1.374722 z"/><path style="fill:#000;fill-rule:evenodd;stroke:none;stroke-width:1px;stroke-linecap:butt;stroke-linejoin:miter;stroke-opacity:1" id="path4275" d="m 136.64931,108.93721 c 3.09074,18.00773 3.20254,36.69083 5.67212,55.09851 -2.12059,-18.30311 -1.92929,-37.23437 -4.68502,-55.25863 z"/><path style="fill:#000;fill-rule:evenodd;stroke:none;stroke-width:1px;stroke-linecap:butt;stroke-linejoin:miter;stroke-opacity:1" id="path4279" d="m 127.35715,113.67889 c 0.17759,17.39181 0.78894,35.74796 -3.60715,52.49968 4.7276,-16.70038 4.45142,-35.09017 4.60715,-52.50032 z"/><path style="fill:#000;fill-rule:evenodd;stroke:none;stroke-width:1px;stroke-linecap:butt;stroke-linejoin:miter;stroke-opacity:1" id="path4283" d="m 111.58968,215.47026 c 4.06583,1.38123 11.21647,2.58987 18.26747,2.75848 -1e-5,0 0.0555,-0.001 0.0555,-0.001 7.08043,-0.14768 13.98561,-1.35201 17.43436,-4.42947 -3.59543,2.79565 -10.45858,3.66065 -17.43335,3.49804 -1e-5,0 -0.0548,-0.001 -0.0548,-0.001 -6.96991,0.14279 -14.12523,-0.74484 -18.26921,-1.82461 z"/></g></g></svg>