<svg xmlns="http://www.w3.org/2000/svg" xmlns:svg="http://www.w3.org/2000/svg" id="svg4311" width="100%" height="100%" version="1.1" viewBox="0 0 64 64"><metadata id="metadata4316"/><g id="layer5" style="display:inline;opacity:1"><ellipse style="display:inline;fill:#ff8080;fill-opacity:1;stroke:#000;stroke-width:1.12779903;stroke-linecap:round;stroke-linejoin:round;stroke-miterlimit:4;stroke-dasharray:none;stroke-dashoffset:0;stroke-opacity:1" id="path4279" cx="31.82" cy="31.549" rx="27.008" ry="26.625"/><path id="path4156" d="m 22.250338,33.785754 0,3.848779 0.393752,-4.409527 c 0.828241,-1.45285 2.769832,-3.249746 4.887936,-4.931976 l 0.09505,1.949861 1.547807,-3.211546 c 2.158856,-1.605764 4.249819,-2.994876 5.268147,-3.670323 l -1.018328,3.237034 1.710792,-3.504666 c 1.955189,-1.197946 7.780028,-2.790983 11.581789,-7.519075 0.285132,5.429027 -6.53088,12.693227 -7.752874,15.522445 l -4.49422,1.172421 4.385599,-0.662702 c -0.515951,1.554805 -1.208413,2.969422 -2.077389,4.307572 l -1.575013,0.484284 0.719617,0.726426 c -1.086215,1.440106 -2.403254,2.778256 -3.937534,4.052685 l -4.901504,1.414617 4.45344,-0.904844 c -3.652351,2.918445 -7.060341,4.791856 -11.269394,4.536969 0,0 -0.149354,-0.152931 -0.29871,-0.254885 -0.923285,-5.964331 0.556686,-10.246415 2.281039,-12.183549 z" style="fill:#f55;fill-opacity:1;fill-rule:evenodd;stroke:none;stroke-width:.27516463px;stroke-linecap:butt;stroke-linejoin:miter;stroke-miterlimit:4;stroke-dasharray:none;stroke-opacity:1"/><path id="path4160" d="m 42.783583,21.309741 c -3.301935,3.106851 -9.632034,6.550355 -12.8627,10.214515 C 25.32437,36.718203 24.219784,41.912152 16.475746,50.37884 24.33856,42.42206 25.930121,36.979087 30.30096,31.713989 33.329712,28.061687 40.075524,24.381016 42.783583,21.309741 Z" style="fill:#ff2a2a;fill-opacity:1;fill-rule:evenodd;stroke:none;stroke-width:.27516463px;stroke-linecap:butt;stroke-linejoin:miter;stroke-miterlimit:4;stroke-dasharray:none;stroke-opacity:1"/><path style="display:inline;fill:#f9f9f9;fill-opacity:1;fill-rule:evenodd;stroke:none;stroke-width:1px;stroke-linecap:butt;stroke-linejoin:miter;stroke-opacity:1" id="path4281" d="M 33.310526,8.4466623 C 42.853897,9.7059588 51.837481,12.667445 56.143804,29.852737 42.960254,11.013531 41.261755,14.341438 33.310526,8.4466623 Z"/><flowRoot id="flowRoot4156" xml:space="preserve" style="fill:#000;stroke:none;stroke-opacity:1;stroke-width:1px;stroke-linejoin:miter;stroke-linecap:butt;fill-opacity:1;font-family:sans-serif;font-style:normal;font-weight:400;font-size:40px;line-height:125%;letter-spacing:0;word-spacing:0"><flowRegion id="flowRegion4158"><rect id="rect4160" width="42.679" height="44.068" x="6.566" y="11.22"/></flowRegion><flowPara id="flowPara4162"/></flowRoot><flowRoot id="flowRoot4168" xml:space="preserve" style="fill:#000;stroke:none;stroke-opacity:1;stroke-width:1px;stroke-linejoin:miter;stroke-linecap:butt;fill-opacity:1;font-family:sans-serif;font-style:normal;font-weight:400;font-size:40px;line-height:125%;letter-spacing:0;word-spacing:0"><flowRegion id="flowRegion4170"><rect id="rect4172" width="63.766" height="63.64" x=".253" y="-.271"/></flowRegion><flowPara id="flowPara4174"/></flowRoot><path style="display:inline;fill:#000;fill-opacity:.44859811;fill-rule:evenodd;stroke:none;stroke-width:1px;stroke-linecap:butt;stroke-linejoin:miter;stroke-opacity:1" id="path4283" d="M 43.352343,55.124348 C 18.554601,65.583105 -2.4191261,42.115746 7.6398162,20.86384 7.8289942,39.063247 21.867849,56.944615 43.352343,55.124348 Z"/><g id="g4261" transform="matrix(0.93094834,-0.36515091,0.36515091,0.93094834,-65.138864,34.27357)"><path id="path4179" d="m 84.66341,54.340417 13.763328,0.06313 5.366432,-5.618974 -0.1894,-21.086934 -5.492705,-5.240166 -13.889597,0.252538 -4.924494,5.050763 0.126269,21.086934 z" style="fill:#b50028;fill-opacity:1;fill-rule:evenodd;stroke:#000;stroke-width:.60000002;stroke-linecap:butt;stroke-linejoin:miter;stroke-miterlimit:4;stroke-dasharray:none;stroke-opacity:1"/><path id="path4195" d="m 88.249002,13.931143 0.0038,3.42617 5.726751,0.06314 -0.01691,-3.457738 c -2.004614,-0.34408 -3.887015,-0.280784 -5.713641,-0.03157 z" style="fill:#b3b3b3;fill-rule:evenodd;stroke:#000;stroke-width:.60000002;stroke-linecap:butt;stroke-linejoin:miter;stroke-miterlimit:4;stroke-dasharray:none;stroke-opacity:1"/><path id="path4183" d="m 87.194207,21.546514 -0.09087,-3.938906 c -0.243579,-0.932527 7.802369,-0.869357 8.124276,-0.04847 l 0.02774,4.212179 z" style="fill:#333;fill-rule:evenodd;stroke:#000;stroke-width:.60000002;stroke-linecap:butt;stroke-linejoin:miter;stroke-miterlimit:4;stroke-dasharray:none;stroke-opacity:1"/><ellipse id="path4199" cx="91.07" cy="15.327" rx=".815" ry=".792" style="fill:gray;fill-opacity:1;stroke:#000;stroke-width:.25;stroke-linecap:butt;stroke-miterlimit:4;stroke-dasharray:none;stroke-dashoffset:0"/><path id="path4185" d="m 82.270869,12.983318 0.0138,4.387942 1.944433,1.810892 13.669528,0.01649 1.905262,-1.976977 0.01939,-4.230441 -2.256824,-1.491972 -12.880062,0.0069 z" style="fill:#b50028;fill-opacity:.50196078;fill-rule:evenodd;stroke:#000;stroke-width:.60000002;stroke-linecap:butt;stroke-linejoin:miter;stroke-miterlimit:4;stroke-dasharray:none;stroke-opacity:1"/><path id="path4191" d="m 82.208165,12.955731 1.43043,-0.04081 c 0,0 14.725009,0.103948 14.882845,0.103948 0.157836,0 1.335071,0.102359 1.335071,0.102359" style="fill:none;fill-rule:evenodd;stroke:#000;stroke-width:.25;stroke-linecap:butt;stroke-linejoin:miter;stroke-miterlimit:4;stroke-dasharray:none;stroke-opacity:1"/><path id="path4193" d="m 82.106461,17.375148 1.563701,-0.157836 15.016774,0.01849 1.002493,0.07621" style="fill:none;fill-rule:evenodd;stroke:#000;stroke-width:.25;stroke-linecap:butt;stroke-linejoin:miter;stroke-miterlimit:4;stroke-dasharray:none;stroke-opacity:1"/><path id="path4187" d="m 84.884381,11.69304 -1.262691,1.167989 0.03157,4.324715 0.726047,1.862469" style="fill:none;fill-rule:evenodd;stroke:#000;stroke-width:.25;stroke-linecap:butt;stroke-linejoin:miter;stroke-miterlimit:4;stroke-dasharray:none;stroke-opacity:1"/><path id="path4189" d="m 97.290316,11.69304 1.325826,1.357393 0.06313,4.103744 -1.104854,1.988738" style="fill:none;fill-rule:evenodd;stroke:#000;stroke-width:.25;stroke-linecap:butt;stroke-linejoin:miter;stroke-miterlimit:4;stroke-dasharray:none;stroke-opacity:1"/><path id="path4181" d="m 84.310754,22.717676 c -0.0099,-0.62651 1.952422,-1.154065 2.83881,-1.716122 2.625867,-0.137471 5.273766,-0.223534 8.075804,0.05006 0.99881,0.489703 3.024955,0.844653 3.006278,1.565944 z" style="fill:#1a1a1a;fill-rule:evenodd;stroke:#000;stroke-width:.60000002;stroke-linecap:butt;stroke-linejoin:miter;stroke-miterlimit:4;stroke-dasharray:none;stroke-opacity:1"/><path id="path4197" d="m 80.490127,45.221274 c 0.06331,2.754423 1.446665,6.992445 10.759999,6.751699 6.511041,-0.168308 11.400034,-1.42259 11.250804,-6.883595 L 102.72416,30.53697 C 102.5013,27.240221 98.356809,23.507796 91.156509,23.443489 83.85322,23.378265 80.419883,28.002028 80.445481,30.449041 Z" style="fill:#ff184c;fill-opacity:1;fill-rule:evenodd;stroke:#000;stroke-width:.24810523;stroke-linecap:butt;stroke-linejoin:miter;stroke-miterlimit:4;stroke-dasharray:none;stroke-opacity:1"/><path id="path4259" d="m 98.666809,54.023266 3.677081,-3.847428 -4.21889,-17.961551 -14.017858,-9.375 -3.258366,3.375567 16.695866,6.178004 z" style="fill:#1a1a1a;fill-rule:evenodd;stroke:#000;stroke-width:.60000002;stroke-linecap:butt;stroke-linejoin:miter;stroke-miterlimit:4;stroke-dasharray:none;stroke-opacity:1"/><path id="path4202" d="m 79.646986,49.084126 17.954967,-17.537359 0.739355,-8.810882 3.217472,3.049031 -1.904082,8.646047 -15.894005,18.939461 z" style="fill:#1a1a1a;fill-rule:evenodd;stroke:#000;stroke-width:.60000002;stroke-linecap:butt;stroke-linejoin:miter;stroke-miterlimit:4;stroke-dasharray:none;stroke-opacity:1"/><g id="g4249" transform="matrix(1.001535,-0.16404875,0.15263927,0.86031452,-33.846923,-8.6233158)"><path style="fill:#1a1a1a;fill-rule:evenodd;stroke:#000;stroke-width:.5;stroke-linecap:butt;stroke-linejoin:miter;stroke-miterlimit:4;stroke-dasharray:none;stroke-opacity:1" id="path4221" d="m 114.17411,64.870537 c 1.05488,4.41651 4.36845,4.558071 5.55803,4.017857 -0.35771,-1.789632 -5.1577,-5.467991 -5.55803,-4.017857 z"/><path style="fill:#333;fill-rule:evenodd;stroke:#000;stroke-width:.5;stroke-linecap:butt;stroke-linejoin:miter;stroke-miterlimit:4;stroke-dasharray:none;stroke-opacity:1" id="path4217" d="m 120.20089,69.870536 c -2.49124,-2.659475 -5.35667,-3.890158 -6.0491,-5.089285 -1.8724,1.76339 -2.85139,3.98494 -3.57143,6.339286 0.27937,0.618597 5.36957,3.98001 5.35714,3.616071 0.11161,-0.08929 4.26339,-4.866072 4.26339,-4.866072 z"/><path style="fill:#333;fill-rule:evenodd;stroke:#000;stroke-width:.5;stroke-linecap:butt;stroke-linejoin:miter;stroke-miterlimit:4;stroke-dasharray:none;stroke-opacity:1" id="path4219" d="m 119.66518,69.669644 c -5.08711,-0.156698 -6.54689,4.294276 -8.45982,8.169643 -0.26053,0.340697 4.59626,6.554754 4.73214,6.316964 0.14322,-0.137659 3.25495,-11.074305 3.79464,-12.544643 z"/><g id="g4244" transform="matrix(-1,0,0,1,252.03124,7.9910714)"><path id="path4221-2" d="m 124.57435,56.908002 c 1.05488,4.41651 4.36845,4.558071 5.55803,4.017857 -0.35771,-1.789632 -5.1577,-5.467991 -5.55803,-4.017857 z" style="display:inline;opacity:1;fill:#1a1a1a;fill-rule:evenodd;stroke:#000;stroke-width:.5;stroke-linecap:butt;stroke-linejoin:miter;stroke-miterlimit:4;stroke-dasharray:none;stroke-opacity:1"/><path id="path4217-7" d="m 130.60113,61.908001 c -2.49124,-2.659475 -5.35667,-3.890158 -6.0491,-5.089285 -1.8724,1.76339 -2.85139,3.98494 -3.57143,6.339286 0.27937,0.618597 5.36957,3.980009 5.35714,3.61607 0.11161,-0.08929 4.26339,-4.866071 4.26339,-4.866071 z" style="display:inline;opacity:1;fill:#333;fill-rule:evenodd;stroke:#000;stroke-width:.5;stroke-linecap:butt;stroke-linejoin:miter;stroke-miterlimit:4;stroke-dasharray:none;stroke-opacity:1"/><path id="path4219-5" d="m 130.06542,61.707109 c -5.08711,-0.156698 -6.54689,4.294276 -8.45982,8.169642 -0.26053,0.340697 4.59626,6.554754 4.73214,6.316964 0.14322,-0.137659 3.25495,-11.074304 3.79464,-12.544642 z" style="display:inline;opacity:1;fill:#333;fill-rule:evenodd;stroke:#000;stroke-width:.5;stroke-linecap:butt;stroke-linejoin:miter;stroke-miterlimit:4;stroke-dasharray:none;stroke-opacity:1"/></g><path style="fill:#4d4d4d;fill-rule:evenodd;stroke:#000;stroke-width:.53969067;stroke-linecap:butt;stroke-linejoin:miter;stroke-miterlimit:4;stroke-dasharray:none;stroke-opacity:1" id="path4215" d="m 119.23753,68.878899 c 0.326,1.094881 0.13048,2.169281 0.15512,3.062231 l 2.84663,-0.07943 c -0.3153,-0.999458 -0.44039,-1.991656 -0.0352,-2.963615 z"/></g></g></g></svg>