<svg xmlns="http://www.w3.org/2000/svg" xmlns:svg="http://www.w3.org/2000/svg" xmlns:xlink="http://www.w3.org/1999/xlink" id="svg2" version="1.1" viewBox="0 0 256 256"><defs id="defs4"><linearGradient id="linearGradient4186"><stop style="stop-color:#5aa12c;stop-opacity:1" id="stop4188" offset="0"/><stop style="stop-color:#8dd35f;stop-opacity:1" id="stop4190" offset="1"/></linearGradient><linearGradient id="linearGradient4180"><stop id="stop4182" offset="0" style="stop-color:#21001b;stop-opacity:1"/><stop style="stop-color:#4a003c;stop-opacity:1" id="stop4196" offset=".621"/><stop id="stop4184" offset="1" style="stop-color:#660053;stop-opacity:1"/></linearGradient><linearGradient id="linearGradient4192" x1="605.965" x2="587.025" y1="60.157" y2="47.909" gradientTransform="matrix(-1.21,0,0,1.21,771.57903,-17.51632)" gradientUnits="userSpaceOnUse" xlink:href="#linearGradient4186"/><linearGradient id="linearGradient4194" x1="562.655" x2="526.037" y1="159.278" y2="114.074" gradientTransform="matrix(-1.21,0,0,1.21,771.57903,-17.51632)" gradientUnits="userSpaceOnUse" xlink:href="#linearGradient4180"/></defs><metadata id="metadata7"/><g id="layer2" style="opacity:1"><g id="g4171"><path style="fill:url(#linearGradient4194);fill-opacity:1;fill-rule:evenodd;stroke:#000;stroke-width:1.21000004px;stroke-linecap:butt;stroke-linejoin:miter;stroke-opacity:1" id="path4168" d="m 184.51296,247.73297 c 38.26839,-1.25724 48.79947,-24.91008 48.62708,-46.5748 -0.16722,-21.01793 -10.34603,-38.546 -26.37172,-49.57699 C 183.83143,135.79299 114.87866,93.95815 95.060165,64.306315 67.674162,43.024272 44.105831,36.305971 32.1826,74.011538 31.438922,111.17085 64.156233,189.79212 114.28975,223.53297 c 16.64189,11.20033 42.0446,25.12576 70.22321,24.2 z"/><path style="fill:url(#linearGradient4192);fill-opacity:1;fill-rule:evenodd;stroke:#000;stroke-width:1.21000004px;stroke-linecap:butt;stroke-linejoin:miter;stroke-opacity:1" id="path4170" d="M 107.11458,64.745964 C 86.100297,64.933776 79.331387,39.599247 63.876263,40.147487 59.567053,31.929361 53.372821,11.771407 49.510731,12.17819 l -6.552936,0.214074 c -4.359618,0.142423 -0.769439,18.021798 -0.471513,31.727648 -20.041532,9.485742 -9.392129,35.56022 -13.903481,56.989018 9.031719,-8.608718 9.649956,-27.795878 11.764479,-44.766172 -2.097402,14.638705 1.315403,24.985849 5.500285,35.904609 3.9605,-18.550983 14.46895,-29.811913 14.514628,-39.265893 7.77039,13.888931 27.764261,28.336753 46.752387,11.76449 z"/><path style="fill:#fff;fill-opacity:.50196078;fill-rule:evenodd;stroke:none;stroke-width:1px;stroke-linecap:butt;stroke-linejoin:miter;stroke-opacity:1" id="path4198" d="m 214.97903,191.12226 c 0.28591,-6.7167 -3.14,-14.91169 -8.74912,-23.56122 -1.57729,-1.45202 -3.23548,-2.90789 -4.95986,-4.36596 -9.73908,-8.23501 -22.03724,-16.90834 -34.67125,-25.66283 -25.34869,-17.56488 -53.2745,-36.27476 -68.730479,-54.661786 13.610709,20.187226 40.239189,41.139096 64.100779,60.785776 11.95301,9.84163 23.03809,19.21955 31.43794,27.95206 1.46389,1.52185 2.83687,3.01471 4.11085,4.47694 7.57439,4.92346 14.03756,9.92299 17.46114,15.03702 z"/></g></g></svg>