<svg xmlns="http://www.w3.org/2000/svg" xmlns:svg="http://www.w3.org/2000/svg" id="svg4311" width="100%" height="100%" version="1.1" viewBox="0 0 64 64"><metadata id="metadata4316"/><g id="layer5" style="display:inline;opacity:1"><ellipse style="display:inline;fill:#ff8080;fill-opacity:1;stroke:#000;stroke-width:1.12779903;stroke-linecap:round;stroke-linejoin:round;stroke-miterlimit:4;stroke-dasharray:none;stroke-dashoffset:0;stroke-opacity:1" id="path4279" cx="31.82" cy="31.549" rx="27.008" ry="26.625"/><path style="display:inline;fill:#f9f9f9;fill-opacity:1;fill-rule:evenodd;stroke:none;stroke-width:1px;stroke-linecap:butt;stroke-linejoin:miter;stroke-opacity:1" id="path4281" d="M 33.310526,8.4466623 C 42.853897,9.7059588 51.837481,12.667445 56.143804,29.852737 42.960254,11.013531 41.261755,14.341438 33.310526,8.4466623 Z"/><path style="display:inline;fill:#000;fill-opacity:.44859811;fill-rule:evenodd;stroke:none;stroke-width:1px;stroke-linecap:butt;stroke-linejoin:miter;stroke-opacity:1" id="path4283" d="M 43.352343,55.124348 C 18.554601,65.583105 -2.4191261,42.115746 7.6398162,20.86384 7.8289942,39.063247 21.867849,56.944615 43.352343,55.124348 Z"/><flowRoot id="flowRoot4156" xml:space="preserve" style="fill:#000;stroke:none;stroke-opacity:1;stroke-width:1px;stroke-linejoin:miter;stroke-linecap:butt;fill-opacity:1;font-family:sans-serif;font-style:normal;font-weight:400;font-size:40px;line-height:125%;letter-spacing:0;word-spacing:0"><flowRegion id="flowRegion4158"><rect id="rect4160" width="42.679" height="44.068" x="6.566" y="11.22"/></flowRegion><flowPara id="flowPara4162"/></flowRoot><flowRoot id="flowRoot4168" xml:space="preserve" style="fill:#000;stroke:none;stroke-opacity:1;stroke-width:1px;stroke-linejoin:miter;stroke-linecap:butt;fill-opacity:1;font-family:sans-serif;font-style:normal;font-weight:400;font-size:40px;line-height:125%;letter-spacing:0;word-spacing:0"><flowRegion id="flowRegion4170"><rect id="rect4172" width="63.766" height="63.64" x=".253" y="-.271"/></flowRegion><flowPara id="flowPara4174"/></flowRoot><g id="g4188" transform="matrix(1.0721353,0,0,1.0721353,-2.3722498,-2.2906402)"><path id="path4189" d="m 33.645804,53.214432 c 3.004446,-0.08631 5.349291,-0.914863 7.405869,-1.852558 C 36.831727,39.047903 32.241479,26.828866 29.005762,14.262568 l -2.660078,0.589787 c 3.119429,12.676429 5.477855,25.475906 7.30012,38.362077 z" style="fill:#f06;fill-rule:evenodd;stroke:none;stroke-width:1px;stroke-linecap:butt;stroke-linejoin:miter;stroke-opacity:1"/><ellipse id="path4200-9" cx="24.109" cy="49.702" rx=".58" ry=".536" transform="matrix(0.96867326,-0.2483387,0.2483387,0.96867326,0,0)" style="display:inline;opacity:.73999999;fill:#e580ff;fill-opacity:1;stroke:none;stroke-width:.5;stroke-linecap:round;stroke-linejoin:round;stroke-miterlimit:4;stroke-dasharray:none;stroke-dashoffset:0;stroke-opacity:1"/><path id="path4187" d="m 24.541774,10.554328 1.734671,3.801879 2.521688,-0.637961 -0.479931,-4.132078 c -1.297245,0.2516805 -2.561684,0.563995 -3.776428,0.96816 z" style="fill:#d38d5f;fill-rule:evenodd;stroke:#000;stroke-width:.5;stroke-linecap:butt;stroke-linejoin:miter;stroke-miterlimit:4;stroke-dasharray:none;stroke-opacity:1"/><ellipse id="path4200" cx="21.653" cy="55.461" rx=".759" ry=".692" transform="matrix(0.96867326,-0.2483387,0.2483387,0.96867326,0,0)" style="opacity:.73999999;fill:#e580ff;fill-opacity:1;stroke:none;stroke-width:.5;stroke-linecap:round;stroke-linejoin:round;stroke-miterlimit:4;stroke-dasharray:none;stroke-dashoffset:0;stroke-opacity:1"/><ellipse id="path4200-9-9" cx="25.091" cy="57.448" rx=".58" ry=".536" transform="matrix(0.96867326,-0.2483387,0.2483387,0.96867326,0,0)" style="display:inline;opacity:.73999999;fill:#e580ff;fill-opacity:1;stroke:none;stroke-width:.5;stroke-linecap:round;stroke-linejoin:round;stroke-miterlimit:4;stroke-dasharray:none;stroke-dashoffset:0;stroke-opacity:1"/><ellipse id="path4200-9-2" cx="22.814" cy="40.126" rx=".58" ry=".536" transform="matrix(0.96867326,-0.2483387,0.2483387,0.96867326,0,0)" style="display:inline;opacity:.73999999;fill:#e580ff;fill-opacity:1;stroke:none;stroke-width:.5;stroke-linecap:round;stroke-linejoin:round;stroke-miterlimit:4;stroke-dasharray:none;stroke-dashoffset:0;stroke-opacity:1"/><ellipse id="path4200-9-5" cx="23.618" cy="29.858" rx=".58" ry=".536" transform="matrix(0.96867326,-0.2483387,0.2483387,0.96867326,0,0)" style="display:inline;opacity:.73999999;fill:#e580ff;fill-opacity:1;stroke:none;stroke-width:.5;stroke-linecap:round;stroke-linejoin:round;stroke-miterlimit:4;stroke-dasharray:none;stroke-dashoffset:0;stroke-opacity:1"/><ellipse id="path4200-9-93" cx="22.68" cy="22.983" rx=".58" ry=".536" transform="matrix(0.96867326,-0.2483387,0.2483387,0.96867326,0,0)" style="display:inline;opacity:.73999999;fill:#e580ff;fill-opacity:1;stroke:none;stroke-width:.5;stroke-linecap:round;stroke-linejoin:round;stroke-miterlimit:4;stroke-dasharray:none;stroke-dashoffset:0;stroke-opacity:1"/><ellipse id="path4200-9-55" cx="22.11" cy="38.902" rx=".424" ry=".469" transform="matrix(0.96867326,-0.2483387,0.2483387,0.96867326,0,0)" style="display:inline;opacity:.73999999;fill:#e580ff;fill-opacity:1;stroke:none;stroke-width:.5;stroke-linecap:round;stroke-linejoin:round;stroke-miterlimit:4;stroke-dasharray:none;stroke-dashoffset:0;stroke-opacity:1"/><ellipse id="path4200-9-4" cx="24.782" cy="51.5" rx=".375" ry=".362" transform="matrix(0.96867326,-0.2483387,0.2483387,0.96867326,0,0)" style="display:inline;opacity:.73999999;fill:#e580ff;fill-opacity:1;stroke:none;stroke-width:.5;stroke-linecap:round;stroke-linejoin:round;stroke-miterlimit:4;stroke-dasharray:none;stroke-dashoffset:0;stroke-opacity:1"/><path id="path4182" d="m 33.763339,53.960248 c 2.291111,-0.284804 4.671484,-0.720355 7.472881,-1.86694 0.714827,-0.292572 0.534555,-0.57024 0.392065,-1.012983 -4.13808,-12.857773 -9.289088,-24.784489 -12.396354,-38.471745 -1.325199,0.550572 -2.58581,0.778207 -3.853709,1.04228 3.769821,13.132451 5.271432,26.516439 7.873149,39.837764 0.07477,0.382809 0.117981,0.5206 0.511968,0.471624 z" style="fill:#d7eef4;fill-opacity:.25098039;fill-rule:evenodd;stroke:#000;stroke-width:.5;stroke-linecap:butt;stroke-linejoin:miter;stroke-miterlimit:4;stroke-dasharray:none;stroke-opacity:1"/><path id="path4184" d="m 24.604829,12.134981 c -1.205486,0.252189 -0.322977,1.737033 0.449595,1.563028 1.503722,-0.338682 2.998016,-0.593563 4.426023,-1.167291 0.67009,-0.269223 0.705531,-1.843488 -0.487621,-1.52069 -1.547042,0.418542 -3.032535,0.841394 -4.387997,1.124953 z" style="fill:#d7eef4;fill-opacity:.50196078;fill-rule:evenodd;stroke:#000;stroke-width:.5;stroke-linecap:butt;stroke-linejoin:miter;stroke-miterlimit:4;stroke-dasharray:none;stroke-opacity:1"/><path id="path4191" d="m 28.535966,14.261771 c 0.30577,1.621041 0.647034,3.183901 1.03637,4.760666 1.381232,4.52383 3.161219,9.130456 5.64093,15.596715 C 32.854082,28.100699 31.201762,23.46015 29.950255,18.912762 29.43694,17.379464 28.969526,15.853208 28.535966,14.261771 Z" style="fill:#fff;fill-opacity:1;fill-rule:evenodd;stroke:none;stroke-width:1px;stroke-linecap:butt;stroke-linejoin:miter;stroke-opacity:1"/><path id="path4196" d="m 26.503237,12.23112 c 0.78832,-0.134349 1.607035,-0.258524 2.375754,-0.411305 0.162119,-0.112697 0.320252,-0.226588 0.472829,-0.342027 -0.190885,-0.0066 -0.384101,-0.01592 -0.577956,-0.02714 -0.728349,0.274181 -1.506823,0.52048 -2.270627,0.78047 z" style="fill:#fff;fill-opacity:1;fill-rule:evenodd;stroke:none;stroke-width:1px;stroke-linecap:butt;stroke-linejoin:miter;stroke-opacity:1"/></g></g></svg>