<svg xmlns="http://www.w3.org/2000/svg" xmlns:svg="http://www.w3.org/2000/svg" xmlns:xlink="http://www.w3.org/1999/xlink" id="svg2" version="1.1" viewBox="0 0 256 256"><defs id="defs4"><linearGradient id="linearGradient4254"><stop style="stop-color:#f55;stop-opacity:1" id="stop4256" offset="0"/><stop style="stop-color:#ff8080;stop-opacity:1" id="stop4258" offset="1"/></linearGradient><linearGradient id="linearGradient4246"><stop style="stop-color:#f95;stop-opacity:1" id="stop4248" offset="0"/><stop style="stop-color:#ffb380;stop-opacity:1" id="stop4250" offset="1"/></linearGradient><linearGradient id="linearGradient4252" x1="188.899" x2="195.717" y1="71.647" y2="36.544" gradientUnits="userSpaceOnUse" xlink:href="#linearGradient4246"/><linearGradient id="linearGradient4260" x1="76.519" x2="148.998" y1="241.1" y2="154.48" gradientUnits="userSpaceOnUse" xlink:href="#linearGradient4254"/></defs><metadata id="metadata7"/><g id="layer2" style="opacity:1"><g id="g4171"><ellipse style="opacity:1;fill:url(#linearGradient4260);fill-opacity:1;stroke:#000;stroke-width:1;stroke-linecap:round;stroke-linejoin:round;stroke-miterlimit:4;stroke-dasharray:none;stroke-dashoffset:0;stroke-opacity:1" id="path4212" cx="114.905" cy="177.587" rx="73.013" ry="73.897"/><path style="fill:#ff8080;fill-rule:evenodd;stroke:#000;stroke-width:1px;stroke-linecap:butt;stroke-linejoin:miter;stroke-opacity:1" id="path4214" d="m 90.915836,108.11934 4.173449,-10.780053 40.803575,0.535714 3.125,10.401789"/><path style="fill:#e6e6e6;fill-rule:evenodd;stroke:#000;stroke-width:1px;stroke-linecap:butt;stroke-linejoin:miter;stroke-opacity:1" id="path4216" d="m 90.714285,98.678572 c 1.070703,4.890408 49.087215,4.799168 48.928575,0.357143 l 0.0893,-39.464285 -48.035712,0.267857 z"/><path style="fill:#ccc;fill-rule:evenodd;stroke:#000;stroke-width:1px;stroke-linecap:butt;stroke-linejoin:miter;stroke-opacity:1" id="path4218" d="m 91.659445,59.57143 c 7.230704,3.786542 51.131785,2.804117 48.151155,-0.08929 -1.61594,-1.568652 -49.618815,-0.679288 -48.151155,0.08929 z"/><path style="fill:url(#linearGradient4252);fill-rule:evenodd;stroke:#000;stroke-width:1px;stroke-linecap:butt;stroke-linejoin:miter;stroke-opacity:1;fill-opacity:1" id="path4224" d="m 136.24432,31.114791 c 2.13087,-0.493661 3.94443,-0.976886 5.78889,-1.995284 47.91671,-26.4566938 76.47319,-20.6785283 93.0798,11.339195 l 0.12627,10.480333 c -17.07884,47.744755 -68.41105,29.717762 -98.11107,1.641497 z"/><path style="fill:#ccc;fill-rule:evenodd;stroke:#000;stroke-width:1px;stroke-linecap:butt;stroke-linejoin:miter;stroke-opacity:1" id="path4222" d="m 124.94324,38.312128 2.60605,-0.280493 9.20011,-7.232517 c 5.31519,6.637651 5.46211,15.536204 0.50508,21.781415 l -9.47018,-8.270625 -2.71479,0.126269 z"/><path style="fill:#e6e6e6;fill-rule:evenodd;stroke:#000;stroke-width:1px;stroke-linecap:butt;stroke-linejoin:miter;stroke-opacity:1" id="path4220" d="m 105.53571,61.178572 0,-4.017857 2.05358,0.178572 0.0893,-1.696429 -2.05357,-0.267857 0.35714,-20.535714 c 0.30841,-17.733877 19.1356,-18.424 19.375,0.08929 l 0.26786,20.714285 -2.05357,0.223215 0,1.741071 2.14286,-0.08929 0,3.75 c -6.99185,0.634357 -13.85419,0.944941 -20.1786,-0.08929 z"/><path style="fill:none;fill-rule:evenodd;stroke:#000;stroke-width:1px;stroke-linecap:butt;stroke-linejoin:miter;stroke-opacity:1" id="path4226" d="m 107.58929,55.598215 c 5.41399,0.749717 10.73063,0.623351 16.02678,0.312501"/><path style="fill:none;fill-rule:evenodd;stroke:#000;stroke-width:1px;stroke-linecap:butt;stroke-linejoin:miter;stroke-opacity:1" id="path4228" d="m 123.66071,57.562501 c -5.68344,0.423864 -11.02759,0.30487 -16.11607,-0.223215"/><path style="fill:#fff;fill-rule:evenodd;stroke:none;stroke-width:1px;stroke-linecap:butt;stroke-linejoin:miter;stroke-opacity:1" id="path4230" d="m 116.97326,23.548587 c 0.95212,0.682035 1.59747,1.772747 2.05839,2.962172 1.00174,1.174148 1.87722,2.814151 2.58184,4.605398 1.28882,3.276353 1.96991,6.968491 1.9923,9.112 0.41412,-2.133026 0.17621,-5.955353 -0.74588,-9.514921 -0.50115,-1.934578 -1.21699,-3.840572 -2.19079,-5.382741 -1.19451,-1.064197 -2.45684,-1.71364 -3.69586,-1.781908 z"/><path style="fill:#fff;fill-rule:evenodd;stroke:none;stroke-width:1px;stroke-linecap:butt;stroke-linejoin:miter;stroke-opacity:1" id="path4234" d="m 136.24432,62.871461 c -0.42349,0.498768 -0.84295,0.995056 -1.27192,1.505917 1.34087,9.641942 1.79908,24.512405 2.34521,34.22823 0.39332,-9.660958 0.88321,-24.624572 0.46593,-34.480827 -0.51129,-0.436126 -1.02487,-0.855205 -1.53922,-1.25332 z"/><path style="fill:#fff;fill-rule:evenodd;stroke:none;stroke-width:1px;stroke-linecap:butt;stroke-linejoin:miter;stroke-opacity:1" id="path4238" d="m 124.24876,58.830851 c -0.35225,-0.08233 -0.72164,-0.188128 -1.092,-0.304644 -2.88198,0.570313 -7.35642,0.277968 -11.28237,0.367774 3.83186,0.242414 8.4005,0.881566 11.42005,0.628646 0.35749,-0.218747 0.6797,-0.449532 0.95432,-0.691776 z"/><path style="fill:#ffd5d5;fill-rule:evenodd;stroke:none;stroke-width:1px;stroke-linecap:butt;stroke-linejoin:miter;stroke-opacity:1" id="path4242" d="m 143.21428,117.07143 c 5.14972,3.03879 9.09709,7.51386 12.1026,12.44612 4.41865,3.76711 8.38265,8.65801 11.7414,14.11148 6.65577,10.8067 10.71747,23.47692 11.33458,32.90669 1.21434,-9.45858 -1.0334,-23.0346 -6.45922,-35.44299 -2.72626,-6.23474 -6.30806,-12.29575 -10.77,-17.41132 -5.77891,-3.81791 -11.85785,-6.16412 -17.94936,-6.60998 z"/><path style="fill:#666;fill-rule:evenodd;stroke:#000;stroke-width:1px;stroke-linecap:butt;stroke-linejoin:miter;stroke-opacity:1" id="path4262" d="m 106.38169,35.660477 c 2.77359,0.01355 2.80685,8.168614 -0.12627,7.702413"/></g></g></svg>