<svg xmlns="http://www.w3.org/2000/svg" xmlns:svg="http://www.w3.org/2000/svg" xmlns:xlink="http://www.w3.org/1999/xlink" id="svg2" version="1.1" viewBox="0 0 256 256"><defs id="defs4"><linearGradient id="innoGrad13"><stop style="stop-color:#f95;stop-opacity:1" id="stop4260" offset="0"/><stop style="stop-color:#ffb380;stop-opacity:1" id="stop4262" offset="1"/></linearGradient><linearGradient id="innoGrad6"><stop style="stop-color:#f55;stop-opacity:1" id="stop4252" offset="0"/><stop style="stop-color:#ff8080;stop-opacity:1" id="stop4254" offset="1"/></linearGradient><linearGradient id="innoGrad11"><stop style="stop-color:#faa;stop-opacity:1" id="stop4244" offset="0"/><stop style="stop-color:#ff8080;stop-opacity:1" id="stop4246" offset="1"/></linearGradient><linearGradient id="innoGrad12"><stop style="stop-color:#f55;stop-opacity:1" id="stop4236" offset="0"/><stop style="stop-color:#ff2a2a;stop-opacity:1" id="stop4238" offset="1"/></linearGradient><linearGradient id="innoGrad7"><stop style="stop-color:#f55;stop-opacity:1" id="stop4228" offset="0"/><stop style="stop-color:#ff2a2a;stop-opacity:1" id="stop4230" offset="1"/></linearGradient><linearGradient id="innoGrad8"><stop style="stop-color:#f55;stop-opacity:1" id="stop4220" offset="0"/><stop style="stop-color:#ff2a2a;stop-opacity:1" id="stop4222" offset="1"/></linearGradient><linearGradient id="innoGrad3"><stop style="stop-color:#ff8080;stop-opacity:1" id="stop4212" offset="0"/><stop style="stop-color:#f55;stop-opacity:1" id="stop4214" offset="1"/></linearGradient><linearGradient id="innoGrad2"><stop style="stop-color:#f55;stop-opacity:1" id="stop4204" offset="0"/><stop style="stop-color:#ff8080;stop-opacity:1" id="stop4206" offset="1"/></linearGradient><linearGradient id="innoGrad4"><stop style="stop-color:#f55;stop-opacity:1" id="stop4196" offset="0"/><stop style="stop-color:#ff8080;stop-opacity:1" id="stop4198" offset="1"/></linearGradient><linearGradient id="innoGrad10"><stop style="stop-color:#f55;stop-opacity:1" id="stop4188" offset="0"/><stop style="stop-color:#ff8080;stop-opacity:1" id="stop4190" offset="1"/></linearGradient><linearGradient id="innoGrad9"><stop style="stop-color:#f55;stop-opacity:1" id="stop4180" offset="0"/><stop style="stop-color:#ff8080;stop-opacity:1" id="stop4182" offset="1"/></linearGradient><linearGradient id="innoGrad1"><stop style="stop-color:#f55;stop-opacity:1" id="stop4172" offset="0"/><stop style="stop-color:#ff8080;stop-opacity:1" id="stop4174" offset="1"/></linearGradient><linearGradient id="innoGrad5"><stop style="stop-color:#ff8080;stop-opacity:1" id="stop4164" offset="0"/><stop style="stop-color:#faa;stop-opacity:1" id="stop4166" offset="1"/></linearGradient><linearGradient id="linearGradient4168" x1="122.228" x2="115.915" y1="86.547" y2="69.122" gradientUnits="userSpaceOnUse" xlink:href="#innoGrad5"/><linearGradient id="linearGradient4176" x1="84.6" x2="68.185" y1="64.576" y2="74.425" gradientUnits="userSpaceOnUse" xlink:href="#innoGrad1"/><linearGradient id="linearGradient4184" x1="85.358" x2="74.751" y1="63.313" y2="63.818" gradientUnits="userSpaceOnUse" xlink:href="#innoGrad9"/><linearGradient id="linearGradient4192" x1="94.702" x2="96.47" y1="91.598" y2="84.779" gradientUnits="userSpaceOnUse" xlink:href="#innoGrad10"/><linearGradient id="linearGradient4200" x1="137.633" x2="134.098" y1="87.305" y2="79.476" gradientUnits="userSpaceOnUse" xlink:href="#innoGrad4"/><linearGradient id="linearGradient4208" x1="106.824" x2="105.561" y1="98.164" y2="108.518" gradientUnits="userSpaceOnUse" xlink:href="#innoGrad2"/><linearGradient id="linearGradient4216" x1="165.412" x2="152.28" y1="59.778" y2="65.334" gradientUnits="userSpaceOnUse" xlink:href="#innoGrad3"/><linearGradient id="linearGradient4224" x1="110.359" x2="107.329" y1="18.614" y2="35.534" gradientUnits="userSpaceOnUse" xlink:href="#innoGrad8"/><linearGradient id="linearGradient4232" x1="146.977" x2="127.279" y1="16.089" y2="37.555" gradientUnits="userSpaceOnUse" xlink:href="#innoGrad7"/><linearGradient id="linearGradient4240" x1="96.47" x2="97.985" y1="31.999" y2="43.615" gradientUnits="userSpaceOnUse" xlink:href="#innoGrad12"/><linearGradient id="linearGradient4248" x1="95.712" x2="96.722" y1="45.383" y2="59.02" gradientUnits="userSpaceOnUse" xlink:href="#innoGrad11"/><linearGradient id="linearGradient4256" x1="138.138" x2="137.128" y1="61.293" y2="29.978" gradientUnits="userSpaceOnUse" xlink:href="#innoGrad6"/><linearGradient id="linearGradient4264" x1="158.036" x2="182.857" y1="133.857" y2="105.643" gradientUnits="userSpaceOnUse" xlink:href="#innoGrad13"/><linearGradient id="linearGradient4272" x1="159.821" x2="124.643" y1="185.821" y2="169.393" gradientUnits="userSpaceOnUse" xlink:href="#innoGrad13"/></defs><metadata id="metadata7"/><g id="layer2" style="opacity:1"><path style="fill:url(#linearGradient4272);fill-rule:evenodd;stroke:#000;stroke-width:1px;stroke-linecap:butt;stroke-linejoin:miter;stroke-opacity:1;fill-opacity:1" id="path4208-1" d="m 163.7191,189.42327 c -2.45199,-4.06074 -4.20037,-8.56409 -9.21292,-11.014 -5.97168,-27.31763 -33.94073,-12.57613 -45.58748,-12.80256 10.56624,5.01033 8.67949,12.36072 17.74444,19.34089 5.35494,4.12339 20.29013,5.05208 26.14749,-4.26307 5.04267,1.46817 8.36847,8.08483 11.80347,14.37402 z"/><path style="fill:#000;fill-rule:evenodd;stroke:none;stroke-width:1px;stroke-linecap:butt;stroke-linejoin:miter;stroke-opacity:1" id="path4210-5" d="m 154.45982,181.41175 0.20569,-0.45573 c -9.18046,-4.05124 -12.42297,-6.53049 -16.86855,-8.65937 -4.34396,-2.08022 -9.52744,-3.63014 -22.08403,-5.60693 12.54589,2.14393 17.64859,3.85366 21.8603,6.05408 4.154,2.17027 7.64488,4.95433 16.6809,9.12368 l 0.20569,-0.45573 z"/><path style="fill:url(#linearGradient4264);fill-rule:evenodd;stroke:#000;stroke-width:1px;stroke-linecap:butt;stroke-linejoin:miter;stroke-opacity:1;fill-opacity:1" id="path4208" d="m 154.51191,145.35225 c 0.16258,-4.74082 -0.50493,-9.52532 2.67857,-14.10714 -8.09596,-26.76507 23.51115,-27.52014 33.57143,-33.392864 -6.78572,9.523814 -1.55655,15.023254 -6.07143,25.535724 -2.66708,6.21003 -15.25683,14.29833 -24.91071,9.01786 -3.68816,3.73918 -3.36841,11.13775 -3.30358,18.30357 z"/><path style="fill:#000;fill-rule:evenodd;stroke:none;stroke-width:1px;stroke-linecap:butt;stroke-linejoin:miter;stroke-opacity:1" id="path4210" d="m 159.09563,134.1422 c 5.85922,-8.0438 7.5511,-12.17596 10.12112,-16.09524 2.60573,-3.97373 6.22861,-7.9531 16.13975,-15.93841 -10.00192,7.84456 -13.77322,11.72375 -16.553,15.65694 -2.84482,4.02522 -4.46833,7.77018 -10.51123,15.78123 z"/><path style="fill:url(#linearGradient4232);fill-rule:evenodd;stroke:#000;stroke-width:1px;stroke-linecap:butt;stroke-linejoin:miter;stroke-opacity:1;fill-opacity:1" id="path4186" d="m 151.56547,48.923674 c -0.0964,-10.369411 4.26826,-28.396967 -0.89285,-31.160714 -6.2324,-3.337419 -7.86723,-6.87591 -11.69644,-7.7678578 -6.27396,-1.461411 -16.42856,8.9285718 -16.42856,8.9285718 24.67922,10.405584 25.64096,72.245233 29.01785,30 z"/><path style="fill:url(#linearGradient4224);fill-rule:evenodd;stroke:#000;stroke-width:1px;stroke-linecap:butt;stroke-linejoin:miter;stroke-opacity:1;fill-opacity:1" id="path4194" d="M 79.779765,34.280817 C 77.541495,69.970448 95.391846,75.42029 137.90476,43.745103 130.68858,9.2815072 88.982076,8.8853382 79.779765,34.280817 Z"/><path style="fill:#ff8080;fill-rule:evenodd;stroke:#000;stroke-width:1px;stroke-linecap:butt;stroke-linejoin:miter;stroke-opacity:1" id="path4192" d="m 88.261905,77.495103 c 0,-0.357143 -5.98214,-22.053572 -5.98214,-22.053572 7.588321,3.315487 14.872781,1.487214 17.842395,-2.488663 10.17813,-13.627069 2.78149,-23.322801 6.44331,-22.957766 5.2364,0.522001 11.97244,6.090762 19.46429,12.410715 z"/><path style="fill:#f55;fill-rule:evenodd;stroke:#000;stroke-width:1px;stroke-linecap:butt;stroke-linejoin:miter;stroke-opacity:1" id="path4198" d="m 81.682775,37.630346 c -0.36401,-0.0728 9.690371,-17.023134 18.750005,-13.839286 41.4608,14.570679 6.74955,22.991094 5.98213,22.5 -10.933764,1.186101 -21.926345,2.461257 -24.732135,-8.660714 z"/><path style="fill:url(#linearGradient4256);fill-opacity:1;fill-rule:evenodd;stroke:#000;stroke-width:1px;stroke-linecap:butt;stroke-linejoin:miter;stroke-opacity:1" id="path4184" d="m 137.45833,53.477246 c -4.6131,-9.761905 0.3714,-23.293003 -12.76786,-30.089286 -2.25144,-1.164555 -8.70788,-4.826251 -0.35714,-5.357143 2.34193,-0.148887 22.41693,-0.02419 21.60714,7.232143 -0.91844,8.229957 0.62624,19.269689 1.07406,25.542501 0.7272,10.186124 -4.03127,18.214473 -5.53834,25.082499 -6.24095,-4.116465 -3.60684,-14.305346 -4.01786,-22.410714 z"/><path style="fill:#ff7f2a;fill-rule:evenodd;stroke:#000;stroke-width:1px;stroke-linecap:butt;stroke-linejoin:miter;stroke-opacity:1" id="path4206" d="m 109.86905,92.852246 c 2.47617,-0.972195 1.66484,4.844306 0.53571,15.178564 21.27814,-3.8447 19.35717,-10.515558 18.92858,-14.821428 10.73556,2.86888 20.00665,-5.384489 23.39285,-10.357136 l -11.42857,-2.678571 z"/><path style="fill:url(#linearGradient4216);fill-rule:evenodd;stroke:#000;stroke-width:1px;stroke-linecap:butt;stroke-linejoin:miter;stroke-opacity:1;fill-opacity:1" id="path4180" d="m 156.74405,56.780818 c -4.42019,-17.046517 7.93351,-12.418288 9.19642,-6.696429 6.8917,31.224088 -19.41399,37.439932 -30.53571,39.732143 6.63744,-12.351128 24.71969,-19.999187 21.33929,-33.035714 z"/><path style="fill:url(#linearGradient4176);fill-rule:evenodd;stroke:#000;stroke-width:1px;stroke-linecap:butt;stroke-linejoin:miter;stroke-opacity:1;fill-opacity:1" id="path4174" d="m 97.711236,92.146077 c -15.610351,9.240313 -29.149281,4.337985 -37.880721,-16.414978 -1.79477,-4.265833 -5.31987,-6.587398 -9.34392,-10.98541 -2.08344,-2.277065 12.56659,-11.218305 19.57171,-16.414978 z"/><path style="fill:url(#linearGradient4240);fill-rule:evenodd;stroke:#000;stroke-width:1px;stroke-linecap:butt;stroke-linejoin:miter;stroke-opacity:1;fill-opacity:1" id="path4200" d="m 84.511905,42.316531 c 0.86745,-0.08675 5.064631,-10.352394 7.946431,-12.053571 8.754954,-5.168214 18.625304,5.720119 14.694064,11.835389 -8.210034,7.609576 -13.239984,6.656079 -22.640495,0.218182 z"/><path style="fill:#f55;fill-rule:evenodd;stroke:#000;stroke-width:1px;stroke-linecap:butt;stroke-linejoin:miter;stroke-opacity:1" id="path4202" d="m 87.048895,38.058827 c 2.297711,3.168849 16.932965,-0.937473 14.553565,-4.821428 0,0 2.43634,14.003843 -2.589284,15.714285 -10.311631,3.5095 -12.459731,-10.727706 -11.964281,-10.892857 z"/><path style="fill:url(#linearGradient4248);fill-rule:evenodd;stroke:#000;stroke-width:1px;stroke-linecap:butt;stroke-linejoin:miter;stroke-opacity:1;fill-opacity:1" id="path4196" d="m 81.922615,38.923674 c -5.81383,30.971006 26.068415,26.79866 25.178565,3.125 -8.595994,1.866178 -16.807414,8.27461 -25.178565,-3.125 z"/><path style="fill:url(#linearGradient4184);fill-opacity:1;fill-rule:evenodd;stroke:#000;stroke-width:1px;stroke-linecap:butt;stroke-linejoin:miter;stroke-opacity:1" id="path4188" d="M 89.810396,77.153279 83.849922,55.074327 c -7.524191,-8.610878 5.916234,-25.879368 -8.771667,-25.956762 -2.43091,-0.01281 -3.42492,19.938114 -8.30357,22.142857 7.67861,8.631193 17.87357,32.863786 23.035711,25.892857 z"/><path style="fill:#f55;fill-rule:evenodd;stroke:#000;stroke-width:1px;stroke-linecap:butt;stroke-linejoin:miter;stroke-opacity:1" id="path4190" d="M 82.224312,49.245078 C 77.1672,50.789414 83.392446,68.598415 100.30095,59.745789 101.32638,59.20891 94.143047,58.662894 89.281721,55.977229 84.97581,53.598408 83.035289,48.997423 82.224312,49.245078 Z"/><path style="fill:url(#linearGradient4168);fill-rule:evenodd;stroke:#000;stroke-width:1px;stroke-linecap:butt;stroke-linejoin:miter;stroke-opacity:1;fill-opacity:1" id="path4182" d="M 85.851195,82.13796 C 91.344236,55.59373 130.40837,28.918969 135.58333,42.673675 155.18987,94.786542 101.4621,95.820962 85.851195,82.13796 Z"/><path style="fill:url(#linearGradient4192);fill-rule:evenodd;stroke:#000;stroke-width:1px;stroke-linecap:butt;stroke-linejoin:miter;stroke-opacity:1;fill-opacity:1" id="path4176" d="m 81.422525,75.47856 c -10.27614,-8.214304 -10.13059,4.998132 -5.42957,7.449875 13.384211,6.980323 26.256055,17.289725 44.825515,8.270624 4.09825,-1.9905 -28.117594,-6.705072 -39.395945,-15.720499 z"/><path style="fill:#f95;fill-rule:evenodd;stroke:#000;stroke-width:1px;stroke-linecap:butt;stroke-linejoin:miter;stroke-opacity:1" id="path4204" d="m 123.21758,91.135925 c 32.77509,55.796465 47.00053,119.091115 50.50763,154.932145 l 6.06091,-1.26269 C 171.55586,208.116 168.15454,159.33858 128.52088,88.105467 Z"/><path style="fill:url(#linearGradient4200);fill-rule:evenodd;stroke:#000;stroke-width:1px;stroke-linecap:butt;stroke-linejoin:miter;stroke-opacity:1;fill-opacity:1" id="path4178" d="m 110.94047,88.834389 c 17.7997,0.01109 32.10091,-18.088662 39.91072,-41.428572 0.88202,-2.63594 2.6902,-1.459156 3.30357,0 6.37945,15.176094 7.92802,31.063816 -29.55357,49.732145 -17.72697,7.294668 -84.245595,-1.77333 -13.66072,-8.303573 z"/><path style="fill:url(#linearGradient4208);fill-rule:evenodd;stroke:#000;stroke-width:1px;stroke-linecap:butt;stroke-linejoin:miter;stroke-opacity:1;fill-opacity:1" id="path4172" d="m 137.05654,93.164742 c -0.68673,3.82441 -1.40749,7.436618 -18.08035,9.866068 -8.97377,1.30759 -6.8507,15.12398 -26.964284,9.82143 -4.401011,-1.16024 -11.021941,-1.07446 -20.000001,-0.71428 -6.18914,0.24829 -13.47633,-16.341158 9.64286,-16.964288 13.029761,-0.35119 19.015295,6.944318 39.994955,-1.54084 1.80263,-0.729056 4.69353,0.82205 7.41718,0.43478 4.30004,-0.61142 8.31643,-2.722775 7.98964,-0.90287 z"/></g></svg>