<svg xmlns="http://www.w3.org/2000/svg" xmlns:svg="http://www.w3.org/2000/svg" xmlns:xlink="http://www.w3.org/1999/xlink" id="svg2" version="1.1" viewBox="0 0 256 256"><defs id="defs4"><linearGradient id="linearGradient5013"><stop style="stop-color:#f7dc73;stop-opacity:1" id="stop5015" offset="0"/><stop style="stop-color:#ffea96;stop-opacity:1" id="stop5017" offset="1"/></linearGradient><linearGradient id="linearGradient5005"><stop style="stop-color:#77533c;stop-opacity:1" id="stop5007" offset="0"/><stop style="stop-color:#885f45;stop-opacity:1" id="stop5009" offset="1"/></linearGradient><linearGradient id="linearGradient4997"><stop style="stop-color:#312219;stop-opacity:1" id="stop4999" offset="0"/><stop style="stop-color:#453023;stop-opacity:1" id="stop5001" offset="1"/></linearGradient><linearGradient id="linearGradient4989"><stop style="stop-color:#3c2a1e;stop-opacity:1" id="stop4991" offset="0"/><stop style="stop-color:#4f3728;stop-opacity:1" id="stop4993" offset="1"/></linearGradient><linearGradient id="linearGradient4995" x1="80.812" x2="80.56" y1="124.428" y2="107.76" gradientUnits="userSpaceOnUse" xlink:href="#linearGradient4989"/><linearGradient id="linearGradient5003" x1="123.036" x2="122.679" y1="144.214" y2="127.607" gradientUnits="userSpaceOnUse" xlink:href="#linearGradient4997"/><linearGradient id="linearGradient5011" x1="92.5" x2="93.036" y1="169.571" y2="155.107" gradientUnits="userSpaceOnUse" xlink:href="#linearGradient5005"/><linearGradient id="linearGradient5019" x1="51.071" x2="51.964" y1="151.536" y2="136.714" gradientUnits="userSpaceOnUse" xlink:href="#linearGradient5013"/></defs><metadata id="metadata7"/><g id="layer2" style="opacity:1"><g id="g4171"><path style="fill:#faa;fill-rule:evenodd;stroke:#000;stroke-width:1px;stroke-linecap:butt;stroke-linejoin:bevel;stroke-opacity:1" id="path4885" d="M 8.4453655,131.86285 99.247487,178.21825 157.79169,115.98927 72.983521,76.697924 Z"/><path style="fill:none;fill-rule:evenodd;stroke:#000;stroke-width:1px;stroke-linecap:butt;stroke-linejoin:miter;stroke-opacity:1" id="path4893" d="m 73.125,76.937501 -0.08929,15.669643"/><path style="fill:#917c6f;fill-rule:evenodd;stroke:#000;stroke-width:1px;stroke-linecap:butt;stroke-linejoin:miter;stroke-opacity:1" id="path4891" d="M 17.321428,138.85714 73.392857,87.964287 154.28571,122.78571 99.285714,186.89286 Z"/><path style="fill:#483e37;fill-rule:evenodd;stroke:#000;stroke-width:1px;stroke-linecap:butt;stroke-linejoin:miter;stroke-opacity:1" id="path4897" d="m 55.987487,116.98273 c -5.62129,-2.53658 -3.666239,-5.45585 -1.596722,-7.46601 L 69.074027,95.254642 c 2.623336,-2.548088 5.573389,-3.685494 9.961366,-1.83142 l 24.885387,10.514958 c 3.70443,1.56525 3.09849,5.06765 1.23165,7.11697 l -14.119597,15.49973 c -3.618811,3.97253 -6.398904,3.3544 -9.782839,1.82741 z"/><path style="fill:url(#linearGradient4995);fill-opacity:1;fill-rule:evenodd;stroke:#000;stroke-width:1px;stroke-linecap:butt;stroke-linejoin:miter;stroke-opacity:1" id="path4926" d="m 61.84387,119.40788 c -0.517899,-9.74774 2.011482,-21.468347 15.799462,-21.95254 18.74306,-0.658199 20.181179,14.09664 20.713187,20.84428 l -8.142522,8.94311 c -2.800096,3.07541 -5.584434,2.60439 -8.398391,1.31518 z"/><path style="opacity:1;fill:#483e37;fill-rule:evenodd;stroke:#000;stroke-width:1px;stroke-linecap:butt;stroke-linejoin:miter;stroke-opacity:1" id="path4897-9" d="m 96.543903,135.33684 c -5.62129,-2.53658 -3.666239,-5.45585 -1.596722,-7.46601 l 14.683259,-14.26208 c 2.62334,-2.54809 5.57339,-3.68549 9.96137,-1.83142 l 24.88539,10.51496 c 3.70444,1.56525 3.0985,5.06765 1.23165,7.11697 l -14.1196,15.49973 c -3.61881,3.97253 -6.3989,3.3544 -9.78284,1.82741 z"/><path style="opacity:1;fill:url(#linearGradient5003);fill-opacity:1;fill-rule:evenodd;stroke:#000;stroke-width:1px;stroke-linecap:butt;stroke-linejoin:miter;stroke-opacity:1" id="path4926-0" d="m 102.40029,137.76199 c -0.51791,-9.74774 2.01148,-21.46835 15.79946,-21.95254 18.74307,-0.6582 20.33902,14.31761 20.87102,21.06525 l -8.30035,8.72214 c -2.86723,3.01292 -5.58444,2.60439 -8.39839,1.31518 z"/><path style="opacity:1;fill:#483e37;fill-rule:evenodd;stroke:#000;stroke-width:1px;stroke-linecap:butt;stroke-linejoin:miter;stroke-opacity:1" id="path4897-5" d="m 67.037066,164.80767 c -5.562879,-2.66224 -3.54273,-5.53685 -1.428571,-7.5 L 80.608496,143.3791 c 2.679925,-2.4885 5.654789,-3.55934 10,-1.60714 l 24.642854,11.07143 c 3.66833,1.64809 2.98385,5.13599 1.07143,7.14285 l -14.46429,15.17857 c -3.707148,3.89022 -6.472651,3.20978 -9.821423,1.60715 z"/><path style="opacity:1;fill:url(#linearGradient5011);fill-opacity:1;fill-rule:evenodd;stroke:#000;stroke-width:1px;stroke-linecap:butt;stroke-linejoin:miter;stroke-opacity:1" id="path4926-6" d="m 72.837481,167.36379 c -0.298753,-9.75691 2.493333,-21.41773 16.288711,-21.59201 18.753118,-0.23691 20.012188,14.77098 20.392448,21.52887 l -8.49423,8.53344 c -2.934196,2.94774 -5.641539,2.47826 -8.425819,1.12615 z"/><path style="opacity:1;fill:#483e37;fill-rule:evenodd;stroke:#000;stroke-width:1px;stroke-linecap:butt;stroke-linejoin:miter;stroke-opacity:1" id="path4897-96" d="m 25.115735,146.11985 c -5.562879,-2.66224 -3.54273,-5.53685 -1.428571,-7.5 l 15.000001,-13.92857 c 2.679925,-2.48851 5.654789,-3.55934 10,-1.60715 l 24.642853,11.07144 c 3.66833,1.64809 2.98385,5.13599 1.07143,7.14285 l -14.464283,15.17857 c -3.707154,3.89022 -6.472657,3.20978 -9.821429,1.60715 z"/><path style="opacity:1;fill:url(#linearGradient5019);fill-opacity:1;fill-rule:evenodd;stroke:#000;stroke-width:1px;stroke-linecap:butt;stroke-linejoin:miter;stroke-opacity:1" id="path4926-9" d="m 30.91615,148.67597 c -0.298753,-9.75691 2.493333,-21.41773 16.288711,-21.59201 18.753117,-0.23691 20.012188,14.51844 20.392454,21.27633 l -8.494234,8.78598 c -2.890912,2.9902 -5.641541,2.47826 -8.425821,1.12615 z"/><path style="fill:#ff8080;fill-rule:evenodd;stroke:#000;stroke-width:1px;stroke-linecap:butt;stroke-linejoin:bevel;stroke-opacity:1" id="path4887" d="m 8.5862966,131.4987 1.0101525,31.31473 88.7888189,44.57298 1.619832,-31.441 z"/><path style="fill:#f55;fill-rule:evenodd;stroke:#000;stroke-width:1px;stroke-linecap:butt;stroke-linejoin:bevel;stroke-opacity:1" id="path4889" d="m 100.0051,176.19795 -1.767765,31.18846 59.346465,-66.5438 0,-25.25381 z"/><path style="fill:#faa;fill-rule:evenodd;stroke:#000;stroke-width:1px;stroke-linecap:butt;stroke-linejoin:bevel;stroke-opacity:1" id="path5025" d="m 147.85714,67.785715 93.57143,40.535715 4.82143,81.04079 -105,-41.57651 z"/><path style="fill:#ff8080;fill-rule:evenodd;stroke:#000;stroke-width:1px;stroke-linecap:butt;stroke-linejoin:bevel;stroke-opacity:1" id="path5021" d="m 124.64286,172.10206 101.07142,40.62238 20.71429,-23.33158 -103.75,-41.96429 z"/><path style="fill:#ff8080;fill-rule:evenodd;stroke:#000;stroke-width:1px;stroke-linecap:butt;stroke-linejoin:bevel;stroke-opacity:1" id="path5023" d="m 128.92857,91.714287 -4.10714,80.892853 17.67857,-25 5.59884,-79.92603 z"/><path style="fill:#ffb380;fill-rule:evenodd;stroke:#000;stroke-width:1px;stroke-linecap:butt;stroke-linejoin:miter;stroke-opacity:1" id="path5027" d="M 148.32879,181.54562 164.82143,156.53571 170,77.250001 l 17.32143,7.678571 -3.75,78.928568 -18.22605,24.55899 z"/><path style="fill:#ffb380;fill-rule:evenodd;stroke:#000;stroke-width:1px;stroke-linecap:butt;stroke-linejoin:miter;stroke-opacity:1" id="path5029" d="M 127.71688,116.07002 146.13642,97.502539 243.16198,137.93999 242.28219,123.66193 147.32143,82.071429 128.3852,102.51841 Z"/><path style="fill:none;fill-rule:evenodd;stroke:#000;stroke-width:.5;stroke-linecap:butt;stroke-linejoin:miter;stroke-opacity:1;stroke-miterlimit:4;stroke-dasharray:none" id="path5031" d="m 164.78113,156.12117 19.1929,8.08122"/><path style="fill:none;fill-rule:evenodd;stroke:#000;stroke-width:.5;stroke-linecap:butt;stroke-linejoin:miter;stroke-miterlimit:4;stroke-dasharray:none;stroke-opacity:1" id="path5033" d="m 147.10587,81.982144 -1.03444,15.937499"/><path style="opacity:1;fill:#ff7f2a;fill-rule:evenodd;stroke:#000;stroke-width:.75;stroke-linecap:butt;stroke-linejoin:miter;stroke-opacity:1;stroke-miterlimit:4;stroke-dasharray:none" id="path4196" d="m 150.94467,86.715559 c 13.78072,6.009689 7.5682,7.380798 16.18736,8.605774 L 164.23539,108.6046 C 148.15086,100.32649 145.25158,93.159118 150.94467,86.715559 Z"/><path style="opacity:1;fill:#ff7f2a;fill-rule:evenodd;stroke:#000;stroke-width:.75;stroke-linecap:butt;stroke-linejoin:miter;stroke-opacity:1;stroke-miterlimit:4;stroke-dasharray:none" id="path4198" d="m 155.2025,83.853841 c 4.78635,-4.205982 13.93083,5.843707 10.21942,9.679146 -4.32461,-3.011679 -7.94033,-6.189134 -10.21942,-9.679146 z"/><path style="opacity:1;fill:#f95;fill-rule:evenodd;stroke:#000;stroke-width:.75;stroke-linecap:butt;stroke-linejoin:miter;stroke-opacity:1;stroke-miterlimit:4;stroke-dasharray:none" id="path4190" d="m 175.20521,97.060839 c -0.83447,-4.703341 -1.06758,-11.498812 -5.90552,-14.069876 -9.55921,-5.080131 -26.62196,-7.555269 -29.55148,-5.311522 -2.1379,1.637426 -1.58012,8.826784 7.27544,20.370769 l 12.05234,6.31368 c -6.97424,-6.30288 -9.63786,-11.934786 -6.9029,-16.308153 2.92475,-4.676857 10.69623,-2.680024 11.0819,2.203233 0.4154,5.259742 -2.31178,12.74149 11.35245,12.80819 z"/><path style="opacity:1;fill:#ff7f2a;fill-rule:evenodd;stroke:#000;stroke-width:.75;stroke-linecap:butt;stroke-linejoin:miter;stroke-opacity:1;stroke-miterlimit:4;stroke-dasharray:none" id="path4194" d="m 216.99904,110.59037 c 3.90577,3.0608 -1.83604,6.08429 -2.97126,9.1256 l -17.40532,-9.11303 z"/><path style="opacity:1;fill:#f95;fill-rule:evenodd;stroke:#000;stroke-width:.75;stroke-linecap:butt;stroke-linejoin:miter;stroke-opacity:1;stroke-miterlimit:4;stroke-dasharray:none" id="path4192" d="m 184.90224,101.03949 c 4.45421,0.81343 0.73743,-12.381253 8.55298,-12.816269 12.73923,4.109133 17.33076,15.131169 24.63178,23.605079 -3.22074,-2.98032 -13.46115,1.65035 -33.40111,-4.26414 z"/><path style="opacity:1;fill:#f95;fill-rule:evenodd;stroke:#000;stroke-width:.75;stroke-linecap:butt;stroke-linejoin:miter;stroke-opacity:1;stroke-miterlimit:4;stroke-dasharray:none" id="path4184" d="m 182.95888,109.04506 c 1.00889,-1.56391 -1.72619,-3.85623 0.73537,-3.74914 12.87558,0.5602 46.61849,22.94569 54.28892,35.62366 -5.64166,6.94974 -11.57068,13.7089 -15.03509,22.10273 -12.969,-21.66424 -12.77982,-32.27869 -39.9892,-53.97725 z"/><path style="opacity:1;fill:#f95;fill-rule:evenodd;stroke:#000;stroke-width:.75;stroke-linecap:butt;stroke-linejoin:miter;stroke-opacity:1;stroke-miterlimit:4;stroke-dasharray:none" id="path4182" d="m 174.76125,101.07439 c -11.77564,-7.765919 -17.55804,-3.204059 -36.13513,4.17955 1.96864,10.80102 6.13405,13.5039 13.06157,34.98559 7.45443,-11.76565 14.3935,-34.91329 22.57172,-33.72662 -1.10281,-2.13358 1.18084,-0.53731 0.50184,-5.43852 z"/><path style="opacity:1;fill:#f95;fill-rule:evenodd;stroke:#000;stroke-width:.75;stroke-linecap:butt;stroke-linejoin:miter;stroke-opacity:1;stroke-miterlimit:4;stroke-dasharray:none" id="path4188" d="m 172.55011,92.949399 -2.379,14.890831 c 4.75266,2.72032 9.53513,5.37825 15.452,5.66226 l 1.749,-13.801936 c -4.48964,-5.511745 -9.60713,-6.483322 -14.822,-6.751155 z"/></g></g></svg>