<svg xmlns="http://www.w3.org/2000/svg" xmlns:svg="http://www.w3.org/2000/svg" id="svg2" version="1.1" viewBox="0 0 256 256"><metadata id="metadata7"/><g id="layer2" style="opacity:1"><path style="fill:none;fill-rule:evenodd;stroke:#000;stroke-width:1px;stroke-linecap:butt;stroke-linejoin:miter;stroke-opacity:1" id="path4151" d="m 64.630139,212.97528 c 10.223858,-14.24433 133.031101,-15.4916 126.772101,6.94795"/><path style="fill:#deaa87;fill-rule:evenodd;stroke:#000;stroke-width:1px;stroke-linecap:butt;stroke-linejoin:miter;stroke-opacity:1" id="path4149" d="m 106.15773,23.817698 c 1.7501,9.031661 30.54796,16.415344 44.19867,-1.199031 -5.27435,-2.327264 -28.33959,-4.145807 -44.19867,1.199031 z"/><path style="fill:#deaa87;fill-rule:evenodd;stroke:#000;stroke-width:1px;stroke-linecap:butt;stroke-linejoin:miter;stroke-opacity:1" id="path4143" d="m 106.05348,24.269314 c 0.18775,12.691565 2.82364,25.383131 5.00416,38.074696 9.60323,5.698182 26.46067,3.877792 31.97103,0 3.00969,-13.017511 7.76446,-25.730905 7.61561,-39.186365 -8.50351,4.572098 -30.27798,6.460652 -44.5908,1.111669 z"/><path style="fill:#d5f6ff;fill-opacity:.23831775;fill-rule:evenodd;stroke:#000;stroke-width:1px;stroke-linecap:butt;stroke-linejoin:miter;stroke-opacity:1" id="path4141" d="M 65.186159,209.91819 C 54.485633,251.79731 197.75434,250.45071 191.68025,216.86613 181.20858,158.96666 124.544,116.23002 148.31085,43.167703 138.9576,45.347918 127.01363,54.205949 107.72153,43.44562 121.16235,116.24733 79.364617,154.42733 65.186159,209.91819 Z"/><path style="fill:none;fill-rule:evenodd;stroke:#000;stroke-width:1px;stroke-linecap:butt;stroke-linejoin:miter;stroke-opacity:1" id="path4147" d="m 102.57836,118.34438 c -2.42292,3.92411 41.7271,8.08498 46.70551,-1.94542"/><path id="path4145" d="m 65.186159,209.91819 c -10.700525,41.87912 132.568181,40.53252 126.494091,6.94794 -6.48271,-35.84387 -30.66879,-65.87661 -42.51559,-100.89073 -6.32389,-2.56255 -26.57328,-6.23257 -46.69633,2.05584 -10.523882,31.82204 -28.820995,58.77207 -37.282171,91.88695 z" style="fill:#faa;fill-opacity:.23831775;fill-rule:evenodd;stroke:#000;stroke-width:1px;stroke-linecap:butt;stroke-linejoin:miter;stroke-opacity:1"/><path style="fill:#f9f9f9;fill-rule:evenodd;stroke:none;stroke-width:1px;stroke-linecap:butt;stroke-linejoin:miter;stroke-opacity:1" id="path4153" d="m 160.56638,151.93151 c 3.04341,7.42513 7.06325,16.16783 10.94689,25.86275 6.31094,12.74103 12.19446,26.82365 14.04599,39.70123 -0.92244,-13.06243 -5.94246,-27.57848 -11.46867,-40.87347 -4.72382,-9.25067 -9.69114,-17.81523 -13.52421,-24.69051 z"/></g></svg>