<svg xmlns="http://www.w3.org/2000/svg" xmlns:svg="http://www.w3.org/2000/svg" id="svg4311" width="100%" height="100%" version="1.1" viewBox="0 0 64 64"><metadata id="metadata4316"/><g id="layer5" style="display:inline;opacity:1"><flowRoot id="flowRoot4156" xml:space="preserve" style="fill:#000;stroke:none;stroke-opacity:1;stroke-width:1px;stroke-linejoin:miter;stroke-linecap:butt;fill-opacity:1;font-family:sans-serif;font-style:normal;font-weight:400;font-size:40px;line-height:125%;letter-spacing:0;word-spacing:0"><flowRegion id="flowRegion4158"><rect id="rect4160" width="42.679" height="44.068" x="6.566" y="11.22"/></flowRegion><flowPara id="flowPara4162"/></flowRoot><flowRoot id="flowRoot4168" xml:space="preserve" style="fill:#000;stroke:none;stroke-opacity:1;stroke-width:1px;stroke-linejoin:miter;stroke-linecap:butt;fill-opacity:1;font-family:sans-serif;font-style:normal;font-weight:400;font-size:40px;line-height:125%;letter-spacing:0;word-spacing:0"><flowRegion id="flowRegion4170"><rect id="rect4172" width="63.766" height="63.64" x=".253" y="-.271"/></flowRegion><flowPara id="flowPara4174"/></flowRoot><path style="fill:#efd8d3;fill-rule:evenodd;stroke:#000;stroke-width:.26572049;stroke-linecap:butt;stroke-linejoin:miter;stroke-miterlimit:4;stroke-dasharray:none;stroke-opacity:1;fill-opacity:1" id="path4227" d="M 31.945922,26.005529 C 31.773455,20.283316 29.853123,18.19511 28.075233,15.726358 25.01132,11.471854 27.570636,3.8069902 31.854066,3.1119071 c 3.255749,-0.5283188 7.475659,2.303453 7.967265,5.7488566 0.572234,4.0104763 -5.988295,11.3618153 0.123072,12.9733453 l -0.255331,0.576058 C 32.973069,19.805493 38.924597,15.034789 39.002254,8.9427996 39.034645,6.4018129 34.315,3.014677 32.004292,3.7580204 c -5.661858,1.8213919 -4.988877,9.4960026 -3.15572,11.6827746 4.59574,5.482256 3.764027,10.568111 3.764027,10.568111 z"/><path style="display:inline;opacity:1;fill:#e7c1bb;fill-opacity:1;stroke:#000;stroke-width:.26572049;stroke-linecap:round;stroke-linejoin:round;stroke-miterlimit:4;stroke-dasharray:none;stroke-dashoffset:0;stroke-opacity:1" id="ellipse4190-2" d="m 32.110249,26.075617 a 5.6419451,3.4060626 0 0 0 -5.642238,3.406122 5.6419451,3.4060626 0 0 0 5.642238,3.405455 5.6419451,3.4060626 0 0 0 5.641156,-3.405455 5.6419451,3.4060626 0 0 0 -5.641156,-3.406122 z m 0,0.591123 a 4.6627637,2.8149278 0 0 1 4.662173,2.814999 4.6627637,2.8149278 0 0 1 -4.662173,2.814332 4.6627637,2.8149278 0 0 1 -4.663258,-2.814332 4.6627637,2.8149278 0 0 1 4.663258,-2.814999 z"/><path style="fill:#d89e92;fill-rule:evenodd;stroke:#000;stroke-width:.53144097px;stroke-linecap:butt;stroke-linejoin:miter;stroke-opacity:1;fill-opacity:1" id="path4192" d="m 29.751326,33.516544 -0.04746,-2.657205 5.172059,0 0,2.894456 z"/><ellipse id="ellipse4190" cx="32.078" cy="46.813" rx="13.835" ry="13.693" style="opacity:1;fill:#e7c1bb;fill-opacity:1;stroke:#000;stroke-width:.53144097;stroke-linecap:round;stroke-linejoin:round;stroke-miterlimit:4;stroke-dasharray:none;stroke-dashoffset:0;stroke-opacity:1"/><ellipse style="opacity:1;fill:#ff8080;fill-opacity:1;stroke:none;stroke-width:.53533226;stroke-linecap:round;stroke-linejoin:round;stroke-miterlimit:4;stroke-dasharray:none;stroke-dashoffset:0;stroke-opacity:1" id="path4188" cx="32.078" cy="46.813" rx="11.434" ry="11.317"/><path style="fill:#e7c1bb;fill-rule:evenodd;stroke:#000;stroke-width:.53144097px;stroke-linecap:butt;stroke-linejoin:miter;stroke-opacity:1;fill-opacity:1" id="path4194" d="m 29.110748,31.096589 6.382038,-0.02373 -0.0237,-1.731928 c -0.02515,-1.834574 -6.409813,-1.899352 -6.382059,0.07118 z"/><path style="fill:none;fill-rule:evenodd;stroke:#000;stroke-width:.26572049;stroke-linecap:butt;stroke-linejoin:miter;stroke-miterlimit:4;stroke-dasharray:none;stroke-opacity:1" id="path4196" d="m 29.077525,29.37006 c 2.094625,-0.06895 4.215728,-0.0436 6.373596,-0.01762"/><path style="fill:#efd8d3;fill-rule:evenodd;stroke:#000;stroke-width:.26572049;stroke-linecap:butt;stroke-linejoin:miter;stroke-miterlimit:4;stroke-dasharray:none;stroke-opacity:1;fill-opacity:1" id="path4225" d="m 31.412079,25.805905 -2.1e-5,1.186252 c 0.620378,0.259086 1.154922,0.219371 1.731929,0.02373 l -0.0237,-1.233702 c -0.638532,-0.396039 -1.195966,-0.274861 -1.708206,0.02372 z"/><path style="fill:none;fill-rule:evenodd;stroke:#000;stroke-width:.26572049;stroke-linecap:butt;stroke-linejoin:miter;stroke-miterlimit:4;stroke-dasharray:.2657205,.2657205;stroke-dashoffset:0;stroke-opacity:1" id="path4229" d="M 32.243651,25.710826 C 32.325701,22.721344 30.870587,18.627282 28.381045,15.428877 24.394,10.306573 29.95171,-1.6962393 37.715915,5.7591902 43.39286,11.210368 31.807298,19.552043 39.729069,22.193161"/><path style="fill:none;fill-rule:evenodd;stroke:#ffd5d5;stroke-width:.5;stroke-linecap:butt;stroke-linejoin:miter;stroke-miterlimit:4;stroke-dasharray:none;stroke-opacity:1" id="path4251" d="m 32.198612,47.143082 c 0.23741,0.553956 -0.629592,0.593326 -0.920712,0.39459 -0.788915,-0.538561 -0.484501,-1.70323 0.131532,-2.236014 1.101937,-0.953026 2.771665,-0.448418 3.551316,0.657653 1.144169,1.623203 0.417267,3.856763 -1.183774,4.866618 -2.133937,1.345978 -4.948062,0.388578 -6.181921,-1.709896 -1.552686,-2.640715 -0.361235,-6.042383 2.236017,-7.497222 3.145621,-1.762006 7.138422,-0.334686 8.812525,2.762138 1.972872,3.649501 0.308637,8.235534 -3.28826,10.127827 -4.15276,2.184728 -9.333362,0.282921 -11.443129,-3.814381 -2.397253,-4.655616 -0.257438,-10.431692 4.340503,-12.758432 5.158195,-2.61025 11.530387,-0.232123 14.073733,4.866625 0.688716,1.380696 1.081633,2.903416 1.15451,4.444289"/><path style="fill:none;fill-rule:evenodd;stroke:#ff2a2a;stroke-width:.5;stroke-linecap:butt;stroke-linejoin:miter;stroke-miterlimit:4;stroke-dasharray:none;stroke-opacity:1" id="path4253" d="m 31.905638,46.8508 c -0.498915,-0.317327 0.181603,-0.829085 0.527417,-0.82923 0.937137,-3.91e-4 1.335168,1.111526 1.131041,1.884065 -0.365135,1.38189 -1.996974,1.897295 -3.240711,1.432852 -1.825234,-0.681589 -2.472641,-2.893191 -1.734664,-4.597358 0.983607,-2.271387 3.793066,-3.053412 5.954005,-2.036475 2.71932,1.27971 3.636947,4.694646 2.338287,7.310651 -1.572851,3.168333 -5.597178,4.222076 -8.667299,2.640099 -3.61803,-1.864305 -4.808202,-6.500302 -2.94191,-10.023945 2.154709,-4.068186 7.403822,-5.394996 11.380592,-3.243722 4.51866,2.444415 5.982256,8.307619 3.545534,12.737239 -2.733635,4.969364 -9.21162,6.569855 -14.093886,3.847345 -2.442329,-1.361923 -4.286847,-3.661484 -5.127962,-6.324451"/><ellipse id="ellipse4255" cx="32.078" cy="46.813" rx="11.434" ry="11.317" style="opacity:1;fill:none;fill-opacity:1;stroke:#000;stroke-width:.53533226;stroke-linecap:round;stroke-linejoin:round;stroke-miterlimit:4;stroke-dasharray:none;stroke-dashoffset:0;stroke-opacity:1"/></g></svg>