<svg xmlns="http://www.w3.org/2000/svg" xmlns:svg="http://www.w3.org/2000/svg" id="svg4311" width="100%" height="100%" version="1.1" viewBox="0 0 64 64"><metadata id="metadata4316"/><g id="layer5" style="display:inline;opacity:1"><flowRoot id="flowRoot4156" xml:space="preserve" style="fill:#000;stroke:none;stroke-opacity:1;stroke-width:1px;stroke-linejoin:miter;stroke-linecap:butt;fill-opacity:1;font-family:sans-serif;font-style:normal;font-weight:400;font-size:40px;line-height:125%;letter-spacing:0;word-spacing:0"><flowRegion id="flowRegion4158"><rect id="rect4160" width="42.679" height="44.068" x="6.566" y="11.22"/></flowRegion><flowPara id="flowPara4162"/></flowRoot><flowRoot id="flowRoot4168" xml:space="preserve" style="fill:#000;stroke:none;stroke-opacity:1;stroke-width:1px;stroke-linejoin:miter;stroke-linecap:butt;fill-opacity:1;font-family:sans-serif;font-style:normal;font-weight:400;font-size:40px;line-height:125%;letter-spacing:0;word-spacing:0"><flowRegion id="flowRegion4170"><rect id="rect4172" width="63.766" height="63.64" x=".253" y="-.271"/></flowRegion><flowPara id="flowPara4174"/></flowRoot><path style="fill:#e6e6e6;fill-rule:evenodd;stroke:#000;stroke-width:.26572049;stroke-linecap:butt;stroke-linejoin:miter;stroke-miterlimit:4;stroke-dasharray:none;stroke-opacity:1" id="path4227" d="M 31.945922,26.005529 C 31.773455,20.283316 29.853123,18.19511 28.075233,15.726358 25.01132,11.471854 27.570636,3.8069902 31.854066,3.1119071 c 3.255749,-0.5283188 7.475659,2.303453 7.967265,5.7488566 0.572234,4.0104763 -5.988295,11.3618153 0.123072,12.9733453 l -0.255331,0.576058 C 32.973069,19.805493 38.924597,15.034789 39.002254,8.9427996 39.034645,6.4018129 34.315,3.014677 32.004292,3.7580204 c -5.661858,1.8213919 -4.988877,9.4960026 -3.15572,11.6827746 4.59574,5.482256 3.764027,10.568111 3.764027,10.568111 z"/><path style="display:inline;opacity:1;fill:#ccc;fill-opacity:1;stroke:#000;stroke-width:.26572049;stroke-linecap:round;stroke-linejoin:round;stroke-miterlimit:4;stroke-dasharray:none;stroke-dashoffset:0;stroke-opacity:1" id="ellipse4190-2" d="m 32.110249,26.075617 a 5.6419451,3.4060626 0 0 0 -5.642238,3.406122 5.6419451,3.4060626 0 0 0 5.642238,3.405455 5.6419451,3.4060626 0 0 0 5.641156,-3.405455 5.6419451,3.4060626 0 0 0 -5.641156,-3.406122 z m 0,0.591123 a 4.6627637,2.8149278 0 0 1 4.662173,2.814999 4.6627637,2.8149278 0 0 1 -4.662173,2.814332 4.6627637,2.8149278 0 0 1 -4.663258,-2.814332 4.6627637,2.8149278 0 0 1 4.663258,-2.814999 z"/><path style="fill:#b3b3b3;fill-rule:evenodd;stroke:#000;stroke-width:.53144097px;stroke-linecap:butt;stroke-linejoin:miter;stroke-opacity:1" id="path4192" d="m 29.751326,33.516544 -0.04746,-2.657205 5.172059,0 0,2.894456 z"/><ellipse id="ellipse4190" cx="32.078" cy="46.813" rx="13.835" ry="13.693" style="opacity:1;fill:#ccc;fill-opacity:1;stroke:#000;stroke-width:.53144097;stroke-linecap:round;stroke-linejoin:round;stroke-miterlimit:4;stroke-dasharray:none;stroke-dashoffset:0;stroke-opacity:1"/><ellipse style="opacity:1;fill:#e3dedb;fill-opacity:1;stroke:#000;stroke-width:.53533226;stroke-linecap:round;stroke-linejoin:round;stroke-miterlimit:4;stroke-dasharray:none;stroke-dashoffset:0;stroke-opacity:1" id="path4188" cx="32.078" cy="46.813" rx="11.434" ry="11.317"/><path style="fill:#666;fill-rule:evenodd;stroke:#000;stroke-width:.30000001;stroke-linecap:butt;stroke-linejoin:miter;stroke-miterlimit:4;stroke-dasharray:none;stroke-opacity:1" id="path4175" d="m 30.693467,44.755381 c 0.969405,0.613113 1.461582,1.804623 1.461582,1.804623 0,0 -1.234268,-0.0865 -2.24377,-0.715401 -1.004705,-0.625913 -0.906937,-1.275561 -3.589049,-3.16923 2.786788,1.697119 3.046419,1.242111 4.371237,2.080008 z"/><path style="fill:#ccc;fill-rule:evenodd;stroke:#000;stroke-width:.53144097px;stroke-linecap:butt;stroke-linejoin:miter;stroke-opacity:1" id="path4194" d="m 29.110748,31.096589 6.382038,-0.02373 -0.0237,-1.731928 c -0.02515,-1.834574 -6.409813,-1.899352 -6.382059,0.07118 z"/><path style="fill:none;fill-rule:evenodd;stroke:#000;stroke-width:.26572049;stroke-linecap:butt;stroke-linejoin:miter;stroke-miterlimit:4;stroke-dasharray:none;stroke-opacity:1" id="path4196" d="m 29.077525,29.37006 c 2.094625,-0.06895 4.215728,-0.0436 6.373596,-0.01762"/><path style="fill:#e6e6e6;fill-rule:evenodd;stroke:#000;stroke-width:.26572049;stroke-linecap:butt;stroke-linejoin:miter;stroke-miterlimit:4;stroke-dasharray:none;stroke-opacity:1" id="path4225" d="m 31.412079,25.805905 -2.1e-5,1.186252 c 0.620378,0.259086 1.154922,0.219371 1.731929,0.02373 l -0.0237,-1.233702 c -0.638532,-0.396039 -1.195966,-0.274861 -1.708206,0.02372 z"/><path style="fill:none;fill-rule:evenodd;stroke:#000;stroke-width:.26572049;stroke-linecap:butt;stroke-linejoin:miter;stroke-miterlimit:4;stroke-dasharray:.2657205,.2657205;stroke-dashoffset:0;stroke-opacity:1" id="path4229" d="M 32.243651,25.710826 C 32.325701,22.721344 30.870587,18.627282 28.381045,15.428877 24.394,10.306573 29.95171,-1.6962393 37.715915,5.7591902 43.39286,11.210368 31.807298,19.552043 39.729069,22.193161"/><path style="fill:none;fill-rule:evenodd;stroke:#000;stroke-width:.5;stroke-linecap:round;stroke-linejoin:miter;stroke-miterlimit:4;stroke-dasharray:none;stroke-opacity:1" id="path4174" d="m 32.33902,36.574127 -0.01557,1.735722"/><path style="fill:none;fill-rule:evenodd;stroke:#000;stroke-width:.3;stroke-linecap:round;stroke-linejoin:miter;stroke-miterlimit:4;stroke-dasharray:none;stroke-opacity:1" id="path4182" d="m 37.696472,38.27948 -0.95976,1.263128"/><path style="fill:none;fill-rule:evenodd;stroke:#000;stroke-width:.3;stroke-linecap:round;stroke-linejoin:miter;stroke-miterlimit:4;stroke-dasharray:none;stroke-opacity:1" id="path4184" d="m 41.15387,41.87604 -1.504825,0.775681"/><path style="fill:none;fill-rule:evenodd;stroke:#000;stroke-width:.5;stroke-linecap:round;stroke-linejoin:miter;stroke-miterlimit:4;stroke-dasharray:none;stroke-opacity:1" id="path4186" d="m 42.302625,46.726837 -1.924163,-0.02956"/><path style="display:inline;opacity:1;fill:none;fill-rule:evenodd;stroke:#000;stroke-width:.5;stroke-linecap:round;stroke-linejoin:miter;stroke-miterlimit:4;stroke-dasharray:none;stroke-opacity:1" id="path4174-5" d="m 32.337553,57.06011 -0.03457,-1.580441"/><path style="display:inline;opacity:1;fill:none;fill-rule:evenodd;stroke:#000;stroke-width:.3;stroke-linecap:round;stroke-linejoin:miter;stroke-miterlimit:4;stroke-dasharray:none;stroke-opacity:1" id="path4182-8" d="m 26.825363,55.362514 0.96114,-1.37497"/><path style="display:inline;opacity:1;fill:none;fill-rule:evenodd;stroke:#000;stroke-width:.3;stroke-linecap:round;stroke-linejoin:miter;stroke-miterlimit:4;stroke-dasharray:none;stroke-opacity:1" id="path4184-6" d="m 23.284392,51.871436 1.365337,-0.841464"/><path style="display:inline;opacity:1;fill:none;fill-rule:evenodd;stroke:#000;stroke-width:.5;stroke-linecap:round;stroke-linejoin:miter;stroke-miterlimit:4;stroke-dasharray:none;stroke-opacity:1" id="path4186-2" d="m 21.85733,46.569331 1.675283,0.0335"/><path style="display:inline;opacity:1;fill:none;fill-rule:evenodd;stroke:#000;stroke-width:.3;stroke-linecap:round;stroke-linejoin:miter;stroke-miterlimit:4;stroke-dasharray:none;stroke-opacity:1" id="path4182-8-0" d="M 41.07914,51.64115 39.582882,50.558602"/><path style="display:inline;opacity:1;fill:none;fill-rule:evenodd;stroke:#000;stroke-width:.3;stroke-linecap:round;stroke-linejoin:miter;stroke-miterlimit:4;stroke-dasharray:none;stroke-opacity:1" id="path4184-6-7" d="M 37.714718,55.37569 36.863922,53.969434"/><path style="display:inline;opacity:1;fill:none;fill-rule:evenodd;stroke:#000;stroke-width:.3;stroke-linecap:round;stroke-linejoin:miter;stroke-miterlimit:4;stroke-dasharray:none;stroke-opacity:1" id="path4182-8-1" d="m 23.239119,41.346867 1.249425,0.867056"/><path style="display:inline;opacity:1;fill:none;fill-rule:evenodd;stroke:#000;stroke-width:.3;stroke-linecap:round;stroke-linejoin:miter;stroke-miterlimit:4;stroke-dasharray:none;stroke-opacity:1" id="path4184-6-3" d="m 27.395463,37.612475 0.817131,1.341107"/><path style="display:inline;opacity:1;fill:#666;fill-rule:evenodd;stroke:#000;stroke-width:.29380667;stroke-linecap:butt;stroke-linejoin:miter;stroke-miterlimit:4;stroke-dasharray:none;stroke-opacity:1" id="path4175-5" d="m 32.457245,46.320187 c 0,0 -0.341782,-0.32714 0.167578,-1.455634 0.743297,-1.646773 1.446432,-1.718163 4.361634,-7.176794 -2.717351,5.719578 -2.567206,6.292851 -3.356153,7.7906 -0.485032,0.920794 -1.173064,0.841827 -1.173064,0.841827 z"/><ellipse style="opacity:1;fill:#333;fill-opacity:1;stroke:#000;stroke-width:.3;stroke-linecap:butt;stroke-linejoin:round;stroke-miterlimit:4;stroke-dasharray:none;stroke-dashoffset:0;stroke-opacity:1" id="path4238" cx="32.277" cy="46.567" rx=".79" ry=".79"/></g></svg>