<svg xmlns="http://www.w3.org/2000/svg" xmlns:svg="http://www.w3.org/2000/svg" id="svg4311" width="100%" height="100%" version="1.1" viewBox="0 0 64 64"><metadata id="metadata4316"/><g id="layer5" style="display:inline;opacity:1"><ellipse style="display:inline;fill:#ff8080;fill-opacity:1;stroke:#000;stroke-width:1.12779903;stroke-linecap:round;stroke-linejoin:round;stroke-miterlimit:4;stroke-dasharray:none;stroke-dashoffset:0;stroke-opacity:1" id="path4279" cx="31.82" cy="31.549" rx="27.008" ry="26.625"/><path id="path4156" d="m 22.250338,33.785754 0,3.848779 0.393752,-4.409527 c 0.828241,-1.45285 2.769832,-3.249746 4.887936,-4.931976 l 0.09505,1.949861 1.547807,-3.211546 c 2.158856,-1.605764 4.249819,-2.994876 5.268147,-3.670323 l -1.018328,3.237034 1.710792,-3.504666 c 1.955189,-1.197946 7.780028,-2.790983 11.581789,-7.519075 0.285132,5.429027 -6.53088,12.693227 -7.752874,15.522445 l -4.49422,1.172421 4.385599,-0.662702 c -0.515951,1.554805 -1.208413,2.969422 -2.077389,4.307572 l -1.575013,0.484284 0.719617,0.726426 c -1.086215,1.440106 -2.403254,2.778256 -3.937534,4.052685 l -4.901504,1.414617 4.45344,-0.904844 c -3.652351,2.918445 -7.060341,4.791856 -11.269394,4.536969 0,0 -0.149354,-0.152931 -0.29871,-0.254885 -0.923285,-5.964331 0.556686,-10.246415 2.281039,-12.183549 z" style="fill:#f55;fill-opacity:1;fill-rule:evenodd;stroke:none;stroke-width:.27516463px;stroke-linecap:butt;stroke-linejoin:miter;stroke-miterlimit:4;stroke-dasharray:none;stroke-opacity:1"/><path id="path4160" d="m 42.783583,21.309741 c -3.301935,3.106851 -9.632034,6.550355 -12.8627,10.214515 C 25.32437,36.718203 24.219784,41.912152 16.475746,50.37884 24.33856,42.42206 25.930121,36.979087 30.30096,31.713989 33.329712,28.061687 40.075524,24.381016 42.783583,21.309741 Z" style="fill:#ff2a2a;fill-opacity:1;fill-rule:evenodd;stroke:none;stroke-width:.27516463px;stroke-linecap:butt;stroke-linejoin:miter;stroke-miterlimit:4;stroke-dasharray:none;stroke-opacity:1"/><path style="display:inline;fill:#f9f9f9;fill-opacity:1;fill-rule:evenodd;stroke:none;stroke-width:1px;stroke-linecap:butt;stroke-linejoin:miter;stroke-opacity:1" id="path4281" d="M 33.310526,8.4466623 C 42.853897,9.7059588 51.837481,12.667445 56.143804,29.852737 42.960254,11.013531 41.261755,14.341438 33.310526,8.4466623 Z"/><flowRoot id="flowRoot4156" xml:space="preserve" style="fill:#000;stroke:none;stroke-opacity:1;stroke-width:1px;stroke-linejoin:miter;stroke-linecap:butt;fill-opacity:1;font-family:sans-serif;font-style:normal;font-weight:400;font-size:40px;line-height:125%;letter-spacing:0;word-spacing:0"><flowRegion id="flowRegion4158"><rect id="rect4160" width="42.679" height="44.068" x="6.566" y="11.22"/></flowRegion><flowPara id="flowPara4162"/></flowRoot><flowRoot id="flowRoot4168" xml:space="preserve" style="fill:#000;stroke:none;stroke-opacity:1;stroke-width:1px;stroke-linejoin:miter;stroke-linecap:butt;fill-opacity:1;font-family:sans-serif;font-style:normal;font-weight:400;font-size:40px;line-height:125%;letter-spacing:0;word-spacing:0"><flowRegion id="flowRegion4170"><rect id="rect4172" width="63.766" height="63.64" x=".253" y="-.271"/></flowRegion><flowPara id="flowPara4174"/></flowRoot><path style="display:inline;fill:#000;fill-opacity:.44859811;fill-rule:evenodd;stroke:none;stroke-width:1px;stroke-linecap:butt;stroke-linejoin:miter;stroke-opacity:1" id="path4283" d="M 43.352343,55.124348 C 18.554601,65.583105 -2.4191261,42.115746 7.6398162,20.86384 7.8289942,39.063247 21.867849,56.944615 43.352343,55.124348 Z"/><path style="display:inline;opacity:1;fill:#dedbe3;fill-rule:evenodd;stroke:#000;stroke-width:.50091332;stroke-linecap:butt;stroke-linejoin:miter;stroke-miterlimit:4;stroke-dasharray:none;stroke-opacity:1" id="path4190-3-4" d="m 32.119918,23.613514 8.61788,30.082967 c -0.75196,1.29959 -1.35629,0.760508 -1.99606,0.662898 l -8.61787,-30.398634 z"/><path style="fill:#ff2682;fill-opacity:1;fill-rule:evenodd;stroke:#000;stroke-width:.60000002;stroke-linecap:butt;stroke-linejoin:miter;stroke-miterlimit:4;stroke-dasharray:none;stroke-opacity:1" id="path4413" d="m 34.826398,36.346942 c -1.80333,4.223419 -8.84693,7.051689 -10.84879,0.825338 -1.06977,-3.327293 0.2738,-6.43168 3.32417,-7.711967 L 23.212588,16.70024 c -0.12746,-0.563163 -0.42148,-1.100001 -0.10558,-1.733255 -2.40145,-6.4201281 6.30558,-9.1202651 8.44403,-2.813849 0.44496,0.34121 0.48989,0.723076 0.60553,1.097757 l 4.3562,13.105926 c 3.25884,-0.745494 5.88432,-0.265208 7.45086,4.474727 2.15066,6.507297 -6.11805,7.29777 -9.13723,5.515396 z"/><path style="fill:none;fill-rule:evenodd;stroke:#000;stroke-width:.25;stroke-linecap:butt;stroke-linejoin:miter;stroke-miterlimit:4;stroke-dasharray:none;stroke-opacity:1" id="path4415" d="m 27.358178,29.469701 c 1.59349,-0.393206 3.68379,0.47348 4.89153,0.07244 1.3435,-0.446115 2.71444,-2.583568 4.25003,-3.176722"/><path style="display:inline;opacity:1;fill:none;fill-rule:evenodd;stroke:#000;stroke-width:.25;stroke-linecap:butt;stroke-linejoin:miter;stroke-miterlimit:4;stroke-dasharray:none;stroke-opacity:1" id="path4415-0" d="m 23.187758,16.429628 c 1.78223,-1.274929 6.05155,-2.838263 8.98081,-3.148428"/><path style="display:inline;opacity:1;fill:none;fill-rule:evenodd;stroke:#000;stroke-width:.25;stroke-linecap:butt;stroke-linejoin:miter;stroke-miterlimit:4;stroke-dasharray:none;stroke-opacity:1" id="path4415-0-2" d="m 22.781318,15.361204 c 1.78224,-1.274929 6.05156,-2.838263 8.98082,-3.148428"/><path style="display:inline;opacity:1;fill:#fff;fill-rule:evenodd;stroke:none;stroke-width:1px;stroke-linecap:butt;stroke-linejoin:miter;stroke-opacity:1" id="path4192-7-1" d="m 43.467758,33.262348 c 0.0026,-2.260902 -0.78134,-4.174707 -2.039096,-5.485573 -1.425204,-0.989831 -3.030766,-1.224553 -4.350804,-0.749258 1.381491,-0.129125 2.703801,0.495839 3.66127,1.545968 1.265557,0.853714 2.380029,2.43707 2.72863,4.688863 z"/><path style="display:inline;opacity:1;fill:#fff;fill-rule:evenodd;stroke:none;stroke-width:1px;stroke-linecap:butt;stroke-linejoin:miter;stroke-opacity:1" id="path4192-7-6" d="M 30.693558,11.788589 C 30.347298,10.829216 29.561393,10.04179 28.668634,9.4747037 28.607661,9.4532958 28.546717,9.4329263 28.485893,9.4135844 27.442721,9.0818568 26.41158,9.0460789 25.850448,9.2786959 c 0.578328,0.00582 1.504392,0.2883422 2.345147,0.7905851 0.04906,0.02931 0.09786,0.05937 0.146301,0.09017 0.879665,0.281104 1.791755,0.807318 2.351662,1.629134 z"/></g></svg>