<svg xmlns="http://www.w3.org/2000/svg" xmlns:svg="http://www.w3.org/2000/svg" xmlns:xlink="http://www.w3.org/1999/xlink" id="svg2" version="1.1" viewBox="0 0 256 256"><metadata id="metadata7"/><g id="layer2" style="opacity:1"><path style="fill:#b3b3b3;fill-rule:evenodd;stroke:#000;stroke-width:1px;stroke-linecap:butt;stroke-linejoin:miter;stroke-opacity:1" id="path4160" d="m 64.836747,221.01487 2.410714,9.10715 c 17.384629,21.89661 107.946429,22.73809 117.499999,1.07142 l 2.94641,-8.66071"/><path style="fill:#b3b3b3;fill-rule:evenodd;stroke:#000;stroke-width:1px;stroke-linecap:butt;stroke-linejoin:miter;stroke-opacity:1" id="path4168" d="m 115.54546,9.0566443 c -8.24807,0.157228 -19.678427,4.0748667 -16.798617,9.1020837 l 7.858527,16.3158 19.72957,-1.036094 -2.96199,-21.153845 c -0.06,-2.3610377 -3.50707,-3.3103037 -7.82749,-3.2279447 z m 0.40085,5.0125637 c 2.52205,-0.07 4.43954,0.376376 4.54142,1.520406 l 0.96381,5.870352 c -1.96933,-0.609814 -10.37312,0.146673 -15.77229,3.894094 l -2.2882,-5.233806 c -1.47073,-3.241494 7.00674,-5.897033 12.55526,-6.051046 z m 2.63256,12.37739 c 1.25817,-0.04772 2.56574,0.01773 3.95953,0.186106 l 1.21826,6.752452 -14.51717,0.861242 c -0.19027,-0.315147 -1.52682,-3.972273 -1.52682,-3.972273 3.77414,-2.515286 7.09169,-3.684379 10.8662,-3.827527 z"/><path style="fill:#b3b3b3;fill-rule:evenodd;stroke:#000;stroke-width:1px;stroke-linecap:butt;stroke-linejoin:miter;stroke-opacity:1" id="path4164" d="M 72.114847,39.969724 C 58.036949,30.793732 192.78721,30.045436 179.70413,40.416153"/><path style="fill:#f55;fill-rule:evenodd;stroke:#000;stroke-width:1px;stroke-linecap:butt;stroke-linejoin:miter;stroke-opacity:1" id="path4156" d="m 190.77557,218.54115 0.13524,-156.964283 -11.20668,-21.25 C 187.71241,33.676776 65.507703,33.303058 72.025561,39.969724 L 59.882704,62.291153 60.418418,216.75544 c 8.638793,25.22345 119.669952,27.00858 130.357152,1.78571 z"/><path style="fill:none;fill-rule:evenodd;stroke:#000;stroke-width:1px;stroke-linecap:butt;stroke-linejoin:miter;stroke-opacity:1" id="path4166" d="M 60.104076,62.050713 C 72.831818,56.17985 173.74293,55.175694 190.66629,61.293099"/></g></svg>