<svg xmlns="http://www.w3.org/2000/svg" xmlns:svg="http://www.w3.org/2000/svg" id="svg4311" width="100%" height="100%" version="1.1" viewBox="0 0 64 64"><metadata id="metadata4316"/><g id="layer5" style="display:inline;opacity:1"><ellipse style="display:inline;fill:#ff8080;fill-opacity:1;stroke:#000;stroke-width:1.12779903;stroke-linecap:round;stroke-linejoin:round;stroke-miterlimit:4;stroke-dasharray:none;stroke-dashoffset:0;stroke-opacity:1" id="path4279" cx="31.82" cy="31.549" rx="27.008" ry="26.625"/><path style="fill:#f55;fill-rule:evenodd;stroke:none;stroke-width:.5;stroke-linecap:butt;stroke-linejoin:miter;stroke-opacity:1;stroke-miterlimit:4;stroke-dasharray:none" id="path4170" d="m 15.893325,38.076417 c -7.6397981,-0.08731 -5.729412,-11.644024 -2.015781,-12.709219 1.04401,-1.766828 2.025162,-2.710362 2.025162,-2.710362 0,0 1.275355,1.282865 2.230482,2.708897 3.987449,0.895705 4.674965,12.789711 -2.239863,12.710684 z"/><path style="fill:#f55;fill-rule:evenodd;stroke:none;stroke-width:.5;stroke-linecap:butt;stroke-linejoin:miter;stroke-opacity:1;stroke-miterlimit:4;stroke-dasharray:none" id="path4172" d="m 21.938974,50.92884 c -2.409073,-0.441319 -4.537482,-4.625901 -4.504502,-6.092212 0.07557,-3.359623 7.352929,-14.656794 14.319419,-14.461581 8.049191,0.22555 11.810463,11.49127 12.700016,15.336144 0.605287,2.616224 -2.44021,5.644362 -5.459532,5.916072 -2.458507,0.221241 -4.215617,-2.139623 -7.040968,-2.917358 -2.359447,-0.649487 -7.575004,2.665815 -10.014433,2.218935 z"/><path style="display:inline;opacity:1;fill:#f55;fill-rule:evenodd;stroke:none;stroke-width:.5;stroke-linecap:butt;stroke-linejoin:miter;stroke-opacity:1;stroke-miterlimit:4;stroke-dasharray:none" id="path4170-8" d="m 27.802706,29.216811 c -7.622833,0.51711 -6.629128,-11.154604 -3.011026,-12.510151 0.901518,-1.84387 1.805252,-2.86205 1.805252,-2.86205 0,0 1.372473,1.178008 2.436995,2.524056 4.04559,0.577586 5.668259,12.380105 -1.231221,12.848145 z"/><path style="display:inline;opacity:1;fill:#f55;fill-rule:evenodd;stroke:none;stroke-width:.5;stroke-linecap:butt;stroke-linejoin:miter;stroke-opacity:1;stroke-miterlimit:4;stroke-dasharray:none" id="path4170-6" d="m 39.520769,30.12933 c -7.561214,-1.098318 -4.142423,-12.300591 -0.320808,-12.864626 1.268021,-1.613054 2.365078,-2.418371 2.365078,-2.418371 0,0 1.094858,1.440505 1.853404,2.980511 3.83424,1.415919 2.946035,13.296578 -3.897674,12.302486 z"/><path style="display:inline;opacity:1;fill:#f55;fill-rule:evenodd;stroke:none;stroke-width:.5;stroke-linecap:butt;stroke-linejoin:miter;stroke-opacity:1;stroke-miterlimit:4;stroke-dasharray:none" id="path4170-4" d="m 47.320494,40.890388 c -7.299228,-2.261232 -2.18532,-12.795771 1.67737,-12.758463 1.502695,-1.39623 2.711285,-2.021116 2.711285,-2.021116 0,0 0.858266,1.59335 1.368877,3.232674 3.568227,1.995209 0.849046,13.593565 -5.757532,11.546905 z"/><path style="display:inline;fill:#f9f9f9;fill-opacity:1;fill-rule:evenodd;stroke:none;stroke-width:1px;stroke-linecap:butt;stroke-linejoin:miter;stroke-opacity:1" id="path4281" d="M 33.310526,8.4466623 C 42.853897,9.7059588 51.837481,12.667445 56.143804,29.852737 42.960254,11.013531 41.261755,14.341438 33.310526,8.4466623 Z"/><flowRoot id="flowRoot4156" xml:space="preserve" style="fill:#000;stroke:none;stroke-opacity:1;stroke-width:1px;stroke-linejoin:miter;stroke-linecap:butt;fill-opacity:1;font-family:sans-serif;font-style:normal;font-weight:400;font-size:40px;line-height:125%;letter-spacing:0;word-spacing:0"><flowRegion id="flowRegion4158"><rect id="rect4160" width="42.679" height="44.068" x="6.566" y="11.22"/></flowRegion><flowPara id="flowPara4162"/></flowRoot><flowRoot id="flowRoot4168" xml:space="preserve" style="fill:#000;stroke:none;stroke-opacity:1;stroke-width:1px;stroke-linejoin:miter;stroke-linecap:butt;fill-opacity:1;font-family:sans-serif;font-style:normal;font-weight:400;font-size:40px;line-height:125%;letter-spacing:0;word-spacing:0"><flowRegion id="flowRegion4170"><rect id="rect4172" width="63.766" height="63.64" x=".253" y="-.271"/></flowRegion><flowPara id="flowPara4174"/></flowRoot><g id="g4199" transform="matrix(0.94683026,0.32173353,-0.32173353,0.94683026,100.56124,48.285475)"><path id="path4159" d="M -75.285807,17.087025 -58.551482,3.4852095 c 0,0 5.4135,1.555931 7.040095,0.141777 1.920471,-1.669648 1.80221,-5.4870585 -0.192127,-7.2267825 -1.444187,-1.259809 -6.019398,-0.139044 -6.019398,-0.139044 0,0 0.492733,-4.78211 -1.469787,-5.864176 -2.119919,-1.168851 -5.827162,-0.247838 -7.111191,1.538244 -1.275537,1.774269 1.425816,6.314846 1.425816,6.314846 l -15.636395,13.507179 c 0,0 -7.02567,-2.5375205 -8.598835,-0.499272 -1.386462,1.796348 -1.556894,6.056279 0.599169,7.288647 1.661795,0.949854 5.61644,0.08377 5.61644,0.08377 0,0 -2.196905,4.751512 -0.285055,5.838512 2.524339,1.435232 7.644544,1.887318 8.691728,-0.48531 0.847523,-1.920256 -0.794785,-6.896572 -0.794785,-6.896572 z" style="display:inline;opacity:1;fill:#deaa87;fill-rule:evenodd;stroke:#000;stroke-width:.41850257;stroke-linecap:butt;stroke-linejoin:miter;stroke-miterlimit:4;stroke-dasharray:none;stroke-opacity:1"/><ellipse id="path4161" cx="-76.223" cy="3.183" rx=".641" ry=".54" transform="matrix(0.99437035,-0.10596038,0.18229299,0.98324426,0,0)" style="display:inline;opacity:1;fill:#a05a2c;fill-opacity:1;stroke:#000;stroke-width:.41912657;stroke-linecap:round;stroke-linejoin:round;stroke-miterlimit:4;stroke-dasharray:none;stroke-dashoffset:0;stroke-opacity:1"/><ellipse id="path4161-6" cx="-63.66" cy="-4.297" rx=".641" ry=".54" transform="matrix(0.99437035,-0.10596038,0.18229299,0.98324426,0,0)" style="display:inline;opacity:1;fill:#a05a2c;fill-opacity:1;stroke:#000;stroke-width:.41912657;stroke-linecap:round;stroke-linejoin:round;stroke-miterlimit:4;stroke-dasharray:none;stroke-dashoffset:0;stroke-opacity:1"/></g><path style="display:inline;fill:#000;fill-opacity:.44859811;fill-rule:evenodd;stroke:none;stroke-width:1px;stroke-linecap:butt;stroke-linejoin:miter;stroke-opacity:1" id="path4283" d="M 43.352343,55.124348 C 18.554601,65.583105 -2.4191261,42.115746 7.6398162,20.86384 7.8289942,39.063247 21.867849,56.944615 43.352343,55.124348 Z"/></g></svg>