<svg xmlns="http://www.w3.org/2000/svg" xmlns:svg="http://www.w3.org/2000/svg" id="svg4311" width="100%" height="100%" version="1.1" viewBox="0 0 64 64"><metadata id="metadata4316"/><g id="layer5" style="display:inline;opacity:1"><ellipse style="display:inline;fill:#ff8080;fill-opacity:1;stroke:#000;stroke-width:1.12779903;stroke-linecap:round;stroke-linejoin:round;stroke-miterlimit:4;stroke-dasharray:none;stroke-dashoffset:0;stroke-opacity:1" id="path4279" cx="31.82" cy="31.549" rx="27.008" ry="26.625"/><path id="path4156" d="m 22.250338,33.785754 0,3.848779 0.393752,-4.409527 c 0.828241,-1.45285 2.769832,-3.249746 4.887936,-4.931976 l 0.09505,1.949861 1.547807,-3.211546 c 2.158856,-1.605764 4.249819,-2.994876 5.268147,-3.670323 l -1.018328,3.237034 1.710792,-3.504666 c 1.955189,-1.197946 7.780028,-2.790983 11.581789,-7.519075 0.285132,5.429027 -6.53088,12.693227 -7.752874,15.522445 l -4.49422,1.172421 4.385599,-0.662702 c -0.515951,1.554805 -1.208413,2.969422 -2.077389,4.307572 l -1.575013,0.484284 0.719617,0.726426 c -1.086215,1.440106 -2.403254,2.778256 -3.937534,4.052685 l -4.901504,1.414617 4.45344,-0.904844 c -3.652351,2.918445 -7.060341,4.791856 -11.269394,4.536969 0,0 -0.149354,-0.152931 -0.29871,-0.254885 -0.923285,-5.964331 0.556686,-10.246415 2.281039,-12.183549 z" style="fill:#f55;fill-opacity:1;fill-rule:evenodd;stroke:none;stroke-width:.27516463px;stroke-linecap:butt;stroke-linejoin:miter;stroke-miterlimit:4;stroke-dasharray:none;stroke-opacity:1"/><path id="path4160" d="m 42.783583,21.309741 c -3.301935,3.106851 -9.632034,6.550355 -12.8627,10.214515 C 25.32437,36.718203 24.219784,41.912152 16.475746,50.37884 24.33856,42.42206 25.930121,36.979087 30.30096,31.713989 33.329712,28.061687 40.075524,24.381016 42.783583,21.309741 Z" style="fill:#ff2a2a;fill-opacity:1;fill-rule:evenodd;stroke:none;stroke-width:.27516463px;stroke-linecap:butt;stroke-linejoin:miter;stroke-miterlimit:4;stroke-dasharray:none;stroke-opacity:1"/><path style="display:inline;fill:#f9f9f9;fill-opacity:1;fill-rule:evenodd;stroke:none;stroke-width:1px;stroke-linecap:butt;stroke-linejoin:miter;stroke-opacity:1" id="path4281" d="M 33.310526,8.4466623 C 42.853897,9.7059588 51.837481,12.667445 56.143804,29.852737 42.960254,11.013531 41.261755,14.341438 33.310526,8.4466623 Z"/><flowRoot id="flowRoot4156" xml:space="preserve" style="fill:#000;stroke:none;stroke-opacity:1;stroke-width:1px;stroke-linejoin:miter;stroke-linecap:butt;fill-opacity:1;font-family:sans-serif;font-style:normal;font-weight:400;font-size:40px;line-height:125%;letter-spacing:0;word-spacing:0"><flowRegion id="flowRegion4158"><rect id="rect4160" width="42.679" height="44.068" x="6.566" y="11.22"/></flowRegion><flowPara id="flowPara4162"/></flowRoot><flowRoot id="flowRoot4168" xml:space="preserve" style="fill:#000;stroke:none;stroke-opacity:1;stroke-width:1px;stroke-linejoin:miter;stroke-linecap:butt;fill-opacity:1;font-family:sans-serif;font-style:normal;font-weight:400;font-size:40px;line-height:125%;letter-spacing:0;word-spacing:0"><flowRegion id="flowRegion4170"><rect id="rect4172" width="63.766" height="63.64" x=".253" y="-.271"/></flowRegion><flowPara id="flowPara4174"/></flowRoot><path style="display:inline;fill:#000;fill-opacity:.44859811;fill-rule:evenodd;stroke:none;stroke-width:1px;stroke-linecap:butt;stroke-linejoin:miter;stroke-opacity:1" id="path4283" d="M 43.352343,55.124348 C 18.554601,65.583105 -2.4191261,42.115746 7.6398162,20.86384 7.8289942,39.063247 21.867849,56.944615 43.352343,55.124348 Z"/><g id="g4200" transform="matrix(-1.0036778,0,0,0.99997879,-12.321022,1.3399532)"><path id="path4190" d="m -43.057752,22.520613 -8.586297,30.083605 c 0.749204,1.299618 1.351312,0.760524 1.988738,0.662912 l 8.586296,-30.399278 z" style="fill:#dedbe3;fill-rule:evenodd;stroke:#000;stroke-width:.5;stroke-linecap:butt;stroke-linejoin:miter;stroke-miterlimit:4;stroke-dasharray:none;stroke-opacity:1"/><path id="path4186" d="m -47.003661,13.460807 c 2.908763,-7.3101529 15.573675,-3.6819352 13.794896,3.819639 l -0.69448,2.588516 c -5.107776,8.474967 -15.361171,1.003112 -13.731761,-3.914341 z" style="fill:#f06;fill-rule:evenodd;stroke:#000;stroke-width:.5;stroke-linecap:butt;stroke-linejoin:miter;stroke-miterlimit:4;stroke-dasharray:none;stroke-opacity:1"/><path id="path4188" d="m -47.224632,13.713345 c -0.420405,0.393376 -0.663514,1.459879 -0.662912,2.209709 1.704412,2.008607 8.085834,5.087726 14.221518,4.03295 0.332334,-0.464892 0.812061,-1.508662 0.61827,-2.278259 -4.453212,0.05852 -9.322899,-0.471421 -14.176876,-3.9644 z" style="fill:#f59;fill-rule:evenodd;stroke:#000;stroke-width:.5;stroke-linecap:butt;stroke-linejoin:miter;stroke-miterlimit:4;stroke-dasharray:none;stroke-opacity:1"/><path id="path4192" d="m -37.280942,10.99856 c 1.107023,0.661811 1.80456,1.805423 2.197353,2.932562 0.01148,0.03295 0.02271,0.06591 0.0337,0.09888 0.609387,0.997634 0.980327,2.098733 1.11508,2.871634 0.136123,-0.780758 0.03545,-1.999619 -0.3746,-3.212762 -0.01942,-0.03303 -0.03909,-0.06598 -0.05899,-0.09884 -0.693819,-1.145482 -1.666412,-2.156206 -2.912541,-2.591474 z" style="fill:#fff;fill-rule:evenodd;stroke:none;stroke-width:1px;stroke-linecap:butt;stroke-linejoin:miter;stroke-opacity:1"/><path id="path4196" d="m -40.532371,17.501417 c 0.901421,0.239296 2.190963,0.522399 3.489625,0.723355 1.020134,0.157856 2.052614,0.266127 2.909822,0.260763 0.231648,-0.05648 0.446797,-0.121197 0.640054,-0.194936 -0.204402,-0.02378 -0.422871,-0.05795 -0.649315,-0.09985 -0.83402,0.04791 -1.854759,-0.01489 -2.878737,-0.129601 -1.300212,-0.145655 -2.59709,-0.373918 -3.511449,-0.559736 z" style="fill:#fff;fill-rule:evenodd;stroke:none;stroke-width:1px;stroke-linecap:butt;stroke-linejoin:miter;stroke-opacity:1"/></g></g></svg>