<svg xmlns="http://www.w3.org/2000/svg" xmlns:svg="http://www.w3.org/2000/svg" id="svg4311" width="100%" height="100%" version="1.1" viewBox="0 0 64 64"><metadata id="metadata4316"/><g id="layer5" style="display:inline;opacity:1"><ellipse style="display:inline;fill:#ff8080;fill-opacity:1;stroke:#000;stroke-width:1.12779903;stroke-linecap:round;stroke-linejoin:round;stroke-miterlimit:4;stroke-dasharray:none;stroke-dashoffset:0;stroke-opacity:1" id="path4279" cx="31.82" cy="31.549" rx="27.008" ry="26.625"/><path style="display:inline;opacity:1;fill:#f55;fill-rule:evenodd;stroke:none;stroke-width:.4632912px;stroke-linecap:butt;stroke-linejoin:miter;stroke-opacity:1" id="path4172" d="m 30.699012,11.831863 c -9.518728,0.195714 -16.401367,7.446912 -17.199884,29.746537 -0.02864,0.799323 -1.269263,0.931297 -2.517455,2.046446 0.147812,1.498848 0.606697,3.724251 0.974498,4.888728 3.903004,-0.791526 5.623447,-1.515535 8.137058,-2.147957 -0.45362,-6.280461 -0.630878,-28.85488 10.272827,-29.113114 13.534322,-0.320535 12.740967,19.154046 12.997363,29.137479 3.328135,0.746652 4.487404,1.262853 7.093529,2.026141 0.569647,-1.528465 1.786905,-3.292111 2.042388,-4.710071 C 51.119715,42.292234 48.687502,42.038979 48.65819,41.192662 47.877137,18.664217 41.742111,11.604816 30.699012,11.831863 Z m 10.349976,6.472284 a 0.7742751,1.0232746 70.441759 0 1 0.791779,0.503494 0.7742751,1.0232746 70.441759 0 1 -0.767418,1.051641 0.7742751,1.0232746 70.441759 0 1 -1.185641,-0.442583 0.7742751,1.0232746 70.441759 0 1 0.767419,-1.051644 0.7742751,1.0232746 70.441759 0 1 0.29641,-0.05686 0.7742751,1.0232746 70.441759 0 1 0.09744,-0.004 z m -19.64831,0.393862 a 1.0224653,0.77488805 17.971441 0 1 0.369496,0.04872 1.0224653,0.77488805 17.971441 0 1 0.79178,1.031343 1.0224653,0.77488805 17.971441 0 1 -1.173457,0.475068 1.0224653,0.77488805 17.971441 0 1 -0.791777,-1.031345 1.0224653,0.77488805 17.971441 0 1 0.803958,-0.523791 z m 22.112979,4.125371 a 0.7742751,1.0232746 70.441759 0 1 0.787719,0.503491 0.7742751,1.0232746 70.441759 0 1 -0.76742,1.051643 0.7742751,1.0232746 70.441759 0 1 -1.18564,-0.442582 0.7742751,1.0232746 70.441759 0 1 0.767415,-1.051648 0.7742751,1.0232746 70.441759 0 1 0.300473,-0.05686 0.7742751,1.0232746 70.441759 0 1 0.09744,-0.004 z M 19.094368,22.8924 a 1.0224653,0.77488805 17.971441 0 1 0.004,0 1.0224653,0.77488805 17.971441 0 1 0.369494,0.05278 1.0224653,0.77488805 17.971441 0 1 0.791784,1.03135 1.0224653,0.77488805 17.971441 0 1 -1.177516,0.470997 1.0224653,0.77488805 17.971441 0 1 -0.79178,-1.031338 1.0224653,0.77488805 17.971441 0 1 0.803962,-0.523796 z m -1.437384,5.107988 a 1.0224653,0.77488805 17.971441 0 1 0.369497,0.05278 1.0224653,0.77488805 17.971441 0 1 0.791779,1.031342 1.0224653,0.77488805 17.971441 0 1 -1.17346,0.471007 1.0224653,0.77488805 17.971441 0 1 -0.791774,-1.031341 1.0224653,0.77488805 17.971441 0 1 0.803958,-0.523793 z m 27.444291,0.645609 a 0.7742751,1.0232746 70.441759 0 1 0.787714,0.499426 0.7742751,1.0232746 70.441759 0 1 -0.767414,1.051645 0.7742751,1.0232746 70.441759 0 1 -1.185637,-0.442583 0.7742751,1.0232746 70.441759 0 1 0.767414,-1.051648 0.7742751,1.0232746 70.441759 0 1 0.397923,-0.05683 z m -28.390367,5.615536 a 1.0224653,0.77488805 17.971441 0 1 0.369498,0.04871 1.0224653,0.77488805 17.971441 0 1 0.791779,1.031344 1.0224653,0.77488805 17.971441 0 1 -1.173456,0.471007 1.0224653,0.77488805 17.971441 0 1 -0.791782,-1.031347 1.0224653,0.77488805 17.971441 0 1 0.803961,-0.519729 z m 28.804527,0.14618 a 0.7742751,1.0232746 70.441759 0 1 0.885168,0.499428 0.7742751,1.0232746 70.441759 0 1 -0.767418,1.051646 0.7742751,1.0232746 70.441759 0 1 -1.185638,-0.442587 0.7742751,1.0232746 70.441759 0 1 0.767417,-1.051642 0.7742751,1.0232746 70.441759 0 1 0.300471,-0.05684 z"/><flowRoot id="flowRoot4156" xml:space="preserve" style="fill:#000;stroke:none;stroke-opacity:1;stroke-width:1px;stroke-linejoin:miter;stroke-linecap:butt;fill-opacity:1;font-family:sans-serif;font-style:normal;font-weight:400;font-size:40px;line-height:125%;letter-spacing:0;word-spacing:0"><flowRegion id="flowRegion4158"><rect id="rect4160" width="42.679" height="44.068" x="6.566" y="11.22"/></flowRegion><flowPara id="flowPara4162"/></flowRoot><flowRoot id="flowRoot4168" xml:space="preserve" style="fill:#000;stroke:none;stroke-opacity:1;stroke-width:1px;stroke-linejoin:miter;stroke-linecap:butt;fill-opacity:1;font-family:sans-serif;font-style:normal;font-weight:400;font-size:40px;line-height:125%;letter-spacing:0;word-spacing:0"><flowRegion id="flowRegion4170"><rect id="rect4172" width="63.766" height="63.64" x=".253" y="-.271"/></flowRegion><flowPara id="flowPara4174"/></flowRoot><path style="display:inline;fill:#f9f9f9;fill-opacity:1;fill-rule:evenodd;stroke:none;stroke-width:1px;stroke-linecap:butt;stroke-linejoin:miter;stroke-opacity:1" id="path4281" d="M 33.310526,8.4466623 C 42.853897,9.7059588 51.837481,12.667445 56.143804,29.852737 42.960254,11.013531 41.261755,14.341438 33.310526,8.4466623 Z"/><path style="display:inline;fill:#000;fill-opacity:.44859811;fill-rule:evenodd;stroke:none;stroke-width:1px;stroke-linecap:butt;stroke-linejoin:miter;stroke-opacity:1" id="path4283" d="M 43.352343,55.124348 C 18.554601,65.583105 -2.4191261,42.115746 7.6398162,20.86384 7.8289942,39.063247 21.867849,56.944615 43.352343,55.124348 Z"/><path style="display:inline;opacity:1;fill:#fac099;fill-rule:evenodd;stroke:#000;stroke-width:.5;stroke-linecap:butt;stroke-linejoin:miter;stroke-miterlimit:4;stroke-dasharray:none;stroke-opacity:1;fill-opacity:1" id="path4357" d="m 19.59691,27.068245 c -0.987016,1.592118 -0.725121,15.414634 -0.186062,16.376975 0.636447,1.136197 16.839282,2.444862 17.831044,1.128639 0.868524,-1.15267 1.272174,-15.707528 0.373282,-16.696301 -0.787211,-0.86592 -17.290503,-1.983242 -18.018264,-0.809313 z"/><path style="display:inline;opacity:1;fill:#fddac3;fill-rule:evenodd;stroke:#000;stroke-width:.5;stroke-linecap:butt;stroke-linejoin:miter;stroke-miterlimit:4;stroke-dasharray:none;stroke-opacity:1;fill-opacity:1" id="path4359" d="m 19.557462,27.352116 c -0.19768,-1.954819 6.244913,-5.337257 8.166064,-6.187193 1.174437,-0.519583 15.230532,-0.52557 15.106727,0.745635 l -5.512479,6.241621 z"/><path style="display:inline;opacity:1;fill:#fcb88a;fill-rule:evenodd;stroke:#000;stroke-width:.5;stroke-linecap:butt;stroke-linejoin:miter;stroke-miterlimit:4;stroke-dasharray:none;stroke-opacity:1;fill-opacity:1" id="path4361" d="m 42.757665,21.785689 c 1.020135,-0.03133 0.426456,14.719506 0.148556,16.062934 -0.301057,1.455333 -3.152708,6.21833 -5.591741,6.850106 l 0.0037,-16.587294 c 1.813168,-2.108581 2.665911,-2.811022 5.439516,-6.325746 z"/></g></svg>