<svg xmlns="http://www.w3.org/2000/svg" xmlns:svg="http://www.w3.org/2000/svg" xmlns:xlink="http://www.w3.org/1999/xlink" id="svg4311" width="100%" height="100%" version="1.1" viewBox="0 0 64 64"><defs id="defs4313"><linearGradient id="linearGradient4218" x1="-61.051" x2="-61.43" y1="18.606" y2="36.347" gradientTransform="matrix(1.3217314,-0.37677654,0.37309618,1.3088207,104.22423,-19.132163)" gradientUnits="userSpaceOnUse" xlink:href="#innoxiasGiftGradient"/><linearGradient id="innoxiasGiftGradient"><stop style="stop-color:#fce892;stop-opacity:1" id="stop4214" offset="0"/><stop style="stop-color:#d4aa00;stop-opacity:1" id="stop4216" offset="1"/></linearGradient></defs><metadata id="metadata4316"/><g id="layer5" style="display:inline;opacity:1"><ellipse style="display:inline;fill:#ff8080;fill-opacity:1;stroke:#000;stroke-width:1.12779903;stroke-linecap:round;stroke-linejoin:round;stroke-miterlimit:4;stroke-dasharray:none;stroke-dashoffset:0;stroke-opacity:1" id="path4279" cx="31.82" cy="31.549" rx="27.008" ry="26.625"/><g id="g4172" transform="matrix(0.9025,0,0,0.9025,57.85072,4.9897781)"><path id="path4271-6-6" d="m -44.983337,29.744003 c 2.568131,-2.34433 5.221415,-4.018641 8.120564,-3.758324 -4.63496,-6.267543 -3.28227,-11.605543 -0.117705,-17.9759095 -8.018639,5.1220295 -12.235009,12.5191165 -8.002859,21.7342335 z" style="display:inline;opacity:1;fill:#f55;fill-opacity:1;fill-rule:evenodd;stroke:none;stroke-width:.75;stroke-linecap:butt;stroke-linejoin:miter;stroke-miterlimit:4;stroke-dasharray:none;stroke-opacity:1"/><path id="path4271-6-6-9" d="m -12.442514,30.209692 c -2.568127,-2.34433 -5.221411,-4.018641 -8.12056,-3.758324 4.63496,-6.267543 3.28227,-11.605543 0.117705,-17.9759095 8.018641,5.1220295 12.2350045,12.5191165 8.002855,21.7342335 z" style="display:inline;opacity:1;fill:#f55;fill-opacity:1;fill-rule:evenodd;stroke:none;stroke-width:.75;stroke-linecap:butt;stroke-linejoin:miter;stroke-miterlimit:4;stroke-dasharray:none;stroke-opacity:1"/><path id="path4312-8" d="m -8.9391425,43.018532 c -0.311527,2.584931 -3.2900595,3.871298 -10.9696255,2.281083 -12.025616,-2.489841 -26.752609,-14.972033 -27.877459,-5.880969 -1.12815,-1.746298 -2.85962,-1.739645 -2.93604,0.249511 -0.0747,1.94452 1.58991,5.250538 1.60117,7.556017 1.02762,-1.711644 4.527231,-2.70331 5.58951,-4.030985 0.694402,-0.86802 0.02292,-3.54832 -2.80641,-2.956148 -0.39848,-8.206132 14.418361,4.288813 25.402589,6.762019 9.971232,2.245043 13.4564315,-0.618786 13.6679205,-3.887378 0.359854,-5.562149 -8.2139055,-9.366079 -8.3166415,-7.771428 -0.09935,1.541976 7.2638625,2.543069 6.6449865,7.678278 z" style="display:inline;opacity:1;fill:#f55;fill-opacity:1;fill-rule:evenodd;stroke:none;stroke-width:.75;stroke-linecap:butt;stroke-linejoin:miter;stroke-miterlimit:4;stroke-dasharray:none;stroke-opacity:1"/></g><path style="fill:#905227;fill-rule:evenodd;stroke:#000;stroke-width:.5;stroke-linecap:butt;stroke-linejoin:miter;stroke-miterlimit:4;stroke-dasharray:none;stroke-opacity:1;fill-opacity:1" id="path4170" d="m 21.181917,14.01191 c -0.03919,-0.137493 -1.036959,-2.925502 -1.036959,-2.925502 l 10.068128,-2.8700495 0.405961,3.2044875 z"/><path style="fill:url(#linearGradient4218);fill-opacity:1;fill-rule:evenodd;stroke:#000;stroke-width:.5;stroke-linecap:butt;stroke-linejoin:miter;stroke-miterlimit:4;stroke-dasharray:none;stroke-opacity:1" id="path4168" d="m 21.112002,19.188607 c -10.640734,3.719337 -7.974295,11.553897 -5.518711,15.098793 2.997197,4.326769 10.668259,8.533391 11.119503,10.416921 0.396659,1.224279 -0.06342,6.25639 -0.09513,9.384585 0.551955,0.291003 0.338824,0.800105 1.697331,0.861191 l 16.919491,-4.511272 c 0.720237,-0.224134 1.378748,-1.442472 1.195598,-1.706385 -1.731682,-2.642865 -3.592061,-3.896948 -5.195048,-7.928596 -0.888707,-2.235172 3.208342,-8.186381 4.185909,-12.442319 C 48.352031,15.600755 37.666908,14.23475 33.366858,15.513621 l -0.579213,-2.154609 c 0.58794,-0.239513 1.0589,-0.445681 1.470263,-0.634859 l -0.697329,-2.561289 c -5.383613,1.626525 -9.776656,2.738871 -15.2136,4.208692 l 0.700853,2.51073 c 0.387939,0.05731 0.90971,-0.03918 1.399131,-0.0985 z"/><path style="fill:#000;fill-rule:evenodd;stroke:none;stroke-width:1px;stroke-linecap:butt;stroke-linejoin:miter;stroke-opacity:1" id="path4172" d="m 21.656786,40.148452 c 0.08556,0.06649 0.17388,0.137178 0.262986,0.209958 1.477214,0.376866 3.764764,1.502682 5.913903,2.835408 1.148097,0.711959 2.255114,1.481653 3.177444,2.225524 0.921998,0.743602 1.660261,1.46201 2.071132,2.0726 -0.391519,-0.625511 -1.114451,-1.363546 -2.024674,-2.129005 -0.909952,-0.765231 -2.006473,-1.557413 -3.145763,-2.292624 -2.127148,-1.372699 -4.410962,-2.552745 -5.918031,-2.984829 -0.118387,0.01673 -0.231083,0.03765 -0.336997,0.06297 z"/><path style="fill:#000;fill-rule:evenodd;stroke:none;stroke-width:1px;stroke-linecap:butt;stroke-linejoin:miter;stroke-opacity:1" id="path4176" d="m 42.71713,35.124254 c -0.07319,0.01681 -0.147066,0.03456 -0.221692,0.05326 -0.844345,1.183739 -2.11779,2.937777 -3.136697,4.781267 -1.061288,1.920169 -1.843969,3.934507 -1.582333,5.494216 -0.210727,-1.55676 0.616095,-3.539342 1.712507,-5.420321 1.054338,-1.808797 2.360208,-3.526226 3.242619,-4.680811 -0.0041,-0.07683 -0.0088,-0.152744 -0.0144,-0.227608 z"/><path style="fill:#000;fill-rule:evenodd;stroke:none;stroke-width:1px;stroke-linecap:butt;stroke-linejoin:miter;stroke-opacity:1" id="path4180" d="m 21.1182,19.44798 c 1.805093,-0.726966 4.127211,0.120336 6.033533,1.071037 -1.777645,-1.039007 -4.166997,-2.115408 -6.175075,-1.463031 z"/><path style="fill:#000;fill-rule:evenodd;stroke:none;stroke-width:1px;stroke-linecap:butt;stroke-linejoin:miter;stroke-opacity:1" id="path4184" d="m 33.582429,15.469569 c -0.03912,-0.06296 -0.07864,-0.125714 -0.118544,-0.188275 -2.692772,1.051706 -3.484482,3.254378 -4.887295,4.822787 1.5976,-1.562303 2.39074,-3.53432 5.035281,-4.414291 -0.01032,-0.07328 -0.02014,-0.146687 -0.02944,-0.220221 z"/><path style="fill:#fff;fill-rule:evenodd;stroke:none;stroke-width:1px;stroke-linecap:butt;stroke-linejoin:miter;stroke-opacity:1" id="path4188" d="m 35.521796,16.397124 c 2.240163,-0.247032 4.008269,0.59458 5.353534,1.934889 0.256902,0.255956 0.50076,0.532332 0.731656,0.826337 1.249703,1.042639 2.342774,2.517598 3.219553,4.223881 -0.495182,-1.831113 -1.26474,-3.601738 -2.339695,-5.045144 C 42.177641,18.052481 41.856618,17.7907 41.524323,17.554728 39.741142,16.288441 37.710698,15.81593 35.521796,16.397124 Z"/><path style="fill:none;fill-rule:evenodd;stroke:#000;stroke-width:.38195232;stroke-linecap:butt;stroke-linejoin:miter;stroke-miterlimit:4;stroke-dasharray:none;stroke-opacity:1" id="path4192" d="m 20.455876,16.794923 c 1.705601,-0.239172 11.656313,-3.194135 12.305683,-3.41153"/><flowRoot id="flowRoot4156" xml:space="preserve" style="fill:#000;stroke:none;stroke-opacity:1;stroke-width:1px;stroke-linejoin:miter;stroke-linecap:butt;fill-opacity:1;font-family:sans-serif;font-style:normal;font-weight:400;font-size:40px;line-height:125%;letter-spacing:0;word-spacing:0"><flowRegion id="flowRegion4158"><rect id="rect4160" width="42.679" height="44.068" x="6.566" y="11.22"/></flowRegion><flowPara id="flowPara4162"/></flowRoot><flowRoot id="flowRoot4168" xml:space="preserve" style="fill:#000;stroke:none;stroke-opacity:1;stroke-width:1px;stroke-linejoin:miter;stroke-linecap:butt;fill-opacity:1;font-family:sans-serif;font-style:normal;font-weight:400;font-size:40px;line-height:125%;letter-spacing:0;word-spacing:0"><flowRegion id="flowRegion4170"><rect id="rect4172" width="63.766" height="63.64" x=".253" y="-.271"/></flowRegion><flowPara id="flowPara4174"/></flowRoot><path style="display:inline;fill:#f9f9f9;fill-opacity:1;fill-rule:evenodd;stroke:none;stroke-width:1px;stroke-linecap:butt;stroke-linejoin:miter;stroke-opacity:1" id="path4281" d="M 33.310526,8.4466623 C 42.853897,9.7059588 51.837481,12.667445 56.143804,29.852737 42.960254,11.013531 41.261755,14.341438 33.310526,8.4466623 Z"/><path style="display:inline;fill:#000;fill-opacity:.44859811;fill-rule:evenodd;stroke:none;stroke-width:1px;stroke-linecap:butt;stroke-linejoin:miter;stroke-opacity:1" id="path4283" d="M 43.352343,55.124348 C 18.554601,65.583105 -2.4191261,42.115746 7.6398162,20.86384 7.8289942,39.063247 21.867849,56.944615 43.352343,55.124348 Z"/></g></svg>