<svg xmlns="http://www.w3.org/2000/svg" xmlns:svg="http://www.w3.org/2000/svg" id="svg4311" width="100%" height="100%" version="1.1" viewBox="0 0 64 64"><metadata id="metadata4316"/><g id="layer5" style="display:inline;opacity:1"><flowRoot id="flowRoot4156" xml:space="preserve" style="fill:#000;stroke:none;stroke-opacity:1;stroke-width:1px;stroke-linejoin:miter;stroke-linecap:butt;fill-opacity:1;font-family:sans-serif;font-style:normal;font-weight:400;font-size:40px;line-height:125%;letter-spacing:0;word-spacing:0"><flowRegion id="flowRegion4158"><rect id="rect4160" width="42.679" height="44.068" x="6.566" y="11.22"/></flowRegion><flowPara id="flowPara4162"/></flowRoot><flowRoot id="flowRoot4168" xml:space="preserve" style="fill:#000;stroke:none;stroke-opacity:1;stroke-width:1px;stroke-linejoin:miter;stroke-linecap:butt;fill-opacity:1;font-family:sans-serif;font-style:normal;font-weight:400;font-size:40px;line-height:125%;letter-spacing:0;word-spacing:0"><flowRegion id="flowRegion4170"><rect id="rect4172" width="63.766" height="63.64" x=".253" y="-.271"/></flowRegion><flowPara id="flowPara4174"/></flowRoot><path style="fill:none;fill-opacity:1;fill-rule:evenodd;stroke:#ff2a2a;stroke-width:1px;stroke-linecap:butt;stroke-linejoin:miter;stroke-opacity:1" id="path4165" d="m 11.696428,12.392858 c 0.456618,0.05372 0.152866,0.642015 -0.08929,0.758928 -0.656216,0.316829 -1.310581,-0.327481 -1.428571,-0.937501 -0.2110552,-1.091182 0.757748,-2.003377 1.785716,-2.098213 1.508584,-0.1391756 2.709068,1.191091 2.767855,2.63393 0.07836,1.923078 -1.625164,3.419795 -3.482144,3.437498 -2.3368204,0.02228 -4.1330331,-2.059497 -4.1071408,-4.330359 0.031359,-2.7503178 2.4939594,-4.8477085 5.1785738,-4.7767831 3.163725,0.083583 5.563284,2.9284991 5.446425,6.0267881 -0.134917,3.577098 -3.363089,6.27946 -6.875003,6.116068 C 6.9023942,19.037559 3.896798,15.425496 4.1071431,11.499997 4.3431184,7.096179 8.3395168,3.787039 12.678575,4.0446438 c 4.817178,0.2859901 8.43009,4.6670512 8.124996,9.4196472" transform="matrix(0.7882042,0,0,0.79632347,0.94236774,-0.62223096)"/><path style="display:inline;opacity:1;fill:none;fill-opacity:1;fill-rule:evenodd;stroke:#ff2a2a;stroke-width:1px;stroke-linecap:butt;stroke-linejoin:miter;stroke-opacity:1" id="path4165-0" d="m 11.696428,12.392858 c 0.456618,0.05372 0.152866,0.642015 -0.08929,0.758928 -0.656216,0.316829 -1.310581,-0.327481 -1.428571,-0.937501 -0.2110552,-1.091182 0.757748,-2.003377 1.785716,-2.098213 1.508584,-0.1391756 2.709068,1.191091 2.767855,2.63393 0.07836,1.923078 -1.625164,3.419795 -3.482144,3.437498 -2.3368204,0.02228 -4.1330331,-2.059497 -4.1071408,-4.330359 0.031359,-2.7503178 2.4939594,-4.8477085 5.1785738,-4.7767831 3.163725,0.083583 5.563284,2.9284991 5.446425,6.0267881 -0.134917,3.577098 -3.363089,6.27946 -6.875003,6.116068 C 6.9023942,19.037559 3.896798,15.425496 4.1071431,11.499997 4.3431184,7.096179 8.3395168,3.787039 12.678575,4.0446438 c 4.817178,0.2859901 8.43009,4.6670512 8.124996,9.4196472" transform="matrix(-0.17345408,-0.598402,0.61477124,-0.17233186,4.3694463,66.072387)"/><path style="display:inline;opacity:1;fill:none;fill-opacity:1;fill-rule:evenodd;stroke:#ff2a2a;stroke-width:1px;stroke-linecap:butt;stroke-linejoin:miter;stroke-opacity:1" id="path4165-0-6" d="m 11.696428,12.392858 c 0.456618,0.05372 0.152866,0.642015 -0.08929,0.758928 -0.656216,0.316829 -1.310581,-0.327481 -1.428571,-0.937501 -0.2110552,-1.091182 0.757748,-2.003377 1.785716,-2.098213 1.508584,-0.1391756 2.709068,1.191091 2.767855,2.63393 0.07836,1.923078 -1.625164,3.419795 -3.482144,3.437498 -2.3368204,0.02228 -4.1330331,-2.059497 -4.1071408,-4.330359 0.031359,-2.7503178 2.4939594,-4.8477085 5.1785738,-4.7767831 3.163725,0.083583 5.563284,2.9284991 5.446425,6.0267881 -0.134917,3.577098 -3.363089,6.27946 -6.875003,6.116068 C 6.9023942,19.037559 3.896798,15.425496 4.1071431,11.499997 4.3431184,7.096179 8.3395168,3.787039 12.678575,4.0446438 c 4.817178,0.2859901 8.43009,4.6670512 8.124996,9.4196472" transform="matrix(-0.17345408,-0.598402,0.61477124,-0.17233186,51.771945,54.522297)"/><path style="display:inline;opacity:1;fill:none;fill-opacity:1;fill-rule:evenodd;stroke:#ff2a2a;stroke-width:1px;stroke-linecap:butt;stroke-linejoin:miter;stroke-opacity:1" id="path4165-0-8" d="m 11.696428,12.392858 c 0.456618,0.05372 0.152866,0.642015 -0.08929,0.758928 -0.656216,0.316829 -1.310581,-0.327481 -1.428571,-0.937501 -0.2110552,-1.091182 0.757748,-2.003377 1.785716,-2.098213 1.508584,-0.1391756 2.709068,1.191091 2.767855,2.63393 0.07836,1.923078 -1.625164,3.419795 -3.482144,3.437498 -2.3368204,0.02228 -4.1330331,-2.059497 -4.1071408,-4.330359 0.031359,-2.7503178 2.4939594,-4.8477085 5.1785738,-4.7767831 3.163725,0.083583 5.563284,2.9284991 5.446425,6.0267881 -0.134917,3.577098 -3.363089,6.27946 -6.875003,6.116068 C 6.9023942,19.037559 3.896798,15.425496 4.1071431,11.499997 4.3431184,7.096179 8.3395168,3.787039 12.678575,4.0446438 c 4.817178,0.2859901 8.43009,4.6670512 8.124996,9.4196472" transform="matrix(0.39335725,-0.13908083,0.15617859,0.38004657,50.721136,54.774804)"/><path style="display:inline;opacity:1;fill:none;fill-opacity:1;fill-rule:evenodd;stroke:#ff2a2a;stroke-width:1px;stroke-linecap:butt;stroke-linejoin:miter;stroke-opacity:1" id="path4165-0-2" d="m 11.696428,12.392858 c 0.456618,0.05372 0.152866,0.642015 -0.08929,0.758928 -0.656216,0.316829 -1.310581,-0.327481 -1.428571,-0.937501 -0.2110552,-1.091182 0.757748,-2.003377 1.785716,-2.098213 1.508584,-0.1391756 2.709068,1.191091 2.767855,2.63393 0.07836,1.923078 -1.625164,3.419795 -3.482144,3.437498 -2.3368204,0.02228 -4.1330331,-2.059497 -4.1071408,-4.330359 0.031359,-2.7503178 2.4939594,-4.8477085 5.1785738,-4.7767831 3.163725,0.083583 5.563284,2.9284991 5.446425,6.0267881 -0.134917,3.577098 -3.363089,6.27946 -6.875003,6.116068 C 6.9023942,19.037559 3.896798,15.425496 4.1071431,11.499997 4.3431184,7.096179 8.3395168,3.787039 12.678575,4.0446438 c 4.817178,0.2859901 8.43009,4.6670512 8.124996,9.4196472" transform="matrix(-0.08652581,-0.30404972,0.30667241,-0.0875623,57.052608,10.856308)"/><path style="display:inline;opacity:1;fill:none;fill-opacity:1;fill-rule:evenodd;stroke:#ff2a2a;stroke-width:1px;stroke-linecap:butt;stroke-linejoin:miter;stroke-opacity:1" id="path4165-0-7" d="m 11.696428,12.392858 c 0.456618,0.05372 0.152866,0.642015 -0.08929,0.758928 -0.656216,0.316829 -1.310581,-0.327481 -1.428571,-0.937501 -0.2110552,-1.091182 0.757748,-2.003377 1.785716,-2.098213 1.508584,-0.1391756 2.709068,1.191091 2.767855,2.63393 0.07836,1.923078 -1.625164,3.419795 -3.482144,3.437498 -2.3368204,0.02228 -4.1330331,-2.059497 -4.1071408,-4.330359 0.031359,-2.7503178 2.4939594,-4.8477085 5.1785738,-4.7767831 3.163725,0.083583 5.563284,2.9284991 5.446425,6.0267881 -0.134917,3.577098 -3.363089,6.27946 -6.875003,6.116068 C 6.9023942,19.037559 3.896798,15.425496 4.1071431,11.499997 4.3431184,7.096179 8.3395168,3.787039 12.678575,4.0446438 c 4.817178,0.2859901 8.43009,4.6670512 8.124996,9.4196472" transform="matrix(-0.17345408,-0.598402,0.61477124,-0.17233186,46.162187,18.360572)"/></g></svg>