<svg xmlns="http://www.w3.org/2000/svg" xmlns:svg="http://www.w3.org/2000/svg" id="svg4311" width="100%" height="100%" version="1.1" viewBox="0 0 64 64"><metadata id="metadata4316"/><g id="layer5" style="display:inline;opacity:1"><flowRoot id="flowRoot4156" xml:space="preserve" style="fill:#000;stroke:none;stroke-opacity:1;stroke-width:1px;stroke-linejoin:miter;stroke-linecap:butt;fill-opacity:1;font-family:sans-serif;font-style:normal;font-weight:400;font-size:40px;line-height:125%;letter-spacing:0;word-spacing:0"><flowRegion id="flowRegion4158"><rect id="rect4160" width="42.679" height="44.068" x="6.566" y="11.22"/></flowRegion><flowPara id="flowPara4162"/></flowRoot><flowRoot id="flowRoot4168" xml:space="preserve" style="fill:#000;stroke:none;stroke-opacity:1;stroke-width:1px;stroke-linejoin:miter;stroke-linecap:butt;fill-opacity:1;font-family:sans-serif;font-style:normal;font-weight:400;font-size:40px;line-height:125%;letter-spacing:0;word-spacing:0"><flowRegion id="flowRegion4170"><rect id="rect4172" width="63.766" height="63.64" x=".253" y="-.271"/></flowRegion><flowPara id="flowPara4174"/></flowRoot><path id="path4156" d="m 25.777773,47.224817 c 0.15594,0.980644 0.311881,1.88585 0.545824,3.998005 3.508917,0.603471 7.095801,0.452603 10.682685,-0.07544 0.155939,-1.282378 0.311917,-2.489323 0.467858,-3.847135 z" style="fill:#f55;fill-opacity:1;fill-rule:evenodd;stroke:#000;stroke-width:.3067764px;stroke-linecap:butt;stroke-linejoin:miter;stroke-miterlimit:4;stroke-dasharray:none;stroke-opacity:1"/><path id="path4158" d="m 37.47414,47.451119 c 1.559525,-11.314998 3.508935,-26.02453 -3.119058,-27.382313 l -5.848156,0.07544 c -6.939846,1.357784 -4.36665,15.086672 -2.729153,27.15601 2.105345,0.980645 7.641625,1.357814 11.696367,0.150858 z" style="fill:#ff8080;fill-opacity:1;fill-rule:evenodd;stroke:#000;stroke-width:.3067764px;stroke-linecap:butt;stroke-linejoin:miter;stroke-miterlimit:4;stroke-dasharray:none;stroke-opacity:1"/><path id="path4160" d="m 28.506926,20.219676 -0.07799,-3.469935 5.770181,-0.150856 0,3.545366 z" style="fill:#f55;fill-opacity:1;fill-rule:evenodd;stroke:#000;stroke-width:.3067764px;stroke-linecap:butt;stroke-linejoin:miter;stroke-miterlimit:4;stroke-dasharray:none;stroke-opacity:1"/><path id="path4162" d="m 28.42895,16.749741 c -2.573199,-0.07544 -3.82082,-5.204913 0.857731,-5.732946 1.325587,-0.150856 2.651177,-0.150856 4.054741,0 4.132718,0.528033 3.742835,5.582076 0.857709,5.657511 -1.94937,0.07544 -3.820793,0.150856 -5.770181,0.07544 z" style="fill:#ff8080;fill-opacity:1;fill-rule:evenodd;stroke:#000;stroke-width:.3067764px;stroke-linecap:butt;stroke-linejoin:miter;stroke-miterlimit:4;stroke-dasharray:none;stroke-opacity:1"/><path id="path4164" d="m 34.121186,20.89855 c 0.623782,0.301747 1.247591,1.13151 1.715449,1.961285 0.233929,0.226302 0.38988,0.37717 0.545836,0.603472 0.85774,1.056075 1.48155,2.263021 1.48155,2.941926 0.233929,-0.678905 -0.155942,-1.961282 -0.857739,-3.168228 -0.078,-0.301749 -0.233929,-0.528039 -0.389882,-0.754341 -0.857742,-0.829773 -1.71548,-1.433245 -2.495214,-1.584114 z" style="fill:#fff;fill-opacity:1;fill-rule:evenodd;stroke:none"/><path id="path4166" d="m 33.653327,11.544828 c 0.311918,0.226302 0.701755,0.678903 1.013663,1.206941 0.155939,0.150856 0.23393,0.226302 0.38988,0.377158 0.467859,0.678907 0.857743,1.357802 0.857743,1.810405 0.15594,-0.452603 -0.078,-1.206934 -0.467858,-1.961272 -0.078,-0.150855 -0.155942,-0.301712 -0.311919,-0.452593 -0.467858,-0.52804 -1.01366,-0.905205 -1.481518,-0.980639 z" style="fill:#fff;fill-opacity:1;fill-rule:evenodd;stroke:none"/></g></svg>