<svg xmlns="http://www.w3.org/2000/svg" xmlns:svg="http://www.w3.org/2000/svg" id="svg4311" width="100%" height="100%" version="1.1" viewBox="0 0 64 64"><metadata id="metadata4316"/><g id="layer5" style="display:inline;opacity:1"><flowRoot id="flowRoot4156" xml:space="preserve" style="fill:#000;stroke:none;stroke-opacity:1;stroke-width:1px;stroke-linejoin:miter;stroke-linecap:butt;fill-opacity:1;font-family:sans-serif;font-style:normal;font-weight:400;font-size:40px;line-height:125%;letter-spacing:0;word-spacing:0"><flowRegion id="flowRegion4158"><rect id="rect4160" width="42.679" height="44.068" x="6.566" y="11.22"/></flowRegion><flowPara id="flowPara4162"/></flowRoot><flowRoot id="flowRoot4168" xml:space="preserve" style="fill:#000;stroke:none;stroke-opacity:1;stroke-width:1px;stroke-linejoin:miter;stroke-linecap:butt;fill-opacity:1;font-family:sans-serif;font-style:normal;font-weight:400;font-size:40px;line-height:125%;letter-spacing:0;word-spacing:0"><flowRegion id="flowRegion4170"><rect id="rect4172" width="63.766" height="63.64" x=".253" y="-.271"/></flowRegion><flowPara id="flowPara4174"/></flowRoot><g style="display:inline;opacity:1" id="g4369" transform="matrix(1.2694106,0,0,1.1824633,87.335127,22.741756)"><path id="path4341" d="m -46.897321,23.620537 c 2.100315,0.281602 4.082268,0.208115 6.004464,-0.04464 3.906902,-4.297924 2.565559,-10.273118 0.06696,-15.9151785 l -6.09375,-0.044643 c -2.829812,5.6832555 -3.459614,13.0120605 0.02233,16.0044615 z" style="fill:#ff8080;fill-rule:evenodd;stroke:#000;stroke-width:.2;stroke-linecap:butt;stroke-linejoin:miter;stroke-miterlimit:4;stroke-dasharray:none;stroke-opacity:1"/><ellipse id="path4345" cx="-43.951" cy="-6.078" rx="2.782" ry="2.402" style="fill:#ffd5d5;fill-opacity:1;stroke:#000;stroke-width:.1944446;stroke-linecap:round;stroke-miterlimit:4;stroke-dasharray:none;stroke-dashoffset:0"/><path id="path4343" d="M -47.158873,8.1195626 C -46.471022,6.420505 -43.201761,-3.132808 -46.5625,-4.8616058 l 5.178572,-0.022321 c -3.57445,1.8639461 0.320441,11.7378717 0.758928,13.0580357 z" style="fill:#f55;fill-rule:evenodd;stroke:#000;stroke-width:.2;stroke-linecap:butt;stroke-linejoin:miter;stroke-miterlimit:4;stroke-dasharray:none;stroke-opacity:1"/><path id="path4347" d="m -40.714285,9.8705373 c 0.68855,1.0334097 1.253698,2.4770077 1.637051,3.9769917 0.02083,0.157968 0.03966,0.316082 0.05643,0.47396 0.179594,1.690545 0.123898,3.357538 -0.22027,4.522263 0.161499,-1.190174 0.02786,-2.824729 -0.325012,-4.434254 -0.03301,-0.15058 -0.06795,-0.300975 -0.10476,-0.450801 -0.175968,-1.485465 -0.535901,-2.96638 -1.043441,-4.0881597 z" style="fill:#fff;fill-rule:evenodd;stroke:none;stroke-width:1px;stroke-linecap:butt;stroke-linejoin:miter;stroke-opacity:1"/><path id="path4347-2" d="m -42.928007,-7.9642847 c 0.500637,0.2630231 0.919436,0.6515241 1.200842,1.079191 0.02002,0.048869 0.03835,0.097702 0.05495,0.146377 0.179358,0.5260393 0.152575,1.022747 -0.09427,1.3413968 0.153188,-0.3545583 0.06224,-0.8032377 -0.176855,-1.2207912 -0.02266,-0.039565 -0.04672,-0.078988 -0.07214,-0.1181693 -0.159258,-0.4267628 -0.47045,-0.8741095 -0.912522,-1.2280043 z" style="display:inline;opacity:1;fill:#fff;fill-rule:evenodd;stroke:none;stroke-width:1px;stroke-linecap:butt;stroke-linejoin:miter;stroke-opacity:1"/></g></g></svg>