<svg xmlns="http://www.w3.org/2000/svg" xmlns:svg="http://www.w3.org/2000/svg" xmlns:xlink="http://www.w3.org/1999/xlink" id="svg4311" width="100%" height="100%" version="1.1" viewBox="0 0 64 64"><defs id="defs4313"><linearGradient id="innoGrad1"><stop style="stop-color:#ff8080;stop-opacity:1" id="stop4259" offset="0"/><stop style="stop-color:#ff2a2a;stop-opacity:1" id="stop4261" offset="1"/></linearGradient><linearGradient id="scroll5"><stop style="stop-color:#a37e4d;stop-opacity:1" id="stop4249" offset="0"/><stop style="stop-color:#c1a47e;stop-opacity:1" id="stop4251" offset="1"/></linearGradient><linearGradient id="scroll4"><stop style="stop-color:#b08a58;stop-opacity:1" id="stop4241" offset="0"/><stop style="stop-color:#c2a57e;stop-opacity:1" id="stop4243" offset="1"/></linearGradient><linearGradient id="scroll2"><stop id="stop4233" offset="0" style="stop-color:#765b38;stop-opacity:1"/><stop id="stop4237" offset="1" style="stop-color:#9e7a4b;stop-opacity:1"/></linearGradient><linearGradient id="scroll3"><stop id="stop4223" offset="0" style="stop-color:#17110b;stop-opacity:1"/><stop id="stop4227" offset="1" style="stop-color:#7c603b;stop-opacity:1"/></linearGradient><linearGradient id="scroll1"><stop style="stop-color:#ad8552;stop-opacity:1" id="stop4211" offset="0"/><stop id="stop4217" offset=".313" style="stop-color:#e0cfb1;stop-opacity:1"/><stop style="stop-color:#ad8552;stop-opacity:1" id="stop4213" offset="1"/></linearGradient><linearGradient id="linearGradient4215" x1="101.583" x2="108.276" y1="40.388" y2="52.825" gradientTransform="translate(-73.462314,-15.942718)" gradientUnits="userSpaceOnUse" xlink:href="#scroll1"/><linearGradient id="linearGradient4219" x1="89.588" x2="82.264" y1="54.088" y2="56.171" gradientTransform="translate(-73.462314,-15.942718)" gradientUnits="userSpaceOnUse" xlink:href="#scroll3"/><linearGradient id="linearGradient4229" x1="91.798" x2="87.441" y1="60.843" y2="62.8" gradientTransform="translate(-73.462314,-15.942718)" gradientUnits="userSpaceOnUse" xlink:href="#scroll2"/><linearGradient id="linearGradient4245" x1="90.061" x2="88.925" y1="53.772" y2="54.34" gradientTransform="translate(-73.462314,-15.942718)" gradientUnits="userSpaceOnUse" xlink:href="#scroll4"/><linearGradient id="linearGradient4253" x1="89.398" x2="86.273" y1="58.444" y2="59.233" gradientTransform="translate(-73.462314,-15.942718)" gradientUnits="userSpaceOnUse" xlink:href="#scroll5"/><linearGradient id="linearGradient4263" x1="34.286" x2="35.58" y1="28.554" y2="37.17" gradientUnits="userSpaceOnUse" xlink:href="#innoGrad1"/></defs><metadata id="metadata4316"/><g id="layer5" style="display:inline;opacity:1"><path style="fill:url(#linearGradient4219);fill-opacity:1;fill-rule:evenodd;stroke:#000;stroke-width:.5;stroke-linecap:butt;stroke-linejoin:miter;stroke-miterlimit:4;stroke-dasharray:none;stroke-opacity:1" id="path4199" d="m 7.6537568,33.101926 c -3.273371,0.520585 -0.291204,20.07324 9.7321482,16.696428 4.07759,-1.37372 3.89128,-14.728669 -3.18492,-17.296225 -1.19418,-0.433304 -5.1218282,0.373107 -6.5472282,0.599797 z"/><path style="fill:url(#linearGradient4229);fill-opacity:1;fill-rule:evenodd;stroke:#000;stroke-width:.5;stroke-linecap:butt;stroke-linejoin:miter;stroke-miterlimit:4;stroke-dasharray:none;stroke-opacity:1" id="path4205" d="M 9.8121358,35.398809 C 26.303405,28.321215 32.841645,39.604369 17.135745,49.667214 13.722305,51.544318 5.1510468,41.947776 9.8121358,35.398809 Z"/><path style="fill:url(#linearGradient4253);fill-opacity:1;fill-rule:evenodd;stroke:#000;stroke-width:.5;stroke-linecap:butt;stroke-linejoin:miter;stroke-miterlimit:4;stroke-dasharray:none;stroke-opacity:1" id="path4203" d="m 10.664452,40.765244 c 0.761553,2.743629 2.762293,5.177677 5.137573,4.38785 l 5.05865,-3.188294 -2.24127,-3.093592 c -1.91439,0.730158 -5.39181,2.542487 -7.954953,1.894036 z"/><path style="fill:url(#linearGradient4245);fill-opacity:1;fill-rule:evenodd;stroke:#000;stroke-width:.5;stroke-linecap:butt;stroke-linejoin:miter;stroke-miterlimit:4;stroke-dasharray:none;stroke-opacity:1" id="path4201" d="m 14.705065,33.725744 -4.9244962,1.862469 c 5.9321162,0.342377 7.2013562,8.944904 5.9977762,9.564881 l 5.24017,-2.65165 c -1.17432,-3.454388 -0.0386,-8.224694 -6.31345,-8.7757 z"/><path style="fill:url(#linearGradient4215);fill-opacity:1;fill-rule:evenodd;stroke:#000;stroke-width:.5;stroke-linecap:butt;stroke-linejoin:miter;stroke-miterlimit:4;stroke-dasharray:none;stroke-opacity:1" id="path4207" d="M 7.5392928,33.125965 C 23.182865,29.029471 37.462905,23.506317 47.661285,13.964635 c 1.32932,-0.353445 2.68582,-0.138872 3.96812,0.466074 0.24045,0.113435 -0.71573,1.295491 -0.71573,1.295491 0,0 1.78739,-0.692873 1.96358,-0.571117 1.54888,1.070329 2.92449,2.673221 3.92031,4.446858 0.22797,0.406038 -0.24881,1.620084 -0.24881,1.620084 0,0 1.22608,0.481351 1.36628,0.914343 0.61335,1.894172 0.7307,3.791915 0.13188,5.30749 -15.56198,3.936202 -27.88295,12.976981 -40.15356,22.097087 0.9512,-0.981093 1.28518,-2.834006 1.06095,-4.954627 -0.0548,-0.518068 1.47764,-2.218328 1.47764,-2.218328 0,0 -1.94679,-0.215802 -2.07832,-0.638561 -0.32272,-1.037238 -0.75974,-2.075777 -1.30518,-3.055573 -0.15821,-0.284191 0.61423,-1.617529 0.61423,-1.617529 0,0 -1.60263,0.06445 -1.86955,-0.273353 -1.00248,-1.26869 -2.22571,-2.327314 -3.65168,-2.991399 -0.35939,-0.167369 0.5576,-1.160579 0.5576,-1.160579 0,0 -2.346449,0.560491 -2.696448,0.505499 -0.7766842,-0.122035 -1.5984572,-0.13242 -2.4633042,-0.01053 z"/><flowRoot id="flowRoot4156" xml:space="preserve" style="fill:#000;stroke:none;stroke-opacity:1;stroke-width:1px;stroke-linejoin:miter;stroke-linecap:butt;fill-opacity:1;font-family:sans-serif;font-style:normal;font-weight:400;font-size:40px;line-height:125%;letter-spacing:0;word-spacing:0"><flowRegion id="flowRegion4158"><rect id="rect4160" width="42.679" height="44.068" x="6.566" y="11.22"/></flowRegion><flowPara id="flowPara4162"/></flowRoot><flowRoot id="flowRoot4168" xml:space="preserve" style="fill:#000;stroke:none;stroke-opacity:1;stroke-width:1px;stroke-linejoin:miter;stroke-linecap:butt;fill-opacity:1;font-family:sans-serif;font-style:normal;font-weight:400;font-size:40px;line-height:125%;letter-spacing:0;word-spacing:0"><flowRegion id="flowRegion4170"><rect id="rect4172" width="63.766" height="63.64" x=".253" y="-.271"/></flowRegion><flowPara id="flowPara4174"/></flowRoot><path style="fill:url(#linearGradient4263);fill-rule:evenodd;stroke:#000;stroke-width:.5;stroke-linecap:butt;stroke-linejoin:miter;stroke-miterlimit:4;stroke-dasharray:none;stroke-opacity:1;fill-opacity:1" id="path4255" d="m 26.760895,26.807283 c 4.90592,-0.636244 7.37008,9.321832 6.78572,11.741071 -0.27915,1.155672 4.59246,-1.428661 4.55357,-2.633928 -0.0459,-1.424015 -0.0647,-10.410999 -6.07143,-11.517857 -1.56539,-0.288453 -7.09539,2.647725 -5.26786,2.410714 z"/></g></svg>