<svg xmlns="http://www.w3.org/2000/svg" xmlns:osb="http://www.openswatchbook.org/uri/2009/osb" xmlns:svg="http://www.w3.org/2000/svg" xmlns:xlink="http://www.w3.org/1999/xlink" id="svg2" version="1.1" viewBox="0 0 256 256"><defs id="defs4"><linearGradient id="linearGradient5760" osb:paint="solid"><stop style="stop-color:#efe7c1;stop-opacity:1" id="stop5762" offset="0"/></linearGradient></defs><metadata id="metadata7"/><g id="layer2" style="opacity:1"><g id="g4171"><path style="fill:#d8d9e1;fill-opacity:1;fill-rule:evenodd;stroke:#000;stroke-width:.85737503px;stroke-linecap:butt;stroke-linejoin:miter;stroke-opacity:1" id="path4183" d="M 26.988138,204.6673 250.7915,127.5818 210.28668,76.366958 9.2735931,140.80281 Z"/><path style="fill:#b3b3b3;fill-opacity:1;fill-rule:evenodd;stroke:#000;stroke-width:.85737503px;stroke-linecap:butt;stroke-linejoin:miter;stroke-opacity:1" id="path4185" d="m 30.347483,140.80956 c -22.0152485,7.32872 1.872691,50.71846 22.734588,43.73701 L 217.42067,129.55052 c 25.00992,-8.3696 -1.07371,-50.658891 -23.16763,-43.30398 z"/><path style="opacity:1;fill:#ffd5d5;fill-opacity:1;fill-rule:evenodd;stroke:#000;stroke-width:.72046357px;stroke-linecap:butt;stroke-linejoin:miter;stroke-opacity:1" id="path4162-0" d="m 172.01019,78.729893 -55.29742,17.55525 18.30127,55.739587 54.88741,-18.23412 c 33.77012,-11.21876 17.17836,-66.194263 -17.89126,-55.060717 z"/><path style="fill:#f55;fill-opacity:1;fill-rule:evenodd;stroke:#000;stroke-width:.73509192px;stroke-linecap:butt;stroke-linejoin:miter;stroke-opacity:1" id="path4162" d="M 80.164899,170.07074 136.58507,152.15905 117.91221,95.287724 61.910369,113.89207 c -34.455782,11.44654 -17.527154,67.53827 18.25453,56.17867 z"/><path style="fill:#fff;fill-rule:evenodd;stroke:none;stroke-width:1px;stroke-linecap:butt;stroke-linejoin:miter;stroke-opacity:1;fill-opacity:.78037381" id="path4211" d="m 169.23123,83.913163 c 5.97298,-2.239852 12.87113,-1.700892 18.80494,0.689162 4.92873,1.293912 9.60566,3.878829 12.99039,7.543071 -2.8414,-4.13434 -7.23533,-7.483828 -12.29815,-9.579117 -6.63235,-1.869123 -13.77094,-1.568814 -19.49718,1.346884 z"/><path style="fill:#d7e3f4;fill-opacity:.29439254;fill-rule:evenodd;stroke:#000;stroke-width:.85737503px;stroke-linecap:butt;stroke-linejoin:miter;stroke-opacity:1" id="path4187" d="m 21.771559,155.46021 -1.122,-11.82941 c -0.91141,-9.60912 3.56296,-26.30945 25.4646,-32.84206 L 180.54608,70.691739 c 33.46194,-9.980691 42.75024,11.804761 44.8474,26.661798 l 2.18567,15.483953 c 1.30041,9.21254 -3.75475,14.33535 -9.28676,16.19055 L 51.680209,184.9026 c -10.59808,3.55415 -28.31454,-12.63554 -29.90865,-29.44239 z"/><path style="fill:#fff;fill-rule:evenodd;stroke:none;stroke-width:1px;stroke-linecap:butt;stroke-linejoin:miter;stroke-opacity:1" id="path4203" d="m 184.01785,72.339286 c 6.20931,0.30914 13.23918,1.045897 19.57288,4.225803 0.45574,0.228813 0.90623,0.469541 1.35106,0.722787 6.16127,1.866523 12.55874,6.181614 17.46892,15.319267 -3.47179,-9.729376 -8.96178,-15.812738 -15.59515,-19.584143 -0.56403,-0.189998 -1.12776,-0.362401 -1.69035,-0.518426 -7.59715,-2.106965 -15.22654,-1.284918 -21.10736,-0.165288 z"/></g></g></svg>