<svg xmlns="http://www.w3.org/2000/svg" xmlns:svg="http://www.w3.org/2000/svg" xmlns:xlink="http://www.w3.org/1999/xlink" id="svg4311" width="100%" height="100%" version="1.1" viewBox="0 0 64 64"><defs id="defs4313"><linearGradient id="cavernBridgeGradient"><stop style="stop-color:#f55;stop-opacity:1" id="stop4184" offset="0"/><stop style="stop-color:#ff8080;stop-opacity:1" id="stop4186" offset="1"/></linearGradient><linearGradient id="linearGradient15" x1="29.5" x2="44.125" y1="1025.487" y2="1003.362" gradientTransform="matrix(1.2884366,0,0,1.290513,-9.2250812,-296.31254)" gradientUnits="userSpaceOnUse" xlink:href="#cavernBridgeGradient"/></defs><metadata id="metadata4316"/><g id="layer1" transform="translate(0,-988.36216)" style="display:inline"><ellipse id="ellipse4146" cx="32" cy="1020.368" rx="30.383" ry="30.381" style="display:inline;fill:url(#linearGradient15);fill-opacity:1;fill-rule:evenodd;stroke:none;stroke-width:5.4000001;stroke-linecap:butt;stroke-linejoin:miter;stroke-miterlimit:4;stroke-dasharray:none;stroke-opacity:1"/><g id="g4205" transform="matrix(1.21,0,0,1.21,-7.1524283,-216.79966)"><path id="path4141-9" d="m 53.121689,1030.386 -6.014908,0.017 c -10.953505,-5.9066 -17.487683,-5.9745 -29.099635,0.026 l -6.582032,0.059 c 16.765804,-9.248 25.473929,-9.8566 41.696575,-0.1024 z" style="display:inline;fill:#fff;fill-rule:evenodd;stroke:#fff;stroke-width:.89999998px;stroke-linecap:butt;stroke-linejoin:round;stroke-opacity:1"/><path id="path4144" d="m 13.435029,1029.558 c 0,-0.1767 0.132582,-9.3691 0.132582,-9.3691" style="fill:none;fill-rule:evenodd;stroke:#fff;stroke-width:2;stroke-linecap:round;stroke-linejoin:miter;stroke-miterlimit:4;stroke-dasharray:none;stroke-opacity:1"/><path id="path4144-8" d="m 32.593102,1023.3707 c 0,-0.1767 0.132582,-9.3691 0.132582,-9.3691" style="display:inline;fill:none;fill-rule:evenodd;stroke:#fff;stroke-width:2;stroke-linecap:round;stroke-linejoin:miter;stroke-miterlimit:4;stroke-dasharray:none;stroke-opacity:1"/><path id="path4144-7" d="m 51.198849,1029.4253 c 0,-0.1767 0.132582,-9.3691 0.132582,-9.3691" style="display:inline;fill:none;fill-rule:evenodd;stroke:#fff;stroke-width:2;stroke-linecap:round;stroke-linejoin:miter;stroke-miterlimit:4;stroke-dasharray:none;stroke-opacity:1"/><path id="path4144-9" d="m 42.271625,1025.3594 c 0,-0.1767 0.132582,-9.3691 0.132582,-9.3691" style="display:inline;fill:none;fill-rule:evenodd;stroke:#fff;stroke-width:2;stroke-linecap:round;stroke-linejoin:miter;stroke-miterlimit:4;stroke-dasharray:none;stroke-opacity:1"/><path id="path4144-83" d="m 22.163276,1025.5362 c 0,-0.1767 0.132582,-9.3691 0.132582,-9.3691" style="display:inline;fill:none;fill-rule:evenodd;stroke:#fff;stroke-width:2;stroke-linecap:round;stroke-linejoin:miter;stroke-miterlimit:4;stroke-dasharray:none;stroke-opacity:1"/><path id="path4188" d="m 13.744388,1021.4704 c 12.418938,-7.5637 27.458159,-6.812 37.432465,0.5304" style="fill:none;fill-rule:evenodd;stroke:#fff;stroke-width:1px;stroke-linecap:butt;stroke-linejoin:miter;stroke-opacity:1"/><path id="path4188-8" d="m 13.571543,1025.381 c 12.418938,-7.5637 27.458159,-6.812 37.432465,0.5304" style="display:inline;fill:none;fill-rule:evenodd;stroke:#fff;stroke-width:1px;stroke-linecap:butt;stroke-linejoin:miter;stroke-opacity:1"/></g></g></svg>