<svg xmlns="http://www.w3.org/2000/svg" xmlns:svg="http://www.w3.org/2000/svg" xmlns:xlink="http://www.w3.org/1999/xlink" id="svg4311" width="100%" height="100%" version="1.1" viewBox="0 0 64 64"><defs id="defs4313"><linearGradient id="cavernLakeGradient"><stop style="stop-color:#f55;stop-opacity:1" id="stop4184" offset="0"/><stop style="stop-color:#ff8080;stop-opacity:1" id="stop4186" offset="1"/></linearGradient><linearGradient id="linearGradient15" x1="29.5" x2="44.125" y1="1025.487" y2="1003.362" gradientTransform="matrix(1.2884366,0,0,1.290513,-9.2250812,-296.31254)" gradientUnits="userSpaceOnUse" xlink:href="#cavernLakeGradient"/></defs><metadata id="metadata4316"/><g id="layer1" transform="translate(0,-988.36216)" style="display:inline"><ellipse id="ellipse4146" cx="32" cy="1020.368" rx="30.383" ry="30.381" style="display:inline;fill:url(#linearGradient15);fill-opacity:1;fill-rule:evenodd;stroke:none;stroke-width:5.4000001;stroke-linecap:butt;stroke-linejoin:miter;stroke-miterlimit:4;stroke-dasharray:none;stroke-opacity:1"/><path style="fill:#fff;fill-rule:evenodd;stroke:#fff;stroke-width:2.65578771px;stroke-linecap:butt;stroke-linejoin:miter;stroke-opacity:1" id="path4245" d="m 10.525106,1024.8329 c 0.03125,-4.378 10.451673,-7.73 16.072574,-7.8549 l 0.055,-9.0155 -3.845924,-0.03 c 0,0 -1.675108,-7.7774 10.654876,-7.8838 13.020567,-0.11233 11.821619,7.5469 11.821619,7.5469 l -4.517814,0.044 -0.17986,9.0271 c 8.211364,0.5548 12.935611,4.9032 13.382457,8.5666 0,0 -6.993373,-1.3268 -10.508805,-1.1046 -3.583108,0.2274 -7.452954,2.0868 -11.042833,2.0275 -2.828195,-0.048 -7.861436,-2.0857 -10.687041,-2.213 -4.830804,-0.1179 -8.040181,0.1 -11.204249,0.8897 z"/><path style="fill:none;fill-rule:evenodd;stroke:#fff;stroke-width:1.98541057;stroke-linecap:round;stroke-linejoin:round;stroke-miterlimit:4;stroke-dasharray:none;stroke-opacity:1" id="path4248" d="m 6.9313077,1029.3488 c 4.7430913,0.9166 5.1472203,-1.6235 13.4065143,-1.2577 4.317199,0.1912 8.40693,2.502 13.712599,2.3896 5.135962,-0.109 6.7626,-2.1841 11.08258,-2.2919 3.908239,-0.098 6.944199,0.6015 11.690128,1.7259"/><path style="display:inline;fill:none;fill-rule:evenodd;stroke:#fff;stroke-width:1.90846825;stroke-linecap:round;stroke-linejoin:round;stroke-miterlimit:4;stroke-dasharray:none;stroke-opacity:1" id="path4248-6" d="m 9.4861199,1034.0584 c 4.2464251,0.946 4.6082371,-1.6755 12.0026721,-1.298 3.86513,0.1973 7.526611,2.5822 12.276706,2.4662 4.598158,-0.1125 6.054465,-2.2541 9.922085,-2.3654 3.498994,-0.1011 6.217048,0.6208 10.466015,1.7813"/><path style="display:inline;fill:none;fill-rule:evenodd;stroke:#fff;stroke-width:1.80292535;stroke-linecap:round;stroke-linejoin:round;stroke-miterlimit:4;stroke-dasharray:none;stroke-opacity:1" id="path4248-6-2" d="m 13.321104,1039.188 c 3.634903,0.9863 3.94461,-1.7468 10.274181,-1.3532 3.308517,0.2057 6.442713,2.6921 10.508752,2.5712 3.935982,-0.1173 5.182568,-2.3501 8.493217,-2.4662 2.995108,-0.1054 5.321738,0.6473 8.958816,1.8572"/></g></svg>