<svg xmlns="http://www.w3.org/2000/svg" xmlns:svg="http://www.w3.org/2000/svg" xmlns:xlink="http://www.w3.org/1999/xlink" id="svg4311" width="100%" height="100%" version="1.1" viewBox="0 0 64 64"><defs id="defs4313"><linearGradient id="roomBunnyGradient"><stop style="stop-color:#f55;stop-opacity:1" id="stop4184" offset="0"/><stop style="stop-color:#ff8080;stop-opacity:1" id="stop4186" offset="1"/></linearGradient><linearGradient id="linearGradient15" x1="29.5" x2="44.125" y1="1025.487" y2="1003.362" gradientTransform="matrix(1.2884366,0,0,1.290513,-9.2250812,-296.31254)" gradientUnits="userSpaceOnUse" xlink:href="#roomBunnyGradient"/></defs><metadata id="metadata4316"/><g id="layer1" transform="translate(0,-988.36216)" style="display:inline"><ellipse id="ellipse4146" cx="32" cy="1020.368" rx="30.383" ry="30.381" style="display:inline;fill:url(#linearGradient15);fill-opacity:1;fill-rule:evenodd;stroke:none;stroke-width:5.4000001;stroke-linecap:butt;stroke-linejoin:miter;stroke-miterlimit:4;stroke-dasharray:none;stroke-opacity:1"/><g id="g4159" transform="matrix(1.1979,0,0,1.1979,-8.7693995,-212.55224)"><path id="path4145" d="m 21.124814,1010.9743 0,18.9372" style="fill:none;fill-rule:evenodd;stroke:#fff;stroke-width:4;stroke-linecap:butt;stroke-linejoin:miter;stroke-miterlimit:4;stroke-dasharray:none;stroke-opacity:1"/><path id="path4153" d="m 25.845975,1016.7664 2.465547,0" style="fill:none;fill-rule:evenodd;stroke:#fff;stroke-width:4.29136992px;stroke-linecap:round;stroke-linejoin:miter;stroke-opacity:1"/><path id="path4155" d="m 21.954771,1022.2695 27.830761,0.039" style="fill:none;fill-rule:evenodd;stroke:#fff;stroke-width:6;stroke-linecap:butt;stroke-linejoin:miter;stroke-miterlimit:4;stroke-dasharray:none;stroke-opacity:1"/><path id="path4157" d="m 47.848032,1029.8089 -0.0625,-7.1719" style="fill:none;fill-rule:evenodd;stroke:#fff;stroke-width:4;stroke-linecap:butt;stroke-linejoin:miter;stroke-miterlimit:4;stroke-dasharray:none;stroke-opacity:1"/></g><path style="display:inline;opacity:1;fill:#fff;fill-rule:evenodd;stroke:#fff;stroke-width:.59048998;stroke-linecap:butt;stroke-linejoin:miter;stroke-miterlimit:4;stroke-dasharray:none;stroke-opacity:1" id="path4166" d="m 33.773099,1017.9856 c -1.755604,0.043 -4.737529,2.7173 -5.271854,12.7806 -3.739505,1.0779 -8.388417,4.3759 -8.589208,7.4017 -0.08385,1.2637 1.956109,4.7001 5.468178,4.9113 6.288525,0.3781 5.010926,3.4427 5.232262,4.9827 6.554525,0.5112 9.701028,-3.943 11.245374,-6.2402 -3.61948,-2.7031 -2.353651,-7.8062 -6.476936,-10.1306 5.061007,-4.0932 5.530822,-11.962 4.54527,-12.1277 -4.382954,-0.7374 -8.144698,5.5197 -8.293384,10.8468 0,0 -1.040476,0.07 -1.044197,-0.023 -0.18745,-4.7881 2.396485,-9.7159 4.405146,-10.9869 0.281367,-0.7376 -0.301051,-1.4364 -1.220651,-1.4138 z m -6.398053,15.9796 c 0.834178,-3e-4 1.510467,0.6761 1.510248,1.5102 2.19e-4,0.8343 -0.67607,1.5106 -1.510248,1.5103 -0.833771,-4e-4 -1.509428,-0.6764 -1.509209,-1.5103 -2.19e-4,-0.8337 0.675438,-1.5098 1.509209,-1.5102 z"/></g></svg>