<svg xmlns="http://www.w3.org/2000/svg" xmlns:svg="http://www.w3.org/2000/svg" xmlns:xlink="http://www.w3.org/1999/xlink" id="svg4311" width="100%" height="100%" version="1.1" viewBox="0 0 64 64"><defs id="defs4313"><linearGradient id="roomGradient"><stop style="stop-color:#f55;stop-opacity:1" id="stop4184" offset="0"/><stop style="stop-color:#ff8080;stop-opacity:1" id="stop4186" offset="1"/></linearGradient><linearGradient id="linearGradient15" x1="29.5" x2="44.125" y1="1025.487" y2="1003.362" gradientTransform="matrix(1.2884366,0,0,1.290513,-9.2250812,-296.31254)" gradientUnits="userSpaceOnUse" xlink:href="#roomGradient"/></defs><metadata id="metadata4316"/><g id="layer1" transform="translate(0,-988.36216)" style="display:inline"><ellipse id="ellipse4146" cx="32" cy="1020.368" rx="30.383" ry="30.381" style="display:inline;fill:url(#linearGradient15);fill-opacity:1;fill-rule:evenodd;stroke:none;stroke-width:5.4000001;stroke-linecap:butt;stroke-linejoin:miter;stroke-miterlimit:4;stroke-dasharray:none;stroke-opacity:1"/><g id="g4159" transform="matrix(1.1979,0,0,1.1979,-8.7693995,-212.55224)"><path id="path4145" d="m 21.124814,1010.9743 0,18.9372" style="fill:none;fill-rule:evenodd;stroke:#fff;stroke-width:4;stroke-linecap:butt;stroke-linejoin:miter;stroke-miterlimit:4;stroke-dasharray:none;stroke-opacity:1"/><path id="path4153" d="m 25.845975,1016.7664 2.465547,0" style="fill:none;fill-rule:evenodd;stroke:#fff;stroke-width:4.29136992px;stroke-linecap:round;stroke-linejoin:miter;stroke-opacity:1"/><path id="path4155" d="m 21.954771,1022.2695 27.830761,0.039" style="fill:none;fill-rule:evenodd;stroke:#fff;stroke-width:6;stroke-linecap:butt;stroke-linejoin:miter;stroke-miterlimit:4;stroke-dasharray:none;stroke-opacity:1"/><path id="path4157" d="m 47.848032,1029.8089 -0.0625,-7.1719" style="fill:none;fill-rule:evenodd;stroke:#fff;stroke-width:4;stroke-linecap:butt;stroke-linejoin:miter;stroke-miterlimit:4;stroke-dasharray:none;stroke-opacity:1"/></g><path style="display:inline;fill:#fff;fill-rule:evenodd;stroke:none;stroke-width:1px;stroke-linecap:butt;stroke-linejoin:miter;stroke-opacity:1" id="path4186" d="m 35.321792,1019.204 c 3.083885,-0.3611 6.064415,1.7767 4.774918,6.4272 -1.402817,5.0592 -5.634996,8.248 -7.316161,12.5815 -2.634742,-3.933 -7.755763,-5.3893 -10.447587,-10.1966 -2.241156,-4.0024 0.199487,-6.9307 3.453402,-7.3979 2.335037,-0.3354 4.864764,0.2029 5.2788,3.0984 -0.386795,-2.9026 1.837301,-4.2294 4.256628,-4.5126 z"/><path style="display:inline;fill:#fff;fill-rule:evenodd;stroke:none;stroke-width:1px;stroke-linecap:butt;stroke-linejoin:miter;stroke-opacity:1" id="path4186-0" d="m 46.130902,1036.5917 c 1.800837,0.9081 2.651705,3.1332 0.288619,5.1929 -2.570705,2.2406 -6.005941,2.4547 -8.46795,4.2024 -0.02092,-3.0749 -2.275936,-5.6967 -2.014985,-9.2659 0.217214,-2.9716 2.588082,-3.6857 4.519225,-2.7747 1.385816,0.6538 2.56447,1.8508 1.752878,3.5685 0.829001,-1.7119 2.509393,-1.6353 3.922213,-0.9232 z"/><path style="display:inline;fill:#fff;fill-rule:evenodd;stroke:none;stroke-width:1px;stroke-linecap:butt;stroke-linejoin:miter;stroke-opacity:1" id="path4186-3" d="m 25.005245,1035.3542 c 1.526363,-0.6269 3.358133,0.039 3.365588,2.6038 0.008,2.79 -1.70005,5.029 -1.938484,7.4878 -1.91255,-1.6346 -4.74194,-1.6449 -6.809131,-3.7186 -1.721093,-1.7265 -0.892371,-3.5751 0.705602,-4.2812 1.146606,-0.5069 2.518494,-0.594 3.14578,0.8281 -0.614334,-1.4298 0.333316,-2.4278 1.530645,-2.9199 z"/></g></svg>