<svg xmlns="http://www.w3.org/2000/svg" xmlns:svg="http://www.w3.org/2000/svg" xmlns:xlink="http://www.w3.org/1999/xlink" id="svg4311" width="100%" height="100%" version="1.1" viewBox="0 0 64 64"><defs id="defs4313"><linearGradient id="roomLoppyGradient"><stop style="stop-color:#f55;stop-opacity:1" id="stop4184" offset="0"/><stop style="stop-color:#ff8080;stop-opacity:1" id="stop4186" offset="1"/></linearGradient><linearGradient id="linearGradient15" x1="29.5" x2="44.125" y1="1025.487" y2="1003.362" gradientTransform="matrix(1.2884366,0,0,1.290513,-9.2250812,-296.31254)" gradientUnits="userSpaceOnUse" xlink:href="#roomLoppyGradient"/></defs><metadata id="metadata4316"/><g id="layer1" transform="translate(0,-988.36216)" style="display:inline"><ellipse id="ellipse4146" cx="32" cy="1020.368" rx="30.383" ry="30.381" style="display:inline;fill:url(#linearGradient15);fill-opacity:1;fill-rule:evenodd;stroke:none;stroke-width:5.4000001;stroke-linecap:butt;stroke-linejoin:miter;stroke-miterlimit:4;stroke-dasharray:none;stroke-opacity:1"/><g id="g4159" transform="matrix(1.1979,0,0,1.1979,-8.7693995,-212.55224)"><path id="path4145" d="m 21.124814,1010.9743 0,18.9372" style="fill:none;fill-rule:evenodd;stroke:#fff;stroke-width:4;stroke-linecap:butt;stroke-linejoin:miter;stroke-miterlimit:4;stroke-dasharray:none;stroke-opacity:1"/><path id="path4153" d="m 25.845975,1016.7664 2.465547,0" style="fill:none;fill-rule:evenodd;stroke:#fff;stroke-width:4.29136992px;stroke-linecap:round;stroke-linejoin:miter;stroke-opacity:1"/><path id="path4155" d="m 21.954771,1022.2695 27.830761,0.039" style="fill:none;fill-rule:evenodd;stroke:#fff;stroke-width:6;stroke-linecap:butt;stroke-linejoin:miter;stroke-miterlimit:4;stroke-dasharray:none;stroke-opacity:1"/><path id="path4157" d="m 47.848032,1029.8089 -0.0625,-7.1719" style="fill:none;fill-rule:evenodd;stroke:#fff;stroke-width:4;stroke-linecap:butt;stroke-linejoin:miter;stroke-miterlimit:4;stroke-dasharray:none;stroke-opacity:1"/></g><path style="display:inline;opacity:1;fill:#fff;fill-rule:evenodd;stroke:none;stroke-width:.65609998;stroke-linecap:butt;stroke-linejoin:miter;stroke-miterlimit:4;stroke-dasharray:none;stroke-opacity:1" id="path4166-7" d="m 29.712743,1024.2074 c -4.198065,1.0366 -9.364392,4.8621 -9.587493,8.2242 -0.09317,1.4041 2.173453,5.2223 6.075752,5.457 6.987247,0.4202 5.567696,3.8251 5.813622,5.5363 7.282808,0.5679 10.778922,-4.3811 12.49486,-6.9336 -4.021644,-3.0035 -2.609743,-8.5139 -7.079431,-11.2856 -2.637194,-1.6353 -5.051963,-1.6564 -7.71731,-0.9983 z m -1.29526,3.5545 c 0.92686,-3e-4 1.678291,0.7512 1.678048,1.6781 2.43e-4,0.9268 -0.751188,1.6783 -1.678048,1.678 -0.926413,-4e-4 -1.677142,-0.7516 -1.676899,-1.678 -2.43e-4,-0.9265 0.750486,-1.6777 1.676899,-1.6781 z"/><path style="display:inline;opacity:1;fill:#fff;fill-rule:evenodd;stroke:#f55;stroke-width:.65609998px;stroke-linecap:butt;stroke-linejoin:miter;stroke-opacity:1" id="path4186" d="m 33.137,1023.7917 c -0.01856,0.1156 0.310836,-0.175 0.285431,-0.052 -1.364211,6.6073 -12.298457,23.573 -0.701829,24.2238 14.30429,0.8029 6.254697,-15.9461 5.804027,-21.6526 -0.01617,-0.2048 0.167827,0.3369 0.172611,0.1619 0.9235,-1.4387 -5.671281,-4.4895 -5.56024,-2.6812 z"/></g></svg>