<svg xmlns="http://www.w3.org/2000/svg" xmlns:svg="http://www.w3.org/2000/svg" id="svg4311" width="100%" height="100%" version="1.1" viewBox="0 0 64 64"><metadata id="metadata4316"/><g id="layer1" transform="translate(0,-988.36216)" style="display:inline"><path style="fill:#d7e3f4;fill-rule:evenodd;stroke:#000;stroke-width:.5;stroke-linecap:butt;stroke-linejoin:miter;stroke-miterlimit:4;stroke-dasharray:none;stroke-opacity:1" id="path4158" d="m 15.007868,1048.9769 c -3.93163,0.073 -6.7284875,-2.76 -6.6164115,-6.1429 0.132064,-3.9861 5.0003915,-7.6832 6.9016025,-14.1804 1.844367,6.621 5.939687,10.0298 6.217146,14.0082 0.245799,3.5244 -2.992802,6.2502 -6.502337,6.3151 z"/><path style="fill:#fff;fill-rule:evenodd;stroke:none;stroke-width:1px;stroke-linecap:butt;stroke-linejoin:miter;stroke-opacity:1" id="path4169" d="m 18.301369,1038.3959 c 0.943036,0.6525 1.428267,2.0674 1.524024,3.4659 0.01444,0.2108 0.02001,0.4219 0.01681,0.6306 0.267422,1.1535 0.271379,2.3838 -0.08557,3.2104 0.657032,-0.6799 1.031232,-1.9489 1.078971,-3.2982 -0.04214,-0.2321 -0.09393,-0.463 -0.154981,-0.6902 -0.410861,-1.5289 -1.246524,-2.8927 -2.379257,-3.3185 z"/><path id="path4157" d="m 5.7075664,1031.5685 16.1348146,16.4274 2.035201,-1.9602 -16.2159206,-16.4398 z" style="display:inline;fill:#ff8080;fill-rule:evenodd;stroke:#000;stroke-width:.42910624;stroke-linecap:butt;stroke-linejoin:miter;stroke-miterlimit:4;stroke-dasharray:none;stroke-opacity:1"/><path style="display:inline;fill:#ff8080;fill-opacity:1;stroke:#000;stroke-width:.4562816;stroke-linecap:butt;stroke-linejoin:round;stroke-miterlimit:4;stroke-dasharray:none;stroke-dashoffset:0;stroke-opacity:1" id="path4162" d="m 14.544998,1025.6242 a 12.966282,13.243001 89.456824 0 0 -0.935547,0.061 12.966282,13.243001 89.456824 0 0 -8.1777348,3.8711 12.966282,13.243001 89.456824 0 0 -3.6777344,10.3281 12.966282,13.243001 89.456824 0 0 14.5000002,11.6035 12.966282,13.243001 89.456824 0 0 11.855469,-14.2011 12.966282,13.243001 89.456824 0 0 -13.564453,-11.6621 z m 0.386718,2.0273 a 10.932917,11.16624 89.45684 0 1 11.107422,9.8379 10.932917,11.16624 89.45684 0 1 -9.992187,11.9746 10.932917,11.16624 89.45684 0 1 -12.226563,-9.7832 10.932917,11.16624 89.45684 0 1 3.3320313,-8.9356 10.932917,11.16624 89.45684 0 1 6.6640627,-3.0371 10.932917,11.16624 89.45684 0 1 1.115234,-0.057 z"/><path style="display:inline;fill:#ff8080;fill-rule:evenodd;stroke:none;stroke-width:.5;stroke-linecap:butt;stroke-linejoin:miter;stroke-miterlimit:4;stroke-dasharray:none;stroke-opacity:1" id="path4207" d="m 5.699101,1031.346 16.337863,16.6759 1.844802,-1.7826 -16.4162126,-16.6921 z"/></g></svg>