<svg xmlns="http://www.w3.org/2000/svg" xmlns:svg="http://www.w3.org/2000/svg" id="svg4311" width="100%" height="100%" version="1.1" viewBox="0 0 64 64"><metadata id="metadata4316"/><g id="layer1" transform="translate(0,-988.36216)" style="display:inline"><path style="fill:#d7e3f4;fill-rule:evenodd;stroke:#000;stroke-width:.5;stroke-linecap:butt;stroke-linejoin:miter;stroke-opacity:1;stroke-miterlimit:4;stroke-dasharray:none" id="path4158" d="m 12.538737,1048.8733 c -3.9316306,0.073 -6.7284876,-2.76 -6.6164116,-6.1429 0.132064,-3.9861 5.0003916,-7.6832 6.9016026,-14.1804 1.844367,6.621 5.939687,10.0298 6.217146,14.0082 0.245799,3.5244 -2.992802,6.2502 -6.502337,6.3151 z"/><path style="fill:#fff;fill-rule:evenodd;stroke:none;stroke-width:1px;stroke-linecap:butt;stroke-linejoin:miter;stroke-opacity:1" id="path4169" d="m 15.832238,1038.2923 c 0.943036,0.6525 1.428267,2.0674 1.524024,3.4659 0.01443,0.2108 0.02001,0.4219 0.01681,0.6306 0.267422,1.1535 0.271379,2.3838 -0.08557,3.2104 0.657032,-0.6799 1.031232,-1.9489 1.078971,-3.2982 -0.04214,-0.2321 -0.09393,-0.463 -0.154981,-0.6902 -0.410861,-1.5289 -1.246524,-2.8927 -2.379257,-3.3185 z"/></g></svg>