<svg xmlns="http://www.w3.org/2000/svg" xmlns:svg="http://www.w3.org/2000/svg" id="svg4311" width="100%" height="100%" version="1.1" viewBox="0 0 64 64"><metadata id="metadata4316"/><g id="layer1" transform="translate(0,-988.36216)" style="display:inline"><g id="g3346" transform="matrix(0.87424354,0,0,0.88394614,6.883198,116.32742)"><path id="path4138-8" d="m 46.606342,1001.9121 -6.845378,-8.08122 -1.048482,2.3081 -1.030294,-6.3783 6.458498,1.2821 -2.471486,0.9052 7.786819,7.2485 z" style="display:inline;fill:#f53ca4;fill-opacity:1;fill-rule:evenodd;stroke:#000;stroke-width:.5;stroke-linecap:butt;stroke-linejoin:miter;stroke-miterlimit:4;stroke-dasharray:none;stroke-opacity:1"/><path style="display:inline;fill:#f53ca4;fill-opacity:1;fill-rule:evenodd;stroke:#000;stroke-width:.5;stroke-linecap:butt;stroke-linejoin:miter;stroke-miterlimit:4;stroke-dasharray:none;stroke-opacity:1" id="path4146" d="m 49.297213,1005.4932 -8.08126,6.8454 2.3081,1.0484 -6.3783,1.0303 1.2821,-6.4585 0.9052,2.4715 7.2485,-7.7868 z"/><path style="display:inline;fill:#f53ca4;fill-opacity:1;fill-rule:evenodd;stroke:#000;stroke-width:.5;stroke-linecap:butt;stroke-linejoin:miter;stroke-miterlimit:4;stroke-dasharray:none;stroke-opacity:1" id="path4148" d="m 52.966701,1002.8023 6.84538,8.0813 1.04846,-2.3081 1.0303,6.3783 -6.45849,-1.2821 2.47149,-0.9052 -7.78682,-7.2485 z"/><path style="display:inline;fill:#f53ca4;fill-opacity:1;fill-rule:evenodd;stroke:#000;stroke-width:.5;stroke-linecap:butt;stroke-linejoin:miter;stroke-miterlimit:4;stroke-dasharray:none;stroke-opacity:1" id="path4150" d="m 50.231624,999.17707 8.08126,-6.84538 -2.3081,-1.04846 6.37831,-1.0303 -1.2821,6.45849 -0.90521,-2.47149 -7.2485,7.78677 z"/></g></g></svg>