<svg xmlns="http://www.w3.org/2000/svg" xmlns:svg="http://www.w3.org/2000/svg" xmlns:xlink="http://www.w3.org/1999/xlink" id="svg4311" width="100%" height="100%" version="1.1" viewBox="0 0 64 64"><defs id="defs4313"><linearGradient id="linearGradient4332"><stop style="stop-color:#666;stop-opacity:1" id="stop4334" offset="0"/><stop style="stop-color:gray;stop-opacity:1" id="stop4336" offset="1"/></linearGradient><linearGradient id="holeTooBig"><stop style="stop-color:#333;stop-opacity:1" id="stop4213" offset="0"/><stop style="stop-color:#666;stop-opacity:1" id="stop4215" offset="1"/></linearGradient><linearGradient id="linearGradient4270" x1="111.688" x2="99.375" y1="1026.175" y2="1035.362" gradientTransform="matrix(1.4760713,0,0,1.0365296,-42.481438,-2078.2337)" gradientUnits="userSpaceOnUse" xlink:href="#holeTooBig"/><linearGradient id="linearGradient4338" x1="139.875" x2="139.875" y1="1030.893" y2="1043.737" gradientTransform="matrix(1.3218393,-0.22044728,0.22044728,1.3218393,-366.9898,-337.18394)" gradientUnits="userSpaceOnUse" xlink:href="#linearGradient4332"/></defs><metadata id="metadata4316"/><g id="layer1" transform="translate(0,-988.36216)" style="display:inline"><g id="g4167" transform="matrix(0.857375,0,0,0.857375,8.7970373,141.70552)"><ellipse id="path4209-2" cx="111.307" cy="-1010.881" rx="13.377" ry="8.94" transform="matrix(-0.99697594,0.07771089,-0.15914327,-0.9872555,0,0)" style="opacity:1;fill:url(#linearGradient4270);fill-opacity:1;stroke:#000;stroke-width:.30923206;stroke-linecap:butt;stroke-linejoin:miter;stroke-miterlimit:4;stroke-dasharray:none;stroke-dashoffset:0;stroke-opacity:1"/><path id="path4296-0" d="m 42.162841,994.30491 3.493589,20.77429 c 1.37471,0.3235 3.411186,0.5476 5.162919,0.3955 l -3.506038,-21.96889 z" style="display:inline;fill:url(#linearGradient4338);fill-opacity:1;fill-rule:evenodd;stroke:#000;stroke-width:.33502391;stroke-linecap:butt;stroke-linejoin:miter;stroke-miterlimit:4;stroke-dasharray:none;stroke-opacity:1"/><path id="path4290-3" d="m 40.138546,995.19151 c 2.79749,1.27551 7.359416,-0.0335 9.377493,-1.50693 l -0.354844,-2.25472 c -0.157005,-0.9985 -1.015296,-1.85429 -2.73346,-2.38872 -0.855865,-0.3109 -3.892589,0.0911 -4.89494,0.81639 -1.036779,0.79682 -2.029253,1.70661 -1.834484,2.87451 z" style="display:inline;fill:#999;fill-rule:evenodd;stroke:#000;stroke-width:.33502391;stroke-linecap:butt;stroke-linejoin:miter;stroke-miterlimit:4;stroke-dasharray:none;stroke-opacity:1"/><path id="path4292-8" d="m 39.689815,992.61719 c 3.10267,1.63679 8.685213,-0.31291 9.445597,-1.5332" style="display:inline;fill:none;fill-rule:evenodd;stroke:#000;stroke-width:.13400955;stroke-linecap:butt;stroke-linejoin:miter;stroke-miterlimit:4;stroke-dasharray:none;stroke-opacity:1"/><path id="path4294-1" d="m 41.440395,990.08749 c 0.584067,0.96165 4.910258,0.19472 5.097469,-0.92493" style="display:inline;fill:none;fill-rule:evenodd;stroke:#000;stroke-width:.13400955;stroke-linecap:butt;stroke-linejoin:miter;stroke-miterlimit:4;stroke-dasharray:none;stroke-opacity:1"/></g></g></svg>