<svg xmlns="http://www.w3.org/2000/svg" xmlns:svg="http://www.w3.org/2000/svg" id="svg4311" width="100%" height="100%" version="1.1" viewBox="0 0 64 64"><metadata id="metadata4316"/><g id="layer1" transform="translate(0,-988.36216)" style="display:inline"><path style="fill:#4d4d4d;fill-rule:evenodd;stroke:#000;stroke-width:.23579477;stroke-linecap:butt;stroke-linejoin:miter;stroke-miterlimit:4;stroke-dasharray:none;stroke-opacity:1" id="path4149" d="m 16.528512,1012.0665 c -2.130398,-0.052 -5.986402,-1.1052 -8.6425619,-4.4572 -2.1376184,-2.6977 -2.7367069,-5.8508 -2.4307962,-6.1014 7.1010721,-5.81966 18.8799711,-6.58693 18.4568351,-3.89696 -0.331702,2.1089 -1.28734,4.18316 -1.388378,6.32276 -0.213583,4.523 -1.188861,8.2516 -5.995099,8.1328 z"/><path style="fill:#e6e6e6;fill-rule:evenodd;stroke:#000;stroke-width:.23579477;stroke-linecap:butt;stroke-linejoin:miter;stroke-miterlimit:4;stroke-dasharray:none;stroke-opacity:1" id="path4153" d="m 24.223716,998.70124 c -1.216854,-3.41357 -14.9275279,0.6327 -18.1635682,1.80546 1.7253193,-3.46286 8.2430272,-5.81984 14.4792752,-6.24498 6.589454,-0.44918 4.018207,2.74112 3.684293,4.43952 z"/><path style="fill:#b3b3b3;fill-opacity:1;fill-rule:evenodd;stroke:#000;stroke-width:.23579477;stroke-linecap:butt;stroke-linejoin:miter;stroke-miterlimit:4;stroke-dasharray:none;stroke-opacity:1" id="path4155" d="m 21.589621,1010.793 c -2.56927,-7.7395 -9.418615,-6.4372 -15.7687777,-6.1896 0.014855,3.0787 3.0657588,5.3657 5.1580127,7.9026 5.812379,1.4862 8.318047,-0.023 10.610765,-1.713 z"/><path style="fill:gray;fill-opacity:1;fill-rule:evenodd;stroke:#000;stroke-width:.23579477;stroke-linecap:butt;stroke-linejoin:miter;stroke-miterlimit:4;stroke-dasharray:none;stroke-opacity:1" id="path4147" d="m 22.354105,992.21954 c 2.155207,-0.0391 4.020228,1.78702 3.748769,3.28361 -0.585044,3.22569 -2.661724,5.07445 -3.205335,7.84745 -0.757052,3.8616 1.734393,12.5087 -5.415911,13.3005 -4.231446,0.4685 -12.2836814,-4.9442 -12.4989644,-15.3821 -0.026904,-1.30486 10.3488244,-11.11939 15.1884984,-8.30796 0.714814,-0.50941 1.46454,-0.72841 2.182943,-0.7415 z m -2.224391,3.90988 c -3.971663,0.0802 -10.2345279,1.74182 -14.6726973,5.37918 -0.3059107,0.2506 0.2894074,3.4044 2.4270284,6.1021 2.6561599,3.3521 6.5138729,4.4061 8.6442719,4.4579 4.806237,0.1179 5.782605,-3.61 5.996188,-8.133 0.101038,-2.1396 1.054514,-4.21436 1.386213,-6.32326 0.15869,-1.00874 -1.398008,-1.53055 -3.781004,-1.48292 z"/><path style="fill:#000;fill-rule:evenodd;stroke:none;stroke-width:1px;stroke-linecap:butt;stroke-linejoin:miter;stroke-opacity:1" id="path4161" d="m 7.5340411,1004.6769 c 2.0001026,0.1601 3.4069109,0.5324 4.5570599,1.0721 1.343256,0.5097 2.402914,1.2525 3.658916,2.1885 -1.182915,-1.0092 -2.199167,-1.852 -3.539682,-2.4719 -1.227917,-0.4613 -2.6740158,-0.7315 -4.6762939,-0.7887 z"/></g></svg>