<svg xmlns="http://www.w3.org/2000/svg" xmlns:svg="http://www.w3.org/2000/svg" xmlns:xlink="http://www.w3.org/1999/xlink" id="svg4311" width="100%" height="100%" version="1.1" viewBox="0 0 64 64"><defs id="defs4313"><linearGradient id="nippleStatusGradient"><stop style="stop-color:#4d4d4d;stop-opacity:1" id="stop4202" offset="0"/><stop style="stop-color:#333;stop-opacity:0" id="stop4204" offset="1"/></linearGradient><radialGradient id="radialGradient4206" cx="119.375" cy="1011.862" r="2.75" fx="119.375" fy="1011.862" gradientTransform="matrix(1.7103393,0,0,1.671468,-187.99507,-684.07144)" gradientUnits="userSpaceOnUse" xlink:href="#nippleStatusGradient"/></defs><metadata id="metadata4316"/><g id="layer1" transform="translate(0,-988.36216)" style="display:inline"><path style="fill:gray;fill-opacity:1;fill-rule:evenodd;stroke:none;stroke-width:1px;stroke-linecap:butt;stroke-linejoin:miter;stroke-opacity:1" id="path4218" d="m 26.85986,998.34624 c -3.638525,-4.6162 -10.48556,-6.15944 -17.4710479,-7.52703 -1.4549992,4.34582 -4.2372201,8.29849 -5.8323255,12.71139 -1.4599285,16.1378 14.0819594,18.0742 21.9083514,13.2304 6.148072,-3.6403 6.026005,-15.0714 1.395022,-18.41476 z"/><path style="fill:none;fill-rule:evenodd;stroke:#000;stroke-width:.5;stroke-linecap:butt;stroke-linejoin:miter;stroke-miterlimit:4;stroke-dasharray:none;stroke-opacity:1" id="path4196" d="m 9.5426742,990.75661 c -1.7701841,6.21093 -5.7264383,8.5765 -5.9861876,14.32409 -0.570706,12.628 10.4238344,16.9592 20.7378644,12.4"/><ellipse style="opacity:1;fill:url(#radialGradient4206);fill-opacity:1;stroke:none;stroke-width:.5;stroke-linecap:round;stroke-linejoin:round;stroke-miterlimit:4;stroke-dasharray:none;stroke-dashoffset:0;stroke-opacity:1" id="path4198" cx="16.177" cy="1007.224" rx="4.703" ry="4.597"/><ellipse style="opacity:1;fill:#4d4d4d;fill-opacity:1;stroke:#000;stroke-width:.34206787;stroke-linecap:round;stroke-linejoin:round;stroke-miterlimit:4;stroke-dasharray:none;stroke-dashoffset:0;stroke-opacity:1" id="path4208" cx="16.337" cy="1007.063" rx="1.573" ry="1.679"/><path style="fill:#000;fill-rule:evenodd;stroke:none;stroke-width:1px;stroke-linecap:butt;stroke-linejoin:miter;stroke-opacity:1" id="path4210" d="m 23.914669,1017.6354 c 0.155057,0.028 0.311057,0.053 0.468073,0.075 2.039286,-0.9914 3.382724,-2.5553 4.275454,-4.3327 -1.043807,1.7072 -2.479886,3.0857 -4.476801,3.8768 -0.08346,0.1277 -0.172317,0.2547 -0.266726,0.381 z"/><path style="fill:#000;fill-rule:evenodd;stroke:none;stroke-width:1px;stroke-linecap:butt;stroke-linejoin:miter;stroke-opacity:1" id="path4214" d="m 29.639161,1002.6755 c -0.167157,-1.1185 -0.827261,-2.4302 -1.768425,-3.70934 -0.16494,-0.18888 -0.336229,-0.37614 -0.512957,-0.56095 -1.292914,-1.35201 -2.882555,-2.57883 -4.424308,-3.3596 1.475055,0.89503 2.961463,2.21462 4.127967,3.62358 0.159333,0.19246 0.312624,0.38649 0.459049,0.58124 1.025268,1.14427 1.807823,2.35297 2.118674,3.42507 z"/></g></svg>