<svg xmlns="http://www.w3.org/2000/svg" xmlns:svg="http://www.w3.org/2000/svg" id="svg4311" width="100%" height="100%" version="1.1" viewBox="0 0 64 64"><metadata id="metadata4316"/><g id="layer1" transform="translate(0,-988.36216)" style="display:inline"><path style="fill:gray;fill-opacity:1;fill-rule:evenodd;stroke:#000;stroke-width:.31999999;stroke-linecap:butt;stroke-linejoin:miter;stroke-miterlimit:4;stroke-dasharray:none;stroke-opacity:1" id="path4417" d="m 6.185234,1017.6109 c -0.088461,-2.4891 -0.4714944,-3.7053 -0.9616704,-6.1943 -2.9467946,-0.7479 -6.424832,-4.216 -0.1131392,-11.8794 0.1904512,-1.84121 -0.1087232,-3.62092 0.3525504,-5.40371 0.2864064,-1.10694 0.70416,-2.28243 0.988608,-2.58201 0,0 16.7147392,-0.65152 25.2880322,0.624 0.589229,0.0877 1.660877,0.5264 1.984205,0.88076 0.151398,0.16602 0.223136,1.66516 0.240697,1.885 1.042695,13.05096 -7.217632,19.75426 -7.188339,22.69786 z"/><path style="fill:#000;fill-rule:evenodd;stroke:none;stroke-width:1px;stroke-linecap:butt;stroke-linejoin:miter;stroke-opacity:1" id="path4419" d="m 5.0679988,999.622 c 0.06227,-0.001 0.1246801,-0.003 0.1872186,-0.005 0.4670678,-0.72637 0.8707235,-1.50444 1.1704262,-2.30051 -0.3895081,0.75486 -0.874688,1.47372 -1.4101744,2.12618 0.017867,0.0594 0.035377,0.1191 0.05253,0.17897 z"/><path style="fill:#000;fill-rule:evenodd;stroke:none;stroke-width:1px;stroke-linecap:butt;stroke-linejoin:miter;stroke-opacity:1" id="path4423" d="m 5.0165118,1011.3655 c 0.028972,0.058 0.059102,0.1171 0.090378,0.1758 0.7252065,0.1248 1.6711893,0.2439 2.6277405,0.2094 1.0137925,-0.037 2.0321315,-0.2455 2.8071761,-0.7937 -0.7989029,0.501 -1.8168725,0.6523 -2.808758,0.6361 -0.9395817,-0.016 -1.8628198,-0.1816 -2.5639728,-0.3521 -0.051212,0.042 -0.1020898,0.083 -0.1525634,0.1245 z"/><path style="fill:none;fill-rule:evenodd;stroke:#000;stroke-width:.31999999;stroke-linecap:butt;stroke-linejoin:miter;stroke-miterlimit:4;stroke-dasharray:none;stroke-opacity:1" id="path4427" d="m 15.745311,1009.2387 c 2.529907,6.9519 15.92855,4.2255 12.075379,-5.686"/><path style="fill:#000;fill-rule:evenodd;stroke:none;stroke-width:1px;stroke-linecap:butt;stroke-linejoin:miter;stroke-opacity:1" id="path4429" d="m 15.790616,1009.3609 c 0.03261,-0.057 0.06644,-0.1121 0.101291,-0.1664 -0.439852,-0.9956 -0.491657,-2.3153 -0.501291,-3.3936 -0.09342,1.0506 -0.153636,2.4189 0.209752,3.5058 0.06348,0.02 0.126922,0.038 0.190248,0.054 z"/><path style="fill:#000;fill-rule:evenodd;stroke:none;stroke-width:1px;stroke-linecap:butt;stroke-linejoin:miter;stroke-opacity:1" id="path4433" d="m 27.855615,1003.631 c 0.04287,-0.038 0.08657,-0.074 0.131079,-0.1091 -0.382398,-0.8516 -0.0701,-1.7704 -0.362145,-3.5061 0.166809,1.6111 -0.224826,2.7245 0.05911,3.6201 0.0576,-10e-5 0.114918,-0 0.171958,-0 z"/><path style="fill:#000;fill-rule:evenodd;stroke:none;stroke-width:1px;stroke-linecap:butt;stroke-linejoin:miter;stroke-opacity:1" id="path4437" d="m 28.08062,1004.271 c 0.0326,-0.01 0.0652,-0.015 0.09782,-0.022 -0.224672,-1.2645 0.01986,-2.1914 0.578086,-2.9072 0.562655,-0.7214 1.443962,-1.228 2.484099,-1.63593 -1.046246,0.37453 -1.959202,0.85503 -2.561927,1.57293 -0.605645,0.7214 -0.897788,1.6825 -0.697751,3.0027 0.03323,-0 0.06646,-0.01 0.09968,-0.011 z"/><path style="fill:#000;fill-rule:evenodd;stroke:none;stroke-width:1px;stroke-linecap:butt;stroke-linejoin:miter;stroke-opacity:1" id="path4441" d="m 13.560351,1017.6815 c -2.2e-5,0 0.142942,-0.01 0.142921,-0.01 -0.09285,-1.246 -0.117226,-2.7026 0.161136,-3.7686 -0.372593,1.048 -0.445271,2.5132 -0.447132,3.779 2e-5,0 0.143055,-0 0.143075,-0 z"/><ellipse style="opacity:1;fill:#666;fill-opacity:1;stroke:#000;stroke-width:.064;stroke-linecap:butt;stroke-linejoin:miter;stroke-miterlimit:4;stroke-dasharray:none;stroke-dashoffset:0;stroke-opacity:1" id="path4445" cx="-504.512" cy="872.906" rx="1.304" ry="1.615" transform="matrix(0.86369875,-0.50400841,0.50400841,0.86369875,0,0)"/><ellipse style="display:inline;opacity:1;fill:#666;fill-opacity:1;stroke:#000;stroke-width:.05750851;stroke-linecap:butt;stroke-linejoin:miter;stroke-miterlimit:4;stroke-dasharray:none;stroke-dashoffset:0;stroke-opacity:1" id="path4445-0" cx="742.712" cy="684.605" rx="1.304" ry="1.615" transform="matrix(0.69488219,0.71912359,-0.71912359,0.69488219,0,0)"/><path style="fill:#000;fill-rule:evenodd;stroke:none;stroke-width:1px;stroke-linecap:butt;stroke-linejoin:miter;stroke-opacity:1" id="path4506" d="m 16.030616,993.27596 c -0.73284,-0.14239 -1.317078,-0.93524 -1.726341,-1.6045 -0.03789,0.005 -0.07577,0.01 -0.113659,0.0145 -0.01897,0.0331 -0.03778,0.0665 -0.05643,0.0999 0.477531,0.64841 1.132916,1.41221 1.896428,1.49008 z"/><path style="fill:#000;fill-rule:evenodd;stroke:none;stroke-width:1px;stroke-linecap:butt;stroke-linejoin:miter;stroke-opacity:1" id="path4510" d="m 8.6906164,991.93599 c 0.7256155,-0.007 1.8245306,0.0892 2.9011806,0.11319 0.996057,0.0222 1.988115,-0.0163 2.635833,-0.26627 0.0381,-0.0452 0.07256,-0.0908 0.102986,-0.13665 -0.05481,-0.003 -0.109974,-0.009 -0.165096,-0.0157 -0.606724,0.26182 -1.569135,0.32925 -2.572947,0.3334 -1.072344,0.004 -2.1773382,-0.063 -2.9019566,-0.028 z"/><path style="fill:#000;fill-rule:evenodd;stroke:none;stroke-width:1px;stroke-linecap:butt;stroke-linejoin:miter;stroke-opacity:1" id="path4514" d="m 19.573112,992.51346 c 0.02831,0.0291 0.05667,0.0582 0.08506,0.0873 2.902067,0.0129 5.736354,-0.21625 8.592443,-0.76479 -2.865698,0.49202 -5.699174,0.66286 -8.589982,0.59282 -0.02912,0.0283 -0.05829,0.0565 -0.08752,0.0847 z"/><path style="fill:#000;fill-rule:evenodd;stroke:none;stroke-width:1px;stroke-linecap:butt;stroke-linejoin:miter;stroke-opacity:1" id="path4518" d="m 19.648624,992.43375 c -0.266891,0.21287 -0.52677,0.34015 -0.818008,0.52221 0.305429,-0.11799 0.611142,-0.19729 0.922,-0.36279 z"/><ellipse id="ellipse4556" cx="-504.907" cy="873.056" rx=".639" ry=".792" transform="matrix(0.86369875,-0.50400841,0.50400841,0.86369875,0,0)" style="opacity:1;fill:#4d4d4d;fill-opacity:1;stroke:#000;stroke-width:.03136;stroke-linecap:butt;stroke-linejoin:miter;stroke-miterlimit:4;stroke-dasharray:none;stroke-dashoffset:0;stroke-opacity:1"/><ellipse id="ellipse4558" cx="743.137" cy="684.801" rx=".639" ry=".792" transform="matrix(0.69488219,0.71912359,-0.71912359,0.69488219,0,0)" style="display:inline;opacity:1;fill:#4d4d4d;fill-opacity:1;stroke:#000;stroke-width:.028;stroke-linecap:butt;stroke-linejoin:miter;stroke-miterlimit:4;stroke-dasharray:none;stroke-dashoffset:0;stroke-opacity:1"/></g></svg>