<svg xmlns="http://www.w3.org/2000/svg" xmlns:svg="http://www.w3.org/2000/svg" id="svg4311" width="100%" height="100%" version="1.1" viewBox="0 0 64 64"><metadata id="metadata4316"/><g id="layer1" transform="translate(0,-988.36216)" style="display:inline"><g id="g3356" transform="matrix(0.91698216,0,0,0.93594156,0.27340339,62.623539)"><path id="path4242" d="m 29.528714,1020.2375 c 0.225815,-4.5625 3.405558,-6.8681 3.467652,-11.6585 0.0637,-4.9144 -1.612675,-9.99617 -9.715408,-15.6343 l -19.4607047,-0.0299 -0.4185098,27.2928 z" style="fill:gray;fill-rule:evenodd;stroke:#000;stroke-width:.23914845;stroke-linecap:butt;stroke-linejoin:miter;stroke-miterlimit:4;stroke-dasharray:none;stroke-opacity:1"/><path id="path4246" d="m 12.623676,1020.2176 c 10.62439,-1.6123 15.769262,-11.319 9.790599,-21.41786" style="fill:none;fill-rule:evenodd;stroke:#000;stroke-width:.23914845;stroke-linecap:butt;stroke-linejoin:miter;stroke-miterlimit:4;stroke-dasharray:none;stroke-opacity:1"/><path id="path4248" d="m 21.072016,1016.3073 c -0.01936,0.049 -0.03733,0.099 -0.05394,0.1501 0.543302,0.3853 1.450461,0.6042 2.354867,0.6719 0.937918,0.07 1.903389,-0.02 2.529091,-0.2777 -0.639071,0.2083 -1.598515,0.2445 -2.513511,0.1253 -0.900476,-0.1173 -1.735444,-0.3823 -2.186529,-0.7598 -0.04246,0.031 -0.08578,0.061 -0.129979,0.09 z" style="fill:#000;fill-rule:evenodd;stroke:none;stroke-width:1px;stroke-linecap:butt;stroke-linejoin:miter;stroke-opacity:1"/><path id="path4256" d="m 18.250098,1018.3629 c -0.687064,0.642 -1.002291,1.2894 -1.321119,1.8972" style="fill:none;fill-rule:evenodd;stroke:#000;stroke-width:.23914845;stroke-linecap:butt;stroke-linejoin:miter;stroke-miterlimit:4;stroke-dasharray:none;stroke-opacity:1"/><path id="path4258" d="m 22.531179,998.76261 c -0.809747,-1.29605 -2.084769,-2.60774 -3.039226,-4.70438 0.880756,2.12754 2.108339,3.51731 2.832766,4.826 z" style="fill:#000;fill-rule:evenodd;stroke:none;stroke-width:1px;stroke-linecap:butt;stroke-linejoin:miter;stroke-opacity:1"/></g></g></svg>