<svg xmlns="http://www.w3.org/2000/svg" xmlns:svg="http://www.w3.org/2000/svg" id="svg4311" width="100%" height="100%" version="1.1" viewBox="0 0 64 64"><metadata id="metadata4316"/><g id="layer1" transform="translate(0,-988.36216)" style="display:inline"><path style="fill:gray;fill-opacity:1;fill-rule:evenodd;stroke:#000;stroke-width:.31999999;stroke-linecap:butt;stroke-linejoin:miter;stroke-miterlimit:4;stroke-dasharray:none;stroke-opacity:1" id="path4417" d="m 6.185234,1017.6109 c -0.088461,-2.4891 -0.5377857,-4.9427 -1.0279617,-7.4317 -0.1824093,-0.2212 -2.6182761,-2.388 -0.046848,-10.642 0.1904512,-1.84121 -0.1087232,-3.62092 0.3525504,-5.40371 0.2864064,-1.10694 0.70416,-2.28243 0.988608,-2.58201 0,0 16.7147392,-0.65152 25.2880322,0.624 0.589229,0.0877 1.660877,0.5264 1.984205,0.88076 0.151398,0.16602 0.223136,1.66516 0.240697,1.885 1.042695,13.05096 -7.217632,19.75426 -7.188339,22.69786 z"/><path style="fill:#000;fill-rule:evenodd;stroke:none;stroke-width:1px;stroke-linecap:butt;stroke-linejoin:miter;stroke-opacity:1" id="path4419" d="m 5.0679988,999.622 c 0.06227,-0.001 0.1246801,-0.003 0.1872186,-0.005 0.4670678,-0.72637 0.8707235,-1.50444 1.1704262,-2.30051 -0.3895081,0.75486 -0.874688,1.47372 -1.4101744,2.12618 0.017867,0.0594 0.035377,0.1191 0.05253,0.17897 z"/><path style="fill:#000;fill-rule:evenodd;stroke:none;stroke-width:1px;stroke-linecap:butt;stroke-linejoin:miter;stroke-opacity:1" id="path4423" d="m 5.0496574,1010.1281 c 0.00893,0.061 0.021291,0.1231 0.036688,0.1856 0.6180851,0.2419 1.6199937,0.4053 2.7959988,0.4729 1.2499868,0.072 2.7148635,0.036 4.1620635,-0.1389 -1.452616,0.1228 -2.9133689,0.1052 -4.1497154,-0.018 -1.1726343,-0.1172 -2.1326243,-0.329 -2.686097,-0.597 -0.052335,0.033 -0.1054568,0.065 -0.1589382,0.096 z"/><path style="fill:none;fill-rule:evenodd;stroke:#000;stroke-width:.25;stroke-linecap:butt;stroke-linejoin:miter;stroke-miterlimit:4;stroke-dasharray:none;stroke-opacity:1" id="path4427" d="m 20.567838,1011.5251 c 6.154075,0.2708 5.982762,-0.1509 7.252852,-7.9724"/><path style="fill:#000;fill-rule:evenodd;stroke:none;stroke-width:1px;stroke-linecap:butt;stroke-linejoin:miter;stroke-opacity:1" id="path4429" d="m 20.707333,1011.531 c -0.04157,-0.042 -0.08216,-0.085 -0.121798,-0.1276 -1.019218,-0.01 -1.651941,-0.078 -3.304833,-0.469 1.627584,0.4683 2.257484,0.6255 3.293757,0.7135 0.04389,-0.039 0.08812,-0.078 0.132874,-0.1169 z"/><path style="fill:#000;fill-rule:evenodd;stroke:none;stroke-width:1px;stroke-linecap:butt;stroke-linejoin:miter;stroke-opacity:1" id="path4433" d="m 27.816552,1003.6544 c 0.03986,-0.018 0.07974,-0.036 0.119652,-0.053 -0.02568,-0.8641 0.01052,-1.1888 -0.116352,-2.9448 0.04753,1.7578 -0.0675,2.0721 -0.12133,2.9409 0.03929,0.019 0.07868,0.038 0.11803,0.057 z"/><path style="fill:#000;fill-rule:evenodd;stroke:none;stroke-width:1px;stroke-linecap:butt;stroke-linejoin:miter;stroke-opacity:1" id="path4437" d="m 27.760307,1004.1382 c 0.03333,0 0.06667,0 0.09999,0.01 0.127357,-1.2019 0.454649,-2.1055 1.005558,-2.8106 0.553433,-0.7085 1.335719,-1.2207 2.37476,-1.62823 -1.047427,0.37503 -1.860015,0.86153 -2.452517,1.56503 -0.59338,0.7047 -0.96258,1.6229 -1.12652,2.85 0.0329,0.01 0.06581,0.012 0.09872,0.017 z"/><path style="fill:#000;fill-rule:evenodd;stroke:none;stroke-width:1px;stroke-linecap:butt;stroke-linejoin:miter;stroke-opacity:1" id="path4441" d="m 13.560351,1017.6815 c -2.2e-5,0 0.142942,-0.01 0.142921,-0.01 -0.09285,-1.246 -0.117226,-2.7026 0.161136,-3.7686 -0.372593,1.048 -0.445271,2.5132 -0.447132,3.779 2e-5,0 0.143055,-0 0.143075,-0 z"/><ellipse style="opacity:1;fill:#666;fill-opacity:1;stroke:#000;stroke-width:.03697404;stroke-linecap:butt;stroke-linejoin:miter;stroke-miterlimit:4;stroke-dasharray:none;stroke-dashoffset:0;stroke-opacity:1" id="path4445" cx="-659.265" cy="973.345" rx=".816" ry=".862" transform="matrix(0.92261409,-0.38572431,0.63152884,0.77535239,0,0)"/><ellipse style="display:inline;opacity:1;fill:#666;fill-opacity:1;stroke:#000;stroke-width:.03288752;stroke-linecap:butt;stroke-linejoin:miter;stroke-miterlimit:4;stroke-dasharray:none;stroke-dashoffset:0;stroke-opacity:1" id="path4445-0" cx="828.887" cy="776.35" rx=".743" ry=".927" transform="matrix(0.7669142,0.64174965,-0.78799403,0.61568289,0,0)"/><path style="fill:#000;fill-rule:evenodd;stroke:none;stroke-width:1px;stroke-linecap:butt;stroke-linejoin:miter;stroke-opacity:1" id="path4506" d="m 16.030616,993.27596 c -0.73284,-0.14239 -1.317078,-0.93524 -1.726341,-1.6045 -0.03789,0.005 -0.07577,0.01 -0.113659,0.0145 -0.01897,0.0331 -0.03778,0.0665 -0.05643,0.0999 0.477531,0.64841 1.132916,1.41221 1.896428,1.49008 z"/><path style="fill:#000;fill-rule:evenodd;stroke:none;stroke-width:1px;stroke-linecap:butt;stroke-linejoin:miter;stroke-opacity:1" id="path4510" d="m 8.6906164,991.93599 c 0.7256155,-0.007 1.8245306,0.0892 2.9011806,0.11319 0.996057,0.0222 1.988115,-0.0163 2.635833,-0.26627 0.0381,-0.0452 0.07256,-0.0908 0.102986,-0.13665 -0.05481,-0.003 -0.109974,-0.009 -0.165096,-0.0157 -0.606724,0.26182 -1.569135,0.32925 -2.572947,0.3334 -1.072344,0.004 -2.1773382,-0.063 -2.9019566,-0.028 z"/><path style="fill:#000;fill-rule:evenodd;stroke:none;stroke-width:1px;stroke-linecap:butt;stroke-linejoin:miter;stroke-opacity:1" id="path4514" d="m 19.573112,992.51346 c 0.02831,0.0291 0.05667,0.0582 0.08506,0.0873 2.902067,0.0129 5.736354,-0.21625 8.592443,-0.76479 -2.865698,0.49202 -5.699174,0.66286 -8.589982,0.59282 -0.02912,0.0283 -0.05829,0.0565 -0.08752,0.0847 z"/><path style="fill:#000;fill-rule:evenodd;stroke:none;stroke-width:1px;stroke-linecap:butt;stroke-linejoin:miter;stroke-opacity:1" id="path4518" d="m 19.648624,992.43375 c -0.266891,0.21287 -0.52677,0.34015 -0.818008,0.52221 0.305429,-0.11799 0.611142,-0.19729 0.922,-0.36279 z"/><ellipse id="ellipse4556" cx="-659.448" cy="973.457" rx=".4" ry=".422" transform="matrix(0.92261409,-0.38572431,0.63152884,0.77535239,0,0)" style="opacity:1;fill:#4d4d4d;fill-opacity:1;stroke:#000;stroke-width:.01811728;stroke-linecap:butt;stroke-linejoin:miter;stroke-miterlimit:4;stroke-dasharray:none;stroke-dashoffset:0;stroke-opacity:1"/><ellipse id="ellipse4558" cx="828.964" cy="776.526" rx=".364" ry=".454" transform="matrix(0.7669142,0.64174965,-0.78799403,0.61568289,0,0)" style="display:inline;opacity:1;fill:#4d4d4d;fill-opacity:1;stroke:#000;stroke-width:.01601243;stroke-linecap:butt;stroke-linejoin:miter;stroke-miterlimit:4;stroke-dasharray:none;stroke-dashoffset:0;stroke-opacity:1"/></g></svg>