<svg xmlns="http://www.w3.org/2000/svg" xmlns:svg="http://www.w3.org/2000/svg" id="svg4311" width="100%" height="100%" version="1.1" viewBox="0 0 64 64"><metadata id="metadata4316"/><g id="layer1" transform="translate(0,-988.36216)" style="display:inline"><g id="g4193" transform="translate(-71.253574,-44.224506)"><path id="path4185" d="m 75.859303,1041.3357 c -0.640663,11.2126 2.977056,16.0373 4.70668,20.8818 1.58331,0.1736 3.213926,0.2763 5.126525,-0.044 0.461131,-9.7272 3.353148,-16.8026 -9.833205,-20.838 z" style="fill:gray;fill-opacity:1;fill-rule:evenodd;stroke:#000;stroke-width:.25;stroke-linecap:butt;stroke-linejoin:miter;stroke-miterlimit:4;stroke-dasharray:none;stroke-opacity:1"/><path id="path4187" d="m 85.692508,1062.1512 c 0.964264,0.4134 5.42736,0.4271 6.621995,0.063 2.138841,-8.7071 5.930881,-16.6187 3.874121,-22.9337 -13.183526,6.2085 -9.070276,10.0401 -10.496116,22.8705 z" style="fill:gray;fill-opacity:1;fill-rule:evenodd;stroke:#000;stroke-width:.25;stroke-linecap:butt;stroke-linejoin:miter;stroke-miterlimit:4;stroke-dasharray:none;stroke-opacity:1"/><path id="path4191" d="m 75.843754,1040.5497 c -0.0058,-1.4504 0.946312,-2.4622 1.474493,-4.625 l 17.760343,0.01 c 0.21983,0.8685 0.852489,1.3008 0.983915,2.5832 -6.291596,4.0423 -12.857288,7.0418 -20.218751,2.0313 z" style="fill:gray;fill-opacity:1;fill-rule:evenodd;stroke:#000;stroke-width:.25;stroke-linecap:butt;stroke-linejoin:miter;stroke-miterlimit:4;stroke-dasharray:none;stroke-opacity:1"/><path id="path4189" d="m 75.859304,1040.2751 c -0.03535,0.6482 -0.08476,1.2963 0,1.9445 6.069924,1.8439 6.337673,2.1037 9.137146,5.0602 0.817525,0.1399 1.295608,-0.041 1.878252,-0.254 2.169051,-4.0788 7.238568,-6.1927 9.313923,-7.5462 0.04467,-0.5243 -0.0228,-0.9839 -0.220973,-1.5799 -7.160625,3.5541 -11.121708,5.7848 -20.108348,2.3754 z" style="fill:#333;fill-opacity:1;fill-rule:evenodd;stroke:#000;stroke-width:.30000001;stroke-linecap:butt;stroke-linejoin:miter;stroke-miterlimit:4;stroke-dasharray:none;stroke-opacity:1"/></g></g></svg>