<svg xmlns="http://www.w3.org/2000/svg" xmlns:svg="http://www.w3.org/2000/svg" id="svg4311" width="100%" height="100%" version="1.1" viewBox="0 0 64 64"><metadata id="metadata4316"/><g id="layer1" transform="translate(0,-988.36216)" style="display:inline"><path style="fill:#666;fill-opacity:1;fill-rule:evenodd;stroke:#000;stroke-width:.30387655;stroke-linecap:butt;stroke-linejoin:miter;stroke-miterlimit:4;stroke-dasharray:none;stroke-opacity:1" id="path4290" d="m 12.661527,1013.2737 c 2.193639,-0.6962 3.774478,-2.8777 4.661292,-4.5381 l -4.153623,-1.5999 z"/><path style="fill:#666;fill-opacity:1;fill-rule:evenodd;stroke:#000;stroke-width:.30387655;stroke-linecap:butt;stroke-linejoin:miter;stroke-miterlimit:4;stroke-dasharray:none;stroke-opacity:1" id="path4292" d="m 18.291989,1008.9662 c 0.674532,2.0501 3.536698,3.747 5.43046,3.8307 l -0.338443,-5.5997 z"/><path style="fill:gray;fill-opacity:1;fill-rule:evenodd;stroke:#000;stroke-width:.243;stroke-linecap:butt;stroke-linejoin:miter;stroke-miterlimit:4;stroke-dasharray:none;stroke-opacity:1" id="path4280" d="m 13.580895,1014.7831 c 0.05383,-2.0858 0.05687,-4.1927 0.05433,-6.302 1.085665,0.7926 2.02594,1.9562 3.916068,0.6961 3.281322,1.2319 4.112656,-0.5261 4.829809,-1.2183 0.01908,2.2832 0.239584,4.4992 0.56746,6.6795 3.38806,-0.1167 5.914624,0.5795 8.356906,-2.2383 3.234503,-3.7318 3.128199,-13.97101 -1.171156,-18.33368 -2.270454,-2.3039 -6.665803,-1.58745 -12.734281,-1.5012 -5.188384,0.0738 -9.872551,-0.45971 -11.9352525,2.02257 -4.3790157,5.26976 -3.1673895,16.42061 -0.087075,19.04671 2.2151837,1.8885 4.9449965,1.2829 8.2031915,1.1486 z"/><path style="fill:#000;fill-rule:evenodd;stroke:none;stroke-width:1px;stroke-linecap:butt;stroke-linejoin:miter;stroke-opacity:1" id="path4282" d="m 13.683578,1008.7445 c 0.05428,-0.025 0.107733,-0.053 0.160129,-0.086 -0.04729,-0.6376 -0.528449,-1.5513 -1.223863,-2.5583 -0.734615,-1.0637 -1.735999,-2.2706 -2.8144051,-3.4385 -1.0789438,-1.1685 -2.2371534,-2.3004 -3.2865026,-3.21394 -1.0496204,-0.91381 -1.9902066,-1.60905 -2.6323259,-1.90331 0.6279304,0.31775 1.5496138,1.03321 2.5778912,1.9646 1.028651,0.93175 2.1644404,2.07995 3.219526,3.26285 1.0555524,1.1834 2.0284304,2.3993 2.7319844,3.4659 0.680664,1.0319 1.087774,1.8925 1.103737,2.4384 0.0552,0.02 0.109994,0.043 0.163829,0.068 z"/><path style="fill:#000;fill-rule:evenodd;stroke:none;stroke-width:1px;stroke-linecap:butt;stroke-linejoin:miter;stroke-opacity:1" id="path4286" d="m 22.366873,1008.2196 c 0.04244,-0 0.08489,-0 0.127332,-0.01 -0.04095,-1.434 0.621701,-3.154 2.059937,-5.0621 1.437354,-1.9069 3.637171,-3.98562 6.639757,-6.13712 -3.025276,2.1155 -5.260848,4.16672 -6.740872,6.05952 -1.47588,1.8874 -2.213155,3.6333 -2.213623,5.1432 0.04249,0 0.08498,0 0.127469,0 z"/><path style="fill:#333;fill-rule:evenodd;stroke:#000;stroke-width:.24614;stroke-linecap:butt;stroke-linejoin:miter;stroke-miterlimit:4;stroke-dasharray:none;stroke-opacity:1" id="path4294" d="m 17.234286,1009.2882 c -0.158602,-0.5142 -0.569804,-1.5834 -0.7422,-2.6448 0.640998,1.0255 1.191928,2.0553 1.226841,2.546 -0.162177,0.015 -0.282067,0.071 -0.484641,0.098 z"/></g></svg>