<svg xmlns="http://www.w3.org/2000/svg" xmlns:svg="http://www.w3.org/2000/svg" xmlns:xlink="http://www.w3.org/1999/xlink" id="svg4311" width="100%" height="100%" version="1.1" viewBox="0 0 64 64"><defs id="defs4313"><linearGradient id="linearGradient4332"><stop style="stop-color:#666;stop-opacity:1" id="stop4334" offset="0"/><stop style="stop-color:gray;stop-opacity:1" id="stop4336" offset="1"/></linearGradient><linearGradient id="holeTooBig"><stop style="stop-color:#333;stop-opacity:1" id="stop4213" offset="0"/><stop style="stop-color:#666;stop-opacity:1" id="stop4215" offset="1"/></linearGradient><linearGradient id="linearGradient4270" x1="111.688" x2="99.375" y1="1026.175" y2="1035.362" gradientTransform="matrix(1.1014671,0,0,0.77347435,-72.789645,-1846.0012)" gradientUnits="userSpaceOnUse" xlink:href="#holeTooBig"/><linearGradient id="linearGradient4338" x1="139.875" x2="139.875" y1="1030.893" y2="1043.737" gradientTransform="matrix(0.98637689,-0.16450116,0.16450116,0.98637689,-185.91067,36.624192)" gradientUnits="userSpaceOnUse" xlink:href="#linearGradient4332"/></defs><metadata id="metadata4316"/><g id="layer1" transform="translate(0,-988.36216)" style="display:inline"><g id="g4340" transform="matrix(1.3400956,0,0,1.3400956,-118.824,-350.37819)"><ellipse id="path4209-2" cx="41.969" cy="-1049.526" rx="9.982" ry="6.671" transform="matrix(-0.99697594,0.07771089,-0.15914327,-0.9872555,0,0)" style="opacity:1;fill:url(#linearGradient4270);fill-opacity:1;stroke:#000;stroke-width:.23075372;stroke-linecap:butt;stroke-linejoin:miter;stroke-miterlimit:4;stroke-dasharray:none;stroke-dashoffset:0;stroke-opacity:1"/><path id="path4296-0" d="m 119.40534,1030.2017 2.60697,15.5021 c 1.02583,0.2414 2.54548,0.4086 3.85265,0.2951 l -2.61626,-16.3935 z" style="display:inline;fill:url(#linearGradient4338);fill-opacity:1;fill-rule:evenodd;stroke:#000;stroke-width:.25;stroke-linecap:butt;stroke-linejoin:miter;stroke-miterlimit:4;stroke-dasharray:none;stroke-opacity:1"/><path id="path4290-3" d="m 117.89478,1030.8633 c 2.08753,0.9518 5.49171,-0.025 6.99763,-1.1245 l -0.26479,-1.6825 c -0.11716,-0.7451 -0.75763,-1.3837 -2.03975,-1.7825 -0.63866,-0.232 -2.90471,0.068 -3.65268,0.6092 -0.77366,0.5946 -1.51426,1.2735 -1.36892,2.145 z" style="display:inline;fill:#999;fill-rule:evenodd;stroke:#000;stroke-width:.25;stroke-linecap:butt;stroke-linejoin:miter;stroke-miterlimit:4;stroke-dasharray:none;stroke-opacity:1"/><path id="path4292-8" d="m 117.55993,1028.9423 c 2.31526,1.2214 6.48104,-0.2335 7.04845,-1.1441" style="display:inline;fill:none;fill-rule:evenodd;stroke:#000;stroke-width:.1;stroke-linecap:butt;stroke-linejoin:miter;stroke-miterlimit:4;stroke-dasharray:none;stroke-opacity:1"/><path id="path4294-1" d="m 118.86624,1027.0546 c 0.43584,0.7176 3.66411,0.1453 3.80381,-0.6902" style="display:inline;fill:none;fill-rule:evenodd;stroke:#000;stroke-width:.1;stroke-linecap:butt;stroke-linejoin:miter;stroke-miterlimit:4;stroke-dasharray:none;stroke-opacity:1"/></g></g></svg>