<svg xmlns="http://www.w3.org/2000/svg" xmlns:svg="http://www.w3.org/2000/svg" id="svg4311" width="100%" height="100%" version="1.1" viewBox="0 0 64 64"><metadata id="metadata4316"/><g id="layer1" transform="translate(0,-988.36216)" style="display:inline"><g id="g4142" transform="matrix(0.73509189,0,0,0.73509189,18.159434,279.27479)"><path id="path4213" d="m 25.460877,1038.5953 c -5.454062,2.4942 -4.605645,7.4058 -0.953037,9.9188 2.886922,1.986 7.031508,1.7664 8.604731,0.045 9.63106,2.9255 9.939587,-5.4558 8.660702,-7.5677 9.722895,-5.578 13.719927,-13.5972 18.246337,-20.6006 1.124083,-2.1996 1.375655,-5.3922 -1.681693,-6.1383 -1.996042,-0.4869 -6.686611,1.6904 -10.174224,5.0451 -0.326064,0.3137 -0.190922,1.1028 0.504508,1.3454 -5.739057,7.6651 -13.481551,13.5043 -23.207324,17.952 z" style="fill:gray;fill-rule:evenodd;stroke:#000;stroke-width:.2378269px;stroke-linecap:butt;stroke-linejoin:miter;stroke-opacity:1"/><path id="path4226" d="m 48.70317,1020.5277 c 0.565177,0.2012 1.089824,0.1372 1.909824,0.022 0.813162,-0.1139 1.880625,-0.2696 3.513126,-0.2264 -1.631165,-0 -2.691157,0.1963 -3.492401,0.3509 -0.794595,0.1534 -1.367394,0.2744 -2.006813,0.094 z" style="fill:#000;fill-rule:evenodd;stroke:none;stroke-width:1px;stroke-linecap:butt;stroke-linejoin:miter;stroke-opacity:1"/><path id="path4230" d="m 33.019533,1048.6356 c 0.0399,0 0.07992,0 0.120199,0 0.481224,-0.6477 1.207319,-1.5497 1.395426,-2.3465 -0.246288,0.7687 -1.014974,1.6212 -1.543944,2.2268 0.0092,0.039 0.01858,0.078 0.02832,0.117 z" style="fill:#000;fill-rule:evenodd;stroke:none;stroke-width:1px;stroke-linecap:butt;stroke-linejoin:miter;stroke-opacity:1"/><path id="path4242" d="m 59.953128,1020.5028 c 0.01808,-0.019 0.03609,-0.038 0.05404,-0.058 -0.07895,-0.067 -0.210528,-0.1117 -0.350202,-0.1441 -0.144806,-0.034 -0.316213,-0.058 -0.488439,-0.076 -0.345428,-0.037 -0.702175,-0.049 -0.87946,-0.058 0.172015,0.035 0.532764,0.075 0.868171,0.1362 0.169449,0.031 0.333383,0.068 0.467917,0.1122 0.137249,0.045 0.232665,0.095 0.272721,0.1438 0.01835,-0.019 0.03677,-0.038 0.05525,-0.056 z" style="fill:#000;fill-rule:evenodd;stroke:none;stroke-width:1px;stroke-linecap:butt;stroke-linejoin:miter;stroke-opacity:1"/></g></g></svg>