<svg xmlns="http://www.w3.org/2000/svg" xmlns:svg="http://www.w3.org/2000/svg" id="svg4311" width="100%" height="100%" version="1.1" viewBox="0 0 64 64"><metadata id="metadata4316"/><g id="layer1" transform="translate(0,-988.36216)" style="display:inline"><g id="g4147" transform="matrix(0.73509189,0,0,0.73509189,17.70768,279.01883)"><path id="path4168" d="m 61.263025,1011.3116 c -1.724609,-1.8043 -11.14896,3.2177 -12.886438,9.927 -1.937162,7.4803 1.202829,8.4433 0.378135,12.5063 -0.87223,4.2972 -6.088709,6.611 -8.175081,7.0385 -3.013709,0.6177 -4.740339,-0.5839 -9.787079,2.1834 0.967601,-0.5978 0.844805,-1.3941 3.030653,-1.7703 -5.629211,-1.6999 -10.297321,4.7777 -12.402544,8.0713 5.965505,-1.611 11.316294,-1.0174 14.202064,-4.0415 -1.764064,-0.1937 -2.214503,-0.1428 -3.344917,-0.5867 2.674169,-2.2356 5.929811,-1.0254 8.851409,-1.7291 3.136025,-0.7553 8.822342,-3.1749 10.39621,-8.613 1.317075,-4.5509 -1.789466,-7.8169 -0.387642,-12.4064 1.657706,-5.4272 11.902124,-8.7203 10.12523,-10.5795 z" style="fill:gray;fill-opacity:1;fill-rule:evenodd;stroke:#000;stroke-width:.25525633;stroke-linecap:butt;stroke-linejoin:miter;stroke-miterlimit:4;stroke-dasharray:none;stroke-opacity:1"/><path id="path4170" d="m 30.984317,1042.8506 c -0.03814,-0.03 -0.0757,-0.06 -0.112571,-0.091 -0.230789,0.1789 -0.565593,0.3389 -0.94556,0.6118 -0.386393,0.2775 -0.765471,0.6403 -0.996851,1.1768 0.272032,-0.5121 0.6791,-0.8313 1.073582,-1.0578 0.443842,-0.2549 0.682057,-0.3133 1.019169,-0.4993 -0.01127,-0.047 -0.02379,-0.094 -0.03777,-0.1407 z" style="fill:#000;fill-rule:evenodd;stroke:none;stroke-width:1px;stroke-linecap:butt;stroke-linejoin:miter;stroke-opacity:1"/><path id="path4174" d="m 32.550177,1044.4688 c -0.09656,0.037 -0.189851,0.061 -0.279252,0.074 -0.450793,0.2791 -0.962316,0.2534 -1.51197,0.16 -0.631626,-0.1073 -1.276036,-0.2946 -1.845864,-0.1302 0.571233,-0.1276 1.197497,0.093 1.824815,0.236 0.537812,0.1227 1.104041,0.1972 1.633763,-0.092 0.06593,-0.077 0.125045,-0.1595 0.178508,-0.248 z" style="fill:#000;fill-rule:evenodd;stroke:none;stroke-width:1px;stroke-linecap:butt;stroke-linejoin:miter;stroke-opacity:1"/></g></g></svg>