<svg xmlns="http://www.w3.org/2000/svg" xmlns:svg="http://www.w3.org/2000/svg" id="svg4311" width="100%" height="100%" version="1.1" viewBox="0 0 64 64"><metadata id="metadata4316"/><g id="layer1" transform="translate(0,-988.36216)" style="display:inline"><path style="display:inline;fill:#999;fill-rule:evenodd;stroke:#000;stroke-width:.23368797;stroke-linecap:butt;stroke-linejoin:miter;stroke-miterlimit:4;stroke-dasharray:none;stroke-opacity:1" id="path4218-4" d="m 52.264787,1033.3111 c -1.965859,-0.3622 -5.92322,-4.446 -10.412556,0.038 -0.782616,0.7817 -1.541561,1.5313 -2.019876,2.4242 -1.654243,3.0883 -3.88515,11.7315 -0.04956,14.1665 3.182433,2.0201 9.079909,-1.4446 13.896744,-4.5506 4.684471,-3.0206 8.755358,-5.9384 8.246484,-8.3121 -1.666333,-7.7728 -7.016444,-3.279 -9.661236,-3.766 z"/><path style="fill:#000;fill-rule:evenodd;stroke:none;stroke-width:1px;stroke-linecap:butt;stroke-linejoin:miter;stroke-opacity:1" id="path4294" d="m 52.069685,1033.2618 c 0.0045,-0.023 0.02534,-0.023 -0.02777,0.053 -0.04113,0.059 -0.10972,0.1358 -0.204989,0.2284 -0.190221,0.1848 -0.468763,0.4162 -0.81091,0.6899 -0.682212,0.5456 -1.603687,1.2484 -2.545339,2.0657 -1.886559,1.6375 -3.849168,3.7316 -4.17828,5.9558 0.405352,-2.1924 2.415942,-4.2126 4.333471,-5.771 0.961002,-0.781 1.898897,-1.446 2.609626,-1.9628 0.352751,-0.2565 0.656258,-0.4813 0.873866,-0.6638 0.108481,-0.091 0.203641,-0.178 0.274539,-0.258 0.06229,-0.07 0.141798,-0.1741 0.156632,-0.2968 z"/></g></svg>