<svg xmlns="http://www.w3.org/2000/svg" xmlns:svg="http://www.w3.org/2000/svg" id="svg4311" width="100%" height="100%" version="1.1" viewBox="0 0 64 64"><metadata id="metadata4316"/><g id="layer1" transform="translate(0,-988.36216)" style="display:inline"><path style="display:inline;fill:#f53ca4;fill-rule:evenodd;stroke:#000;stroke-width:.5;stroke-linecap:butt;stroke-linejoin:miter;stroke-opacity:1;stroke-miterlimit:4;stroke-dasharray:none;fill-opacity:1" id="path4138" d="m 51.746193,1037.3605 6.845372,8.0813 1.048487,-2.3082 1.030288,6.3783 -6.458498,-1.282 2.471486,-0.9053 -7.786813,-7.2485 z"/><path style="display:inline;fill:#f53ca4;fill-rule:evenodd;stroke:#000;stroke-width:.5;stroke-linecap:butt;stroke-linejoin:miter;stroke-opacity:1;stroke-miterlimit:4;stroke-dasharray:none;fill-opacity:1" id="path4138-3" d="m 49.018982,1030.5091 8.268255,-6.6905 -2.361482,-1.0248 6.525882,-1.007 -1.311732,6.3124 -0.92618,-2.4156 -7.416278,7.6107 z"/><path style="display:inline;fill:#f53ca4;fill-rule:evenodd;stroke:#000;stroke-width:.5;stroke-linecap:butt;stroke-linejoin:miter;stroke-opacity:1;stroke-miterlimit:4;stroke-dasharray:none;fill-opacity:1" id="path4138-8" d="m 41.833371,1032.8481 -6.845378,-8.0813 -1.048482,2.3081 -1.030294,-6.3783 6.458498,1.2821 -2.471486,0.9052 7.786819,7.2485 z"/><path style="display:inline;fill:#f53ca4;fill-rule:evenodd;stroke:#000;stroke-width:.5;stroke-linecap:butt;stroke-linejoin:miter;stroke-opacity:1;stroke-miterlimit:4;stroke-dasharray:none;fill-opacity:1" id="path4138-34" d="m 44.858877,1040.2811 -8.268255,6.6905 2.361475,1.0248 -6.525878,1.007 1.311737,-6.3125 0.926179,2.4156 7.416276,-7.6107 z"/></g></svg>