<svg xmlns="http://www.w3.org/2000/svg" xmlns:svg="http://www.w3.org/2000/svg" xmlns:xlink="http://www.w3.org/1999/xlink" id="svg4206" version="1.1" viewBox="0 0 256 256"><style id="style3">svg{cursor:default}</style><defs id="defs4208"><linearGradient id="usedGradient3"><stop style="stop-color:#f55;stop-opacity:1" id="stop5117" offset="0"/><stop style="stop-color:#ff8080;stop-opacity:1" id="stop5119" offset="1"/></linearGradient><linearGradient id="linearGradient5113" x1="77.321" x2="78.036" y1="956.469" y2="929.148" gradientUnits="userSpaceOnUse" xlink:href="#usedGradient3"/></defs><metadata id="metadata4211"/><g id="layer1" transform="translate(0,-796.36216)" style="display:inline"><path style="display:inline;opacity:1;fill:url(#linearGradient5113);fill-opacity:1;fill-rule:evenodd;stroke:#000;stroke-width:.40373182;stroke-linecap:butt;stroke-linejoin:miter;stroke-miterlimit:4;stroke-dasharray:none;stroke-opacity:1" id="path4183-2-6-1" d="m 73.767698,904.76066 c -0.877642,25.98493 -7.843013,34.94355 -8.068947,42.97488 -0.132595,4.71314 0.823021,5.68168 2.645872,9.65142 1.858262,4.04698 0.03993,10.89548 7.075415,10.89247 10.19512,0 6.907121,-7.70996 8.926167,-11.72135 2.035011,-4.04319 2.485046,-5.20938 2.863742,-8.69055 0.348686,-3.20537 -3.686266,-11.95172 -4.067817,-17.84073 -0.381038,-5.88119 -1.14025,-12.493 -2.114372,-18.75968 -0.807346,-5.19375 1.186425,-4.05617 -1.936019,-9.27026 z"/><path style="display:inline;opacity:1;fill:#faa;fill-rule:evenodd;stroke:#000;stroke-width:.40373182;stroke-linecap:butt;stroke-linejoin:miter;stroke-miterlimit:4;stroke-dasharray:none;stroke-opacity:1" id="path4181-5-3-8" d="m 73.676531,902.58153 c 0.06334,1.72838 -0.247178,3.50703 1.863319,4.2343 2.697066,-0.93527 4.259305,-2.30931 5.133629,-3.94933 1.358849,-3.25908 -3.78241,-5.31922 -6.023632,-5.2488 z"/><path style="display:inline;opacity:1;fill:#ffd5d5;fill-rule:evenodd;stroke:#000;stroke-width:.40373182;stroke-linecap:butt;stroke-linejoin:miter;stroke-miterlimit:4;stroke-dasharray:none;stroke-opacity:1" id="path4177-0-2-0" d="m 74.546458,898.21294 c -0.620149,0.76097 -2.378531,0.72721 -1.34996,3.15536 0.859752,2.06495 1.997687,2.14432 3.156238,2.07646 0.351468,-0.9093 0.311703,-1.81858 0.380274,-2.72788 0.414568,-1.49049 0.688657,-2.90041 -2.186552,-2.50394 z"/><path style="display:inline;opacity:1;fill:#ffd5d5;fill-rule:evenodd;stroke:#000;stroke-width:.47591648;stroke-linecap:butt;stroke-linejoin:miter;stroke-miterlimit:4;stroke-dasharray:none;stroke-opacity:1" id="path4179-1-2-6" d="m 79.97438,898.66893 c -4.525719,-1.66251 -2.722831,1.05924 -3.119487,2.38965 -0.335208,1.12428 -0.556436,2.51341 0.668472,3.45172 1.711256,-0.13856 2.215557,-1.70324 3.05264,-3.04138 0.602097,-2.23021 0.411528,-2.42784 -0.601625,-2.79999 z"/><path style="display:inline;opacity:1;fill:#000;fill-rule:evenodd;stroke:none;stroke-width:1px;stroke-linecap:butt;stroke-linejoin:miter;stroke-opacity:1" id="path4275-9-09-4" d="m 78.762787,905.04763 c 1.209088,7.52311 1.256407,15.33242 2.222897,23.02052 -0.824464,-7.64806 -0.74616,-15.55235 -1.818231,-23.08184 z"/><path style="display:inline;opacity:1;fill:#000;fill-rule:evenodd;stroke:none;stroke-width:1px;stroke-linecap:butt;stroke-linejoin:miter;stroke-opacity:1" id="path4279-5-3-04" d="m 75.010238,906.55472 c 0.07225,7.26589 0.314158,14.93483 -1.397893,21.93207 1.847827,-6.97758 1.743005,-14.65945 1.807179,-21.93231 z"/><path style="display:inline;opacity:1;fill:#000;fill-rule:evenodd;stroke:none;stroke-width:1px;stroke-linecap:butt;stroke-linejoin:miter;stroke-opacity:1" id="path4283-10-2-2" d="m 69.238237,954.80853 c 1.5845,0.57548 4.374492,1.07937 7.12754,1.14849 -4e-6,0 0.02169,-4.6e-4 0.02168,-4.6e-4 2.765323,-0.0604 5.459925,-0.56279 6.80254,-1.84652 -1.405809,1.16985 -4.083444,1.5319 -6.802098,1.4653 -3e-6,0 -0.02136,-5.4e-4 -0.02136,-5.4e-4 -2.717548,0.0583 -5.509568,-0.31357 -7.128301,-0.76627 z"/></g></svg>