<svg xmlns="http://www.w3.org/2000/svg" xmlns:svg="http://www.w3.org/2000/svg" xmlns:xlink="http://www.w3.org/1999/xlink" id="svg4206" version="1.1" viewBox="0 0 256 256"><style id="style3">svg{cursor:default}</style><defs id="defs4208"><linearGradient id="usedGradient1"><stop style="stop-color:#f55;stop-opacity:1" id="stop5093" offset="0"/><stop style="stop-color:#ff8080;stop-opacity:1" id="stop5095" offset="1"/></linearGradient><linearGradient id="linearGradient5097" x1="21.02" x2="21.261" y1="937.717" y2="925.753" gradientUnits="userSpaceOnUse" xlink:href="#usedGradient1"/></defs><metadata id="metadata4211"/><g id="layer1" transform="translate(0,-796.36216)" style="display:inline"><path style="display:inline;opacity:1;fill:url(#linearGradient5097);fill-opacity:1;fill-rule:evenodd;stroke:#000;stroke-width:.35090196;stroke-linecap:butt;stroke-linejoin:miter;stroke-miterlimit:4;stroke-dasharray:none;stroke-opacity:1" id="path4183-2-4" d="m 19.057218,896.71533 c -0.795666,21.65181 -7.110428,29.11655 -7.315261,35.80861 -0.120203,3.92719 0.746153,4.73422 2.398733,8.04201 1.684692,3.37212 0.03625,9.07861 6.414529,9.07607 9.242834,0 6.26196,-6.42428 8.092413,-9.76674 1.844932,-3.36899 2.252937,-4.34069 2.596252,-7.24137 0.316117,-2.67084 -3.34194,-9.95871 -3.687848,-14.86568 -0.345451,-4.9005 -1.033753,-10.40974 -1.916889,-15.63143 -0.731927,-4.32768 1.075616,-3.37979 -1.755182,-7.72438 z"/><path style="display:inline;opacity:1;fill:#faa;fill-rule:evenodd;stroke:#000;stroke-width:.35090196;stroke-linecap:butt;stroke-linejoin:miter;stroke-miterlimit:4;stroke-dasharray:none;stroke-opacity:1" id="path4181-5-5" d="m 18.686347,894.10542 c 0.05742,1.44016 -0.224089,2.92221 1.689276,3.52822 2.445143,-0.77931 3.861464,-1.92422 4.654118,-3.29075 1.23193,-2.71563 -3.429117,-4.43222 -5.460997,-4.37356 z"/><path style="display:inline;opacity:1;fill:#ffd5d5;fill-rule:evenodd;stroke:#000;stroke-width:.35090196;stroke-linecap:butt;stroke-linejoin:miter;stroke-miterlimit:4;stroke-dasharray:none;stroke-opacity:1" id="path4177-0-1" d="m 18.669109,890.1192 c -0.562218,0.63407 -2.156365,0.60595 -1.223869,2.62919 0.779452,1.72061 1.811096,1.78674 2.86143,1.7302 0.318635,-0.75767 0.282589,-1.51532 0.344748,-2.273 0.375848,-1.24193 0.624334,-2.41674 -1.982309,-2.08639 z"/><path style="display:inline;opacity:1;fill:#ffd5d5;fill-rule:evenodd;stroke:#000;stroke-width:.35090196;stroke-linecap:butt;stroke-linejoin:miter;stroke-miterlimit:4;stroke-dasharray:none;stroke-opacity:1" id="path4179-1-7" d="m 22.650967,890.95036 c -3.501111,-1.16829 -2.106394,0.74439 -2.41325,1.6793 -0.259315,0.79008 -0.430457,1.76629 0.517132,2.42565 1.323838,-0.0974 1.713965,-1.19693 2.361535,-2.13729 0.465784,-1.56724 0.318361,-1.70612 -0.465417,-1.96766 z"/><path style="display:inline;opacity:1;fill:#000;fill-rule:evenodd;stroke:none;stroke-width:1px;stroke-linecap:butt;stroke-linejoin:miter;stroke-opacity:1" id="path4275-9-0" d="m 23.653282,895.87973 c 1.092984,6.2683 1.132046,12.77061 2.005367,19.17866 -0.750384,-6.37069 -0.683173,-12.96168 -1.658295,-19.23588 z"/><path style="display:inline;opacity:1;fill:#000;fill-rule:evenodd;stroke:none;stroke-width:1px;stroke-linecap:butt;stroke-linejoin:miter;stroke-opacity:1" id="path4279-5-0" d="m 20.366276,897.52953 c 0.06226,6.05389 0.278423,12.44339 -1.276965,18.27476 1.671976,-5.81303 1.573737,-12.21455 1.628721,-18.27498 z"/><path style="display:inline;opacity:1;fill:#000;fill-rule:evenodd;stroke:none;stroke-width:1px;stroke-linecap:butt;stroke-linejoin:miter;stroke-opacity:1" id="path4283-10-7" d="m 14.950838,938.41747 c 1.438522,0.48144 3.967954,0.9027 6.461832,0.96197 -4e-6,0 0.01964,-4e-4 0.01964,-4e-4 2.504166,-0.052 4.946713,-0.47168 6.167118,-1.5436 -1.27136,0.9725 -3.699133,1.27314 -6.166768,1.21596 -4e-6,0 -0.01938,-4.6e-4 -0.01939,-4.6e-4 -2.465798,0.0503 -4.996855,-0.25818 -6.462432,-0.63347 z"/></g></svg>