<svg xmlns="http://www.w3.org/2000/svg" xmlns:svg="http://www.w3.org/2000/svg" xmlns:xlink="http://www.w3.org/1999/xlink" id="svg4206" version="1.1" viewBox="0 0 256 256"><style id="style3">svg{cursor:default}</style><defs id="defs4208"><linearGradient id="usedGradient2"><stop style="stop-color:#f55;stop-opacity:1" id="stop5101" offset="0"/><stop style="stop-color:#ff8080;stop-opacity:1" id="stop5103" offset="1"/></linearGradient><linearGradient id="linearGradient5105" x1="43.393" x2="43.571" y1="958.969" y2="935.576" gradientUnits="userSpaceOnUse" xlink:href="#usedGradient2"/></defs><metadata id="metadata4211"/><g id="layer1" transform="translate(0,-796.36216)" style="display:inline"><path style="opacity:1;fill:url(#linearGradient5105);fill-opacity:1;fill-rule:evenodd;stroke:#000;stroke-width:.46603191;stroke-linecap:butt;stroke-linejoin:miter;stroke-miterlimit:4;stroke-dasharray:none;stroke-opacity:1" id="path4183" d="m 40.438434,902.72912 c -0.99457,30.55256 -11.027886,32.14312 -11.283931,41.58619 -0.15025,5.54161 0.932683,6.6804 2.998397,11.34798 2.105845,4.75834 2.389096,13.15028 10.361827,13.14672 11.553436,0 9.152101,-10.08401 11.440139,-14.80053 2.306149,-4.75392 2.816149,-6.12509 3.24529,-10.2182 0.395139,-3.7688 -3.871675,-7.14736 -4.304054,-14.07153 -0.431808,-6.91501 -3.126424,-11.97223 -4.230332,-19.34048 -0.914901,-6.10671 1.344507,-4.76916 -2.193955,-10.89977 z"/><path style="opacity:1;fill:#faa;fill-rule:evenodd;stroke:#000;stroke-width:.46603191;stroke-linecap:butt;stroke-linejoin:miter;stroke-miterlimit:4;stroke-dasharray:none;stroke-opacity:1" id="path4181" d="m 39.974854,899.04629 c 0.07178,2.0322 -0.280112,4.12349 2.111571,4.97862 3.056402,-1.09967 4.826793,-2.71524 5.817599,-4.64352 1.539897,-3.83199 -4.286358,-6.25425 -6.826186,-6.17147 z"/><path style="opacity:1;fill:#ffd5d5;fill-rule:evenodd;stroke:#000;stroke-width:.46603191;stroke-linecap:butt;stroke-linejoin:miter;stroke-miterlimit:4;stroke-dasharray:none;stroke-opacity:1" id="path4177" d="m 39.953302,893.42139 c -0.702761,0.89475 -2.695422,0.85506 -1.529814,3.71003 0.974303,2.42793 2.26384,2.52124 3.57675,2.44146 0.398286,-1.06914 0.35323,-2.13826 0.430932,-3.20739 0.469801,-1.75249 0.780409,-3.41024 -2.477868,-2.9441 z"/><path style="opacity:1;fill:#ffd5d5;fill-rule:evenodd;stroke:#000;stroke-width:.46603191;stroke-linecap:butt;stroke-linejoin:miter;stroke-miterlimit:4;stroke-dasharray:none;stroke-opacity:1" id="path4179" d="m 44.930586,894.59424 c -4.376355,-1.64857 -2.632969,1.05039 -3.016534,2.36964 -0.324143,1.11486 -0.538068,2.49238 0.646403,3.4228 1.654785,-0.13743 2.142438,-1.68897 2.951892,-3.0159 0.582222,-2.21151 0.397954,-2.40747 -0.581761,-2.77654 z"/><path style="opacity:1;fill:#000;fill-rule:evenodd;stroke:none;stroke-width:1px;stroke-linecap:butt;stroke-linejoin:miter;stroke-opacity:1" id="path4275" d="m 46.169676,901.54332 c 1.370548,8.84578 1.425021,18.03143 2.520479,27.06944 -0.934093,-8.994 -0.844574,-18.28403 -2.059065,-27.13682 z"/><path style="opacity:1;fill:#000;fill-rule:evenodd;stroke:none;stroke-width:1px;stroke-linecap:butt;stroke-linejoin:miter;stroke-opacity:1" id="path4279" d="m 42.061433,903.878 c 0.08255,8.54335 0.356822,17.56083 -1.582878,25.7873 2.094446,-8.20486 1.976305,-17.23657 2.049186,-25.78756 z"/><path style="opacity:1;fill:#000;fill-rule:evenodd;stroke:none;stroke-width:1px;stroke-linecap:butt;stroke-linejoin:miter;stroke-opacity:1" id="path4283" d="m 35.101712,953.87681 c 1.794774,0.67419 4.956438,1.26444 8.077135,1.34338 -4e-6,0 0.02458,-5.2e-4 0.02458,-5.2e-4 3.135062,-0.0687 6.188522,-0.65731 7.708869,-2.16417 -1.594278,1.37805 -4.628765,1.80582 -7.708346,1.72983 -4e-6,0 -0.0242,-6e-4 -0.0242,-6e-4 -3.078762,0.0663 -6.242806,-0.37321 -8.078034,-0.90792 z"/></g></svg>