<svg xmlns="http://www.w3.org/2000/svg" xmlns:svg="http://www.w3.org/2000/svg" id="svg4206" version="1.1" viewBox="0 0 256 256"><style id="style3">svg{cursor:default}</style><metadata id="metadata4211"/><g id="layer1" transform="translate(0,-796.36216)" style="display:inline"><path style="display:inline;opacity:1;fill:#ff8080;fill-rule:evenodd;stroke:#000;stroke-width:.4779838;stroke-linecap:butt;stroke-linejoin:miter;stroke-miterlimit:4;stroke-dasharray:none;stroke-opacity:1" id="path4175-4-3-7-4-0-1" d="m 197.02516,930.38498 c -0.45865,-8.04227 1.75962,-18.61567 6.18588,-20.69706 11.40096,5.26669 10.79446,18.0069 15.53189,27.73002 z"/><path style="display:inline;opacity:1;fill:#faa;fill-rule:evenodd;stroke:#000;stroke-width:.5;stroke-linecap:butt;stroke-linejoin:miter;stroke-miterlimit:4;stroke-dasharray:none;stroke-opacity:1" id="path4158-6-5-6-0-4-3" d="m 213.48448,943.68759 c 7.66539,-4.1429 6.55313,-9.61903 0.8529,-12.2317 -4.5373,-2.07961 -6.64476,-5.05261 -12.31824,-4.58611 -3.9984,0.32878 -12.91618,2.57136 -0.94234,13.19927 3.43502,3.04892 8.80267,5.56693 12.40768,3.61854 z"/><path style="display:inline;opacity:1;fill:#f55;fill-rule:evenodd;stroke:#000;stroke-width:.5;stroke-linecap:butt;stroke-linejoin:miter;stroke-miterlimit:4;stroke-dasharray:none;stroke-opacity:1" id="path4158-3-2-5-0-4-48-3" d="m 212.11061,941.37139 c 6.24353,-3.37443 4.37838,-5.96172 -0.26448,-8.08977 -3.69566,-1.69389 -4.22452,-3.88816 -8.84561,-3.50817 -3.25674,0.26777 -9.83819,0.42919 -0.0854,9.0857 2.79786,2.48337 6.25922,4.09922 9.19553,2.51224 z"/></g></svg>