<svg xmlns="http://www.w3.org/2000/svg" xmlns:svg="http://www.w3.org/2000/svg" xmlns:xlink="http://www.w3.org/1999/xlink" id="svg4206" version="1.1" viewBox="0 0 256 256"><style id="style3">svg{cursor:default}</style><defs id="defs4208"><linearGradient id="usedGradient4"><stop style="stop-color:#f55;stop-opacity:1" id="stop5123" offset="0"/><stop style="stop-color:#ff8080;stop-opacity:1" id="stop5125" offset="1"/></linearGradient><linearGradient id="linearGradient5127" x1="104.07" x2="104.121" y1="962.46" y2="938.531" gradientUnits="userSpaceOnUse" xlink:href="#usedGradient4"/></defs><metadata id="metadata4211"/><g id="layer1" transform="translate(0,-796.36216)" style="display:inline"><path style="display:inline;opacity:1;fill:url(#linearGradient5127);fill-opacity:1;fill-rule:evenodd;stroke:#000;stroke-width:.43044207;stroke-linecap:butt;stroke-linejoin:miter;stroke-miterlimit:4;stroke-dasharray:none;stroke-opacity:1" id="path4183-2-6" d="m 100.77425,909.72834 c -0.995597,26.03693 -8.897278,35.01349 -9.153586,43.06089 -0.150418,4.72257 0.933659,5.69304 3.001549,9.67074 2.10805,4.05508 0.0453,10.9173 8.026507,10.91427 11.56556,0 7.83559,-7.72539 10.12605,-11.74481 2.30855,-4.0513 2.81909,-5.2198 3.24869,-8.70795 0.39555,-3.21179 -4.18178,-11.97565 -4.61463,-17.87642 -0.43226,-5.89297 -1.29353,-12.51802 -2.39859,-18.79724 -0.91587,-5.20417 1.34591,-4.06429 -2.19627,-9.28881 z"/><path style="display:inline;opacity:1;fill:#faa;fill-rule:evenodd;stroke:#000;stroke-width:.42216471;stroke-linecap:butt;stroke-linejoin:miter;stroke-miterlimit:4;stroke-dasharray:none;stroke-opacity:1" id="path4181-5-3" d="m 100.66977,907.51638 c 0.0719,1.66531 -0.2805,3.37904 2.11452,4.0798 3.06064,-0.90116 4.83348,-2.22505 5.82567,-3.80521 1.54202,-3.14016 -4.29231,-5.12512 -6.83566,-5.05729 z"/><path style="display:inline;opacity:1;fill:#ffd5d5;fill-rule:evenodd;stroke:#000;stroke-width:.42216471;stroke-linecap:butt;stroke-linejoin:miter;stroke-miterlimit:4;stroke-dasharray:none;stroke-opacity:1" id="path4177-0-2" d="m 101.65697,903.30721 c -0.70374,0.7332 -2.699167,0.70068 -1.53195,3.04022 0.97566,1.98958 2.26699,2.06608 3.58172,2.00069 0.39886,-0.87612 0.35373,-1.75223 0.43154,-2.62834 0.47046,-1.43611 0.78149,-2.79458 -2.48131,-2.41257 z"/><path style="display:inline;opacity:1;fill:#ffd5d5;fill-rule:evenodd;stroke:#000;stroke-width:.49764502;stroke-linecap:butt;stroke-linejoin:miter;stroke-miterlimit:4;stroke-dasharray:none;stroke-opacity:1" id="path4179-1-2" d="m 107.81661,903.74656 c -5.13581,-1.60183 -3.08989,1.02059 -3.54002,2.30246 -0.38039,1.08323 -0.63144,2.42169 0.75859,3.32575 1.94195,-0.13349 2.51423,-1.64109 3.46416,-2.9304 0.68326,-2.14882 0.467,-2.33923 -0.68273,-2.69781 z"/><path style="display:inline;opacity:1;fill:#000;fill-rule:evenodd;stroke:none;stroke-width:1px;stroke-linecap:butt;stroke-linejoin:miter;stroke-opacity:1" id="path4275-9-09" d="m 106.46232,909.90026 c 1.36557,7.24782 1.41093,14.76014 2.50192,22.17273 -0.94146,-7.36391 -0.8608,-14.99186 -2.08398,-22.24731 z"/><path style="display:inline;opacity:1;fill:#000;fill-rule:evenodd;stroke:none;stroke-width:1px;stroke-linecap:butt;stroke-linejoin:miter;stroke-opacity:1" id="path4279-5-3" d="m 102.4155,911.34448 -0.21227,1.5e-4 c 0.0757,6.99979 0.3433,14.38734 -1.6063,21.1317 2.09018,-6.72047 1.965,-14.12358 2.03084,-21.132 l -0.21227,1.5e-4 z"/><path style="display:inline;opacity:1;fill:#000;fill-rule:evenodd;stroke:none;stroke-width:1px;stroke-linecap:butt;stroke-linejoin:miter;stroke-opacity:1" id="path4283-10-2" d="m 95.635943,959.87638 c 1.800957,0.58061 4.966067,1.08863 8.085717,1.16144 -1e-5,0 0.0246,-4.9e-4 0.0246,-4.9e-4 3.13217,-0.064 6.1883,-0.57001 7.71691,-1.86086 -1.58936,1.16763 -4.62744,1.5279 -7.7165,1.4576 0,0 -0.0243,-5.7e-4 -0.0243,-5.7e-4 -3.08642,0.062 -6.253464,-0.30749 -8.086427,-0.75712 z"/></g></svg>