<svg xmlns="http://www.w3.org/2000/svg" xmlns:svg="http://www.w3.org/2000/svg" id="svg4206" version="1.1" viewBox="0 0 256 256"><style id="style3">svg{cursor:default}</style><metadata id="metadata4211"/><g id="layer1" transform="translate(0,-796.36216)" style="display:inline"><path style="display:inline;opacity:1;fill:#ff8080;fill-rule:evenodd;stroke:#000;stroke-width:.5;stroke-linecap:butt;stroke-linejoin:miter;stroke-miterlimit:4;stroke-dasharray:none;stroke-opacity:1" id="path4175-4-3-7-4-0-19" d="m 71.634864,917.04582 c -0.358902,-7.88078 0.27949,-17.43164 3.743236,-19.47123 8.921746,5.16091 9.544656,16.83512 13.251885,26.36297 z"/><path style="display:inline;opacity:1;fill:#faa;fill-rule:evenodd;stroke:#000;stroke-width:.5;stroke-linecap:butt;stroke-linejoin:miter;stroke-miterlimit:4;stroke-dasharray:none;stroke-opacity:1" id="path4158-6-5-6-0-4-5" d="m 84.300487,930.24522 c 6.762274,-3.69408 5.781065,-8.57697 0.752419,-10.9066 -4.002728,-1.85434 -5.861882,-4.50524 -10.866928,-4.08929 -3.527328,0.29317 -11.394435,2.2928 -0.83132,11.76935 3.030311,2.71863 7.765551,4.96385 10.945829,3.22654 z"/><path style="display:inline;opacity:1;fill:#f55;fill-rule:evenodd;stroke:#000;stroke-width:.5;stroke-linecap:butt;stroke-linejoin:miter;stroke-miterlimit:4;stroke-dasharray:none;stroke-opacity:1" id="path4158-3-2-5-0-4-48-6" d="m 83.088485,928.17992 c 5.50793,-3.00885 3.862526,-5.31585 -0.233313,-7.21336 -3.26026,-1.51039 -3.726794,-3.46694 -7.803438,-3.12813 -2.873045,0.23876 -8.679089,0.38271 -0.07534,8.10145 2.468205,2.21432 5.521747,3.6551 8.112111,2.24004 z"/></g></svg>