<svg xmlns="http://www.w3.org/2000/svg" xmlns:svg="http://www.w3.org/2000/svg" id="svg4206" version="1.1" viewBox="0 0 256 256"><style id="style3">svg{cursor:default}</style><metadata id="metadata4211"/><g id="layer1" transform="translate(0,-796.36216)" style="display:inline"><path style="display:inline;opacity:1;fill:#ff8080;fill-rule:evenodd;stroke:#000;stroke-width:.39920041;stroke-linecap:butt;stroke-linejoin:miter;stroke-miterlimit:4;stroke-dasharray:none;stroke-opacity:1" id="path4175-4-3-7" d="m 47.402609,911.46904 c -1.180571,-7.32836 -13.636855,-16.95135 -4.426851,-18.03247 15.888086,6.32797 13.621858,18.07205 18.312826,26.88705 z"/><path style="display:inline;opacity:1;fill:#faa;fill-rule:evenodd;stroke:#000;stroke-width:.5;stroke-linecap:butt;stroke-linejoin:miter;stroke-miterlimit:4;stroke-dasharray:none;stroke-opacity:1" id="path4158-6-5-6" d="m 57.914132,929.77257 c 6.474663,-4.35359 5.535182,-10.10821 0.72042,-12.85373 -3.832482,-2.18539 -5.612568,-5.30955 -10.404747,-4.81933 -3.377304,0.34548 -10.9098,2.70211 -0.795953,13.8705 2.901435,3.20396 7.435266,5.85003 10.48028,3.80256 z"/><path style="display:inline;opacity:1;fill:#f55;fill-rule:evenodd;stroke:#000;stroke-width:.5;stroke-linecap:butt;stroke-linejoin:miter;stroke-miterlimit:4;stroke-dasharray:none;stroke-opacity:1" id="path4158-3-2-5-0" d="m 56.753686,927.33858 c 5.273657,-3.54605 3.698239,-6.26491 -0.223399,-8.50116 -3.12159,-1.78004 -3.568281,-4.08592 -7.471539,-3.6866 -2.75084,0.2814 -8.309942,0.45104 -0.07216,9.54778 2.363235,2.60964 5.2869,4.30765 7.767092,2.63998 z"/></g></svg>