<svg xmlns="http://www.w3.org/2000/svg" xmlns:svg="http://www.w3.org/2000/svg" id="svg4206" version="1.1" viewBox="0 0 256 256"><style id="style3">svg{cursor:default}</style><metadata id="metadata4211"/><g id="layer1" transform="translate(0,-796.36216)" style="display:inline"><path style="display:inline;opacity:1;fill:#ff8080;fill-rule:evenodd;stroke:#000;stroke-width:.5;stroke-linecap:butt;stroke-linejoin:miter;stroke-miterlimit:4;stroke-dasharray:none;stroke-opacity:1" id="path4175-4-3-7-4-0-1-3" d="m 128.8121,929.68509 c -0.45331,-8.56626 1.7391,-19.82856 6.11376,-22.04556 11.268,5.60983 10.66857,19.18014 15.35074,29.53677 z"/><path style="display:inline;opacity:1;fill:#faa;fill-rule:evenodd;stroke:#000;stroke-width:.5;stroke-linecap:butt;stroke-linejoin:miter;stroke-miterlimit:4;stroke-dasharray:none;stroke-opacity:1" id="path4158-6-5-6-0-4-3-7" d="m 145.2369,943.46709 c 7.373,-4.14381 6.30314,-9.62115 0.82037,-12.2344 -4.36422,-2.08006 -6.3913,-5.05372 -11.84836,-4.58711 -3.84588,0.32885 -12.42348,2.57192 -0.9064,13.20217 3.30401,3.0496 8.46688,5.56815 11.93439,3.61934 z"/><path style="display:inline;opacity:1;fill:#f55;fill-rule:evenodd;stroke:#000;stroke-width:.5;stroke-linecap:butt;stroke-linejoin:miter;stroke-miterlimit:4;stroke-dasharray:none;stroke-opacity:1" id="path4158-3-2-5-0-4-48-3-2" d="m 143.91543,941.15038 c 6.00538,-3.37518 4.21137,-5.96304 -0.25438,-8.09154 -3.55471,-1.69427 -4.06336,-3.88903 -8.50819,-3.50896 -3.13251,0.26782 -9.46291,0.42928 -0.0822,9.08771 2.69112,2.48392 6.02045,4.10012 8.84475,2.51279 z"/></g></svg>