<svg xmlns="http://www.w3.org/2000/svg" xmlns:svg="http://www.w3.org/2000/svg" id="svg4206" version="1.1" viewBox="0 0 256 256"><style id="style3">svg{cursor:default}</style><metadata id="metadata4211"/><g id="layer1" transform="translate(0,-796.36216)" style="display:inline"><path style="display:inline;opacity:1;fill:#ff8080;fill-rule:evenodd;stroke:#000;stroke-width:.5;stroke-linecap:butt;stroke-linejoin:miter;stroke-miterlimit:4;stroke-dasharray:none;stroke-opacity:1" id="path4175-4-3-7-4-4" d="m 23.796624,903.02227 c -0.802953,-5.19767 -9.274964,-12.02279 -3.010878,-12.78958 7.023183,-3.62034 10.472258,10.4267 13.896403,17.1795 z"/><path style="display:inline;opacity:1;fill:#faa;fill-rule:evenodd;stroke:#000;stroke-width:.5;stroke-linecap:butt;stroke-linejoin:miter;stroke-miterlimit:4;stroke-dasharray:none;stroke-opacity:1" id="path4158-6-5-6-0-2" d="m 32.134914,917.3578 c 6.130637,-3.07808 5.241071,-7.14672 0.682139,-9.08786 -3.628846,-1.54511 -5.314343,-3.75398 -9.851892,-3.40737 -3.197861,0.24427 -10.330128,1.91044 -0.753676,9.80674 2.747271,2.26528 7.040205,4.13611 9.923429,2.68849 z"/><path style="display:inline;opacity:1;fill:#f55;fill-rule:evenodd;stroke:#000;stroke-width:.5;stroke-linecap:butt;stroke-linejoin:miter;stroke-miterlimit:4;stroke-dasharray:none;stroke-opacity:1" id="path4158-3-2-5-0-4-4" d="m 31.036125,915.63692 c 4.993452,-2.50712 3.501742,-4.42943 -0.211526,-6.0105 -2.955729,-1.25854 -3.378689,-2.88884 -7.074554,-2.60651 -2.604681,0.19895 -7.868405,0.31887 -0.06829,6.75047 2.237663,1.84509 5.005988,3.04562 7.354403,1.86654 z"/></g></svg>