<svg xmlns="http://www.w3.org/2000/svg" xmlns:svg="http://www.w3.org/2000/svg" id="svg4206" version="1.1" viewBox="0 0 256 256"><style id="style3">svg{cursor:default}</style><metadata id="metadata4211"/><g id="layer1" transform="translate(0,-796.36216)" style="display:inline"><path style="display:inline;opacity:1;fill:#ff8080;fill-rule:evenodd;stroke:#000;stroke-width:.5;stroke-linecap:butt;stroke-linejoin:miter;stroke-miterlimit:4;stroke-dasharray:none;stroke-opacity:1" id="path4175-4-3" d="m 239.98556,921.52416 c 0.99697,-7.33494 3.94331,-16.96661 -3.83438,-18.0487 -13.41722,6.33366 -7.68795,14.82362 -11.64939,23.64655 z"/><path style="display:inline;opacity:1;fill:#faa;fill-rule:evenodd;stroke:#000;stroke-width:.5;stroke-linecap:butt;stroke-linejoin:miter;stroke-miterlimit:4;stroke-dasharray:none;stroke-opacity:1" id="path4158-6-5" d="m 227.49849,932.38664 c -5.48973,-2.62435 -4.69315,-6.09322 -0.61083,-7.74823 3.24948,-1.31736 4.75876,-3.20061 8.82194,-2.9051 2.86353,0.20827 9.25016,1.62883 0.67488,8.36115 -2.46006,1.93135 -6.30419,3.5264 -8.88599,2.29218 z"/><path style="display:inline;opacity:1;fill:#f55;fill-rule:evenodd;stroke:#000;stroke-width:.5;stroke-linecap:butt;stroke-linejoin:miter;stroke-miterlimit:4;stroke-dasharray:none;stroke-opacity:1" id="path4158-3-2-5" d="m 228.48241,930.91943 c -4.47143,-2.13755 -3.13566,-3.7765 0.18941,-5.12451 2.64673,-1.07299 3.02545,-2.46298 6.33494,-2.22227 2.33238,0.16961 7.04581,0.27188 0.0612,5.75539 -2.00373,1.5731 -4.48264,2.59666 -6.58555,1.59139 z"/></g></svg>