<svg xmlns="http://www.w3.org/2000/svg" xmlns:svg="http://www.w3.org/2000/svg" xmlns:xlink="http://www.w3.org/1999/xlink" id="svg4206" version="1.1" viewBox="0 0 256 256"><style id="style3">svg{cursor:default}</style><defs id="defs4208"><linearGradient id="usedGradient7"><stop style="stop-color:#f55;stop-opacity:1" id="stop5147" offset="0"/><stop style="stop-color:#ff8080;stop-opacity:1" id="stop5149" offset="1"/></linearGradient><linearGradient id="linearGradient5151" x1="205.481" x2="205.002" y1="971.202" y2="950.845" gradientUnits="userSpaceOnUse" xlink:href="#usedGradient7"/></defs><metadata id="metadata4211"/><g id="layer1" transform="translate(0,-796.36216)" style="display:inline"><path style="display:inline;opacity:1;fill:url(#linearGradient5151);fill-opacity:1;fill-rule:evenodd;stroke:#000;stroke-width:.45521075;stroke-linecap:butt;stroke-linejoin:miter;stroke-miterlimit:4;stroke-dasharray:none;stroke-opacity:1" id="path4183-2-6-3" d="m 201.83323,912.70544 c -0.99485,29.14197 -8.89046,39.18902 -9.14657,48.19611 -0.1503,5.28577 0.93294,6.37197 2.99922,10.82404 2.10645,4.53864 0.0454,12.21923 8.02037,12.21583 11.55669,0 7.82958,-8.64668 10.11827,-13.14543 2.30679,-4.53443 2.81694,-5.8423 3.24621,-9.74641 0.39524,-3.59481 -4.17858,-13.40379 -4.61108,-20.00829 -0.43193,-6.59574 -0.52459,-14.17538 -2.39677,-21.03889 -1.55034,-5.68362 -0.0938,-4.22928 -2.19457,-10.39654 z"/><path style="display:inline;opacity:1;fill:#faa;fill-rule:evenodd;stroke:#000;stroke-width:.45521075;stroke-linecap:butt;stroke-linejoin:miter;stroke-miterlimit:4;stroke-dasharray:none;stroke-opacity:1" id="path4181-5-3-2" d="m 201.42312,913.61891 c 0.0718,1.93837 -0.28019,3.93312 2.11218,4.74877 3.05726,-1.04892 4.82814,-2.58989 5.81923,-4.42915 1.54033,-3.65505 -4.28755,-5.96548 -6.82811,-5.88652 z"/><path style="display:inline;opacity:1;fill:#ffd5d5;fill-rule:evenodd;stroke:#000;stroke-width:.45521075;stroke-linecap:butt;stroke-linejoin:miter;stroke-miterlimit:4;stroke-dasharray:none;stroke-opacity:1" id="path4177-0-2-7" d="m 202.19308,907.91911 c -0.70297,0.85344 -2.48003,1.61603 -1.3141,4.3392 0.97458,2.3158 2.26449,2.40483 3.57777,2.32873 0.39841,-1.01978 0.35333,-2.03955 0.43105,-3.05931 0.46994,-1.67158 0.56448,-4.05325 -2.69472,-3.60862 z"/><path style="display:inline;opacity:1;fill:#ffd5d5;fill-rule:evenodd;stroke:#000;stroke-width:.53659946;stroke-linecap:butt;stroke-linejoin:miter;stroke-miterlimit:4;stroke-dasharray:none;stroke-opacity:1" id="path4179-1-2-5" d="m 208.56207,909.23094 c -5.13013,-1.86447 -3.08648,1.18797 -3.5361,2.68 -0.37997,1.26086 -0.63075,2.81879 0.75776,3.87108 1.93979,-0.15538 2.51143,-1.91017 3.46032,-3.41089 0.6825,-2.50117 0.46648,-2.7228 -0.68198,-3.14019 z"/><path style="display:inline;opacity:1;fill:#000;fill-rule:evenodd;stroke:none;stroke-width:1px;stroke-linecap:butt;stroke-linejoin:miter;stroke-opacity:1" id="path4275-9-09-5" d="m 207.35375,916.22944 c 1.36978,8.4371 1.42253,17.19461 2.51733,25.81703 -0.93535,-8.57703 -0.84744,-17.44222 -2.06351,-25.88653 z"/><path style="display:inline;opacity:1;fill:#000;fill-rule:evenodd;stroke:none;stroke-width:1px;stroke-linecap:butt;stroke-linejoin:miter;stroke-opacity:1" id="path4279-5-3-0" d="m 202.81444,918.16729 c 0.0806,7.96022 0.35276,16.36192 -1.58965,24.02848 2.09291,-7.64403 1.97275,-16.06051 2.04345,-24.02876 z"/><path style="display:inline;opacity:1;fill:#000;fill-rule:evenodd;stroke:none;stroke-width:1px;stroke-linecap:butt;stroke-linejoin:miter;stroke-opacity:1" id="path4283-10-2-8" d="m 196.69885,968.83388 c 1.79652,0.64546 4.95913,1.21052 8.07945,1.28806 -1e-5,0 0.0246,-5.2e-4 0.0246,-5.2e-4 3.13406,-0.0677 6.18845,-0.63107 7.71103,-2.07092 -1.59292,1.31185 -4.6282,1.71801 -7.71054,1.64329 0,0 -0.0242,-6e-4 -0.0242,-6e-4 -3.08091,0.0654 -6.24577,-0.35169 -8.08029,-0.85931 z"/></g></svg>