<svg xmlns="http://www.w3.org/2000/svg" xmlns:svg="http://www.w3.org/2000/svg" xmlns:xlink="http://www.w3.org/1999/xlink" id="svg4206" version="1.1" viewBox="0 0 256 256"><style id="style3">svg{cursor:default}</style><defs id="defs4208"><linearGradient id="usedGradient8"><stop style="stop-color:#f55;stop-opacity:1" id="stop5049" offset="0"/><stop style="stop-color:#ff8080;stop-opacity:1" id="stop5055" offset="1"/></linearGradient><linearGradient id="linearGradient4293-8-0" x1="133.34" x2="136.144" y1="225.455" y2="185.15" gradientTransform="matrix(0.34750021,0,0,0.44044639,190.50859,865.20526)" gradientUnits="userSpaceOnUse" xlink:href="#usedGradient8"/></defs><metadata id="metadata4211"/><g id="layer1" transform="translate(0,-796.36216)" style="display:inline"><path style="display:inline;opacity:1;fill:#000;fill-rule:evenodd;stroke:none;stroke-width:1px;stroke-linecap:butt;stroke-linejoin:miter;stroke-opacity:1" id="path4199-3" d="m 235.95332,933.58323 c 1.08821,-5.46374 0.40175,-7.15129 0.78894,-9.46884 -0.57928,2.796 0.20409,3.53944 -1.06862,9.41068 z"/><path style="display:inline;opacity:1;fill:#000;fill-rule:evenodd;stroke:none;stroke-width:1px;stroke-linecap:butt;stroke-linejoin:miter;stroke-opacity:1" id="path4203-2" d="m 231.20781,937.9006 c 0.0969,-2.66287 0.34474,-5.00652 1.20169,-6.9461 -0.94787,1.90922 -1.29387,4.25245 -1.48693,6.93062 z"/><path style="display:inline;opacity:1;fill:url(#linearGradient4293-8-0);fill-opacity:1;fill-rule:evenodd;stroke:#000;stroke-width:.39122269;stroke-linecap:butt;stroke-linejoin:miter;stroke-miterlimit:4;stroke-dasharray:none;stroke-opacity:1" id="path4183-1-4" d="m 234.10075,913.30072 c -0.78163,27.39627 -7.38556,27.09692 -7.58679,35.56447 -0.11807,4.96904 0.73302,5.99029 2.35648,10.17573 1.65502,4.26681 0.0357,11.4872 6.30149,11.48402 9.07997,0 6.15161,-8.12865 7.9498,-12.35797 1.81243,-4.26291 2.21326,-5.49239 2.55052,-9.16271 0.31053,-3.37937 -2.24195,-4.07429 -2.58175,-10.28314 -0.33937,-6.20066 -0.99499,-11.99676 -2.14499,-18.56056 -0.9594,-5.47585 0.10637,-4.27651 -2.10307,-9.77378 z"/><path style="display:inline;opacity:1;fill:#faa;fill-rule:evenodd;stroke:#000;stroke-width:.46603191;stroke-linecap:butt;stroke-linejoin:miter;stroke-miterlimit:4;stroke-dasharray:none;stroke-opacity:1" id="path4181-4-0" d="m 232.88858,909.77698 c 0.0718,2.03224 -0.2801,4.1235 2.11159,4.97863 3.05639,-1.09966 4.82678,-2.71522 5.81759,-4.6435 0.79489,-3.18831 -0.72479,-4.94814 -2.80107,-5.2659 -3.17197,-3.55568 -3.41874,3.28719 -5.12811,4.93077 z"/><path style="display:inline;opacity:1;fill:#ffd5d5;fill-rule:evenodd;stroke:#000;stroke-width:.46603191;stroke-linecap:butt;stroke-linejoin:miter;stroke-miterlimit:4;stroke-dasharray:none;stroke-opacity:1" id="path4177-1-5" d="m 235.04874,903.71067 c -0.70277,0.89473 -3.70525,1.69267 -2.53964,4.54765 0.9743,2.42793 1.09196,2.12504 2.40488,2.04525 0.39828,-1.06912 1.362,-2.13826 1.4397,-3.20739 0.51229,-1.94839 0.90473,-3.40404 -1.30494,-3.38551 z"/><path style="display:inline;opacity:1;fill:#ffd5d5;fill-rule:evenodd;stroke:#000;stroke-width:.46603191;stroke-linecap:butt;stroke-linejoin:miter;stroke-miterlimit:4;stroke-dasharray:none;stroke-opacity:1" id="path4179-2-7" d="m 238.27666,904.24432 c -1.8053,0.13832 -1.68483,1.37272 -2.15188,2.6498 -0.39696,1.0854 -1.83505,3.29284 -0.65059,4.22325 1.65478,-0.13741 3.7637,-2.64949 4.57314,-3.97642 0.79403,-2.29974 0.0495,-3.0361 -1.77067,-2.89663 z"/><path style="display:inline;opacity:1;fill:#000;fill-rule:evenodd;stroke:none;stroke-width:1px;stroke-linecap:butt;stroke-linejoin:miter;stroke-opacity:1" id="path4275-0-2" d="m 239.08341,912.27401 c 1.37055,8.84576 1.42502,18.03146 2.52047,27.06945 -0.93408,-8.99398 -0.84456,-18.28405 -2.05905,-27.13683 z"/><path style="display:inline;opacity:1;fill:#000;fill-rule:evenodd;stroke:none;stroke-width:1px;stroke-linecap:butt;stroke-linejoin:miter;stroke-opacity:1" id="path4279-0-8" d="m 234.97516,914.60869 c 0.0827,8.54336 0.35682,17.56085 -1.58288,25.78732 2.09445,-8.20486 1.9764,-17.23658 2.04918,-25.7876 z"/><path style="display:inline;opacity:1;fill:#000;fill-rule:evenodd;stroke:none;stroke-width:1px;stroke-linecap:butt;stroke-linejoin:miter;stroke-opacity:1" id="path4283-1-1" d="m 230.25728,958.21293 c 1.41015,0.79606 3.91897,1.49728 6.41094,1.57757 0,0 0.0197,-5.2e-4 0.0196,-5.2e-4 2.51319,-0.0682 4.93156,-0.76999 6.11914,-2.56939 -1.28476,1.68596 -3.69854,2.2112 -6.11834,2.13467 -1e-5,0 -0.0191,-6.2e-4 -0.0191,-6.2e-4 -2.42867,0.0652 -4.94132,-0.47766 -6.4123,-1.14171 z"/></g></svg>