<svg xmlns="http://www.w3.org/2000/svg" xmlns:svg="http://www.w3.org/2000/svg" xmlns:xlink="http://www.w3.org/1999/xlink" id="svg4206" version="1.1" viewBox="0 0 256 256"><style id="style3">svg{cursor:default}</style><defs id="defs4208"><linearGradient id="usedGradient6"><stop style="stop-color:#f55;stop-opacity:1" id="stop5139" offset="0"/><stop style="stop-color:#ff8080;stop-opacity:1" id="stop5141" offset="1"/></linearGradient><linearGradient id="linearGradient5143" x1="168.774" x2="167.406" y1="980.261" y2="959.368" gradientUnits="userSpaceOnUse" xlink:href="#usedGradient6"/></defs><metadata id="metadata4211"/><g id="layer1" transform="translate(0,-796.36216)" style="display:inline"><path style="display:inline;opacity:1;fill:url(#linearGradient5143);fill-opacity:1;fill-rule:evenodd;stroke:#000;stroke-width:.46603191;stroke-linecap:butt;stroke-linejoin:miter;stroke-miterlimit:4;stroke-dasharray:none;stroke-opacity:1" id="path4183-2" d="m 165.3077,916.19033 c -0.99457,30.55257 -8.88795,41.08596 -9.144,50.52903 -0.15025,5.54162 0.93269,6.6804 2.99839,11.34798 2.10585,4.75835 0.0454,12.81069 8.01809,12.80713 11.55345,0 7.82738,-9.06521 10.11543,-13.78173 2.30615,-4.75392 2.81615,-6.1251 3.24528,-10.2182 0.39515,-3.7688 -4.17738,-14.05259 -4.60976,-20.97676 -0.43181,-6.91501 -0.86427,-14.76599 -2.39609,-22.0573 -1.28295,-6.10672 -0.66935,-4.76916 -2.19395,-10.89978 z"/><path style="display:inline;opacity:1;fill:#faa;fill-rule:evenodd;stroke:#000;stroke-width:.46603191;stroke-linecap:butt;stroke-linejoin:miter;stroke-miterlimit:4;stroke-dasharray:none;stroke-opacity:1" id="path4181-5" d="m 165.2044,913.62813 c 0.0717,2.03221 -0.28012,4.12349 2.11156,4.97863 3.05641,-1.09968 4.8268,-2.71525 5.8176,-4.64354 1.53991,-3.83199 -4.28635,-6.25425 -6.82618,-6.17147 z"/><path style="display:inline;opacity:1;fill:#ffd5d5;fill-rule:evenodd;stroke:#000;stroke-width:.46603191;stroke-linecap:butt;stroke-linejoin:miter;stroke-miterlimit:4;stroke-dasharray:none;stroke-opacity:1" id="path4177-0" d="m 165.18284,908.00322 c -0.70276,0.89475 -2.69542,0.85507 -1.52981,3.71005 0.9743,2.4279 2.26384,2.52123 3.57675,2.44145 0.39829,-1.06914 0.35323,-2.13826 0.43093,-3.20741 0.4698,-1.75246 0.59739,-4.8334 -2.47787,-2.94409 z"/><path style="display:inline;opacity:1;fill:#ffd5d5;fill-rule:evenodd;stroke:#000;stroke-width:.46603191;stroke-linecap:butt;stroke-linejoin:miter;stroke-miterlimit:4;stroke-dasharray:none;stroke-opacity:1" id="path4179-1" d="m 170.51678,908.38367 c -4.37635,-1.64857 -2.98962,1.84281 -3.37319,3.16205 -0.32415,1.11485 -0.53807,2.49236 0.6464,3.4228 1.65479,-0.13744 2.95766,-1.68897 3.76711,-3.01591 0.58223,-2.21151 -0.0606,-3.19988 -1.04032,-3.56894 z"/><path style="display:inline;opacity:1;fill:#000;fill-rule:evenodd;stroke:none;stroke-width:1px;stroke-linecap:butt;stroke-linejoin:miter;stroke-opacity:1" id="path4275-9" d="m 171.1976,916.49169 -0.23071,0.0337 c 1.37055,8.84578 1.42502,18.03145 2.52048,27.06944 -0.93409,-8.99398 -0.84457,-18.28403 -2.05906,-27.13682 l -0.23071,0.0337 z"/><path style="display:inline;opacity:1;fill:#000;fill-rule:evenodd;stroke:none;stroke-width:1px;stroke-linecap:butt;stroke-linejoin:miter;stroke-opacity:1" id="path4279-5" d="m 166.71454,918.29975 c 0.0827,8.54335 0.35681,17.56083 -1.58288,25.78729 2.09444,-8.20485 1.9764,-17.23656 2.04918,-25.78757 z"/><path style="display:inline;opacity:1;fill:#000;fill-rule:evenodd;stroke:none;stroke-width:1px;stroke-linecap:butt;stroke-linejoin:miter;stroke-opacity:1" id="path4283-10" d="m 160.17477,975.03566 c 1.79478,0.67418 4.95645,1.26443 8.07714,1.34338 0,0 0.0246,-5.3e-4 0.0246,-5.3e-4 3.13506,-0.0687 6.18852,-0.6573 7.70887,-2.16416 -1.59428,1.37805 -4.62876,1.80582 -7.70835,1.72983 0,0 -0.0242,-6.1e-4 -0.0242,-6.1e-4 -3.07876,0.0663 -6.24281,-0.37321 -8.07804,-0.90791 z"/></g></svg>