<svg xmlns="http://www.w3.org/2000/svg" xmlns:svg="http://www.w3.org/2000/svg" id="svg4206" version="1.1" viewBox="0 0 256 256"><style id="style3">svg{cursor:default}</style><metadata id="metadata4211"/><g id="layer1" transform="translate(0,-796.36216)" style="display:inline"><path style="display:inline;opacity:1;fill:#ff8080;fill-rule:evenodd;stroke:#000;stroke-width:.5;stroke-linecap:butt;stroke-linejoin:miter;stroke-miterlimit:4;stroke-dasharray:none;stroke-opacity:1" id="path4175-4-3-7-4-0" d="m 98.352873,921.45287 c -0.40728,-7.59319 0.31718,-16.79555 4.247847,-18.76072 10.12446,4.97259 10.83134,16.22081 15.03833,25.40098 z"/><path style="display:inline;opacity:1;fill:#faa;fill-rule:evenodd;stroke:#000;stroke-width:.5;stroke-linecap:butt;stroke-linejoin:miter;stroke-miterlimit:4;stroke-dasharray:none;stroke-opacity:1" id="path4158-6-5-6-0-4" d="m 115.464,934.65088 c 7.67388,-3.55928 6.56039,-8.26399 0.85386,-10.50861 -4.54232,-1.78666 -6.6521,-4.34085 -12.33186,-3.94005 -4.002837,0.28245 -12.930471,2.20912 -0.94339,11.33987 3.43882,2.61942 8.8124,4.78271 12.42139,3.10879 z"/><path style="display:inline;opacity:1;fill:#f55;fill-rule:evenodd;stroke:#000;stroke-width:.5;stroke-linecap:butt;stroke-linejoin:miter;stroke-miterlimit:4;stroke-dasharray:none;stroke-opacity:1" id="path4158-3-2-5-0-4-48" d="m 114.08863,932.66096 c 6.25042,-2.89907 4.38322,-5.12189 -0.26478,-6.95014 -3.69976,-1.45528 -4.22918,-3.34046 -8.85538,-3.014 -3.26035,0.23005 -9.849077,0.36874 -0.0855,7.80582 2.80093,2.13352 6.26612,3.52174 9.20568,2.15832 z"/></g></svg>