<svg xmlns="http://www.w3.org/2000/svg" xmlns:svg="http://www.w3.org/2000/svg" id="svg4206" version="1.1" viewBox="0 0 256 256"><style id="style3">svg{cursor:default}</style><metadata id="metadata4211"/><g id="layer3" style="display:inline;opacity:1"><path style="display:inline;fill:#ff8080;fill-rule:evenodd;stroke:#000;stroke-width:.99999994px;stroke-linecap:butt;stroke-linejoin:miter;stroke-opacity:1" id="path4350" d="m 90.561447,8.433927 c -0.704835,1.588735 32.298313,48.681891 34.211893,46.769371 4.84697,0.865045 41.51662,-46.8517853 39.61895,-47.0641358 0.39325,0.1965095 8.35636,8.9412038 8.35636,8.9412038 -16.34064,16.883986 -30.74344,35.220531 -45.02599,53.64722 C 113.88929,54.54264 99.193028,38.172893 81.713541,21.207075 Z"/><path style="fill:#f55;fill-rule:evenodd;stroke:#000;stroke-width:.99999994px;stroke-linecap:butt;stroke-linejoin:miter;stroke-opacity:1" id="path4348" d="m 62.838011,186.76672 c 13.022751,1.14541 46.683519,32.91054 48.958409,61.50762 l 27.52682,-0.78604 c 12.2074,-40.52069 50.86312,-59.99177 52.32377,-58.01608 -18.14965,-31.89279 -41.20548,-18.99665 -61.56492,-28.2518 z"/><path id="path4281" d="m 62.838011,186.76672 c 13.022751,1.14541 46.683519,32.91054 48.958409,61.50762 l 27.52682,-0.78604 c 12.2074,-40.52069 50.86312,-59.99177 52.32377,-58.01608 -18.14965,-31.89279 -41.20548,-18.99665 -61.56492,-28.2518 z" style="fill:#383838;fill-rule:evenodd;stroke:none;stroke-width:.99999994px;stroke-linecap:butt;stroke-linejoin:miter;stroke-opacity:1;fill-opacity:.62616825"/><path style="fill:#faa;fill-rule:evenodd;stroke:#000;stroke-width:.99999994px;stroke-linecap:butt;stroke-linejoin:miter;stroke-opacity:1" id="path4342" d="m 160.78951,35.089795 c 2.13451,-8.936787 2.40383,-17.833241 3.5453,-26.748555 2.903,-0.3401366 9.08352,2.731942 10.28832,4.724421 -1.27446,9.263568 -2.54891,16.039051 -3.82336,27.790706 z"/><path style="fill:#faa;fill-rule:evenodd;stroke:#000;stroke-width:.99999994px;stroke-linecap:butt;stroke-linejoin:miter;stroke-opacity:1" id="path4340" d="M 83.905133,41.064796 80.429347,12.718277 c 3.195498,-2.9738051 8.683139,-4.1597586 10.288325,-3.9601756 0.370751,4.0296526 1.2017,17.9508536 3.753848,27.9991356 z"/><path style="fill:#ffd5d5;fill-rule:evenodd;stroke:#000;stroke-width:.99999994px;stroke-linecap:butt;stroke-linejoin:miter;stroke-opacity:1" id="path4346" d="m 159.60774,195.78955 c 4.34532,-3.46677 4.50459,-5.59646 11.01912,-6.98964 5.93829,-1.26993 17.63649,-2.50922 20.88858,-0.23595 -3.00498,-14.63983 -24.29017,-40.96377 -23.1578,-49.70398 -5.19967,17.49438 -29.62569,45.47532 -8.7499,56.92957 z"/><path style="fill:#ffd5d5;fill-rule:evenodd;stroke:#000;stroke-width:.99999994px;stroke-linecap:butt;stroke-linejoin:miter;stroke-opacity:1" id="path4344" d="m 96.165119,195.90443 c -2.339841,-3.15257 -5.874369,-7.05401 -9.174481,-8.55281 -3.815403,-1.73283 -7.562542,-2.16798 -11.49807,-2.01314 -5.899493,0.2321 -10.620041,0.97675 -12.654557,1.23173 3.552498,-17.04633 24.226467,-40.44323 22.019639,-47.86398 3.989318,18.79262 39.47692,34.54869 11.307469,57.1982 z"/><path style="fill:#faa;fill-rule:evenodd;stroke:#000;stroke-width:.99999994px;stroke-linecap:butt;stroke-linejoin:miter;stroke-opacity:1" id="path4338" d="m 176.38612,67.092151 c 1.20111,1.784966 6.70147,15.753548 10.02763,23.67945 -21.63701,30.841879 -18.08649,66.429549 -27.98778,98.000799 -11.38248,2.82454 -12.68132,-98.018114 17.96015,-121.680249 z"/><path style="fill:#faa;fill-rule:evenodd;stroke:#000;stroke-width:.99999994px;stroke-linecap:butt;stroke-linejoin:miter;stroke-opacity:1" id="path4336" d="M 98.229634,184.80162 C 80.678253,143.95141 85.917449,108.71927 68.472646,89.385887 71.917792,82.089903 74.851874,76.426214 78.85928,67.334421 105.61827,81.600153 111.47043,171.87762 98.229634,184.80162 Z"/><path style="fill:#f55;fill-rule:evenodd;stroke:#000;stroke-width:.99999994px;stroke-linecap:butt;stroke-linejoin:miter;stroke-opacity:1" id="path4334" d="M 112.47609,248.17503 C 113.13167,220.15375 104.73502,205.95287 96.000865,195.72007 106.09359,170.6266 91.233589,79.315996 78.916869,67.245616 c 5.343472,-12.476681 5.50436,-21.335469 4.988263,-26.250297 4.692301,-2.491359 7.392599,-3.449424 10.427357,-4.793896 1.112638,4.006285 2.128878,9.723611 5.005132,11.116282 4.886129,2.365846 47.146059,2.012612 54.639339,-0.208431 3.54305,-1.050177 5.87016,-7.460706 6.88206,-11.811049 l 9.87123,5.280235 c -0.52743,9.326611 2.62767,20.421341 5.6139,26.438377 -15.42586,26.912576 -27.02751,97.678173 -16.6669,128.703233 -8.5931,11.27313 -17.89066,30.12845 -20.50713,52.0381 -7.41745,1.0915 -16.66823,1.54596 -26.69403,0.41686 z"/></g></svg>