<svg xmlns="http://www.w3.org/2000/svg" xmlns:svg="http://www.w3.org/2000/svg" xmlns:xlink="http://www.w3.org/1999/xlink" id="svg4206" version="1.1" viewBox="0 0 256 256"><style id="style3">svg{cursor:default}</style><defs id="defs4208"><linearGradient id="linearGradient1377"><stop style="stop-color:#f55;stop-opacity:1" id="stop1373" offset="0"/><stop style="stop-color:#faa;stop-opacity:1" id="stop1375" offset="1"/></linearGradient><linearGradient id="linearGradient1304"><stop style="stop-color:#f55;stop-opacity:1" id="stop1300" offset="0"/><stop style="stop-color:#ff8080;stop-opacity:1" id="stop1302" offset="1"/></linearGradient><linearGradient id="linearGradient1281" x1="124.814" x2="117.682" y1="205.8" y2="267.943" gradientTransform="translate(-3,-2.5)" gradientUnits="userSpaceOnUse" xlink:href="#linearGradient1377"/><linearGradient id="linearGradient1298" x1="134.469" x2="128.353" y1="61.194" y2="151.224" gradientTransform="translate(-3,-2.5)" gradientUnits="userSpaceOnUse" xlink:href="#linearGradient1304"/><linearGradient id="linearGradient1389" x1="110.022" x2="111.283" y1="110.498" y2="68.713" gradientTransform="translate(-3,-2.5)" gradientUnits="userSpaceOnUse" xlink:href="#linearGradient1304"/><linearGradient id="linearGradient1391" x1="161.895" x2="163.765" y1="104.844" y2="67.344" gradientTransform="translate(-3,-2.5)" gradientUnits="userSpaceOnUse" xlink:href="#linearGradient1304"/><linearGradient id="linearGradient1389-6" x1="110.022" x2="111.283" y1="110.498" y2="68.713" gradientTransform="translate(-1.0109123,3.5780093)" gradientUnits="userSpaceOnUse" xlink:href="#linearGradient1304"/><linearGradient id="linearGradient1391-9" x1="161.895" x2="163.765" y1="104.844" y2="67.344" gradientTransform="translate(-5.1125735,1.6826678)" gradientUnits="userSpaceOnUse" xlink:href="#linearGradient1304"/></defs><metadata id="metadata4211"/><g id="layer3" style="display:inline;opacity:1"><path style="display:inline;opacity:1;fill:url(#linearGradient1281);fill-opacity:1;fill-rule:evenodd;stroke:#000;stroke-width:.58721936px;stroke-linecap:butt;stroke-linejoin:miter;stroke-opacity:1" id="path4292-9" d="m 49.27249,228.76404 c 0.466413,0.93383 1.972776,1.89571 4.214832,2.87359 6.551929,2.85763 19.386499,5.85187 30.910803,8.68196 12.457874,3.05935 20.947205,4.35033 26.286305,7.08278 1.27205,-0.0317 1.33933,-4.42652 2.00898,-6.6398 1.06191,-1.63157 2.03703,-1.84528 2.85749,0.46796 l 0.28336,7.49236 c 4.20756,0.88049 6.80931,-0.48752 19.161,-1.73946 7.62463,-0.77281 19.79225,-0.14455 29.86428,-0.77605 6.03002,-0.37809 10.83124,-2.0747 14.78777,-2.37811 3.20434,-14.95253 -3.60819,-40.95241 -11.44175,-52.43543 L 73.562469,182.0544 C 54.417386,192.96469 54.927568,210.86947 49.27249,228.76404 Z"/><path style="display:inline;opacity:1;fill:none;fill-rule:evenodd;stroke:#f55;stroke-width:.29360968;stroke-linecap:butt;stroke-linejoin:miter;stroke-miterlimit:4;stroke-dasharray:none;stroke-opacity:1" id="path4306-4" d="m 119.34259,199.4838 c -1.97699,13.1246 -4.1728,25.76128 -5.12113,39.75074"/><path style="display:inline;opacity:1;fill:none;fill-rule:evenodd;stroke:#000;stroke-width:.40000001;stroke-linecap:butt;stroke-linejoin:miter;stroke-miterlimit:4;stroke-dasharray:3.2,.4;stroke-dashoffset:0;stroke-opacity:1" id="path4308-1" d="m 49.871105,226.7418 c 11.906615,5.65581 32.391206,10.88062 62.076015,16.69801"/><path style="display:inline;opacity:1;fill:none;fill-rule:evenodd;stroke:#000;stroke-width:.40000001;stroke-linecap:butt;stroke-linejoin:miter;stroke-miterlimit:4;stroke-dasharray:3.2,.4;stroke-dashoffset:0;stroke-opacity:1" id="path4310-0" d="m 115.8138,246.1162 c 19.79829,-4.72278 45.37888,-1.60596 63.89278,-6.83139"/><path style="fill:#f55;fill-rule:evenodd;stroke:#000;stroke-width:.5;stroke-linecap:butt;stroke-linejoin:miter;stroke-opacity:1;stroke-miterlimit:4;stroke-dasharray:none" id="path4303" d="m 90.0807,27.891848 26.97593,73.710642 -1.26269,0.50507 -27.654635,-72.921453 c 0,0 -5.69e-4,-1.182652 1.941395,-1.294259 z"/><path style="fill:#f55;fill-rule:evenodd;stroke:#000;stroke-width:.5;stroke-linecap:butt;stroke-linejoin:miter;stroke-opacity:1;stroke-miterlimit:4;stroke-dasharray:none" id="path4307" d="m 156.90118,96.760931 1.84669,-0.31567 9.72565,-93.4545695 -2.58402,-0.463934 z"/><path style="fill:url(#linearGradient1298);fill-opacity:1;fill-rule:evenodd;stroke:#000;stroke-width:.80000001;stroke-linecap:butt;stroke-linejoin:miter;stroke-miterlimit:4;stroke-dasharray:none;stroke-opacity:1" id="path4293" d="m 54.374961,199.64935 c 41.40268,24.19088 76.734199,28.56921 127.550709,18.46686 l -10.85914,-67.17515 c -2.25604,-25.61905 2.89415,-44.24888 7.50467,-60.616591 -1.43536,1.049438 -3.94661,-1.689162 -19.00978,-0.540562 -9.33017,-3.522289 -19.36773,0.90148 -30.16368,-7.406955 -10.50857,13.918789 -17.48161,22.871858 -37.334087,22.556548 1.50137,3.89189 3.42796,10.45911 1.47366,13.1776 -32.27877,44.90079 -30.334852,74.66784 -39.162352,81.53825 z"/><path style="display:inline;opacity:1;fill:url(#linearGradient1391-9);fill-opacity:1;fill-rule:evenodd;stroke:#000;stroke-width:.60000002;stroke-linecap:butt;stroke-linejoin:miter;stroke-miterlimit:4;stroke-dasharray:1.8,.6;stroke-dashoffset:0;stroke-opacity:1" id="path4297-30" d="m 130.49905,86.376558 c 2.96389,3.201877 9.43809,11.096502 19.53123,12.940042 10.09314,1.84355 19.4143,0.81648 26.90648,-4.348026 2.18729,-6.298701 3.48003,-16.65724 3.48003,-16.65724 -12.98315,6.827503 -41.12807,5.813166 -50.73409,4.409678 1.22121,1.417245 1.41017,2.182191 0.81635,3.655546 z"/><path style="display:inline;opacity:1;fill:url(#linearGradient1389-6);fill-opacity:1;fill-rule:evenodd;stroke:#000;stroke-width:.60000002;stroke-linecap:butt;stroke-linejoin:miter;stroke-miterlimit:4;stroke-dasharray:1.8,.6;stroke-dashoffset:0;stroke-opacity:1" id="path4295-1" d="m 130.2068,86.252767 c -7.44896,13.206636 -17.61934,21.279573 -36.654056,22.571243 -0.737154,-2.64332 -0.338228,-2.10561 -3.018923,-7.96065 2.868819,-10.221125 18.581939,-24.299093 38.065469,-18.479284 2.55231,0.762385 -0.30687,1.53473 1.60751,3.868691 z"/><path style="fill:url(#linearGradient1389);fill-opacity:1;fill-rule:evenodd;stroke:#000;stroke-width:.75;stroke-linecap:butt;stroke-linejoin:miter;stroke-miterlimit:4;stroke-dasharray:none;stroke-dashoffset:0;stroke-opacity:1" id="path4295" d="M 129.52218,82.360463 C 120.57322,98.0671 108.59838,105.76683 92.063653,104.9335 79.641223,99.16466 76.016682,89.372778 86.170793,63.862073 c 19.003047,-0.198688 30.047057,11.02575 43.351387,18.49839 z"/><path style="fill:url(#linearGradient1391);fill-opacity:1;fill-rule:evenodd;stroke:#000;stroke-width:.75;stroke-linecap:butt;stroke-linejoin:miter;stroke-miterlimit:4;stroke-dasharray:none;stroke-dashoffset:0;stroke-opacity:1" id="path4297" d="m 129.32592,82.265319 c 8.40139,6.826879 14.0988,12.962565 24.19194,14.806111 10.09314,1.84355 17.6864,-1.799779 25.17858,-6.964283 7.49218,-5.164504 11.75006,-19.151039 -4.375,-41.785719 -14.23162,7.484043 -29.91414,19.919581 -44.99552,33.943891 z"/><path style="fill:#ff8080;fill-rule:evenodd;stroke:#000;stroke-width:.5;stroke-linecap:butt;stroke-linejoin:miter;stroke-opacity:1;stroke-miterlimit:4;stroke-dasharray:none" id="path4305" d="m 174.22325,48.221168 c -0.5373,-0.899667 -4.99052,-40.8331546 -5.17703,-45.1411905 -1.37344,-0.4668124 -2.29111,-0.7845642 -3.04828,-0.6967228 2.05782,15.4553223 4.17876,31.2143243 6.23658,47.0059033 z"/><path style="fill:#ff8080;fill-rule:evenodd;stroke:#000;stroke-width:.5;stroke-linecap:butt;stroke-linejoin:miter;stroke-opacity:1;stroke-miterlimit:4;stroke-dasharray:none" id="path4301" d="m 85.991708,64.010877 c -0.96846,-11.497344 -3.148995,-21.990576 1.544005,-34.61802 1.205357,-1.964286 1.79562,-1.071429 1.79562,-1.071429 -4.75876,12.252626 -2.302935,23.528468 -1.196765,35.55552 z"/><path style="fill:#f55;fill-rule:evenodd;stroke:none;stroke-width:1px;stroke-linecap:butt;stroke-linejoin:miter;stroke-opacity:1" id="path4457" d="m 94.788352,115.9374 c 8.119378,0.77953 16.671448,0.67007 24.522248,-1.74663 -7.91689,2.08891 -16.42335,1.85257 -24.406332,0.75337 z"/><path style="display:inline;opacity:1;fill:#f55;fill-rule:evenodd;stroke:none;stroke-width:1px;stroke-linecap:butt;stroke-linejoin:miter;stroke-opacity:1" id="path4457-7" d="m 94.298603,117.76343 c 7.607597,2.94219 15.871777,5.14517 24.083497,4.93727 -8.18687,-0.12556 -16.31381,-2.6492 -23.703781,-5.86237 z"/><path style="display:inline;opacity:1;fill:none;fill-opacity:1;fill-rule:evenodd;stroke:#000;stroke-width:.80000001;stroke-linecap:butt;stroke-linejoin:miter;stroke-miterlimit:4;stroke-dasharray:none;stroke-dashoffset:0;stroke-opacity:1" id="path4295-3" d="M 92.063653,104.9335 C 79.641224,99.16466 76.016683,89.372782 86.170794,63.862077"/><path style="display:inline;opacity:1;fill:none;fill-opacity:1;fill-rule:evenodd;stroke:#000;stroke-width:.80000001;stroke-linecap:butt;stroke-linejoin:miter;stroke-miterlimit:4;stroke-dasharray:none;stroke-dashoffset:0;stroke-opacity:1" id="path4297-3" d="m 178.59825,90.006882 c 7.49218,-5.1645 11.75006,-19.15103 -4.375,-41.785714"/><path style="fill:none;stroke:#000;stroke-width:.60000002;stroke-linecap:butt;stroke-linejoin:miter;stroke-miterlimit:4;stroke-dasharray:1.8,.6;stroke-dashoffset:0;stroke-opacity:1" id="path1441" d="M 127.19898,86.215909 C 122.46389,83.437989 107.58681,68.123276 85.110918,66.986854"/><path style="display:inline;opacity:1;fill:none;stroke:#000;stroke-width:.6;stroke-linecap:butt;stroke-linejoin:miter;stroke-miterlimit:4;stroke-dasharray:1.8,.6;stroke-dashoffset:0;stroke-opacity:1" id="path1441-8" d="m 133.80825,86.245171 c 16.194,-15.37326 29.09601,-26.47815 43.08572,-34.223254"/><path style="display:inline;opacity:1;fill:none;stroke:#000;stroke-width:.60000002;stroke-linecap:butt;stroke-linejoin:miter;stroke-miterlimit:4;stroke-dasharray:3.6,.6;stroke-dashoffset:0;stroke-opacity:1" id="path1441-8-5" d="m 56.182127,196.97407 c 55.716223,29.57853 72.280033,23.53229 124.908083,17.04988"/><path style="display:inline;opacity:1;fill:none;fill-rule:evenodd;stroke:#000;stroke-width:.40000001;stroke-linecap:butt;stroke-linejoin:miter;stroke-miterlimit:4;stroke-dasharray:3.2,.4;stroke-dashoffset:0;stroke-opacity:1" id="path4308-1-4" d="m 48.671869,229.19389 c 0.507155,5.79503 48.546001,14.18047 61.942101,18.92457"/><path style="display:inline;opacity:1;fill:none;fill-rule:evenodd;stroke:#000;stroke-width:.40000001;stroke-linecap:butt;stroke-linejoin:miter;stroke-miterlimit:4;stroke-dasharray:3.2,.4;stroke-dashoffset:0;stroke-opacity:1" id="path4308-1-4-0" d="m 115.5067,249.48739 c 5.00982,1.07627 10.60732,-0.87677 19.69572,-1.70249 17.90012,-1.5359 24.76838,1.63499 44.58383,-3.26865"/><path style="display:inline;opacity:1;fill:none;fill-rule:evenodd;stroke:#000;stroke-width:.40000001;stroke-linecap:butt;stroke-linejoin:miter;stroke-miterlimit:4;stroke-dasharray:3.2,.4;stroke-dashoffset:0;stroke-opacity:1" id="path4308-1-4-00" d="m 88.486015,62.748148 c 4.319804,-0.171183 10.924475,1.161192 17.752075,4.092739 6.90571,2.965086 13.55069,8.309703 23.71888,14.447735"/><path style="display:inline;opacity:1;fill:none;fill-rule:evenodd;stroke:#000;stroke-width:.40000001;stroke-linecap:butt;stroke-linejoin:miter;stroke-miterlimit:4;stroke-dasharray:3.2,.4;stroke-dashoffset:0;stroke-opacity:1" id="path4308-1-4-00-4" d="m 172.01573,48.461731 c -6.43409,3.125232 -16.66973,10.486163 -23.18797,15.671613 -5.88131,4.678752 -11.24685,9.115382 -20.13915,17.276162"/></g></svg>