<svg xmlns="http://www.w3.org/2000/svg" xmlns:svg="http://www.w3.org/2000/svg" id="svg4166" version="1.1" viewBox="0 0 256 256"><style id="style3">svg{cursor:default}</style><metadata id="metadata4171"/><g id="layer1" transform="translate(0,-796.36216)" style="display:inline"><path style="fill:gray;fill-opacity:1;fill-rule:evenodd;stroke:#000;stroke-width:1px;stroke-linecap:butt;stroke-linejoin:miter;stroke-opacity:1" id="path4365" d="M 49.465188,895.78362 35.575591,876.08565 55.273565,844.26584 175.48172,825.83056 c 11.35354,3.85521 28.26234,17.23407 30.74575,30.71992 -50.93071,13.70627 -83.62717,62.13414 -156.762282,39.23314 z"/><path style="fill:#333;fill-opacity:1;fill-rule:evenodd;stroke:none;stroke-width:1px;stroke-linecap:butt;stroke-linejoin:miter;stroke-opacity:1" id="path4371" d="m 143.86729,864.66627 0.97959,-0.32346 c -1.1147,-2.82116 -2.24639,-7.8855 -2.48706,-12.79463 -0.23968,-4.88891 0.3921,-9.6429 2.84939,-11.97228 -2.75499,2.13185 -3.77899,6.9467 -3.8809,11.98668 -0.10138,5.01356 0.70034,10.28472 1.55939,13.42715 l 0.97959,-0.32346 z"/><path style="fill:gray;fill-rule:evenodd;stroke:#000;stroke-width:1px;stroke-linecap:butt;stroke-linejoin:miter;stroke-opacity:1" id="path4337" d="m 82.800221,950.07933 c 0.527839,8.70057 1.671668,20.4085 -0.790585,30.93365 1.882289,7.90712 101.731024,93.21912 120.852794,5.57986 1.84249,-11.50825 3.05491,-23.6819 0.65102,-37.7762 z"/><path style="display:inline;fill:#333;fill-rule:evenodd;stroke:none;stroke-width:1px;stroke-linecap:butt;stroke-linejoin:miter;stroke-opacity:1" id="path4339-8" d="m 179.09111,956.40317 c -0.93973,-0.0749 -1.881,-0.1358 -2.8234,-0.18299 -0.0744,4.43702 1.99723,9.63835 5.37061,14.15255 3.45895,4.62872 8.45536,8.78672 14.77422,11.20908 -5.9022,-3.26689 -10.0017,-8.02723 -12.37621,-12.69078 -2.4184,-4.74974 -2.98634,-9.27413 -2.16064,-11.99951 -0.93015,-0.14948 -1.85848,-0.31216 -2.78458,-0.48835 z"/><path style="fill:#333;fill-rule:evenodd;stroke:none;stroke-width:1px;stroke-linecap:butt;stroke-linejoin:miter;stroke-opacity:1" id="path4339" d="m 152.53063,958.86161 c -0.93971,-0.0749 -1.87818,-0.16232 -2.81504,-0.26168 0.0664,2.97377 -1.64199,7.34649 -4.16111,11.87416 -2.51031,4.51184 -5.67492,8.94031 -8.20242,12.13752 3.19393,-2.52489 7.15367,-6.40222 10.55003,-10.53203 3.24036,-3.94012 6.35084,-8.56462 7.40045,-12.65136 -0.92175,-0.20136 -1.84582,-0.39042 -2.77191,-0.56661 z"/><path style="fill:#333;fill-rule:evenodd;stroke:none;stroke-width:1px;stroke-linecap:butt;stroke-linejoin:miter;stroke-opacity:1" id="path4367" d="m 150.74492,883.3259 c 0.58659,-0.22587 1.16905,-0.47289 1.74674,-0.7398 -0.71681,-8.56559 -6.58864,-18.38011 -13.55234,-26.42122 -7.24095,-8.36126 -15.9528,-15.14654 -22.30154,-17.12469 6.07205,2.51394 14.28189,9.70108 20.9136,18.26248 6.53428,8.43562 11.32178,17.92432 11.40268,25.4615 0.59957,0.16931 1.19693,0.35617 1.79086,0.56173 z"/><path style="fill:#333;fill-rule:evenodd;stroke:none;stroke-width:1px;stroke-linecap:butt;stroke-linejoin:miter;stroke-opacity:1" id="path4333" d="M 67.70633,897.68875 C 57.74728,887.41926 51.416083,874.3821 53.758336,857.39783 c -3.221348,16.89858 2.187019,30.6612 11.994724,42.0724 z"/><g id="g4319" transform="translate(66.637781,-35.107684)"><path id="path4303" d="m 9.9752564,972.05503 c 0,0 3.6618026,6.43973 4.2931486,6.43973 0.631345,0 90.595185,3.85832 90.595185,3.85832 -1.75536,-2.51867 11.36404,-16.08432 8.82843,-17.82834 -9.80627,-6.74485 -95.67475,1.85357 -103.7167636,7.53029 z" style="fill:#faa;fill-rule:evenodd;stroke:#000;stroke-width:1px;stroke-linecap:butt;stroke-linejoin:miter;stroke-opacity:1"/><path id="path4295" d="m 143.75733,942.31867 c -6.27841,17.77916 -26.17854,18.06095 -41.47938,25.19068 l -58.336314,0.25253 c 34.647851,-12.24714 69.132484,-23.10767 99.815694,-25.44321 z" style="fill:#faa;fill-rule:evenodd;stroke:#000;stroke-width:1px;stroke-linecap:butt;stroke-linejoin:miter;stroke-opacity:1"/><path id="path4297" d="m 136.30746,953.30408 -17.79067,12.72503 c -26.762288,4.21162 -72.335391,7.17672 -100.210217,13.51015 l -7.269764,-8.8769 c 34.012684,-3.16094 82.447778,-5.38715 125.270651,-17.35828 z" style="fill:#ff8080;fill-rule:evenodd;stroke:#000;stroke-width:1px;stroke-linecap:butt;stroke-linejoin:miter;stroke-opacity:1"/><path id="path4293" d="m 147.39561,930.28164 c 0.13718,4.19003 -2.29395,10.41749 -3.77538,12.70535 l -68.868942,13.15814 z" style="fill:#ff8080;fill-rule:evenodd;stroke:#000;stroke-width:1px;stroke-linecap:butt;stroke-linejoin:miter;stroke-opacity:1"/><path id="path4283" d="m -17.930208,930.1337 c 0.532723,2.18071 4.893302,8.15556 8.3337588,12.37437 L 34.929486,932.48794 C 18.636602,931.11937 0.15779123,931.09257 -17.930208,930.1337 Z" style="fill:#ff8080;fill-rule:evenodd;stroke:#000;stroke-width:1px;stroke-linecap:butt;stroke-linejoin:miter;stroke-opacity:1"/><path id="path4287" d="m 3.2829958,962.20605 c 1.9096665,3.64054 3.1765821,7.12039 5.7353396,10.9232 52.4514416,-3.44158 101.9442946,-25.25489 138.4557346,-42.6582 1.24201,-4.86506 0.94871,-12.89467 0.20921,-15.0234 z" style="fill:#faa;fill-rule:evenodd;stroke:#000;stroke-width:1px;stroke-linecap:butt;stroke-linejoin:miter;stroke-opacity:1"/><path id="path4285" d="m -3.7447433,950.88515 c 2.4203712,3.8964 3.95527311,7.63181 7.269445,11.69072 52.2188963,-3.73391 102.9239283,-28.02559 144.2190783,-46.49501 -0.007,-4.58556 -1.02379,-10.54341 -2.57636,-13.39854 -49.310366,21.12379 -100.549549,37.97813 -148.9121633,48.20283 z" style="fill:#ff8080;fill-rule:evenodd;stroke:#000;stroke-width:1px;stroke-linecap:butt;stroke-linejoin:miter;stroke-opacity:1"/><path id="path4301" d="m 138.3909,962.45858 c 0,1.01016 -0.25254,14.64722 -0.25254,14.64722 l -47.603438,2.14657 C 106.29982,969.4345 121.68911,964.95914 138.3909,962.45858 Z" style="fill:#ff8080;fill-rule:evenodd;stroke:#000;stroke-width:1px;stroke-linecap:butt;stroke-linejoin:miter;stroke-opacity:1"/><path id="path4299" d="m 137.57015,952.48333 c 0.25254,1.01015 0.94701,13.13198 0.94701,13.13198 -11.23401,3.95766 -22.01688,5.80673 -33.58757,6.06092 z" style="fill:#faa;fill-rule:evenodd;stroke:#000;stroke-width:1px;stroke-linecap:butt;stroke-linejoin:miter;stroke-opacity:1"/><path id="path4289" d="m 8.5231621,972.30757 c 1.5230369,2.90888 4.2240809,7.32088 5.8715119,11.11168 53.283926,16.57772 124.106646,4.83679 120.965766,-6.81853 -42.264971,-0.86618 -84.273245,8.53552 -126.8372779,-4.29315 z" style="fill:#faa;fill-rule:evenodd;stroke:#000;stroke-width:1px;stroke-linecap:butt;stroke-linejoin:miter;stroke-opacity:1"/><path id="path4291" d="m 12.658474,980.07312 c 0.963088,2.40133 3.031449,4.78004 3.503967,8.64943 16.344994,9.75327 99.630469,12.10515 121.470839,0 0.91071,-0.50476 0,-13.63706 0,-13.63706 -9.15328,14.70258 -83.021304,18.36804 -124.974806,4.98763 z" style="fill:#ff8080;fill-rule:evenodd;stroke:#000;stroke-width:1px;stroke-linecap:butt;stroke-linejoin:miter;stroke-opacity:1"/><path id="path4281" d="m -11.616754,939.47761 c 0.403188,2.05188 6.7497986,11.84949 8.1551868,11.84949 35.9034112,0.105 99.0477812,-26.23353 148.9618272,-48.05939 -0.52901,-3.65354 -3.40595,-10.38969 -6.08838,-12.81948 -50.702311,20.64435 -99.865204,41.29625 -151.028634,49.02938 z" style="fill:#faa;fill-rule:evenodd;stroke:#000;stroke-width:1px;stroke-linecap:butt;stroke-linejoin:miter;stroke-opacity:1"/></g><path style="fill:#333;fill-rule:evenodd;stroke:none;stroke-width:1px;stroke-linecap:butt;stroke-linejoin:miter;stroke-opacity:1" id="path4361" d="m 166.63778,1017.2545 c -1.32558,-2.9043 -1.14979,-5.4551 -0.28279,-7.5935 0.0794,-2.4421 1.0974,-5.0201 2.78279,-7.5851 -2.24325,1.9457 -4.22709,4.3141 -5.22356,7.0929 -0.17968,2.9282 0.70265,5.6352 2.72356,8.0857 z"/></g></svg>