<svg xmlns="http://www.w3.org/2000/svg" xmlns:svg="http://www.w3.org/2000/svg" xmlns:xlink="http://www.w3.org/1999/xlink" id="svg4166" version="1.1" viewBox="0 0 256 256"><style id="style3">svg{cursor:default}</style><defs id="defs4168"><linearGradient id="linearGradient1" x1="103.929" x2="99.643" y1="873.434" y2="1058.076" gradientTransform="matrix(1.2155062,0,0,1.2155062,-26.333748,-159.25922)" gradientUnits="userSpaceOnUse" xlink:href="#innoGrad1"/><linearGradient id="innoGrad1"><stop style="stop-color:#ff8080;stop-opacity:1" id="stop4222" offset="0"/><stop style="stop-color:#f55;stop-opacity:1" id="stop4224" offset="1"/></linearGradient></defs><metadata id="metadata4171"/><g id="layer1" transform="translate(0,-796.36216)" style="display:inline"><path style="display:inline;fill:url(#linearGradient1);fill-opacity:1;fill-rule:evenodd;stroke:#000;stroke-width:1.2155062px;stroke-linecap:butt;stroke-linejoin:miter;stroke-opacity:1" id="path4199" d="m 45.188322,854.67863 c -29.93114,78.85217 -25.64132,100.75725 -30.08224,164.83837 26.2564,11.8814 61.56564,4.3029 124.012508,7.3671 42.06994,3.3379 94.20131,-1.4472 102.21823,-5.5252 -1.26912,-64.5313 -4.56343,-89.51223 -23.63604,-164.53154 l -5.58056,-18.36228 c -55.33878,-1.32163 -111.25007,0.55924 -163.194225,0.17533 z"/><path style="display:inline;fill:none;fill-rule:evenodd;stroke:#000;stroke-width:.5;stroke-linecap:butt;stroke-linejoin:miter;stroke-miterlimit:4;stroke-dasharray:none;stroke-opacity:1" id="path4434-3" d="m 40.89209,867.0943 c 9.053571,2.91397 23.42982,5.73856 42.409056,5.67242 26.924204,-0.0938 68.513874,-0.66947 92.085064,-0.70508 15.66162,-0.0237 31.1271,-2.4694 44.25588,-5.50305"/><path style="fill:none;fill-rule:evenodd;stroke:#000;stroke-width:.5;stroke-linecap:butt;stroke-linejoin:miter;stroke-miterlimit:4;stroke-dasharray:none;stroke-opacity:1" id="path4434" d="m 48.392857,840.93359 c 54.880953,-0.1169 109.761903,-0.43962 164.642853,-0.89285"/><path style="display:inline;fill:none;fill-rule:evenodd;stroke:#000;stroke-width:.6077531;stroke-linecap:butt;stroke-linejoin:miter;stroke-miterlimit:4;stroke-dasharray:none;stroke-opacity:1" id="path4203" d="m 212.51637,856.20004 c 9.66593,41.28044 23.64855,76.6277 24.14213,166.32026"/><path style="display:inline;fill:none;fill-rule:evenodd;stroke:#000;stroke-width:.6077531;stroke-linecap:butt;stroke-linejoin:miter;stroke-miterlimit:4;stroke-dasharray:3.6465186,.6077531;stroke-dashoffset:0;stroke-opacity:1" id="path4203-9" d="m 209.44911,856.17443 c 5.88707,34.8718 22.47528,60.28584 23.51976,167.12437"/><path style="display:inline;fill:#fca;fill-rule:evenodd;stroke:#000;stroke-width:1;stroke-linecap:butt;stroke-linejoin:miter;stroke-miterlimit:4;stroke-dasharray:none;stroke-opacity:1" id="path4201" d="m 48.141802,841.3208 c -2.661074,2.59414 -5.158866,14.28083 -6.866738,23.73996 13.349929,4.91323 20.259265,5.08221 70.853066,5.82065 l -0.58012,-30.46162 c -56.979678,2.84977 -62.490688,-0.65046 -63.406208,0.90101 z"/><path style="fill:#ff7f2a;fill-rule:evenodd;stroke:#000;stroke-width:.75;stroke-linecap:butt;stroke-linejoin:miter;stroke-miterlimit:4;stroke-dasharray:none;stroke-opacity:1" id="path4173" d="m 120.77347,846.92416 c -1.55173,-8.94329 10.35127,-4.25574 15.56625,-6.34379 l 0.41496,8.53572 z"/><path style="fill:#ff7f2a;fill-rule:evenodd;stroke:#000;stroke-width:.75;stroke-linecap:butt;stroke-linejoin:miter;stroke-miterlimit:4;stroke-dasharray:none;stroke-opacity:1" id="path4175" d="m 119.94482,864.08059 c 2.36004,13.19157 14.28849,6.72883 21.88983,9.1543 l -1.5586,-10.25891 z"/><path id="path4217" d="m 147.79018,870.42101 c 43.61265,-0.73338 63.09717,-2.39179 71.88195,-5.80752 -0.14546,-7.18213 -3.83077,-19.58353 -6.11004,-23.87698 -4.08569,-0.55127 -42.64345,0.85971 -68.36496,-0.34634 z" style="display:inline;fill:#fca;fill-rule:evenodd;stroke:#000;stroke-width:1;stroke-linecap:butt;stroke-linejoin:miter;stroke-miterlimit:4;stroke-dasharray:none;stroke-opacity:1"/><path style="fill:#f95;fill-rule:evenodd;stroke:#000;stroke-width:.75;stroke-linecap:butt;stroke-linejoin:miter;stroke-miterlimit:4;stroke-dasharray:none;stroke-opacity:1" id="path4171" d="m 106.49686,839.51994 10.72487,-0.35507 c 3.56459,2.46039 -1.1456,7.09894 10.72403,7.28891 12.39501,0.19837 5.72664,-4.51872 8.88326,-7.58703 l 13.06484,0.54567 1.41433,34.41781 -9.20257,0.90212 c -2.59074,-3.67406 -2.77901,-7.47855 -7.72795,-7.56935 -3.29387,-0.0603 -6.82593,-0.61709 -10.56779,-0.43604 -3.30067,0.15975 -5.17762,5.10832 -7.70944,7.65142 l -9.10253,-1.69591 z"/><path style="fill:#faa;fill-rule:evenodd;stroke:#000;stroke-width:.75;stroke-linecap:butt;stroke-linejoin:miter;stroke-miterlimit:4;stroke-dasharray:none;stroke-opacity:1" id="path4187" d="m 78.468847,872.7032 10.426375,0.13256 c -0.516421,-8.44705 0.07352,-24.87061 3.960241,-33.01033 l -10.632107,0.12191 c -2.672718,7.90534 -3.349529,23.99836 -3.754509,32.7558 z"/><ellipse style="color:#000;clip-rule:nonzero;display:inline;overflow:visible;visibility:visible;opacity:1;isolation:auto;mix-blend-mode:normal;color-interpolation:sRGB;color-interpolation-filters:linearRGB;solid-color:#000;solid-opacity:1;fill:#ffe680;fill-opacity:1;fill-rule:evenodd;stroke:#000;stroke-width:.75;stroke-linecap:butt;stroke-linejoin:miter;stroke-miterlimit:4;stroke-dasharray:none;stroke-dashoffset:0;stroke-opacity:1;color-rendering:auto;image-rendering:auto;shape-rendering:auto;text-rendering:auto;enable-background:accumulate" id="path4183" cx="83.733" cy="865.241" rx="4.156" ry="3.965" transform="matrix(0.99980668,-0.01966218,0.01966218,0.99980668,0,0)"/><ellipse style="color:#000;clip-rule:nonzero;display:inline;overflow:visible;visibility:visible;opacity:1;isolation:auto;mix-blend-mode:normal;color-interpolation:sRGB;color-interpolation-filters:linearRGB;solid-color:#000;solid-opacity:1;fill:#ffe680;fill-opacity:1;fill-rule:evenodd;stroke:#000;stroke-width:.75;stroke-linecap:butt;stroke-linejoin:miter;stroke-miterlimit:4;stroke-dasharray:none;stroke-dashoffset:0;stroke-opacity:1;color-rendering:auto;image-rendering:auto;shape-rendering:auto;text-rendering:auto;enable-background:accumulate" id="path4183-6" cx="84.111" cy="848.874" rx="4.156" ry="3.965" transform="matrix(0.99980668,-0.01966218,0.01966218,0.99980668,0,0)"/><ellipse style="color:#000;clip-rule:nonzero;display:inline;overflow:visible;visibility:visible;opacity:1;isolation:auto;mix-blend-mode:normal;color-interpolation:sRGB;color-interpolation-filters:linearRGB;solid-color:#000;solid-opacity:1;fill:#ffe680;fill-opacity:1;fill-rule:evenodd;stroke:#000;stroke-width:.75;stroke-linecap:butt;stroke-linejoin:miter;stroke-miterlimit:4;stroke-dasharray:none;stroke-dashoffset:0;stroke-opacity:1;color-rendering:auto;image-rendering:auto;shape-rendering:auto;text-rendering:auto;enable-background:accumulate" id="path4183-1" cx="139.573" cy="848.874" rx="4.156" ry="3.965" transform="matrix(0.99980668,-0.01966218,0.01966218,0.99980668,0,0)"/><ellipse style="color:#000;clip-rule:nonzero;display:inline;overflow:visible;visibility:visible;opacity:1;isolation:auto;mix-blend-mode:normal;color-interpolation:sRGB;color-interpolation-filters:linearRGB;solid-color:#000;solid-opacity:1;fill:#ffe680;fill-opacity:1;fill-rule:evenodd;stroke:#000;stroke-width:.75;stroke-linecap:butt;stroke-linejoin:miter;stroke-miterlimit:4;stroke-dasharray:none;stroke-dashoffset:0;stroke-opacity:1;color-rendering:auto;image-rendering:auto;shape-rendering:auto;text-rendering:auto;enable-background:accumulate" id="path4183-0" cx="139.876" cy="866.755" rx="4.156" ry="3.965" transform="matrix(0.99980668,-0.01966218,0.01966218,0.99980668,0,0)"/><path style="display:inline;fill:#faa;fill-rule:evenodd;stroke:#000;stroke-width:.75;stroke-linecap:butt;stroke-linejoin:miter;stroke-miterlimit:4;stroke-dasharray:none;stroke-opacity:1" id="path4187-73" d="m 180.24033,872.0245 -10.42637,0.13242 c 0.224,-7.93885 0.0615,-24.87586 -3.83399,-33.01033 l 10.63211,0.12192 c 2.51617,7.90531 3.04319,23.99836 3.62825,32.7558 z"/><path style="display:inline;fill:#faa;fill-rule:evenodd;stroke:#000;stroke-width:.75;stroke-linecap:butt;stroke-linejoin:miter;stroke-miterlimit:4;stroke-dasharray:none;stroke-opacity:1" id="path4187-7-5" d="m 52.248274,860.41849 4.682178,0.51327 c -0.856776,-12.22288 3.222828,-19.38997 5.65212,-24.49659 l -4.507049,-0.7599 c -4.589348,7.97555 -5.634538,18.6515 -5.827249,24.74322 z"/><path style="display:inline;fill:#ff7f2a;fill-rule:evenodd;stroke:#000;stroke-width:.75;stroke-linecap:butt;stroke-linejoin:miter;stroke-miterlimit:4;stroke-dasharray:none;stroke-opacity:1" id="path4218-8-5" d="m 75.128771,833.60571 c 4.132217,0.75164 3.019349,4.79328 2.172524,9.1695 -7.725945,6.08651 -4.917318,-5.42717 -2.172524,-9.1695 z"/><path style="display:inline;fill:#ffb380;fill-rule:evenodd;stroke:#000;stroke-width:.75;stroke-linecap:butt;stroke-linejoin:miter;stroke-miterlimit:4;stroke-dasharray:none;stroke-opacity:1" id="path4216-3-0" d="m 71.568415,876.36666 2.106156,-4.65808 c 0.887686,-10.18623 2.49293,-20.13351 3.600286,-29.61266 l -5.046955,2.79095 c -2.24318,3.97385 -0.439048,24.70209 -0.659487,31.47979 z"/><path style="display:inline;fill:#ffb380;fill-rule:evenodd;stroke:#000;stroke-width:.75;stroke-linecap:butt;stroke-linejoin:miter;stroke-miterlimit:4;stroke-dasharray:none;stroke-opacity:1" id="path4214-1-6" d="m 75.409785,842.47023 c -1.682963,9.60892 -2.835578,25.63744 -3.816329,34.0229 -9.520172,0.84738 -16.603874,0.93402 -25.509735,-1.83186 -0.10841,-13.2438 4.469946,-32.26742 7.928128,-39.51368 z"/><path style="display:inline;fill:#ffb380;fill-rule:evenodd;stroke:#000;stroke-width:.75;stroke-linecap:butt;stroke-linejoin:miter;stroke-miterlimit:4;stroke-dasharray:none;stroke-opacity:1" id="path4212-8-7" d="m 76.383365,834.06036 c 1.765551,0.97724 0.931584,3.73436 -1.412597,15.86338 -3.435087,1.6154 -23.816881,1.60615 -26.267074,-2.12852 0.864924,-7.39928 2.810119,-14.7456 4.871968,-14.90344 2.336451,-0.1789 19.554653,-0.63196 22.807706,1.16856 z"/><path style="display:inline;fill:#faa;fill-rule:evenodd;stroke:#000;stroke-width:.75;stroke-linecap:butt;stroke-linejoin:miter;stroke-miterlimit:4;stroke-dasharray:none;stroke-opacity:1" id="path4187-7-5-8" d="m 211.40063,859.91915 -5.7562,0.43599 c 1.41451,-11.85265 -3.37416,-18.86352 -6.20071,-23.85248 l 5.54882,-0.67771 c 5.3896,7.80236 6.35321,18.17876 6.40809,24.0942 z"/><path style="display:inline;fill:#ff7f2a;fill-rule:evenodd;stroke:#000;stroke-width:.75;stroke-linecap:butt;stroke-linejoin:miter;stroke-miterlimit:4;stroke-dasharray:none;stroke-opacity:1" id="path4218-8-5-2" d="m 184.14482,833.58961 c -5.089,0.67467 -3.84487,4.61245 -2.93685,8.87144 9.29168,6.01045 6.19084,-5.2025 2.93685,-8.87144 z"/><path style="display:inline;fill:#ffb380;fill-rule:evenodd;stroke:#000;stroke-width:.75;stroke-linecap:butt;stroke-linejoin:miter;stroke-miterlimit:4;stroke-dasharray:none;stroke-opacity:1" id="path4216-3-0-4" d="m 187.23684,875.14243 -2.44368,-4.5493 c -0.78507,-9.89895 -2.45708,-19.57554 -3.53253,-28.79108 l 6.10505,2.77607 c 2.63205,3.88695 -0.19728,23.98266 -0.12884,30.56431 z"/><path style="display:inline;fill:#ffb380;fill-rule:evenodd;stroke:#000;stroke-width:.75;stroke-linecap:butt;stroke-linejoin:miter;stroke-miterlimit:4;stroke-dasharray:none;stroke-opacity:1" id="path4214-1-6-1" d="m 183.53625,842.19016 c 1.77738,9.34913 2.71334,24.92238 3.66613,33.07468 11.64766,0.94896 20.33057,1.12717 31.33261,-1.43921 0.52731,-12.85352 -4.51979,-31.37942 -8.54417,-38.45889 z"/><path style="display:inline;fill:#ffb380;fill-rule:evenodd;stroke:#000;stroke-width:.75;stroke-linecap:butt;stroke-linejoin:miter;stroke-miterlimit:4;stroke-dasharray:none;stroke-opacity:1" id="path4212-8-7-5" d="m 182.59298,834.01426 c -2.19387,0.92509 -1.25341,3.61232 1.2596,15.41639 4.16374,1.6136 29.15462,1.8754 32.27007,-1.71707 -0.84026,-7.19355 -3.00643,-14.35004 -5.52982,-14.53062 -2.85944,-0.20467 -23.95757,-0.87317 -27.99985,0.83127 z"/><ellipse style="color:#000;clip-rule:nonzero;display:inline;overflow:visible;visibility:visible;opacity:1;isolation:auto;mix-blend-mode:normal;color-interpolation:sRGB;color-interpolation-filters:linearRGB;solid-color:#000;solid-opacity:1;fill:#fd5;fill-opacity:1;fill-rule:evenodd;stroke:#000;stroke-width:.79943949;stroke-linecap:butt;stroke-linejoin:miter;stroke-miterlimit:4;stroke-dasharray:none;stroke-dashoffset:0;stroke-opacity:1;color-rendering:auto;image-rendering:auto;shape-rendering:auto;text-rendering:auto;enable-background:accumulate" id="path4220-0-5-9" cx="190.928" cy="840.431" rx="2.812" ry="2.623" transform="matrix(0.999587,0.02873727,0.01225941,0.99992485,0,0)"/><ellipse style="color:#000;clip-rule:nonzero;display:inline;overflow:visible;visibility:visible;opacity:1;isolation:auto;mix-blend-mode:normal;color-interpolation:sRGB;color-interpolation-filters:linearRGB;solid-color:#000;solid-opacity:1;fill:#fd5;fill-opacity:1;fill-rule:evenodd;stroke:#000;stroke-width:.76290721;stroke-linecap:butt;stroke-linejoin:miter;stroke-miterlimit:4;stroke-dasharray:none;stroke-dashoffset:0;stroke-opacity:1;color-rendering:auto;image-rendering:auto;shape-rendering:auto;text-rendering:auto;enable-background:accumulate" id="path4220-0-5-9-3" cx="49.925" cy="844.811" rx="2.83" ry="2.373" transform="matrix(0.99966615,0.02583786,0.01363594,0.99990703,0,0)"/></g></svg>