<svg xmlns="http://www.w3.org/2000/svg" xmlns:svg="http://www.w3.org/2000/svg" xmlns:xlink="http://www.w3.org/1999/xlink" id="svg4206" version="1.1" viewBox="0 0 256 256"><style id="style3">svg{cursor:default}</style><defs id="defs4208"><linearGradient id="linearGradient2"><stop style="stop-color:#916f6f;stop-opacity:.90196079" id="stop4390" offset="0"/><stop id="stop4398" offset=".466" style="stop-color:#c59b8b;stop-opacity:.72941178"/><stop style="stop-color:#fca;stop-opacity:.3764706" id="stop4392" offset="1"/></linearGradient><linearGradient id="linearGradient0"><stop style="stop-color:#916f6f;stop-opacity:.90232557" id="stop4382" offset="0"/><stop id="stop4396" offset=".479" style="stop-color:#c59b8b;stop-opacity:.72941178"/><stop style="stop-color:#fca;stop-opacity:.37674418" id="stop4384" offset="1"/></linearGradient><linearGradient id="linearGradient1" x1="65.966" x2="64.271" y1="95.307" y2="169.253" gradientTransform="matrix(1.071,0,0,1.071,-10.669528,-10.948353)" gradientUnits="userSpaceOnUse" xlink:href="#linearGradient0"/><linearGradient id="linearGradient3" x1="189.428" x2="194.713" y1="95.464" y2="169.758" gradientTransform="matrix(1.071,0,0,1.071,-10.669528,-10.948353)" gradientUnits="userSpaceOnUse" xlink:href="#linearGradient2"/></defs><metadata id="metadata4211"/><g id="layer3" style="display:inline;opacity:1"><path style="display:inline;opacity:1;fill:#fff6d5;fill-rule:evenodd;stroke:#000;stroke-width:1.07099998px;stroke-linecap:butt;stroke-linejoin:miter;stroke-opacity:1" id="path4316-7" d="m 149.76512,138.32491 c -2.79119,-4.69932 -5.75711,-9.85402 -6.76629,-16.18105 -0.69465,-2.95596 -3.27939,0.72879 -2.52579,2.29267 1.97556,4.76535 3.68412,9.52353 6.77478,14.31883 1.19222,0.89329 3.47939,1.38767 2.5173,-0.43045 z"/><path style="fill:#f55;fill-rule:evenodd;stroke:#000;stroke-width:1.07099998px;stroke-linecap:butt;stroke-linejoin:miter;stroke-opacity:1" id="path4333" d="m 108.24016,130.3567 c -2.07316,-2.35926 -2.34856,-4.54344 0.66938,-6.40686 1.30049,-0.92334 1.49224,-2.58581 2.10375,-3.96845 0.47232,-0.41995 3.4576,-0.9409 2.58187,2.53406 -1.17781,2.31016 -1.54086,4.21294 -5.355,7.84125 z"/><path style="fill:#fff6d5;fill-rule:evenodd;stroke:#000;stroke-width:1.07099998px;stroke-linecap:butt;stroke-linejoin:miter;stroke-opacity:1" id="path4316" d="m 113.54734,121.08109 c -1.6119,5.22265 -3.44424,10.88039 -7.45874,15.87375 -1.72582,2.49835 2.74067,1.94274 3.3947,0.33467 2.2081,-4.66215 4.59003,-9.12151 6.07217,-14.63062 -0.13752,-1.4834 -1.30548,-3.51106 -2.00813,-1.5778 z"/><path style="display:inline;opacity:1;fill:#f55;fill-rule:evenodd;stroke:#000;stroke-width:1.04995096px;stroke-linecap:butt;stroke-linejoin:miter;stroke-opacity:1" id="path4333-8" d="m 147.8771,131.14196 c 1.98854,-2.36392 3.49582,-3.45273 0.60107,-5.31985 -1.24741,-0.92515 -1.57477,-3.16464 -2.16132,-4.55003 -0.45304,-0.42078 -3.31647,-0.94275 -2.4765,2.53907 1.12976,2.31473 0.37829,3.69533 4.03675,7.33081 z"/><path style="fill:#f55;fill-rule:evenodd;stroke:#000;stroke-width:1.07099998px;stroke-linecap:butt;stroke-linejoin:miter;stroke-opacity:1" id="path4356" d="m 4.8790039,118.34064 c 1.8975838,-5.33529 7.8857591,-8.66524 12.2352951,-11.18342 8.885539,15.20963 11.245952,17.08374 16.807239,25.3086 1.613509,2.38629 -0.216405,10.07693 -2.275779,6.37978 -5.436554,-9.76015 -1.123064,-6.63428 -15.268452,-29.10874 l -8.6283866,10.59409 z"/><path style="fill:#ff8080;fill-rule:evenodd;stroke:#000;stroke-width:1.07099998px;stroke-linecap:butt;stroke-linejoin:miter;stroke-opacity:1" id="path4354" d="m 14.68688,119.60895 c -1.504666,0.1814 -3.038307,0.10207 -4.586316,-0.10667 2.775996,-2.70757 -3.8175615,-1.48874 -5.4210135,-1.04285 -0.3724167,1.08933 -0.8800203,4.16603 0,6.28839 3.7613124,0.87369 6.6366275,1.04485 9.9397125,1.55521 z"/><path style="display:inline;opacity:1;fill:#f55;fill-rule:evenodd;stroke:#000;stroke-width:1.07099998px;stroke-linecap:butt;stroke-linejoin:miter;stroke-opacity:1" id="path4356-3" d="m 252.57249,119.57903 c -1.89758,-5.33529 -8.65077,-8.9043 -13.00031,-11.42248 -8.88553,15.20964 -10.48094,17.32281 -16.04222,25.54766 -1.61351,2.3863 0.2164,10.07695 2.27577,6.37978 5.43656,-9.76013 0.40588,-6.58647 14.55127,-29.06092 l 9.34556,10.54627 z"/><path style="display:inline;opacity:1;fill:#ff8080;fill-rule:evenodd;stroke:#000;stroke-width:1.07099998px;stroke-linecap:butt;stroke-linejoin:miter;stroke-opacity:1" id="path4354-4" d="m 242.76461,120.84735 c 1.50467,0.18139 3.03831,0.10206 4.58632,-0.10667 -2.776,-2.70758 3.81756,-1.48875 5.42101,-1.04285 0.37242,1.08933 0.88001,4.16602 0,6.2884 -3.76131,0.87368 -6.63662,1.04483 -9.93971,1.55519 z"/><path style="fill:none;fill-rule:evenodd;stroke:#000;stroke-width:1.07099998px;stroke-linecap:butt;stroke-linejoin:miter;stroke-opacity:1" id="path4376" d="m 10.224152,119.50751 c -2.2765978,0.0677 -3.7576362,-0.46119 -5.3417498,-0.91282"/><path style="fill:none;fill-rule:evenodd;stroke:#000;stroke-width:1.07099998px;stroke-linecap:butt;stroke-linejoin:miter;stroke-opacity:1" id="path4378" d="m 247.45871,120.69083 c 2.54061,-0.24794 3.3893,-0.49586 4.96985,-0.7438"/><path style="fill:url(#linearGradient1);fill-opacity:1;fill-rule:evenodd;stroke:#000;stroke-width:2.14199996;stroke-linecap:butt;stroke-linejoin:miter;stroke-miterlimit:4;stroke-dasharray:none;stroke-opacity:1" id="path4299" d="M 67.225355,83.366198 C 28.87296,83.213799 18.524718,94.721326 14.44442,118.74974 l 0.151641,8.08264 c 4.887177,26.03996 20.986988,42.66602 40.999155,43.35415 38.82627,1.33508 57.965874,-46.37338 58.691634,-59.23256 l 0.47671,-8.61538 c -1.93791,-3.743582 2.03527,-18.775406 -47.538205,-18.972392 z"/><path style="fill:#ff8080;fill-rule:evenodd;stroke:#000;stroke-width:1.07099998px;stroke-linecap:butt;stroke-linejoin:miter;stroke-opacity:1" id="path4352" d="M 74.663235,83.366198 C 114.1144,81.388231 159.04634,82.597665 192.04649,83.636666 l -19.54133,1.62281 c 0.87152,-1.100238 -78.980325,-2.083557 -80.464334,-0.20285 -0.270468,-0.06761 -17.377591,-1.690428 -17.377591,-1.690428 z"/><path style="display:inline;opacity:1;fill:url(#linearGradient3);fill-opacity:1;fill-rule:evenodd;stroke:#000;stroke-width:2.14199996;stroke-linecap:butt;stroke-linejoin:miter;stroke-miterlimit:4;stroke-dasharray:none;stroke-opacity:1" id="path4299-5" d="m 189.56359,83.980175 c 38.35239,-0.1524 48.70063,12.215747 52.78093,36.244165 l -0.15164,8.08263 c -4.88718,26.03998 -21.56073,42.66602 -41.5729,43.35415 -38.82627,1.33508 -58.92214,-46.46901 -59.2654,-60.18881 l -0.4767,-8.61538 c 1.93791,-3.743578 -0.88777,-18.679769 48.68571,-18.876755 z"/><path style="fill:#ff8080;fill-rule:evenodd;stroke:#000;stroke-width:1.07099998px;stroke-linecap:butt;stroke-linejoin:miter;stroke-opacity:1" id="path4350" d="m 114.07328,102.38639 c 0.0478,0.33469 -0.0477,8.65407 -0.0477,8.65407 l 4.82907,-1.43438 17.30812,0.0477 5.59407,1.53 -0.14344,-8.415 -4.78125,1.81689 -17.92969,-0.23906 z"/></g></svg>