<svg xmlns="http://www.w3.org/2000/svg" xmlns:svg="http://www.w3.org/2000/svg" id="svg4206" version="1.1" viewBox="0 0 256 256"><style id="style3">svg{cursor:default}</style><metadata id="metadata4211"/><g id="layer3" style="display:inline;opacity:1"><path style="display:inline;opacity:1;fill:#999;fill-rule:evenodd;stroke:#000;stroke-width:1.1040808px;stroke-linecap:butt;stroke-linejoin:miter;stroke-opacity:1" id="path4468-0" d="m 233.66365,90.460789 c 0.13355,-0.67975 -1.94779,-2.167598 -2.4615,-0.760325 0.58479,1.519568 -0.095,1.469332 0.40708,1.871693 7.13364,11.403343 10.36384,23.523263 16.89683,32.095423 l 2.81054,-4.40092 c -5.77512,-10.80552 -12.08216,-18.00861 -17.65295,-28.805871 z"/><path style="fill:#999;fill-rule:evenodd;stroke:#000;stroke-width:1.1040808px;stroke-linecap:butt;stroke-linejoin:miter;stroke-opacity:1" id="path4431" d="m 113.5284,141.89835 c 7.39416,-6.54075 35.22764,-1.77893 29.41577,0.34852 l -1.04559,-7.04027 c -8.82491,0.40931 -17.63505,0.83173 -28.09137,-0.20911 z"/><path style="fill:#999;fill-rule:evenodd;stroke:#000;stroke-width:1.1040808px;stroke-linecap:butt;stroke-linejoin:miter;stroke-opacity:1" id="path4468" d="m 22.510269,89.53199 c -0.133551,-0.679756 1.947787,-2.167599 2.461502,-0.760332 -0.584793,1.519572 0.09495,1.469335 -0.407082,1.871695 C 17.431049,102.04668 14.20085,114.1666 7.6678623,122.73876 L 4.8573219,118.33784 C 10.632434,107.53232 16.939482,100.32924 22.510269,89.53199 Z"/><path style="fill:#f55;fill-rule:evenodd;stroke:#000;stroke-width:1.1040808px;stroke-linecap:butt;stroke-linejoin:miter;stroke-opacity:1" id="path4466" d="m 2.3130638,125.2387 c 0.5564611,-2.52102 0.8479859,-5.04204 2.3699911,-7.56306 l 2.5442549,0.52279 -0.056717,3.34609 -4.3695941,12.14598 z"/><path style="display:inline;opacity:1;fill:#ececec;fill-rule:evenodd;stroke:#000;stroke-width:1.1040808px;stroke-linecap:butt;stroke-linejoin:miter;stroke-opacity:1;fill-opacity:.45327103" id="path4433-2" d="m 143.49185,142.0544 c 7.09256,-5.81004 16.45898,14.2337 9.13143,17.98404 -2.25382,1.15353 -12.02567,-15.61317 -9.13143,-17.98404 z"/><path style="display:inline;opacity:1;fill:none;fill-rule:evenodd;stroke:#000;stroke-width:1.1040808px;stroke-linecap:butt;stroke-linejoin:miter;stroke-opacity:1" id="path4439-4" d="m 153.60986,149.39878 c 0.32138,2.21216 -0.6539,4.37888 -1.52797,1.873"/><path style="fill:#ececec;fill-rule:evenodd;stroke:#000;stroke-width:1.1040808px;stroke-linecap:butt;stroke-linejoin:miter;stroke-opacity:1;fill-opacity:.45490196" id="path4433" d="m 113.14954,141.92022 c -7.09256,-5.81004 -16.458981,14.2337 -9.13143,17.98404 2.25382,1.15353 12.02567,-15.61317 9.13143,-17.98404 z"/><path style="fill:none;fill-rule:evenodd;stroke:#000;stroke-width:1.1040808px;stroke-linecap:butt;stroke-linejoin:miter;stroke-opacity:1" id="path4439" d="m 103.03829,149.16601 c -0.32137,2.21216 0.65391,4.37889 1.52797,1.87301"/><path style="fill:#f55;fill-rule:evenodd;stroke:#000;stroke-width:1.1040808px;stroke-linecap:butt;stroke-linejoin:miter;stroke-opacity:1" id="path4437" d="m 109.94949,149.19496 c 0.76232,-6.10893 0.0477,-8.83111 -1.16108,-6.52986 0.3569,3.07162 -0.53678,6.10063 -1.7511,9.04132 l -2.49103,-0.6851 c 3.04289,-9.69274 0.15083,-6.99461 -1.55044,-1.56795 -0.97067,-0.80881 0.81301,-7.23276 2.86494,-7.27621 2.13763,-0.69454 4.27527,-7.20288 6.41291,1.95176 z"/><path style="display:inline;opacity:1;fill:#f55;fill-rule:evenodd;stroke:#000;stroke-width:1.1040808px;stroke-linecap:butt;stroke-linejoin:miter;stroke-opacity:1" id="path4437-8" d="m 146.68211,149.32914 c -0.76232,-6.10893 -0.0477,-8.83111 1.16107,-6.52986 -0.35689,3.07162 0.53679,6.10063 1.75111,9.04132 l 2.49103,-0.6851 c -3.04289,-9.69275 -0.15083,-6.99461 1.55043,-1.56795 0.97068,-0.80881 -0.81301,-7.23276 -2.86493,-7.27621 -2.13763,-0.69454 -4.27528,-7.20288 -6.41291,1.95176 z"/><path style="fill:#ff8080;fill-rule:evenodd;stroke:#000;stroke-width:1.1040808px;stroke-linecap:butt;stroke-linejoin:miter;stroke-opacity:1" id="path4464" d="M 2.9754449,125.8786 6.59996,122.2762 c 1.7460696,-1.67879 5.76206,-0.40096 5.506744,0.87133 0.115681,1.6442 0.07458,3.05387 -0.104556,4.60056 z"/><path style="fill:#f55;fill-rule:evenodd;stroke:#000;stroke-width:1.1040808px;stroke-linecap:butt;stroke-linejoin:miter;stroke-opacity:1" id="path4462" d="m 13.884197,126.91163 c -3.047194,-0.25505 -7.3979849,-0.79978 -11.1877522,-1.21985 l 0.1045564,7.77219 c 4.8362449,2.24065 7.5595008,2.50917 11.1528998,3.58984 z"/><path id="path4512" d="m 33.595182,116.06393 c 7.024017,0.0267 15.510233,1.05993 24.466602,1.53752 24.99324,1.33273 55.058376,6.40411 54.582996,17.67608 l -0.47872,6.98245 c 0,0 -5.42566,19.28676 -15.851758,26.11409 -7.778133,5.09338 -19.38958,5.46919 -34.424894,6.06813 -48.705758,1.94021 -44.86465,-20.73609 -46.628006,-42.88664 -1.017694,-12.78382 6.627083,-15.53612 18.33378,-15.49163 z" style="fill:#dbe2e3;fill-opacity:.49302326;fill-rule:evenodd;stroke:none;stroke-width:1px;stroke-linecap:butt;stroke-linejoin:miter;stroke-opacity:1"/><path style="fill:#ff8080;fill-rule:evenodd;stroke:#000;stroke-width:1.1040808px;stroke-linecap:butt;stroke-linejoin:miter;stroke-opacity:1" id="path4411" d="m 36.581806,114.5566 c -14.365937,-0.22053 -24.373929,2.37262 -23.220199,16.86527 1.817334,22.82856 -1.750791,47.11381 48.445858,45.11421 15.495546,-0.61727 26.967181,-1.19191 34.983404,-6.4412 10.745231,-7.03632 16.843701,-27.92763 16.843701,-27.92763 l 0.49382,-7.19594 c 0.48994,-11.617 -30.135806,-17.85083 -55.894093,-19.22437 -7.692104,-0.41018 -15.12252,-1.0901 -21.652491,-1.19034 z m -2.986624,1.50733 c 7.024017,0.0267 15.510233,1.05993 24.466602,1.53752 24.99324,1.33273 55.058376,6.40411 54.582996,17.67608 l -0.47872,6.98245 c 0,0 -5.42566,19.28676 -15.851758,26.11409 -7.778133,5.09338 -19.38958,5.46919 -34.424894,6.06813 -48.705758,1.94021 -44.86465,-20.73609 -46.628006,-42.88664 -1.017694,-12.78382 6.627083,-15.53612 18.33378,-15.49163 z"/><path id="path4523" d="m 222.33475,115.64059 c -7.02401,0.0267 -15.51022,1.05993 -24.46659,1.53752 -24.99325,1.33274 -55.05838,6.40411 -54.583,17.67608 l 0.47872,6.98245 c 0,0 5.42566,19.28676 15.85175,26.1141 7.77814,5.09337 19.38958,5.46918 34.4249,6.06812 48.70576,1.94021 44.86465,-20.73609 46.628,-42.88664 1.0177,-12.78382 -6.62708,-15.53611 -18.33378,-15.49163 z" style="display:inline;opacity:1;fill:#dbe2e3;fill-opacity:.49411765;fill-rule:evenodd;stroke:none;stroke-width:1px;stroke-linecap:butt;stroke-linejoin:miter;stroke-opacity:1"/><path style="display:inline;opacity:1;fill:#ff8080;fill-rule:evenodd;stroke:#000;stroke-width:1.1040808px;stroke-linecap:butt;stroke-linejoin:miter;stroke-opacity:1" id="path4411-6" d="m 219.34814,114.13327 c 14.36593,-0.22053 24.37392,2.37261 23.2202,16.86526 -1.81734,22.82856 1.75078,47.11381 -48.44586,45.11421 -15.49555,-0.61727 -26.96719,-1.19191 -34.98341,-6.4412 -10.74523,-7.03631 -16.84369,-27.92763 -16.84369,-27.92763 l -0.49383,-7.19594 c -0.48994,-11.617 30.1358,-17.85083 55.89409,-19.22437 7.6921,-0.41018 15.12252,-1.09009 21.6525,-1.19033 z m 2.98661,1.50732 c -7.02401,0.0267 -15.51022,1.05993 -24.46659,1.53752 -24.99325,1.33274 -55.05838,6.40411 -54.583,17.67608 l 0.47872,6.98245 c 0,0 5.42566,19.28676 15.85175,26.1141 7.77814,5.09337 19.38958,5.46918 34.4249,6.06812 48.70576,1.94021 44.86465,-20.73609 46.628,-42.88664 1.0177,-12.78382 -6.62708,-15.53611 -18.33378,-15.49163 z"/><path style="fill:#433c3c;fill-rule:evenodd;stroke:#000;stroke-width:1.1040808px;stroke-linecap:butt;stroke-linejoin:miter;stroke-opacity:1;fill-opacity:1" id="path4470" d="m 21.516964,90.089635 c 2.278937,-4.76947 9.098158,-12.377637 14.289653,-12.668998 5.330009,-0.299134 19.907365,7.740163 28.927835,12.721278 1.734639,0.957869 2.079552,9.410259 -1.707786,8.260116 C 59.158003,97.124094 38.337118,80.500558 35.109561,81.393858 32.048051,82.2412 27.848558,88.56192 24.218057,92.145951 23.415691,90.8623 22.674818,90.47544 21.516964,90.089635 Z"/><path style="display:inline;opacity:1;fill:#f55;fill-rule:evenodd;stroke:#000;stroke-width:1.1040808px;stroke-linecap:butt;stroke-linejoin:miter;stroke-opacity:1" id="path4466-8" d="m 253.73536,126.45624 c -0.55645,-2.52101 -0.84797,-5.04204 -2.36998,-7.56305 l -2.54426,0.52278 0.0567,3.3461 4.3696,12.14598 z"/><path style="display:inline;opacity:1;fill:#ff8080;fill-rule:evenodd;stroke:#000;stroke-width:1.1040808px;stroke-linecap:butt;stroke-linejoin:miter;stroke-opacity:1" id="path4464-4" d="m 252.11519,126.67791 -3.62451,-3.6024 c -1.74607,-1.67879 -5.76206,-0.40096 -5.50674,0.87133 -0.11568,1.6442 -0.0746,3.05387 0.10455,4.60057 z"/><path style="display:inline;opacity:1;fill:#f55;fill-rule:evenodd;stroke:#000;stroke-width:1.1040808px;stroke-linecap:butt;stroke-linejoin:miter;stroke-opacity:1" id="path4462-3" d="m 242.71444,127.92006 c 3.0472,-0.25506 7.39798,-0.79979 11.18775,-1.21986 l -0.10456,7.77219 c -4.83623,2.24065 -7.55949,2.50918 -11.15289,3.58984 z"/><path style="display:inline;opacity:1;fill:#433c3c;fill-rule:evenodd;stroke:#000;stroke-width:1.1040808px;stroke-linecap:butt;stroke-linejoin:miter;stroke-opacity:1;fill-opacity:1" id="path4470-3" d="m 233.98752,90.030599 c -2.27893,-4.769463 -9.09816,-12.37764 -14.28965,-12.668996 -5.33001,-0.299139 -19.90736,7.740159 -28.92784,12.721274 -1.73464,0.957868 -2.07956,9.410258 1.70778,8.260115 3.86867,-1.27793 24.68956,-17.901467 27.91712,-17.008166 3.0615,0.847338 7.261,7.168057 10.8915,10.752091 0.80236,-1.283649 1.54324,-1.670508 2.70109,-2.056318 z"/></g></svg>