<svg xmlns="http://www.w3.org/2000/svg" xmlns:svg="http://www.w3.org/2000/svg" id="svg4164" version="1.1" viewBox="0 0 256 256"><style id="style3">svg{cursor:default}</style><defs id="defs4166"><marker id="Arrow1Lstart" orient="auto" refX="0" refY="0" style="overflow:visible"><path id="path4233" d="M 0.0,0.0 L 5.0,-5.0 L -12.5,0.0 L 5.0,5.0 L 0.0,0.0 z" transform="scale(0.8) translate(12.5,0)" style="fill-rule:evenodd;stroke:#000;stroke-width:1pt;stroke-opacity:1;fill:#000;fill-opacity:1"/></marker></defs><metadata id="metadata4169"/><g id="layer1" transform="translate(0,-796.36219)" style="display:inline"><path style="fill:#ff8080;fill-rule:evenodd;stroke:#000;stroke-width:1px;stroke-linecap:butt;stroke-linejoin:miter;stroke-opacity:1" id="path4222" d="m 51.676836,842.03235 c -12.69489,36.22267 96.319714,168.48915 165.044634,160.46455 l -22.81642,21.5441 c -7.3894,1.9343 -14.53288,1.425 -22.75119,-1.006 C 149.21698,1016.5463 124.8152,999.6849 102.3545,980.92307 87.489709,968.50626 73.316955,954.48774 61.043892,939.18556 47.919046,922.82136 36.953343,904.96755 29.209423,885.34518 c -3.791173,-9.60649 -5.42532,-15.50231 -4.618666,-28.22585 3.875064,-6.89955 21.785125,-14.50489 27.086079,-15.08698 z"/><path style="fill:#faa;fill-rule:evenodd;stroke:#000;stroke-width:1px;stroke-linecap:butt;stroke-linejoin:miter;stroke-opacity:1" id="path4220" d="m 22.955496,859.79112 c 5.215405,-26.43201 36.801872,-31.19287 46.387485,-31.37611 84.228129,-1.61013 181.702979,128.51053 159.803979,165.16589 -4.37794,7.328 -22.68381,28.8659 -38.73622,32.1136 C 252.69251,974.78271 54.527012,798.20688 22.955496,859.79112 Z"/><path style="fill:#f55;fill-rule:evenodd;stroke:#000;stroke-width:1px;stroke-linecap:butt;stroke-linejoin:miter;stroke-opacity:1" id="path4216" d="M 58.722528,846.73188 C 44.961081,843.3482 33.232413,844.27231 26.171912,852.1117 11.469132,868.43645 47.129588,932.07049 89.412954,970.42128 119.13517,997.3792 176.72216,1040.2846 198.31343,1021.7223 226.92714,997.1227 178.94418,929.21804 146.20442,899.30096 123.60251,878.6477 86.900732,853.66034 58.722528,846.73188 Z m -2.784178,3.58562 c 27.847024,6.09334 63.69393,31.31225 86.35891,52.02315 32.08497,29.31875 76.80104,93.32705 52.66428,114.71825 C 174.07842,1035.5666 120.55483,994.3148 91.427071,967.89599 49.989368,930.31221 15.761615,870.29661 30.17034,854.29836 c 6.589798,-7.31676 13.110269,-6.75055 25.76801,-3.98086 z"/><path style="fill:#fff;fill-rule:evenodd;stroke:none;stroke-width:1px;stroke-linecap:butt;stroke-linejoin:miter;stroke-opacity:1" id="path4236" d="m 224.45425,969.56549 c -1.85546,-9.42717 -4.6839,-18.91509 -8.32236,-28.30462 -10.87415,-21.88868 -26.1768,-42.40199 -43.12559,-59.47805 -23.92467,-24.10433 -51.18297,-41.41167 -74.04736,-46.13149 22.56401,5.59355 49.0869,23.59926 72.06537,48.04618 16.31104,17.35341 30.81425,37.92976 40.86201,59.60248 4.94336,8.48047 9.20587,17.27987 12.56793,26.2655 z"/></g></svg>