<svg xmlns="http://www.w3.org/2000/svg" xmlns:svg="http://www.w3.org/2000/svg" xmlns:xlink="http://www.w3.org/1999/xlink" id="svg4206" version="1.1" viewBox="0 0 256 256"><style id="style3">svg{cursor:default}</style><defs id="defs4208"><linearGradient id="linearGradient10"><stop style="stop-color:#ff8080;stop-opacity:1" id="stop4433" offset="0"/><stop style="stop-color:#faa;stop-opacity:1" id="stop4435" offset="1"/></linearGradient><linearGradient id="linearGradient8"><stop style="stop-color:#ff8080;stop-opacity:1" id="stop4425" offset="0"/><stop style="stop-color:#faa;stop-opacity:1" id="stop4427" offset="1"/></linearGradient><linearGradient id="linearGradient6"><stop style="stop-color:#ff8080;stop-opacity:1" id="stop4417" offset="0"/><stop style="stop-color:#faa;stop-opacity:1" id="stop4419" offset="1"/></linearGradient><linearGradient id="linearGradient4"><stop style="stop-color:#ff8080;stop-opacity:1" id="stop4356" offset="0"/><stop style="stop-color:#faa;stop-opacity:1" id="stop4358" offset="1"/></linearGradient><linearGradient id="linearGradient2"><stop style="stop-color:#ff8080;stop-opacity:1" id="stop4348" offset="0"/><stop style="stop-color:#faa;stop-opacity:1" id="stop4350" offset="1"/></linearGradient><linearGradient id="linearGradient0"><stop style="stop-color:#ff8080;stop-opacity:1" id="stop4340" offset="0"/><stop style="stop-color:#faa;stop-opacity:1" id="stop4342" offset="1"/></linearGradient><linearGradient id="linearGradient1" x1="130.815" x2="158.846" y1="194.381" y2="176.198" gradientUnits="userSpaceOnUse" xlink:href="#linearGradient0"/><linearGradient id="linearGradient3" x1="81.822" x2="124.249" y1="177.966" y2="150.692" gradientUnits="userSpaceOnUse" xlink:href="#linearGradient2"/><linearGradient id="linearGradient5" x1="62.377" x2="101.773" y1="131.751" y2="111.801" gradientUnits="userSpaceOnUse" xlink:href="#linearGradient4"/><linearGradient id="linearGradient7" x1="189.286" x2="218.393" y1="172.786" y2="148.857" gradientUnits="userSpaceOnUse" xlink:href="#linearGradient6"/><linearGradient id="linearGradient9" x1="149.286" x2="188.75" y1="148.679" y2="123.321" gradientUnits="userSpaceOnUse" xlink:href="#linearGradient8"/><linearGradient id="linearGradient11" x1="115.357" x2="155.714" y1="107.071" y2="95.643" gradientUnits="userSpaceOnUse" xlink:href="#linearGradient10"/></defs><metadata id="metadata4211"/><g id="layer4"><path style="fill:#ff2a2a;fill-rule:evenodd;stroke:#000;stroke-width:1px;stroke-linecap:butt;stroke-linejoin:miter;stroke-opacity:1" id="path4401" d="M 102.97243,95.322611 C 98.969731,97.410976 71.881773,71.570457 80.170026,59.798762 90.730231,44.800247 113.4197,67.601992 134.09775,72.783582 119.00479,90.51133 113.34754,87.809601 102.97243,95.322611 Z"/><path style="fill:#f55;fill-rule:evenodd;stroke:#000;stroke-width:1px;stroke-linecap:butt;stroke-linejoin:miter;stroke-opacity:1" id="path4399" d="M 96.563044,89.947607 99.289431,88.9438 C 85.154366,82.701153 73.734991,65.344606 82.076005,58.327773 93.937401,48.349439 113.46662,67.769297 128.83929,72.160714 l 0.71428,-1.875 C 115.9468,67.287251 92.255943,45.568115 80.858502,57.314993 69.520147,69.000973 90.996181,95.109608 96.563044,89.947607 Z"/><path style="fill:#f55;fill-rule:evenodd;stroke:#000;stroke-width:1px;stroke-linecap:butt;stroke-linejoin:miter;stroke-opacity:1" id="path4397" d="m 119.01786,81.714286 c 2.23825,-3.32288 6.71995,-14.15979 19.91071,-14.375 12.54614,14.859858 34.7175,44.108634 37.829,56.587524 z"/><path style="fill:#faa;fill-rule:evenodd;stroke:#000;stroke-width:1px;stroke-linecap:butt;stroke-linejoin:miter;stroke-opacity:1" id="path4395" d="m 172.67857,119.75 c -2.7084,-7.92709 -7.80528,-15.53253 -12.93546,-23.087606 -5.16972,-7.613303 -10.38694,-15.169609 -16.81835,-21.413663 -2.9601,-2.873871 1.90007,-3.955859 3.86095,-3.980874 16.16879,19.358587 26.31219,30.774623 39.19643,45.803573 z"/><path style="fill:url(#linearGradient11);fill-rule:evenodd;stroke:#000;stroke-width:1px;stroke-linecap:butt;stroke-linejoin:miter;stroke-opacity:1;fill-opacity:1" id="path4393" d="M 73.660714,84.392857 C 72.42098,83.847108 76.345465,72.15938 77.589286,63.5 c -0.199751,15.757681 17.427875,24.584153 23.125004,24.508929 7.48777,-0.09887 21.86405,-7.483802 33.48214,-13.616072 6.39841,-3.377217 14.68057,8.622228 22.9706,21.972133 6.64841,10.70632 13.70739,22.16856 16.76417,28.10895 L 125.17857,141.71429 76.25,97.696428 Z"/><path style="fill:url(#linearGradient9);fill-rule:evenodd;stroke:#000;stroke-width:1px;stroke-linecap:butt;stroke-linejoin:miter;stroke-opacity:1;fill-opacity:1" id="path4389" d="m 215.08928,140.55357 c -11.56918,-8.22521 -22.30523,-17.68754 -32.32142,-27.85714 -22.59914,6.08525 -41.4968,18.5394 -43.92857,18.83928 -10.42606,1.28572 -17.85497,-16.8343 -35.80358,-18.57142 l -0.26785,22.58928 60.44643,42.5 z"/><path style="fill:url(#linearGradient7);fill-rule:evenodd;stroke:#000;stroke-width:1px;stroke-linecap:butt;stroke-linejoin:miter;stroke-opacity:1;fill-opacity:1" id="path4387" d="m 239.73214,173.05357 c 3.30204,-9.99711 -19.84807,-27.8389 -25.35714,-33.39286 -14.75545,-7.62 -52.19276,3.63537 -52.05357,33.21429 3.62516,10.57636 67.05732,24.64758 77.41071,0.17857 z"/><path style="fill:#ff2a2a;fill-rule:evenodd;stroke:#000;stroke-width:1px;stroke-linecap:butt;stroke-linejoin:miter;stroke-opacity:1" id="path4364" d="m 240.41631,171.9048 0.25254,9.09137 c -17.21063,14.44079 -53.25822,8.19537 -65.40738,4.67196 l 0.63134,-5.68211 c 7.77823,2.52272 57.61936,7.44993 64.5235,-8.08122 z"/><path style="fill:#ff8080;fill-rule:evenodd;stroke:#000;stroke-width:1px;stroke-linecap:butt;stroke-linejoin:miter;stroke-opacity:1" id="path4391" d="m 79.6875,92.830357 c -4.22278,-6.651786 -4.535836,-8.214286 -5.223214,-15.133929 -1.066333,4.801217 -2.456974,8.892318 -1.607143,14.017858 z"/><path style="fill:#f55;fill-rule:evenodd;stroke:#000;stroke-width:1px;stroke-linecap:butt;stroke-linejoin:miter;stroke-opacity:1" id="path4403" d="m 136.37059,82.569435 c -0.35844,1.40027 0.32621,1.583603 1.38896,1.325825 3.12825,-5.58893 8.22156,-6.979799 13.95274,-7.007933 0.16732,-1.355429 -0.27407,-2.141827 -1.32583,-2.357642 -5.53197,0.828111 -11.25295,0.865918 -14.01587,8.03975 z"/><path style="fill:#f55;fill-rule:evenodd;stroke:#000;stroke-width:1px;stroke-linecap:butt;stroke-linejoin:miter;stroke-opacity:1" id="path4405" d="m 140.60061,89.956175 c -0.36845,1.589047 0.54115,1.900053 1.57836,2.08344 4.45367,-4.365703 9.4673,-7.101087 15.58657,-6.58897 0.90701,-0.925973 0.62392,-1.450161 -1.44443,-2.376134 -4.79547,0.959803 -9.43163,1.441657 -15.7205,6.881664 z"/><path style="fill:#f55;fill-rule:evenodd;stroke:#000;stroke-width:1px;stroke-linecap:butt;stroke-linejoin:miter;stroke-opacity:1" id="path4407" d="m 145.3357,97.027243 c -0.3561,1.303673 0.1488,2.033343 1.57836,2.146574 5.00732,-2.615078 7.79301,-7.081597 16.05018,-6.555159 0.95891,-0.686144 0.85234,-1.366666 -1.40297,-2.409945 -5.11129,0.04363 -10.64545,3.258731 -16.22557,6.81853 z"/><path style="fill:#f55;fill-rule:evenodd;stroke:#000;stroke-width:1px;stroke-linecap:butt;stroke-linejoin:miter;stroke-opacity:1" id="path4409" d="m 151.08094,105.10846 c -0.66602,1.25016 0.003,1.72725 1.23785,1.78944 5.86977,-1.92598 10.48454,-6.67343 16.81097,-5.74524 0.47709,-0.82225 0.41696,-1.287352 -0.5344,-2.109599 -2.03056,-0.330736 -8.34609,2.232439 -17.51442,6.065399 z"/><path style="fill:#f55;fill-rule:evenodd;stroke:#000;stroke-width:1px;stroke-linecap:butt;stroke-linejoin:miter;stroke-opacity:1" id="path4411" d="m 157.01559,113.9473 c -0.70359,0.75624 -1.27652,1.50703 0.82075,2.14657 5.44966,-2.17597 10.92902,-4.29439 17.04632,-5.17703 0.83796,-1.00501 -0.0379,-1.47446 -1.07329,-1.89404 -5.90812,1.20723 -11.48067,2.88425 -16.79378,4.9245 z"/><path style="fill:none;fill-rule:evenodd;stroke:#000;stroke-width:.5;stroke-linecap:butt;stroke-linejoin:miter;stroke-opacity:1;stroke-miterlimit:4;stroke-dasharray:none" id="path4413" d="m 141.33929,130.46429 c 0,0 -2.44786,-23.51567 -10.625,-30.535719 -6.7057,-5.756815 -22.40719,-1.991449 -26.07143,-4.821428 -1.89977,-1.467241 -2.14286,-6.875 -2.14286,-6.875"/><path style="fill:none;fill-rule:evenodd;stroke:#000;stroke-width:.5;stroke-linecap:butt;stroke-linejoin:miter;stroke-miterlimit:4;stroke-dasharray:none;stroke-opacity:1" id="path4439" d="m 106.42857,124.21429 c -1.00974,-1.87523 21.61342,12.53443 29.10714,15.35714 6.94636,2.61653 33.19052,-17.95174 51.25,-23.03572"/><path style="fill:none;fill-rule:evenodd;stroke:#000;stroke-width:.5;stroke-linecap:butt;stroke-linejoin:miter;stroke-miterlimit:4;stroke-dasharray:none;stroke-opacity:1" id="path4441" d="M 167.5,177.96429 C 172.0722,147.88806 190.99889,139.34358 218.39286,143.5"/><g id="g4366"><path id="path4362" d="M 38.958495,168.55418 52.022856,162.87656 35.92355,156.24744 Z" style="fill:#ff2a2a;fill-rule:evenodd;stroke:#000;stroke-width:1px;stroke-linecap:butt;stroke-linejoin:miter;stroke-opacity:1"/><path id="path4302" d="m 188.03571,199.92857 c 0,0 -38.67926,7.95806 -57.58929,7.67857 -23.02174,-0.34026 -57.6877,-9.78371 -63.524374,-19.93872 -9.577599,-16.66371 -42.416541,-59.72312 -53.276651,-59.69517 0,0 1.036847,17.2893 1.533176,18.91961 0.879009,2.88731 21.871172,22.24242 23.571429,21.96428 1.077844,-0.17632 0.178571,-9.10714 0.178571,-9.10714 14.843206,13.03571 17.536908,31.22459 29.036894,41.68111 11.389335,10.35591 46.655545,17.25097 69.891685,18.49746 34.44749,1.84791 47.25199,-5.80385 50.71428,-12.14286 l 0,-7.67857 z" style="fill:#ff2a2a;fill-rule:evenodd;stroke:#000;stroke-width:1px;stroke-linecap:butt;stroke-linejoin:miter;stroke-opacity:1"/><path id="path4318" d="m 38.571429,114.75 c 0,0 -19.989852,-29.464358 -20,-30.178572 -0.36573,-25.740346 47.893436,-1.76894 57.142857,8.035715 z" style="fill:#ff2a2a;fill-rule:evenodd;stroke:#000;stroke-width:1px;stroke-linecap:butt;stroke-linejoin:miter;stroke-opacity:1"/><path id="path4316" d="m 34.618433,108.28867 1.940762,0.24882 C 24.071001,95.592188 17.937245,79.624692 23.795459,75.070658 29.906551,70.320043 48.994625,74.964512 73.392857,89.928571 l 2.142857,-0.892857 C 68.444327,85.721135 53.092263,76.331345 40.286614,72.988816 22.192274,68.265833 7.160833,76.318215 34.618433,108.28867 Z" style="fill:#f55;fill-rule:evenodd;stroke:#000;stroke-width:1px;stroke-linecap:butt;stroke-linejoin:miter;stroke-opacity:1"/><path id="path4312" d="M 57.5,102.78571 C 57.981109,99.106458 64.373919,82.004751 85.892857,89.928571 L 118.49008,148.62479 Z" style="fill:#f55;fill-rule:evenodd;stroke:#000;stroke-width:1px;stroke-linecap:butt;stroke-linejoin:miter;stroke-opacity:1"/><path id="path4310" d="m 27.720041,143.2654 c -7.016393,-13.68589 -10.650647,-27.64025 -14.658176,-42.25195 0.703129,-6.728829 3.547333,-17.026139 6.604516,-22.47198 0.812079,16.134787 9.949027,24.70908 18.608303,27.20174 6.434899,1.85235 12.486075,-0.21347 15.296745,-2.06464 6.314028,-4.15856 10.483465,-5.428425 21.071428,-8.392856 9.247452,-2.589113 30.587073,36.498736 38.317033,47.676706 L 61.036236,168.46531 C 49.930837,160.06534 39.272921,154.35026 27.720041,143.2654 Z" style="fill:url(#linearGradient5);fill-rule:evenodd;stroke:#000;stroke-width:1px;stroke-linecap:butt;stroke-linejoin:miter;stroke-opacity:1;fill-opacity:1"/><path id="path4314" d="m 88.392857,89.392857 c -2.841732,-1.802634 -8.300538,1.907637 -7.901785,4.910715 0.544414,4.100073 7.680081,2.868782 33.272388,47.811188 l 11.68297,-8.16833 C 109.24625,115.6514 100.57001,104.08833 88.392857,89.392857 Z" style="fill:#faa;fill-rule:evenodd;stroke:#000;stroke-width:1px;stroke-linecap:butt;stroke-linejoin:miter;stroke-opacity:1"/><path id="path4306" d="M 93.214286,206.89285 C 71.388721,201.80672 63.372696,191.9322 56.25,178.32143 48.251862,163.03777 44.810491,158.2537 32.191443,147.33108 c 0,0 -3.422717,-11.51589 7.094271,-14.72394 6.09743,-1.85993 29.526661,17.70196 34.821429,17.85715 11.629309,0.34086 44.045547,-17.72595 49.285717,-19.10715 9.20501,10.65304 17.83462,20.30578 29.68749,28.57144 -18.4962,15.91862 -49.49453,22.24038 -59.866064,46.96427 z" style="fill:url(#linearGradient3);fill-rule:evenodd;stroke:#000;stroke-width:1px;stroke-linecap:butt;stroke-linejoin:miter;stroke-opacity:1;fill-opacity:1"/><path id="path4304" d="m 91.964285,206.625 c 3.139324,-35.80866 50.148805,-54.16667 60.714285,-47.23214 4.34044,4.11362 15.80948,13.24189 21.78572,17.5 13.15737,9.37471 13.57142,24.64285 13.57142,24.64285 -8.3319,9.70788 -28.12497,11.59625 -43.03571,12.5 -20.30302,1.23058 -36.72619,-3.95833 -53.035715,-7.41071 z" style="fill:url(#linearGradient1);fill-opacity:1;fill-rule:evenodd;stroke:#000;stroke-width:1px;stroke-linecap:butt;stroke-linejoin:miter;stroke-opacity:1"/><path id="path4308" d="M 30.557378,145.82854 C 22.302283,129.297 16.321648,109.75341 13.928571,94.035714 c -2.376897,10.525966 -4.5626738,20.581456 0.359002,34.999996 2.860523,5.1645 8.340474,10.74187 16.269805,16.79283 z" style="fill:#ff8080;fill-rule:evenodd;stroke:#000;stroke-width:1px;stroke-linecap:butt;stroke-linejoin:miter;stroke-opacity:1"/><path id="path4320" d="m 41.921331,106.74997 c -0.323873,3.65647 -0.713274,12.70774 6.439722,12.18496 12.65459,-0.92486 20.957027,1.35313 25.190679,12.05869 l 5.877858,18.78083" style="fill:none;fill-rule:evenodd;stroke:#000;stroke-width:.5;stroke-linecap:butt;stroke-linejoin:miter;stroke-miterlimit:4;stroke-dasharray:none;stroke-opacity:1"/><path id="path4322" d="m 97.227183,137.81215 c -0.513172,1.04285 -0.09671,1.71385 1.073287,2.08344 5.63772,-3.54013 11.59895,-6.43323 17.7408,-8.9651 0.21131,-1.309 -0.84455,-1.56203 -1.57836,-2.08344 -5.67871,3.12144 -11.39014,6.17742 -17.235727,8.9651 z" style="fill:#f55;fill-rule:evenodd;stroke:#000;stroke-width:1px;stroke-linecap:butt;stroke-linejoin:miter;stroke-opacity:1"/><path id="path4324" d="m 90.029846,128.59451 c -0.301033,0.92749 0.87129,2.05814 1.325825,1.45209 5.906661,-5.51148 11.918569,-7.86557 17.993339,-8.33375 0.37805,-0.40349 -0.50516,-1.01719 -1.07328,-1.57837 -7.34115,-0.43288 -12.894296,3.75322 -18.245884,8.46003 z" style="fill:#f55;fill-rule:evenodd;stroke:#000;stroke-width:1px;stroke-linecap:butt;stroke-linejoin:miter;stroke-opacity:1"/><path id="path4326" d="m 85.989235,119.81881 c -0.10174,0.83831 0.08269,1.39045 0.820749,1.38896 5.018258,-3.6688 10.193025,-6.68668 15.909906,-7.44988 0.0761,-0.52482 0.45859,-1.01901 -1.07329,-1.70463 -6.31909,1.18856 -11.174691,4.23974 -15.657365,7.76555 z" style="fill:#f55;fill-rule:evenodd;stroke:#000;stroke-width:1px;stroke-linecap:butt;stroke-linejoin:miter;stroke-opacity:1"/><path id="path4328" d="m 80.370262,112.43207 c -0.358006,0.72094 0.535826,2.89286 1.325825,2.39911 4.741218,-4.21163 9.948306,-7.02565 15.531096,-8.71256 0.204647,-0.6103 0.288141,-1.22061 -1.325826,-1.83091 -5.4679,1.62403 -10.734112,4.00439 -15.531095,8.14436 z" style="fill:#f55;fill-rule:evenodd;stroke:#000;stroke-width:1px;stroke-linecap:butt;stroke-linejoin:miter;stroke-opacity:1"/><path id="path4330" d="m 74.940692,103.97204 c -0.457214,1.20334 1.437155,2.73613 1.894036,2.08344 3.016429,-5.29979 8.117649,-7.851449 14.836616,-8.270622 0.76017,-0.471103 -0.631362,-0.802438 -1.010153,-1.199557 -6.987508,-0.664575 -11.92581,2.337849 -15.720499,7.386739 z" style="fill:#f55;fill-rule:evenodd;stroke:#000;stroke-width:1px;stroke-linecap:butt;stroke-linejoin:miter;stroke-opacity:1"/><path id="path4332" d="m 34.464286,149.21429 c 1.034678,-3.06761 0.996056,-7.1841 3.571428,-8.83929 6.864246,-4.41164 23.154295,15.48076 35.714286,17.05357 8.667363,1.08536 37.9682,-8.3457 53.56508,-21.16257" style="fill:none;fill-rule:evenodd;stroke:#000;stroke-width:.5;stroke-linecap:butt;stroke-linejoin:miter;stroke-miterlimit:4;stroke-dasharray:none;stroke-opacity:1"/><path id="path4334" d="M 27.526151,143.26278 C 20.862873,131.17611 15.842253,124.19074 12.212337,102.71437" style="fill:none;fill-rule:evenodd;stroke:#000;stroke-width:.5;stroke-linecap:butt;stroke-linejoin:miter;stroke-opacity:1;stroke-miterlimit:4;stroke-dasharray:none"/><path id="path4336" d="m 98.155638,207.81821 c 4.095602,-31.30564 35.462372,-47.14542 56.670282,-46.24737" style="fill:none;fill-rule:evenodd;stroke:#000;stroke-width:.5;stroke-linecap:butt;stroke-linejoin:miter;stroke-opacity:1;stroke-miterlimit:4;stroke-dasharray:none"/></g></g></svg>