<svg xmlns="http://www.w3.org/2000/svg" xmlns:svg="http://www.w3.org/2000/svg" id="svg4206" version="1.1" viewBox="0 0 256 256"><style id="style3">svg{cursor:default}</style><metadata id="metadata4211"/><g id="layer4"><path style="fill:#333;fill-opacity:1;fill-rule:evenodd;stroke:#000;stroke-width:.98009998px;stroke-linecap:butt;stroke-linejoin:miter;stroke-opacity:1" id="path4295" d="m 252.1572,221.51191 c 5.79512,6.66917 -45.71319,6.32513 -67.19968,6.06406 l -3.27954,-9.52924 z"/><path style="fill:#ffd5d5;fill-opacity:1;fill-rule:evenodd;stroke:#000;stroke-width:.98009998px;stroke-linecap:butt;stroke-linejoin:miter;stroke-opacity:1" id="path4293" d="m 115.5921,133.1499 17.07838,45.41857 15.22202,10.7668 c -6.49303,-21.26106 -24.00356,-75.14796 -32.3004,-56.18537 z"/><path style="fill:none;fill-rule:evenodd;stroke:#000;stroke-width:.49004999;stroke-linecap:butt;stroke-linejoin:miter;stroke-miterlimit:4;stroke-dasharray:1.9602,.9801;stroke-dashoffset:0;stroke-opacity:1" id="path4297-9" d="m 109.5842,121.64626 c 21.82463,30.53248 20.3912,45.5636 36.40371,67.55689"/><path style="fill:#faa;fill-opacity:1;fill-rule:evenodd;stroke:#000;stroke-width:.98009998px;stroke-linecap:butt;stroke-linejoin:miter;stroke-opacity:1" id="path4289" d="m 73.793407,27.926096 c 2.676271,-4.12636 10.292138,2.514031 11.78779,4.702741 17.337753,25.371599 29.771483,44.104295 42.757803,67.478133 16.97899,30.56013 25.2405,75.53114 52.59644,82.66921 l -6.18781,8.41544 C 122.15377,157.03209 103.25534,87.043757 73.793407,27.926096 Z"/><path style="fill:#f55;fill-opacity:1;fill-rule:evenodd;stroke:#000;stroke-width:.98009998px;stroke-linecap:butt;stroke-linejoin:miter;stroke-opacity:1" id="path4291" d="M 145.19522,186.84781 C 133.74039,160.36178 119.06487,133.87574 104.94111,107.3897 L 74.137971,29.856793 c 2.357219,-2.254627 7.884385,0.12332 12.163737,7.088224 13.721812,22.333078 24.566292,36.927394 40.670412,64.771623 11.94056,20.64537 23.10977,74.18514 52.2527,82.08337 0.66308,1.50634 -33.05778,9.20263 -34.0296,3.0478 z"/><path style="fill:none;fill-rule:evenodd;stroke:#000;stroke-width:.49004999;stroke-linecap:butt;stroke-linejoin:miter;stroke-miterlimit:4;stroke-dasharray:none;stroke-opacity:1" id="path4301" d="m 101.70328,60.047373 c -5.020971,5.513583 -2.897025,13.004553 -6.125622,19.251964"/><path style="fill:#ff8080;fill-opacity:1;fill-rule:evenodd;stroke:#000;stroke-width:.98009998px;stroke-linecap:butt;stroke-linejoin:miter;stroke-opacity:1" id="path4287" d="M 54.646526,51.47953 C 61.337061,43.654118 66.215401,33.775346 74.381261,27.214498 l 37.498159,89.475812 21.23957,55.98105 c 5.38435,14.19154 20.68237,15.29957 29.05295,13.30136 11.70541,-2.79428 31.17517,-7.22884 33.07838,-5.86309 19.48628,13.98342 59.95328,32.14158 57.40586,41.74175 -1.41193,5.32099 -85.27295,3.23104 -127.06296,-1.92519 z"/><path style="fill:#f55;fill-rule:evenodd;stroke:#000;stroke-width:.98009998px;stroke-linecap:butt;stroke-linejoin:miter;stroke-opacity:1" id="path4281" d="M 9.0313292,105.98956 C 21.18454,131.7957 17.628433,216.82894 17.628433,216.82894 l 5.856882,0.0407 c 0,0 -1.260703,-74.16216 5.673064,-85.15241 z"/><path style="fill:#ffd5d5;fill-opacity:1;fill-rule:evenodd;stroke:#000;stroke-width:.98009998px;stroke-linecap:butt;stroke-linejoin:miter;stroke-opacity:1" id="path4279" d="M 41.759661,97.06365 59.086428,197.87394 89.014487,208.375 105.64118,198.22397 66.787221,89.887918 Z"/><path style="fill:none;fill-rule:evenodd;stroke:#000;stroke-width:.49004999;stroke-linecap:butt;stroke-linejoin:miter;stroke-miterlimit:4;stroke-dasharray:1.9602,.9801;stroke-dashoffset:0;stroke-opacity:1" id="path4297" d="M 54.360954,98.813829 C 79.685944,123.25799 68.723281,175.17995 93.039895,201.54931"/><path style="fill:#faa;fill-rule:evenodd;stroke:#000;stroke-width:.98009998px;stroke-linecap:butt;stroke-linejoin:miter;stroke-opacity:1" id="path4273" d="m 34.043863,32.281413 c 1.475659,-2.78791 7.658962,-1.763234 10.341065,0.200648 11.321213,8.289601 50.206603,64.324176 59.140952,88.415959 11.95423,32.23501 21.75529,57.0176 37.80754,69.79857 l -1.73259,1.48507 C 102.49528,179.28351 33.098528,54.164757 34.043863,32.281413 Z"/><path style="fill:#ff2a2a;fill-rule:evenodd;stroke:#000;stroke-width:.98009998px;stroke-linecap:butt;stroke-linejoin:miter;stroke-opacity:1" id="path4277" d="M 43.509846,100.91404 C 46.731444,97.352087 54.78719,97.713719 62.41177,98.988847 L 43.334829,78.686775 Z"/><path style="fill:#f55;fill-rule:evenodd;stroke:#000;stroke-width:.98009998px;stroke-linecap:butt;stroke-linejoin:miter;stroke-opacity:1" id="path4275" d="M 137.86825,190.57283 C 116.51409,171.58007 109.96168,141.99897 99.875054,120.89803 85.644639,91.128414 73.244492,68.031707 46.783595,37.053125 40.316797,29.482244 33.834367,33.976139 32.427865,35.629927 l 9.157966,51.482626 c 8.737582,-2.37118 27.092218,19.274827 31.681615,39.973287 5.734173,25.86152 7.851512,54.91815 23.637464,75.12008 z"/><path style="fill:#ff8080;fill-rule:evenodd;stroke:#000;stroke-width:.98009998px;stroke-linecap:butt;stroke-linejoin:miter;stroke-opacity:1" id="path4271" d="m 56.041953,226.06389 c 36.040424,14.65694 134.976567,8.46199 137.021607,5.47228 6.25885,-9.15003 -36.80803,-34.01118 -49.0075,-41.82963 -7.30477,-4.68153 -43.89619,8.99719 -62.373182,9.9005 C 67.470703,200.30185 54.10507,175.64891 52.723903,151.58959 51.512676,130.49046 47.622953,99.395093 42.824599,74.200151 38.620881,52.127462 33.272191,34.624088 34.407971,31.793482 21.600337,46.912758 14.765198,61.229209 6.4115905,77.943215 0.79979271,89.171366 5.9057511,105.73599 16.034555,117.25783 53.139544,159.46606 38.522666,218.93914 56.041953,226.06389 Z"/><path style="fill:#333;fill-rule:evenodd;stroke:#000;stroke-width:.98009998px;stroke-linecap:butt;stroke-linejoin:miter;stroke-opacity:1" id="path4285" d="m 50.685579,220.80127 c 2.109528,9.93112 19.584182,14.09588 55.655671,15.75161 29.39836,1.34942 80.1069,0.12802 84.09608,-2.10021 1.88,-1.05011 2.04471,-2.45025 2.8878,-3.50036 -1.12441,0.8372 -17.37883,3.53688 -75.96094,0.80534 -25.012394,-1.16626 -57.751782,-0.18856 -66.678611,-10.95638 z"/><path style="fill:#333;fill-rule:evenodd;stroke:#000;stroke-width:.98009998px;stroke-linecap:butt;stroke-linejoin:miter;stroke-opacity:1;fill-opacity:1" id="path4283" d="m 17.676977,215.36784 -0.201096,6.31158 6.175904,0.0181 -0.149358,-6.12594 z"/><path style="fill:none;fill-rule:evenodd;stroke:#000;stroke-width:.49004999;stroke-linecap:butt;stroke-linejoin:miter;stroke-miterlimit:4;stroke-dasharray:none;stroke-opacity:1" id="path4299" d="m 57.861303,96.888632 c 10.3925,-14.031572 2.879259,-29.012373 7.35075,-35.87866"/><path style="fill:none;fill-rule:evenodd;stroke:#000;stroke-width:.49004999;stroke-linecap:butt;stroke-linejoin:miter;stroke-miterlimit:4;stroke-dasharray:none;stroke-opacity:1" id="path4318" d="m 99.503792,120.65052 c 2.169528,-0.84947 3.176018,-0.53588 4.083958,-0.12376"/><path style="fill:none;fill-rule:evenodd;stroke:#000;stroke-width:.49004999;stroke-linecap:butt;stroke-linejoin:miter;stroke-miterlimit:4;stroke-dasharray:none;stroke-opacity:1" id="path4320" d="m 103.58775,121.51681 c 1.77224,-2.37241 7.89975,-5.53691 8.4017,-4.38895"/><path style="fill:none;fill-rule:evenodd;stroke:#000;stroke-width:.49004999;stroke-linecap:butt;stroke-linejoin:miter;stroke-miterlimit:4;stroke-dasharray:none;stroke-opacity:1" id="path4322" d="m 24.383704,127.45711 c -3.248375,29.70151 -1.742639,58.26661 -2.361415,87.96812"/></g></svg>