<svg xmlns="http://www.w3.org/2000/svg" xmlns:svg="http://www.w3.org/2000/svg" xmlns:xlink="http://www.w3.org/1999/xlink" id="svg4206" version="1.1" viewBox="0 0 256 256"><style id="style3">svg{cursor:default}</style><defs id="defs4208"><linearGradient id="innoGrad2"><stop style="stop-color:#faa;stop-opacity:1" id="stop4463" offset="0"/><stop style="stop-color:#ff8080;stop-opacity:1" id="stop4465" offset="1"/></linearGradient><linearGradient id="linearGradient4343"><stop style="stop-color:#000;stop-opacity:.25098041" id="stop4345" offset="0"/><stop style="stop-color:#ff2a2a;stop-opacity:0" id="stop4348" offset="1"/></linearGradient><linearGradient id="innoGrad1"><stop style="stop-color:#faa;stop-opacity:1" id="stop4318" offset="0"/><stop style="stop-color:#ff8080;stop-opacity:1" id="stop4320" offset="1"/></linearGradient><linearGradient id="linearGradient4322" x1="342.189" x2="331.341" y1="43.11" y2="52.593" gradientTransform="matrix(2.230627,0,0,2.230627,-625.56678,53.562251)" gradientUnits="userSpaceOnUse" xlink:href="#innoGrad1"/><linearGradient id="linearGradient4350" x1="295.28" x2="295.501" y1="10.091" y2="8.008" gradientTransform="matrix(2.230627,0,0,2.230627,-625.56678,53.562251)" gradientUnits="userSpaceOnUse" xlink:href="#linearGradient4343"/><linearGradient id="linearGradient4421" x1="295.28" x2="295.501" y1="10.091" y2="8.008" gradientTransform="matrix(2.2313839,0,0,1.9839424,-559.83407,51.274903)" gradientUnits="userSpaceOnUse" xlink:href="#linearGradient4343"/><linearGradient id="linearGradient4467" x1="371.429" x2="357.321" y1="36" y2="47.964" gradientTransform="matrix(2.230627,0,0,2.230627,-625.56678,53.562251)" gradientUnits="userSpaceOnUse" xlink:href="#innoGrad2"/></defs><metadata id="metadata4211"/><g id="layer4"><path style="fill:#ff2a2a;fill-rule:evenodd;stroke:#000;stroke-width:.96781099;stroke-linecap:butt;stroke-linejoin:miter;stroke-miterlimit:4;stroke-dasharray:none;stroke-opacity:1" id="path4310-2-7" d="m 78.717626,58.142806 c -1.255598,-4.177024 8.342634,-5.507123 9.614248,-4.374777 4.38771,3.907119 3.596038,8.912568 3.034433,12.443688 -4.744477,8.406058 -10.083728,0.464021 -12.648681,-8.068911 z"/><path style="fill:#f55;fill-rule:evenodd;stroke:#000;stroke-width:1.05201435;stroke-linecap:butt;stroke-linejoin:miter;stroke-miterlimit:4;stroke-dasharray:none;stroke-opacity:1" id="path4306-1" d="m 77.707397,69.424134 c 9.032612,5.944878 22.371493,4.250059 35.782853,3.381892 l 15.35563,82.292724 c -15.68434,4.60558 -31.368703,1.40617 -47.053022,-9.01838 z"/><path style="fill:#ff8080;fill-rule:evenodd;stroke:#000;stroke-width:1.05201435;stroke-linecap:butt;stroke-linejoin:miter;stroke-miterlimit:4;stroke-dasharray:none;stroke-opacity:1" id="path4308-0" d="M 79.601891,68.982964 C 76.730963,74.605743 109.14942,77.741987 124.32917,69.33724 123.3351,68.379011 80.961168,61.454195 79.601891,68.982964 Z"/><path style="fill:#f55;fill-rule:evenodd;stroke:#000;stroke-width:.96781099;stroke-linecap:butt;stroke-linejoin:miter;stroke-miterlimit:4;stroke-dasharray:none;stroke-opacity:1" id="path4310-1" d="m 79.607222,55.539073 c 0.566067,-1.521877 9.213538,-3.435479 10.485509,-2.30999 4.400491,3.893643 3.645803,10.207128 3.084198,13.738248 -9.574185,4.621959 -9.746412,-3.338738 -13.569707,-11.428258 z"/><path id="path4339-7" d="m 81.721522,68.746037 c -0.981587,3.576702 26.738908,6.928624 39.371618,1.185691 -0.37415,-0.934945 -37.95885,-6.333525 -39.371618,-1.185691 z" style="fill:#ff2a2a;fill-rule:evenodd;stroke:#000;stroke-width:.76948524;stroke-linecap:butt;stroke-linejoin:miter;stroke-miterlimit:4;stroke-dasharray:none;stroke-opacity:1"/><path style="fill:url(#linearGradient4421);fill-opacity:1;fill-rule:evenodd;stroke:none;stroke-width:.36571991;stroke-linecap:butt;stroke-linejoin:miter;stroke-miterlimit:4;stroke-dasharray:none;stroke-opacity:1" id="path4341-0" d="m 81.721522,68.746037 c -0.981587,3.576702 26.738908,6.928624 39.371618,1.185691 -0.37415,-0.934945 -37.95885,-6.333525 -39.371618,-1.185691 z"/><path style="fill:url(#linearGradient4467);fill-opacity:1;fill-rule:evenodd;stroke:#000;stroke-width:1.05201435;stroke-linecap:butt;stroke-linejoin:miter;stroke-miterlimit:4;stroke-dasharray:none;stroke-opacity:1" id="path4304-6" d="m 69.677386,149.58751 c -3.027051,-9.61325 -2.335891,-20.73151 1.972298,-29.81075 6.169646,-13.00218 5.987939,-36.662971 3.959876,-49.843261 0,0 -0.06246,-1.855518 0.592276,-1.673903 0.830774,0.230424 2.374681,1.742159 3.506077,2.300493 4.226123,16.288533 3.002825,48.421341 5.465973,63.871541 1.524544,9.56255 18.340484,17.72067 26.655904,17.21185 21.2519,-1.3004 4.83553,-47.62656 -2.28505,-71.668074 -2.3684,-7.99652 12.22883,-16.159182 25.42863,-18.537453 11.89529,-2.143238 16.58505,13.998218 19.3096,22.263921 11.87943,36.039836 39.7398,64.850306 74.30486,67.608066 24.16434,1.92794 21.12179,18.71106 19.55462,22.38634 -29.31158,16.24612 -55.00952,17.96919 -82.24581,20.60737 -19.8659,3.31301 -63.15998,-28.3389 -96.219254,-44.71614 z"/><path style="fill:#fca;fill-rule:evenodd;stroke:#000;stroke-width:1.05201435;stroke-linecap:butt;stroke-linejoin:miter;stroke-miterlimit:4;stroke-dasharray:none;stroke-opacity:1" id="path4302-1" d="m 156.88049,191.17227 c 31.90894,5.07466 87.64995,-18.13709 91.24826,-19.69353 4.51622,-1.95345 5.40276,4.30964 0.94197,5.8781 -2.48565,0.87398 -58.54579,24.45432 -91.0632,20.3287 -22.13782,-2.80871 -37.48551,-19.0556 -59.540346,-29.89275 l -0.233413,11.43874 -29.311086,-11.33497 0.02409,-18.78919 c 0,0 22.863481,8.84715 34.814935,14.78286 11.10643,5.51602 30.05344,23.61383 53.11877,27.28204 z"/><path style="fill:#ffb380;fill-rule:evenodd;stroke:#000;stroke-width:1.11531353;stroke-linecap:butt;stroke-linejoin:miter;stroke-miterlimit:4;stroke-dasharray:none;stroke-opacity:1" id="path4312" d="M 35.479799,198.19201 56.81588,193.76313 34.360247,179.12464 c -0.117554,6.52899 -3.123234,15.72025 1.119552,19.06737 z"/><path style="fill:#ff2a2a;fill-rule:evenodd;stroke:#000;stroke-width:1.11531353;stroke-linecap:butt;stroke-linejoin:miter;stroke-miterlimit:4;stroke-dasharray:none;stroke-opacity:1" id="path4310-2" d="m 7.1543829,66.811815 c -1.9478281,-4.700639 8.6810871,-7.523961 10.2568911,-6.37322 5.437265,3.970587 5.18777,9.908157 5.008249,14.097261 -4.261279,10.424522 -11.286081,1.878546 -15.2651401,-7.724041 z"/><path style="fill:#ff8080;fill-rule:evenodd;stroke:#000;stroke-width:1.11531353;stroke-linecap:butt;stroke-linejoin:miter;stroke-miterlimit:4;stroke-dasharray:none;stroke-opacity:1" id="path4308" d="m 13.652289,73.472143 c -2.869947,6.321918 29.537516,9.848124 44.712115,0.398326 -0.993745,-1.077375 -43.353307,-8.863226 -44.712115,-0.398326 z"/><path style="fill:#f55;fill-rule:evenodd;stroke:#000;stroke-width:1.11531353;stroke-linecap:butt;stroke-linejoin:miter;stroke-miterlimit:4;stroke-dasharray:none;stroke-opacity:1" id="path4310" d="m 7.8217419,63.659821 c 0.4419318,-1.848449 9.9263351,-5.225549 11.5016701,-4.082845 5.449935,3.953185 5.18777,9.908157 5.008249,14.097261 C 14.045704,75.335583 13.159788,72.578781 7.8217419,63.659821 Z"/><path style="fill:#f55;fill-rule:evenodd;stroke:#000;stroke-width:1.11531353;stroke-linecap:butt;stroke-linejoin:miter;stroke-miterlimit:4;stroke-dasharray:none;stroke-opacity:1" id="path4306" d="m 14.362899,74.522359 c 9.029556,6.684068 22.36391,4.778515 35.770714,3.802399 L 65.484052,170.8498 c -15.679032,5.17825 -31.358065,1.58102 -47.037075,-10.13972 z"/><path id="path4339" d="m 15.771206,73.205756 c -0.981253,4.021431 26.729826,7.790133 39.358253,1.33312 C 54.75545,73.48768 17.183483,67.417837 15.771206,73.205756 Z" style="fill:#ff2a2a;fill-rule:evenodd;stroke:#000;stroke-width:.81578469;stroke-linecap:butt;stroke-linejoin:miter;stroke-miterlimit:4;stroke-dasharray:none;stroke-opacity:1"/><path style="fill:url(#linearGradient4350);fill-opacity:1;fill-rule:evenodd;stroke:none;stroke-width:.36571991;stroke-linecap:butt;stroke-linejoin:miter;stroke-miterlimit:4;stroke-dasharray:none;stroke-opacity:1" id="path4341" d="m 15.771206,73.205756 c -0.981253,4.021431 26.729826,7.790133 39.358253,1.33312 C 54.75545,73.48768 17.183483,67.417837 15.771206,73.205756 Z"/><path style="fill:url(#linearGradient4322);fill-opacity:1;fill-rule:evenodd;stroke:#000;stroke-width:1.11531353;stroke-linecap:butt;stroke-linejoin:miter;stroke-miterlimit:4;stroke-dasharray:none;stroke-opacity:1" id="path4304" d="M 6.335609,164.6533 C 3.309585,153.84473 4.0005217,141.34401 8.3072379,131.13586 14.474788,116.51698 14.293148,89.914195 12.265775,75.095059 c 0,0 -0.06246,-2.086234 0.592076,-1.882037 0.830485,0.259076 2.373878,1.95878 3.504895,2.586537 4.224673,18.31386 3.001799,54.442081 5.464121,71.813361 1.524009,10.75157 18.33426,19.92407 26.646847,19.35199 21.244693,-1.4621 2.018272,-56.39861 -5.099904,-83.429456 -2.367588,-8.990811 12.92858,-17.535062 26.123899,-20.209048 11.891271,-2.409729 20.943669,16.530467 23.667287,25.823933 11.875414,40.521041 48.173244,71.805441 74.279674,77.756231 23.75005,5.41367 20.41071,19.61255 18.84407,23.74481 -29.30162,18.26617 -56.53945,21.31188 -83.76651,24.27809 C 82.66307,218.65442 39.383686,183.06689 6.335609,164.6533 Z"/><path style="fill:#fca;fill-rule:evenodd;stroke:#000;stroke-width:1.11531353;stroke-linecap:butt;stroke-linejoin:miter;stroke-miterlimit:4;stroke-dasharray:none;stroke-opacity:1" id="path4302" d="m 93.509137,211.40873 c 31.898123,5.70565 89.027513,-20.95485 92.624623,-22.70481 4.51468,-2.19634 5.40093,4.8455 0.94164,6.60899 -2.48481,0.98265 -59.93323,28.05755 -92.439618,23.41896 C 72.505486,215.57392 57.162988,197.30688 35.115627,185.12223 L 34.882303,197.98327 5.5811663,185.2389 5.6052571,164.11345 c 0,0 22.8557399,9.94722 34.8031349,16.62098 11.102656,6.20188 30.043244,26.54998 53.100745,30.6743 z"/></g></svg>