<svg xmlns="http://www.w3.org/2000/svg" xmlns:svg="http://www.w3.org/2000/svg" xmlns:xlink="http://www.w3.org/1999/xlink" id="svg4206" version="1.1" viewBox="0 0 256 256"><style id="style3">svg{cursor:default}</style><defs id="defs4208"><linearGradient id="linearGradient4469"><stop style="stop-color:#000;stop-opacity:.25098041" id="stop4471" offset="0"/><stop style="stop-color:#f55;stop-opacity:0" id="stop4473" offset="1"/></linearGradient><linearGradient id="linearGradient4455"><stop style="stop-color:#faa;stop-opacity:1" id="stop4457" offset="0"/><stop style="stop-color:#ff8080;stop-opacity:1" id="stop4459" offset="1"/></linearGradient><linearGradient id="linearGradient4352"><stop style="stop-color:#faa;stop-opacity:1" id="stop4354" offset="0"/><stop style="stop-color:#ff8080;stop-opacity:1" id="stop4356" offset="1"/></linearGradient><linearGradient id="linearGradient4343"><stop style="stop-color:#000;stop-opacity:.25098041" id="stop4345" offset="0"/><stop style="stop-color:#f55;stop-opacity:0" id="stop4348" offset="1"/></linearGradient><linearGradient id="linearGradient4350" x1="341.071" x2="341.481" y1="51" y2="45.665" gradientTransform="translate(-285.87317,-5.555839)" gradientUnits="userSpaceOnUse" xlink:href="#linearGradient4343"/><radialGradient id="radialGradient4360" cx="434.606" cy="158.336" r="75.276" fx="434.606" fy="158.336" gradientTransform="matrix(0.91082681,1.4230375,-0.62234616,0.39833775,-167.72891,-544.40545)" gradientUnits="userSpaceOnUse" xlink:href="#linearGradient4352"/><radialGradient id="radialGradient4463" cx="487.276" cy="147.793" r="70.977" fx="487.276" fy="147.793" gradientTransform="matrix(1.0597374,1.1191936,-0.51751453,0.49002203,-244.0113,-479.00904)" gradientUnits="userSpaceOnUse" xlink:href="#linearGradient4455"/><linearGradient id="linearGradient4475" x1="400" x2="400.625" y1="47.964" y2="41.089" gradientTransform="translate(-285.87317,-5.555839)" gradientUnits="userSpaceOnUse" xlink:href="#linearGradient4469"/></defs><metadata id="metadata4211"/><g id="layer4"><path style="fill:#ffd42a;fill-rule:evenodd;stroke:#000;stroke-width:1px;stroke-linecap:butt;stroke-linejoin:miter;stroke-opacity:1" id="path4440" d="m 104.66254,46.694161 c 1.60715,0.178571 15.35715,1.964286 15.35715,1.964286 l -3.57143,112.321423 -18.92857,-4.82142 z"/><path style="fill:#f55;fill-rule:evenodd;stroke:none;stroke-width:1px;stroke-linecap:butt;stroke-linejoin:miter;stroke-opacity:1" id="path4465" d="M 79.9304,36.783446 C 103.274,60.5857 134.78705,50.749054 166.00183,42.140589 146.86646,36.218779 108.94633,31.409146 79.9304,36.783446 Z"/><path id="path4467" d="M 79.9304,36.783446 C 103.274,60.5857 134.78705,50.749054 166.00183,42.140589 146.86646,36.218779 108.94633,31.409146 79.9304,36.783446 Z" style="fill:url(#linearGradient4475);fill-opacity:1;fill-rule:evenodd;stroke:none;stroke-width:1px;stroke-linecap:butt;stroke-linejoin:miter;stroke-opacity:1"/><path style="fill:#ff8080;fill-rule:evenodd;stroke:#000;stroke-width:1px;stroke-linecap:butt;stroke-linejoin:miter;stroke-opacity:1" id="path4399" d="m 78.66563,37.365109 c 8.07472,2.088266 21.0874,3.148667 29.29219,3.529646 -0.73583,32.799023 -0.1458,67.831455 -0.88165,99.695315 C 96.44355,108.62611 72.79489,79.831205 78.66563,37.365109 Z"/><path style="fill:#ff2a2a;fill-rule:evenodd;stroke:#000;stroke-width:1px;stroke-linecap:butt;stroke-linejoin:miter;stroke-opacity:1" id="path4310" d="M 27.65293,207.0076 57.07362,200.69415 24.11739,153.21698 Z"/><path style="fill:#f95;fill-rule:evenodd;stroke:#000;stroke-width:1px;stroke-linecap:butt;stroke-linejoin:miter;stroke-opacity:1" id="path4314" d="m 27.52666,205.61864 31.06219,-7.07107 0.50507,5.55584 -31.03062,6.81854 c -2.1706,0.28437 -0.24201,-3.43032 -0.53664,-5.30331 z"/><path style="fill:#ffb380;fill-rule:evenodd;stroke:#000;stroke-width:1px;stroke-linecap:butt;stroke-linejoin:miter;stroke-opacity:1" id="path4304" d="m 181.70119,228.47334 c 0.30201,1.31635 2.64058,1.95385 0.25254,4.16688 -26.25311,12.84985 -93.98071,8.08585 -111.87439,-3.03046 -11.54111,-7.16982 -16.79679,-34.42898 -29.92577,-53.28554 z"/><path style="fill:#f55;fill-rule:evenodd;stroke:#000;stroke-width:1px;stroke-linecap:butt;stroke-linejoin:miter;stroke-opacity:1" id="path4308" d="m 6.56599,137.30707 5.80838,62.37692 15.40483,7.44988 -2.52539,-52.78047 z"/><path style="fill:#ffb380;fill-rule:evenodd;stroke:#000;stroke-width:1px;stroke-linecap:butt;stroke-linejoin:miter;stroke-opacity:1" id="path4312" d="m 12.25894,198.7 0.30484,5.34027 15.02601,6.91324 c 0.55352,0.42017 0.14603,-3.58722 0.18941,-5.46114 z"/><path style="fill:#f55;fill-rule:evenodd;stroke:none;stroke-width:1px;stroke-linecap:butt;stroke-linejoin:miter;stroke-opacity:1" id="path4318" d="m 14.48397,41.247733 c 14.20759,4.279171 72.91791,7.935198 81.16072,4.285713 C 92.08308,42.252183 77.8857,42.524941 75.32918,41.448657 59.52599,37.271994 17.2399,37.181323 14.48397,41.247733 Z"/><path style="fill:#ff8080;fill-rule:evenodd;stroke:#000;stroke-width:1px;stroke-linecap:butt;stroke-linejoin:miter;stroke-opacity:1" id="path4306" d="M 36.8054,172.40845 C 28.68316,160.71652 17.50556,149.53382 6.62683,138.3013 3.80936,128.42035 5.08459,115.64881 10.46611,104.90845 15.96757,93.928746 17.92401,82.479789 16.62683,68.837018 L 14.03755,41.604876 c 8.50638,1.731712 17.12965,3.435819 26.78571,3.482142 z"/><path style="fill:#666;fill-rule:evenodd;stroke:#000;stroke-width:.98972583px;stroke-linecap:butt;stroke-linejoin:miter;stroke-opacity:1" id="path4301-4" d="m 75.18308,44.435734 c 0.42285,-1.435493 1.69614,-2.42976 3.80514,-2.801271 1.52959,0.244992 2.21849,0.102986 3.36608,3.481581 l -0.92688,5.162345 -5.80529,-0.800363 z"/><path style="fill:#ffb380;fill-rule:evenodd;stroke:#000;stroke-width:1px;stroke-linecap:butt;stroke-linejoin:miter;stroke-opacity:1" id="path4395" d="m 171.98397,216.15845 c 27.19758,0.43109 53.89506,3.40483 79.70414,-6.29148 1.81403,-0.68152 1.09156,-3.12871 0.23273,-2.81381 -30.16319,11.05953 -60.72859,5.48412 -81.90115,4.81957 z"/><path style="fill:url(#radialGradient4463);fill-opacity:1;fill-rule:evenodd;stroke:#000;stroke-width:1px;stroke-linecap:butt;stroke-linejoin:miter;stroke-opacity:1" id="path4397" d="m 250.77037,207.89148 c 5.3479,-4.44555 3.39259,-12.93895 -5.17332,-17.76958 -13.5992,-7.66909 -25.02501,-13.03155 -38.65474,-21.5001 -43.28616,-26.89496 -37.83799,-100.40895 -39.25699,-126.77414 -16.9566,0.645729 -29.77865,0.821742 -51.3915,0.505076 -3.48638,3.02409 -2.95765,68.053134 -3.28301,109.222744 -3.29732,26.91726 29.96378,45.27123 57.90173,62.08297 27.36898,-0.28786 57.63568,5.74175 79.85783,-5.76697 z"/><path style="fill:none;fill-rule:evenodd;stroke:#ffe680;stroke-width:3;stroke-linecap:butt;stroke-linejoin:miter;stroke-miterlimit:4;stroke-dasharray:3,3;stroke-dashoffset:0;stroke-opacity:1" id="path4453" d="M 110.19826,132.94416 110.5554,65.979875"/><path style="fill:url(#radialGradient4360);fill-opacity:1;fill-rule:evenodd;stroke:#000;stroke-width:1px;stroke-linecap:butt;stroke-linejoin:miter;stroke-opacity:1" id="path4302" d="m 181.64517,229.34825 c 6.7366,-5.86751 -2.19759,-17.89857 -11.48088,-23.81037 C 127.54463,178.39679 118.80242,160.81086 109.06584,128.6363 97.98054,92.004904 101.35088,75.770206 97.22718,46.393347 75.44079,48.599366 56.41211,45.902801 36.61803,44.566933 37.45594,117.90447 31.54597,145.4563 36.36549,171.9048 c 19.69375,24.64413 19.80204,42.89922 34.09265,54.54824 12.71984,10.3686 96.46679,15.71642 111.18703,2.89521 z"/><path id="path4341" d="m 14.48397,41.247733 c 14.20759,4.279171 72.91791,7.935198 81.16072,4.285713 C 92.08308,42.252183 77.8857,42.524941 75.32918,41.448657 59.52599,37.271994 17.2399,37.181323 14.48397,41.247733 Z" style="fill:url(#linearGradient4350);fill-opacity:1;fill-rule:evenodd;stroke:none;stroke-width:1px;stroke-linecap:butt;stroke-linejoin:miter;stroke-opacity:1"/><path style="fill:#faa;fill-rule:evenodd;stroke:#000;stroke-width:1px;stroke-linecap:butt;stroke-linejoin:miter;stroke-opacity:1" id="path4316" d="m 13.68041,41.069161 c 1.38793,-4.259696 50.83512,-5.605842 62.76785,0.357143 1.56874,0.783927 0.74363,1.3366 -1.16071,0.848214 -21.98935,-5.639375 -58.63688,-3.091856 -58.83929,-1.205357 -0.41511,3.868677 79.04236,5.956791 78.39285,4.553571 -1.04169,-2.250514 -9.20622,-2.938397 -14.10713,-3.75 -0.77137,-0.12774 0.13232,-1.068055 0.80356,-1.026785 6.95793,0.42779 16.21362,2.946277 15.62501,5.133928 -1.18067,4.388141 -85.18264,0.308301 -83.48214,-4.910714 z"/><path style="fill:#f55;fill-rule:evenodd;stroke:#000;stroke-width:1px;stroke-linecap:butt;stroke-linejoin:miter;stroke-opacity:1" id="path4362" d="m 18.56155,38.848769 c 0.71663,-0.229043 -0.98413,-3.505851 -1.57836,-3.630235 -0.83204,-0.174162 7.87707,-1.856606 8.08122,-1.325825 0.85097,1.558874 1.49033,2.461915 1.29426,4.103744 -3.89307,0.223475 -5.23816,0.471889 -7.79712,0.852316 z"/><path style="fill:none;fill-rule:evenodd;stroke:#000;stroke-width:1px;stroke-linecap:butt;stroke-linejoin:miter;stroke-opacity:1" id="path4364" d="m 65.15484,221.14974 c 5.96582,-11.94371 14.28844,-19.76358 17.67767,-31.93185 6.10394,-21.91484 -3.91435,-52.50008 -5.87152,-76.78583 -0.36479,-4.52648 -0.22882,-8.08497 3.81752,-10.11013 2.94803,-1.47547 7.21776,-3.014309 21.05749,-5.042149"/><path style="fill:#faa;fill-rule:evenodd;stroke:#000;stroke-width:1.07145667px;stroke-linecap:butt;stroke-linejoin:miter;stroke-opacity:1" id="path4316-5" d="m 167.77231,41.882364 c -0.0509,3.605477 -26.15243,2.108825 -50.65793,0.776077 -1.8705,-0.101728 -0.85945,-0.879827 1.23727,-0.913513 22.10043,-0.35506 45.60286,1.048469 46.47025,0.137436 2.66652,-2.800683 -82.45574,-7.855474 -83.56353,-4.90412 -0.93686,2.495976 19.85184,2.470124 26.7175,3.407343 0.82602,0.112758 -0.13999,1.127106 -0.85656,1.105829 -24.02125,-0.71326 -28.96294,-2.541745 -28.3355,-4.897808 1.25854,-4.725954 89.07188,-0.616502 88.9885,5.288756 z"/><path style="fill:#666;fill-rule:evenodd;stroke:#000;stroke-width:.82016581;stroke-linecap:butt;stroke-linejoin:miter;stroke-miterlimit:4;stroke-dasharray:none;stroke-opacity:1" id="path4301-1" d="m 107.40327,45.546234 c 0.54693,-1.976786 2.19385,-3.345971 4.92169,-3.857573 1.9784,0.337376 2.86944,0.141824 4.35377,4.794413 l -0.82027,3.692248 -7.5087,-1.102162 z"/><path style="fill:#f55;fill-rule:evenodd;stroke:#000;stroke-width:.82016581;stroke-linecap:butt;stroke-linejoin:miter;stroke-miterlimit:4;stroke-dasharray:none;stroke-opacity:1" id="path4305-2" d="m 108.52367,49.061098 c -0.26189,10.627758 -3.17278,23.499171 -3.17278,23.499171 2.83857,2.526179 7.89183,2.123851 11.14782,0.09302 -0.81992,-5.915485 -1.21515,-10.588308 -1.1404,-22.946677 -1.92606,-1.568449 -4.17014,-1.914766 -6.83464,-0.64551 z"/><path style="fill:#4d4d4d;fill-rule:evenodd;stroke:#000;stroke-width:.82016581;stroke-linecap:butt;stroke-linejoin:miter;stroke-miterlimit:4;stroke-dasharray:none;stroke-opacity:1" id="path4303-9" d="m 111.06297,41.633555 -0.75717,11.186959 3.21801,0.165326 0.44172,-11.352287 c -1.55735,-1.339324 -2.14707,-0.481487 -2.90256,2e-6 z"/></g></svg>