<svg xmlns="http://www.w3.org/2000/svg" xmlns:svg="http://www.w3.org/2000/svg" id="svg4166" version="1.1" viewBox="0 0 256 256"><style id="style3">svg{cursor:default}</style><metadata id="metadata4171"/><g id="layer1" transform="translate(0,-796.36216)" style="display:inline"><path style="fill:#ff8080;fill-rule:evenodd;stroke:#000;stroke-width:1px;stroke-linecap:butt;stroke-linejoin:miter;stroke-opacity:1" id="path4159" d="m 21.339285,881.38002 c 46.5291,8.31229 92.284975,49.19325 223.839285,-3.125 l 0.89286,14.28571 c -66.31602,40.37808 -140.05481,41.33865 -220.178573,8.39286 z"/><path style="fill:#ffd5d5;fill-opacity:1;fill-rule:evenodd;stroke:#000;stroke-width:1;stroke-linecap:butt;stroke-linejoin:miter;stroke-miterlimit:4;stroke-dasharray:none;stroke-opacity:1" id="path4196" d="m 244.91021,879.87046 c 1.77785,7.13538 4.36139,16.708 8.833,28.30091 -14.46471,23.82811 -38.06218,37.41185 -50.03848,45.52663 -33.00541,22.36345 -37.59962,28.67966 -44.53186,36.20366 -2.93802,3.20135 -6.26655,9.25799 -9.01093,10.14964 -9.10136,2.9572 -18.46396,3.3333 -29.0161,-0.82009 -2.61814,-1.03052 -3.04332,-4.87282 -5.32744,-7.26131 C 106.95927,981.73257 96.779699,974.03568 74.127305,959.4318 51.480394,944.83145 17.78862,923.68131 16.350339,913.13799 c 4.343704,-16.5792 4.825041,-19.81364 4.933287,-31.4793 26.619482,14.31408 63.074058,24.77085 93.931564,27.37562 28.05945,2.36857 50.6252,-2.281 73.61289,-6.3158 28.07826,-4.9283 49.68076,-13.35034 56.08213,-22.84805 z"/><path style="fill:#faa;fill-rule:evenodd;stroke:#000;stroke-width:1px;stroke-linecap:butt;stroke-linejoin:miter;stroke-opacity:1" id="path4157" d="m 21.019126,881.53058 c 0.02886,2.87339 0.160585,5.54105 -0.126269,9.04587 58.623527,41.44689 190.514773,31.77688 226.533173,-1.12373 -0.91622,-3.97006 -1.41854,-7.06558 -2.16359,-10.50508 -49.02093,34.30367 -154.304603,41.93 -224.243314,2.58294 z"/></g></svg>