<svg xmlns="http://www.w3.org/2000/svg" xmlns:svg="http://www.w3.org/2000/svg" xmlns:xlink="http://www.w3.org/1999/xlink" id="svg4164" version="1.1" viewBox="0 0 256 256"><style id="style3">svg{cursor:default}</style><defs id="defs4166"><linearGradient id="linearGradient0"><stop style="stop-color:#f55;stop-opacity:1" id="stop4444" offset="0"/><stop style="stop-color:#ff8080;stop-opacity:1" id="stop4446" offset="1"/></linearGradient><marker id="Arrow1Lstart" orient="auto" refX="0" refY="0" style="overflow:visible"><path id="path4233" d="M 0.0,0.0 L 5.0,-5.0 L -12.5,0.0 L 5.0,5.0 L 0.0,0.0 z" transform="scale(0.8) translate(12.5,0)" style="fill-rule:evenodd;stroke:#000;stroke-width:1pt;stroke-opacity:1;fill:#000;fill-opacity:1"/></marker><linearGradient id="linearGradient1" x1="121.607" x2="118.75" y1="1046.469" y2="929.326" gradientTransform="translate(6.0609152,-14.142135)" gradientUnits="userSpaceOnUse" xlink:href="#linearGradient0"/></defs><metadata id="metadata4169"/><g id="layer1" transform="translate(0,-796.36219)"><path style="fill:#ff2a2a;fill-rule:evenodd;stroke:#000;stroke-width:1px;stroke-linecap:butt;stroke-linejoin:miter;stroke-opacity:1" id="path4440" d="m 21.953772,908.04148 c 5.336814,-4.79954 92.600368,91.81498 85.000008,100.00002 l 45.89285,-0.3571 c 23.92034,-62.95624 58.36844,-79.36868 90.89286,-104.28578 z"/><path style="fill:#f55;fill-rule:evenodd;stroke:#000;stroke-width:1px;stroke-linecap:butt;stroke-linejoin:miter;stroke-opacity:1" id="path4434" d="m 153.54056,1012.5199 -6.31345,0 c 14.60298,-29.47465 18.09293,-55.37151 95.96712,-112.18567 l 5.03544,4.73563 c -23.75235,15.96866 -76.13317,51.70521 -94.68911,107.45004 z"/><path style="fill:#f55;fill-rule:evenodd;stroke:#000;stroke-width:1px;stroke-linecap:butt;stroke-linejoin:miter;stroke-opacity:1" id="path4432" d="M 103.91944,1012.9663 C 87.013663,970.76405 37.291632,917.38661 11.616754,907.91037 l 4.798224,-5.05076 C 45.649602,916.5433 88.082842,963.483 111.36932,1010.4409 Z"/><path style="fill:url(#linearGradient1);fill-opacity:1;fill-rule:evenodd;stroke:#000;stroke-width:1px;stroke-linecap:butt;stroke-linejoin:miter;stroke-opacity:1" id="path4436" d="m 110.10663,1012.4612 c 1.01015,0 38.13326,-0.3788 38.13326,-0.3788 -0.0899,-23.82714 -33.69975,-90.71224 98.99494,-113.01086 -0.88727,-5.70213 0.28367,-12.54488 0.50508,-17.93021 l -237.638385,1.26269 c 0.790156,7.35615 0.342354,13.47434 0.505077,20.20306 108.150178,14.90912 102.025408,75.42469 99.500028,109.85412 z"/><path style="fill:#faa;fill-rule:evenodd;stroke:#000;stroke-width:1px;stroke-linecap:butt;stroke-linejoin:miter;stroke-opacity:1" id="path4428" d="M 103.94111,1013.2035 C 123.1604,933.72459 54.159217,910.15136 10.42803,907.83641 c -0.8319513,-3.24573 -0.229936,-7.03607 -0.07397,-8.00726 42.372285,1.93388 79.212355,21.091 93.859877,44.62546 14.94126,24.0064 12.84136,53.40015 8.16553,68.51169 -0.99327,0.6563 -5.45693,2.0546 -8.43836,0.2372 z"/><path style="fill:#ffd5d5;fill-rule:evenodd;stroke:#000;stroke-width:1px;stroke-linecap:butt;stroke-linejoin:miter;stroke-opacity:1" id="path4438" d="m 9.7227181,883.66672 c 79.4653329,0.0421 111.2392919,2.73369 238.3960019,0.12626 0.0854,-2.73583 0.3282,-5.47166 -0.88388,-8.20749 -78.7919,0.0421 -162.593732,5.09411 -236.3757,0.12627 -0.889313,2.48148 -2.1731257,4.83147 -1.1364219,7.95496 z"/><path style="fill:#faa;fill-rule:evenodd;stroke:#000;stroke-width:1px;stroke-linecap:butt;stroke-linejoin:miter;stroke-opacity:1" id="path4430" d="m 153.66946,1012.335 c -1.98195,1.7553 -5.52483,1.7312 -7.95495,-0.1263 -33.21873,-101.86744 85.91113,-112.90758 101.31506,-116.68802 1.52573,1.28005 2.10613,6.3101 1.72313,9.46515 -18.43533,2.92506 -124.8883,10.13741 -95.08324,107.34917 z"/></g></svg>