<svg xmlns="http://www.w3.org/2000/svg" xmlns:svg="http://www.w3.org/2000/svg" id="svg4166" version="1.1" viewBox="0 0 256 256"><style id="style3">svg{cursor:default}</style><metadata id="metadata4171"/><g id="layer1" transform="translate(0,-796.36216)" style="display:inline"><path style="fill:#faa;fill-rule:evenodd;stroke:#000;stroke-width:1.10249996px;stroke-linecap:butt;stroke-linejoin:miter;stroke-opacity:1" id="path4206" d="m 67.022887,907.23939 c 22.82568,11.63589 34.090643,33.49856 39.449923,60.58549 l 46.7554,0.2934 c -1.14755,-26.47395 15.6513,-43.51843 34.03628,-59.72952 C 167.8784,893.08364 118.27187,872.2868 67.022887,907.23939 Z"/><path style="display:inline;fill:#f55;fill-rule:evenodd;stroke:#000;stroke-width:1.10249996px;stroke-linecap:butt;stroke-linejoin:miter;stroke-opacity:1" id="path4194-6" d="m 152.88419,965.63989 c 0.2942,1.35688 0.0451,3.06442 -0.37881,4.50496 -9.96041,0.90365 -35.28173,0.73435 -46.47427,1.51365 -0.0967,-1.54551 -0.41717,-3.0164 0,-4.73319 9.72745,0.31503 37.27153,0.0999 46.85308,-1.28542 z"/><path style="display:inline;fill:#ff2a2a;fill-rule:evenodd;stroke:#000;stroke-width:1.10249996px;stroke-linecap:butt;stroke-linejoin:miter;stroke-opacity:1" id="path4190-6" d="m 90.876117,1007.4323 4.454767,0 c 9.994466,-3.0354 13.486606,-15.50546 13.432246,-38.2216 -0.0291,-12.14936 -5.98398,-27.68789 -14.632913,-39.75745 -7.71435,-10.76535 -17.79307,-20.85733 -31.74209,-28.95213 -0.16913,1.22904 -0.33901,2.45294 -0.41763,4.31557 15.46916,12.96288 21.11374,16.39806 28.44371,26.84517 9.769413,13.92396 12.889123,22.85964 13.956583,37.45997 1.45308,19.8747 -3.40249,38.20527 -13.494673,38.31047 z"/><path style="display:inline;fill:#ff2a2a;fill-rule:evenodd;stroke:#000;stroke-width:1.10249996px;stroke-linecap:butt;stroke-linejoin:miter;stroke-opacity:1" id="path4190-6-1" d="m 168.01204,1006.4212 -4.45477,0 c -9.99447,-3.0354 -13.48661,-15.50546 -13.43225,-38.2216 0.0291,-12.14936 5.98398,-27.68789 14.63292,-39.75745 7.71435,-10.76535 17.79307,-20.85733 31.74209,-28.95213 0.16913,1.22904 0.33901,2.45294 0.41763,4.31557 -15.46916,12.96288 -21.11374,16.39806 -28.44371,26.84517 -9.76942,13.92396 -12.88913,22.85964 -13.95659,37.45997 -1.45308,19.8747 3.40249,38.20527 13.49468,38.31047 z"/><path style="fill:#faa;fill-rule:evenodd;stroke:#000;stroke-width:1.10249996px;stroke-linecap:butt;stroke-linejoin:miter;stroke-opacity:1" id="path4202" d="m 23.922357,857.62129 c 1.99454,13.48995 -7.77581,32.93153 -8.22043,43.56347 9.78333,6.38171 18.4932,13.88637 28.84467,23.84905 67.633163,-58.54769 121.388193,-37.19786 168.926023,2.36525 11.2062,-13.15902 21.17671,-25.3668 29.36781,-26.21593 0.22204,-17.13957 -10.45698,-25.63679 -11.87279,-44.62155 -80.23761,17.4452 -125.20238,17.86393 -207.045283,1.05971 z"/><path style="fill:#f55;fill-rule:evenodd;stroke:#000;stroke-width:1.10249996px;stroke-linecap:butt;stroke-linejoin:miter;stroke-opacity:1" id="path4194" d="m 230.80867,854.17018 c 0.2942,1.35688 0.42387,2.87502 0,4.31556 -57.43758,13.40429 -114.0105,20.62172 -206.772853,1.70305 -0.0967,-1.54551 -0.41717,-3.0164 0,-4.73319 92.812493,16.35121 125.217933,15.25224 206.772853,-1.28542 z"/><path style="display:inline;fill:#f55;fill-rule:evenodd;stroke:#000;stroke-width:1.10249996px;stroke-linecap:butt;stroke-linejoin:miter;stroke-opacity:1" id="path4194-1" d="m 213.17767,925.86513 c 0.2942,1.35688 0.42387,2.87502 0,4.31556 -63.24597,-55.91743 -125.248443,-44.65939 -168.892133,-0.9486 -0.0967,-1.54551 -0.41717,-3.0164 0,-4.73319 39.52695,-38.7021 102.110683,-58.36263 168.892133,1.36623 z"/><path style="fill:#f55;fill-rule:evenodd;stroke:#000;stroke-width:1.10249996px;stroke-linecap:butt;stroke-linejoin:miter;stroke-opacity:1" id="path4190" d="m 91.430497,1007.6335 4.454767,0 c -15.511877,-4.4244 -23.357267,-17.55104 -31.898337,-38.60041 -4.8273,-11.89682 -8.00429,-29.45566 -16.65323,-41.52522 -7.71435,-10.76535 -17.79307,-20.85733 -31.74209,-28.95213 -0.16913,1.22904 -0.33901,2.45294 -0.41763,4.31557 11.89773,7.24859 21.11374,16.39806 28.44371,26.84517 9.76942,13.92396 10.61778,25.4174 16.29257,38.91206 8.14534,19.36962 23.2115,40.29876 31.52024,39.00496 z"/><path style="display:inline;fill:#f55;fill-rule:evenodd;stroke:#000;stroke-width:1.10249996px;stroke-linecap:butt;stroke-linejoin:miter;stroke-opacity:1" id="path4190-0" d="m 167.45766,1006.6224 -4.45477,0 c 15.51188,-4.4244 23.35727,-17.55104 31.89834,-38.60041 4.8273,-11.89682 8.00429,-29.45566 16.65323,-41.52522 7.71435,-10.76535 17.79307,-20.85733 31.74209,-28.95213 0.16913,1.22904 0.33901,2.45294 0.41763,4.31557 -11.89773,7.24859 -21.11374,16.39806 -28.44371,26.84517 -9.76942,13.92396 -10.61778,25.4174 -16.29257,38.91206 -8.14534,19.36962 -23.2115,40.29876 -31.52024,39.00496 z"/></g></svg>