<svg xmlns="http://www.w3.org/2000/svg" xmlns:svg="http://www.w3.org/2000/svg" xmlns:xlink="http://www.w3.org/1999/xlink" id="svg4166" version="1.1" viewBox="0 0 256 256"><style id="style3">svg{cursor:default}</style><defs id="defs4168"><linearGradient id="linearGradient2"><stop style="stop-color:#f55;stop-opacity:1" id="stop4167" offset="0"/><stop style="stop-color:#ff8080;stop-opacity:1" id="stop4169" offset="1"/></linearGradient><linearGradient id="linearGradient0"><stop style="stop-color:#ff8080;stop-opacity:1" id="stop4159" offset="0"/><stop style="stop-color:#faa;stop-opacity:1" id="stop4161" offset="1"/></linearGradient><linearGradient id="linearGradient1" x1="124.501" x2="126.774" y1="980.894" y2="909.678" gradientUnits="userSpaceOnUse" xlink:href="#linearGradient0"/><linearGradient id="linearGradient3" x1="126.774" x2="126.017" y1="1012.966" y2="918.264" gradientUnits="userSpaceOnUse" xlink:href="#linearGradient2"/></defs><metadata id="metadata4171"/><g id="layer1" transform="translate(0,-796.36216)" style="display:inline"><g id="g4173" transform="matrix(1.05,0,0,1.05,-3.7210912,-58.226689)"><path id="path4153" d="m 73.218002,906.42783 -62.057288,-0.31567 -0.08929,5.71429 62.235859,0.58352 z" style="fill:#f55;fill-rule:evenodd;stroke:#000;stroke-width:1px;stroke-linecap:butt;stroke-linejoin:miter;stroke-opacity:1"/><path id="path4155" d="m 238.52227,906.01631 0.25254,6.31345 -59.72527,-0.1894 -0.37881,-5.68211 z" style="fill:#f55;fill-rule:evenodd;stroke:#000;stroke-width:1px;stroke-linecap:butt;stroke-linejoin:miter;stroke-opacity:1"/><path id="path4149" d="m 71.071428,906.11216 0,5.71429 c 15.229292,26.00171 29.725462,53.82892 38.214282,86.96428 l 32.14286,0 c 8.98649,-34.5838 23.02187,-56.51164 39.82143,-87.14285 l -0.17857,-5.35715 c -36.5103,0.48777 -73.02454,0.96174 -110.000002,-0.17857 z" style="fill:url(#linearGradient3);fill-opacity:1;fill-rule:evenodd;stroke:#000;stroke-width:1px;stroke-linecap:butt;stroke-linejoin:miter;stroke-opacity:1"/><path style="fill:url(#linearGradient1);fill-opacity:1;fill-rule:evenodd;stroke:#000;stroke-width:.89999998px;stroke-linecap:butt;stroke-linejoin:miter;stroke-opacity:1" id="path4151" d="m 75.330571,908.24531 0,5.14286 c 13.706363,23.40154 28.002919,50.94602 35.642849,80.76785 l 28.92858,0 c 8.08784,-31.12542 22.32682,-53.36048 37.44643,-80.92857 l -0.16072,-4.82143 c -32.85927,0.43899 -68.57922,0.86556 -101.857139,-0.16071 z"/></g></g></svg>