<svg xmlns="http://www.w3.org/2000/svg" xmlns:svg="http://www.w3.org/2000/svg" xmlns:xlink="http://www.w3.org/1999/xlink" id="svg4166" version="1.1" viewBox="0 0 256 256"><style id="style3">svg{cursor:default}</style><defs id="defs4168"><linearGradient id="linearGradient0"><stop style="stop-color:#f55;stop-opacity:1" id="stop4341" offset="0"/><stop style="stop-color:#ff8080;stop-opacity:1" id="stop4343" offset="1"/></linearGradient><linearGradient id="linearGradient1" x1="106.066" x2="109.602" y1="1067.009" y2="905.385" gradientUnits="userSpaceOnUse" xlink:href="#linearGradient0"/></defs><metadata id="metadata4171"/><g id="layer1" transform="translate(0,-796.36216)" style="display:inline"><path style="fill:#ff2a2a;fill-rule:evenodd;stroke:#000;stroke-width:1px;stroke-linecap:butt;stroke-linejoin:miter;stroke-opacity:1" id="path4335" d="m 119.70307,999.70796 c 1.24475,-14.54643 3.15762,-15.80045 9.09138,-6.06092 l -10.98541,-22.47589 z"/><path style="fill:url(#linearGradient1);fill-rule:evenodd;stroke:#000;stroke-width:1px;stroke-linecap:butt;stroke-linejoin:miter;stroke-opacity:1;fill-opacity:1" id="path4317" d="m 117.58928,1014.6836 c -30.032841,20.514 -92.55952,20.6845 -106.160709,-6.0714 4.073882,-57.76534 0.494245,-114.03506 23.351388,-171.71365 L 213.03571,835.2193 c 30.40104,85.68541 18.3631,115.11905 27.41072,171.7857 -22.49232,23.3065 -100.7155,19.532 -110.98215,10 -2.00853,-12.9045 2.25964,-18.75493 -9.28571,-39.64284 1.32085,10.63358 0.13317,23.34264 -2.58929,37.32144 z"/><path style="fill:#faa;fill-rule:evenodd;stroke:#000;stroke-width:1px;stroke-linecap:butt;stroke-linejoin:miter;stroke-opacity:1" id="path4319" d="m 11.428571,1007.3622 -1.6071425,4.2857 c 4.5615875,4.7576 7.6387105,9.0442 12.0207145,11.8482 10.691618,6.8415 22.51771,7.9524 34.408687,8.0444 11.739388,0.091 25.529939,-0.1009 39.321572,-4.201 7.265518,-2.16 13.882028,-6.0474 22.106168,-8.5488 0.30194,-1.9743 1.22873,-3.7063 0.35714,-5.7143 -1.76191,2.8377 -18.674149,9.8601 -38.859676,12.6187 -13.582274,1.8561 -33.889098,1.6842 -47.628571,-2.6238 -9.479435,-2.9722 -13.212781,-7.8197 -20.118892,-15.7091 z"/><path style="fill:#faa;fill-rule:evenodd;stroke:#000;stroke-width:1px;stroke-linecap:butt;stroke-linejoin:miter;stroke-opacity:1" id="path4321" d="m 129.46428,1016.1122 c -0.59227,0.7673 -1.47466,2.2719 -1.07142,3.8393 6.33329,2.5712 11.73323,5.17 18.32563,6.3086 15.21606,2.6281 30.96148,1.8732 46.49372,-0.2653 10.92525,-1.5042 24.71198,-3.4008 32.71966,-6.2131 8.30158,-2.9155 11.67431,-6.0492 15.4967,-9.3838 0.95665,-2.1308 -0.28854,-4.037 -0.9375,-5 -5.10173,4.2053 -8.44373,7.2284 -17.09754,9.2875 -7.16352,1.7044 -21.60249,3.8532 -30.0631,5.2025 -14.1137,2.2508 -29.44771,2.8796 -43.06309,1.946 -7.62909,-0.9798 -14.89455,-3.8037 -20.80306,-5.7217 z"/><path style="fill:none;fill-rule:evenodd;stroke:#000;stroke-width:.5;stroke-linecap:butt;stroke-linejoin:miter;stroke-miterlimit:4;stroke-dasharray:none;stroke-opacity:1" id="path4325" d="m 112.85714,841.17344 c 0.99062,28.30075 0.21093,58.20175 3.75,85.65301"/><path style="fill:none;fill-rule:evenodd;stroke:#000;stroke-width:.5;stroke-linecap:butt;stroke-linejoin:miter;stroke-miterlimit:4;stroke-dasharray:1.5,.5;stroke-dashoffset:0;stroke-opacity:1" id="path4327" d="m 116.60714,927.89788 c -0.76122,2.80391 -0.7152,6.01144 -0.53571,9.28571 6.97851,-2.02645 13.48554,-5.93878 20,-9.82143 -6.19048,0.3683 -12.38095,0.83699 -18.57143,-0.17857"/><path style="fill:none;fill-rule:evenodd;stroke:#000;stroke-width:.5;stroke-linecap:butt;stroke-linejoin:miter;stroke-miterlimit:4;stroke-dasharray:1.5,.5;stroke-dashoffset:0;stroke-opacity:1" id="path4329" d="m 136.42857,927.58538 c -0.2288,-1.02567 -4.45088,-86.31539 -2.5523,-86.69511"/><path style="fill:none;fill-rule:evenodd;stroke:#000;stroke-width:1px;stroke-linecap:butt;stroke-linejoin:miter;stroke-opacity:1" id="path4333" d="m 122.35473,881.89892 -0.94702,4.92449 c 0,0 1.6415,5.3033 1.57836,5.05077 -0.0631,-0.25254 1.13642,-4.67196 1.13642,-4.67196 z"/><ellipse style="fill:#b3b3b3;fill-opacity:1;stroke:#000;stroke-width:.5;stroke-miterlimit:4;stroke-dasharray:none;stroke-dashoffset:0" id="path4331" cx="122.513" cy="886.729" rx="3.378" ry="3.188"/><ellipse id="ellipse4337" cx="122.513" cy="886.729" rx="1.309" ry="1.235" style="fill:#1a1a1a;fill-opacity:1;stroke:#000;stroke-width:.19371024;stroke-miterlimit:4;stroke-dasharray:none;stroke-dashoffset:0"/><path style="fill:#f55;fill-rule:evenodd;stroke:#000;stroke-width:1px;stroke-linecap:butt;stroke-linejoin:miter;stroke-opacity:1" id="path4323" d="m 36.744244,823.01332 c -1.400805,5.11904 -3.450902,10.30122 -2.059917,15.42027 27.067848,0.50797 51.830743,2.56344 78.082893,2.63721 18.59644,0.0523 38.78535,-1.73506 57.31654,-2.01756 14.80408,-0.22568 29.1418,-1.94454 44.06803,-2.04822 2.20226,-1.94952 -3.40774,-16.22024 -4.68751,-16.38393 -9.06466,0.12737 -21.95024,2.12262 -31.64823,2.5236 -16.85876,0.69705 -27.47102,2.41933 -45.31593,2.47234 -18.38516,0.0546 -41.200163,-0.94255 -57.323767,-1.6891 -22.185039,-1.02721 -35.210929,-1.81922 -38.432109,-0.91461 z"/></g></svg>