<svg xmlns="http://www.w3.org/2000/svg" xmlns:svg="http://www.w3.org/2000/svg" xmlns:xlink="http://www.w3.org/1999/xlink" id="svg4206" version="1.1" viewBox="0 0 256 256"><style id="style3">svg{cursor:default}</style><defs id="defs4208"><linearGradient id="innoGrad1"><stop style="stop-color:#ff8080;stop-opacity:1" id="stop4547" offset="0"/><stop id="stop4553" offset=".388" style="stop-color:#f55;stop-opacity:1"/><stop style="stop-color:#ff2a2a;stop-opacity:1" id="stop4549" offset="1"/></linearGradient><linearGradient id="innoGrad2"><stop style="stop-color:#f55;stop-opacity:1" id="stop4535" offset="0"/><stop id="stop4541" offset=".134" style="stop-color:#ff8080;stop-opacity:.91764706"/><stop style="stop-color:#ff8080;stop-opacity:1" id="stop4543" offset=".794"/><stop style="stop-color:#faa;stop-opacity:1" id="stop4537" offset="1"/></linearGradient><linearGradient id="linearGradient4539" x1="405.435" x2="416.611" y1="252.31" y2="181.607" gradientTransform="matrix(0.95,0,0,0.95,-265.40724,-53.090409)" gradientUnits="userSpaceOnUse" xlink:href="#innoGrad2"/><linearGradient id="linearGradient4551" x1="417.532" x2="413.688" y1="169.822" y2="191.379" gradientTransform="matrix(0.95,0,0,0.95,-265.40724,-53.090409)" gradientUnits="userSpaceOnUse" xlink:href="#innoGrad1"/></defs><metadata id="metadata4211"/><g id="layer4"><g id="g4333" transform="matrix(1.2066521,-0.18041362,0.18000822,1.0573194,-50.521728,-0.50785037)"><path style="fill:url(#linearGradient4551);fill-opacity:1;fill-rule:evenodd;stroke:#000;stroke-width:.83056027px;stroke-linecap:butt;stroke-linejoin:miter;stroke-opacity:1" id="path4531" d="M 33.548354,103.42522 C 90.735608,134.07981 154.84764,143.31291 224.58938,135.0409 185.86594,113.84129 41.04449,93.34677 33.548354,103.42522 Z"/><path style="fill:url(#linearGradient4539);fill-opacity:1;fill-rule:evenodd;stroke:#000;stroke-width:.83056027px;stroke-linecap:butt;stroke-linejoin:miter;stroke-opacity:1" id="path4529" d="m 31.524778,106.99405 -6.653487,45.26679 c -0.81149,5.52093 0.136097,7.04816 2.788469,7.96368 60.69701,20.95087 123.04798,30.81465 186.64852,32.30222 4.09992,0.0959 5.58259,-1.81285 6.25829,-5.96619 l 7.18355,-44.15528 c 0.68366,-4.20225 -1.56605,-7.6891 -5.23786,-7.87109 -64.34312,-3.18914 -126.321348,-12.2652 -185.624457,-31.50349 -3.36642,-1.09208 -5.000059,1.4939 -5.363025,3.96336 z"/></g></g></svg>