<svg xmlns="http://www.w3.org/2000/svg" xmlns:svg="http://www.w3.org/2000/svg" id="svg4206" version="1.1" viewBox="0 0 256 256"><style id="style3">svg{cursor:default}</style><metadata id="metadata4211"/><g id="layer3" style="display:inline;opacity:1"><path style="fill:#f55;fill-rule:evenodd;stroke:#000;stroke-width:1px;stroke-linecap:butt;stroke-linejoin:miter;stroke-opacity:1;fill-opacity:1" id="path4316" d="M 83.214285,111 C 38.48813,115.64238 10.341433,130.99233 11.25,165.10714 c 4.688772,17.92333 17.324546,29.0586 44.821428,27.5 C 73.202603,191.48771 105.958,163.58389 131.96428,147.25 Z"/><path style="fill:#6c5353;fill-rule:evenodd;stroke:#000;stroke-width:1px;stroke-linecap:butt;stroke-linejoin:miter;stroke-opacity:1" id="path4306" d="m 65.217973,137.74902 c -0.412764,-2.31578 1.973279,-2.69392 3.598669,-3.59867 l 0.505076,9.09137 c -3.083854,-1.30292 -2.990155,-3.58355 -4.103745,-5.4927 z"/><path style="fill:#ff8080;fill-rule:evenodd;stroke:#000;stroke-width:1px;stroke-linecap:butt;stroke-linejoin:miter;stroke-opacity:1" id="path4308" d="m 65.483411,148.76894 0.261604,-5.53574 14.433556,-69.733199 c 7.00575,-17.58093 24.639279,-14.062702 39.285719,-12.142857 25.91094,-2.971218 62.13547,1.445346 66.60714,10 5.21759,9.981671 7.61905,47.857146 11.42857,71.785716 -31.75743,6.79985 -106.666094,20.37122 -132.016589,5.62608 z"/><path style="fill:#916f6f;fill-rule:evenodd;stroke:#000;stroke-width:1px;stroke-linecap:butt;stroke-linejoin:miter;stroke-opacity:1" id="path4304" d="m 65.315673,137.85071 -0.366117,8.81127 c 9.867089,9.6137 49.941414,4.8933 77.550444,6.48088 l 0.89286,-11.42857 c -33.30179,0.72361 -73.227088,4.8967 -78.077187,-3.86358 z"/><ellipse style="display:inline;opacity:1;fill:#c8beb7;fill-opacity:1;stroke:#000;stroke-width:1;stroke-linecap:round;stroke-linejoin:round;stroke-miterlimit:4;stroke-dasharray:none;stroke-dashoffset:0;stroke-opacity:1" id="path4326-2-8" cx="131.73" cy="147.503" rx="3.393" ry="4.505"/><path style="fill:#ff2a2a;fill-rule:evenodd;stroke:#000;stroke-width:1px;stroke-linecap:butt;stroke-linejoin:miter;stroke-opacity:1" id="path4295" d="M 66.607143,191.80357 C 122.53985,168.76732 149.36436,158.77196 181.25,154.03571 c 12.4492,11.32757 30.74599,9.36517 48.21428,9.28572 27.61517,-17.36681 16.62288,-36.1024 -14.64285,-41.78571 -69.9309,8.69196 -121.951037,51.83116 -148.214287,70.26785 z"/><path style="fill:#f55;fill-rule:evenodd;stroke:#000;stroke-width:1px;stroke-linecap:butt;stroke-linejoin:miter;stroke-opacity:1" id="path4293" d="m 61.746103,190.84835 c 38.013814,-8.32352 82.753257,-56.3459 133.392857,-64.82143 26.21887,-4.38824 44.12112,2.51746 46.64676,15.15165 1.85518,9.28032 -1.81669,14.9038 -13.57144,22.32143 6.77144,-2.3224 18.94039,-7.6065 18.21429,-23.03572 -0.52942,-11.24998 -14.19382,-26.80935 -51.96429,-19.64285 -58.21976,11.04651 -84.85907,44.91685 -132.718177,70.02692 z"/><path style="fill:#faa;fill-rule:evenodd;stroke:#000;stroke-width:1px;stroke-linecap:butt;stroke-linejoin:miter;stroke-opacity:1" id="path4291" d="m 72.326571,111.24163 c -21.77648,3.19156 -61.540666,10.42138 -62.5051425,48.68694 -0.7984388,31.67803 32.9316145,34.16436 42.3214285,34.46429 33.090772,1.05696 60.654763,-47.96131 135.000003,-72.00893 -62.56605,13.66866 -104.434131,68.25865 -133.928575,68.97321 -15.873639,0.38457 -42.35594,-10.62244 -40.178571,-30.89285 4.087911,-38.05677 38.915786,-42.4229 58.360342,-45.25368 0.400383,-1.3858 0.575727,-2.13259 0.930515,-3.96898 z"/><path style="fill:#000;fill-rule:evenodd;stroke:none;stroke-width:1px;stroke-linecap:butt;stroke-linejoin:miter;stroke-opacity:1" id="path4297" d="m 180.18596,154.164 c 0.41666,0.1668 0.83911,0.33105 1.26664,0.49305 9.16946,-0.74425 19.99153,-2.53185 30.30063,-2.07141 -10.30771,-0.83633 -21.22281,0.58096 -30.36884,0.94785 -0.40103,0.21216 -0.80098,0.42273 -1.19843,0.63051 z"/><path style="fill:#000;fill-rule:evenodd;stroke:none;stroke-width:1px;stroke-linecap:butt;stroke-linejoin:miter;stroke-opacity:1" id="path4310" d="m 119.65758,60.887994 c -10.88378,0.469961 -19.03793,4.2826 -28.091931,10.241401 9.269801,-5.701004 17.443271,-9.111086 28.119771,-9.241789 z"/><ellipse style="fill:#c8beb7;fill-opacity:1;stroke:#000;stroke-width:1;stroke-linecap:round;stroke-linejoin:round;stroke-miterlimit:4;stroke-dasharray:none;stroke-dashoffset:0;stroke-opacity:1" id="path4326" cx="68.795" cy="144.571" rx="1.741" ry="3.571"/><ellipse style="display:inline;opacity:1;fill:#c8beb7;fill-opacity:1;stroke:#000;stroke-width:1;stroke-linecap:round;stroke-linejoin:round;stroke-miterlimit:4;stroke-dasharray:none;stroke-dashoffset:0;stroke-opacity:1" id="path4326-2" cx="85.848" cy="147.92" rx="3.115" ry="3.785"/><ellipse style="display:inline;opacity:1;fill:#c8beb7;fill-opacity:1;stroke:#000;stroke-width:1;stroke-linecap:round;stroke-linejoin:round;stroke-miterlimit:4;stroke-dasharray:none;stroke-dashoffset:0;stroke-opacity:1" id="path4326-2-0" cx="109.241" cy="147.92" rx="3.383" ry="4.141"/></g></svg>