<svg xmlns="http://www.w3.org/2000/svg" xmlns:svg="http://www.w3.org/2000/svg" id="svg4206" version="1.1" viewBox="0 0 256 256"><style id="style3">svg{cursor:default}</style><metadata id="metadata4211"/><g id="layer3" style="display:inline;opacity:1"><g id="g4323" transform="matrix(0.9916466,-0.12898459,0.12898459,0.9916466,-25.188421,-63.352039)"><path id="path4278-4" d="M 3.7319726,209.69236 3.5110016,195.10829 C 19.854291,165.12412 235.51639,167.39272 252.07167,196.87602 l 0.28407,12.65847 C 226.76347,180.68969 24.853825,179.2915 3.7319726,209.69236 Z" style="display:inline;opacity:1;fill:#f55;fill-rule:evenodd;stroke:#000;stroke-width:1px;stroke-linecap:butt;stroke-linejoin:miter;stroke-opacity:1"/><path id="path4278" d="m 3.1174999,196.26483 0.2601977,15.09905 C 19.720987,241.34805 236.89831,240.62625 253.45359,211.14295 L 253.32732,198.0741 C 218.20171,224.39352 32.320572,226.41315 3.1174999,196.26483 Z" style="fill:#ff8080;fill-rule:evenodd;stroke:#000;stroke-width:1px;stroke-linecap:butt;stroke-linejoin:miter;stroke-opacity:1"/><path id="path4312" d="M 127.96875,172.70898 C 34.165038,172.49239 3.3707624,188.26393 3.0800781,195.5957 c -0.3176148,8.01103 52.5008029,25.87602 126.0468719,24.84961 62.56002,-0.8731 124.04754,-12.50195 124.28711,-23.64258 0.21044,-9.78458 -57.88208,-23.93778 -125.44531,-24.09375 z m -0.0566,2.82032 c 66.13653,0.1388 123.00091,12.73227 122.79492,21.43945 -0.23453,9.91389 -60.42315,20.26211 -121.66211,21.03906 C 57.051879,218.92119 5.3492483,203.0254 5.6601562,195.89648 5.9447023,189.37202 36.089203,175.33658 127.91211,175.5293 Z" style="fill:#faa;fill-rule:evenodd;stroke:#000;stroke-width:1.07143784px;stroke-linecap:butt;stroke-linejoin:miter;stroke-opacity:1"/></g><path style="fill:#fff;fill-opacity:1;fill-rule:evenodd;stroke:none;stroke-width:1px;stroke-linecap:butt;stroke-linejoin:miter;stroke-opacity:1" id="path4276" d="m 147.73481,138.56977 c 28.87486,-5.97066 53.24222,-12.2664 70.56025,-18.13492 8.598,-2.91358 15.40981,-5.70614 20.13979,-8.27132 0.0393,-0.0152 0.0784,-0.0303 0.11741,-0.0455 2.51088,-0.97515 4.51787,-1.90207 5.99559,-2.77339 1.44797,-0.85377 2.47755,-1.7015 2.93953,-2.59469 0.0197,1.09212 -0.65769,2.4033 -1.95724,3.79946 -1.29102,1.387 -3.17451,2.84365 -5.57899,4.34505 -0.0374,0.0233 -0.0749,0.0467 -0.11248,0.07 -5.08723,2.35704 -12.17848,4.87357 -20.90953,7.46618 -17.62082,5.23237 -42.2048,10.8572 -71.19433,16.13909 z"/></g></svg>