<svg xmlns="http://www.w3.org/2000/svg" xmlns:svg="http://www.w3.org/2000/svg" id="svg4206" version="1.1" viewBox="0 0 256 256"><style id="style3">svg{cursor:default}</style><metadata id="metadata4211"/><g id="layer3" style="display:inline;opacity:1"><path style="fill:#f55;fill-rule:evenodd;stroke:#000;stroke-width:1px;stroke-linecap:butt;stroke-linejoin:miter;stroke-opacity:1" id="path4302" d="m 137.63021,222.87943 c -3.17805,5.19061 18.26747,15.26887 22.31265,9.74964 59.58556,-81.29832 67.91432,-183.27323 32.14151,-204.276774 -10.86211,-5.299795 -17.98422,-6.23314 -36.56093,-3.309573 46.92962,44.199917 24.49303,128.608657 -17.89323,197.836707 z"/><path style="fill:#4d4d4d;fill-rule:evenodd;stroke:#000;stroke-width:1px;stroke-linecap:butt;stroke-linejoin:miter;stroke-opacity:1" id="path4308" d="m 143.46289,221.38083 c -1.44123,2.53082 11.44228,7.29761 13.17531,5.30461 35.35189,-59.28556 82.37915,-166.794844 13.89752,-205.506869 L 147.85714,16.17857 c 79.45156,49.068517 28.22539,153.18011 -4.39425,205.20226 z"/><path style="fill:#ff8080;fill-rule:evenodd;stroke:#000;stroke-width:1px;stroke-linecap:butt;stroke-linejoin:miter;stroke-opacity:1" id="path4304" d="m 131.40605,235.65953 c 3.84801,2.06093 -2.41381,17.04047 -7.57614,13.8896 C 18.7102,185.3885 45.53404,14.970861 145.04311,12.668355 172.81866,17.097434 179.06025,19.257733 196.61935,31.48117 167.30321,17.316609 135.4457,25.657731 107.06026,78.440687 70.37613,146.65514 96.95604,217.20864 131.40605,235.65953 Z"/></g></svg>