<svg xmlns="http://www.w3.org/2000/svg" xmlns:svg="http://www.w3.org/2000/svg" id="svg4206" version="1.1" viewBox="0 0 256 256"><style id="style3">svg{cursor:default}</style><metadata id="metadata4211"/><g id="layer3" style="display:inline;opacity:1"><path style="display:inline;opacity:1;fill:#faa;fill-rule:evenodd;stroke:#000;stroke-width:1.10249996px;stroke-linecap:butt;stroke-linejoin:miter;stroke-opacity:1" id="path4306-2" d="m 199.92216,135.67712 c 15.73422,-3.27056 24.91447,-1.29814 35.47518,2.58449 l -4.67984,1.7959 c -11.97833,-3.69545 -18.7893,-2.21883 -32.50012,-0.46506 z"/><path style="fill:#faa;fill-rule:evenodd;stroke:#000;stroke-width:1.10249996px;stroke-linecap:butt;stroke-linejoin:miter;stroke-opacity:1" id="path4306" d="m 55.415585,137.15288 c -15.428862,-4.49583 -24.735631,-3.25029 -35.568576,-0.20882 l 4.524379,2.15779 c 12.231503,-2.74356 18.905511,-0.73674 32.436313,2.08813 z"/><path style="fill:#f55;fill-rule:evenodd;stroke:#000;stroke-width:1.10249996px;stroke-linecap:butt;stroke-linejoin:miter;stroke-opacity:1" id="path4287" d="m 30.627655,99.790494 c 2.922892,-9.2723 8.304537,8.803046 0.7875,3.740616 -61.020907,18.31844 16.482597,45.4178 96.468755,44.8875 49.17284,-0.32602 162.27547,-11.63078 98.63438,-47.84063 -5.77321,2.54424 -2.00335,-10.430026 1.18125,-4.528116 57.16445,32.552416 5.00742,57.224226 -99.61876,58.078116 C 2.5444678,155.15255 -23.466886,112.4981 30.627655,99.790494 Z"/><path style="fill:#ff8080;fill-rule:evenodd;stroke:#000;stroke-width:1.10249996px;stroke-linecap:butt;stroke-linejoin:miter;stroke-opacity:1" id="path4289" d="m 104.4877,128.86979 c 3.87998,-4.2343 15.26879,-6.82741 20.61163,3.69886 2.68919,5.29813 0.64602,16.71922 -14.06869,17.04367 -19.355119,0.42678 -43.477036,-26.45815 -49.69856,-23.24834 -7.015661,3.61952 -2.033015,15.67692 5.846888,10.7193 6.224041,-3.91585 9.434152,2.59601 3.116223,6.36996 -6.109369,3.64935 -14.217634,0.77531 -17.372579,-4.80711 -3.420753,-6.05276 -1.312238,-15.11662 7.574198,-17.85061 9.879101,-3.03938 27.749522,18.56154 49.14171,23.24834 8.22978,0.48748 11.02487,-4.47951 9.64881,-8.67566 -1.94344,-5.92633 -7.70737,-5.36931 -11.59777,-1.76521 -3.79074,3.51176 -6.6619,-0.95721 -3.20186,-4.7332 z"/><path style="display:inline;opacity:1;fill:#ff8080;fill-rule:evenodd;stroke:#000;stroke-width:1.10249996px;stroke-linecap:butt;stroke-linejoin:miter;stroke-opacity:1" id="path4289-6" d="m 150.97606,129.08429 c -3.87999,-4.2343 -15.26879,-6.82741 -20.61164,3.69887 -2.68918,5.29812 -0.64602,16.71921 14.06869,17.04366 19.35512,0.42678 43.47704,-26.45814 49.69857,-23.24834 7.01566,3.61952 2.03301,15.67693 -5.84689,10.7193 -6.22404,-3.91585 -9.43416,2.59601 -3.11623,6.36996 6.10937,3.64935 14.21763,0.77531 17.37258,-4.80711 3.42075,-6.05276 1.31224,-15.11662 -7.5742,-17.85061 -9.8791,-3.03938 -27.74952,18.56155 -49.14171,23.24834 -8.22978,0.48748 -11.02487,-4.47951 -9.6488,-8.67566 1.94344,-5.92632 7.70736,-5.36931 11.59777,-1.76521 3.79073,3.51176 6.6619,-0.9572 3.20186,-4.7332 z"/><path style="fill:#ffd5d5;fill-rule:evenodd;stroke:#000;stroke-width:1.10249996px;stroke-linecap:butt;stroke-linejoin:miter;stroke-opacity:1" id="path4323" d="m 125.71829,128.4358 c -7.97936,-0.68068 -11.77046,-4.80172 -12.40313,-11.51719 -1.83897,-1.9374 0.18617,-3.45601 1.77187,-1.77187 8.27794,0.77857 11.49273,5.27011 11.91094,11.81249 2.00838,2.23144 0.18371,3.07498 -1.27968,1.47657 z"/><path style="display:inline;opacity:1;fill:#ffd5d5;fill-rule:evenodd;stroke:#000;stroke-width:1.10249996px;stroke-linecap:butt;stroke-linejoin:miter;stroke-opacity:1" id="path4323-5" d="m 130.47022,128.23544 c 7.97935,-0.68068 11.77045,-4.80172 12.40312,-11.51719 1.83897,-1.9374 -0.18617,-3.456 -1.77187,-1.77187 -8.27793,0.77858 -11.49272,5.27012 -11.91094,11.81249 -2.00838,2.23144 -0.18371,3.07499 1.27969,1.47657 z"/><path style="display:inline;opacity:1;fill:#ffd5d5;fill-rule:evenodd;stroke:#000;stroke-width:1.10249996px;stroke-linecap:butt;stroke-linejoin:miter;stroke-opacity:1" id="path4323-8" d="m 127.14057,122.67499 c -4.9745,-6.27597 -4.57311,-11.86114 -0.11764,-16.9254 0.14985,-2.667 2.64376,-2.23365 2.50467,0.0753 5.10792,6.56046 4.04169,11.98005 -0.43477,16.76951 -0.24779,2.99191 -2.11279,2.24174 -1.95226,0.0806 z"/><ellipse style="display:inline;opacity:1;fill:#ffd5d5;fill-opacity:1;stroke:#000;stroke-width:.81332004;stroke-linecap:round;stroke-linejoin:round;stroke-miterlimit:4;stroke-dasharray:none;stroke-dashoffset:0;stroke-opacity:1" id="path4346-4" cx="93.89" cy="120.283" rx="2.899" ry="2.862"/><ellipse style="display:inline;opacity:1;fill:#ffd5d5;fill-opacity:1;stroke:#000;stroke-width:.81332004;stroke-linecap:round;stroke-linejoin:round;stroke-miterlimit:4;stroke-dasharray:none;stroke-dashoffset:0;stroke-opacity:1" id="path4346-4-2" cx="94.369" cy="133.425" rx="2.899" ry="2.862"/><ellipse style="display:inline;opacity:1;fill:#ffd5d5;fill-opacity:1;stroke:#000;stroke-width:.81332004;stroke-linecap:round;stroke-linejoin:round;stroke-miterlimit:4;stroke-dasharray:none;stroke-dashoffset:0;stroke-opacity:1" id="path4346-4-5" cx="88.611" cy="130.693" rx="2.899" ry="2.862"/><ellipse style="display:inline;opacity:1;fill:#ffd5d5;fill-opacity:1;stroke:#000;stroke-width:.81332004;stroke-linecap:round;stroke-linejoin:round;stroke-miterlimit:4;stroke-dasharray:none;stroke-dashoffset:0;stroke-opacity:1" id="path4346-4-7" cx="88.094" cy="124.196" rx="2.899" ry="2.862"/><ellipse style="display:inline;opacity:1;fill:#ffd5d5;fill-opacity:1;stroke:#000;stroke-width:.81332004;stroke-linecap:round;stroke-linejoin:round;stroke-miterlimit:4;stroke-dasharray:none;stroke-dashoffset:0;stroke-opacity:1" id="path4346-4-8" cx="99.907" cy="123.236" rx="2.899" ry="2.862"/><ellipse style="display:inline;opacity:1;fill:#ffd5d5;fill-opacity:1;stroke:#000;stroke-width:.81332004;stroke-linecap:round;stroke-linejoin:round;stroke-miterlimit:4;stroke-dasharray:none;stroke-dashoffset:0;stroke-opacity:1" id="path4346-4-22" cx="100.054" cy="129.807" rx="2.899" ry="2.862"/><ellipse style="display:inline;opacity:1;fill:#faa;fill-opacity:1;stroke:#000;stroke-width:1.10249996;stroke-linecap:round;stroke-linejoin:round;stroke-miterlimit:4;stroke-dasharray:none;stroke-dashoffset:0;stroke-opacity:1" id="path4346-42" cx="111.587" cy="137.571" rx="4.676" ry="4.774"/><ellipse style="display:inline;opacity:1;fill:#faa;fill-opacity:1;stroke:#000;stroke-width:1.10249996;stroke-linecap:round;stroke-linejoin:round;stroke-miterlimit:4;stroke-dasharray:none;stroke-dashoffset:0;stroke-opacity:1" id="path4346-7" cx="144.929" cy="137.71" rx="4.676" ry="4.774"/><ellipse style="display:inline;opacity:1;fill:#faa;fill-opacity:1;stroke:#000;stroke-width:1.10249996;stroke-linecap:round;stroke-linejoin:round;stroke-miterlimit:4;stroke-dasharray:none;stroke-dashoffset:0;stroke-opacity:1" id="path4346-1" cx="63.699" cy="133.951" rx="4.676" ry="4.774"/><ellipse style="display:inline;opacity:1;fill:#faa;fill-opacity:1;stroke:#000;stroke-width:1.10249996;stroke-linecap:round;stroke-linejoin:round;stroke-miterlimit:4;stroke-dasharray:none;stroke-dashoffset:0;stroke-opacity:1" id="path4346-2" cx="191.634" cy="133.742" rx="4.676" ry="4.774"/><ellipse style="display:inline;opacity:1;fill:#ffd5d5;fill-opacity:1;stroke:#000;stroke-width:.65878916;stroke-linecap:round;stroke-linejoin:round;stroke-miterlimit:4;stroke-dasharray:none;stroke-dashoffset:0;stroke-opacity:1" id="path4346-4-8-3-2-1" cx="49.834" cy="132.265" rx="2.348" ry="2.318" transform="matrix(0.99980666,0.01966335,-0.01966335,0.99980666,0,0)"/><ellipse style="display:inline;opacity:1;fill:#ffd5d5;fill-opacity:1;stroke:#000;stroke-width:.65878916;stroke-linecap:round;stroke-linejoin:round;stroke-miterlimit:4;stroke-dasharray:none;stroke-dashoffset:0;stroke-opacity:1" id="path4346-4-8-3-2-6" cx="38.349" cy="131.639" rx="2.348" ry="2.318" transform="matrix(0.99980666,0.01966335,-0.01966335,0.99980666,0,0)"/><ellipse style="display:inline;opacity:1;fill:#ffd5d5;fill-opacity:1;stroke:#000;stroke-width:.65878916;stroke-linecap:round;stroke-linejoin:round;stroke-miterlimit:4;stroke-dasharray:none;stroke-dashoffset:0;stroke-opacity:1" id="path4346-4-8-3-2-2" cx="44.143" cy="131.378" rx="2.348" ry="2.318" transform="matrix(0.99980666,0.01966335,-0.01966335,0.99980666,0,0)"/><path style="fill:#fff;fill-opacity:1;fill-rule:evenodd;stroke:none;stroke-width:1px;stroke-linecap:butt;stroke-linejoin:miter;stroke-opacity:1" id="path4525" d="m 200.50854,144.15385 c 8.10835,-0.56609 17.57379,-2.50064 25.79478,-5.12211 0.61112,-0.23268 1.21463,-0.46913 1.80939,-0.70905 4.22348,-1.7037 8.00828,-3.58333 10.9443,-5.52708 2.94119,-1.94718 5.01796,-3.95277 5.81548,-5.87129 -0.9954,1.78172 -3.1947,3.56246 -6.1891,5.26327 -3.00224,1.70526 -6.82473,3.34008 -11.06987,4.79796 -0.59771,0.20527 -1.20377,0.40702 -1.81706,0.60495 -7.94383,3.06376 -17.2371,5.49129 -25.28792,6.56335 z"/><path style="fill:#fff;fill-opacity:1;fill-rule:evenodd;stroke:none;stroke-width:1px;stroke-linecap:butt;stroke-linejoin:miter;stroke-opacity:1" id="path4529" d="m 190.69759,122.38451 c 3.19157,-0.37174 6.09556,1.45362 7.98323,3.90936 0.21782,0.20878 0.42876,0.42664 0.63188,0.65254 2.29435,2.55158 3.61269,6.16181 2.50782,9.22295 1.56794,-2.93912 0.79716,-6.91468 -1.3908,-10.09678 -0.1917,-0.27879 -0.39421,-0.55134 -0.60691,-0.81635 -2.57586,-2.44941 -5.96389,-3.76196 -9.12522,-2.87172 z"/><path style="display:inline;opacity:1;fill:#fff;fill-opacity:1;fill-rule:evenodd;stroke:none;stroke-width:1px;stroke-linecap:butt;stroke-linejoin:miter;stroke-opacity:1" id="path4529-5" d="m 112.55734,126.99867 c 3.19157,-0.37174 6.09556,1.45362 7.98323,3.90936 0.21782,0.20878 0.42876,0.42664 0.63188,0.65254 2.29435,2.55158 3.61269,6.16181 2.50782,9.22295 1.56794,-2.93912 0.79716,-6.91468 -1.3908,-10.09678 -0.1917,-0.27879 -0.39421,-0.55134 -0.60691,-0.81635 -2.57586,-2.44941 -5.96389,-3.76196 -9.12522,-2.87172 z"/><path style="display:inline;opacity:1;fill:#fff;fill-opacity:1;fill-rule:evenodd;stroke:none;stroke-width:1px;stroke-linecap:butt;stroke-linejoin:miter;stroke-opacity:1" id="path4529-4" d="m 115.07887,117.03582 c 2.8247,0.35995 4.87983,1.61239 6.26167,3.20792 2.04129,1.49748 3.4703,3.82756 4.0956,6.47019 -0.11076,-2.67722 -1.07131,-5.47328 -3.06295,-7.61896 -2.00037,-1.45885 -4.46097,-2.21397 -7.29432,-2.05915 z"/><path style="display:inline;opacity:1;fill:#fff;fill-opacity:1;fill-rule:evenodd;stroke:none;stroke-width:1px;stroke-linecap:butt;stroke-linejoin:miter;stroke-opacity:1" id="path4529-4-0" d="m 128.31264,106.91118 c 1.65864,2.31463 2.13961,4.67277 1.91098,6.77108 0.292,2.51477 -0.44274,5.14754 -1.95348,7.40415 1.88625,-1.90314 3.28123,-4.5098 3.49796,-7.42933 -0.29247,-2.45849 -1.41377,-4.77526 -3.45546,-6.7459 z"/><path style="display:inline;opacity:1;fill:#fff;fill-opacity:1;fill-rule:evenodd;stroke:none;stroke-width:1px;stroke-linecap:butt;stroke-linejoin:miter;stroke-opacity:1" id="path4529-4-2" d="m 141.0793,116.06707 c 0.18339,0.7986 0.0524,1.55935 -0.30501,2.3219 -0.0127,0.11979 -0.0312,0.24334 -0.0558,0.37067 -0.20069,1.03788 -0.79606,2.27024 -1.84433,3.70214 1.24412,-1.2274 2.13628,-2.35825 2.64641,-3.43037 0.0643,-0.13515 0.123,-0.27028 0.17585,-0.40549 0.10067,-1.0393 -0.13986,-1.8833 -0.61713,-2.55885 z"/><path style="display:inline;opacity:1;fill:#fff;fill-opacity:1;fill-rule:evenodd;stroke:none;stroke-width:1px;stroke-linecap:butt;stroke-linejoin:miter;stroke-opacity:1" id="path4529-4-2-1" d="m 144.31496,134.64114 c 0.40107,-0.14615 0.85498,7.9e-4 1.25889,0.27169 0.41855,0.28072 0.8221,0.72089 1.10831,1.24078 0.0672,0.12207 0.12754,0.24783 0.17995,0.37614 0.68873,0.73014 1.21317,1.95428 0.53989,3.40677 1.04661,-1.24126 1.11756,-2.73202 0.54989,-4.07611 -0.11692,-0.14739 -0.24087,-0.28525 -0.36972,-0.41305 -0.54424,-0.53982 -1.18682,-0.91134 -1.78548,-1.06136 -0.61161,-0.15326 -1.15613,-0.0693 -1.48173,0.25514 z"/><path style="display:inline;opacity:1;fill:#fff;fill-opacity:1;fill-rule:evenodd;stroke:none;stroke-width:1px;stroke-linecap:butt;stroke-linejoin:miter;stroke-opacity:1" id="path4529-4-2-1-0" d="m 110.84538,134.60023 c 0.40107,-0.14615 0.85498,7.9e-4 1.25889,0.27169 0.41854,0.28071 0.8221,0.72089 1.1083,1.24078 0.0672,0.12206 0.12754,0.24782 0.17995,0.37613 0.68874,0.73014 1.21318,1.95429 0.5399,3.40677 1.04661,-1.24125 1.11756,-2.73201 0.54988,-4.07611 -0.11691,-0.14738 -0.24087,-0.28524 -0.36971,-0.41304 -0.54424,-0.53983 -1.18683,-0.91134 -1.78548,-1.06136 -0.61161,-0.15326 -1.15613,-0.0693 -1.48173,0.25514 z"/><path style="display:inline;opacity:1;fill:#fff;fill-opacity:1;fill-rule:evenodd;stroke:none;stroke-width:1px;stroke-linecap:butt;stroke-linejoin:miter;stroke-opacity:1" id="path4529-4-2-1-61" d="m 190.85764,130.57931 c 0.40107,-0.14615 0.85498,7.9e-4 1.25889,0.27169 0.41854,0.28071 0.8221,0.72089 1.1083,1.24078 0.0672,0.12207 0.12754,0.24783 0.17995,0.37614 0.68874,0.73014 1.21318,1.95429 0.5399,3.40677 1.04661,-1.24126 1.11756,-2.73202 0.54988,-4.07611 -0.11691,-0.14739 -0.24087,-0.28525 -0.36971,-0.41305 -0.54424,-0.53982 -1.18683,-0.91134 -1.78548,-1.06136 -0.61161,-0.15326 -1.15613,-0.0693 -1.48173,0.25514 z"/><path style="display:inline;opacity:1;fill:#fff;fill-opacity:1;fill-rule:evenodd;stroke:none;stroke-width:1px;stroke-linecap:butt;stroke-linejoin:miter;stroke-opacity:1" id="path4529-4-2-1-3" d="m 62.817353,131.05034 c 0.401074,-0.14615 0.854982,7.9e-4 1.258894,0.27169 0.418541,0.28071 0.8221,0.72089 1.108302,1.24078 0.0672,0.12207 0.127541,0.24783 0.179949,0.37614 0.688738,0.73014 1.213179,1.95429 0.539899,3.40677 1.046609,-1.24126 1.117561,-2.73202 0.549883,-4.07611 -0.116915,-0.14739 -0.240872,-0.28525 -0.369716,-0.41305 -0.544237,-0.53982 -1.186824,-0.91134 -1.785477,-1.06136 -0.611616,-0.15326 -1.156137,-0.0693 -1.481734,0.25514 z"/><ellipse style="fill:#faa;fill-opacity:1;stroke:#000;stroke-width:1.10249996;stroke-linecap:round;stroke-linejoin:round;stroke-miterlimit:4;stroke-dasharray:none;stroke-dashoffset:0;stroke-opacity:1" id="path4346" cx="94.025" cy="126.509" rx="4.676" ry="4.774"/><path style="display:inline;opacity:1;fill:#fff;fill-opacity:1;fill-rule:evenodd;stroke:none;stroke-width:1px;stroke-linecap:butt;stroke-linejoin:miter;stroke-opacity:1" id="path4529-4-2-1-4" d="m 92.9954,123.29406 c 0.401075,-0.14615 0.854983,7.9e-4 1.258894,0.27169 0.418541,0.28071 0.8221,0.72089 1.108302,1.24078 0.0672,0.12206 0.127542,0.24782 0.17995,0.37613 0.688738,0.73014 1.213179,1.95429 0.539899,3.40677 1.046609,-1.24125 1.11756,-2.73201 0.549882,-4.07611 -0.116915,-0.14738 -0.240872,-0.28524 -0.369716,-0.41304 -0.544237,-0.53983 -1.186824,-0.91134 -1.785477,-1.06136 -0.611617,-0.15326 -1.156138,-0.0693 -1.481734,0.25514 z"/><ellipse style="display:inline;opacity:1;fill:#ffd5d5;fill-opacity:1;stroke:#000;stroke-width:.81332004;stroke-linecap:round;stroke-linejoin:round;stroke-miterlimit:4;stroke-dasharray:none;stroke-dashoffset:0;stroke-opacity:1" id="path4346-4-71" cx="160.823" cy="120.907" rx="2.899" ry="2.862"/><ellipse style="display:inline;opacity:1;fill:#ffd5d5;fill-opacity:1;stroke:#000;stroke-width:.81332004;stroke-linecap:round;stroke-linejoin:round;stroke-miterlimit:4;stroke-dasharray:none;stroke-dashoffset:0;stroke-opacity:1" id="path4346-4-2-4" cx="161.303" cy="134.048" rx="2.899" ry="2.862"/><ellipse style="display:inline;opacity:1;fill:#ffd5d5;fill-opacity:1;stroke:#000;stroke-width:.81332004;stroke-linecap:round;stroke-linejoin:round;stroke-miterlimit:4;stroke-dasharray:none;stroke-dashoffset:0;stroke-opacity:1" id="path4346-4-5-5" cx="155.544" cy="131.317" rx="2.899" ry="2.862"/><ellipse style="display:inline;opacity:1;fill:#ffd5d5;fill-opacity:1;stroke:#000;stroke-width:.81332004;stroke-linecap:round;stroke-linejoin:round;stroke-miterlimit:4;stroke-dasharray:none;stroke-dashoffset:0;stroke-opacity:1" id="path4346-4-7-5" cx="155.028" cy="124.82" rx="2.899" ry="2.862"/><ellipse style="display:inline;opacity:1;fill:#ffd5d5;fill-opacity:1;stroke:#000;stroke-width:.81332004;stroke-linecap:round;stroke-linejoin:round;stroke-miterlimit:4;stroke-dasharray:none;stroke-dashoffset:0;stroke-opacity:1" id="path4346-4-8-8" cx="166.84" cy="123.86" rx="2.899" ry="2.862"/><ellipse style="display:inline;opacity:1;fill:#ffd5d5;fill-opacity:1;stroke:#000;stroke-width:.81332004;stroke-linecap:round;stroke-linejoin:round;stroke-miterlimit:4;stroke-dasharray:none;stroke-dashoffset:0;stroke-opacity:1" id="path4346-4-22-3" cx="166.988" cy="130.431" rx="2.899" ry="2.862"/><ellipse style="display:inline;opacity:1;fill:#faa;fill-opacity:1;stroke:#000;stroke-width:1.10249996;stroke-linecap:round;stroke-linejoin:round;stroke-miterlimit:4;stroke-dasharray:none;stroke-dashoffset:0;stroke-opacity:1" id="path4346-45" cx="160.958" cy="127.133" rx="4.676" ry="4.774"/><path style="display:inline;opacity:1;fill:#fff;fill-opacity:1;fill-rule:evenodd;stroke:none;stroke-width:1px;stroke-linecap:butt;stroke-linejoin:miter;stroke-opacity:1" id="path4529-4-2-1-4-3" d="m 159.9289,123.91793 c 0.40107,-0.14615 0.85498,7.9e-4 1.25889,0.27169 0.41855,0.28071 0.82211,0.72089 1.10831,1.24078 0.0672,0.12206 0.12754,0.24782 0.17995,0.37613 0.68874,0.73014 1.21318,1.95429 0.5399,3.40677 1.04661,-1.24125 1.11756,-2.73202 0.54988,-4.07611 -0.11692,-0.14739 -0.24087,-0.28524 -0.36972,-0.41304 -0.54424,-0.53983 -1.18682,-0.91134 -1.78548,-1.06136 -0.61161,-0.15326 -1.15613,-0.0693 -1.48173,0.25514 z"/><ellipse style="display:inline;opacity:1;fill:#ffd5d5;fill-opacity:1;stroke:#000;stroke-width:.65878922;stroke-linecap:round;stroke-linejoin:round;stroke-miterlimit:4;stroke-dasharray:none;stroke-dashoffset:0;stroke-opacity:1" id="path4346-4-8-3-2-1-8" cx="215.508" cy="141.664" rx="2.348" ry="2.318" transform="matrix(0.99914175,-0.04142176,0.04142176,0.99914175,0,0)"/><ellipse style="display:inline;opacity:1;fill:#ffd5d5;fill-opacity:1;stroke:#000;stroke-width:.65878922;stroke-linecap:round;stroke-linejoin:round;stroke-miterlimit:4;stroke-dasharray:none;stroke-dashoffset:0;stroke-opacity:1" id="path4346-4-8-3-2-6-8" cx="204.023" cy="141.037" rx="2.348" ry="2.318" transform="matrix(0.99914175,-0.04142176,0.04142176,0.99914175,0,0)"/><ellipse style="display:inline;opacity:1;fill:#ffd5d5;fill-opacity:1;stroke:#000;stroke-width:.65878922;stroke-linecap:round;stroke-linejoin:round;stroke-miterlimit:4;stroke-dasharray:none;stroke-dashoffset:0;stroke-opacity:1" id="path4346-4-8-3-2-2-8" cx="209.817" cy="140.776" rx="2.348" ry="2.318" transform="matrix(0.99914175,-0.04142176,0.04142176,0.99914175,0,0)"/></g></svg>