<svg xmlns="http://www.w3.org/2000/svg" xmlns:svg="http://www.w3.org/2000/svg" id="svg4206" version="1.1" viewBox="0 0 256 256"><style id="style3">svg{cursor:default}</style><metadata id="metadata4211"/><g id="layer3" style="display:inline;opacity:1"><path style="fill:#f55;fill-rule:evenodd;stroke:#000;stroke-width:1.04999995px;stroke-linecap:butt;stroke-linejoin:miter;stroke-opacity:1" id="path4389" d="m 97.132608,57.111081 c -4.687504,1.441729 -8.718748,6.653487 -13.406253,3.09375 -0.224742,-5.495379 10.819442,-4.897778 13.406253,-3.09375 z"/><path style="fill:#ff2a2a;fill-rule:evenodd;stroke:#000;stroke-width:1.04999995px;stroke-linecap:butt;stroke-linejoin:miter;stroke-opacity:1" id="path4305" d="m 19.291299,173.61442 c 1.724279,5.29281 21.458033,3.24363 32.29293,1.5949 23.58443,-3.5888 34.313525,-8.61657 39.301633,-11.53859 L 70.998486,150.81022 Z"/><path style="fill:#ff2a2a;fill-rule:evenodd;stroke:#000;stroke-width:1.04999995px;stroke-linecap:butt;stroke-linejoin:miter;stroke-opacity:1" id="path4301" d="m 244.78886,182.64233 c -17.52683,1.75583 -24.21876,-9.6875 -36.375,-14.24999 14.21568,-8.65474 24.37756,-6.71484 34.96874,-6.18751 11.39982,10.38612 4.40382,16.68596 1.40626,20.4375 z"/><path style="fill:#faa;fill-rule:evenodd;stroke:#000;stroke-width:1.04999995px;stroke-linecap:butt;stroke-linejoin:miter;stroke-opacity:1" id="path4299" d="m 244.97636,182.45483 c 8.57591,-3.54557 7.56425,-17.36282 -0.65625,-21.65625 -46.78482,-14.11407 -59.84619,13.68456 -64.3125,25.59375 20.82426,-12.51667 32.36951,-19.10463 43.74325,-22.06817 19.28751,-5.02552 28.29412,2.41105 21.2255,18.13067 z"/><path style="fill:#ff8080;fill-opacity:1;fill-rule:evenodd;stroke:#000;stroke-width:1.04999995px;stroke-linecap:butt;stroke-linejoin:miter;stroke-opacity:1" id="path4303" d="m 75.37371,163.40557 c -18.784258,3.28864 -37.899078,1.61872 -56.347578,9.94369 -6.9718,-30.58845 -4.132527,-51.63709 3.381588,-69.83475 2.74659,-6.651679 8.181747,-17.58504 12.6609,-20.056202 13.323219,-7.350454 40.322699,-22.826972 55.154327,-25.588427 13.737633,-2.557767 54.393583,2.601398 74.909133,22.804194 20.33538,20.025385 32.45557,46.336345 29.96365,58.999215 z"/><path style="fill:#ff8080;fill-rule:evenodd;stroke:#000;stroke-width:1.04999995px;stroke-linecap:butt;stroke-linejoin:miter;stroke-opacity:1" id="path4297" d="m 75.28886,163.61108 c 19.213729,14.92459 54.07258,34.39254 70.31249,34.6875 36.59465,2.36474 62.57124,-51.58556 99.37501,-37.125 -20.28052,-10.52854 -31.5,-14.87501 -47.25,-22.3125 -25.69061,-8.42286 -81.625,16.5 -122.4375,24.75 z"/><path style="fill:none;fill-rule:evenodd;stroke:#000;stroke-width:.52499998;stroke-linecap:butt;stroke-linejoin:miter;stroke-miterlimit:4;stroke-dasharray:1.575,1.575;stroke-dashoffset:0;stroke-opacity:1" id="path4307" d="m 195.09572,136.62389 c 0.26677,0.0414 2.3268,-1.35225 -20.81545,-2.25389 -50.15075,10.78289 -61.61185,17.47648 -86.576389,23.06936 -19.078185,5.11739 -27.682042,3.58717 -42.323337,5.76811 -12.098635,1.80218 -21.12873,4.53808 -26.884735,7.49013"/><path style="fill:none;fill-rule:evenodd;stroke:#000;stroke-width:1.04999995px;stroke-linecap:butt;stroke-linejoin:miter;stroke-opacity:1" id="path4309" d="M 175.60609,137.02164 C 160.49174,112.0961 162.71915,78.499685 130.26287,62.245104"/><path style="fill:none;fill-rule:evenodd;stroke:#000;stroke-width:1.04999995px;stroke-linecap:butt;stroke-linejoin:miter;stroke-opacity:1" id="path4311" d="m 83.726408,59.616201 c -15.258107,11.809513 -9.268182,37.000227 -3.721977,57.592089 4.48728,16.66033 2.002182,21.56931 9.953349,42.48497"/><path style="fill:none;fill-rule:evenodd;stroke:#000;stroke-width:1.04999995px;stroke-linecap:butt;stroke-linejoin:miter;stroke-opacity:1" id="path4313" d="M 36.527028,82.795395 C 16.185599,116.12855 23.568285,142.95437 23.799107,170.83019"/><path style="fill:none;fill-rule:evenodd;stroke:#000;stroke-width:.52499998;stroke-linecap:butt;stroke-linejoin:miter;stroke-miterlimit:4;stroke-dasharray:1.575,1.575;stroke-dashoffset:0;stroke-opacity:1" id="path4315" d="M 176.00384,133.97226 C 169.03538,118.491 162.64332,95.897241 152.03805,79.990065 147.08968,72.567837 142.77979,69.1943 134.24035,63.968678"/><path style="display:inline;opacity:1;fill:none;fill-rule:evenodd;stroke:#000;stroke-width:.52499998;stroke-linecap:butt;stroke-linejoin:miter;stroke-miterlimit:4;stroke-dasharray:1.575,1.575;stroke-dashoffset:0;stroke-opacity:1" id="path4315-9" d="M 170.71907,134.1564 C 157.31716,96.072087 156.32693,79.914989 132.00497,62.959583"/><path style="display:inline;opacity:1;fill:none;fill-rule:evenodd;stroke:#000;stroke-width:.52499998;stroke-linecap:butt;stroke-linejoin:miter;stroke-miterlimit:4;stroke-dasharray:1.575,1.575;stroke-dashoffset:0;stroke-opacity:1" id="path4315-4" d="M 91.567293,156.29768 C 85.399436,137.74958 86.208408,133.33548 84.153516,122.46346 82.65399,114.52979 77.850545,100.82942 77.310488,91.811795 76.711589,81.811756 74.432259,73.865669 84.089151,59.292768"/><path style="display:inline;opacity:1;fill:none;fill-rule:evenodd;stroke:#000;stroke-width:.52499998;stroke-linecap:butt;stroke-linejoin:miter;stroke-miterlimit:4;stroke-dasharray:1.575,1.575;stroke-dashoffset:0;stroke-opacity:1" id="path4315-4-7" d="M 86.244497,157.90727 C 81.26988,142.8063 81.806976,139.58852 79.22847,126.06178 77.435763,116.65728 72.863916,97.884082 72.323859,88.866452 71.72496,78.86642 76.004235,63.333246 81.817371,60.854096"/><path style="display:inline;opacity:1;fill:none;fill-rule:evenodd;stroke:#000;stroke-width:.52499998;stroke-linecap:butt;stroke-linejoin:miter;stroke-miterlimit:4;stroke-dasharray:1.575,1.575;stroke-dashoffset:0;stroke-opacity:1" id="path4315-1" d="M 36.947963,82.092879 C 21.178706,113.15944 22.607514,134.9531 25.810539,167.28881"/><path style="display:inline;opacity:1;fill:none;fill-rule:evenodd;stroke:#000;stroke-width:.52499998;stroke-linecap:butt;stroke-linejoin:miter;stroke-miterlimit:4;stroke-dasharray:1.575,1.575;stroke-dashoffset:0;stroke-opacity:1" id="path4315-1-7" d="M 33.614339,84.497085 C 17.845082,115.56365 19.27389,137.35731 22.476915,169.69301"/></g></svg>