<svg xmlns="http://www.w3.org/2000/svg" xmlns:svg="http://www.w3.org/2000/svg" id="svg4206" version="1.1" viewBox="0 0 256 256"><style id="style3">svg{cursor:default}</style><metadata id="metadata4211"/><g id="layer3" style="display:inline;opacity:1"><path style="fill:#f55;fill-rule:evenodd;stroke:#000;stroke-width:1px;stroke-linecap:butt;stroke-linejoin:miter;stroke-opacity:1" id="path4302" d="m 137.63021,222.87943 c -3.17805,5.19061 18.26747,15.26887 22.31265,9.74964 59.58556,-81.29832 67.91432,-183.27323 32.14151,-204.276774 -10.86211,-5.299795 -17.98422,-6.23314 -36.56093,-3.309573 46.92962,44.199917 24.49303,128.608657 -17.89323,197.836707 z"/><path style="fill:#4d4d4d;fill-rule:evenodd;stroke:#000;stroke-width:1px;stroke-linecap:butt;stroke-linejoin:miter;stroke-opacity:1" id="path4308" d="m 143.46289,221.38083 c -1.44123,2.53082 11.44228,7.29761 13.17531,5.30461 35.35189,-59.28556 82.37915,-166.794844 13.89752,-205.506869 L 147.85714,16.17857 c 79.45156,49.068517 28.22539,153.18011 -4.39425,205.20226 z"/><path style="fill:#ff8080;fill-rule:evenodd;stroke:#000;stroke-width:1px;stroke-linecap:butt;stroke-linejoin:miter;stroke-opacity:1" id="path4304" d="m 131.40605,235.65953 c 3.84801,2.06093 -2.41381,17.04047 -7.57614,13.8896 C 18.7102,185.3885 45.53404,14.970861 145.04311,12.668355 172.81866,17.097434 179.06025,19.257733 196.61935,31.48117 167.30321,17.316609 135.4457,25.657731 107.06026,78.440687 70.37613,146.65514 96.95604,217.20864 131.40605,235.65953 Z"/><path style="fill:#faa;fill-rule:evenodd;stroke:#000;stroke-width:.90249997px;stroke-linecap:butt;stroke-linejoin:miter;stroke-opacity:1" id="path4286" d="m 20.303226,91.912796 c 11.257469,28.307384 31.10358,43.059824 57.87712,48.265684 9.227636,-14.14968 15.980431,-20.49004 9.085062,-56.577999 l 8.518012,-9.683647 c 34.09099,18.18667 58.47901,-5.126811 63.66725,-10.920938 C 154.45271,51.769454 137.08914,29.735112 105.47167,6.4811049 67.453094,53.610986 91.313328,49.481947 88.903687,67.114244 l -11.06756,8.642589 C 55.111176,74.192935 41.454535,70.932419 20.303226,91.912796 Z"/><path style="fill:#ff2a2a;fill-rule:evenodd;stroke:none;stroke-width:1px;stroke-linecap:butt;stroke-linejoin:miter;stroke-opacity:1" id="path4292" d="m 86.345561,83.408254 c -0.717027,-0.55269 -1.442669,-1.095878 -2.177001,-1.629525 -3.93289,4.129294 -6.333292,8.619471 -8.107968,13.235273 -1.757598,4.571383 -2.984318,9.502258 -4.435049,14.513958 2.318445,-4.79835 4.321482,-9.25845 6.82684,-13.338586 2.491932,-4.058269 5.354246,-7.524241 9.274708,-10.448119 -0.472044,-0.769186 -0.932585,-1.54685 -1.38153,-2.333001 z"/><path style="display:inline;opacity:1;fill:#ff2a2a;fill-rule:evenodd;stroke:none;stroke-width:1px;stroke-linecap:butt;stroke-linejoin:miter;stroke-opacity:1" id="path4292-4" d="m 79.908391,78.002911 c -0.717024,-0.552688 -1.435376,-1.103722 -2.154874,-1.653681 -3.695834,3.816578 -6.955525,7.462254 -10.434105,10.256119 -3.529661,2.834892 -7.399519,4.883381 -12.202226,4.908769 4.816721,0.882771 9.247739,-0.293557 13.682129,-2.641586 4.211024,-2.229756 8.311229,-5.460685 12.46155,-8.515401 -0.45259,-0.783499 -0.903541,-1.568091 -1.352474,-2.35422 z"/><path style="display:inline;opacity:1;fill:#ff2a2a;fill-rule:evenodd;stroke:none;stroke-width:1px;stroke-linecap:butt;stroke-linejoin:miter;stroke-opacity:1" id="path4292-9" d="m 90.234988,76.427755 c 0.739313,0.535268 1.464951,1.084952 2.177219,1.648545 4.208682,-4.043043 9.324003,-6.433185 15.270643,-8.875636 5.90068,-2.423573 12.13862,-4.729759 18.20936,-8.739299 -6.44172,3.198083 -12.90463,4.645431 -19.03552,6.209002 -6.08385,1.551574 -12.289255,3.307804 -17.827409,7.292471 0.386621,0.831436 0.788447,1.653109 1.205707,2.464917 z"/><path style="display:inline;opacity:1;fill:#ff2a2a;fill-rule:evenodd;stroke:none;stroke-width:1px;stroke-linecap:butt;stroke-linejoin:miter;stroke-opacity:1" id="path4292-6" d="m 89.485723,71.742821 c 0.711266,0.560161 1.436409,1.105307 2.17537,1.635323 4.096456,-4.260929 5.939339,-9.314014 7.157961,-14.256445 1.245716,-5.052308 1.882566,-10.087203 3.419056,-15.195253 -2.328399,4.693462 -3.948608,9.848389 -5.948659,14.34425 -2.047013,4.601425 -4.411512,8.365328 -8.179932,11.138684 0.476598,0.764785 0.935455,1.542618 1.376204,2.333441 z"/><path style="fill:#ff8080;fill-rule:evenodd;stroke:#000;stroke-width:.90249997px;stroke-linecap:butt;stroke-linejoin:miter;stroke-opacity:1" id="path4288" d="m 70.45959,73.763471 c 2.330577,0.893015 14.612498,12.469608 18.965093,18.42023 C 92.020796,88.368117 99.545143,79.660812 103.61544,75.892442 97.170152,70.761721 90.841822,63.973377 84.668107,57.9277 80.533377,63.250946 76.853093,66.735277 70.45959,73.763471 Z"/></g></svg>