<svg xmlns="http://www.w3.org/2000/svg" xmlns:svg="http://www.w3.org/2000/svg" id="svg4206" version="1.1" viewBox="0 0 256 256"><style id="style3">svg{cursor:default}</style><metadata id="metadata4211"/><g id="layer4"><path style="fill:#f55;fill-rule:evenodd;stroke:#000;stroke-width:1.77156103px;stroke-linecap:butt;stroke-linejoin:miter;stroke-opacity:1" id="path4422" d="m 113.94521,16.745559 c 20.99299,6.961011 35.38898,2.141447 48.09405,-4.809407 l -8.72403,49.212538 -40.15295,-0.447386 z"/><path style="fill:#ffb380;fill-rule:evenodd;stroke:#000;stroke-width:.88578051;stroke-linecap:butt;stroke-linejoin:miter;stroke-miterlimit:4;stroke-dasharray:none;stroke-opacity:1" id="path4500" d="m 128.14972,28.377613 c 2.91217,0.122999 4.14494,1.53783 5.14495,3.131707 1.57506,-1.99127 4.43311,-2.218422 7.15819,-2.628396 l -0.22369,4.86533 -12.80644,-0.447387 z"/><path style="fill:#ffb380;fill-rule:evenodd;stroke:#000;stroke-width:1.32867074;stroke-linecap:butt;stroke-linejoin:miter;stroke-miterlimit:4;stroke-dasharray:none;stroke-opacity:1" id="path4424" d="m 114.2362,14.777534 -0.11869,3.717114 c 19.80502,6.795478 33.83495,2.582204 46.97801,-3.321677 l 1.30493,-4.349813 c -1.17014,-0.549336 -14.11383,5.238152 -25.16102,6.243737 -11.77438,1.071781 -21.69548,-2.605681 -23.0033,-2.289361 z"/><path style="fill:#ffe6d5;fill-rule:evenodd;stroke:#000;stroke-width:1.77156103px;stroke-linecap:butt;stroke-linejoin:miter;stroke-opacity:1" id="path4371" d="m 30.283894,199.27934 c -7.510427,2.33574 -9.551424,6.09486 -12.750527,9.39511 8.324813,5.1952 16.595204,9.79055 24.802315,13.81355 2.268643,1.11204 6.210136,6.20682 8.468912,7.23197 5.118341,2.323 13.331386,2.94347 18.375374,4.78059 7.267936,2.64712 13.623818,7.28604 20.645719,9.02276 9.428248,2.33185 17.781563,1.42263 26.867013,2.07388 11.14224,0.79869 26.48362,3.75803 37.28298,2.67672 10.32131,-1.03342 20.62537,-6.6774 29.72669,-9.94615 7.12139,-2.55767 16.91254,-2.41889 23.7017,-4.91441 5.49254,-2.01895 6.43564,-5.82311 12.41129,-8.81596 -0.44883,-2.55429 -3.29108,-8.34781 -9.23464,-11.67277 -62.37319,30.6464 -122.091977,22.4016 -180.296826,-13.64529 z"/><path style="fill:#ff8080;fill-rule:evenodd;stroke:#000;stroke-width:1.77156103px;stroke-linecap:butt;stroke-linejoin:miter;stroke-opacity:1" id="path4363" d="m 83.075526,151.85634 c -16.68077,19.64137 -33.679483,35.11581 -55.699649,48.54146 6.451139,4.63175 13.180467,8.86512 20.139406,12.6634 3.597066,1.96334 4.794872,4.81705 8.50794,6.54282 4.248805,1.97478 12.615463,2.8878 17.033417,4.52253 7.130657,2.63846 13.690871,6.52636 20.998065,8.27526 8.497455,2.03379 16.011595,1.01373 24.726135,1.62119 9.99272,0.69658 22.78275,3.71061 33.06913,2.81884 9.60475,-0.83267 18.30889,-5.72455 27.33868,-8.91818 11.18645,-3.95641 20.84388,-2.93909 34.0764,-12.98579 -19.37426,-19.0837 -31.62138,-34.97733 -40.2648,-57.0418 l -3.35539,-8.94773 c -1.87086,-9.84251 -1.02792,-19.68502 0,-29.52753 L 158.01279,72.668898 90.140246,71.141425 c -7.047323,22.165975 1.638091,44.237325 -3.70933,71.096095 z"/><path style="fill:#000;fill-rule:evenodd;stroke:none;stroke-width:1px;stroke-linecap:butt;stroke-linejoin:miter;stroke-opacity:1" id="path4484" d="m 117.51834,165.91384 c -0.22308,0.005 -0.44616,0.0107 -0.66923,0.016 -1.05672,6.09953 -2.01173,11.6519 -3.28514,17.14596 1.69502,-5.38882 3.07669,-10.8576 4.56083,-16.87857 -0.20216,-0.0944 -0.40431,-0.18891 -0.60646,-0.28342 z"/><path style="fill:none;fill-rule:evenodd;stroke:#000;stroke-width:.44289026;stroke-linecap:butt;stroke-linejoin:miter;stroke-miterlimit:4;stroke-dasharray:none;stroke-opacity:1" id="path4460" d="m 86.319077,140.89537 c 31.195493,15.76473 68.925063,16.11045 82.878393,6.93449"/><path style="fill:none;fill-rule:evenodd;stroke:#000;stroke-width:.44289026;stroke-linecap:butt;stroke-linejoin:miter;stroke-miterlimit:4;stroke-dasharray:none;stroke-opacity:1" id="path4462" d="m 81.849854,153.9716 c 36.018196,16.95317 66.764966,17.9865 92.295176,6.72245"/><path style="fill:#ffe6d5;fill-rule:evenodd;stroke:#000;stroke-width:1.32867074;stroke-linecap:butt;stroke-linejoin:miter;stroke-miterlimit:4;stroke-dasharray:none;stroke-opacity:1" id="path4365" d="m 111.26088,56.11559 c 21.79555,7.608373 37.04549,2.82238 52.56794,-0.894773 l 0.0926,20.100608 c -22.23527,7.738222 -42.66996,5.187584 -59.59508,0.47918 z"/><path style="fill:#ffe6d5;fill-rule:evenodd;stroke:#000;stroke-width:1.32867074;stroke-linecap:butt;stroke-linejoin:miter;stroke-miterlimit:4;stroke-dasharray:none;stroke-opacity:1" id="path4426" d="m 51.559332,99.875728 c -5.559708,7.594252 -3.412948,15.602382 -2.056286,23.568082 27.415544,-8.57483 35.341136,2.70858 27.364293,9.01599 15.723844,8.74503 35.913401,-6.55678 46.028961,-15.18481 2.38787,-7.04133 -2.22453,-14.40731 -2.23693,-21.048536 l 8.24757,-64.68236 z"/><path style="fill:#faa;fill-rule:evenodd;stroke:#000;stroke-width:1.32867074;stroke-linecap:butt;stroke-linejoin:miter;stroke-miterlimit:4;stroke-dasharray:none;stroke-opacity:1" id="path4367" d="M 119.09016,94.031614 C 118.48134,99.347572 97.194708,106.05885 85.536153,111.14415 89.050488,90.700663 62.855195,100.89094 51.53476,100.18318 67.172949,73.642842 73.092,24.466927 100.07622,24.351133 c 9.76795,2.236934 30.27501,2.395023 29.24789,7.997037 -3.76983,20.561148 -7.87919,41.122296 -10.23395,61.683444 z"/><path style="fill:#ffe6d5;fill-rule:evenodd;stroke:#000;stroke-width:1.32867074;stroke-linecap:butt;stroke-linejoin:miter;stroke-miterlimit:4;stroke-dasharray:none;stroke-opacity:1" id="path4426-6" d="m 212.86907,93.383701 c 4.55179,7.611029 2.79423,15.636839 1.68349,23.620129 -22.44546,-8.59377 -35.73578,0.81645 -29.20503,7.13778 -12.87333,8.76434 -34.9389,1.81203 -43.22065,-6.83505 -1.95499,-7.05689 6.78625,-14.47172 6.79688,-21.127619 l -9.18705,-62.419927 z"/><path style="fill:#faa;fill-rule:evenodd;stroke:#000;stroke-width:1.32867074;stroke-linecap:butt;stroke-linejoin:miter;stroke-miterlimit:4;stroke-dasharray:none;stroke-opacity:1" id="path4369" d="M 150.85462,95.597461 C 147.44599,74.738599 143.2836,53.728982 138.3837,32.571863 c -1.56396,-6.752903 15.08066,-9.264631 22.98449,-13.365677 44.40893,12.843972 48.65368,62.542853 51.58051,73.626914 -4.52891,-1.841322 -42.42814,-9.495303 -34.91534,11.60025 -8.87317,-2.60976 -26.50845,-4.734087 -27.17874,-8.835889 z"/><path style="fill:#ffe680;fill-rule:evenodd;stroke:#000;stroke-width:.88578051;stroke-linecap:butt;stroke-linejoin:miter;stroke-miterlimit:4;stroke-dasharray:none;stroke-opacity:1" id="path4373" d="m 85.088763,141.00721 -4.138331,10.62543 c 14.021002,6.57742 26.503868,10.7312 37.809898,12.92852 2.25197,0.43766 3.898,2.58726 6.05944,2.87338 1.95816,0.25922 4.43957,-1.3318 6.32791,-1.19119 16.32101,1.21527 30.11316,-1.89701 42.74735,-7.56436 l -3.57911,-9.50697 c -12.04512,5.90317 -24.73712,7.84775 -36.9304,7.25427 -2.32734,-0.1132 -5.53129,1.5824 -7.81432,1.29406 -2.22396,-0.28087 -3.52837,-2.54148 -5.69536,-2.96995 -13.40873,-2.65125 -25.585943,-7.95341 -34.787077,-13.74319 z"/><path style="fill:#ccc;fill-rule:evenodd;stroke:#000;stroke-width:.88578051;stroke-linecap:butt;stroke-linejoin:miter;stroke-miterlimit:4;stroke-dasharray:none;stroke-opacity:1" id="path4375" d="m 118.93401,154.54697 -1.3356,11.6051 c -0.2235,1.94298 0.57041,2.42439 1.58126,2.60891 l 9.96503,1.82 c 1.93489,0.35319 3.68786,-0.15767 3.87529,-1.74042 l 1.42211,-12.02031 c 0.19779,-1.6703 0.11373,-2.5542 -1.34253,-2.76806 l -11.31099,-1.66084 c -1.82524,-0.268 -2.72757,1.05202 -2.85457,2.15562 z m 3.979,0.32807 8.13306,1.34306 c 1.11224,0.16582 1.17876,0.85022 1.02764,2.14525 l -1.03053,8.81814 c -0.14314,1.22716 -0.69769,1.62328 -2.17544,1.34944 L 120.92,166.8396 c -0.77204,-0.14314 -1.37834,-0.5177 -1.20756,-2.02415 l 1.02072,-8.26919 c 0.18337,-1.48547 0.98424,-1.86866 2.17985,-1.67122 z"/><path style="fill:#e6e6e6;fill-rule:evenodd;stroke:#000;stroke-width:.88578051;stroke-linecap:butt;stroke-linejoin:miter;stroke-miterlimit:4;stroke-dasharray:none;stroke-opacity:1" id="path4393" d="m 122.05428,160.51949 -3.82415,-0.45813 c -0.72125,0.68542 -0.85766,1.37085 -0.23726,2.05627 l 3.95437,0.39543 c 0.34159,-0.75736 0.42689,-1.61887 0.107,-1.99357 z"/><path style="fill:#faa;fill-rule:evenodd;stroke:#000;stroke-width:.88578051;stroke-linecap:butt;stroke-linejoin:miter;stroke-miterlimit:4;stroke-dasharray:none;stroke-opacity:1" id="path4395" d="m 92.919772,159.14739 c 0.316365,0.079 4.832304,1.86535 4.832304,1.86535 0.561993,-5.1799 2.089982,-9.24873 4.284294,-14.13187 l -4.606257,-1.52981 c -2.617056,4.7933 -3.527391,8.55738 -4.510341,13.79633 z"/><path style="fill:#faa;fill-rule:evenodd;stroke:#000;stroke-width:.81352675;stroke-linecap:butt;stroke-linejoin:miter;stroke-miterlimit:4;stroke-dasharray:none;stroke-opacity:1" id="path4395-6" d="m 160.77936,151.26933 c -0.29461,0.0739 -4.68177,1.03194 -4.68177,1.03194 1.84699,4.35642 2.51018,8.94259 2.88644,13.76768 l 4.71846,-1.05549 c 0.0106,-4.93616 -1.39503,-9.15913 -2.92313,-13.74413 z"/><circle style="opacity:1;fill:#1a1a1a;fill-opacity:1;stroke:#000;stroke-width:.44289026;stroke-linecap:round;stroke-linejoin:round;stroke-miterlimit:4;stroke-dasharray:none;stroke-dashoffset:0;stroke-opacity:1" id="path4412" cx="114.513" cy="159.073" r=".989"/><ellipse style="opacity:1;fill:#1a1a1a;fill-opacity:1;stroke:#000;stroke-width:.44289026;stroke-linecap:round;stroke-linejoin:round;stroke-miterlimit:4;stroke-dasharray:none;stroke-dashoffset:0;stroke-opacity:1" id="path4414" cx="106.96" cy="156.878" rx="1.028" ry="1.008"/><ellipse style="opacity:1;fill:#1a1a1a;fill-opacity:1;stroke:#000;stroke-width:.44289026;stroke-linecap:round;stroke-linejoin:round;stroke-miterlimit:4;stroke-dasharray:none;stroke-dashoffset:0;stroke-opacity:1" id="path4416" cx="99.961" cy="154.723" rx=".989" ry=".949"/><path style="fill:#ffe6d5;fill-rule:evenodd;stroke:#000;stroke-width:1.32867074;stroke-linecap:butt;stroke-linejoin:miter;stroke-miterlimit:4;stroke-dasharray:none;stroke-opacity:1" id="path4418" d="m 125.24172,31.956706 c 3.14809,0.422716 4.34795,-1.539926 3.69093,-3.914634 -8.02526,-3.642999 -12.04281,-6.477373 -15.32298,-13.086061 -12.88357,4.401314 -24.031434,9.285225 -27.402449,14.875609 13.756348,-1.228734 26.719339,0.471444 39.034499,2.125086 z"/><path style="fill:#ffe6d5;fill-rule:evenodd;stroke:#000;stroke-width:1.32867074;stroke-linecap:butt;stroke-linejoin:miter;stroke-miterlimit:4;stroke-dasharray:none;stroke-opacity:1" id="path4420" d="m 141.34764,27.035453 c -0.52833,1.70233 5.21496,5.437911 8.50034,4.138328 9.67255,-3.826122 12.81374,-11.754543 32.21185,-2.34878 -3.76972,-5.266955 -7.38349,-10.464593 -13.75714,-16.888849 -1.16617,-1.175424 -6.2644,-1.636701 -7.71742,-0.447388 -6.19504,5.070748 -17.78025,10.850878 -19.23763,15.546689 z"/><ellipse style="opacity:1;fill:#ffe6d5;fill-opacity:1;stroke:#000;stroke-width:.88578051;stroke-linecap:round;stroke-linejoin:round;stroke-miterlimit:4;stroke-dasharray:none;stroke-dashoffset:0;stroke-opacity:1" id="path4443" cx="131.778" cy="118.908" rx="7.043" ry="6.689"/><ellipse style="opacity:1;fill:#ffe6d5;fill-opacity:1;stroke:#000;stroke-width:.88578051;stroke-linecap:round;stroke-linejoin:round;stroke-miterlimit:4;stroke-dasharray:none;stroke-dashoffset:0;stroke-opacity:1" id="path4443-0" cx="133.966" cy="93.361" rx="6.734" ry="6.492"/><path style="fill:#000;fill-rule:evenodd;stroke:none;stroke-width:1px;stroke-linecap:butt;stroke-linejoin:miter;stroke-opacity:1" id="path4464" d="m 88.453666,156.93741 -0.419939,-0.23973 c -6.262153,11.29443 -15.263331,23.34331 -26.983895,29.38348 11.906934,-5.77295 21.21889,-17.65944 27.823773,-28.90402 l -0.419939,-0.23973 z"/><path style="fill:#000;fill-rule:evenodd;stroke:none;stroke-width:1px;stroke-linecap:butt;stroke-linejoin:miter;stroke-opacity:1" id="path4468" d="m 103.51985,162.43399 c -0.21309,-0.0703 -0.42618,-0.14057 -0.63924,-0.21092 -4.653062,14.11093 -14.343023,23.55224 -21.742534,35.40486 7.630971,-11.38426 17.887199,-20.85556 23.014384,-34.96389 -0.21085,-0.0767 -0.42173,-0.15341 -0.63261,-0.23005 z"/><path style="fill:#000;fill-rule:evenodd;stroke:none;stroke-width:1px;stroke-linecap:butt;stroke-linejoin:miter;stroke-opacity:1" id="path4472" d="m 152.47503,166.94196 c -0.17601,0.0325 -0.35199,0.0653 -0.52793,0.0983 0.92085,10.94738 5.72328,22.04164 12.07472,30.90399 -6.0733,-9.08522 -10.45894,-20.21915 -11.0105,-30.97621 -0.17876,-0.008 -0.35752,-0.0172 -0.53629,-0.0261 z"/><path style="fill:#000;fill-rule:evenodd;stroke:none;stroke-width:1px;stroke-linecap:butt;stroke-linejoin:miter;stroke-opacity:1" id="path4476" d="m 168.96479,162.90851 c -0.1777,0.0705 -0.35534,0.14129 -0.53292,0.21221 2.26286,6.92776 6.29765,14.4825 11.0911,19.00605 -4.50259,-4.77124 -8.14196,-12.4428 -9.99607,-19.33233 -0.18733,0.0382 -0.3747,0.0762 -0.56211,0.11407 z"/><path style="fill:#000;fill-rule:evenodd;stroke:none;stroke-width:1px;stroke-linecap:butt;stroke-linejoin:miter;stroke-opacity:1" id="path4480" d="m 134.70423,168.02944 c -0.0722,8.48201 0.13608,16.41322 0.37154,25.05096 0.17061,-8.64636 0.36862,-16.56206 0.84606,-25.01144 z"/><path style="fill:#ccc;fill-rule:evenodd;stroke:#000;stroke-width:.88578051;stroke-linecap:butt;stroke-linejoin:miter;stroke-miterlimit:4;stroke-dasharray:none;stroke-opacity:1" id="path4488-1" d="M 128.77259,30.488118 C 121.4148,30.367049 112.82266,43.853273 103.2273,53.818944 l 2.29355,4.191639 c 15.78076,-11.222085 10.02059,-21.419659 22.93539,-25.228926 z"/><path style="fill:#ffe6d5;fill-rule:evenodd;stroke:#000;stroke-width:.88578051;stroke-linecap:butt;stroke-linejoin:miter;stroke-miterlimit:4;stroke-dasharray:none;stroke-opacity:1" id="path4488" d="m 129.38147,30.278693 c -7.16996,-0.07687 -13.67131,14.622391 -26.25706,23.884438 l 2.68898,5.219777 c 15.78076,-11.222084 13.34226,-20.866046 26.25706,-24.675313 z"/><path style="fill:#ffe6d5;fill-rule:evenodd;stroke:#000;stroke-width:.88578051;stroke-linecap:butt;stroke-linejoin:miter;stroke-miterlimit:4;stroke-dasharray:none;stroke-opacity:1" id="path4490" d="m 132.70315,34.391246 c -4.23093,22.003655 -6.56666,25.888827 -8.84985,48.137006 l -4.27074,-3.321677 c 3.26834,-21.123729 5.33855,-24.333048 11.53883,-44.657156 z"/><path style="fill:#ffe6d5;fill-rule:evenodd;stroke:#000;stroke-width:.88578051;stroke-linecap:butt;stroke-linejoin:miter;stroke-miterlimit:4;stroke-dasharray:none;stroke-opacity:1" id="path4492" d="m 133.49403,34.865771 c 2.80362,14.503975 6.28525,29.346965 10.28138,44.447198 l 4.74525,-1.8981 C 143.0048,63.131799 138.6377,48.919752 136.02483,34.23307 Z"/><path style="fill:#fca;fill-rule:evenodd;stroke:#000;stroke-width:.88578051;stroke-linecap:butt;stroke-linejoin:miter;stroke-miterlimit:4;stroke-dasharray:none;stroke-opacity:1" id="path4496" d="m 149.86515,58.671122 c -5.02123,-0.695753 -7.67942,-6.411319 -7.49725,-12.092497 0.23401,-7.297864 -6.65942,-12.424643 -6.65942,-12.424643 9.83863,0.335134 12.16944,8.183686 12.57491,11.704957 0.54966,4.773376 -2.59144,7.670321 1.58176,12.812183 z"/><path style="fill:#ffe6d5;fill-rule:evenodd;stroke:#000;stroke-width:.88578051;stroke-linecap:butt;stroke-linejoin:miter;stroke-miterlimit:4;stroke-dasharray:none;stroke-opacity:1" id="path4494" d="m 131.12139,31.702269 c 13.96299,-3.148893 30.88846,8.667761 29.47485,18.217274 -1.72848,11.676702 -7.05672,9.852703 -11.44289,8.672491 3.00971,-2.043487 8.39665,-3.282182 7.27607,-9.490506 -3.12082,-17.290162 -19.7379,-13.037296 -24.2008,-15.342983 z"/><path style="fill:#ffe6d5;fill-rule:evenodd;stroke:#000;stroke-width:.88578051;stroke-linecap:butt;stroke-linejoin:miter;stroke-miterlimit:4;stroke-dasharray:none;stroke-opacity:1" id="path4498" d="m 129.30239,30.278693 c -0.0232,0.188758 0.44704,5.780763 1.50266,5.931565 1.95132,0.317813 3.52533,-0.496268 5.06161,-1.423575 -1.71575,0.142469 -3.05629,-0.295004 -3.79621,-1.660839 -0.30896,-1.869654 -1.66845,-2.163471 -2.76806,-2.847151 z"/><path style="fill:none;fill-rule:evenodd;stroke:#000;stroke-width:.88578051;stroke-linecap:butt;stroke-linejoin:miter;stroke-miterlimit:4;stroke-dasharray:none;stroke-opacity:1" id="path4502" d="m 76.392826,132.30162 c 4.203046,0.77429 6.970331,-12.60023 9.09507,-21.59088"/><path style="fill:#000;fill-rule:evenodd;stroke:none;stroke-width:1px;stroke-linecap:butt;stroke-linejoin:miter;stroke-opacity:1" id="path4504" d="m 86.476101,110.28748 c 2.260888,-11.222765 3.204624,-23.223956 1.384411,-34.533449 1.416538,11.344889 0.0605,23.25328 -2.569961,34.272709 z"/><path style="fill:#000;fill-rule:evenodd;stroke:none;stroke-width:1px;stroke-linecap:butt;stroke-linejoin:miter;stroke-opacity:1" id="path4508" d="m 178.64128,104.39308 c -4.35861,-11.002072 -4.42539,-23.16818 -6.42396,-34.855889 1.58291,11.572313 1.28756,24.02026 5.31994,35.272009 z"/><path style="fill:none;fill-rule:evenodd;stroke:#000;stroke-width:.88578051;stroke-linecap:butt;stroke-linejoin:miter;stroke-miterlimit:4;stroke-dasharray:none;stroke-opacity:1" id="path4512" d="m 184.85599,124.23021 c -2.80438,-2.72509 -4.27899,-14.47766 -6.90653,-20.4959"/></g></svg>