<svg xmlns="http://www.w3.org/2000/svg" xmlns:svg="http://www.w3.org/2000/svg" xmlns:xlink="http://www.w3.org/1999/xlink" id="svg4206" version="1.1" viewBox="0 0 256 256"><style id="style3">svg{cursor:default}</style><defs id="defs4208"><linearGradient id="innoGrad1"><stop style="stop-color:#241c1c;stop-opacity:1" id="stop4930" offset="0"/><stop style="stop-color:#483737;stop-opacity:1" id="stop4932" offset="1"/></linearGradient><linearGradient id="innoGrad2"><stop style="stop-color:#241c1c;stop-opacity:1" id="stop4920" offset="0"/><stop style="stop-color:#483737;stop-opacity:1" id="stop4922" offset="1"/></linearGradient><radialGradient id="radialGradient4926" cx="94.979" cy="109.82" r="85.129" fx="94.979" fy="109.82" gradientTransform="matrix(0.82139647,-0.49804414,0.1390167,0.22927252,4.571201,130.86842)" gradientUnits="userSpaceOnUse" xlink:href="#innoGrad2"/><radialGradient id="radialGradient4936" cx="148.135" cy="139.56" r="89.1" fx="148.135" fy="139.56" gradientTransform="matrix(0.86376566,-0.46902814,0.15805888,0.29108239,5.6659474,171.74853)" gradientUnits="userSpaceOnUse" xlink:href="#innoGrad1"/></defs><metadata id="metadata4211"/><g id="layer4"><path style="fill:#1a1a1a;fill-opacity:1;fill-rule:evenodd;stroke:#000;stroke-width:1.10000002px;stroke-linecap:butt;stroke-linejoin:miter;stroke-opacity:1" id="path4872" d="m 8.147598,159.1652 c 13.157467,20.22382 36.850342,17.66839 63.614356,8.47265 l -1.250063,-5.13914 C 52.463894,153.55918 26.308668,176.99949 8.147598,159.1652 Z"/><path style="fill:#241c1c;fill-opacity:1;fill-rule:evenodd;stroke:#000;stroke-width:1.10000002px;stroke-linecap:butt;stroke-linejoin:miter;stroke-opacity:1" id="path4870" d="m 4.2585117,147.63684 c 0.4969261,2.55491 2.0751544,9.02617 4.0279833,11.94505 18.50632,19.48321 48.12159,13.67079 63.753252,3.88908 L 187.87899,93.189612 c 1.70031,-6.759603 1.32272,-13.519208 1.25006,-20.278811 z"/><path style="fill:url(#radialGradient4926);fill-opacity:1;fill-rule:evenodd;stroke:#000;stroke-width:1.10000002px;stroke-linecap:butt;stroke-linejoin:miter;stroke-opacity:1" id="path4874" d="m 18.425901,122.07998 c -37.305579,19.94339 -0.20396,52.10724 32.640553,39.58534 47.639638,-18.16249 84.808146,-49.7584 127.367606,-75.142713 28.33767,-16.901825 -5.7781,-42.899801 -38.19639,-29.029259 -8.83308,3.77933 -70.39166,37.09767 -121.811769,64.586632 z"/><path style="fill:#f55;fill-opacity:1;fill-rule:evenodd;stroke:#000;stroke-width:1.10000002px;stroke-linecap:butt;stroke-linejoin:miter;stroke-opacity:1" id="path4876" d="m 36.621273,139.30307 c 0.661326,2.06459 7.278514,0.7179 7.361487,-0.27778 -0.06489,-2.62423 0.9332,-5.64477 1.764966,-8.08966 -2.114456,-3.44944 -3.611571,-3.32077 -4.681782,-2.60533 -5.149373,1.82368 -4.698074,6.4477 -4.444671,10.97277 z"/><path style="fill:#faa;fill-opacity:1;fill-rule:evenodd;stroke:#000;stroke-width:1.10000002px;stroke-linecap:butt;stroke-linejoin:miter;stroke-opacity:1" id="path4878" d="m 52.455414,117.9131 c -6.164443,-3.2362 -11.821249,-3.65745 -12.222845,10.4172 2.975193,-0.5569 4.13002,1.46213 5.208599,3.68074 1.859554,-4.69931 4.228937,-9.39863 7.014246,-14.09794 z"/><path style="fill:#ff8080;fill-opacity:1;fill-rule:evenodd;stroke:#000;stroke-width:1.10000002px;stroke-linecap:butt;stroke-linejoin:miter;stroke-opacity:1" id="path4884" d="m 41.53771,119.89412 c 2.011592,-2.30075 7.320041,-2.77946 11.692435,-3.89981 C 59.10991,85.472502 104.39156,71.26057 128.36407,71.012176 116.6686,58.213858 52.799629,70.364555 41.53771,119.89412 Z"/><path style="fill:#f95;fill-opacity:1;fill-rule:evenodd;stroke:#000;stroke-width:1.10000002px;stroke-linecap:butt;stroke-linejoin:miter;stroke-opacity:1" id="path4880" d="m 50.788662,117.49641 c 2.970554,-26.629629 34.972544,-49.073131 69.582798,-49.535312 12.90543,-0.172337 10.77008,11.665027 -1.65977,10.678139 -26.014713,-2.065481 -65.992341,25.444673 -62.783955,37.648113 0.824287,3.13528 -3.60275,-0.59848 -5.139073,1.20906 z"/><path style="fill:#f95;fill-opacity:1;fill-rule:evenodd;stroke:#000;stroke-width:1.10000002px;stroke-linecap:butt;stroke-linejoin:miter;stroke-opacity:1" id="path4882" d="m 50.927558,117.63531 c 34.830801,-0.89665 67.456932,-12.50168 99.727312,-25.834657 -3.78802,-8.390638 -28.09564,7.686742 -50.943978,14.284477 -25.747624,7.43494 -48.40981,6.11955 -48.783334,11.55018 z"/><path style="fill:#ff8080;fill-opacity:1;fill-rule:evenodd;stroke:#000;stroke-width:1.10000002px;stroke-linecap:butt;stroke-linejoin:miter;stroke-opacity:1" id="path4886" d="m 52.346216,116.97646 c -5.167618,3.48921 -7.190635,8.57504 -6.727679,13.45535 35.288867,2.80873 71.095763,-7.96744 106.906253,-25.24106 5.62011,-2.71093 1.25762,-19.531114 -8.34822,-14.339289 C 106.5221,111.20318 63.100901,115.46516 52.346216,116.97646 Z"/><path style="fill:#1a1a1a;fill-rule:evenodd;stroke:#000;stroke-width:1.10000002px;stroke-linecap:butt;stroke-linejoin:miter;stroke-opacity:1" id="path4783" d="m 248.67657,125.42289 c -0.0131,8.81941 -12.09967,15.97353 -22.39285,23.375 l -10.01787,-6.67858 z"/><path style="fill:#1a1a1a;fill-rule:evenodd;stroke:#000;stroke-width:1.10000002px;stroke-linecap:butt;stroke-linejoin:miter;stroke-opacity:1" id="path4781" d="m 64.263847,198.11976 c 5.209804,12.15035 22.30556,19.2647 31.950453,19.04515 27.25047,-0.62031 63.36768,-23.31287 83.61406,-37.82238 l -0.19643,-4.91072 z"/><path style="fill:#241c1c;fill-rule:evenodd;stroke:#000;stroke-width:1.10000002px;stroke-linecap:butt;stroke-linejoin:miter;stroke-opacity:1" id="path4779" d="m 59.239513,185.0404 c -0.01246,2.82479 2.665315,11.0773 7.548292,16.71593 7.187222,8.29946 16.685638,13.32967 28.847081,13.66454 20.991574,0.57803 54.639844,-19.86053 82.638894,-37.38882 4.4098,-2.76067 39.87433,-41.91149 48.40279,-33.16274 12.88489,-4.88139 17.78617,-11.65148 22.29464,-19.44641 1.18263,-6.71266 3.45194,-13.78756 3.24108,-20.03572 z"/><path style="fill:url(#radialGradient4936);fill-opacity:1;fill-rule:evenodd;stroke:#000;stroke-width:1.10000002px;stroke-linecap:butt;stroke-linejoin:miter;stroke-opacity:1" id="path4777" d="m 77.226558,153.87728 c -49.560149,32.40301 9.797714,65.12037 41.898922,47.6512 44.55396,-24.24585 80.37048,-48.39096 124.64723,-82.14505 C 273.40738,96.791624 225.51922,70.113623 199.88157,82.552156 155.83989,103.91971 116.15932,128.42259 77.226558,153.87728 Z"/><path style="fill:#f55;fill-rule:evenodd;stroke:#000;stroke-width:1.10000002px;stroke-linecap:butt;stroke-linejoin:miter;stroke-opacity:1" id="path4785" d="m 97.033716,178.45861 c 0.876683,0.34535 7.113404,-1.47239 7.267854,-2.55358 0.6739,-5.9862 1.69354,-12.13086 -3.73214,-15.32142 -5.074739,3.3665 -9.130887,6.55857 -3.535714,17.875 z"/><path style="fill:#f95;fill-rule:evenodd;stroke:#000;stroke-width:1.10000002px;stroke-linecap:butt;stroke-linejoin:miter;stroke-opacity:1" id="path4789" d="m 104.79265,150.27111 c -3.97184,-24.36796 34.02308,-66.25986 80.04464,-52.151792 4.94913,0.685529 5.8286,10.206772 -4.91072,9.232142 -36.75403,-3.33555 -58.16845,13.51594 -66.19642,42.42857 z"/><path style="fill:#f95;fill-rule:evenodd;stroke:#000;stroke-width:1.10000002px;stroke-linecap:butt;stroke-linejoin:miter;stroke-opacity:1" id="path4791" d="m 111.60313,149.44676 -1.60513,1.51185 c 41.6954,14.1177 89.60835,-17.49679 98.01785,-29.66072 -7.54722,-3.81997 -47.33985,36.57391 -96.41272,28.14887 z"/><path style="fill:#ff8080;fill-rule:evenodd;stroke:#000;stroke-width:1.10000002px;stroke-linecap:butt;stroke-linejoin:miter;stroke-opacity:1" id="path4793" d="m 206.9891,121.51741 c 6.67217,-3.98805 15.86482,9.28999 7.83571,14.86885 -31.66137,21.99923 -74.69143,40.71569 -111.25568,28.47367 -3.43981,-3.10975 -0.94121,-9.47834 5.55584,-14.44517 40.40455,6.77431 68.63321,-11.42561 97.86413,-28.89735 z"/><path style="fill:#ff8080;fill-rule:evenodd;stroke:#000;stroke-width:1.10000002px;stroke-linecap:butt;stroke-linejoin:miter;stroke-opacity:1" id="path4795" d="m 105.79147,148.33131 c 8.93596,-25.86238 32.40947,-64.179568 82.36531,-48.19689 -0.99301,-7.021573 -40.62246,-10.097801 -59.48815,4.48534 -19.60148,15.15192 -28.829223,35.7148 -29.960857,46.90616 z"/><path style="fill:none;fill-rule:evenodd;stroke:#000;stroke-width:1.10000002px;stroke-linecap:butt;stroke-linejoin:miter;stroke-opacity:1" id="path4797" d="m 226.07538,148.95634 0.34725,-4.72245"/><path style="fill:#faa;fill-rule:evenodd;stroke:#000;stroke-width:1.10000002px;stroke-linecap:butt;stroke-linejoin:miter;stroke-opacity:1" id="path4787" d="m 111.96229,149.58361 c -10.92327,-2.60478 -18.30765,2.21074 -14.142859,12.57142 0,0 2.729609,3.32071 5.696419,2.45536 -1.01651,-4.00791 4.28376,-16.26017 8.44644,-15.02678 z"/></g></svg>