<svg xmlns="http://www.w3.org/2000/svg" xmlns:svg="http://www.w3.org/2000/svg" xmlns:xlink="http://www.w3.org/1999/xlink" id="svg4206" version="1.1" viewBox="0 0 256 256"><style id="style3">svg{cursor:default}</style><defs id="defs4208"><linearGradient id="innoGrad4"><stop id="stop4355" offset="0" style="stop-color:#ff8080;stop-opacity:1"/><stop id="stop4357" offset="1" style="stop-color:#faa;stop-opacity:1"/></linearGradient><linearGradient id="innoGrad1"><stop style="stop-color:#ff8080;stop-opacity:1" id="stop4609" offset="0"/><stop style="stop-color:#faa;stop-opacity:1" id="stop4611" offset="1"/></linearGradient><linearGradient id="innoGrad3"><stop style="stop-color:#ff8080;stop-opacity:1" id="stop4599" offset="0"/><stop style="stop-color:#faa;stop-opacity:1" id="stop4601" offset="1"/></linearGradient><linearGradient id="innoGrad2"><stop style="stop-color:#ff8080;stop-opacity:1" id="stop4589" offset="0"/><stop style="stop-color:#faa;stop-opacity:1" id="stop4591" offset="1"/></linearGradient><linearGradient id="linearGradient4593" x1="380.357" x2="365.893" y1="75.107" y2="72.786" gradientTransform="translate(-260,-12.857143)" gradientUnits="userSpaceOnUse" xlink:href="#innoGrad3"/><linearGradient id="linearGradient4595" x1="351.25" x2="344.643" y1="108.143" y2="108.679" gradientTransform="translate(-260,-12.857143)" gradientUnits="userSpaceOnUse" xlink:href="#innoGrad2"/><radialGradient id="radialGradient4605" cx="422.003" cy="110.1" r="38.26" fx="422.003" fy="110.1" gradientTransform="matrix(0.18307476,-0.00774546,0.04163661,0.98413957,76.793992,10.425008)" gradientUnits="userSpaceOnUse" xlink:href="#innoGrad1"/><linearGradient id="linearGradient4613" x1="385.878" x2="384.006" y1="109.78" y2="138.205" gradientTransform="translate(-260,-12.857143)" gradientUnits="userSpaceOnUse" xlink:href="#innoGrad4"/></defs><metadata id="metadata4211"/><g id="layer4"><path style="fill:#f55;fill-rule:evenodd;stroke:#000;stroke-width:.5;stroke-linecap:butt;stroke-linejoin:miter;stroke-miterlimit:4;stroke-dasharray:none;stroke-opacity:1" id="path4441-65" d="m 175.71914,102.82111 c 0.53205,1.71118 2.31353,3.97695 3.6177,6.78725 -5.07711,6.11281 -12.37488,-1.56199 -20.29451,-3.25966 z"/><path style="fill:#f55;fill-rule:evenodd;stroke:#000;stroke-width:.5;stroke-linecap:butt;stroke-linejoin:miter;stroke-miterlimit:4;stroke-dasharray:none;stroke-opacity:1" id="path4441" d="m 77.867492,106.74053 c -0.53838,1.71079 -2.34103,3.97605 -3.6607,6.78572 5.13745,6.11143 12.52196,-1.56164 20.53571,-3.25893 z"/><path style="fill:#ff8080;fill-rule:evenodd;stroke:#000;stroke-width:.5;stroke-linecap:butt;stroke-linejoin:miter;stroke-miterlimit:4;stroke-dasharray:none;stroke-opacity:1" id="path4439" d="m 75.278212,105.80303 c 0,0 -1.41852,8.04862 -1.07143,7.76786 2.83031,-2.28945 8.53743,-6.1757 7.58929,-7.14286 z"/><path style="fill:url(#linearGradient4595);fill-opacity:1;fill-rule:evenodd;stroke:#000;stroke-width:.5;stroke-linecap:butt;stroke-linejoin:miter;stroke-miterlimit:4;stroke-dasharray:none;stroke-opacity:1" id="path4437" d="m 86.974642,36.695889 c -7.42042,24.702858 -18.84816,66.267341 -18.11866,67.683991 1.21789,2.36507 21.64186,7.36104 25.52937,6.69101 -0.26474,-0.35946 -7.41071,-74.375001 -7.41071,-74.375001 z"/><path style="fill:url(#linearGradient4593);fill-opacity:1;fill-rule:evenodd;stroke:#000;stroke-width:.5;stroke-linecap:butt;stroke-linejoin:miter;stroke-miterlimit:4;stroke-dasharray:none;stroke-opacity:1" id="path4435" d="m 112.83144,10.397144 c -9.4116,5.437549 -16.776318,2.15854 -21.009218,11.787573 -11.21939,25.521949 -5.75612,37.196418 -3.24044,55.225457 2.5,17.916663 1.48634,27.577626 7.5,53.749996 L 125.18892,45.803032 Z"/><path style="fill:#ffd42a;fill-rule:evenodd;stroke:#000;stroke-width:.5;stroke-linecap:butt;stroke-linejoin:miter;stroke-miterlimit:4;stroke-dasharray:none;stroke-opacity:1" id="path4483" d="m 114.45092,9.1662752 23.86485,0.12627 L 125.752,27.349021 Z"/><path style="fill:#ff8080;fill-rule:evenodd;stroke:#000;stroke-width:.5;stroke-linecap:butt;stroke-linejoin:miter;stroke-miterlimit:4;stroke-dasharray:none;stroke-opacity:1" id="path4481" d="M 136.83211,4.5890222 136.3586,13.9645 c 3.01074,-4.6415548 -20.48421,-2.512824 -21.15007,-1.641498 0.0631,-0.252538 0.25253,-6.8500968 0.25253,-6.8500968 1.4399,-1.489144 15.51238,-3.386514 21.37105,-0.883883 z"/><path style="fill:#ffe680;fill-rule:evenodd;stroke:#000;stroke-width:.5;stroke-linecap:butt;stroke-linejoin:miter;stroke-miterlimit:4;stroke-dasharray:none;stroke-opacity:1" id="path4477" d="m 115.87144,9.5450832 c 1.77709,-0.82581 13.54708,20.0481958 13.41609,20.1714828 0,0 -5.42957,5.208599 -5.42957,4.892927 0,-0.315673 -7.98652,-25.0644098 -7.98652,-25.0644098 z"/><path style="fill:#ff8080;fill-rule:evenodd;stroke:#000;stroke-width:.5;stroke-linecap:butt;stroke-linejoin:miter;stroke-miterlimit:4;stroke-dasharray:none;stroke-opacity:1" id="path4439-5" d="m 178.278,101.8834 c 0,0 1.40186,8.05043 1.05885,7.76961 -2.79707,-2.28997 -8.43715,-6.17709 -7.50015,-7.14447 z"/><path style="fill:url(#radialGradient4605);fill-opacity:1;fill-rule:evenodd;stroke:#000;stroke-width:.5;stroke-linecap:butt;stroke-linejoin:miter;stroke-miterlimit:4;stroke-dasharray:none;stroke-opacity:1" id="path4427" d="m 139.30056,9.0218042 c 12.6174,2.9469938 24.4322,8.8522578 27.45403,17.2168238 2.41892,6.695673 2.41952,9.992592 4.23791,14.564404 0.14785,0.371728 1.07948,2.327149 1.25541,3.186275 4.05784,19.815399 12.35188,47.00186 14.36959,58.599443 -8.53258,4.0676 -15.5587,5.26224 -24.88534,7.58293 -0.47904,11.52564 -0.0763,23.41435 -3.2378,33.83544 l -7.68044,-51.239803 -40.08928,-0.625 z"/><path style="fill:#000;fill-rule:evenodd;stroke:none;stroke-width:.5;stroke-linecap:butt;stroke-linejoin:miter;stroke-miterlimit:4;stroke-dasharray:none;stroke-opacity:1" id="path4473" d="m 157.02502,122.55584 c 0.90252,-9.43379 2.60705,-19.34794 1.37819,-28.895663 0.89355,9.548373 -1.13625,19.370513 -2.37181,28.782903 z"/><path style="fill:url(#linearGradient4613);fill-opacity:1;fill-rule:evenodd;stroke:#000;stroke-width:.5;stroke-linecap:butt;stroke-linejoin:miter;stroke-miterlimit:4;stroke-dasharray:none;stroke-opacity:1" id="path4429" d="m 153.40321,99.642317 c 7.4126,26.501753 6.1555,53.453103 6.42857,81.071433 0.14731,14.8989 2.85714,12.69488 5.89286,65.2544 -10.96416,7.22919 -27.60415,6.59588 -33.75,6.17417 -7.88118,2.11579 -20.18824,2.07212 -22.1099,-0.063 -13.249198,1.11363 -19.838508,-0.64476 -19.899028,-7.39239 1.91964,-41.26488 1.47976,-83.30285 5.75893,-123.79464 0.78472,-7.42539 2.15388,-14.74429 4.0016,-21.995863 z"/><path style="fill:#ffe680;fill-rule:evenodd;stroke:#000;stroke-width:.5;stroke-linecap:butt;stroke-linejoin:miter;stroke-miterlimit:4;stroke-dasharray:none;stroke-opacity:1" id="path4479" d="m 122.81624,29.874402 c 4.46879,-6.722433 8.72464,-18.052758 12.59534,-20.1399158 -2.28099,8.6668878 -5.94388,17.2350688 -9.34391,25.8220248 z"/><path style="fill:none;fill-rule:evenodd;stroke:#000;stroke-width:.25;stroke-linecap:butt;stroke-linejoin:miter;stroke-miterlimit:4;stroke-dasharray:none;stroke-opacity:1" id="path4455" d="m 116.6175,33.12446 -0.35715,27.321429"/><path style="fill:#000;fill-rule:evenodd;stroke:none;stroke-width:1px;stroke-linecap:butt;stroke-linejoin:miter;stroke-opacity:1" id="path4505" d="m 112.20982,18.500001 c -0.11237,-0.01221 -0.22475,-0.02435 -0.33714,-0.03641 -0.62676,4.528217 -0.55436,11.287929 1.52018,15.572124 -1.85614,-4.34915 -1.68638,-11.062676 -0.85189,-15.46277 -0.1104,-0.02425 -0.22078,-0.04856 -0.33115,-0.07294 z"/><path style="fill:#faa;fill-rule:evenodd;stroke:#000;stroke-width:.5;stroke-linecap:butt;stroke-linejoin:miter;stroke-miterlimit:4;stroke-dasharray:none;stroke-opacity:1" id="path4433" d="m 122.15321,50.088746 c -3.60119,-12.797619 -11.62219,-27.142884 -10.70887,-38.235021 0.53863,-2.0963508 2.80241,-5.9691888 4.01244,-6.4524788 l 12.14286,30.9374998 z"/><path style="fill:none;fill-rule:evenodd;stroke:#000;stroke-width:.25;stroke-linecap:butt;stroke-linejoin:miter;stroke-miterlimit:4;stroke-dasharray:none;stroke-opacity:1" id="path4449" d="m 134.75627,31.150008 c 0,0 -4.92101,76.270112 -4.94588,77.395992 -0.36395,16.47556 -4.00637,144.67595 -4.00637,144.67595"/><path style="fill:#faa;fill-rule:evenodd;stroke:#000;stroke-width:.5;stroke-linecap:butt;stroke-linejoin:miter;stroke-miterlimit:4;stroke-dasharray:none;stroke-opacity:1" id="path4431" d="M 106.43892,90.178027 C 111.8552,56.002965 126.65,35.161675 136.82764,4.5143492 c 0.20534,2.235278 4.20575,3.365773 5.59342,9.7708258 -0.26322,1.021614 -28.86594,74.321042 -28.30356,79.375002 -3.21427,0.53572 -7.67858,-3.48215 -7.67858,-3.48215 z"/><path style="fill:none;fill-rule:evenodd;stroke:#000;stroke-width:.25;stroke-linecap:butt;stroke-linejoin:miter;stroke-miterlimit:4;stroke-dasharray:none;stroke-opacity:1" id="path4451" d="m 99.117492,252.18696 5.518238,-120.27183 c 3.13421,-12.30171 2.92607,-19.3872 6.97413,-27.41571"/><path style="fill:#000;fill-rule:evenodd;stroke:none;stroke-width:.5;stroke-linecap:butt;stroke-linejoin:miter;stroke-miterlimit:4;stroke-dasharray:none;stroke-opacity:1" id="path4457" d="m 154.26048,88.576307 c 0.12181,0.03006 0.24364,0.06005 0.3655,0.08997 3.04816,-9.701052 2.42233,-20.305622 0.83792,-30.302213 -0.79836,-4.828157 -2.67604,-9.346891 -3.2214,-14.168171 0.41593,4.785386 2.19139,9.482469 2.85002,14.224685 1.46116,10.018293 1.9363,20.507222 -1.1816,30.016182 0.11654,0.04644 0.23307,0.09296 0.34956,0.139551 z"/><path style="fill:#000;fill-rule:evenodd;stroke:none;stroke-width:1px;stroke-linecap:butt;stroke-linejoin:miter;stroke-opacity:1" id="path4485" d="m 99.666292,85.933037 c 0.119698,-0.04002 0.239412,-0.07999 0.359138,-0.1199 -3.325394,-12.962268 -2.935086,-28.044184 -3.061148,-41.59885 -0.125539,13.498442 -0.774007,28.671126 2.328277,41.779521 0.124589,-0.0202 0.249167,-0.04046 0.373733,-0.06077 z"/><path style="fill:#ffb380;fill-rule:evenodd;stroke:#000;stroke-width:.5;stroke-linecap:butt;stroke-linejoin:miter;stroke-miterlimit:4;stroke-dasharray:none;stroke-opacity:1" id="path4447" d="m 99.296072,84.731603 c -0.0789,6.094274 6.4e-4,12.188554 -0.63398,18.282837 18.713878,7.88073 48.332578,5.56417 55.745588,0.64574 -0.58803,-5.608013 -0.38511,-11.254303 0.4241,-16.517863 -5.84184,7.70726 -55.193378,3.30364 -55.535708,-2.410714 z"/><path style="fill:none;fill-rule:evenodd;stroke:#000;stroke-width:.25;stroke-linecap:butt;stroke-linejoin:miter;stroke-miterlimit:4;stroke-dasharray:none;stroke-opacity:1" id="path4453" d="m 104.60192,131.86824 c -3.75934,-0.36797 -6.615228,-2.43462 -9.501738,-4.07217"/><path style="fill:#000;fill-rule:evenodd;stroke:none;stroke-width:.5;stroke-linecap:butt;stroke-linejoin:miter;stroke-miterlimit:4;stroke-dasharray:none;stroke-opacity:1" id="path4461" d="m 155.61125,82.637683 c 0.14098,-0.03957 0.28195,-0.07999 0.4229,-0.121239 8.70745,-16.914189 3.26673,-37.165795 -1.02378,-55.016984 4.11199,18.017509 9.25249,38.104794 0.46059,54.723086 0.0476,0.137734 0.0943,0.276113 0.14029,0.415137 z"/><path style="fill:#000;fill-rule:evenodd;stroke:none;stroke-width:.5;stroke-linecap:butt;stroke-linejoin:miter;stroke-miterlimit:4;stroke-dasharray:none;stroke-opacity:1" id="path4465" d="m 161.85425,110.21053 c 1e-5,0 0.37336,-0.0192 0.37337,-0.0192 -0.64123,-13.790048 0.88662,-26.883953 0.43849,-41.057307 -0.3655,-11.152875 -2.39404,-20.989386 -2.3879,-31.188134 -0.1305,10.159606 1.77541,20.121341 2.01418,31.198288 0.31434,13.836883 -1.31906,27.509088 -0.8118,41.078473 -1e-5,1e-5 0.37367,-0.0121 0.37366,-0.0121 z"/><path style="fill:#000;fill-rule:evenodd;stroke:none;stroke-width:.5;stroke-linecap:butt;stroke-linejoin:miter;stroke-miterlimit:4;stroke-dasharray:none;stroke-opacity:1" id="path4469" d="m 162.28714,83.057496 c 0.13085,-0.126722 0.26174,-0.253548 0.3927,-0.380505 4.34112,-16.064667 9.28631,-33.651821 6.52694,-50.534674 2.57188,16.880664 -2.54854,34.394605 -7.06148,50.387033 0.0472,0.176202 0.0945,0.352258 0.14184,0.528146 z"/><path style="fill:#000;fill-rule:evenodd;stroke:none;stroke-width:1px;stroke-linecap:butt;stroke-linejoin:miter;stroke-opacity:1" id="path4489" d="m 96.912912,59.973295 c 0.01632,-0.28152 0.03456,-0.564109 0.05463,-0.847522 -2.309992,-8.23242 -3.124481,-18.757369 -3.217543,-27.143629 -0.0929,8.371734 0.532664,18.949389 2.678772,27.288495 0.160244,0.237856 0.32163,0.472147 0.484138,0.702656 z"/><path style="fill:#000;fill-rule:evenodd;stroke:none;stroke-width:1px;stroke-linecap:butt;stroke-linejoin:miter;stroke-opacity:1" id="path4493" d="m 90.915182,24.147323 c -0.125065,0.13992 -0.250029,0.280163 -0.374887,0.420727 -2.492751,11.003987 -4.290452,22.62721 -4.201013,33.931951 0.08938,-11.297252 2.063768,-22.877445 4.723258,-33.809286 -0.04931,-0.181083 -0.09843,-0.362215 -0.147358,-0.543392 z"/><path style="fill:#000;fill-rule:evenodd;stroke:none;stroke-width:1px;stroke-linecap:butt;stroke-linejoin:miter;stroke-opacity:1" id="path4497" d="m 94.002312,41.90752 c -0.01498,-0.280971 -0.02419,-0.564232 -0.02803,-0.849225 -1.669426,-6.213804 -0.808442,-14.900252 0.936428,-20.951151 -1.869462,5.997456 -2.888466,14.720151 -1.327767,21.051897 0.135686,0.256881 0.27548,0.506543 0.419367,0.748479 z"/><path style="fill:#000;fill-rule:evenodd;stroke:none;stroke-width:1px;stroke-linecap:butt;stroke-linejoin:miter;stroke-opacity:1" id="path4501" d="m 111.58482,11.312501 c -0.19578,-0.01472 -0.39328,-0.02532 -0.5924,-0.03177 -5.76288,3.104549 -9.51599,9.89446 -10.63528,16.594266 1.31801,-6.702317 5.24246,-13.242372 10.90514,-16.074991 0.10326,-0.163578 0.21073,-0.326148 0.32254,-0.487509 z"/><path style="fill:#000;fill-rule:evenodd;stroke:none;stroke-width:1px;stroke-linecap:butt;stroke-linejoin:miter;stroke-opacity:1" id="path4509" d="m 153.70536,14.013394 c 0.18304,0.191345 0.37743,0.401014 0.57816,0.62414 1.31191,0.934572 2.92644,2.370818 4.33126,3.968412 1.6604,1.888232 3.02911,4.002208 3.26022,5.786912 -0.16733,-1.803086 -1.48571,-3.966603 -3.11115,-5.914595 -1.37211,-1.64439 -2.96308,-3.136034 -4.26516,-4.132035 -0.27788,-0.130202 -0.54374,-0.242007 -0.79333,-0.332834 z"/><path style="fill:#000;fill-rule:evenodd;stroke:none;stroke-width:1px;stroke-linecap:butt;stroke-linejoin:miter;stroke-opacity:1" id="path4513" d="m 159.10714,33.232144 c -0.57902,-2.603214 -1.80855,-5.851223 -3.48981,-8.785829 -1.6721,-2.57989 -3.69136,-4.858197 -5.88519,-6.124885 2.08524,1.407001 3.94384,3.780932 5.43382,6.401218 1.80394,2.797288 3.19148,5.951447 3.94118,8.509496 z"/><path style="fill:#fca;fill-rule:evenodd;stroke:#000;stroke-width:.25;stroke-linecap:butt;stroke-linejoin:miter;stroke-miterlimit:4;stroke-dasharray:none;stroke-opacity:1" id="path4553" d="m 99.424902,87.816117 c 11.246618,5.98511 46.346878,7.26808 54.915228,1.97745 l -0.12664,1.1769 c -8.11167,4.84321 -45.1813,4.15147 -54.788628,-2.20733 z"/><path style="fill:#fca;fill-rule:evenodd;stroke:#000;stroke-width:.25;stroke-linecap:butt;stroke-linejoin:miter;stroke-miterlimit:4;stroke-dasharray:none;stroke-opacity:1" id="path4553-7" d="m 99.129822,99.154367 c 11.153208,6.312033 46.224338,7.716923 54.935168,1.927613 l 0.0394,1.22323 c -8.25952,5.21283 -39.90524,5.2207 -55.037758,-1.63562 z"/><path style="fill:#f95;fill-rule:evenodd;stroke:#000;stroke-width:.25;stroke-linecap:butt;stroke-linejoin:miter;stroke-miterlimit:4;stroke-dasharray:none;stroke-opacity:1" id="path4553-8" d="m 99.302852,93.677467 c 11.246618,5.98511 46.118248,7.375523 54.686598,2.08489 l -0.004,1.42244 c -8.11167,4.843213 -45.10701,4.366693 -54.714338,-1.99211 z"/></g></svg>