<svg xmlns="http://www.w3.org/2000/svg" xmlns:svg="http://www.w3.org/2000/svg" xmlns:xlink="http://www.w3.org/1999/xlink" id="svg4206" version="1.1" viewBox="0 0 256 256"><style id="style3">svg{cursor:default}</style><defs id="defs4208"><linearGradient id="linearGradient0"><stop style="stop-color:#ff8080;stop-opacity:1" id="stop4222" offset="0"/><stop style="stop-color:#f55;stop-opacity:1" id="stop4224" offset="1"/></linearGradient><linearGradient id="linearGradient1" x1="103.929" x2="99.643" y1="873.434" y2="1058.076" gradientTransform="matrix(1.2155062,0,0,1.2155062,-25.258128,-158.9182)" gradientUnits="userSpaceOnUse" xlink:href="#linearGradient0"/></defs><metadata id="metadata4211"/><g id="layer1" transform="translate(0,-796.36216)" style="display:inline"><path style="fill:url(#linearGradient1);fill-opacity:1;fill-rule:evenodd;stroke:#000;stroke-width:1.2155062px;stroke-linecap:butt;stroke-linejoin:miter;stroke-opacity:1" id="path4199" d="M 46.263941,855.01965 C 16.332799,933.87182 20.622618,955.7769 16.181697,1019.858 c 26.256402,11.8814 61.565638,4.3029 124.012513,7.3671 42.06994,3.3379 94.20132,-1.4472 102.21824,-5.5252 -1.73945,-48.80694 -0.61172,-11.197 -4.11765,-74.13583 -1.87843,-33.72165 -9.9097,-52.14925 -19.5184,-90.39569 z"/><path style="fill:none;fill-rule:evenodd;stroke:#000;stroke-width:.6077531;stroke-linecap:butt;stroke-linejoin:miter;stroke-miterlimit:4;stroke-dasharray:none;stroke-opacity:1" id="path4203" d="m 213.59199,856.54106 c 8.47613,41.1218 18.2675,75.91022 24.14214,166.32024"/><path style="display:inline;fill:none;fill-rule:evenodd;stroke:#000;stroke-width:.6077531;stroke-linecap:butt;stroke-linejoin:miter;stroke-miterlimit:4;stroke-dasharray:3.6465186,.6077531;stroke-dashoffset:0;stroke-opacity:1" id="path4203-9" d="m 210.52473,856.51545 c 5.08327,34.8718 16.03802,60.28584 23.51977,167.12435"/><path style="fill:#faa;fill-rule:evenodd;stroke:#000;stroke-width:1.2155062px;stroke-linecap:butt;stroke-linejoin:miter;stroke-opacity:1" id="path4201" d="m 48.652104,840.89293 c -1.430559,6.82206 -2.205337,9.19991 -2.822272,14.74065 14.613305,6.18636 114.634078,-0.43173 173.306188,3.15952 1.12935,-1.79845 -3.42802,-13.01668 -4.51851,-18.04121 -5.41965,-2.15304 -165.050274,-2.0233 -165.965406,0.14104 z"/></g></svg>