<svg xmlns="http://www.w3.org/2000/svg" xmlns:svg="http://www.w3.org/2000/svg" id="svg4206" version="1.1" viewBox="0 0 256 256"><style id="style3">svg{cursor:default}</style><metadata id="metadata4211"/><g id="layer4"><path style="fill:#ff2a2a;fill-rule:evenodd;stroke:#000;stroke-width:1px;stroke-linecap:butt;stroke-linejoin:miter;stroke-opacity:1" id="path4679" d="m 128.66071,243.94643 c -0.26359,3.4781 28.92284,6.82716 48.45983,4.7991 -7.03807,-25.68146 -36.22357,-14.96536 -48.45983,-4.7991 z"/><path style="fill:#ff2a2a;fill-rule:evenodd;stroke:#000;stroke-width:1px;stroke-linecap:butt;stroke-linejoin:miter;stroke-opacity:1" id="path4677" d="m 66.785714,249.03572 c 0.77099,4.50915 48.919206,-1.08997 48.125006,-4.64286 -4.60081,-7.46091 -44.788026,-5.63306 -48.125006,4.64286 z"/><path style="fill:#ff8080;fill-rule:evenodd;stroke:#000;stroke-width:1px;stroke-linecap:butt;stroke-linejoin:miter;stroke-opacity:1" id="path4563" d="m 128.79445,244.00444 c 3.65914,0.10014 7.38594,2.14179 10.98541,0.25254 26.25845,-13.78227 23.08427,-1.42918 37.50191,4.16688 -0.0135,-3.86271 0.52201,-7.54244 -0.12627,-11.61676 1.08796,-4.12479 -0.15103,-8.24958 -1.6415,-12.37437 1.90658,-3.94389 1.69781,-10.00312 1.01016,-16.54124 0.95046,-5.84549 4.21966,-9.22733 1.76776,-18.68783 1.83842,-2.22679 1.09379,-5.15805 0.37881,-8.08122 3.09113,-6.97203 -0.10422,-18.97323 -0.25254,-28.53681 1.39203,-8.47324 0.83571,-15.24166 0.37881,-22.09708 1.9421,-6.30886 -0.58144,-12.35503 -2.52538,-18.43529 -5.19052,-18.878909 -2.42001,-30.29112 1.6415,-49.750009 0.93407,-5.38748 0.92121,-10.774961 -2.39912,-16.162441 0.39759,-6.888706 -2.11076,-12.687686 -3.40926,-18.94036 l -2.7346,-8.85941 c -32.9884,4.230052 -62.64783,4.386144 -89.946897,-2.883613 -4.126357,7.361584 -5.899697,15.15099 -7.449875,22.98097 l -3.535533,5.934646 c -1.332457,7.915744 -1.299846,16.104502 -0.252539,24.496199 L 66.164991,113.9473 c -0.440411,2.61332 -0.832249,5.23474 0.126269,8.08122 3.164801,2.86819 1.179182,6.96268 -0.505076,10.98541 -1.128891,5.40665 -1.024435,16.05775 -0.252538,29.54696 1.452198,10.77698 1.780568,23.03641 1.732749,35.79786 -1.341079,4.17115 -2.230091,8.29677 -0.128811,11.86912 -0.209106,13.02424 -0.565896,26.25089 -0.314591,38.68883 10.828855,-2.73635 21.764735,-5.85492 30.977958,-2.82116 6.246079,2.60558 11.370159,-0.77284 16.982619,-1.5466 l 0.39842,-42.71932 c 2.56925,-19.09954 0.32032,-34.34455 0.48048,-51.51683 -0.56149,-4.9533 -1.18754,-10.07007 0.25253,-15.02602 -0.2988,-7.43046 -1.36664,-15.93758 -0.12627,-21.2132 -0.29763,-13.71283 1.19777,-22.405157 2.52539,-31.567269 l 1.89403,-5.682108 c 0.82815,3.044104 1.64629,6.098209 3.78807,7.828683 0.64278,3.038121 1.18589,6.101161 0.50508,9.47018 0.65975,2.328621 1.28782,4.688914 2.27284,6.692264 -2.28208,2.24228 -2.59927,4.78685 -0.50507,7.70241 0.89404,2.9048 2.07567,5.54472 2.27284,9.09137 -0.75326,3.43074 -1.63624,6.84852 0.88388,10.6066 -1.40814,12.67712 0.52213,25.77155 1.6415,38.76461 0.0835,13.17341 -0.87136,25.30842 -1.76776,37.50191 -1.31788,12.94417 -0.80771,26.25395 -0.50508,39.52222 z"/><path style="fill:#ff2a2a;fill-rule:evenodd;stroke:#000;stroke-width:1px;stroke-linecap:butt;stroke-linejoin:miter;stroke-opacity:1" id="path4871-1" d="m 83.875941,64.862349 c 0.31887,4.797015 1.418239,10.200926 -0.50507,17.084078 L 79.042598,71.577045 Z"/><path style="fill:#ff2a2a;fill-rule:evenodd;stroke:#000;stroke-width:1px;stroke-linecap:butt;stroke-linejoin:miter;stroke-opacity:1" id="path4871" d="m 157.33126,63.060864 c -0.31887,4.797015 -0.34681,9.620569 0.50507,14.584078 l 3.34613,-10.101525 z"/><path style="fill:#ff2a2a;fill-rule:evenodd;stroke:#000;stroke-width:1px;stroke-linecap:butt;stroke-linejoin:miter;stroke-opacity:1" id="path4869" d="m 83.75,11.089287 c 1.408745,1.304594 80.01855,6.148529 79.82143,5.803571 l -41.96429,7.767857 z"/><path style="fill:#faa;fill-rule:evenodd;stroke:#000;stroke-width:.5;stroke-linecap:butt;stroke-linejoin:miter;stroke-opacity:1;stroke-miterlimit:4;stroke-dasharray:none" id="path4565" d="M 85.625,19.035715 C 80.869119,27.165233 74.513629,34.095044 68.482143,41.267858 l -0.223215,3.4375 C 75.466281,36.997033 81.175681,28.938643 87.678571,19.928573 Z"/><path style="fill:#faa;fill-rule:evenodd;stroke:#000;stroke-width:.5;stroke-linecap:butt;stroke-linejoin:miter;stroke-opacity:1;stroke-miterlimit:4;stroke-dasharray:none" id="path4567" d="m 160,21.982144 -2.5,0.803571 c 4.83192,9.12523 11.90644,18.784414 20.26786,28.75 l -1.05612,-5.398612 C 171.59065,40.669111 165.11478,33.503356 160,21.982144 Z"/><path style="fill:#f55;fill-rule:evenodd;stroke:#000;stroke-width:1px;stroke-linecap:butt;stroke-linejoin:miter;stroke-opacity:1" id="path4569" d="m 81.443549,9.9015875 -3.282996,7.5130095 c 13.071713,6.001725 33.143587,12.192205 54.358837,8.333758 0.24846,-0.04519 3e-5,-8.901969 3e-5,-8.901969 -13.48407,1.445439 -29.37792,-0.0087 -51.075871,-6.9447985 z"/><path style="fill:#f55;fill-rule:evenodd;stroke:#000;stroke-width:1px;stroke-linecap:butt;stroke-linejoin:miter;stroke-opacity:1" id="path4571" d="m 169.32682,14.25787 1.13642,7.954952 c -18.47737,6.146565 -36.95475,4.302887 -55.43212,4.987627 -3.0752,-0.150518 -2.2097,-10.69078 0.18941,-10.543466 17.94075,0.536242 35.99771,-0.41798 54.10629,-2.399113 z"/><path style="fill:none;fill-rule:evenodd;stroke:#000;stroke-width:.5;stroke-linecap:butt;stroke-linejoin:miter;stroke-miterlimit:4;stroke-dasharray:none;stroke-opacity:1" id="path4573" d="m 118.75606,26.884777 0.37881,33.650707 0.53664,17.330429"/><path style="fill:none;fill-rule:evenodd;stroke:#000;stroke-width:.5;stroke-linecap:butt;stroke-linejoin:miter;stroke-miterlimit:4;stroke-dasharray:none;stroke-opacity:1" id="path4575" d="m 120.40073,60.836494 0.3125,17.218823"/><path style="fill:none;fill-rule:evenodd;stroke:#000;stroke-width:.5;stroke-linecap:butt;stroke-linejoin:miter;stroke-miterlimit:4;stroke-dasharray:none;stroke-opacity:1" id="path4577" d="m 119.0934,60.89197 3.7664,-0.230217 c 4.22721,-0.553039 4.48646,-2.910708 4.48255,-5.177032 l 0.88389,-28.41054"/><path style="fill:none;fill-rule:evenodd;stroke:#000;stroke-width:.5;stroke-linecap:butt;stroke-linejoin:miter;stroke-miterlimit:4;stroke-dasharray:none;stroke-opacity:1" id="path4577-3" d="m 119.16356,59.420687 2.73351,-0.137998 c 3.80449,-0.497736 4.03781,-2.619638 4.0343,-4.659329 l 0.54296,-27.589791"/><path style="fill:none;fill-rule:evenodd;stroke:#000;stroke-width:.5;stroke-linecap:butt;stroke-linejoin:miter;stroke-miterlimit:4;stroke-dasharray:none;stroke-opacity:1" id="path4594" d="m 66.038722,165.97015 c 23.913806,-1.49247 44.236748,1.21537 49.750008,-1.89621"/><path style="fill:none;fill-rule:evenodd;stroke:#000;stroke-width:.5;stroke-linecap:butt;stroke-linejoin:miter;stroke-miterlimit:4;stroke-dasharray:none;stroke-opacity:1" id="path4596" d="m 115.62549,162.57404 c -6.50562,3.14763 -34.667834,0.27893 -49.460499,1.88089"/><path style="fill:none;fill-rule:evenodd;stroke:#000;stroke-width:.5;stroke-linecap:butt;stroke-linejoin:miter;stroke-miterlimit:4;stroke-dasharray:none;stroke-opacity:1" id="path4594-7" d="m 130.5717,166.77968 c 23.9138,-1.49247 43.28973,2.79591 48.80299,-0.31567"/><path style="fill:none;fill-rule:evenodd;stroke:#000;stroke-width:.5;stroke-linecap:butt;stroke-linejoin:miter;stroke-miterlimit:4;stroke-dasharray:none;stroke-opacity:1" id="path4596-1" d="m 179.3747,165.32759 c -6.7597,1.52858 -33.88407,-1.66509 -48.67673,-0.0631"/><path style="fill:none;fill-rule:evenodd;stroke:#000;stroke-width:.5;stroke-linecap:butt;stroke-linejoin:miter;stroke-miterlimit:4;stroke-dasharray:none;stroke-opacity:1" id="path4616" d="m 67.048875,122.28106 c 0.637449,-3.27362 3.323334,-5.54777 7.576144,-4.67196 13.764521,2.83462 26.982651,2.89271 40.406101,2.77792"/><path style="fill:none;fill-rule:evenodd;stroke:#000;stroke-width:.5;stroke-linecap:butt;stroke-linejoin:miter;stroke-miterlimit:4;stroke-dasharray:none;stroke-opacity:1" id="path4616-3" d="m 66.223484,121.02413 c 0.637449,-3.27362 3.323334,-5.54777 7.576144,-4.67196 13.764521,2.83462 27.550862,2.3245 40.974302,2.20971"/><path style="fill:none;fill-rule:evenodd;stroke:#000;stroke-width:.5;stroke-linecap:butt;stroke-linejoin:miter;stroke-miterlimit:4;stroke-dasharray:none;stroke-opacity:1" id="path4616-30" d="m 178.99251,122.68639 c -0.63745,-3.27362 -4.17154,-7.82455 -8.42435,-6.94874 -13.76452,2.83462 -28.45587,2.80342 -41.87932,2.68863"/><path style="fill:none;fill-rule:evenodd;stroke:#000;stroke-width:.5;stroke-linecap:butt;stroke-linejoin:miter;stroke-miterlimit:4;stroke-dasharray:none;stroke-opacity:1" id="path4616-3-4" d="m 178.74647,119.95625 c -0.63745,-3.27362 -4.1269,-6.44063 -8.37971,-5.56482 -13.76452,2.83462 -28.2205,2.36914 -41.64394,2.25435"/><path style="fill:#f55;fill-rule:evenodd;stroke:#000;stroke-width:1px;stroke-linecap:butt;stroke-linejoin:miter;stroke-opacity:1" id="path4651" d="m 65.849318,113.82103 c 6.250319,-0.33364 12.500638,-1.69115 18.750957,-3.53553 L 83.148181,71.8997 66.480664,76.761059 c 0.100189,8.751461 -2.332729,10.830809 -0.457047,17.352413 -1.01963,3.699952 -2.300269,7.382508 -0.883111,11.244908 -0.09225,2.55085 -0.622069,8.77661 0.708812,8.46265 z"/><path style="fill:none;fill-rule:evenodd;stroke:#000;stroke-width:.5;stroke-linecap:butt;stroke-linejoin:miter;stroke-miterlimit:4;stroke-dasharray:none;stroke-opacity:1" id="path4719" d="m 71.607142,112.78572 c 0.09635,-12.1131 0.120775,-24.226194 -0.446428,-36.339291"/><path style="fill:none;fill-rule:evenodd;stroke:#000;stroke-width:.5;stroke-linecap:butt;stroke-linejoin:miter;stroke-miterlimit:4;stroke-dasharray:none;stroke-opacity:1" id="path4719-8" d="m 73.369298,112.80263 c 0.09635,-12.1131 0.120775,-24.226194 -0.446428,-36.339291"/><path style="fill:#f55;fill-rule:evenodd;stroke:#000;stroke-width:1px;stroke-linecap:butt;stroke-linejoin:miter;stroke-opacity:1" id="path4653" d="m 83.842661,63.629076 c -6.319584,-0.135985 -12.128078,0.378509 -16.604383,2.588516 -1.509368,0.0075 -2.904481,15.383671 -1.704632,14.584077 4.277938,-3.40343 11.523116,-3.83962 17.614535,-5.42957 z"/><path style="fill:#f55;fill-rule:evenodd;stroke:#000;stroke-width:1px;stroke-linecap:butt;stroke-linejoin:miter;stroke-opacity:1" id="path4651-3" d="m 176.33519,110.8926 c -6.25032,-0.33364 -14.64722,-0.61786 -20.89754,-2.46224 1.34677,-13.026784 -2.09846,-27.118455 4.04061,-39.080283 l 20.32932,3.977477 c -1.17347,3.763832 -1.70788,8.557965 -0.61623,12.364784 1.01963,3.699952 -0.9196,13.569697 -2.33676,17.432092 0.0923,2.55085 0.81148,8.08213 -0.5194,7.76817 z"/><path style="fill:none;fill-rule:evenodd;stroke:#000;stroke-width:.5;stroke-linecap:butt;stroke-linejoin:miter;stroke-miterlimit:4;stroke-dasharray:none;stroke-opacity:1" id="path4719-7" d="m 165.60885,109.83531 c 0.0964,-12.113103 -1.45758,-25.488888 0.43745,-38.3596"/><path style="fill:none;fill-rule:evenodd;stroke:#000;stroke-width:.5;stroke-linecap:butt;stroke-linejoin:miter;stroke-miterlimit:4;stroke-dasharray:none;stroke-opacity:1" id="path4719-5" d="m 166.99781,109.83531 c 0.0964,-12.113103 -0.63684,-27.382924 0.56373,-37.854524"/><path style="fill:#f55;fill-rule:evenodd;stroke:#000;stroke-width:1px;stroke-linecap:butt;stroke-linejoin:miter;stroke-opacity:1" id="path4653-7" d="m 157.39482,62.15274 c 6.85131,-1.797617 17.69851,-3.024723 21.59202,1.515229 1.36908,1.596389 3.40955,13.489636 2.2097,12.690042 -3.07838,-0.75178 -16.0688,-3.082006 -22.16022,-4.671956 z"/><ellipse style="fill:#b3b3b3;fill-opacity:1;stroke:#000;stroke-width:.5;stroke-linecap:round;stroke-linejoin:round;stroke-miterlimit:4;stroke-dasharray:none;stroke-opacity:1" id="path4673" cx="119.009" cy="22.339" rx="2.967" ry="2.904"/><ellipse id="ellipse4675" cx="119.009" cy="22.339" rx="1.577" ry="1.543" style="fill:#333;fill-opacity:1;stroke:#000;stroke-width:.26572049;stroke-linecap:round;stroke-linejoin:round;stroke-miterlimit:4;stroke-dasharray:none;stroke-opacity:1"/><path style="fill:none;fill-rule:evenodd;stroke:#000;stroke-width:.5;stroke-linecap:butt;stroke-linejoin:miter;stroke-miterlimit:4;stroke-dasharray:none;stroke-opacity:1" id="path4681" d="m 128.66818,239.01681 c 15.81403,3.99985 22.1359,-5.06016 27.84461,-4.96605 9.87326,0.16275 8.65389,5.26623 20.70585,11.21637"/><path style="fill:none;fill-rule:evenodd;stroke:#000;stroke-width:.5;stroke-linecap:butt;stroke-linejoin:miter;stroke-miterlimit:4;stroke-dasharray:none;stroke-opacity:1" id="path4681-3" d="m 128.99074,237.31468 c 15.81403,3.99985 22.1359,-5.06016 27.84461,-4.96605 9.87326,0.16275 8.65389,5.26623 20.70585,11.21637"/><path style="fill:#000;fill-rule:evenodd;stroke:none;stroke-width:1px;stroke-linecap:butt;stroke-linejoin:miter;stroke-opacity:1" id="path4698" d="m 66.670068,246.0828 0.252538,-0.5 -0.252538,-0.5 z"/><path style="fill:none;fill-rule:evenodd;stroke:#000;stroke-width:.5;stroke-linecap:butt;stroke-linejoin:miter;stroke-miterlimit:4;stroke-dasharray:none;stroke-opacity:1" id="path4702" d="m 66.922606,246.59295 c 8.127604,-3.73112 23.779544,-6.0768 31.632656,-3.06032 4.898348,1.88152 10.206918,-0.51776 16.286458,-1.9273"/><path style="fill:none;fill-rule:evenodd;stroke:#000;stroke-width:.5;stroke-linecap:butt;stroke-linejoin:miter;stroke-miterlimit:4;stroke-dasharray:none;stroke-opacity:1" id="path4702-1" d="m 66.788687,244.86492 c 8.127604,-3.73112 23.779544,-6.0768 31.632656,-3.06032 4.898347,1.88152 10.206917,-0.51776 16.286457,-1.9273"/><path style="fill:none;fill-rule:evenodd;stroke:#000;stroke-width:.5;stroke-linecap:butt;stroke-linejoin:miter;stroke-miterlimit:4;stroke-dasharray:none;stroke-opacity:1" id="path4867" d="m 158.78335,62.240116 1.6415,7.891817 c 7.06972,1.857841 12.9563,2.729728 19.06663,3.788072"/><path style="fill:none;fill-rule:evenodd;stroke:#000;stroke-width:.5;stroke-linecap:butt;stroke-linejoin:miter;stroke-miterlimit:4;stroke-dasharray:none;stroke-opacity:1" id="path4748" d="m 167.0224,97.784859 c 5.49895,-0.672277 6.93187,0.0194 10.57504,1.894035"/><path style="fill:none;fill-rule:evenodd;stroke:#000;stroke-width:.5;stroke-linecap:butt;stroke-linejoin:miter;stroke-miterlimit:4;stroke-dasharray:none;stroke-opacity:1" id="path4748-0" d="m 166.98846,96.461503 c 5.46738,-0.388172 6.30052,-0.296277 10.85914,1.894035"/><path style="fill:none;fill-rule:evenodd;stroke:#000;stroke-width:.5;stroke-linecap:butt;stroke-linejoin:miter;stroke-miterlimit:4;stroke-dasharray:none;stroke-opacity:1" id="path4748-7" d="m 64.422581,100.29662 c 2.089685,0.33787 4.595889,0.30349 7.134204,0.15783"/><path style="fill:none;fill-rule:evenodd;stroke:#000;stroke-width:.5;stroke-linecap:butt;stroke-linejoin:miter;stroke-miterlimit:4;stroke-dasharray:none;stroke-opacity:1" id="path4748-0-7" d="m 64.578039,98.973257 c 3.320809,0.148472 4.438053,0.429764 7.039503,0.03157"/><path style="fill:none;fill-rule:evenodd;stroke:#000;stroke-width:.5;stroke-linecap:butt;stroke-linejoin:miter;stroke-miterlimit:4;stroke-dasharray:none;stroke-opacity:1" id="path4748-7-0" d="m 73.364555,100.01922 c 2.089685,0.33787 8.16299,-0.485692 10.701305,-0.631352"/><path style="fill:none;fill-rule:evenodd;stroke:#000;stroke-width:.5;stroke-linecap:butt;stroke-linejoin:miter;stroke-miterlimit:4;stroke-dasharray:none;stroke-opacity:1" id="path4748-0-7-8" d="m 73.520013,98.695861 c 3.320809,0.148472 7.910452,-0.138447 10.511902,-0.536641"/><path style="fill:none;fill-rule:evenodd;stroke:#000;stroke-width:.5;stroke-linecap:butt;stroke-linejoin:miter;stroke-miterlimit:4;stroke-dasharray:none;stroke-opacity:1" id="path4748-8" d="m 155.80469,97.726348 c 5.49895,-0.672277 6.77403,0.208803 9.53332,0.189402"/><path style="fill:none;fill-rule:evenodd;stroke:#000;stroke-width:.5;stroke-linecap:butt;stroke-linejoin:miter;stroke-miterlimit:4;stroke-dasharray:none;stroke-opacity:1" id="path4748-0-9" d="m 155.83388,96.560828 c 5.46738,-0.388172 7.68948,0.05096 9.43861,0.0947"/><path style="fill:none;fill-rule:evenodd;stroke:#000;stroke-width:.5;stroke-linecap:butt;stroke-linejoin:miter;stroke-miterlimit:4;stroke-dasharray:none;stroke-opacity:1" id="path4865" d="m 65.357143,78.723215 c 4.810595,-3.293595 10.674724,-3.215881 16.026785,-4.776786 l 0.758929,-10.3125"/><ellipse style="fill:#b3b3b3;fill-opacity:1;stroke:#000;stroke-width:1.0000373;stroke-linecap:round;stroke-linejoin:round;stroke-miterlimit:4;stroke-dasharray:none;stroke-opacity:1" id="path4673-6" cx="72.314" cy="71.098" rx="1.475" ry="2.275" transform="matrix(0.99512978,0.0985734,-0.08641142,0.99625954,0,0)"/><ellipse id="ellipse4675-5" cx="70.775" cy="69.003" rx=".616" ry="1.238" transform="matrix(0.99168506,0.12868857,-0.06606367,0.99781541,0,0)" style="fill:#333;fill-opacity:1;stroke:#000;stroke-width:.14869067;stroke-linecap:round;stroke-linejoin:round;stroke-miterlimit:4;stroke-dasharray:none;stroke-opacity:1"/><g id="g4861" transform="matrix(-1,0,0,1,358.70535,0.3125)"><ellipse id="path4673-6-4" cx="184.808" cy="55.042" rx="1.475" ry="2.275" transform="matrix(0.99512978,0.0985734,-0.08641142,0.99625954,0,0)" style="fill:#b3b3b3;fill-opacity:1;stroke:#000;stroke-width:1.00003731;stroke-linecap:round;stroke-linejoin:round;stroke-miterlimit:4;stroke-dasharray:none;stroke-opacity:1"/><ellipse style="fill:#333;fill-opacity:1;stroke:#000;stroke-width:.14869067;stroke-linecap:round;stroke-linejoin:round;stroke-miterlimit:4;stroke-dasharray:none;stroke-opacity:1" id="ellipse4675-5-9" cx="183.761" cy="49.514" rx=".616" ry="1.238" transform="matrix(0.99168506,0.12868857,-0.06606367,0.99781541,0,0)"/></g><path style="fill:#000;fill-rule:evenodd;stroke:none;stroke-width:1px;stroke-linecap:butt;stroke-linejoin:miter;stroke-opacity:1" id="path4888" d="m 114.88516,201.50868 c -1.58222,1.97173 -3.26472,5.03684 -7.05532,6.1086 3.96835,-0.77085 5.96741,-3.69094 7.79366,-5.43418 z"/><path style="fill:#000;fill-rule:evenodd;stroke:none;stroke-width:1px;stroke-linecap:butt;stroke-linejoin:miter;stroke-opacity:1" id="path4892" d="m 115.37959,149.77284 c -1.80524,2.85672 -4.18066,5.66843 -7.67208,6.22206 3.6137,-0.2318 6.31554,-2.84402 8.49036,-5.64724 z"/><path style="fill:#000;fill-rule:evenodd;stroke:none;stroke-width:1px;stroke-linecap:butt;stroke-linejoin:miter;stroke-opacity:1" id="path4896" d="m 116.33806,135.87896 c -0.2478,-1.49551 -1.14828,-2.62761 -2.19246,-3.52223 -1.04694,-0.89699 -2.31325,-1.61667 -3.40763,-2.24699 1.02045,0.78131 2.15986,1.61944 3.06015,2.60651 0.9045,0.99169 1.49705,2.05971 1.5459,3.27167 z"/><path style="fill:#000;fill-rule:evenodd;stroke:none;stroke-width:1px;stroke-linecap:butt;stroke-linejoin:miter;stroke-opacity:1" id="path4900" d="m 65.507564,133.26071 c 2.546745,-0.0318 4.645765,-1.58742 6.339535,-3.15097 -1.98745,1.37151 -4.0848,2.43718 -6.287371,2.15233 z"/><path style="fill:#000;fill-rule:evenodd;stroke:none;stroke-width:1px;stroke-linecap:butt;stroke-linejoin:miter;stroke-opacity:1" id="path4904" d="m 127.11407,101.2118 c 1.54376,-1.531763 3.13541,-2.251075 4.83711,-2.416789 -1.70258,-0.167975 -3.54618,0.224831 -5.48539,1.655389 z"/><path style="fill:#000;fill-rule:evenodd;stroke:none;stroke-width:1px;stroke-linecap:butt;stroke-linejoin:miter;stroke-opacity:1" id="path4908" d="m 124.08324,94.363873 c 1.57002,1.484298 2.82241,2.319985 4.12722,2.458184 -1.1634,-0.446192 -2.13341,-1.500393 -3.3858,-3.129224 z"/><path style="fill:#000;fill-rule:evenodd;stroke:none;stroke-width:1px;stroke-linecap:butt;stroke-linejoin:miter;stroke-opacity:1" id="path4912" d="m 124.44931,84.481668 c -0.92032,-1.755013 -1.89219,-4.411129 -1.96831,-6.268515 -0.25806,1.883589 0.3953,4.683397 1.04681,6.656887 z"/><path style="fill:#000;fill-rule:evenodd;stroke:none;stroke-width:1px;stroke-linecap:butt;stroke-linejoin:miter;stroke-opacity:1" id="path4916" d="m 125.87094,108.85778 c 1.85277,1.75025 3.9855,2.2245 6.33277,2.05906 -2.38776,-0.16829 -4.20539,-0.99262 -5.59965,-2.73916 z"/><path style="fill:#000;fill-rule:evenodd;stroke:none;stroke-width:1px;stroke-linecap:butt;stroke-linejoin:miter;stroke-opacity:1" id="path4920" d="m 128.97494,128.50133 c 0.9671,0.71873 1.86986,1.5541 2.79397,2.12924 0.96221,0.59884 1.98339,0.95182 3.33899,0.86813 -1.347,-0.0832 -2.2575,-0.59489 -3.04391,-1.27177 -0.82299,-0.70838 -1.4719,-1.54733 -2.43987,-2.48624 z"/><path style="fill:#000;fill-rule:evenodd;stroke:none;stroke-width:1px;stroke-linecap:butt;stroke-linejoin:miter;stroke-opacity:1" id="path4924" d="m 178.38754,130.25584 c -2.02308,2.58809 -4.50563,5.27823 -7.54549,6.67243 3.20636,-1.10183 5.96543,-3.57743 8.30127,-6.01761 z"/><path style="fill:#000;fill-rule:evenodd;stroke:none;stroke-width:1px;stroke-linecap:butt;stroke-linejoin:miter;stroke-opacity:1" id="path4928" d="m 178.62674,180.97451 0.40708,-0.29032 c -1.38848,-1.66333 -3.53757,-2.77223 -5.41385,-3.22355 1.80063,0.77716 3.6226,2.14328 4.59969,3.80419 l 0.40708,-0.29032 z"/><path style="fill:#000;fill-rule:evenodd;stroke:none;stroke-width:1px;stroke-linecap:butt;stroke-linejoin:miter;stroke-opacity:1" id="path4932" d="m 178.14428,188.78536 c -1.64903,1.27689 -3.3513,2.35409 -5.4082,2.69115 2.12579,-0.008 4.03202,-0.79593 5.95602,-1.85455 z"/><path style="fill:#000;fill-rule:evenodd;stroke:none;stroke-width:1px;stroke-linecap:butt;stroke-linejoin:miter;stroke-opacity:1" id="path4936" d="m 176.57151,207.65473 -0.36852,-0.33792 c -1.6024,1.99687 -3.891,3.66346 -5.99229,5.12036 2.23137,-1.1464 4.79396,-2.5778 6.72933,-4.44452 l -0.36852,-0.33792 z"/><path style="fill:#000;fill-rule:evenodd;stroke:none;stroke-width:1px;stroke-linecap:butt;stroke-linejoin:miter;stroke-opacity:1" id="path4940" d="m 175.50701,224.58132 -0.37023,-0.33605 c -2.53391,3.04395 -6.66386,3.6184 -10.60819,4.35434 3.8037,-0.37907 8.33611,-0.60777 11.34865,-3.68224 l -0.37023,-0.33605 z"/><path style="fill:#000;fill-rule:evenodd;stroke:none;stroke-width:1px;stroke-linecap:butt;stroke-linejoin:miter;stroke-opacity:1" id="path4944" d="m 176.95169,236.13015 c -1.20809,1.214 -3.2622,1.50064 -5.09949,1.93964 1.70487,-0.084 4.09928,-0.0381 5.73163,-1.16478 z"/><path style="fill:#000;fill-rule:evenodd;stroke:none;stroke-width:1px;stroke-linecap:butt;stroke-linejoin:miter;stroke-opacity:1" id="path4948" d="m 66.701969,210.73929 c 3.529515,1.55138 7.375245,1.27744 10.953507,0.814 -3.693492,0.13851 -7.347599,0.0323 -10.512233,-1.71138 z"/><path style="fill:#000;fill-rule:evenodd;stroke:none;stroke-width:1px;stroke-linecap:butt;stroke-linejoin:miter;stroke-opacity:1" id="path4952" d="m 66.8398,198.17046 c 1.746109,3.38778 5.212179,4.96215 8.416564,6.18549 -3.1901,-1.58103 -6.206844,-3.38292 -7.508658,-6.60467 z"/></g></svg>