<svg xmlns="http://www.w3.org/2000/svg" xmlns:svg="http://www.w3.org/2000/svg" id="svg4206" version="1.1" viewBox="0 0 256 256"><style id="style3">svg{cursor:default}</style><metadata id="metadata4211"/><g id="layer1" transform="translate(0,-796.36216)" style="display:inline"><path style="display:inline;fill:#f55;fill-rule:evenodd;stroke:#000;stroke-width:.92044634px;stroke-linecap:butt;stroke-linejoin:miter;stroke-opacity:1" id="path4176-1-32" d="m 156.4862,951.22939 c 2.1334,1.75855 34.86822,14.27993 34.59984,13.82596 4.27503,-16.41097 8.14653,-32.34414 12.83016,-49.23893 l -23.79052,-11.62548 z"/><path style="display:inline;fill:#f55;fill-rule:evenodd;stroke:#000;stroke-width:.92044634px;stroke-linecap:butt;stroke-linejoin:miter;stroke-opacity:1" id="path4176-1-2" d="m 128.95954,947.56759 c 2.1334,1.75855 34.86822,14.27993 34.59984,13.82596 4.27503,-16.41097 8.14654,-32.34414 12.83017,-49.23893 l -23.79053,-11.62548 z"/><path style="display:inline;fill:#f55;fill-rule:evenodd;stroke:#000;stroke-width:.92044634px;stroke-linecap:butt;stroke-linejoin:miter;stroke-opacity:1" id="path4176-1-6" d="m 105.47349,939.23383 c 2.1334,1.75855 34.86822,14.27993 34.59984,13.82596 4.27503,-16.41097 8.14654,-32.34414 12.83017,-49.23893 l -23.79053,-11.62548 z"/><path style="display:inline;fill:#f55;fill-rule:evenodd;stroke:#000;stroke-width:.92044634px;stroke-linecap:butt;stroke-linejoin:miter;stroke-opacity:1" id="path4176-1-3" d="m 38.045801,919.03078 c 2.1334,1.75855 34.86822,14.27993 34.59984,13.82596 4.27503,-16.41097 8.14654,-32.34414 12.83017,-49.23893 l -23.79053,-11.62548 z"/><path style="display:inline;fill:#f55;fill-rule:evenodd;stroke:#000;stroke-width:.92044634px;stroke-linecap:butt;stroke-linejoin:miter;stroke-opacity:1" id="path4176-1-9" d="m 57.491241,923.07139 c 2.1334,1.75855 34.86822,14.27993 34.59984,13.82596 4.27503,-16.41097 8.146539,-32.34414 12.830169,-49.23893 L 81.130721,876.03294 Z"/><path style="display:inline;fill:#f55;fill-rule:evenodd;stroke:#000;stroke-width:.92044634px;stroke-linecap:butt;stroke-linejoin:miter;stroke-opacity:1" id="path4176-1" d="m 80.185691,931.26982 c 2.1334,1.75855 34.868219,14.27993 34.599839,13.82596 4.27503,-16.41097 8.14654,-32.34414 12.83017,-49.23893 l -23.79053,-11.62548 z"/><path style="fill:#1a1a1a;fill-rule:evenodd;stroke:#000;stroke-width:1px;stroke-linecap:butt;stroke-linejoin:miter;stroke-opacity:1" id="path4240" d="m 54.423571,866.90349 c 4.3606,-10.29209 169.854349,48.72945 167.857139,53.21428 0.61525,20.49671 -157.000639,-50.56102 -168.756439,-40.23407 -8.52823,-5.91702 -1.16807,-8.18471 0.8993,-12.98021 z"/><path style="display:inline;fill:#f55;fill-rule:evenodd;stroke:#000;stroke-width:1px;stroke-linecap:butt;stroke-linejoin:miter;stroke-opacity:1" id="path4184-3" d="m 214.1134,991.99727 c 0.20548,2.3484 -10.52074,4.734 -18.23547,4.4421 -4.60749,0.1147 -5.95037,-4.106 -3.98199,-4.1229 0.25252,0 22.21746,-0.3192 22.21746,-0.3192 z"/><path style="fill:#f55;fill-rule:evenodd;stroke:#000;stroke-width:1px;stroke-linecap:butt;stroke-linejoin:miter;stroke-opacity:1" id="path4184" d="m 252.34873,980.51506 -12.2481,9.1545 c -4.57148,0.58611 -9.21675,-5.52681 -7.26047,-5.74524 0.25098,-0.028 19.50857,-3.40926 19.50857,-3.40926 z"/><path style="fill:#ff8080;fill-rule:evenodd;stroke:#000;stroke-width:1px;stroke-linecap:butt;stroke-linejoin:miter;stroke-opacity:1" id="path4168" d="M 209.89506,992.12537 252.37,980.5642 c -5.55832,-16.09135 -19.33103,-28.14006 -22.87695,-41.71174 l -22.67332,1.57649 z"/><path style="fill:#ff8080;fill-rule:evenodd;stroke:#000;stroke-width:1px;stroke-linecap:butt;stroke-linejoin:miter;stroke-opacity:1" id="path4182" d="m 39.334291,877.79634 c -21.37502,24.20599 -24.88277,29.6663 -37.1499799,44.51396 5.6201603,2.99404 25.3032799,15.17183 24.4713999,14.86104 0.26786,-0.625 23.92858,-43.48214 23.92858,-43.48214 z"/><path style="fill:#ff8080;fill-rule:evenodd;stroke:#000;stroke-width:1px;stroke-linecap:butt;stroke-linejoin:miter;stroke-opacity:1" id="path4170" d="m 165.55256,993.71087 c 18.09148,-1.7395 37.54458,2.6813 48.52919,-1.4304 -0.89859,-17.25808 -1.48949,-33.85847 -1.89032,-51.44841 l -33.04392,-0.16324 z"/><path style="fill:#ff8080;fill-rule:evenodd;stroke:#000;stroke-width:1px;stroke-linecap:butt;stroke-linejoin:miter;stroke-opacity:1" id="path4172" d="m 116.29857,984.13563 -0.71428,3.30357 c 25.91192,1.39956 34.64911,7.27247 53.03571,8.78707 1.75027,-11.1667 7.85261,-36.2541 12.41071,-54.14421 l -42.58928,-6.60714 z"/><path style="display:inline;fill:#f55;fill-rule:evenodd;stroke:#000;stroke-width:1.08027828px;stroke-linecap:butt;stroke-linejoin:miter;stroke-opacity:1" id="path4184-3-4" d="m 137.20713,986.96588 c -0.27149,2.4884 -12.34854,2.7988 -20.61309,0.93029 -4.99658,-0.8148 -5.55929,-5.48455 -3.43142,-5.10301 0.27253,0.0511 24.04451,4.17272 24.04451,4.17272 z"/><path style="fill:#ff8080;fill-rule:evenodd;stroke:#000;stroke-width:1px;stroke-linecap:butt;stroke-linejoin:miter;stroke-opacity:1" id="path4174" d="m 80.406621,976.51461 c 18.252361,4.93384 38.225799,7.05683 56.874089,10.56745 L 147.37,935.11777 112.995,929.67134 Z"/><path style="fill:#ff8080;fill-rule:evenodd;stroke:#000;stroke-width:1px;stroke-linecap:butt;stroke-linejoin:miter;stroke-opacity:1" id="path4176" d="m 60.495001,965.83206 c 2.52209,1.75577 41.220969,14.25741 40.903689,13.80416 5.05391,-16.3851 9.63078,-32.29315 15.16774,-49.1613 L 88.441431,918.86777 Z"/><path style="display:inline;fill:#f55;fill-rule:evenodd;stroke:#000;stroke-width:1px;stroke-linecap:butt;stroke-linejoin:miter;stroke-opacity:1" id="path4184-3-4-9" d="m 62.366531,967.47598 c -0.61572,2.59121 -9.7397,-0.63043 -16.12447,-4.82371 -3.92326,-3.18353 -2.78361,-6.59836 -0.92979,-5.93643 0.23709,0.0869 17.05426,10.76014 17.05426,10.76014 z"/><path style="fill:#ff8080;fill-rule:evenodd;stroke:#000;stroke-width:1px;stroke-linecap:butt;stroke-linejoin:miter;stroke-opacity:1" id="path4178" d="m 34.423571,950.83206 c 12.41432,6.94618 18.56028,15.50056 27.47013,17.60832 10.96143,-13.99565 16.06771,-30.01083 29.40487,-46.62618 l -28.66071,-18.30357 z"/><path style="fill:#ff8080;fill-rule:evenodd;stroke:#000;stroke-width:1px;stroke-linecap:butt;stroke-linejoin:miter;stroke-opacity:1" id="path4180" d="m 24.066431,934.22492 c -0.80576,2.70726 -7.31594,16.2984 10.26786,21.16071 3.77745,-7.42288 16.24779,-31.99492 28.75,-49.375 l -15.17858,-15.53571 z"/><path style="fill:#333;fill-rule:evenodd;stroke:#000;stroke-width:1px;stroke-linecap:butt;stroke-linejoin:miter;stroke-opacity:1" id="path4166" d="m 54.548241,866.74663 c -3.47715,7.66692 -15.41734,9.0891 -15.97304,10.98541 11.66213,51.13635 131.345829,75.05037 191.739579,61.99811 -1.26599,-6.1577 -3.9116,-12.69864 -8.20749,-19.69798 -35.13858,3.08116 -74.07313,-3.34566 -101.82716,-10.30783 C 76.157891,898.65616 52.110401,881.87116 54.548241,866.74663 Z"/></g></svg>