<svg xmlns="http://www.w3.org/2000/svg" xmlns:svg="http://www.w3.org/2000/svg" id="svg4206" version="1.1" viewBox="0 0 256 256"><style id="style3">svg{cursor:default}</style><metadata id="metadata4211"/><g id="layer1" transform="translate(0,-796.36216)" style="display:inline"><path style="fill:#ff2a2a;fill-rule:evenodd;stroke:#000;stroke-width:.52499998;stroke-linecap:butt;stroke-linejoin:miter;stroke-miterlimit:4;stroke-dasharray:none;stroke-opacity:1" id="path4454" d="m 93.871028,800.96775 c 3.990176,1.2812 19.559882,3.87325 35.514112,4.46772 15.92774,0.59349 33.15365,-0.92973 36.84461,-1.36518 2.64708,10.48578 -19.93417,8.05908 -29.86134,11.95834 -15.17167,-4.02082 -44.819544,-3.06688 -42.497382,-15.06088 z"/><path style="fill:#f55;fill-rule:evenodd;stroke:#000;stroke-width:.52499998;stroke-linecap:butt;stroke-linejoin:miter;stroke-miterlimit:4;stroke-dasharray:none;stroke-opacity:1" id="path4440" d="m 116.64613,1045.9429 c -5.40852,2.0384 -9.59349,1.7656 -15.80852,1.4581 0,0 -3.30185,-24.7003 -6.29272,-37.833 -2.999431,-13.17027 -3.177118,-33.76957 -1.765029,-43.35836 9.912239,24.39051 17.449209,26.25557 27.319589,34.68666 -2.69074,15.3234 -2.64649,30.0999 -3.45332,45.0466 z"/><path style="fill:#ff8080;fill-rule:evenodd;stroke:#000;stroke-width:.5;stroke-linecap:butt;stroke-linejoin:miter;stroke-miterlimit:4;stroke-dasharray:none;stroke-opacity:1" id="path4442" d="m 92.664749,966.93867 c 3.14764,-19.53255 1.236285,-29.64057 -1.573178,-44.01063 -6.042915,-30.90876 -9.617916,-44.16745 -10.590177,-61.00864 5.682371,-7.93022 12.521669,-32.21438 6.120333,-41.64515 3.21633,-7.61617 4.837804,-12.95397 7.155759,-19.28673 25.068534,13.81327 61.187684,9.48846 72.519694,3.29984 1.89735,6.85547 4.74717,13.71094 5.6788,20.56642 -9.17431,10.03179 0.46102,31.48347 1.58105,45.88243 -0.8153,25.48194 -4.51869,43.84245 -7.18311,60.78677 -1.47722,9.39445 -2.53665,14.6748 -1.8681,28.46843 0.0534,1.10473 2.25034,8.25568 2.80435,11.07404 -7.44464,8.32551 -15.32536,20.25919 -26.29896,22.54053 0,0 0.0146,-15.36753 -0.80576,-22.79191 -0.7301,-6.60772 -4.25788,-13.68212 -4.98814,-20.106 -0.99648,-8.7656 -0.91246,-21.07536 -0.99762,-31.92402 -0.0637,-8.12208 -4.79497,-20.93904 -4.87301,-53.52643 -1.12523,-0.53615 -2.23342,-0.72484 -2.95452,0.15347 1.33016,24.19883 -0.86072,35.01073 -1.07435,47.5407 -0.16748,9.82254 0.66946,18.19549 0.0767,29.2381 -0.46089,8.58638 -4.09263,14.26142 -4.52768,25.70805 -0.42214,11.10688 1.39659,22.72016 -0.86052,33.57666 -13.58399,-2.70515 -25.139761,-24.346 -27.341561,-34.53593 z"/><path style="fill:#f55;fill-rule:evenodd;stroke:#000;stroke-width:.5;stroke-linecap:butt;stroke-linejoin:miter;stroke-miterlimit:4;stroke-dasharray:none;stroke-opacity:1" id="path4444" d="m 145.4952,1048.6681 c 1.01308,1.7552 10.72915,3.0089 15.10937,1.6147 0.95958,-26.898 7.73405,-39.1644 8.24809,-60.28696 0.0926,-3.41822 0.99866,-10.48042 -2.03489,-21.06787 -1.20219,8.23906 -15.2328,16.16643 -25.8073,24.37224 0.34326,15.89259 5.51013,36.37139 4.48473,55.36789 z"/><path style="fill:none;fill-rule:evenodd;stroke:#000;stroke-width:.5;stroke-linecap:butt;stroke-linejoin:miter;stroke-miterlimit:4;stroke-dasharray:none;stroke-opacity:1" id="path4446" d="m 86.480396,819.77069 c 25.235914,19.25614 62.667884,13.68368 85.193974,5.42638"/><path style="fill:none;fill-rule:evenodd;stroke:#000;stroke-width:.25;stroke-linecap:butt;stroke-linejoin:miter;stroke-miterlimit:4;stroke-dasharray:none;stroke-opacity:1" id="path4448" d="m 127.17815,832.73972 c -0.93229,10.82625 0.71005,21.17278 0.67656,31.99902"/><path style="fill:#f55;fill-rule:evenodd;stroke:#000;stroke-width:.52499998;stroke-linecap:butt;stroke-linejoin:miter;stroke-miterlimit:4;stroke-dasharray:none;stroke-opacity:1" id="path4450" d="m 161.91912,828.28462 c 4.19515,14.1714 6.07869,34.70549 11.7079,43.04209 0.68477,-11.893 0.99358,-31.33952 -1.64254,-46.47054 -2.04581,0.92499 -4.84231,2.07808 -10.06536,3.42845 z"/><path style="fill:#f55;fill-rule:evenodd;stroke:#000;stroke-width:.52499998;stroke-linecap:butt;stroke-linejoin:miter;stroke-miterlimit:4;stroke-dasharray:none;stroke-opacity:1" id="path4452" d="m 86.784798,819.91278 c -6.699653,14.9361 -7.229869,31.13507 -6.283404,42.50543 7.65347,-10.3762 12.131455,-23.36502 14.868455,-37.07604 -3.183828,-1.91692 -4.099302,-2.58956 -8.585051,-5.42939 z"/></g></svg>