<svg xmlns="http://www.w3.org/2000/svg" xmlns:svg="http://www.w3.org/2000/svg" xmlns:xlink="http://www.w3.org/1999/xlink" id="svg4206" version="1.1" viewBox="0 0 256 256"><style id="style3">svg{cursor:default}</style><defs id="defs4208"><linearGradient id="linearGradient0"><stop style="stop-color:#f55;stop-opacity:1" id="stop4182" offset="0"/><stop style="stop-color:#ff8080;stop-opacity:1" id="stop4184" offset="1"/></linearGradient><linearGradient id="linearGradient1" x1="82.143" x2="103.929" y1="1103.791" y2="857.005" gradientUnits="userSpaceOnUse" xlink:href="#linearGradient0"/></defs><metadata id="metadata4211"/><g id="layer1" transform="translate(0,-796.36216)" style="display:inline"><path style="fill:#ff2a2a;fill-rule:evenodd;stroke:#000;stroke-width:1px;stroke-linecap:butt;stroke-linejoin:miter;stroke-opacity:1" id="path4178" d="m 113.38962,1046.9326 c 1.23899,-1.0869 6.64159,-1.0992 18.30902,0.5051 L 122.481,888.84372 Z"/><path style="fill:url(#linearGradient1);fill-rule:evenodd;stroke:#000;stroke-width:1px;stroke-linecap:butt;stroke-linejoin:miter;stroke-opacity:1;fill-opacity:1" id="path4172" d="m 115.15739,1049.5842 c -46.233772,0.071 -63.980063,-7.2896 -79.802051,-15.1522 5.808377,-62.6725 12.286983,-122.42586 17.425131,-184.10035 0.946432,-11.36026 6.229275,-20.20305 9.343912,-30.30458 40.353118,3.33898 81.452858,-0.0417 122.228458,-0.50507 0,0 3.86893,7.28111 7.07107,19.69797 6.59745,25.58276 20.70812,197.23233 20.70812,197.23233 -13.26151,10.6449 -55.60164,12.4692 -83.59012,13.637 l -5.80838,-153.79571 z"/><path style="fill:#faa;fill-rule:evenodd;stroke:#000;stroke-width:1px;stroke-linecap:butt;stroke-linejoin:miter;stroke-opacity:1" id="path4174" d="m 64.397225,806.64255 c -1.325825,5.36644 -5.439895,14.76033 -3.977476,16.09931 33.051974,6.32047 85.716311,4.17746 127.058251,1.01016 1.32481,-0.4003 -2.16762,-11.23795 -3.25143,-16.85693 -9.32338,0.80335 -79.66299,4.29612 -119.829345,-0.25254 z"/><path style="fill:none;fill-rule:evenodd;stroke:#000;stroke-width:.5;stroke-linecap:butt;stroke-linejoin:miter;stroke-miterlimit:4;stroke-dasharray:none;stroke-opacity:1" id="path4176" d="m 122.9121,826.74997 -0.147,70.40268"/></g></svg>