<svg xmlns="http://www.w3.org/2000/svg" xmlns:svg="http://www.w3.org/2000/svg" id="svg4206" version="1.1" viewBox="0 0 256 256"><style id="style3">svg{cursor:default}</style><metadata id="metadata4211"/><g id="layer1" transform="translate(0,-796.36216)" style="display:inline"><path style="fill:#ff2a2a;fill-rule:evenodd;stroke:#000;stroke-width:.5;stroke-linecap:butt;stroke-linejoin:miter;stroke-miterlimit:4;stroke-dasharray:none;stroke-opacity:1" id="path4257" d="m 46.88981,835.35663 c 11.528229,1.53393 50.378717,9.96614 87.62846,10.46283 39.34875,0.52467 77.12349,-6.85962 88.53834,-9.36471 0.73448,4.98596 -59.48162,17.20045 -89.71647,25.7462 -61.762609,-7.03166 -87.517748,-16.00479 -86.45033,-26.84432 z"/><path style="fill:none;fill-rule:evenodd;stroke:#000;stroke-width:.25;stroke-linecap:butt;stroke-linejoin:miter;stroke-miterlimit:4;stroke-dasharray:none;stroke-opacity:1" id="path4277" d="m 52.90674,837.95729 c 60.57731,14.66674 102.46745,13.91915 167.05398,1.13642"/><path style="fill:#f55;fill-rule:evenodd;stroke:#000;stroke-width:.5;stroke-linecap:butt;stroke-linejoin:miter;stroke-miterlimit:4;stroke-dasharray:none;stroke-opacity:1" id="path4263" d="m 122.35473,974.07534 c 3.21097,-9.52031 7.04376,-12.14589 13.76333,-0.25254 0,0 -7.32361,-26.39023 -7.70242,-25.88516 -0.3788,0.50508 -6.06091,26.1377 -6.06091,26.1377 z"/><path style="fill:#f55;fill-rule:evenodd;stroke:#000;stroke-width:.5;stroke-linecap:butt;stroke-linejoin:miter;stroke-miterlimit:4;stroke-dasharray:none;stroke-opacity:1;fill-opacity:1" id="path4251" d="m 201.13503,860.32595 c 1.26269,-0.25254 25.32854,-6.39563 25.32854,-6.39563 2.92438,13.82054 9.27054,42.99823 9.0219,64.49734 z"/><path style="fill:#ff8080;fill-rule:evenodd;stroke:#000;stroke-width:.5;stroke-linecap:butt;stroke-linejoin:miter;stroke-opacity:1;stroke-miterlimit:4;stroke-dasharray:none" id="path4247" d="m 127.91057,947.55883 3.91434,-76.77159 73.23606,-11.11168 c 10.56291,19.357 27.23776,40.38089 30.80965,57.83124 4.52544,32.19692 3.19881,62.79782 4.79822,94.1967 l -96.21703,10.1015 c -6.30719,-24.40867 -12.5415,-48.84858 -16.54124,-74.24617 z"/><path style="fill:#f55;fill-rule:evenodd;stroke:#000;stroke-width:.5;stroke-linecap:butt;stroke-linejoin:miter;stroke-opacity:1;stroke-miterlimit:4;stroke-dasharray:none;fill-opacity:1" id="path4249" d="M 29.294424,905.89004 C 30.330989,888.48932 37.8744,869.69427 42.173869,851.59435 L 62.37692,857.9078 C 51.364808,873.92166 41.853863,891.8656 29.294424,905.89004 Z"/><path style="fill:#ff8080;fill-rule:evenodd;stroke:#000;stroke-width:.5;stroke-linecap:butt;stroke-linejoin:miter;stroke-miterlimit:4;stroke-dasharray:none;stroke-opacity:1" id="path4245" d="m 19.697975,996.04613 c 2.97455,-44.64732 5.89362,-60.32285 8.838835,-89.65101 11.17772,-21.93579 21.279654,-33.47231 31.819805,-49.24494 l 72.478445,13.8896 -3.6618,77.78174 c -8.04032,40.65224 -12.03183,49.66421 -17.29887,67.42768 -30.413711,-6.4449 -44.612422,2.167 -92.176415,-20.20307 z"/><path style="fill:#faa;fill-rule:evenodd;stroke:#000;stroke-width:.5;stroke-linecap:butt;stroke-linejoin:miter;stroke-opacity:1;stroke-miterlimit:4;stroke-dasharray:none" id="path4253" d="m 223.12642,836.39873 c 0.24789,1.2232 3.09677,15.26739 3.40028,17.84726 -23.98889,10.28096 -90.68854,22.96565 -92.49208,21.0238 -1.70464,-0.50507 -1.32583,-18.11961 -1.32583,-18.11961 31.88455,-4.35541 55.4368,-7.74373 90.41763,-20.75145 z"/><path style="fill:#faa;fill-rule:evenodd;stroke:#000;stroke-width:.5;stroke-linecap:butt;stroke-linejoin:miter;stroke-miterlimit:4;stroke-dasharray:none;stroke-opacity:1" id="path4255" d="m 134.63346,857.42066 c 1.2058,1.64754 0.87119,12.30542 -0.6683,17.79977 -17.22011,-0.32735 -61.606011,-11.6835 -92.370334,-22.2461 2.268333,-7.75438 4.597891,-13.30307 5.186006,-17.65972 28.799256,7.87643 52.434688,16.09263 87.852628,22.10605 z"/><path style="fill:#faa;fill-rule:evenodd;stroke:#000;stroke-width:.5;stroke-linecap:butt;stroke-linejoin:miter;stroke-miterlimit:4;stroke-dasharray:none;stroke-opacity:1" id="path4259" d="m 19.56536,993.67764 c -0.941118,0.5647 -1.968978,10.70726 -2.904188,17.93016 0.04887,1.2681 53.25042,17.0486 93.525768,15.0464 4.18067,-3.3814 4.24224,-14.2175 3.64014,-15.8129 -0.75709,-0.6849 -26.009037,-0.322 -51.741122,-4.7152 -14.77113,-2.5218 -22.512887,-5.7608 -42.520598,-12.44846 z"/><path style="fill:#faa;fill-rule:evenodd;stroke:#000;stroke-width:.5;stroke-linecap:butt;stroke-linejoin:miter;stroke-miterlimit:4;stroke-dasharray:none;stroke-opacity:1" id="path4261" d="m 141.81997,1013.713 c -1.45209,1.5783 1.88107,14.4686 3.38946,14.4686 6.24566,3.1228 97.59605,-5.2451 97.22718,-8.3969 0.8911,-1.2465 -0.57667,-13.2463 -1.19135,-14.6293 -0.63846,-0.999 -25.06943,3.9348 -50.2453,5.8045 -24.89675,1.8489 -48.93647,2.0529 -49.17999,2.7531 z"/><path style="fill:#ff2a2a;fill-rule:evenodd;stroke:#000;stroke-width:.43508533;stroke-linecap:butt;stroke-linejoin:round;stroke-miterlimit:4;stroke-dasharray:none;stroke-opacity:1" id="path4279" d="m 125.91803,864.81474 -5.92521,0.23176 5.99031,2.54943"/><ellipse style="fill:#b3b3b3;fill-opacity:1;stroke:#000;stroke-width:.5;stroke-miterlimit:4;stroke-dasharray:none;stroke-dashoffset:0" id="path4265" cx="129.129" cy="866.128" rx="5.838" ry="5.882"/><ellipse id="ellipse4267" cx="129.129" cy="866.128" rx="2.262" ry="2.279" style="fill:#e6e6e6;fill-opacity:1;stroke:#000;stroke-width:.25;stroke-miterlimit:4;stroke-dasharray:none;stroke-dashoffset:0"/><path style="fill:none;fill-rule:evenodd;stroke:#000;stroke-width:.25;stroke-linecap:butt;stroke-linejoin:miter;stroke-miterlimit:4;stroke-dasharray:2,1;stroke-dashoffset:0;stroke-opacity:1" id="path4269" d="M 27.652926,911.31961 C 42.414774,887.62734 50.551495,873.95619 61.860242,859.7712"/><path style="fill:none;fill-rule:evenodd;stroke:#000;stroke-width:.25;stroke-linecap:butt;stroke-linejoin:miter;stroke-miterlimit:4;stroke-dasharray:2,1;stroke-dashoffset:0;stroke-opacity:1" id="path4271" d="m 202.15678,862.57975 c 10.14944,15.5463 23.46565,27.3634 34.34518,61.2405"/><path style="fill:none;fill-rule:evenodd;stroke:#000;stroke-width:.25;stroke-linecap:butt;stroke-linejoin:miter;stroke-miterlimit:4;stroke-dasharray:2,1;stroke-dashoffset:0;stroke-opacity:1" id="path4273" d="m 127.11375,955.53466 c 0.87273,-26.79033 1.99077,-52.84469 2.56501,-80.53046"/><path style="fill:none;fill-rule:evenodd;stroke:#000;stroke-width:.25;stroke-linecap:butt;stroke-linejoin:miter;stroke-miterlimit:4;stroke-dasharray:2,1;stroke-dashoffset:0;stroke-opacity:1" id="path4275" d="m 129.71837,931.13011 c -16.80494,-4.94668 -17.60188,-6.74548 -14.42622,-58.2994"/></g></svg>