<svg xmlns="http://www.w3.org/2000/svg" xmlns:svg="http://www.w3.org/2000/svg" id="svg4206" version="1.1" viewBox="0 0 256 256"><style id="style3">svg{cursor:default}</style><metadata id="metadata4211"/><g id="layer4"><g id="g4333" transform="matrix(1.2066521,-0.18041362,0.18000822,1.0573194,-50.521728,-0.50785037)"><path style="fill:#ff2a2a;fill-rule:evenodd;stroke:#000;stroke-width:.87427396px;stroke-linecap:butt;stroke-linejoin:miter;stroke-opacity:1" id="path4393" d="M 62.117409,47.383261 C 61.201849,44.017364 208.21337,39.268529 208.61994,41.355888 157.14843,66.844592 64.907979,68.320045 62.117409,47.383261 Z"/><path style="fill:#1a1a1a;fill-rule:evenodd;stroke:#000;stroke-width:.87427396px;stroke-linecap:butt;stroke-linejoin:miter;stroke-opacity:1" id="path4507" d="m 70.025319,57.322715 c 34.106161,10.859632 79.582371,2.97594 111.481931,-6.80678 z"/><path style="fill:#4d4d4d;fill-rule:evenodd;stroke:#000;stroke-width:.87427396px;stroke-linecap:butt;stroke-linejoin:miter;stroke-opacity:1" id="path4389" d="m 17.564809,230.14276 c 1.55091,1.65488 25.0294,8.87896 46.38821,14.91266 17.17967,4.85313 32.51141,8.83463 33.45951,5.80499 0.582,-1.67344 0.60858,-2.55201 1.52856,-4.77864 2.978441,-16.85195 15.852511,-59.32476 30.499811,-53.44162 2.11395,11.12099 3.16957,31.92277 -1.59057,49.68871 -0.48449,2.38542 -0.78506,4.80222 -1.07715,7.22047 26.40131,6.83521 51.7402,10.91812 75.72291,11.48775 l 1.92827,-7.31409 c 0,0 13.65395,-52.01631 15.24267,-77.4055 0.93212,-14.8962 -0.65197,-29.17809 -1.62526,-46.14358 -1.51535,-26.41393 -6.12943,-72.393821 -6.12943,-72.393821 -60.32271,19.731681 -107.88991,18.788736 -151.450941,7.767498 -1.81134,17.286027 -0.29585,27.706241 -0.96521,37.334363 -0.71942,10.34824 -17.06039,39.30473 -27.30303,69.38394 -5.82176,17.09657 -8.94879,33.79474 -13.63687,52.13034 -0.33377,1.9146 -1.01016,4.88775 -0.99148,5.74653 z"/><path style="fill:#f55;fill-rule:evenodd;stroke:#000;stroke-width:.87427396px;stroke-linecap:butt;stroke-linejoin:miter;stroke-opacity:1" id="path4391" d="m 62.148219,47.647855 -2.33035,18.536859 c 57.366811,23.413569 130.501261,1.148644 152.456761,-5.55816 -0.17937,-5.047139 -0.32146,-13.531205 -3.57448,-19.216879 -28.95511,3.394196 -100.25524,33.18291 -146.551931,6.23818 z"/><path style="fill:none;fill-rule:evenodd;stroke:#333;stroke-width:2.18568492;stroke-linecap:butt;stroke-linejoin:miter;stroke-miterlimit:4;stroke-dasharray:1.09284248,1.09284248;stroke-dashoffset:0;stroke-opacity:1" id="path4395" d="m 78.296359,55.019977 c -1.81856,6.382241 -2.49708,12.110486 -2.7105,17.168752 3.77074,36.008581 7.79277,77.921371 18.55821,104.597891 5.860451,14.52205 15.969141,21.63463 20.096171,25.60142"/><path style="fill:none;fill-rule:evenodd;stroke:#333;stroke-width:2.18568492;stroke-linecap:butt;stroke-linejoin:miter;stroke-miterlimit:4;stroke-dasharray:1.09284248,1.09284248;stroke-dashoffset:0;stroke-opacity:1" id="path4395-5" d="m 155.89764,53.896046 c 0.77615,3.869394 -0.35427,14.085554 -1.35645,19.00426 -5.09406,38.887114 -5.0127,53.784114 -11.45583,82.587434 -1.13714,5.08345 -3.21069,9.67546 -4.42941,14.005 2.25446,2.27015 -6.45877,22.21674 -8.71677,26.10662"/><path style="fill:#000;fill-rule:evenodd;stroke:none;stroke-width:1px;stroke-linecap:butt;stroke-linejoin:miter;stroke-opacity:1" id="path4484" d="m 129.88312,193.14195 c 2.80832,-8.65891 6.43789,-17.76622 9.95161,-25.084 1.75667,-3.6585 3.48392,-6.86875 5.06505,-9.35245 1.58018,-2.4822 3.01596,-4.24175 4.19652,-5.00172 -1.22761,0.70314 -2.72936,2.42552 -4.37982,4.8818 -1.64977,2.45524 -3.44741,5.64203 -5.27495,9.2792 -3.65468,7.27352 -7.43119,16.35261 -10.38965,25.00019 z"/><path style="fill:#4d4d4d;fill-rule:evenodd;stroke:#000;stroke-width:.43713698;stroke-linecap:butt;stroke-linejoin:miter;stroke-miterlimit:4;stroke-dasharray:none;stroke-opacity:1" id="path4488" d="m 115.2956,200.13844 c -6.11732,-11.86608 -22.482671,-20.71081 -15.682707,-36.13315 4.998657,-11.33699 28.382867,-2.68458 31.418357,6.49554 1.58662,4.79835 -0.87475,15.21659 -1.45651,22.74054 -1.71143,-2.10002 -4.74413,-1.635 -7.47862,0.0495 -2.97385,1.83192 -5.63141,5.06171 -6.80052,6.84759 z"/><path style="fill:#333;fill-rule:evenodd;stroke:#000;stroke-width:.43713698;stroke-linecap:butt;stroke-linejoin:miter;stroke-miterlimit:4;stroke-dasharray:none;stroke-opacity:1" id="path4488-1" d="m 117.81441,197.11956 c -5.11139,-10.99854 -19.369131,-19.2155 -16.0885,-29.23765 3.61177,-11.03375 23.33051,-3.96446 25.82583,4.57356 1.30428,4.46273 0.37786,12.48431 -0.28051,19.5614 -1.13363,-0.91379 -7.24402,2.22908 -9.45682,5.10269 z"/><path style="fill:#ff8080;fill-rule:evenodd;stroke:#000;stroke-width:.43713698;stroke-linecap:butt;stroke-linejoin:miter;stroke-miterlimit:4;stroke-dasharray:none;stroke-opacity:1" id="path4505" d="m 201.3076,64.009562 c 0,0 9.93445,70.405098 8.09395,114.508348 -1.15338,27.63816 -5.72338,55.26813 -12.2947,82.06333 l 2.74283,0.18269 c 8.58075,-42.75515 10.5183,-57.88886 11.87217,-81.88844 0.52996,-9.39443 0.61804,-22.64615 0.27814,-33.03026 2.88478,-4.99575 4.67669,-7.06829 6.2054,-9.91999 -0.0632,-2.52623 -0.24284,-3.56407 -0.2724,-4.2529 -0.70213,1.10084 -4.10098,5.19016 -6.41754,8.03499 -1.19065,-22.44856 -3.68311,-46.669899 -7.59138,-76.32262 z"/><path style="fill:none;fill-rule:evenodd;stroke:#333;stroke-width:2.18568492;stroke-linecap:butt;stroke-linejoin:miter;stroke-miterlimit:4;stroke-dasharray:1.09284248,1.09284248;stroke-dashoffset:0;stroke-opacity:1" id="path4395-2-7-6" d="m 128.34728,242.5171 c 26.57826,7.54503 53.28041,10.52343 75.50032,12.17156"/><path style="fill:none;fill-rule:evenodd;stroke:#1a1a1a;stroke-width:2.18568492;stroke-linecap:butt;stroke-linejoin:miter;stroke-miterlimit:4;stroke-dasharray:1.09284248,1.09284248;stroke-dashoffset:0;stroke-opacity:1" id="path4395-2" d="m 59.760349,66.319128 c 20.80628,8.050616 37.74931,10.536186 72.324851,10.418731 14.15497,-0.04809 65.27288,-10.767288 79.25974,-15.837169"/><path style="fill:#ff8080;fill-rule:evenodd;stroke:#000;stroke-width:.44993222;stroke-linecap:butt;stroke-linejoin:miter;stroke-miterlimit:4;stroke-dasharray:none;stroke-opacity:1" id="path4505-6" d="m 64.539849,67.940468 c -0.3984,13.75821 -0.83397,26.068759 -2.69452,36.774462 -1.5354,8.83477 -4.11118,16.37421 -7.82228,24.51226 -6.83172,14.98129 -15.40165,36.44447 -17.20634,41.89819 -9.44611,28.54586 -14.6271,54.36816 -14.6271,54.36816 l -1.81112,5.83498 -1.60164,-0.678 1.93764,-5.87317 c 5.02352,-26.15218 12.01496,-46.2111 14.3975,-54.86661 2.4856,-9.02992 13.57483,-30.44582 17.0286,-40.18175 -0.3189,-0.98229 -0.58801,-2.01193 -0.94895,-3.70801 0.82057,-2.37522 1.0206,-2.33522 1.25678,-2.97865 0.3782,1.28508 0.40842,2.41201 0.68194,4.22115 3.75823,-9.90572 6.43094,-15.82171 7.65448,-23.20574 1.35689,-8.188851 1.07222,-18.159192 1.54477,-36.861049 z"/><path style="fill:none;fill-rule:evenodd;stroke:#333;stroke-width:2.18568492;stroke-linecap:butt;stroke-linejoin:miter;stroke-miterlimit:4;stroke-dasharray:1.09284248,1.09284248;stroke-dashoffset:0;stroke-opacity:1" id="path4395-2-7" d="m 19.231069,224.23754 c 23.83599,8.39077 56.32207,17.49132 79.08039,21.1421"/></g></g></svg>