<svg xmlns="http://www.w3.org/2000/svg" xmlns:svg="http://www.w3.org/2000/svg" xmlns:xlink="http://www.w3.org/1999/xlink" id="svg4206" version="1.1" viewBox="0 0 256 256"><style id="style3">svg{cursor:default}</style><defs id="defs4208"><linearGradient id="linearGradient0"><stop style="stop-color:#f55;stop-opacity:1" id="stop4359" offset="0"/><stop style="stop-color:#ff8080;stop-opacity:1" id="stop4361" offset="1"/></linearGradient><linearGradient id="linearGradient1" x1="126.786" x2="125.714" y1="1064.862" y2="864.505" gradientUnits="userSpaceOnUse" xlink:href="#linearGradient0"/></defs><metadata id="metadata4211"/><g id="layer1" transform="translate(0,-796.36216)" style="display:inline"><path style="fill:#f55;fill-rule:evenodd;stroke:#000;stroke-width:1px;stroke-linecap:butt;stroke-linejoin:miter;stroke-opacity:1" id="path4327" d="m 142.74718,807.87367 c 0.63135,-0.0631 11.23795,0.34725 11.23795,0.34725 1.28374,3.93538 3.76703,5.21068 5.42957,11.80615 -14.58645,8.30984 -17.8016,-8.59745 -16.66752,-12.1534 z"/><path style="fill:#f55;fill-rule:evenodd;stroke:#000;stroke-width:1px;stroke-linecap:butt;stroke-linejoin:miter;stroke-opacity:1" id="path4325" d="m 91.639776,822.58402 c -0.70393,-0.31735 4.512493,-12.51787 4.987629,-14.23683 5.574245,0.60065 10.831395,-0.32645 13.889595,0.44194 1.82461,6.69311 -5.3964,17.69328 -18.877224,13.79489 z"/><path style="fill:#ff8080;fill-rule:evenodd;stroke:#000;stroke-width:1px;stroke-linecap:butt;stroke-linejoin:miter;stroke-opacity:1" id="path4347" d="m 94.985906,812.79817 c 1.985359,0.41108 5.816744,0.41407 8.302194,0.28407 -0.897,4.17453 -1.64255,7.28888 -2.46225,10.92227 l -9.280776,-0.25254 c 0.591934,-4.98329 2.293888,-7.30253 3.440832,-10.9538 z"/><path style="fill:url(#linearGradient1);fill-rule:evenodd;stroke:#000;stroke-width:1px;stroke-linecap:butt;stroke-linejoin:miter;stroke-opacity:1;fill-opacity:1" id="path4323" d="m 102.14286,1047.8979 c 2.95955,0.9834 8.35645,2.0959 14.82143,0.1786 0.31011,-22.6411 1.23437,-43.0689 2.5,-63.21434 0.66392,-10.56775 0.23219,-19.1596 0.65115,-27.17907 0.7422,-14.20717 1.80048,-17.60713 2.03639,-27.23478 0.88921,-36.28881 1.24103,-40.10996 1.4196,-60.76472 0.56292,-5.75248 4.23404,-4.7883 3.92857,-0.53571 0,0 0.65322,44.29978 1.60714,66.42857 0.27669,6.41847 1.40747,11.17163 1.78572,16.78571 0.84064,12.47681 0.30501,24.01946 1.07143,37.5 1.09883,19.32724 2.14285,58.03574 2.14285,58.03574 6.54506,2.544 9.43901,0.027 14.37949,0.3246 0,0 5.27258,-52.41974 5.26337,-78.71748 -0.003,-8.82961 -2.01035,-17.60182 -1.78571,-26.42857 0.78234,-30.74088 10.70813,-60.85687 10.89285,-91.60715 0.064,-10.65523 -3.39285,-31.78571 -3.39285,-31.78571 -9.93005,4.47523 -12.71989,-5.25837 -14.28572,-10.53572 l -35.53571,1.07143 c -1.70798,8.95619 -7.32594,12.58382 -18.125003,11.60715 -0.379781,0.18989 -3.442161,24.71267 -2.946428,36.96428 1.046244,25.85699 8.877843,51.11886 10.178571,76.96429 0.580702,11.53853 -1.230032,23.0908 -1.071429,34.64285 0.252113,18.36289 2.16923,36.66513 3.214289,55.00003 0.42745,7.4994 1.25,22.5 1.25,22.5 z"/><path style="fill:none;fill-rule:evenodd;stroke:#000;stroke-width:.5;stroke-linecap:butt;stroke-linejoin:miter;stroke-miterlimit:4;stroke-dasharray:none;stroke-opacity:1" id="path4329" d="m 128.47878,810.49376 c -1.21803,18.25017 -0.23308,36.89003 -1.95717,55.17958"/><path style="fill:none;fill-rule:evenodd;stroke:#000;stroke-width:.5;stroke-linecap:butt;stroke-linejoin:miter;stroke-miterlimit:4;stroke-dasharray:1,.5;stroke-dashoffset:0;stroke-opacity:1" id="path4331" d="m 124.88011,866.05215 c 0.91353,-0.94643 1.5578,-23.17365 0.82075,-25.06441 l 1.8309,0.12627"/><path style="fill:none;fill-rule:evenodd;stroke:#000;stroke-width:.5;stroke-linecap:butt;stroke-linejoin:miter;stroke-miterlimit:4;stroke-dasharray:1,.5;stroke-dashoffset:0;stroke-opacity:1" id="path4333" d="m 127.48843,843.93844 c -12.20135,-1.68585 -4.73425,-21.64218 -7.21451,-33.19214"/><path style="fill:none;fill-rule:evenodd;stroke:#000;stroke-width:.5;stroke-linecap:butt;stroke-linejoin:miter;stroke-miterlimit:4;stroke-dasharray:1,.5;stroke-dashoffset:0;stroke-opacity:1" id="path4335" d="m 121.62906,810.5907 c 1.77269,11.52783 -5.14736,30.46542 6.02897,32.29108"/><path style="fill:#faa;fill-rule:evenodd;stroke:#000;stroke-width:1px;stroke-linecap:butt;stroke-linejoin:miter;stroke-opacity:1" id="path4341" d="m 99.373757,800.1397 c -1.003917,3.00283 -2.648725,5.72082 -2.967323,9.02824 14.110936,2.25724 21.810776,0.94063 32.459466,1.46675 1.02187,-2.69168 0.34883,-8.28542 -0.38712,-9.80051 -14.68588,0.92927 -18.89828,0.54715 -29.105023,-0.69448 z"/><path style="fill:#faa;fill-rule:evenodd;stroke:#000;stroke-width:1px;stroke-linecap:butt;stroke-linejoin:miter;stroke-opacity:1" id="path4343" d="m 128.35251,801.21298 c 13.97859,0.15772 15.28082,-0.88367 22.91783,-1.32582 l 2.84106,8.46003 -25.56949,1.57836 z"/><path style="fill:none;fill-rule:evenodd;stroke:#000;stroke-width:1px;stroke-linecap:butt;stroke-linejoin:miter;stroke-opacity:1" id="path4345" d="m 120.27129,805.37986 c 0.31567,0 4.92449,-0.56821 4.92449,-0.56821 l -0.25254,1.89404 z"/><path style="fill:#ff8080;fill-rule:evenodd;stroke:#000;stroke-width:.92848021px;stroke-linecap:butt;stroke-linejoin:miter;stroke-opacity:1" id="path4339" d="m 140.32149,800.58696 c 1.25053,3.00001 2.83416,6.21259 3.19458,12.52901 0.34118,0.26424 1.4608,0.32042 2.17769,-0.0758 0.1502,-2.65396 -0.69112,-8.84031 -2.86225,-12.63388 -0.1005,-0.53958 -2.54665,-0.20702 -2.51002,0.1807 z"/><path style="fill:#ff8080;fill-rule:evenodd;stroke:#000;stroke-width:.89299446px;stroke-linecap:butt;stroke-linejoin:miter;stroke-opacity:1" id="path4337" d="m 111.56486,800.65662 c -0.79398,0.34879 -2.68439,11.52018 -2.68205,12.46595 0,0 1.06805,0.70578 2.62788,0.23466 0.0877,-3.27891 2.67004,-12.46751 2.22151,-12.70061 z"/><path style="fill:none;fill-rule:evenodd;stroke:#000;stroke-width:.5;stroke-linecap:butt;stroke-linejoin:miter;stroke-miterlimit:4;stroke-dasharray:none;stroke-opacity:1" id="path4349" d="m 101.96227,1045.4805 c 3.98999,1.9029 12.83765,0.962 15.02602,0.3157"/><path style="fill:none;fill-rule:evenodd;stroke:#000;stroke-width:.5;stroke-linecap:butt;stroke-linejoin:miter;stroke-miterlimit:4;stroke-dasharray:none;stroke-opacity:1" id="path4351" d="m 134.28715,1045.1648 c 5.33983,2.3313 9.8069,0.084 14.71035,0.1263"/><ellipse style="fill:#999;fill-opacity:1;stroke:#000;stroke-width:.5;stroke-miterlimit:4;stroke-dasharray:none;stroke-dashoffset:0" id="path4353" cx="124.576" cy="805.532" rx="2.79" ry="2.679"/><ellipse id="ellipse4355" cx="124.576" cy="805.532" rx="1.081" ry="1.038" style="fill:#e6e6e6;fill-opacity:1;stroke:#000;stroke-width:.19371024;stroke-miterlimit:4;stroke-dasharray:none;stroke-dashoffset:0"/></g></svg>