<svg xmlns="http://www.w3.org/2000/svg" xmlns:svg="http://www.w3.org/2000/svg" xmlns:xlink="http://www.w3.org/1999/xlink" id="svg4206" version="1.1" viewBox="0 0 256 256"><style id="style3">svg{cursor:default}</style><defs id="defs4208"><linearGradient id="linearGradient4390"><stop style="stop-color:#faa;stop-opacity:1" id="stop4392" offset="0"/><stop style="stop-color:#ff8080;stop-opacity:1" id="stop4394" offset="1"/></linearGradient><linearGradient id="linearGradient4382"><stop style="stop-color:#faa;stop-opacity:1" id="stop4384" offset="0"/><stop style="stop-color:#ff8080;stop-opacity:1" id="stop4386" offset="1"/></linearGradient><radialGradient id="radialGradient4388" cx="114.791" cy="933.444" r="31.127" fx="114.791" fy="933.444" gradientTransform="matrix(1.2865689,-0.07413973,0.1758988,3.0524211,-200.1456,-1885.7473)" gradientUnits="userSpaceOnUse" xlink:href="#linearGradient4382"/><radialGradient id="radialGradient4398" cx="183.257" cy="925.601" r="32.757" fx="183.257" fy="925.601" gradientTransform="matrix(1.225145,-0.13358797,0.36926243,3.3865319,-377.7416,-2183.4153)" gradientUnits="userSpaceOnUse" xlink:href="#linearGradient4390"/></defs><metadata id="metadata4211"/><g id="layer1" transform="translate(0,-796.36216)" style="display:inline"><path style="fill:#f55;fill-rule:evenodd;stroke:#000;stroke-width:1.10249996px;stroke-linecap:butt;stroke-linejoin:miter;stroke-opacity:1" id="path4203" d="m 76.315913,803.97967 c -1.999616,7.17365 -3.337903,15.56531 -4.45479,21.85623 21.508525,4.92152 45.419497,8.14092 41.693887,-16.56619 z"/><path style="fill:#ff8080;fill-rule:evenodd;stroke:#000;stroke-width:.82687497;stroke-linecap:butt;stroke-linejoin:miter;stroke-miterlimit:4;stroke-dasharray:none;stroke-opacity:1" id="path4232" d="m 79.587374,813.79409 c 9.237154,1.57805 19.55453,2.1742 23.918856,2.13554 0.42905,3.02382 1.15452,4.88739 0.16476,8.58376 -4.537696,2.40745 -17.280614,0.95305 -25.962978,1.63575 z"/><path style="fill:url(#radialGradient4398);fill-opacity:1;fill-rule:evenodd;stroke:#000;stroke-width:1.10249996px;stroke-linecap:butt;stroke-linejoin:miter;stroke-opacity:1" id="path4207" d="m 124.27431,880.05883 c 7.6601,11.60097 16.9387,22.16668 22.13465,33.96765 l 8.21349,18.65435 c 0.81693,2.3202 0.32623,4.34927 -0.41764,6.96059 -1.24206,4.36021 -0.95057,8.2613 -1.11369,13.50353 -1.87804,16.42698 -0.0521,37.16951 -0.13921,55.26695 0.0928,2.6914 0.18562,5.3829 0.27842,8.0743 l -0.27842,19.2113 c 14.19287,8.5854 34.94213,5.8933 39.95374,1.1832 0.53632,-1.1074 -1.4681,-8.5916 -3.20187,-14.5475 -4.53443,-15.577 -3.65274,-19.2623 -4.17635,-27.42475 -0.6447,-10.05002 2.73784,-16.89102 3.89793,-60.55708 3.69913,-13.9389 -1.17035,-21.6001 -4.17635,-30.62655 -0.62189,-4.07822 -1.15018,-7.91746 -2.43621,-11.69378 -4.3983,-12.91531 -10.35355,-38.02108 -11.69378,-41.48508 -2.62941,-6.79616 -4.92374,-8.56594 -7.3086,-11.69377 1.76028,-4.84483 -3.03567,-10.25162 -5.42926,-15.4525 -5.11148,-6.96188 -3.88918,-6.66067 -4.03714,-12.94668 l -18.51515,1.2529 -0.97448,5.15084 c 3.49803,9.76868 2.19265,26.6659 -2.78423,40.30176 -14.22788,3.17275 -10.15144,13.71379 -7.79585,22.90032 z"/><path style="fill:#f55;fill-rule:evenodd;stroke:#000;stroke-width:1.10249996px;stroke-linecap:butt;stroke-linejoin:miter;stroke-opacity:1" id="path4230" d="m 158.17234,822.84285 c -4.76735,-0.12649 -6.71789,-6.25905 -10.16244,-10.02325 l 6.61255,-0.90487 c 1.02206,6.59906 4.56351,9.40994 3.54989,10.92812 z"/><path style="fill:url(#radialGradient4388);fill-opacity:1;fill-rule:evenodd;stroke:#000;stroke-width:1.10249996px;stroke-linecap:butt;stroke-linejoin:miter;stroke-opacity:1" id="path4205" d="m 71.866079,824.65259 c -1.248823,5.4901 -3.506776,16.44432 2.695679,30.48036 2.029317,7.87557 2.919541,17.09389 4.468763,20.88874 0.590621,20.09062 3.771322,48.04493 5.921451,72.03009 1.245604,13.89497 4.04139,41.65648 4.04139,41.65648 1.315084,13.55514 0.983915,27.03754 5.906247,40.55634 -0.0088,3.4403 1.010276,3.7941 2.165626,3.7405 -2.068628,6.317 3.491165,9.4555 5.610935,14.0274 9.849,-4.0114 20.43099,-4.9315 28.84219,-8.121 1.63002,-2.369 7.62881,-4.8695 0,-12.797 -2.12184,-17.7507 -8.53751,-42.47017 -8.66251,-44.69061 -1.00856,-17.91544 -4.03486,-35.82098 -2.95312,-53.74687 l 1.37812,-22.83751 3.54376,-26.57812 4.13437,-13.19063 2.32259,-5.08087 c 7.06889,-2.20831 8.51516,-21.31189 4.37117,-48.666 -21.41444,-6.57623 -40.599586,-8.13656 -59.062503,-8.07188 10.361675,2.04466 28.580533,2.96413 36.018833,6.29074 -1.3507,7.3701 -3.28553,8.76968 -9.3904,13.02568 -1.06082,0.73955 -6.46273,0.98649 -31.352591,1.08416 z"/><path style="fill:none;fill-rule:evenodd;stroke:#000;stroke-width:.27562499;stroke-linecap:butt;stroke-linejoin:miter;stroke-miterlimit:4;stroke-dasharray:1.1025,.275625;stroke-dashoffset:0;stroke-opacity:1" id="path4238" d="m 71.443491,827.85446 c 14.729114,-2.10822 22.020508,0.46256 33.480399,-2.08817 9.08804,-4.60653 7.13966,-9.55796 10.64969,-14.3388"/><path style="fill:#ff8080;fill-rule:evenodd;stroke:#000;stroke-width:.82687497;stroke-linecap:butt;stroke-linejoin:miter;stroke-miterlimit:4;stroke-dasharray:none;stroke-opacity:1" id="path4201" d="m 76.594316,800.22095 c -1.34559,2.13462 -1.46466,5.71346 -1.531317,8.21348 6.533337,-0.34658 12.958002,-0.75594 20.116082,-0.34803 13.842769,0.78885 30.327279,8.80015 40.858609,7.79587 l 1.74015,-8.90954 c -13.27146,-2.04172 -25.866,-3.26731 -39.327292,-5.49887 -6.729491,-1.11558 -15.386564,-1.4654 -21.856232,-1.25291 z"/><path style="display:inline;fill:none;fill-rule:evenodd;stroke:#000;stroke-width:.27562499;stroke-linecap:butt;stroke-linejoin:miter;stroke-miterlimit:4;stroke-dasharray:.826875,.275625;stroke-dashoffset:0;stroke-opacity:1" id="path4346-4" d="m 74.755418,807.35517 c 29.797712,-3.12542 26.613402,1.44203 59.652182,7.44782"/><path style="fill:none;fill-rule:evenodd;stroke:#000;stroke-width:.27562499;stroke-linecap:butt;stroke-linejoin:miter;stroke-miterlimit:4;stroke-dasharray:.826875,.275625;stroke-dashoffset:0;stroke-opacity:1" id="path4346" d="m 76.176687,801.05621 c 29.278373,0.74018 17.158645,2.30972 59.861003,6.89098"/><path style="fill:#ff8080;fill-rule:evenodd;stroke:#000;stroke-width:.82687497;stroke-linecap:butt;stroke-linejoin:miter;stroke-miterlimit:4;stroke-dasharray:none;stroke-opacity:1" id="path4209" d="m 136.42649,806.88272 c -1.39502,1.06679 -3.17464,9.52211 -1.81674,8.90954 0.50759,-0.22898 20.29112,-2.97266 20.29112,-2.97266 l 0,-6.54294 z"/><path style="display:inline;fill:none;fill-rule:evenodd;stroke:#000;stroke-width:.27562499;stroke-linecap:butt;stroke-linejoin:miter;stroke-miterlimit:4;stroke-dasharray:.826875,.275625;stroke-dashoffset:0;stroke-opacity:1" id="path4400-2" d="m 134.45878,814.04906 c 5.82778,-0.37135 13.06672,-1.30714 20.15976,-2.18458"/><path style="fill:#faa;fill-rule:evenodd;stroke:#000;stroke-width:.82687497;stroke-linecap:butt;stroke-linejoin:miter;stroke-miterlimit:4;stroke-dasharray:none;stroke-opacity:1" id="path4211" d="m 115.17772,818.67311 c 0.19688,0.0985 3.54376,1.03359 3.54376,1.03359 1.26,-5.33203 2.73529,-10.66406 1.96875,-15.9961 l -3.49454,-0.34453 c 0.27336,5.10235 -0.73165,10.20469 -2.01797,15.30704 z"/><path style="display:inline;fill:#faa;fill-rule:evenodd;stroke:#000;stroke-width:.82687497;stroke-linecap:butt;stroke-linejoin:miter;stroke-miterlimit:4;stroke-dasharray:none;stroke-opacity:1" id="path4211-2" d="m 79.187672,810.02293 c 0.196873,0.0985 3.642197,-0.44297 3.642197,-0.44297 0.07872,-5.5289 0.372788,-6.5789 1.968756,-9.64687 l -3.494539,-0.34453 c -2.039923,3.18281 -1.814462,4.93827 -2.116414,10.43437 z"/><path style="fill:none;fill-rule:evenodd;stroke:#000;stroke-width:.27562499;stroke-linecap:butt;stroke-linejoin:miter;stroke-miterlimit:4;stroke-dasharray:.826875,.275625;stroke-dashoffset:0;stroke-opacity:1" id="path4400" d="m 135.96809,808.30367 c 6.19492,0.20694 12.38984,-0.67602 18.58476,-1.05253"/><path style="fill:#faa;fill-rule:evenodd;stroke:#000;stroke-width:.82687497;stroke-linecap:butt;stroke-linejoin:miter;stroke-miterlimit:4;stroke-dasharray:none;stroke-opacity:1" id="path4228" d="m 149.43399,821.67546 2.36249,-0.29532 c 0.35014,-5.77512 0.92763,-11.72972 -1.13203,-15.60235 l -2.31329,0.14766 c 2.67672,5.15737 1.52482,10.46788 1.08283,15.75001 z"/><path style="fill:none;fill-rule:evenodd;stroke:#000;stroke-width:.27562499;stroke-linecap:butt;stroke-linejoin:miter;stroke-miterlimit:4;stroke-dasharray:none;stroke-dashoffset:0;stroke-opacity:1" id="path4234" d="M 87.800865,975.83644 C 89.132122,935.51657 84.785097,878.97306 81.1187,824.37418"/><path style="fill:none;fill-rule:evenodd;stroke:#000;stroke-width:.55124998;stroke-linecap:butt;stroke-linejoin:miter;stroke-miterlimit:4;stroke-dasharray:none;stroke-opacity:1" id="path4236" d="m 74.645361,855.00073 c -1.274149,-10.02592 -0.78863,-19.9452 0.904877,-29.79129"/><path style="fill:none;fill-rule:evenodd;stroke:#000;stroke-width:.27562499;stroke-linecap:butt;stroke-linejoin:miter;stroke-miterlimit:4;stroke-dasharray:none;stroke-opacity:1" id="path4240" d="m 156.52148,1037.9426 c 3.41197,-32.6819 -3.60165,-54.65659 -0.59063,-80.91559 2.02545,-7.48224 3.92043,-14.97897 -0.98436,-23.23124 -0.28892,-21.10503 -17.13465,-43.93307 -26.52545,-66.43839"/><path style="fill:#000;fill-rule:evenodd;stroke:none;stroke-width:1px;stroke-linecap:butt;stroke-linejoin:miter;stroke-opacity:1" id="path4242" d="m 97.058657,1034.6762 c 7.185173,-3.1437 16.225503,-4.5374 24.222603,-3.7815 -7.95008,-1.1203 -17.13931,-0.1148 -24.640701,2.7613 z"/><path style="fill:#000;fill-rule:evenodd;stroke:none;stroke-width:1px;stroke-linecap:butt;stroke-linejoin:miter;stroke-opacity:1" id="path4246" d="m 131.44371,1027.3447 0.0371,-0.55 c -5.48612,-0.1867 -10.50052,1.409 -15.48961,3.2647 5.16488,-1.5268 10.14146,-2.7055 15.41539,-2.1647 l 0.0371,-0.55 z"/><path style="fill:#000;fill-rule:evenodd;stroke:none;stroke-width:1px;stroke-linecap:butt;stroke-linejoin:miter;stroke-opacity:1" id="path4250" d="m 95.522651,1030.4939 c 0.769722,-1.0119 1.965912,-1.6804 3.37417,-2.1846 1.399319,-0.501 2.903969,-0.807 4.217309,-1.1734 -1.32812,0.1818 -2.89195,0.3121 -4.368109,0.6442 -1.467174,0.33 -2.952378,0.8792 -4.049732,1.984 z"/><path style="fill:#000;fill-rule:evenodd;stroke:none;stroke-width:1px;stroke-linecap:butt;stroke-linejoin:miter;stroke-opacity:1" id="path4254" d="m 185.75742,997.38639 c -0.16114,0.3552 -0.32682,0.70675 -0.49659,1.05477 -0.99409,6.58164 -3.46041,12.92424 -5.70497,19.22334 2.43717,-6.1874 5.1338,-12.5088 6.35452,-19.11421 -0.0458,-0.38989 -0.0967,-0.77786 -0.15296,-1.1639 z"/><path style="fill:#000;fill-rule:evenodd;stroke:none;stroke-width:1px;stroke-linecap:butt;stroke-linejoin:miter;stroke-opacity:1" id="path4258" d="m 187.43085,1014.0223 c -0.0259,0.3156 -0.0656,0.627 -0.11727,0.9337 0.67625,3.433 -0.15344,7.3325 -1.16241,10.6819 1.18792,-3.2448 2.26005,-7.1882 1.7627,-10.782 -0.15104,-0.2887 -0.31196,-0.5668 -0.48302,-0.8336 z"/><path style="fill:#ff2a2a;fill-rule:evenodd;stroke:none;stroke-width:1px;stroke-linecap:butt;stroke-linejoin:miter;stroke-opacity:1" id="path4262" d="m 156.25994,964.57497 c 3.05869,-1.29211 6.56262,-3.35031 9.82223,-5.73272 2.8291,-2.48481 5.4029,-5.2169 7.17369,-7.81992 -2.04084,2.38244 -4.83405,4.83317 -7.82725,7.00262 -2.98878,2.61233 -6.26714,4.94679 -9.16867,6.55002 z"/><path style="fill:#ff2a2a;fill-rule:evenodd;stroke:none;stroke-width:1px;stroke-linecap:butt;stroke-linejoin:miter;stroke-opacity:1" id="path4266" d="m 157.26821,955.38856 c 2.97333,-1.06005 5.92634,-3.27624 8.34405,-5.4963 0.0701,-0.0735 0.13971,-0.14693 0.20871,-0.22031 1.14727,-1.21994 2.13901,-2.42174 2.9079,-3.44646 0.76897,-1.02481 1.31701,-1.87516 1.57386,-2.3891 -0.34623,0.45344 -0.97971,1.23642 -1.82478,2.18372 -0.84679,0.94922 -1.90797,2.06581 -3.11483,3.19254 -0.0725,0.0677 -0.14558,0.13546 -0.21913,0.2032 -2.21772,2.33565 -5.00386,4.71338 -7.87578,5.97271 z"/><path style="fill:#ff2a2a;fill-rule:evenodd;stroke:none;stroke-width:1px;stroke-linecap:butt;stroke-linejoin:miter;stroke-opacity:1" id="path4270" d="m 158.44247,946.51314 c 2.88161,-0.53656 5.17507,-1.58236 7.03349,-2.85212 1.9653,-1.61268 3.29151,-3.44994 4.23614,-5.04181 -1.12676,1.48716 -2.58853,3.14386 -4.61443,4.5398 -1.66194,1.38409 -3.82055,2.61337 -6.6552,3.35413 z"/><path style="fill:#000;fill-rule:evenodd;stroke:none;stroke-width:1px;stroke-linecap:butt;stroke-linejoin:miter;stroke-opacity:1" id="path4274" d="m 155.44996,934.82817 c 4.31468,-1.06547 8.7523,-1.04402 13.27778,-1.22928 -4.45207,-0.18225 -9.00306,-0.57799 -13.49724,0.14884 z"/><path style="fill:#ff2a2a;fill-rule:evenodd;stroke:none;stroke-width:1px;stroke-linecap:butt;stroke-linejoin:miter;stroke-opacity:1" id="path4278" d="m 148.74492,907.70983 c 3.39635,1.50087 7.04351,3.27786 10.48398,5.41948 4.56036,2.51748 8.84291,5.67337 11.85433,9.68428 -2.82809,-4.16517 -6.98556,-7.53972 -11.49395,-10.30335 -3.59606,-1.956 -7.36524,-3.5237 -10.84436,-4.80041 z"/><path style="fill:#ff2a2a;fill-rule:evenodd;stroke:none;stroke-width:1px;stroke-linecap:butt;stroke-linejoin:miter;stroke-opacity:1" id="path4282" d="m 145.79179,899.53952 c 3.47069,1.21097 6.53979,3.01995 9.38564,5.13049 4.31289,2.77289 8.22806,6.22712 12.27061,9.53669 -3.83112,-3.49608 -7.60393,-7.1989 -11.79799,-10.22896 -3.06279,-1.9203 -6.2955,-3.49125 -9.85826,-4.43822 z"/><path style="fill:#ff2a2a;fill-rule:evenodd;stroke:none;stroke-width:1px;stroke-linecap:butt;stroke-linejoin:miter;stroke-opacity:1" id="path4286" d="m 141.8543,893.53483 c 4.11525,0.62587 8.14949,2.0715 12.13397,4.00005 4.54161,1.86282 9.08273,4.34809 13.65664,7.02495 -4.41043,-2.9125 -8.83611,-5.66507 -13.30736,-7.81008 -4.16683,-1.69618 -8.32227,-2.8721 -12.48325,-3.21492 z"/><path style="fill:#ff2a2a;fill-rule:evenodd;stroke:none;stroke-width:1px;stroke-linecap:butt;stroke-linejoin:miter;stroke-opacity:1" id="path4290" d="m 136.93242,883.59264 c 4.37053,1.19671 8.66383,2.93148 12.77227,5.11728 5.0449,2.28113 9.90897,5.24068 14.39648,8.76241 -4.27872,-3.77086 -8.99524,-7.03076 -13.9688,-9.63878 -4.31396,-1.92441 -8.75264,-3.36007 -13.19995,-4.24091 z"/><path style="fill:#ff2a2a;fill-rule:evenodd;stroke:none;stroke-width:1px;stroke-linecap:butt;stroke-linejoin:miter;stroke-opacity:1" id="path4294" d="m 134.66836,874.53639 c 3.46718,0.67821 6.70017,1.83963 9.75163,3.32147 4.66045,1.70053 9.07544,4.14977 13.38118,6.91603 -4.05138,-3.0905 -8.30661,-5.935 -12.91011,-8.05723 -3.29896,-1.13875 -6.69315,-1.90891 -10.2227,-2.18027 z"/><path style="fill:#ff2a2a;fill-rule:evenodd;stroke:none;stroke-width:1px;stroke-linecap:butt;stroke-linejoin:miter;stroke-opacity:1" id="path4298" d="m 89.879298,944.72233 c 0.955861,0.49512 1.841062,1.08948 2.695533,1.70896 1.610466,0.53496 3.221509,1.18785 4.884151,1.63791 -1.506287,-0.81636 -2.899484,-1.80684 -4.376867,-2.71922 -1.061763,-0.27699 -2.12089,-0.51048 -3.202817,-0.62765 z"/><path style="fill:#ff2a2a;fill-rule:evenodd;stroke:none;stroke-width:1px;stroke-linecap:butt;stroke-linejoin:miter;stroke-opacity:1" id="path4302" d="m 91.552738,954.46764 c 0.585461,0.22552 1.175505,0.44046 1.771673,0.6408 1.384323,0.0722 2.757751,0.0671 4.134571,-0.0502 -1.373893,-0.11706 -2.714802,-0.34585 -4.038638,-0.64634 -0.617437,0.0333 -1.23955,0.0508 -1.867606,0.0557 z"/><path style="fill:#ff2a2a;fill-rule:evenodd;stroke:none;stroke-width:1px;stroke-linecap:butt;stroke-linejoin:miter;stroke-opacity:1" id="path4306" d="m 92.733979,971.30045 c 1.058351,-0.59689 2.159847,-1.08251 3.273404,-1.52009 1.251035,-0.80251 2.533604,-1.53299 3.814102,-2.31897 -1.377068,0.54488 -2.798884,1.0555 -4.174462,1.63103 -1.018093,0.67982 -2.00008,1.39684 -2.913044,2.20803 z"/><path style="fill:#000;fill-rule:evenodd;stroke:none;stroke-width:1px;stroke-linecap:butt;stroke-linejoin:miter;stroke-opacity:1" id="path4310" d="m 123.10195,984.24498 c 0.0897,-0.76429 0.0971,-1.57843 0.0387,-2.42959 -1.39801,-4.87057 -5.22821,-10.65611 -6.78165,-14.84619 1.35837,4.57763 4.76653,10.04385 5.88746,15.0744 0.34514,0.73177 0.63923,1.46807 0.8555,2.20138 z"/><path style="fill:#000;fill-rule:evenodd;stroke:none;stroke-width:1px;stroke-linecap:butt;stroke-linejoin:miter;stroke-opacity:1" id="path4314" d="m 119.60742,935.37077 c -0.15792,0.14934 -0.31478,0.30146 -0.47057,0.45628 -1.7566,5.61514 -1.99087,12.01179 -1.89193,17.75465 0.0994,-5.76941 0.53779,-12.09287 2.45678,-17.56746 -0.0337,-0.21359 -0.0652,-0.4281 -0.0943,-0.64347 z"/><path style="fill:#000;fill-rule:evenodd;stroke:none;stroke-width:1px;stroke-linecap:butt;stroke-linejoin:miter;stroke-opacity:1" id="path4318" d="m 120.98554,906.23326 0.5502,-0.034 c -0.33559,-2.64545 -2.52889,-4.83822 -3.50333,-6.95507 0.77248,2.62558 2.44518,4.47739 2.40293,7.02305 l 0.5502,-0.034 z"/><path style="fill:#000;fill-rule:evenodd;stroke:none;stroke-width:1px;stroke-linecap:butt;stroke-linejoin:miter;stroke-opacity:1" id="path4322" d="m 163.39229,838.24223 c -4.17553,5.01885 -12.11462,7.70332 -18.68331,8.43635 6.50838,-0.3593 14.82402,-2.66485 19.51045,-7.70741 z"/><path style="fill:#ff2a2a;fill-rule:evenodd;stroke:none;stroke-width:1px;stroke-linecap:butt;stroke-linejoin:miter;stroke-opacity:1" id="path4326" d="m 159.47461,833.29108 c -1.22792,0.52117 -2.52843,1.06274 -3.71348,1.72117 -0.32124,0.25422 -0.63095,0.51799 -0.92411,0.79377 -1.2808,1.20484 -2.20772,2.60405 -2.44991,4.37568 0.45511,-1.70653 1.54875,-2.91 2.87348,-3.86378 0.30884,-0.22235 0.63256,-0.43274 0.96704,-0.63387 0.99581,-0.85882 2.13153,-1.62271 3.24698,-2.39297 z"/><path style="fill:#ff2a2a;fill-rule:evenodd;stroke:none;stroke-width:1px;stroke-linecap:butt;stroke-linejoin:miter;stroke-opacity:1" id="path4330" d="m 157.50585,826.20358 c -2.65197,0.0936 -4.71192,0.9018 -6.45952,2.12753 -0.2785,0.24083 -0.54429,0.49152 -0.79908,0.74992 -1.70711,1.73124 -2.9681,3.86283 -4.25858,5.78504 1.49078,-1.83145 2.88765,-3.77932 4.69755,-5.31251 0.2651,-0.22457 0.53786,-0.4391 0.81974,-0.64206 1.48303,-1.33111 3.37174,-2.3686 5.99989,-2.70792 z"/><path style="fill:#ff2a2a;fill-rule:evenodd;stroke:none;stroke-width:1px;stroke-linecap:butt;stroke-linejoin:miter;stroke-opacity:1" id="path4334" d="m 169.21992,849.04108 c -2.18231,-0.16444 -4.00237,0.004 -5.66975,0.34314 -2.68538,0.76939 -4.97173,2.02964 -7.61932,2.90529 2.80491,-0.74922 4.97432,-1.80307 7.74212,-2.42221 1.58233,-0.48957 3.36033,-0.8246 5.54695,-0.82622 z"/><path style="fill:#faa;fill-rule:evenodd;stroke:#000;stroke-width:1.10249996px;stroke-linecap:butt;stroke-linejoin:miter;stroke-opacity:1" id="path4338" d="m 102.07004,1046.556 0.48724,2.2971 c 10.27702,0.6303 23.25474,-6.6163 29.51288,-6.3343 l 0.27843,-3.4803 c -10.75931,1.8962 -15.63857,4.3791 -30.27855,7.5175 z"/><path style="fill:#faa;fill-rule:evenodd;stroke:#000;stroke-width:1.10249996px;stroke-linecap:butt;stroke-linejoin:miter;stroke-opacity:1" id="path4340" d="m 152.8823,1034.5142 c -0.55948,1.099 -0.28634,1.9206 -0.34803,2.8538 9.16353,5.8872 26.81079,8.4348 41.06744,0.9049 0.611,-1.1115 0.11512,-2.0649 -0.55685,-2.9931 -14.58424,7.7955 -27.6059,5.079 -40.16256,-0.7656 z"/><path style="fill:none;fill-rule:evenodd;stroke:#000;stroke-width:.27562499;stroke-linecap:butt;stroke-linejoin:miter;stroke-miterlimit:4;stroke-dasharray:1.1025,.275625;stroke-dashoffset:0;stroke-opacity:1" id="path4342" d="m 79.462777,815.70359 c -1.211343,0.45062 22.355863,2.85918 24.215623,2.26406"/><path style="fill:none;fill-rule:evenodd;stroke:#000;stroke-width:.27562499;stroke-linecap:butt;stroke-linejoin:miter;stroke-miterlimit:4;stroke-dasharray:1.1025,.275625;stroke-dashoffset:0;stroke-opacity:1" id="path4344" d="m 101.46356,816.09733 c 0.9447,3.98652 0.75124,5.82318 0.5414,7.62891"/><ellipse style="fill:#999;fill-opacity:1;stroke:#000;stroke-width:.82171541;stroke-linecap:round;stroke-linejoin:bevel;stroke-miterlimit:4;stroke-dasharray:none;stroke-dashoffset:0;stroke-opacity:1" id="path4363" cx="319.631" cy="763.513" rx="1.836" ry="2.695" transform="matrix(0.97715472,0.2125292,-0.22902262,0.9734211,0,0)"/><ellipse style="display:inline;fill:#333;fill-opacity:1;stroke:#000;stroke-width:.32163751;stroke-linecap:round;stroke-linejoin:bevel;stroke-miterlimit:4;stroke-dasharray:none;stroke-dashoffset:0;stroke-opacity:1" id="path4363-8" cx="299.781" cy="755.248" rx=".679" ry="1.116" transform="matrix(0.97095381,0.23926701,-0.20332049,0.97911224,0,0)"/><path style="fill:none;fill-rule:evenodd;stroke:#000;stroke-width:.27562499;stroke-linecap:butt;stroke-linejoin:miter;stroke-miterlimit:4;stroke-dasharray:.826875,.275625;stroke-dashoffset:0;stroke-opacity:1" id="path4380" d="m 131.68387,860.54187 c 2.35325,-1.64564 5.10512,-0.24978 7.54592,-6.11012 4.18977,-10.0597 2.38159,-25.43369 -0.10959,-39.45451"/></g></svg>