<svg xmlns="http://www.w3.org/2000/svg" xmlns:svg="http://www.w3.org/2000/svg" id="svg4206" version="1.1" viewBox="0 0 256 256"><style id="style3">svg{cursor:default}</style><metadata id="metadata4211"/><g id="layer1" transform="translate(0,-796.36216)" style="display:inline"><path style="fill:#ff8080;fill-rule:evenodd;stroke:#000;stroke-width:1px;stroke-linecap:butt;stroke-linejoin:miter;stroke-opacity:1" id="path4284" d="m 65.632259,851.37296 c -46.012238,79.35112 -39.409396,91.44929 -59.1140929,137.17393 7.6646229,3.68952 13.6459409,4.48799 20.9648629,7.31531 4.996853,1.93029 8.463577,5.3214 13.605146,7.2776 4.881098,1.857 12.286702,2.3175 16.483072,2.7849 l -0.648589,4.9915 c 25.889459,5.6833 50.015892,6.0567 70.232732,3.6975 27.21756,6.1162 57.95225,0.6872 70.41806,-4.0672 l -0.37064,-4.6218 c 7.49981,-1.0219 13.71581,-1.2488 19.26226,-3.0502 6.34706,-2.0613 8.93458,-5.64264 14.44854,-8.38883 4.63732,-2.3096 12.18829,-3.79896 17.43494,-5.56904 -21.29773,-69.97045 -36.92724,-103.30773 -58.92878,-138.09829 -39.23862,9.27067 -95.550243,6.47266 -123.787511,0.55462 z"/><path style="fill:#faa;fill-rule:evenodd;stroke:#000;stroke-width:1px;stroke-linecap:butt;stroke-linejoin:miter;stroke-opacity:1" id="path4286" d="m 70.450336,825.76838 -5.096044,25.23483 c 46.553528,12.0879 111.473818,7.83276 124.158138,-0.27732 l -4.91074,-25.78943 c -42.71639,5.11836 -80.16182,4.76796 -114.151354,0.83192 z"/><path style="fill:#000;fill-rule:evenodd;stroke:none;stroke-width:1px;stroke-linecap:butt;stroke-linejoin:miter;stroke-opacity:1" id="path4288" d="M 58.163285,1005.9495 C 61.079547,943.85588 72.585962,908.72678 79.832134,856.02644 72.271078,908.57228 60.415461,943.78746 57.164515,1005.8999 Z"/><path style="fill:#000;fill-rule:evenodd;stroke:none;stroke-width:1px;stroke-linecap:butt;stroke-linejoin:miter;stroke-opacity:1" id="path4292" d="m 128.07234,1014.5207 c -0.21277,-45.28437 0.8462,-87.77231 1.67354,-132.45155 -1.16041,44.66373 -2.55299,87.15645 -2.67354,132.45255 z"/><path style="fill:#000;fill-rule:evenodd;stroke:none;stroke-width:1px;stroke-linecap:butt;stroke-linejoin:miter;stroke-opacity:1" id="path4296" d="m 197.792,1005.9582 c -6.53239,-53.65443 -9.21849,-98.17863 -22.75357,-147.5323 13.20698,49.4173 15.55786,93.94553 21.76053,147.6501 z"/></g></svg>