<svg xmlns="http://www.w3.org/2000/svg" xmlns:svg="http://www.w3.org/2000/svg" id="svg4206" version="1.1" viewBox="0 0 256 256"><style id="style3">svg{cursor:default}</style><metadata id="metadata4211"/><g id="layer1" transform="translate(0,-796.36216)" style="display:inline"><path style="fill:#fca;fill-rule:evenodd;stroke:#000;stroke-width:1px;stroke-linecap:butt;stroke-linejoin:miter;stroke-opacity:1" id="path4176" d="M 56.643037,996.60455 C 3.0765699,839.16582 236.82378,840.65567 189.8595,995.11995 l 6.56907,4.38507 5,-15.35715 18.03571,2.85715 c 8.42268,-3.08298 8.48044,-11.67355 5.71429,-18.21429 4.44813,-4.10714 4.4691,-8.21429 -0.35714,-12.32143 6.92621,-5.8444 7.47793,-13.45354 1.78571,-17.5 5.26487,-4.08378 6.56555,-17.05204 0.89286,-19.82142 4.53588,-8.15273 -1.78502,-16.24679 -5.89286,-16.42858 3.85891,-7.73576 -1.2604,-18.67592 -6.96428,-18.92857 0.3277,-10.9642 -7.82072,-15.78836 -13.75,-15.89286 -0.44567,-8.89729 -5.28041,-12.19629 -13.75,-10.53571 -0.0642,-8.74139 -11.03985,-10.25629 -14.10715,-7.85714 -4.75495,-8.67422 -9.51269,-9.2834 -15.17857,-8.39286 -5.84765,-6.33219 -10.51485,-6.54764 -16.42857,-3.39286 -4.47679,-7.59385 -14.58224,-6.57316 -17.85714,-3.75 -3.27496,-4.91531 -13.41563,-7.47595 -18.92857,0.71429 -3.23309,-2.89457 -9.378553,-4.49322 -14.642861,3.03571 -7.013896,-2.40082 -14.178662,-1.11941 -18.749999,8.39286 -4.414238,-1.20676 -13.084768,5.20587 -13.035715,10.89286 -6.843391,-1.96715 -14.570743,3.86023 -14.821428,11.07143 -10.098966,2.63241 -10.814453,7.99881 -10.357143,16.96428 -5.899629,3.59724 -11.015363,10.62794 -10.178571,19.64286 -5.9591,6.66106 -6.864236,15.93963 -2.857143,23.92857 -2.812871,6.68523 -5.311435,13.6032 1.607143,22.32143 -3.283394,2.27919 -3.268355,12.45834 2.142857,15.89286 l 20.357143,34.28575 z"/><path style="display:inline;opacity:1;fill:#ff8080;fill-rule:evenodd;stroke:#000;stroke-width:1px;stroke-linecap:butt;stroke-linejoin:miter;stroke-opacity:1" id="path4182" d="M 34.464286,177.42857 C 21.481469,169.769 12.110998,167.63395 5.8928572,162.60714 c -5.98134905,4.30837 -4.89741049,7.59074 -4.6428575,13.57143 7.1396355,4.43339 13.5773543,9.50761 23.9285723,6.60715 6.17849,-1.65309 5.80448,-0.58648 9.821428,-2.85715 l -0.696339,1.2336 c 0,0 -8.608417,5.48609 -10.950415,12.86085 -2.157075,6.79245 4.325325,34.83412 4.325325,34.83412 7.897943,3.30041 15.626927,-2.76374 15.714286,-6.78571 -10.835328,-15.60838 -9.335991,-17.86931 -6.158086,-35.51931 z" transform="translate(0,796.36216)"/><path style="fill:#f55;fill-rule:evenodd;stroke:#000;stroke-width:1px;stroke-linecap:butt;stroke-linejoin:miter;stroke-opacity:1" id="path4203" d="m 27.857143,946.82645 c -11.976507,-141.8252 210.297047,-137.27483 193.928567,10 l -5.53571,-1.25 C 233.4315,821.37761 22.371143,805.95049 31.428571,946.82645 Z"/><path style="fill:#ffb380;fill-rule:evenodd;stroke:#000;stroke-width:1px;stroke-linecap:butt;stroke-linejoin:miter;stroke-opacity:1" id="path4205" d="M 201.42857,983.79073 C 226.2015,827.37903 -2.2018295,836.29617 53.392857,998.61216 L 60,997.7193 c -51.5213295,-160.38821 172.23865,-151.79257 126.07143,0 l 10.53571,2.3214 z"/><path style="fill:#ff8080;fill-rule:evenodd;stroke:#000;stroke-width:1px;stroke-linecap:butt;stroke-linejoin:miter;stroke-opacity:1" id="path4180" d="m 39.648487,1015.8704 c -9.627357,-14.5107 -7.212653,-25.1465 -2.904188,-33.58758 -3.618854,-1.42812 -6.191224,-4.53474 -1.136422,-7.44987 -8.515084,-0.73944 -11.078609,-20.75415 -11.111678,-32.32488 5.148513,-4.06947 17.88354,-4.10479 22.349625,-0.12627 0.395069,10.52242 -2.757538,29.50488 -8.712566,32.19862 3.454845,1.4554 4.552114,6.04223 0.757615,7.70241 5.008673,4.37732 16.022338,12.33064 22.223356,26.51647 -0.24422,3.795 -16.061997,7.9375 -21.465742,7.0711 z"/><path style="display:inline;opacity:1;fill:#ff8080;fill-rule:evenodd;stroke:#000;stroke-width:1px;stroke-linecap:butt;stroke-linejoin:miter;stroke-opacity:1" id="path4182-5" d="m 215.61352,988.08335 c 9.96495,12.49945 22.2973,18.55585 24.97767,19.62115 6.70033,-3.0732 9.30614,-9.90968 10.2105,-15.8271 -11.34458,-2.89757 -13.6765,-9.77004 -23.39622,-9.27633 -6.38136,0.42971 -7.45552,1.4731 -11.83515,2.9259 10.60093,-9.11852 22.94949,-4.03672 34.06136,-6.49101 -0.29406,-7.28787 0.80097,-16.97133 -4.35403,-18.97654 -22.30514,5.65751 -26.37725,12.31959 -30.62189,18.53724 z"/><path style="fill:#ff8080;fill-rule:evenodd;stroke:#000;stroke-width:1px;stroke-linecap:butt;stroke-linejoin:miter;stroke-opacity:1" id="path4180-0" d="m 223.61852,949.83697 c -0.44746,12.69548 1.10004,18.71411 -8.01564,27.21429 5.00864,-0.11719 4.47739,9.84218 0.64121,9.96322 6.92214,6.3124 8.26914,16.09702 6.06867,27.45652 -5.83706,2.9995 -16.44549,1.3341 -20.05985,-3.4314 1.64294,-10.4009 3.14972,-20.22441 10.60378,-24.59496 -4.45993,-1.81791 -4.44434,-8.17559 -0.27451,-9.0723 -9.75191,-7.15565 -6.03942,-12.20237 -7.97678,-27.9418 0.97198,-3.67654 13.87815,-1.48649 19.01312,0.40643 z"/><path style="fill:#000;fill-rule:evenodd;stroke:none;stroke-width:1px;stroke-linecap:butt;stroke-linejoin:miter;stroke-opacity:1" id="path4207" d="m 46.178012,932.28668 c -4.720728,0.5121 -8.672924,-0.55302 -12.716709,-2.78432 3.849717,2.50369 7.815533,3.97799 12.789643,3.78166 z"/><path style="fill:#000;fill-rule:evenodd;stroke:none;stroke-width:1px;stroke-linecap:butt;stroke-linejoin:miter;stroke-opacity:1" id="path4211" d="m 48.944631,921.17988 c -4.508331,-0.54454 -7.801545,-4.3142 -10.937642,-7.20862 2.751802,2.98158 6.011749,7.2722 10.780638,8.19622 z"/><path style="fill:#000;fill-rule:evenodd;stroke:none;stroke-width:1px;stroke-linecap:butt;stroke-linejoin:miter;stroke-opacity:1" id="path4215" d="m 55.459994,906.65351 c -3.022953,-0.0855 -5.345365,-1.83236 -7.30081,-4.13515 -1.967659,-2.31717 -3.416866,-4.99763 -4.848894,-6.85611 1.24831,1.88886 2.628414,4.75584 4.458904,7.16901 1.834758,2.4188 4.233571,4.54711 7.635054,4.82069 z"/><path style="fill:#000;fill-rule:evenodd;stroke:none;stroke-width:1px;stroke-linecap:butt;stroke-linejoin:miter;stroke-opacity:1" id="path4219" d="m 67.715192,891.14835 c -2.654741,-0.81588 -5.073344,-2.80164 -7.186806,-5.27482 -2.103802,-2.46187 -3.860844,-5.35207 -5.222535,-7.88895 1.210264,2.60668 2.830893,5.60006 4.834958,8.20257 1.995061,2.59082 4.413222,4.8531 7.251901,5.90778 z"/><path style="fill:#000;fill-rule:evenodd;stroke:none;stroke-width:1px;stroke-linecap:butt;stroke-linejoin:miter;stroke-opacity:1" id="path4223" d="m 81.29528,881.58151 c -2.775774,-1.34846 -4.572535,-3.60004 -5.981769,-6.28602 -1.41239,-2.69199 -2.386631,-5.71617 -3.592681,-8.54886 1.036312,2.85649 1.873295,5.9879 3.143678,8.76886 1.273923,2.7887 3.025984,5.32981 5.969694,6.95338 z"/><path style="fill:#000;fill-rule:evenodd;stroke:none;stroke-width:1px;stroke-linecap:butt;stroke-linejoin:miter;stroke-opacity:1" id="path4227" d="m 95.319574,875.42665 c -2.010791,-5.734 -3.987171,-10.15204 -5.535922,-16.00734 1.22716,5.94383 2.899217,10.50479 4.58355,16.31228 z"/><path style="fill:#000;fill-rule:evenodd;stroke:none;stroke-width:1px;stroke-linecap:butt;stroke-linejoin:miter;stroke-opacity:1" id="path4231" d="m 112.49908,871.50514 c -0.52841,-4.66313 -1.71555,-10.38923 -2.26618,-15.11257 0.26451,5.26179 1.03465,10.06153 1.26934,15.19201 z"/><path style="fill:#000;fill-rule:evenodd;stroke:none;stroke-width:1px;stroke-linecap:butt;stroke-linejoin:miter;stroke-opacity:1" id="path4235" d="m 126.00074,871.26898 c 1.16139,-6.33761 1.27821,-9.56122 2.44554,-15.75504 -1.4617,5.98349 -1.9779,9.47124 -3.42412,15.54918 z"/><path style="fill:#000;fill-rule:evenodd;stroke:none;stroke-width:1px;stroke-linecap:butt;stroke-linejoin:miter;stroke-opacity:1" id="path4239" d="m 143.86435,874.63582 c 1.2252,-4.26359 4.15076,-10.70357 6.28489,-14.61471 -2.41693,3.73513 -5.66639,10.06113 -7.23487,14.30243 z"/><path style="fill:#000;fill-rule:evenodd;stroke:none;stroke-width:1px;stroke-linecap:butt;stroke-linejoin:miter;stroke-opacity:1" id="path4243" d="m 157.83633,879.87861 0.18977,0.46259 c 4.8021,-2.14714 7.96857,-8.27261 9.43995,-12.59601 -1.83185,4.33364 -5.23246,9.97261 -9.81949,11.67083 l 0.18977,0.46259 z"/><path style="fill:#000;fill-rule:evenodd;stroke:none;stroke-width:1px;stroke-linecap:butt;stroke-linejoin:miter;stroke-opacity:1" id="path4247" d="m 172.15712,889.18444 c 5.2127,-2.17152 9.57791,-6.08488 13.58468,-9.8109 -4.27732,3.51983 -8.76067,7.07435 -13.94198,8.87692 z"/><path style="fill:#000;fill-rule:evenodd;stroke:none;stroke-width:1px;stroke-linecap:butt;stroke-linejoin:miter;stroke-opacity:1" id="path4251" d="m 185.31793,902.97875 c 5.41574,0.32368 9.28226,-3.12736 12.92451,-6.30635 -3.98835,3.03089 -7.82579,5.93224 -12.83439,5.31041 z"/><path style="fill:#000;fill-rule:evenodd;stroke:none;stroke-width:1px;stroke-linecap:butt;stroke-linejoin:miter;stroke-opacity:1" id="path4255" d="m 194.65698,918.80478 c 4.98869,0.94198 10.34281,-1.20346 14.94967,-2.43441 -4.8588,0.94704 -10.03483,2.67731 -14.73253,1.45827 z"/><path style="fill:#000;fill-rule:evenodd;stroke:none;stroke-width:1px;stroke-linecap:butt;stroke-linejoin:miter;stroke-opacity:1" id="path4259" d="m 199.74594,933.13966 c 4.73732,1.18949 9.27841,-1.00826 13.52251,-2.37461 -4.53256,1.1013 -8.87344,2.84562 -13.24653,1.41345 z"/><path style="fill:#000;fill-rule:evenodd;stroke:none;stroke-width:1px;stroke-linecap:butt;stroke-linejoin:miter;stroke-opacity:1" id="path4263" d="m 202.08659,946.62966 c 1.94541,0.74054 3.83552,0.54249 5.63789,0.0818 1.5156,-0.38737 3.89574,-1.28402 5.41771,-1.67804 -2.04613,0.34012 -3.52835,0.86708 -5.51987,1.18858 -1.81675,0.29329 -3.51271,0.27522 -5.14281,-0.51195 z"/><path style="fill:#000;fill-rule:evenodd;stroke:none;stroke-width:1px;stroke-linecap:butt;stroke-linejoin:miter;stroke-opacity:1" id="path4185" d="m 35.882758,974.53449 c -3.159282,-3.96671 -3.895006,-8.26793 -4.062953,-13.21233 -0.165482,4.87181 0.206376,9.42504 3.260653,13.80925 z"/><path style="fill:#000;fill-rule:evenodd;stroke:none;stroke-width:1px;stroke-linecap:butt;stroke-linejoin:miter;stroke-opacity:1" id="path4189" d="m 37.418184,974.42332 c -0.885573,-2.50352 -0.685078,-5.79716 -1.178961,-8.68174 0.1404,2.71099 -0.364819,6.30103 0.216343,8.9526 z"/><path style="fill:#000;fill-rule:evenodd;stroke:none;stroke-width:1px;stroke-linecap:butt;stroke-linejoin:miter;stroke-opacity:1" id="path4193" d="m 40.26171,973.30492 c 1.41245,-6.78822 0.974902,-13.88829 1.659621,-20.69532 -1.033908,6.91311 -0.903572,13.78665 -2.633529,20.46838 z"/><path style="fill:#000;fill-rule:evenodd;stroke:none;stroke-width:1px;stroke-linecap:butt;stroke-linejoin:miter;stroke-opacity:1" id="path4197" d="m 37.306122,981.96471 c -0.192987,2.18778 -0.648895,3.44077 -0.867949,5.55652 -0.191369,1.84835 -0.04409,3.66093 1.06374,5.62074 -0.953423,-2.02418 -0.912344,-3.81086 -0.569236,-5.5468 0.310117,-1.56904 1.0472,-3.67707 1.364805,-5.4993 z"/><path style="fill:#000;fill-rule:evenodd;stroke:none;stroke-width:1px;stroke-linecap:butt;stroke-linejoin:miter;stroke-opacity:1" id="path4206" d="m 38.53828,982.58454 c 3.421984,3.44274 4.098093,8.30304 4.266934,13.08281 0.164543,-4.65809 -0.124226,-9.84303 -3.533738,-13.76283 z"/><path style="fill:#000;fill-rule:evenodd;stroke:none;stroke-width:1px;stroke-linecap:butt;stroke-linejoin:miter;stroke-opacity:1" id="path4210" d="m 33.167632,979.99113 c -3.488888,5.70454 -4.103808,12.32422 -4.125746,18.70668 0.357328,-6.44698 1.325485,-12.83958 4.965626,-18.1639 z"/><path style="fill:#000;fill-rule:evenodd;stroke:none;stroke-width:1px;stroke-linecap:butt;stroke-linejoin:miter;stroke-opacity:1" id="path4214" d="m 32.703689,976.97953 0.18485,-0.46458 c -2.855796,-0.9592 -5.41127,0.1641 -7.887263,0.96965 2.732695,-0.52714 5.079851,-1.19323 7.517563,-0.0405 l 0.18485,-0.46458 z"/><path style="fill:#000;fill-rule:evenodd;stroke:none;stroke-width:1px;stroke-linecap:butt;stroke-linejoin:miter;stroke-opacity:1" id="path4218" d="m 34.386229,975.11939 c -1.198374,-0.24425 -2.319737,-0.67205 -3.576576,-1.04405 1.065151,0.65111 2.116724,1.41441 3.241952,1.98641 z"/><path style="fill:#000;fill-rule:evenodd;stroke:none;stroke-width:1px;stroke-linecap:butt;stroke-linejoin:miter;stroke-opacity:1" id="path4222" d="m 214.52579,977.56268 c -0.36231,-5.89106 -1.99371,-10.60647 -0.68912,-16.05111 -1.63886,5.40385 -0.33572,10.29631 -0.31032,16.08437 z"/><path style="fill:#000;fill-rule:evenodd;stroke:none;stroke-width:1px;stroke-linecap:butt;stroke-linejoin:miter;stroke-opacity:1" id="path4226" d="m 212.01413,976.32747 c -1.24923,-1.60535 -2.24021,-4.24857 -2.47061,-6.29274 -0.10216,2.05135 0.55882,4.8925 1.63313,6.83922 z"/><path style="fill:#000;fill-rule:evenodd;stroke:none;stroke-width:1px;stroke-linecap:butt;stroke-linejoin:miter;stroke-opacity:1" id="path4230" d="m 216.1076,977.20877 c 0.65599,-2.36014 1.01183,-5.42615 0.94893,-7.80539 -0.26996,2.37168 -0.95746,5.32411 -1.89213,7.47319 z"/><path style="fill:#000;fill-rule:evenodd;stroke:none;stroke-width:1px;stroke-linecap:butt;stroke-linejoin:miter;stroke-opacity:1" id="path4242" d="m 213.56437,986.30482 c -0.33266,2.51706 -1.0624,3.37145 -1.85848,4.97895 -0.78389,1.58286 -1.50388,3.70526 -1.72043,8.61359 0.38361,-4.90866 1.26951,-6.9439 2.15743,-8.37063 0.87752,-1.41003 1.87963,-2.38182 2.40802,-5.05841 z"/><path style="fill:#000;fill-rule:evenodd;stroke:none;stroke-width:1px;stroke-linecap:butt;stroke-linejoin:miter;stroke-opacity:1" id="path4246" d="m 214.44355,986.46785 c -0.13682,2.44168 0.67172,4.2703 1.50759,5.8585 0.83537,1.58726 1.74408,3.01008 1.92614,4.6984 -0.0174,-1.72765 -0.78824,-3.25119 -1.47342,-4.91062 -0.68604,-1.66156 -1.24509,-3.3751 -0.96437,-5.55628 z"/><path style="fill:#000;fill-rule:evenodd;stroke:none;stroke-width:1px;stroke-linecap:butt;stroke-linejoin:miter;stroke-opacity:1" id="path4250" d="m 218.36851,986.63159 c 2.81203,-0.36507 4.59882,-1.02376 6.51568,-1.14659 1.82047,-0.11664 3.60716,0.30092 5.93567,2.2274 -2.21112,-2.04533 -3.9885,-2.67975 -5.94502,-2.72731 -1.87491,-0.0456 -4.03593,0.47832 -6.60491,0.65138 z"/><path style="fill:#000;fill-rule:evenodd;stroke:none;stroke-width:1px;stroke-linecap:butt;stroke-linejoin:miter;stroke-opacity:1" id="path4254" d="m 218.7508,990.16678 c 3.39037,-0.52501 5.59128,-0.0213 8.28098,2.21757 -2.45589,-2.47719 -4.67594,-3.43566 -8.38652,-3.21199 z"/><path style="fill:#000;fill-rule:evenodd;stroke:none;stroke-width:1px;stroke-linecap:butt;stroke-linejoin:miter;stroke-opacity:1" id="path4258" d="m 219.79399,981.63382 c 2.80486,-4.0575 6.75501,-4.92738 11.72035,-5.09624 -4.84106,-0.16463 -9.20223,0.30677 -12.52331,4.50022 z"/><path style="fill:#000;fill-rule:evenodd;stroke:none;stroke-width:1px;stroke-linecap:butt;stroke-linejoin:miter;stroke-opacity:1" id="path4262" d="m 217.72251,977.38699 c 2.12308,-3.41626 4.71335,-5.09207 8.67793,-6.21584 -4.0064,0.79081 -6.94876,2.19353 -9.50481,5.65346 z"/></g></svg>