<svg xmlns="http://www.w3.org/2000/svg" xmlns:svg="http://www.w3.org/2000/svg" id="svg4206" version="1.1" viewBox="0 0 256 256"><style id="style3">svg{cursor:default}</style><metadata id="metadata4211"/><g id="layer4"><path style="opacity:1;fill:#ffb380;fill-rule:evenodd;stroke:#000;stroke-width:.99999994px;stroke-linecap:butt;stroke-linejoin:miter;stroke-opacity:1" id="path4361-2" d="m 202.18126,130.58261 c 2.02398,6.92205 4.57482,7.79706 9.76854,12.91813 6.69214,-1.96623 6.99529,-8.45701 4.60642,-10.9957 -3.9506,-4.106 -10.58041,-5.80106 -14.61827,-5.21064 z"/><path style="opacity:1;fill:#ffb380;fill-rule:evenodd;stroke:#000;stroke-width:.99999994px;stroke-linecap:butt;stroke-linejoin:miter;stroke-opacity:1" id="path4359-5" d="m 200.97597,123.29074 c -1.57444,-1.55794 -2.67053,-2.54771 -6.40667,-3.9485 -3.13381,0.80453 -5.89186,7.50304 -2.76638,8.91218 6.15457,0.92747 7.78117,-1.08422 13.13165,-1.30537 z"/><path style="opacity:1;fill:#333;fill-rule:evenodd;stroke:#000;stroke-width:1px;stroke-linecap:butt;stroke-linejoin:miter;stroke-opacity:1" id="path4410" d="m 103.24713,51.381227 c 20.92063,25.542632 43.56412,49.430293 67.81071,72.520903 11.12274,4.89876 19.06768,2.9227 26.55921,1.38674 l -1.95213,2.56801 c -7.52816,1.87283 -15.28843,3.07384 -25.37765,-2.4653 L 135.94802,96.20869 94.051586,47.529195 Z"/><path style="opacity:1;fill:#ff7f2a;fill-rule:evenodd;stroke:#000;stroke-width:1px;stroke-linecap:butt;stroke-linejoin:miter;stroke-opacity:1" id="path4336-1" d="m 106.14286,51.379469 c -0.66934,-0.101662 -1.52572,0.413648 -1.92682,1.08689 1.25201,3.614348 5.52494,9.275801 11.84945,16.406194 5.93293,6.688904 13.75993,15.381891 21.52161,23.022506 12.92985,12.728171 36.47398,36.104161 42.89915,36.446541 6.89854,0.36762 17.89543,-0.37009 18.20219,-3.89726 0.0793,-0.912 -1.34131,-1.868 -1.89189,-1.25043 -2.82149,3.16476 -13.95807,3.39272 -17.29765,2.78094 -2.08618,-0.38215 -14.8761,-10.7886 -20.4236,-15.90181 -5.1684,-4.76377 -15.60867,-14.829718 -21.90803,-21.682401 -6.47263,-7.041174 -14.00277,-14.919449 -19.78219,-21.854492 -4.66879,-5.602349 -5.99183,-6.487389 -11.24222,-15.156678 z"/><path style="opacity:1;fill:#ffe680;fill-rule:evenodd;stroke:#000;stroke-width:1px;stroke-linecap:butt;stroke-linejoin:miter;stroke-opacity:1" id="path4292-5" d="m 146.14091,42.059155 c -4.30813,-0.02899 -8.45653,2.526172 -9.51631,8.484628 -2.40332,13.51207 17.00191,18.649128 20.2929,5.650065 2.15932,-8.529074 -4.48009,-14.092315 -10.77659,-14.134693 z m 0.0254,1.920958 c 5.39936,0.03454 11.09146,4.569718 9.2398,11.520981 -2.82207,10.594343 -19.46138,6.407868 -17.40051,-4.604579 0.90879,-4.85619 4.46642,-6.940034 8.16071,-6.916402 z"/><path style="opacity:1;fill:#f55;fill-rule:evenodd;stroke:#000;stroke-width:1px;stroke-linecap:butt;stroke-linejoin:miter;stroke-opacity:1" id="path4332" d="m 67.235525,93.650841 c 13.59082,27.944019 18.073242,57.365869 14.795066,82.690279 4.216785,1.88336 8.175329,1.70122 12.123735,1.43808 0.75346,-21.16048 -4.137406,-38.73065 10.685324,-61.7352 z"/><path style="opacity:1;fill:#f55;fill-rule:evenodd;stroke:#000;stroke-width:1px;stroke-linecap:butt;stroke-linejoin:miter;stroke-opacity:1" id="path4334" d="m 143.77944,148.40104 c 10.02303,23.84906 14.28352,32.57571 26.71332,36.77408 16.9692,5.73162 53.16212,-2.69341 71.81771,-7.39592 1.32469,-0.3339 2.09501,-2.70403 3.27141,-4.93358 1.61751,-3.06556 3.49954,-6.36849 4.07475,-8.3174 1.08006,-3.65938 -4.11894,-4.21542 -5.01279,-4.87202 z"/><path style="opacity:1;fill:#ff8080;fill-rule:evenodd;stroke:#000;stroke-width:1px;stroke-linecap:butt;stroke-linejoin:miter;stroke-opacity:1" id="path4330" d="m 92.715915,46.296545 c -19.85976,12.122223 -32.062495,40.614498 -24.966679,48.27879 4.829817,5.544265 18.375095,12.215775 40.176934,25.003425 12.68455,7.43998 22.33048,15.1594 33.96593,28.14958 7.24128,8.08439 22.39807,19.75426 30.45005,21.01143 30.30657,4.7318 63.23646,-2.6958 73.87258,-5.54693 6.34775,-1.70158 4.22168,-8.82579 -0.61646,-11.50473 -22.24152,-12.3153 -30.41209,-15.37388 -47.4675,-27.11829 -1.35345,4.90655 -10.92998,6.38553 -15.82251,5.54692 -5.0971,-0.87365 -12.6785,-5.0666 -24.58523,-15.2038 C 145.279,104.31829 128.38545,87.553136 117.70252,76.579811 103.40007,61.888587 100.35404,56.673179 92.715915,46.296545 Z"/><path style="opacity:1;fill:#ffb380;fill-rule:evenodd;stroke:#000;stroke-width:1px;stroke-linecap:butt;stroke-linejoin:miter;stroke-opacity:1" id="path4336" d="m 94.462556,44.961174 c -0.867023,-0.131746 -1.976349,0.536064 -2.495924,1.40854 1.62181,4.683961 7.156765,12.020836 15.349278,21.261358 7.68526,8.668388 17.67606,18.688737 27.87818,28.437898 16.74874,16.00514 34.27286,30.78349 42.59347,34.25322 8.87102,3.69926 21.38427,-1.07868 21.78161,-5.64965 0.10275,-1.18191 -1.80401,-1.62209 -2.51721,-0.82177 -3.65484,4.10131 -11.85613,4.90167 -16.1821,4.10884 -2.70234,-0.49526 -11.30616,-4.64012 -18.49217,-11.2665 -6.69492,-6.17354 -18.15588,-15.16964 -26.31581,-24.05027 -8.38438,-9.124902 -19.55022,-19.052238 -27.03663,-28.039598 -6.04774,-7.260279 -7.76156,-8.407233 -14.562694,-19.642068 z"/><path style="opacity:1;fill:#ffb380;fill-rule:evenodd;stroke:#000;stroke-width:.99999994px;stroke-linecap:butt;stroke-linejoin:miter;stroke-opacity:1" id="path4361" d="m 201.95491,129.10375 c -2.42968,6.79028 -0.87982,8.99717 0.31355,16.19272 6.57032,2.34131 10.62959,-2.73259 10.18836,-6.19047 -0.78395,-5.64375 -5.15247,-10.91098 -8.76664,-12.80588 z"/><path style="opacity:1;fill:#ffb380;fill-rule:evenodd;stroke:#000;stroke-width:1px;stroke-linecap:butt;stroke-linejoin:miter;stroke-opacity:1" id="path4359" d="m 199.28098,123.42644 c -2.32367,-1.15111 -3.88787,-1.84043 -8.10721,-1.85894 -2.42301,2.32332 -1.17784,11.44604 2.48567,11.74191 6.17242,-1.60011 6.53126,-4.68953 11.31796,-7.29456 z"/><path style="opacity:1;fill:#fca;fill-rule:evenodd;stroke:#000;stroke-width:1px;stroke-linecap:butt;stroke-linejoin:miter;stroke-opacity:1" id="path4239-6-9" d="m 206.53977,127.66835 c -1.04933,-3.50041 -3.10069,-4.17599 -5.38576,-4.96206 -4.51827,4.10033 1.92609,6.70388 5.38576,4.96206 z"/><path style="opacity:1;fill:#ffb380;fill-rule:evenodd;stroke:#000;stroke-width:1px;stroke-linecap:butt;stroke-linejoin:miter;stroke-opacity:1" id="path4393" d="m 93.187087,45.041224 c 0.595146,-3.515264 2.40404,-7.084618 5.07736,-9.876793 l 1.53964,-0.397794 c 1.819473,-0.103651 3.698593,-0.222059 5.239663,-0.02493 l 1.7761,1.524073 -8.111303,9.283881 z"/><path style="opacity:1;fill:#f95;fill-rule:evenodd;stroke:#000;stroke-width:1px;stroke-linecap:butt;stroke-linejoin:miter;stroke-opacity:1" id="path4288-6" d="M 158.31053,49.213369 C 143.58136,43.24237 116.97874,36.352168 99.387107,36.116463 c -5.833781,4.351283 7.899553,12.614838 12.277853,14.329557 7.9791,-3.453304 38.37471,4.468356 42.48444,7.806784 4.57685,1.372031 2.90019,-6.802467 4.16113,-9.039435 z"/><path style="opacity:1;fill:#fca;fill-rule:evenodd;stroke:#000;stroke-width:1px;stroke-linecap:butt;stroke-linejoin:miter;stroke-opacity:1" id="path4286-0" d="m 99.814867,36.14528 c -3.10356,-1.084389 -7.270263,10.632052 -5.143221,12.826238 12.551294,12.94747 55.327364,19.283048 62.059644,14.198626 l 1.57767,-13.441935 C 150.17154,54.27279 127.53751,50.389344 99.814867,36.14528 Z"/></g><g id="layer3" style="opacity:1"><path style="display:inline;fill:#ffb380;fill-rule:evenodd;stroke:#000;stroke-width:1px;stroke-linecap:butt;stroke-linejoin:miter;stroke-opacity:1" id="path4310" d="m 35.967274,46.133067 c 4.656772,-2.228379 6.702304,-2.726748 8.214286,-2.678572 2.568027,0.09938 2.57561,1.639017 3.392857,2.723214 l -13.348214,7.589286 c 0.580074,-2.544431 -0.806864,-3.613602 1.741071,-7.633928 z"/><path style="fill:#f55;fill-rule:evenodd;stroke:#000;stroke-width:1px;stroke-linecap:butt;stroke-linejoin:miter;stroke-opacity:1" id="path4253" d="m 52.275393,176.32422 c 7.07245,17.34965 10.165499,41.63274 19.571706,51.64405 11.722884,12.47701 104.066291,5.88595 106.823631,-0.50508 3.34129,-7.7445 7.32361,-16.12035 5.68211,-22.60216 z"/><path style="fill:#f55;fill-rule:evenodd;stroke:#000;stroke-width:1px;stroke-linecap:butt;stroke-linejoin:miter;stroke-opacity:1" id="path4251" d="m 13.005714,124.04882 c 23.146574,37.847 14.245564,62.06607 15.909902,86.62059 l 6.060915,1.89403 9.343911,-1.89403 C 43.987155,194.28139 43.65301,177.8931 46.340747,162.43462 Z"/><path style="fill:#ff8080;fill-rule:evenodd;stroke:#000;stroke-width:1px;stroke-linecap:butt;stroke-linejoin:miter;stroke-opacity:1" id="path4249" d="M 184.75331,203.94125 C 185.95549,222.76684 82.407236,221.48208 68.437834,208.27029 66.73232,206.65727 56.230693,182.80244 53.431167,178.07869 37.631476,151.4193 21.877469,134.42852 13.637059,125.18525 -4.2898255,105.07665 18.074416,74.321676 32.829957,57.757565 c 4.040802,-4.536078 11.45331,0.332567 25.176941,7.551699 24.659113,12.971595 30.187199,33.714906 63.204552,72.707466 7.64945,9.03379 24.64519,25.8773 37.76771,37.66901 13.0543,11.7304 25.11092,17.86969 25.77415,28.25551 z"/><path style="fill:#ffb380;fill-rule:evenodd;stroke:#000;stroke-width:1px;stroke-linecap:butt;stroke-linejoin:miter;stroke-opacity:1" id="path4255" d="m 34.954867,55.593043 c -11.491193,7.182943 -9.855048,29.004718 2.797267,51.460617 5.531674,9.81786 16.263048,27.85925 25.009284,44.18118 8.809096,16.43924 17.397324,21.54041 22.849009,23.06907 7.234706,2.02863 10.106796,0.46412 16.098553,-2.00926 12.00077,-4.95389 38.44328,-14.6288 38.47135,-16.70023 0.032,-2.36489 -15.16196,-14.8443 -29.44848,-34.69449 C 104.26042,111.90829 92.091633,94.28466 83.788837,84.389466 68.135689,65.734204 41.493887,51.505616 34.954867,55.593043 Z"/><path style="fill:#1a1a1a;fill-rule:evenodd;stroke:#000;stroke-width:1px;stroke-linecap:butt;stroke-linejoin:miter;stroke-opacity:1" id="path4274" d="M 95.342273,171.84735 C 84.08678,137.24599 55.269995,110.74959 37.261917,98.09736 c 6.993069,15.21493 12.887142,22.12916 21.23417,38.42284 7.25967,14.17111 14.528458,25.1472 18.810473,29.16644 6.344515,5.71229 12.145726,5.44824 18.035713,6.16071 z"/><path style="opacity:1;fill:#333;fill-rule:evenodd;stroke:#000;stroke-width:.99999994px;stroke-linecap:butt;stroke-linejoin:miter;stroke-opacity:1" id="path4255-1" d="m 38.690687,58.247967 c -9.21941,5.763049 -9.350617,22.649343 -1.729079,39.29122 24.486578,19.404413 49.684226,48.776223 57.794513,76.169573 15.671599,-3.67195 43.899109,-9.96279 37.155769,-18.62613 -3.97525,-5.1071 -11.27216,-12.31019 -24.83803,-31.1596 C 100.92886,115.38471 88.21318,96.06032 80.329205,86.664001 65.465641,68.949276 44.899862,54.366615 38.690687,58.247967 Z"/><path style="fill:none;fill-rule:evenodd;stroke:#000;stroke-width:1px;stroke-linecap:butt;stroke-linejoin:miter;stroke-opacity:1" id="path4272" d="m 130.7887,156.75807 c 2.81988,-2.20131 7.66195,-3.25656 5.58035,-6.07143"/><path style="opacity:1;fill:#ffb380;fill-rule:evenodd;stroke:#000;stroke-width:.99999988px;stroke-linecap:butt;stroke-linejoin:miter;stroke-opacity:1" id="path4243-9" d="m 118.26584,167.46629 c -5.5956,5.9845 -11.08339,12.89132 -13.67486,19.9755 3.37291,4.81308 8.59082,5.16689 14.33255,5.83537 6.42398,-9.56458 10.30682,-16.40617 9.7615,-21.62324 -1.28835,-3.06848 -1.10013,-3.15445 -2.34453,-5.36074 l 4.12152,3.89304 c 10.74901,1.89558 15.78686,1.87754 29.14404,4.00779 0.99006,-5.03627 0.90267,-7.11118 -2.38086,-8.97291 -10.58172,-2.5485 -15.10346,-3.36882 -24.46117,-2.51511 z"/><path style="opacity:1;fill:#ffb380;fill-rule:evenodd;stroke:#000;stroke-width:.99999988px;stroke-linecap:butt;stroke-linejoin:miter;stroke-opacity:1" id="path4241-3" d="m 124.69644,167.41541 c -5.13486,6.04181 -13.76831,14.07569 -26.951674,11.72331 -3.59575,-3.30702 -8.648413,-11.23234 -2.754943,-14.23322 5.523417,-4.29991 17.334737,-3.55566 27.086857,-0.55623 l 4.63938,-0.62079 c -0.60602,-7.65548 5.66582,-11.62798 11.34176,-17.02432 6.64262,-0.61854 12.05399,6.06002 11.52077,9.77395 -5.55823,7.42122 -15.05075,7.98313 -21.1559,9.37899 z"/><path style="opacity:1;fill:#fca;fill-rule:evenodd;stroke:#000;stroke-width:.99999988px;stroke-linecap:butt;stroke-linejoin:miter;stroke-opacity:1" id="path4239-6" d="m 121.21447,164.18583 c -0.3497,2.26885 1.82995,3.27358 3.91718,3.89558 l 4.96869,-1.64534 c 0.12235,-0.7393 -0.56173,-3.24852 -3.27368,-4.45921 -3.58142,-0.25592 -4.01201,0.80131 -5.61219,2.20897 z"/><path style="fill:#f95;fill-rule:evenodd;stroke:#000;stroke-width:1px;stroke-linecap:butt;stroke-linejoin:miter;stroke-opacity:1" id="path4288" d="M 100.95211,64.639228 C 91.057858,43.662349 45.105675,44.410244 36.239222,48.161115 c -7.169568,5.348793 5.288916,10.077156 10.669736,12.184965 9.806093,-4.244957 36.239222,2.714785 41.289985,6.81853 5.62482,1.686563 11.20353,0.224398 12.753167,-2.525382 z"/><path style="fill:#ffb380;fill-rule:evenodd;stroke:#000;stroke-width:1px;stroke-linecap:butt;stroke-linejoin:miter;stroke-opacity:1" id="path4290" d="m 35.039666,49.360672 c -1.387045,1.357374 -2.221971,10.61604 -1.989163,12.051114 0.839805,5.176726 11.819611,2.396613 27.179842,2.596097 C 38.25122,53.692586 34.155781,56.894725 35.039666,49.360672 Z"/><path style="fill:#fca;fill-rule:evenodd;stroke:#000;stroke-width:1px;stroke-linecap:butt;stroke-linejoin:miter;stroke-opacity:1" id="path4286" d="M 30.368426,54.079495 C 26.554229,52.746514 25.474071,62.982014 34.654141,69.972353 52.2878,83.399835 88.25533,84.079495 96.529133,77.829495 L 100.99342,64.525924 C 98.190083,67.460678 70.752255,72.851631 30.368426,54.079495 Z"/><ellipse style="color:#000;clip-rule:nonzero;display:inline;overflow:visible;visibility:visible;opacity:1;isolation:auto;mix-blend-mode:normal;color-interpolation:sRGB;color-interpolation-filters:linearRGB;solid-color:#000;solid-opacity:1;fill:#ff7f2a;fill-opacity:1;fill-rule:evenodd;stroke:#000;stroke-width:1px;stroke-linecap:butt;stroke-linejoin:miter;stroke-miterlimit:4;stroke-dasharray:none;stroke-dashoffset:0;stroke-opacity:1;color-rendering:auto;image-rendering:auto;shape-rendering:auto;text-rendering:auto;enable-background:accumulate" id="path4327-6" cx="65.431" cy="48.563" rx="1.608" ry="1.161" transform="matrix(0.93288002,0.36018726,-0.34080177,0.94013518,0,0)"/><path style="fill:#ffe680;fill-rule:evenodd;stroke:#000;stroke-width:1px;stroke-linecap:butt;stroke-linejoin:miter;stroke-opacity:1" id="path4292" d="M 40.847198,67.605744 C 36.497,84.768555 62.978612,90.961985 65.786651,74.551057 69.185796,54.685545 44.977249,51.311475 40.847198,67.605744 Z m 22.261282,5.967481 c -2.820325,12.506412 -22.447229,8.106324 -19.49073,-5.344483 3.3469,-15.226963 22.489118,-7.951527 19.49073,5.344483 z"/><ellipse style="color:#000;clip-rule:nonzero;display:inline;overflow:visible;visibility:visible;opacity:1;isolation:auto;mix-blend-mode:normal;color-interpolation:sRGB;color-interpolation-filters:linearRGB;solid-color:#000;solid-opacity:1;fill:#000;fill-opacity:1;fill-rule:evenodd;stroke:none;stroke-width:1px;stroke-linecap:butt;stroke-linejoin:miter;stroke-miterlimit:4;stroke-dasharray:none;stroke-dashoffset:0;stroke-opacity:1;color-rendering:auto;image-rendering:auto;shape-rendering:auto;text-rendering:auto;enable-background:accumulate" id="path4327" cx="73.42" cy="60.326" rx="1.853" ry="1.272" transform="matrix(0.98068086,0.19561454,-0.19561454,0.98068086,0,0)"/><path style="display:inline;fill:#ffe680;fill-rule:evenodd;stroke:#1a1a1a;stroke-width:1px;stroke-linecap:butt;stroke-linejoin:miter;stroke-opacity:1" id="path4312" d="m 60.187757,72.747657 c 2.733245,0.184316 5.351325,0.951103 7.962539,1.335338 0.877881,0.129179 1.784343,2.052716 -0.691647,1.834252 -2.595428,-0.229002 -5.375636,-0.876764 -7.723955,-1.904903 -0.628156,-0.569977 -0.681537,-1.030473 0.453063,-1.264687 z"/><path style="fill:#000;fill-rule:evenodd;stroke:none;stroke-width:1px;stroke-linecap:butt;stroke-linejoin:miter;stroke-opacity:1" id="path4275" d="m 121.31916,164.60718 c -4.3271,-0.47563 -8.92356,-0.28872 -13.01559,1.03568 4.16391,-0.99837 8.70781,-0.83438 12.86829,-0.0466 z"/><path style="fill:#000;fill-rule:evenodd;stroke:none;stroke-width:1px;stroke-linecap:butt;stroke-linejoin:miter;stroke-opacity:1" id="path4279" d="m 121.92423,165.90747 c -5.6514,2.93232 -11.17162,6.24522 -17.54923,6.87824 6.45885,-0.30474 12.17751,-3.3406 17.98649,-5.9789 z"/><path style="fill:#000;fill-rule:evenodd;stroke:none;stroke-width:1px;stroke-linecap:butt;stroke-linejoin:miter;stroke-opacity:1" id="path4283" d="m 122.89317,167.0113 c -0.54265,0.85371 -1.68237,1.15988 -2.62531,1.75656 0.85515,-0.20022 2.40099,-0.28329 3.35233,-1.06996 z"/><path style="fill:#000;fill-rule:evenodd;stroke:none;stroke-width:1px;stroke-linecap:butt;stroke-linejoin:miter;stroke-opacity:1" id="path4287" d="m 125.21569,168.26955 c 0.24383,2.13891 -0.43996,4.01929 -1.60641,5.79779 -1.16779,1.78054 -2.76497,3.38046 -4.23428,4.96837 1.56746,-1.45039 3.31418,-2.96109 4.64125,-4.67789 1.32993,-1.7205 2.29619,-3.71898 2.19664,-6.16309 z"/><path style="fill:#000;fill-rule:evenodd;stroke:none;stroke-width:1px;stroke-linecap:butt;stroke-linejoin:miter;stroke-opacity:1" id="path4291" d="m 129.42357,166.66129 c 1.72396,1.15196 3.95063,1.00902 5.06966,1.29758 -1.32114,-0.73664 -3.02482,-0.73008 -4.45252,-2.08444 z"/><path style="fill:#000;fill-rule:evenodd;stroke:none;stroke-width:1px;stroke-linecap:butt;stroke-linejoin:miter;stroke-opacity:1" id="path4295" d="m 129.71599,164.53033 c 3.45666,-0.67696 6.75751,-2.7442 9.7483,-4.42319 -3.2296,1.42584 -6.54277,3.10962 -9.89456,3.43395 z"/><path style="fill:#000;fill-rule:evenodd;stroke:none;stroke-width:1px;stroke-linecap:butt;stroke-linejoin:miter;stroke-opacity:1" id="path4299" d="m 128.68687,163.0545 0.29685,0.40234 c 1.68124,-1.44724 3.73978,-3.00783 5.65914,-4.15327 -2.07797,0.85231 -4.33839,2.14323 -6.25284,3.34859 l 0.29685,0.40234 z"/><path style="fill:#000;fill-rule:evenodd;stroke:none;stroke-width:1px;stroke-linecap:butt;stroke-linejoin:miter;stroke-opacity:1" id="path4303" d="m 127.90907,162.12026 c -0.11942,-0.51325 -0.01,-0.8588 0.35856,-1.25553 0.34834,-0.37519 0.92016,-0.7589 1.28594,-1.20402 -0.50767,0.34803 -1.05016,0.49436 -1.59389,0.81011 -0.52553,0.30517 -1.03529,0.79163 -1.04733,1.73034 z"/><path style="fill:#000;fill-rule:evenodd;stroke:none;stroke-width:1px;stroke-linecap:butt;stroke-linejoin:miter;stroke-opacity:1" id="path4307" d="m 204.79443,128.55219 c 1.69934,1.77153 1.76761,4.24484 2.08057,6.82281 0.0307,-2.39959 0.3377,-5.22766 -1.31229,-7.46291 z"/><path style="fill:#000;fill-rule:evenodd;stroke:none;stroke-width:1px;stroke-linecap:butt;stroke-linejoin:miter;stroke-opacity:1" id="path4311" d="m 203.45906,128.67194 c 0.27037,0.49282 0.32901,1.05173 0.27793,1.71032 -0.0592,0.76309 -0.19104,1.20111 -0.25485,1.95703 0.1965,-0.5442 0.54075,-1.25676 0.74431,-1.85172 0.21836,-0.63825 0.37122,-1.3727 0.17163,-2.15951 z"/><path style="fill:#000;fill-rule:evenodd;stroke:none;stroke-width:1px;stroke-linecap:butt;stroke-linejoin:miter;stroke-opacity:1" id="path4315" d="m 200.68691,126.75075 c -1.09893,0.14293 -1.91228,0.88324 -2.46906,1.55517 -0.28685,0.34618 -0.52668,0.70084 -0.71813,1.0016 -0.18418,0.28934 -0.34708,0.56779 -0.44615,0.71034 0.1662,-0.0961 0.38536,-0.30545 0.64001,-0.55248 0.25755,-0.24984 0.5495,-0.53624 0.87819,-0.80627 0.67909,-0.55788 1.40886,-0.95347 2.1699,-0.90986 z"/><path style="fill:#000;fill-rule:evenodd;stroke:none;stroke-width:1px;stroke-linecap:butt;stroke-linejoin:miter;stroke-opacity:1" id="path4319" d="m 199.27126,125.515 c -0.52528,0.4455 -1.70095,0.98575 -3.34328,1.13167 1.63256,0.18615 2.96635,-0.0147 3.7835,-0.23379 z"/><path style="fill:#000;fill-rule:evenodd;stroke:none;stroke-width:1px;stroke-linecap:butt;stroke-linejoin:miter;stroke-opacity:1" id="path4323" d="m 199.57895,124.2541 c -2.22786,0.45709 -4.2059,0.11194 -6.45395,-0.30767 2.0908,0.72319 4.13477,1.44806 6.58177,1.29947 z"/><ellipse style="color:#000;clip-rule:nonzero;display:inline;overflow:visible;visibility:visible;opacity:1;isolation:auto;mix-blend-mode:normal;color-interpolation:sRGB;color-interpolation-filters:linearRGB;solid-color:#000;solid-opacity:1;fill:#ff7f2a;fill-opacity:1;fill-rule:evenodd;stroke:#000;stroke-width:1px;stroke-linecap:butt;stroke-linejoin:miter;stroke-miterlimit:4;stroke-dasharray:none;stroke-dashoffset:0;stroke-opacity:1;color-rendering:auto;image-rendering:auto;shape-rendering:auto;text-rendering:auto;enable-background:accumulate" id="path4327-4" cx="79.063" cy="75.554" rx="1.607" ry="1.295"/><ellipse style="color:#000;clip-rule:nonzero;display:inline;overflow:visible;visibility:visible;opacity:1;isolation:auto;mix-blend-mode:normal;color-interpolation:sRGB;color-interpolation-filters:linearRGB;solid-color:#000;solid-opacity:1;fill:#ff7f2a;fill-opacity:1;fill-rule:evenodd;stroke:#000;stroke-width:1px;stroke-linecap:butt;stroke-linejoin:miter;stroke-miterlimit:4;stroke-dasharray:none;stroke-dashoffset:0;stroke-opacity:1;color-rendering:auto;image-rendering:auto;shape-rendering:auto;text-rendering:auto;enable-background:accumulate" id="path4327-9" cx="69.688" cy="96.09" rx="1.451" ry="1.094" transform="matrix(0.96489628,-0.26263126,0.26263126,0.96489628,0,0)"/><ellipse style="color:#000;clip-rule:nonzero;display:inline;overflow:visible;visibility:visible;opacity:1;isolation:auto;mix-blend-mode:normal;color-interpolation:sRGB;color-interpolation-filters:linearRGB;solid-color:#000;solid-opacity:1;fill:#ff7f2a;fill-opacity:1;fill-rule:evenodd;stroke:#000;stroke-width:1px;stroke-linecap:butt;stroke-linejoin:miter;stroke-miterlimit:4;stroke-dasharray:none;stroke-dashoffset:0;stroke-opacity:1;color-rendering:auto;image-rendering:auto;shape-rendering:auto;text-rendering:auto;enable-background:accumulate" id="path4327-7" cx="146.173" cy="89.956" rx="1.523" ry=".849" transform="matrix(0.97675901,-0.21434047,0.12811727,0.99175903,0,0)"/><ellipse style="color:#000;clip-rule:nonzero;display:inline;overflow:visible;visibility:visible;opacity:1;isolation:auto;mix-blend-mode:normal;color-interpolation:sRGB;color-interpolation-filters:linearRGB;solid-color:#000;solid-opacity:1;fill:#ff7f2a;fill-opacity:1;fill-rule:evenodd;stroke:#000;stroke-width:1px;stroke-linecap:butt;stroke-linejoin:miter;stroke-miterlimit:4;stroke-dasharray:none;stroke-dashoffset:0;stroke-opacity:1;color-rendering:auto;image-rendering:auto;shape-rendering:auto;text-rendering:auto;enable-background:accumulate" id="path4327-91" cx="148.998" cy="30.767" rx="1.626" ry="1.058" transform="matrix(0.98274286,0.18497695,-0.2068126,0.97838057,0,0)"/><ellipse style="color:#000;clip-rule:nonzero;display:inline;overflow:visible;visibility:visible;opacity:1;isolation:auto;mix-blend-mode:normal;color-interpolation:sRGB;color-interpolation-filters:linearRGB;solid-color:#000;solid-opacity:1;fill:#ff7f2a;fill-opacity:1;fill-rule:evenodd;stroke:#000;stroke-width:1px;stroke-linecap:butt;stroke-linejoin:miter;stroke-miterlimit:4;stroke-dasharray:none;stroke-dashoffset:0;stroke-opacity:1;color-rendering:auto;image-rendering:auto;shape-rendering:auto;text-rendering:auto;enable-background:accumulate" id="path4327-0" cx="131.378" cy="28.956" rx="1.853" ry="1.272" transform="matrix(0.98068086,0.19561454,-0.19561454,0.98068086,0,0)"/><ellipse style="color:#000;clip-rule:nonzero;display:inline;overflow:visible;visibility:visible;opacity:1;isolation:auto;mix-blend-mode:normal;color-interpolation:sRGB;color-interpolation-filters:linearRGB;solid-color:#000;solid-opacity:1;fill:#ff7f2a;fill-opacity:1;fill-rule:evenodd;stroke:#000;stroke-width:1px;stroke-linecap:butt;stroke-linejoin:miter;stroke-miterlimit:4;stroke-dasharray:none;stroke-dashoffset:0;stroke-opacity:1;color-rendering:auto;image-rendering:auto;shape-rendering:auto;text-rendering:auto;enable-background:accumulate" id="path4327-2" cx="118.203" cy="-3.126" rx="1.853" ry="1.272" transform="matrix(0.89966565,0.43657957,-0.43657957,0.89966565,0,0)"/><ellipse style="color:#000;clip-rule:nonzero;display:inline;overflow:visible;visibility:visible;opacity:1;isolation:auto;mix-blend-mode:normal;color-interpolation:sRGB;color-interpolation-filters:linearRGB;solid-color:#000;solid-opacity:1;fill:#ff7f2a;fill-opacity:1;fill-rule:evenodd;stroke:#000;stroke-width:1px;stroke-linecap:butt;stroke-linejoin:miter;stroke-miterlimit:4;stroke-dasharray:none;stroke-dashoffset:0;stroke-opacity:1;color-rendering:auto;image-rendering:auto;shape-rendering:auto;text-rendering:auto;enable-background:accumulate" id="path4327-25" cx="104.524" cy="2.952" rx=".95" ry="1.254" transform="matrix(0.92444758,0.38130915,-0.09601537,0.99537985,0,0)"/></g></svg>