<svg xmlns="http://www.w3.org/2000/svg" xmlns:osb="http://www.openswatchbook.org/uri/2009/osb" xmlns:svg="http://www.w3.org/2000/svg" xmlns:xlink="http://www.w3.org/1999/xlink" id="svg4206" version="1.1" viewBox="0 0 256 256"><style id="style3">svg{cursor:default}</style><defs id="defs4208"><linearGradient id="linearGradient4573"><stop style="stop-color:#ff8080;stop-opacity:1" id="stop4575" offset="0"/><stop style="stop-color:#faa;stop-opacity:1" id="stop4577" offset="1"/></linearGradient><linearGradient id="linearGradient4565"><stop style="stop-color:#f55;stop-opacity:1" id="stop4567" offset="0"/><stop style="stop-color:#ff8080;stop-opacity:1" id="stop4569" offset="1"/></linearGradient><linearGradient id="linearGradient3517" osb:paint="solid"><stop style="stop-color:#fff;stop-opacity:1" id="stop3515" offset="0"/></linearGradient><linearGradient id="linearGradient3509" osb:paint="solid"><stop style="stop-color:#fff;stop-opacity:1" id="stop3507" offset="0"/></linearGradient><linearGradient id="linearGradient1381"><stop id="stop1373" offset="0" style="stop-color:#f55;stop-opacity:1"/><stop style="stop-color:#ff8080;stop-opacity:1" id="stop1375" offset=".228"/><stop style="stop-color:#ff8080;stop-opacity:1" id="stop1377" offset=".836"/><stop id="stop1379" offset="1" style="stop-color:#faa;stop-opacity:1"/></linearGradient><linearGradient id="linearGradient1351" x1="166.17" x2="123.619" y1="893.974" y2="894.153" gradientTransform="matrix(1.0214902,0,0,1.076345,-3.5294914,-66.536028)" gradientUnits="userSpaceOnUse" xlink:href="#linearGradient1381"/><linearGradient id="linearGradient4571" x1="-289.207" x2="-440.881" y1="873.818" y2="914.476" gradientTransform="translate(159.80613,12.727922)" gradientUnits="userSpaceOnUse" xlink:href="#linearGradient4565"/><linearGradient id="linearGradient4579" x1="-345.422" x2="-303.349" y1="1006.754" y2="802.753" gradientTransform="translate(159.80613,12.727922)" gradientUnits="userSpaceOnUse" xlink:href="#linearGradient4573"/></defs><metadata id="metadata4211"/><g id="layer1" transform="translate(0,-796.36216)" style="display:inline"><g id="g4581" transform="matrix(-0.6200145,0,0,0.6200145,-3.8271146,313.76265)"><path id="path4555" d="m -289.12457,796.42075 c 0,0 -14.2599,7.16047 -20.23465,12.69667 -5.32605,4.93512 -10.11324,10.90378 -12.72793,17.67767 -2.26359,5.8643 -2.04071,12.45284 -2.12132,18.73833 -0.38227,29.809 1.58589,59.93422 7.77818,89.09546 4.81518,22.67604 12.37654,44.9689 22.62742,65.76092 13.12402,26.6197 49.14392,74.2462 49.14392,74.2462 59.4502,-26.408 115.2635,-152.83058 172.887614,-229.45617 L -225.56707,798.15727 Z" style="fill:url(#linearGradient4571);fill-opacity:1;fill-rule:evenodd;stroke:#000;stroke-width:1px;stroke-linecap:butt;stroke-linejoin:miter;stroke-opacity:1"/><path id="path4559" d="m -218.98517,1111.0293 c 10.1697,-13.5009 -3.31404,-39.2369 -21.72813,-38.18 16.95012,8.9514 21.81503,20.6171 21.72813,38.18 z" style="fill:#f55;fill-rule:evenodd;stroke:#000;stroke-width:1px;stroke-linecap:butt;stroke-linejoin:miter;stroke-opacity:1"/><path id="path4557" d="m -268.31887,1100.2151 -6.125,-0.125 c -18.35266,-14.7878 7.62745,-36.1507 32.6783,-26.9027 l 0.53141,2.5099 c -6.52577,-8.6392 -56.92193,2.3392 -27.08471,24.5178 z" style="fill:#f55;fill-rule:evenodd;stroke:#000;stroke-width:1px;stroke-linecap:butt;stroke-linejoin:miter;stroke-opacity:1"/><path id="path4549" d="m -244.34201,1074.1109 c 2.87163,3.7036 9.7322,3.2668 14.07519,2.5732 5.8942,-0.9414 12.16016,1.7906 18.47316,12.1976 11.42098,18.8275 7.8774,37.5863 2.74004,58.5131 l 3.00521,7.6014 c 7.88737,-23.4641 11.29886,-44.6921 -2.20971,-68.501 -3.40939,-6.0091 -10.9314,-9.2563 -19.3759,-10.8869 -3.72869,-0.72 -8.42769,-0.6167 -11.55741,-3.3797 -2.13126,0.6881 -2.07104,0.8336 -5.15058,1.8823 z" style="fill:#ff8080;fill-opacity:1;fill-rule:evenodd;stroke:#000;stroke-width:1px;stroke-linecap:butt;stroke-linejoin:miter;stroke-opacity:1"/><path id="path4551" d="m -242.39119,1072.8342 c -10.68187,4.1798 -29.24221,28.3905 -31.35381,27.2917 l 8.57995,0.6731 23.94696,-27.663 z" style="fill:#ff8080;fill-rule:evenodd;stroke:#000;stroke-width:1px;stroke-linecap:butt;stroke-linejoin:miter;stroke-opacity:1"/><path id="path4547" d="m -235.99689,1070.305 c -0.9644,-0.2067 -17.62263,8.1841 -21.06676,17.175 -6.55257,17.1054 -7.65685,39.6228 -13.69391,56.9169 -6.55375,18.7743 -11.40775,33.7276 -11.40775,33.7276 l 6.89429,-1.7678 c 0,0 0.69674,-15.504 6.31155,-30.2888 7.5225,-19.8081 12.10001,-36.7299 16.69912,-57.4665 2.13598,-9.6308 15.59421,-18.7649 16.26346,-18.2964 z" style="fill:#faa;fill-rule:evenodd;stroke:#000;stroke-width:1px;stroke-linecap:butt;stroke-linejoin:miter;stroke-opacity:1"/><path id="path4553" d="m -244.35128,1074.3542 4.239,-2.1578 c 6.90596,2.5572 16.0447,3.8257 20.40647,7.8511 10.44043,9.6352 7.96976,26.7615 6.50036,32.7272 l -6.00859,-1.1157 c 0,0 2.27344,-20.4959 -3.03138,-27.7522 -4.53024,-6.1968 -22.10586,-9.5526 -22.10586,-9.5526 z" style="fill:#ff8080;fill-rule:evenodd;stroke:#000;stroke-width:1px;stroke-linecap:butt;stroke-linejoin:miter;stroke-opacity:1"/><path id="path4545" d="m -244.49169,1074.2506 c 12.46815,-7.1998 34.65391,-14.9412 43.31981,-29.3131 8.17359,-13.5554 -3.63512,-64.69299 -6.01041,-99.70202 -1.23915,-18.26359 -9.40311,-56.66192 -18.20801,-80.25662 -4.07095,-10.90903 -15.05493,-29.86926 -23.33452,-45.25483 -6.97136,-12.95456 -40.48186,-23.33453 -40.48186,-23.33453 25.67296,0.81615 43.98573,-1.91209 63.63961,-3.88909 24.13841,-2.4281 31.82687,4.32165 45.60839,6.71752 42.0675,7.31327 67.41715,29.21299 109.415264,45.22298 -0.88471,39.14677 -79.487674,199.33409 -173.948274,229.80969 z" style="fill:url(#linearGradient4579);fill-opacity:1;fill-rule:evenodd;stroke:#000;stroke-width:1px;stroke-linecap:butt;stroke-linejoin:miter;stroke-opacity:1"/><path id="path4561" d="m -241.06887,1072.3401 c -14.92629,-20.8784 -32.36882,-42.9446 -45.22701,-66.2749 -11.1546,-20.23926 -20.05557,-42.90637 -24.5602,-64.91893 -5.82085,-28.44449 -10.42023,-58.1874 -10.44548,-82.05555 -0.0306,-28.88035 -2.28407,-42.08771 34.60769,-62.00064" style="fill:none;fill-rule:evenodd;stroke:#000;stroke-width:.5;stroke-linecap:butt;stroke-linejoin:miter;stroke-miterlimit:4;stroke-dasharray:2,2;stroke-dashoffset:0;stroke-opacity:1"/><path id="path4563" d="m -282.94387,796.59008 c 13.09349,1.54391 25.72173,7.76467 34.25,16.5 8.04673,8.2421 10.54233,15.74014 14.54791,24.65962 3.7065,8.25352 9.0653,17.8679 12.70945,26.97426 9.04362,22.59911 12.99701,46.49626 16.96231,70.51257 2.62872,15.92116 2.40427,25.11483 4.90741,44.60328 2.48895,19.37792 6.75551,45.90529 2.49792,61.37529 -2.98518,10.8467 -14.125,16.875 -14.125,16.875" style="fill:none;fill-rule:evenodd;stroke:#000;stroke-width:.5;stroke-linecap:butt;stroke-linejoin:miter;stroke-miterlimit:4;stroke-dasharray:none;stroke-opacity:1"/></g></g></svg>