<svg xmlns="http://www.w3.org/2000/svg" xmlns:svg="http://www.w3.org/2000/svg" xmlns:xlink="http://www.w3.org/1999/xlink" id="svg4206" version="1.1" viewBox="0 0 256 256"><style id="style3">svg{cursor:default}</style><defs id="defs4208"><linearGradient id="innoGrad1"><stop style="stop-color:#ff8080;stop-opacity:1" id="stop2935" offset="0"/><stop style="stop-color:#fca;stop-opacity:1" id="stop2937" offset="1"/></linearGradient><radialGradient id="radialGradient2941" cx="120.623" cy="175.773" r="107.525" fx="120.623" fy="175.773" gradientTransform="matrix(0.976505,-0.0112715,0.01058833,0.9173175,2.9938887,-0.36173449)" gradientUnits="userSpaceOnUse" xlink:href="#innoGrad1"/></defs><metadata id="metadata4211"/><g id="layer3" style="display:inline;opacity:1"><g id="g4684" transform="matrix(1.1025,0,0,1.1025,-9.9475279,-10.37564)"><path id="path4176-5" d="M 56.805619,204.7414 C 3.2391495,47.302674 237.31783,49.322854 190.35355,203.78713 c 7.51159,6.37881 16.3738,3.8249 16.05855,-5.38491 3.4348,0.0184 12.24247,-3.5502 11.41807,-10.74146 6.16716,-0.32175 9.6875,-6.43494 7.82035,-11.79384 4.44813,-4.10714 4.4691,-8.21429 -0.35714,-12.32143 6.92621,-5.8444 7.47793,-13.45354 1.78571,-17.5 5.26487,-4.08378 6.56555,-17.05204 0.89286,-19.82142 4.53588,-8.15273 -1.78502,-16.24679 -5.89286,-16.42858 3.85891,-7.73576 -1.2604,-18.675916 -6.96428,-18.928566 0.3277,-10.9642 -7.82072,-15.78836 -13.75,-15.89286 -0.44567,-8.89729 -5.28041,-12.19629 -13.75,-10.53571 -0.0642,-8.74139 -11.03985,-10.25629 -14.10715,-7.85714 -4.75495,-8.67422 -9.51269,-9.2834 -15.17857,-8.39286 -5.84765,-6.33219 -10.51485,-6.54764 -16.42857,-3.39286 -4.47679,-7.59385 -14.58224,-6.57316 -17.85714,-3.75 -3.27496,-4.91531 -13.41563,-7.47595 -18.92857,0.71429 -3.23309,-2.89457 -9.378562,-4.49322 -14.642872,3.03571 -7.0139,-2.40082 -14.17866,-1.11941 -18.75,8.39286 -4.41424,-1.20676 -13.08477,5.20587 -13.03572,10.89286 -6.84339,-1.96715 -14.57074,3.86023 -14.82142,11.07143 -10.09897,2.63241 -10.81446,7.99881 -10.35715,16.96428 -5.89963,3.59724 -11.01536,10.627936 -10.17857,19.642856 -5.9591,6.66106 -6.86423,15.93963 -2.85714,23.92857 -2.81287,6.68523 -5.31144,13.6032 1.60714,22.32143 -3.28339,2.27919 -2.793142,13.17898 4.196431,15.98215 0,0 -2.447645,10.38508 8.916571,12.40539 0,0 -3.406416,7.98378 6.695109,10.7617 0.165832,8.96911 1.487347,12.41192 14.91843,7.58238 z" style="display:inline;opacity:1;fill:url(#radialGradient2941);fill-opacity:1;fill-rule:evenodd;stroke:#000;stroke-width:.69999999;stroke-linecap:butt;stroke-linejoin:miter;stroke-miterlimit:4;stroke-dasharray:4.2,.7;stroke-dashoffset:0;stroke-opacity:1"/><path id="path4205-0" d="M 201.90052,190.86692 C 226.67345,34.455224 -1.7298913,43.372364 53.864798,205.68835 l 6.60714,-0.89286 C 8.9506087,44.407284 235.76,53.268089 189.59278,205.06066 l 7.48631,2.05623 z" style="display:inline;opacity:1;fill:#ffd5d5;fill-rule:evenodd;stroke:#000;stroke-width:1px;stroke-linecap:butt;stroke-linejoin:miter;stroke-opacity:1"/><path id="path4207-5" d="m 46.649951,139.36287 c -4.720727,0.5121 -8.672921,-0.55302 -12.716713,-2.78432 3.849724,2.50369 7.815538,3.97799 12.789647,3.78166 z" style="display:inline;opacity:1;fill:#000;fill-rule:evenodd;stroke:none;stroke-width:1px;stroke-linecap:butt;stroke-linejoin:miter;stroke-opacity:1"/><path id="path4211-7" d="m 49.338068,128.74987 0.0785,-0.4938 c -4.508334,-0.54454 -7.801541,-4.3142 -10.937642,-7.20862 2.751805,2.98158 6.011746,7.2722 10.780638,8.19622 l 0.0785,-0.4938 z" style="display:inline;opacity:1;fill:#000;fill-rule:evenodd;stroke:none;stroke-width:1px;stroke-linecap:butt;stroke-linejoin:miter;stroke-opacity:1"/><path id="path4215-6" d="m 55.931931,113.7297 c -3.022955,-0.0855 -5.345367,-1.83236 -7.300812,-4.13515 -1.967658,-2.31717 -3.416864,-4.99763 -4.848891,-6.85611 1.248309,1.88886 2.628412,4.75584 4.458901,7.16901 1.834758,2.4188 4.233571,4.54711 7.635056,4.82069 z" style="display:inline;opacity:1;fill:#000;fill-rule:evenodd;stroke:none;stroke-width:1px;stroke-linecap:butt;stroke-linejoin:miter;stroke-opacity:1"/><path id="path4219-0" d="m 68.187129,98.224546 c -2.654743,-0.81588 -5.073345,-2.801637 -7.186806,-5.274818 -2.103802,-2.461877 -3.860842,-5.352074 -5.222535,-7.888954 1.210266,2.606685 2.830893,5.600063 4.834958,8.202571 1.99506,2.590815 4.41322,4.853101 7.251901,5.907777 z" style="display:inline;opacity:1;fill:#000;fill-rule:evenodd;stroke:none;stroke-width:1px;stroke-linecap:butt;stroke-linejoin:miter;stroke-opacity:1"/><path id="path4223-0" d="m 81.767217,88.657704 c -2.775774,-1.348455 -4.572535,-3.600036 -5.98177,-6.286016 -1.41239,-2.691994 -2.386631,-5.716179 -3.592679,-8.548864 1.03631,2.856487 1.873293,5.987903 3.143676,8.768856 1.273924,2.788703 3.025985,5.32981 5.969695,6.953384 z" style="display:inline;opacity:1;fill:#000;fill-rule:evenodd;stroke:none;stroke-width:1px;stroke-linecap:butt;stroke-linejoin:miter;stroke-opacity:1"/><path id="path4227-0" d="m 95.791514,82.502845 c -2.010789,-5.734002 -3.98717,-10.152039 -5.535926,-16.007341 1.227165,5.943829 2.899223,10.50479 4.583554,16.312279 z" style="display:inline;opacity:1;fill:#000;fill-rule:evenodd;stroke:none;stroke-width:1px;stroke-linecap:butt;stroke-linejoin:miter;stroke-opacity:1"/><path id="path4231-6" d="m 112.97103,78.581336 c -0.52841,-4.663128 -1.71555,-10.389237 -2.26618,-15.112572 0.26451,5.261791 1.03465,10.061529 1.26934,15.192008 z" style="display:inline;opacity:1;fill:#000;fill-rule:evenodd;stroke:none;stroke-width:1px;stroke-linecap:butt;stroke-linejoin:miter;stroke-opacity:1"/><path id="path4235-7" d="m 125.9834,78.242244 0.48929,0.102929 c 1.16139,-6.337606 1.27821,-9.561219 2.44554,-15.755039 -1.4617,5.983485 -1.9779,9.471241 -3.42412,15.549181 l 0.48929,0.102929 z" style="display:inline;opacity:1;fill:#000;fill-rule:evenodd;stroke:none;stroke-width:1px;stroke-linecap:butt;stroke-linejoin:miter;stroke-opacity:1"/><path id="path4239-0" d="m 144.3363,81.712017 c 1.2252,-4.263591 4.15076,-10.703575 6.28489,-14.614713 -2.41693,3.735129 -5.66639,10.06113 -7.23487,14.302427 z" style="display:inline;opacity:1;fill:#000;fill-rule:evenodd;stroke:none;stroke-width:1px;stroke-linecap:butt;stroke-linejoin:miter;stroke-opacity:1"/><path id="path4243-9" d="m 158.49805,87.417391 c 4.8021,-2.147138 7.96857,-8.272609 9.43995,-12.596007 -1.83185,4.333644 -5.23246,9.972608 -9.81949,11.670833 z" style="display:inline;opacity:1;fill:#000;fill-rule:evenodd;stroke:none;stroke-width:1px;stroke-linecap:butt;stroke-linejoin:miter;stroke-opacity:1"/><path id="path4247-8" d="m 172.62907,96.260639 c 5.2127,-2.171527 9.57791,-6.084883 13.58468,-9.810905 -4.27732,3.519834 -8.76067,7.074347 -13.94198,8.876915 z" style="display:inline;opacity:1;fill:#000;fill-rule:evenodd;stroke:none;stroke-width:1px;stroke-linecap:butt;stroke-linejoin:miter;stroke-opacity:1"/><path id="path4251-0" d="m 185.83494,109.55697 -0.0451,0.49797 c 5.41574,0.32368 9.28226,-3.12736 12.92451,-6.30635 -3.98835,3.03089 -7.82579,5.93224 -12.83439,5.31041 l -0.0451,0.49797 z" style="display:inline;opacity:1;fill:#000;fill-rule:evenodd;stroke:none;stroke-width:1px;stroke-linecap:butt;stroke-linejoin:miter;stroke-opacity:1"/><path id="path4255-1" d="m 195.12893,125.88097 c 4.98869,0.94198 10.34281,-1.20346 14.94967,-2.43441 -4.8588,0.94704 -10.03483,2.67731 -14.73253,1.45827 z" style="display:inline;opacity:1;fill:#000;fill-rule:evenodd;stroke:none;stroke-width:1px;stroke-linecap:butt;stroke-linejoin:miter;stroke-opacity:1"/><path id="path4259-2" d="m 200.21789,140.21585 c 4.73732,1.18949 9.27841,-1.00826 13.52251,-2.37461 -4.53256,1.1013 -8.87344,2.84562 -13.24653,1.41345 z" style="display:inline;opacity:1;fill:#000;fill-rule:evenodd;stroke:none;stroke-width:1px;stroke-linecap:butt;stroke-linejoin:miter;stroke-opacity:1"/><path id="path4263-6" d="m 202.55854,153.70585 c 1.94541,0.74054 3.83552,0.54249 5.63789,0.0818 1.5156,-0.38737 3.89574,-1.28402 5.41771,-1.67804 -2.04613,0.34012 -3.52835,0.86708 -5.51987,1.18858 -1.81675,0.29329 -3.51271,0.27522 -5.14281,-0.51195 z" style="display:inline;opacity:1;fill:#000;fill-rule:evenodd;stroke:none;stroke-width:1px;stroke-linecap:butt;stroke-linejoin:miter;stroke-opacity:1"/><path id="path4263-6-7" d="m 203.55781,164.58804 c 1.94541,0.74054 3.83552,0.54249 5.63789,0.0818 1.5156,-0.38737 3.89574,-1.28402 5.41771,-1.67804 -2.04613,0.34012 -3.52835,0.86708 -5.51987,1.18858 -1.81675,0.29329 -3.51271,0.27522 -5.14281,-0.51195 z" style="display:inline;opacity:1;fill:#000;fill-rule:evenodd;stroke:none;stroke-width:1px;stroke-linecap:butt;stroke-linejoin:miter;stroke-opacity:1"/><path id="path4263-6-0" d="m 203.27512,177.3716 c 1.37179,1.00695 2.68943,0.76183 3.85765,0.21997 0.82302,-0.38175 2.64483,-1.58309 3.4538,-1.96449 -1.4517,0.48411 -2.2232,1.08664 -3.6214,1.53953 -1.17797,0.38155 -2.16991,0.3528 -3.11609,-0.50585 z" style="display:inline;opacity:1;fill:#000;fill-rule:evenodd;stroke:none;stroke-width:.88921803px;stroke-linecap:butt;stroke-linejoin:miter;stroke-opacity:1"/><path id="path4263-6-1" d="m 201.90052,190.86692 c 1.06376,0.51683 2.08927,0.38416 3.04746,0.0801 0.76296,-0.24209 2.10781,-0.86315 2.86956,-1.10826 -1.12368,0.24224 -1.85621,0.58904 -2.94626,0.81734 -0.96719,0.20256 -1.8465,0.1905 -2.68494,-0.31873 z" style="display:inline;opacity:1;fill:#000;fill-rule:evenodd;stroke:none;stroke-width:.59764332px;stroke-linecap:butt;stroke-linejoin:miter;stroke-opacity:1"/><path id="path4263-6-4" d="m 44.788982,156.71364 c -1.630099,0.78717 -3.326058,0.80524 -5.14281,0.51195 -1.991516,-0.3215 -3.473739,-0.84846 -5.519869,-1.18858 1.521969,0.39402 3.902112,1.29067 5.417714,1.67804 1.802361,0.46066 3.69248,0.65871 5.637887,-0.0818 z" style="display:inline;opacity:1;fill:#000;fill-rule:evenodd;stroke:none;stroke-width:1px;stroke-linecap:butt;stroke-linejoin:miter;stroke-opacity:1"/><path id="path4263-6-7-1" d="m 45.753998,170.98869 c -1.630099,0.78717 -3.326058,0.80524 -5.14281,0.51195 -1.991516,-0.3215 -3.473739,-0.84846 -5.519869,-1.18858 1.521969,0.39402 3.902112,1.29067 5.417714,1.67804 1.802361,0.46066 3.69248,0.65871 5.637887,-0.0818 z" style="display:inline;opacity:1;fill:#000;fill-rule:evenodd;stroke:none;stroke-width:1px;stroke-linecap:butt;stroke-linejoin:miter;stroke-opacity:1"/><path id="path4263-6-0-8" d="m 47.928343,184.06855 -0.286976,-0.35542 c -0.946187,0.85865 -1.93812,0.8874 -3.116091,0.50585 -1.398201,-0.45289 -2.169704,-1.05542 -3.621403,-1.53953 0.808967,0.3814 2.630781,1.58274 3.453804,1.96449 1.168215,0.54186 2.485851,0.78698 3.857642,-0.21997 l -0.286976,-0.35542 z" style="display:inline;opacity:1;fill:#000;fill-rule:evenodd;stroke:none;stroke-width:.88921803px;stroke-linecap:butt;stroke-linejoin:miter;stroke-opacity:1"/><path id="path4263-6-1-0" d="m 50.37553,195.3362 c -0.838436,0.50923 -1.717744,0.52129 -2.684936,0.31873 -1.090047,-0.2283 -1.822581,-0.5751 -2.946262,-0.81734 0.761754,0.24511 2.106596,0.86617 2.869556,1.10826 0.958191,0.30403 1.983701,0.4367 3.047466,-0.0801 z" style="display:inline;opacity:1;fill:#000;fill-rule:evenodd;stroke:none;stroke-width:.59764332px;stroke-linecap:butt;stroke-linejoin:miter;stroke-opacity:1"/><path id="path4176-5-5" d="m 49.585265,206.30646 c -4.156077,-2.57589 -4.917324,-7.2641 -4.075297,-10.49327 -6.833595,-2.93457 -4.961133,-11.5648 -4.961133,-11.5648 -9.540902,-2.52034 -7.122969,-12.99097 -7.122969,-12.99097 -6.705431,-2.38761 -9.252381,-9.15883 -4.458345,-13.81812 -5.484459,-5.95003 -6.328505,-14.85674 1.127153,-20.66168 -6.129939,-11.91501 2.862564,-21.33407 2.862564,-21.33407 -1.757401,-12.78003 7.400623,-16.96878 7.400623,-16.96878 -0.07726,-14.726009 12.357032,-17.154486 12.357032,-17.154486 4.154486,-11.749823 14.395408,-7.414741 14.395408,-7.414741 4.475828,-11.454761 14.116683,-9.974387 14.116683,-9.974387 4.798544,-9.813863 14.809438,-5.266908 14.809438,-5.266908 5.064948,-8.146965 11.555978,-2.998586 11.555978,-2.998586 7.73526,-8.130215 16.23987,-1.227118 16.23987,-1.227118 0,0 8.94873,-5.289841 14.82925,4.507898 0,0 9.12652,-4.160131 13.45294,3.897264 0,0 9.95099,-4.862704 16.74823,6.895569 0,0 8.15697,-3.137356 11.24349,5.928971 0,0 10.57227,-2.260099 11.85156,6.730251 0,0 11.51461,1.769816 10.81657,14.534207 0,0 8.38362,-0.548441 7.19282,15.474636 0,0 12.99245,6.35129 4.68782,17.00833 0,0 8.50837,2.96087 3.1429,16.79265 0,0 7.95036,6.77933 1.75932,17.96891 0,0 4.77531,7.05501 -2.09008,11.07898 0,0 3.25072,7.40551 -5.61029,11.26687 0,0 3.94202,5.18342 -8.73079,10.94402 -0.51043,2.83974 -1.80369,6.89731 -2.65299,9.69066" style="display:inline;opacity:1;fill:none;fill-rule:evenodd;stroke:#000;stroke-width:.69999999;stroke-linecap:butt;stroke-linejoin:miter;stroke-miterlimit:4;stroke-dasharray:4.2,.7;stroke-dashoffset:0;stroke-opacity:1"/><path id="path4263-6-5" d="m 217.79785,146.20832 c -0.0175,0.0569 -0.0349,0.11375 -0.0522,0.17067 3.19518,1.23323 5.25853,0.43868 6.92693,-1.03923 -1.75419,1.39518 -3.77268,2.00005 -6.79317,0.70986 -0.0271,0.0529 -0.0543,0.10584 -0.0816,0.1587 z" style="display:inline;opacity:1;fill:#000;fill-rule:evenodd;stroke:none;stroke-width:1px;stroke-linecap:butt;stroke-linejoin:miter;stroke-opacity:1"/><path id="path4263-6-5-9" d="m 219.55719,164.17718 c -0.008,0.0294 -0.017,0.0589 -0.0254,0.0883 1.67815,0.61921 2.76293,0.21971 3.64194,-0.5255 -0.92143,0.70104 -1.98406,1.00597 -3.57566,0.35495 -0.0136,0.0274 -0.0272,0.0549 -0.0409,0.0823 z" style="display:inline;opacity:1;fill:#000;fill-rule:evenodd;stroke:none;stroke-width:.51459205px;stroke-linecap:butt;stroke-linejoin:miter;stroke-opacity:1"/><path id="path4263-6-5-3" d="m 211.83984,186.40755 c -0.0133,0.0434 -0.0266,0.0868 -0.0398,0.13025 2.43841,0.94114 4.01308,0.33477 5.28632,-0.7931 -1.33871,1.06474 -2.87914,1.52635 -5.18425,0.54174 -0.0207,0.0404 -0.0414,0.0808 -0.0623,0.12111 z" style="display:inline;opacity:1;fill:#000;fill-rule:evenodd;stroke:none;stroke-width:.76315629px;stroke-linecap:butt;stroke-linejoin:miter;stroke-opacity:1"/><path id="path4263-6-5-3-2" d="m 217.3361,175.18119 c -0.0133,0.0434 -0.0266,0.0868 -0.0398,0.13025 2.43841,0.94114 4.01308,0.33477 5.28632,-0.7931 -1.33871,1.06474 -2.87914,1.52635 -5.18425,0.54174 -0.0207,0.0404 -0.0414,0.0808 -0.0623,0.12111 z" style="display:inline;opacity:1;fill:#000;fill-rule:evenodd;stroke:none;stroke-width:.76315629px;stroke-linecap:butt;stroke-linejoin:miter;stroke-opacity:1"/><path id="path4263-6-5-3-9" d="m 214.76064,129.2208 c -0.004,0.0818 -0.009,0.16369 -0.0128,0.24555 4.80077,0.61274 7.5834,-0.99425 9.81117,-3.17334 -2.35251,2.07214 -5.12516,3.43961 -9.74097,2.68873 -0.019,0.0797 -0.0382,0.15939 -0.0574,0.23906 z" style="display:inline;opacity:1;fill:#000;fill-rule:evenodd;stroke:none;stroke-width:1.37375009px;stroke-linecap:butt;stroke-linejoin:miter;stroke-opacity:1"/><path id="path4263-6-5-3-9-8" d="m 209.96713,112.40734 c -0.004,0.0818 -0.009,0.16369 -0.0128,0.24555 4.80077,0.61274 7.5834,-0.99425 9.81117,-3.17334 -2.35251,2.07214 -5.12516,3.43961 -9.74097,2.68873 -0.019,0.0797 -0.0382,0.15939 -0.0574,0.23906 z" style="display:inline;opacity:1;fill:#000;fill-rule:evenodd;stroke:none;stroke-width:1.37375009px;stroke-linecap:butt;stroke-linejoin:miter;stroke-opacity:1"/><path id="path4263-6-5-3-9-0" d="m 202.70735,96.731811 c 0.01,0.08135 0.02,0.162691 0.0302,0.244025 4.83409,-0.233419 7.29402,-2.30082 9.10788,-4.834857 -1.95533,2.450461 -4.44719,4.280273 -9.12321,4.345424 -0.005,0.0818 -0.01,0.163607 -0.0148,0.245408 z" style="display:inline;opacity:1;fill:#000;fill-rule:evenodd;stroke:none;stroke-width:1.37375009px;stroke-linecap:butt;stroke-linejoin:miter;stroke-opacity:1"/><path id="path4263-6-5-3-9-0-1" d="m 191.83147,82.232769 c 0.01,0.08135 0.02,0.162691 0.0302,0.244025 4.83409,-0.233419 7.29402,-2.30082 9.10788,-4.834857 -1.95533,2.450461 -4.44719,4.280273 -9.12321,4.345424 -0.005,0.0818 -0.01,0.163607 -0.0148,0.245408 z" style="display:inline;opacity:1;fill:#000;fill-rule:evenodd;stroke:none;stroke-width:1.37375009px;stroke-linecap:butt;stroke-linejoin:miter;stroke-opacity:1"/><path id="path4263-6-5-3-9-0-14" d="m 179.94741,75.643372 c 0.0259,0.07888 0.0519,0.15772 0.0781,0.236533 4.38929,-1.133247 6.18691,-3.801643 7.29213,-6.837161 -1.27099,3.004874 -3.1635,5.425952 -7.40739,6.354367 0.0125,0.08206 0.0249,0.16415 0.0372,0.246261 z" style="display:inline;opacity:1;fill:#000;fill-rule:evenodd;stroke:none;stroke-width:1.38805354px;stroke-linecap:butt;stroke-linejoin:miter;stroke-opacity:1"/><path id="path4263-6-5-3-9-0-8" d="m 168.71107,69.665916 c 0.0197,0.08407 0.0395,0.168122 0.0595,0.252139 4.1486,-0.742882 5.9445,-3.545925 7.12108,-6.825108 -1.35762,3.269775 -3.25522,5.778227 -7.20169,6.314811 0.007,0.08603 0.0143,0.172086 0.0211,0.258158 z" style="display:inline;opacity:1;fill:#000;fill-rule:evenodd;stroke:none;stroke-width:1.42457366px;stroke-linecap:butt;stroke-linejoin:miter;stroke-opacity:1"/><path id="path4263-6-5-3-9-0-6" d="m 152.11443,62.843706 c 0.04,0.07154 0.0801,0.143033 0.12023,0.214484 4.38674,-2.04438 5.88204,-4.888587 6.60276,-7.920414 -0.8833,3.007966 -2.49801,5.644304 -6.80206,7.473136 0.0265,0.07756 0.0528,0.155157 0.0791,0.232794 z" style="display:inline;opacity:1;fill:#000;fill-rule:evenodd;stroke:none;stroke-width:1.37375009px;stroke-linecap:butt;stroke-linejoin:miter;stroke-opacity:1"/><path id="path4263-6-5-3-9-0-9" d="m 32.957238,115.44355 c 0.03207,-0.0754 0.06423,-0.1508 0.09649,-0.22613 -4.153067,-2.14977 -5.563334,-4.9009 -6.216128,-7.96716 0.488878,3.07773 1.764328,6.02709 5.983499,8.39805 0.04546,-0.0682 0.09084,-0.13646 0.136141,-0.20476 z" style="display:inline;opacity:1;fill:#000;fill-rule:evenodd;stroke:none;stroke-width:1.37375009px;stroke-linecap:butt;stroke-linejoin:miter;stroke-opacity:1"/><path id="path4263-6-5-3-9-0-9-2" d="m 40.532855,98.539513 c 0.01448,-0.04184 0.02901,-0.08365 0.04359,-0.125446 -2.422134,-1.063824 -3.2383,-2.423321 -3.614939,-3.940965 0.289481,1.531696 1.040958,3.001376 3.504616,4.181247 0.02228,-0.03826 0.04453,-0.07654 0.06673,-0.114836 z" style="display:inline;opacity:1;fill:#000;fill-rule:evenodd;stroke:none;stroke-width:.73932868px;stroke-linecap:butt;stroke-linejoin:miter;stroke-opacity:1"/><path id="path4263-6-5-3-9-0-9-27" d="m 30.094677,136.77762 c 0.0059,-0.0519 0.01186,-0.10378 0.01788,-0.15566 -3.134823,-0.62358 -4.530781,-1.98228 -5.474865,-3.62449 0.8502,1.68716 2.203665,3.18418 5.409072,3.92934 0.01602,-0.0497 0.03199,-0.0994 0.04791,-0.14919 z" style="display:inline;opacity:1;fill:#000;fill-rule:evenodd;stroke:none;stroke-width:.87217569px;stroke-linecap:butt;stroke-linejoin:miter;stroke-opacity:1"/><path id="path4263-6-5-3-9-0-9-0" d="m 28.967518,157.4393 c 0.0044,-0.0454 0.0089,-0.0907 0.01341,-0.13605 -2.782402,-0.51145 -4.031125,-1.6659 -4.882519,-3.06571 0.771026,1.44199 1.985403,2.71627 4.829062,3.33249 0.01339,-0.0436 0.02674,-0.0871 0.04005,-0.13073 z" style="display:inline;opacity:1;fill:#000;fill-rule:evenodd;stroke:none;stroke-width:.75987178px;stroke-linecap:butt;stroke-linejoin:miter;stroke-opacity:1"/><path id="path4263-6-5-3-9-0-9-9" d="m 33.567189,171.24262 c -0.01487,-0.0449 -0.02968,-0.0898 -0.04445,-0.13466 -2.81736,0.67955 -4.535046,0.10516 -6.003943,-0.86788 1.41055,1.04705 3.146322,1.74929 6.065676,1.1433 -0.0057,-0.0469 -0.01148,-0.0938 -0.01729,-0.14076 z" style="display:inline;opacity:1;fill:#000;fill-rule:evenodd;stroke:none;stroke-width:.78974068px;stroke-linecap:butt;stroke-linejoin:miter;stroke-opacity:1"/><path id="path4263-6-5-3-9-0-9-275" d="m 40.638032,184.50874 c -0.0099,-0.0319 -0.01985,-0.0638 -0.02971,-0.0957 -2.00819,0.44597 -3.265974,0.032 -4.355545,-0.65518 1.049174,0.74016 2.318571,1.24276 4.395631,0.8505 -0.0034,-0.0332 -0.0069,-0.0664 -0.01037,-0.0997 z" style="display:inline;opacity:1;fill:#000;fill-rule:evenodd;stroke:none;stroke-width:.55759609px;stroke-linecap:butt;stroke-linejoin:miter;stroke-opacity:1"/><path id="path4263-6-5-3-9-0-9-275-6" d="m 52.714893,81.320284 c 0.03207,-0.07542 0.06423,-0.150801 0.09649,-0.226132 -4.153067,-2.149764 -5.563334,-4.900902 -6.216128,-7.967158 0.488878,3.077728 1.764328,6.027086 5.983499,8.398045 0.04546,-0.0682 0.09084,-0.136454 0.136141,-0.204755 z" style="display:inline;opacity:1;fill:#000;fill-rule:evenodd;stroke:none;stroke-width:1.37375009px;stroke-linecap:butt;stroke-linejoin:miter;stroke-opacity:1"/><path id="path4263-6-5-3-9-0-9-275-9" d="m 67.110301,73.905543 c 0.03207,-0.07542 0.06423,-0.150801 0.09649,-0.226132 -4.153067,-2.149764 -5.563334,-4.900902 -6.216128,-7.967158 0.488878,3.077728 1.764328,6.027086 5.983499,8.398045 0.04546,-0.0682 0.09084,-0.136454 0.136141,-0.204755 z" style="display:inline;opacity:1;fill:#000;fill-rule:evenodd;stroke:none;stroke-width:1.37375009px;stroke-linecap:butt;stroke-linejoin:miter;stroke-opacity:1"/><path id="path4263-6-5-3-9-0-9-275-7" d="m 81.226984,63.931156 c 0.03207,-0.07542 0.06423,-0.150801 0.09649,-0.226132 -4.153067,-2.149764 -5.563334,-4.900902 -6.216128,-7.967158 0.488878,3.077728 1.764328,6.027086 5.983499,8.398045 0.04546,-0.0682 0.09084,-0.136454 0.136141,-0.204755 z" style="display:inline;opacity:1;fill:#000;fill-rule:evenodd;stroke:none;stroke-width:1.37375009px;stroke-linecap:butt;stroke-linejoin:miter;stroke-opacity:1"/><path id="path4263-6-5-3-9-0-9-275-73" d="m 96.092226,58.474516 c 0.05069,-0.0644 0.101458,-0.128735 0.152308,-0.192997 -3.445679,-3.161764 -4.086769,-6.186101 -3.914316,-9.31633 -0.333658,3.0984 0.125436,6.278766 3.577024,9.671315 0.06173,-0.05393 0.123389,-0.107923 0.184984,-0.161988 z" style="display:inline;opacity:1;fill:#000;fill-rule:evenodd;stroke:none;stroke-width:1.37375009px;stroke-linecap:butt;stroke-linejoin:miter;stroke-opacity:1"/><path id="path4263-6-5-3-9-0-9-275-4" d="m 138.33973,58.82513 c 0.0453,0.0683 0.0907,0.136553 0.13614,0.204755 4.21917,-2.370959 5.49462,-5.320317 5.9835,-8.398045 -0.65279,3.066256 -2.06306,5.817394 -6.21613,7.967158 0.0323,0.07533 0.0644,0.150708 0.0965,0.226132 z" style="display:inline;opacity:1;fill:#000;fill-rule:evenodd;stroke:none;stroke-width:1.37375009px;stroke-linecap:butt;stroke-linejoin:miter;stroke-opacity:1"/><path id="path4231-6-0" d="m 107.5924,55.665662 0.36625,-0.0411 c -0.42089,-2.755837 -1.45237,-6.45557 -1.89024,-9.233734 0.25637,3.308355 0.92925,6.102493 1.15774,9.315944 l 0.36625,-0.04111 z" style="display:inline;opacity:1;fill:#000;fill-rule:evenodd;stroke:none;stroke-width:.72642964px;stroke-linecap:butt;stroke-linejoin:miter;stroke-opacity:1"/><path id="path4231-6-0-7" d="m 124.11189,54.495301 c 0.53646,-3.148465 1.48743,-5.928136 2.0581,-9.160617 -0.67313,2.800266 -1.96504,6.27563 -2.61734,9.047103 z" style="display:inline;opacity:1;fill:#000;fill-rule:evenodd;stroke:none;stroke-width:.72642964px;stroke-linecap:butt;stroke-linejoin:miter;stroke-opacity:1"/><path id="path4205-0-2" d="m 55.247535,205.30314 3.469354,-0.62769 C 33.091404,124.90216 77.420046,83.836094 122.59685,84.672169 c 45.65344,0.844897 92.17678,44.411401 68.97204,120.705951 l 3.23631,0.83748 C 220.48452,118.6526 161.17687,79.660728 122.69393,80.926915 73.01889,82.561351 31.285987,119.79376 55.247535,205.30314 Z" style="display:inline;opacity:1;fill:#ff8080;fill-rule:evenodd;stroke:#000;stroke-width:1px;stroke-linecap:butt;stroke-linejoin:miter;stroke-opacity:1"/></g></g></svg>