<svg xmlns="http://www.w3.org/2000/svg" xmlns:svg="http://www.w3.org/2000/svg" id="svg4206" version="1.1" viewBox="0 0 256 256"><style id="style3">svg{cursor:default}</style><metadata id="metadata4211"/><g id="layer3" style="display:inline;opacity:1"><path style="fill:#ff2a2a;fill-rule:evenodd;stroke:#000;stroke-width:1px;stroke-linecap:butt;stroke-linejoin:miter;stroke-opacity:1" id="path4365" d="m 169.82143,38.857144 c -0.38027,3.263498 -0.6541,7.087742 -5.92536,11.123731 -4.30614,3.297037 -12.95452,8.060369 -19.43178,12.090554 l -12.67858,-8.571428 c 12.53762,-5.256822 24.57981,-11.834812 38.03572,-14.642857 z"/><path style="fill:#ff2a2a;fill-rule:evenodd;stroke:#000;stroke-width:1px;stroke-linecap:butt;stroke-linejoin:miter;stroke-opacity:1" id="path4361" d="m 75.762871,28.443982 c 7.078719,2.100245 23.024987,9.803187 24.899109,12.094271 1.94477,2.377457 10.64901,11.945509 17.55231,18.140319 -16.97699,-6.898359 -28.461029,-19.9763 -42.451419,-30.23459 z"/><path style="fill:#f55;fill-rule:evenodd;stroke:#000;stroke-width:1px;stroke-linecap:butt;stroke-linejoin:miter;stroke-opacity:1" id="path4359" d="M 105.89286,61.178572 C 98.143669,61.251311 89.73776,60.944051 83.75,56.535715 70.622613,46.87101 44.959528,30.542982 44.045867,27.984092 41.084847,19.691169 63.157489,18.952239 67.521664,19.939405 70.733229,20.665853 97.65537,41.3067 105.71429,50.285715 l 11.96428,6.071429 z"/><path style="fill:#ff8080;fill-rule:evenodd;stroke:#000;stroke-width:1px;stroke-linecap:butt;stroke-linejoin:miter;stroke-opacity:1" id="path4353" d="m 115.89286,53.857144 c -8.60528,3.559099 -32.530407,17.514424 -35.535718,21.785714 l 34.107138,-1.361607 c 4.15953,-4.173807 10.04447,-8.741964 15.21293,-11.90684 -3.55605,-7.80191 -8.77186,-7.673911 -13.78435,-8.517267 z"/><path style="fill:#f55;fill-rule:evenodd;stroke:#000;stroke-width:1px;stroke-linecap:butt;stroke-linejoin:miter;stroke-opacity:1" id="path4347" d="m 171.60714,112.42857 c 0.0684,-7.46961 2.02393,-12.00345 3.21429,-17.142855 0.2475,-1.068605 -2.29895,-3.353158 -3.61032,-5.898487 -1.3614,-2.642455 -1.51441,-5.556146 -2.63968,-7.137227 -1.72808,-2.428067 -18.96468,-10.898327 -28.13135,-15.779279 l 22.0689,-2.781317 c 6.74001,3.38084 13.36336,6.832647 21.4917,9.411983 3.49913,1.110365 15.58278,9.097696 22.42789,14.505756 5.66131,4.472785 7.54172,11.863299 6.7984,17.637096 z"/><path style="fill:#ff8080;fill-rule:evenodd;stroke:#000;stroke-width:1px;stroke-linecap:butt;stroke-linejoin:miter;stroke-opacity:1" id="path4351" d="m 169.24107,67.160715 c -2.94645,-3.387632 -20.37966,-7.603284 -27.63393,-10.089286 l -1.96428,9.464286 9.19643,4.241071 z"/><path style="fill:#f55;fill-rule:evenodd;stroke:#000;stroke-width:1px;stroke-linecap:butt;stroke-linejoin:miter;stroke-opacity:1" id="path4349" d="M 55.73595,93.824647 C 55.770034,102.2774 67.420734,104.03802 78.75,103.5 83.19214,99.924413 86.956035,96.012461 92.142857,92.607144 101.93445,86.178648 112.52652,78.275279 118.38017,70.714966 103.74579,70.947089 87.185426,70.216218 81.197697,74.771665 75.441075,81.057183 56.323476,88.926443 55.73595,93.824647 Z"/><path style="fill:#ff8080;fill-rule:evenodd;stroke:#000;stroke-width:1px;stroke-linecap:butt;stroke-linejoin:miter;stroke-opacity:1" id="path4345" d="m 55.767517,94.489418 c 0.05952,11.250002 -0.97865,26.988002 -0.231803,32.582012 0.363359,2.72162 6.609811,14.52129 15.047904,32.07907 13.182151,27.4291 34.553602,64.53116 56.916382,86.13521 34.86138,-32.95507 38.30063,-34.83771 58.6378,-73.30296 1.46264,-2.76642 18.19727,-29.99319 20.55474,-36.73959 3.51774,-10.06677 6.11328,-20.01917 6.87889,-32.1003 -63.21519,20.6632 -149.540962,-3.195254 -157.803913,-8.653442 z"/><path style="fill:#faa;fill-rule:evenodd;stroke:#000;stroke-width:1px;stroke-linecap:butt;stroke-linejoin:miter;stroke-opacity:1" id="path4357" d="m 138.92857,53.857144 c 1.11307,0.0032 6.54711,2.385304 6.42857,3.392857 -0.0532,3.686856 -3.12406,6.479566 -5.27327,9.545368 -3.24185,0.98346 -5.99197,0.196701 -8.83387,-0.259654 z"/><path style="fill:#f55;fill-rule:evenodd;stroke:#000;stroke-width:1px;stroke-linecap:butt;stroke-linejoin:miter;stroke-opacity:1" id="path4363" d="m 131.20853,51.557379 c 3.89327,-3.143941 9.67887,-5.022574 14.14573,-7.978449 26.7193,-17.681088 55.86008,-32.122125 61.07431,-29.0075 -27.81019,16.897944 -55.16858,40.628477 -69.46428,41.071428 z"/><path style="fill:#ff2a2a;fill-rule:evenodd;stroke:none;stroke-width:1px;stroke-linecap:butt;stroke-linejoin:miter;stroke-opacity:1" id="path4367" d="m 57.97237,123.66104 c 11.912022,6.19853 36.393046,12.10013 64.30168,14.67564 5.00101,0.46151 10.11318,0.8162 15.28388,1.04643 23.72623,0.0429 48.43478,-2.53536 69.0489,-9.33158 -20.89311,5.63404 -45.55788,6.98029 -68.95234,5.75257 -5.11789,-0.0474 -10.18743,-0.21808 -15.15607,-0.49533 -27.712682,-1.54635 -52.285011,-6.41272 -64.52605,-11.64773 z"/><path style="fill:#faa;fill-rule:evenodd;stroke:#000;stroke-width:1px;stroke-linecap:butt;stroke-linejoin:miter;stroke-opacity:1" id="path4372" d="m 124.62757,45.414762 c -4.47045,0.415658 -11.54421,5.603472 -13.53695,10.317466 4.68714,2.340282 9.33062,3.473907 14.98904,4.51915 z"/><path style="fill:#ffd5d5;fill-rule:evenodd;stroke:#000;stroke-width:1px;stroke-linecap:butt;stroke-linejoin:miter;stroke-opacity:1" id="path4355" d="m 123.48214,45.375001 c 1.75036,5.533057 1.34005,16.58755 -0.625,22.053571 2.87771,0.809008 5.43055,2.26777 9.83133,0.03064 2.03129,-4.911952 4.79437,-9.092119 8.25669,-12.573038 -5.97679,-3.651909 -12.67891,-11.260739 -17.46302,-9.511172 z"/><path style="fill:#000;fill-rule:evenodd;stroke:none;stroke-width:1px;stroke-linecap:butt;stroke-linejoin:miter;stroke-opacity:1" id="path4374" d="m 92.548656,92.91457 c 2.975336,-1.897221 4.661818,-4.094983 6.441036,-6.382106 1.780548,-2.28883 3.707208,-4.744816 7.171018,-7.228892 -3.56952,2.354457 -5.63047,4.70724 -7.556718,6.910716 -1.92806,2.205544 -3.656972,4.178212 -6.572926,5.844654 z"/><path style="fill:#000;fill-rule:evenodd;stroke:none;stroke-width:1px;stroke-linecap:butt;stroke-linejoin:miter;stroke-opacity:1" id="path4378" d="m 174.81333,96.983006 c 1.35326,-1.436253 1.8801,-3.132561 1.9794,-4.835126 0.099,-1.697777 -0.22362,-3.457115 -0.63202,-5.076451 0.24842,1.669188 0.39279,3.406787 0.13488,5.023054 -0.25746,1.613475 -0.90615,3.046156 -2.18034,4.172513 z"/><path style="fill:#000;fill-rule:evenodd;stroke:none;stroke-width:1px;stroke-linecap:butt;stroke-linejoin:miter;stroke-opacity:1" id="path4384" d="m 169.57589,84.638393 c 0.13371,-0.03249 0.26741,-0.06498 0.40113,-0.09745 -0.76897,-3.162222 -1.49817,-6.492203 -3.19131,-9.255226 1.43556,2.865523 1.88691,6.220082 2.38226,9.415928 0.13597,-0.02107 0.27195,-0.04216 0.40792,-0.06325 z"/><path style="fill:#000;fill-rule:evenodd;stroke:none;stroke-width:1px;stroke-linecap:butt;stroke-linejoin:miter;stroke-opacity:1" id="path4388" d="m 185.15625,73.410715 c -0.16224,-0.14914 -0.32137,-0.300123 -0.4775,-0.452764 -6.16141,0.694388 -12.80966,-1.238567 -18.87518,-2.58295 5.87809,1.638455 12.60985,3.950133 18.95971,3.571692 0.13451,-0.177505 0.26553,-0.356164 0.39297,-0.535978 z"/><path style="fill:#000;fill-rule:evenodd;stroke:none;stroke-width:1px;stroke-linecap:butt;stroke-linejoin:miter;stroke-opacity:1" id="path4392" d="m 208.33398,88.893784 c -1.35993,0.0012 -2.52295,-0.600693 -3.74033,-1.416055 -1.20169,-0.804853 -2.36977,-1.752673 -3.70079,-2.2813 1.2447,0.672247 2.28656,1.733647 3.39895,2.679912 1.10055,0.936202 2.34708,1.832787 3.98135,2.015591 z"/><path style="fill:#000;fill-rule:evenodd;stroke:none;stroke-width:1px;stroke-linecap:butt;stroke-linejoin:miter;stroke-opacity:1" id="path4396" d="m 105.83759,49.83261 c -6.963216,0.207655 -14.797666,-0.368483 -21.194733,-3.832609 6.272304,3.776746 14.124394,4.7076 21.200673,4.832591 z"/><path style="fill:#000;fill-rule:evenodd;stroke:none;stroke-width:1px;stroke-linecap:butt;stroke-linejoin:miter;stroke-opacity:1" id="path4404" d="m 142.19186,55.515451 c 5.81388,-0.738879 11.19436,-3.425733 16.37957,-5.76545 -5.39197,2.064756 -10.77353,4.377215 -16.47757,4.770264 z"/><path style="fill:#000;fill-rule:evenodd;stroke:none;stroke-width:1px;stroke-linecap:butt;stroke-linejoin:miter;stroke-opacity:1" id="path4408" d="m 155.57193,48.173496 c 0.13781,0.08802 0.2719,0.176158 0.40277,0.264435 3.16483,-0.322317 4.02606,-0.567819 7.23959,-1.545073 -3.2698,0.790765 -4.1368,0.837139 -7.28087,0.962761 -0.11666,0.1058 -0.23712,0.211765 -0.36149,0.317877 z"/><path style="fill:#000;fill-rule:evenodd;stroke:none;stroke-width:1px;stroke-linecap:butt;stroke-linejoin:miter;stroke-opacity:1" id="path4413" d="m 64.930967,85.83394 0.17132,0.469734 c 6.984811,-2.725632 15.05421,-3.536199 20.381872,-9.100674 -5.512212,5.277623 -13.505795,5.70508 -20.724512,8.161206 l 0.17132,0.469734 z"/><path style="fill:none;fill-rule:evenodd;stroke:#000;stroke-width:.5;stroke-linecap:butt;stroke-linejoin:miter;stroke-miterlimit:4;stroke-dasharray:1.5,.5;stroke-dashoffset:0;stroke-opacity:1" id="path4417" d="m 55.535714,124.03571 c 5.612951,6.23266 19.622512,38.84209 32.090657,59.35234 19.742799,32.47715 21.973469,35.34658 39.999899,56.59545 7.63506,-6.26661 24.06934,-23.06356 30.80334,-30.69871 11.36535,-12.88627 20.04275,-31.03966 27.6241,-43.86827 12.55739,-21.24871 18.00172,-32.13997 20.94122,-32.73541"/></g></svg>