<svg xmlns="http://www.w3.org/2000/svg" xmlns:svg="http://www.w3.org/2000/svg" id="svg4206" version="1.1" viewBox="0 0 256 256"><style id="style3">svg{cursor:default}</style><metadata id="metadata4211"/><g id="layer4"><path style="fill:none;fill-rule:evenodd;stroke:#000;stroke-width:2.58957577;stroke-linecap:butt;stroke-linejoin:miter;stroke-miterlimit:4;stroke-dasharray:none;stroke-opacity:1" id="path4471" d="m 93.723814,17.167158 c 0,0 -2.04042,-0.416321 -4.170831,0.0813 0.138873,0.41798 0.581245,0.824937 0.687386,1.2794 1.466865,-0.584509 2.39482,-1.04658 3.483445,-1.360704 z"/><path style="fill:none;fill-rule:evenodd;stroke:#000;stroke-width:2.52906036;stroke-linecap:butt;stroke-linejoin:miter;stroke-miterlimit:4;stroke-dasharray:none;stroke-dashoffset:0;stroke-opacity:1" id="path4465" d="M 135.09771,134.39775 C 110.81157,134.92592 -46.792076,74.832223 85.94863,18.897385"/><path style="fill:none;fill-rule:evenodd;stroke:#000;stroke-width:3.12687469;stroke-linecap:butt;stroke-linejoin:miter;stroke-miterlimit:4;stroke-dasharray:none;stroke-opacity:1" id="path4467" d="M 91.941486,17.374367 C 268.51493,1.1632712 200.6069,119.35978 142.95705,133.90377"/><path id="path4483" d="m 94.008507,17.173742 c 0,0 -2.251441,-0.35098 -4.537957,0.181057 0.13867,0.417404 0.451396,0.893307 0.705171,1.273508 1.579843,-0.609084 2.66305,-1.122645 3.832786,-1.454565 z" style="fill:none;fill-rule:evenodd;stroke:#ff8080;stroke-width:.71546602;stroke-linecap:butt;stroke-linejoin:miter;stroke-miterlimit:4;stroke-dasharray:none;stroke-opacity:1"/><path style="fill:none;fill-rule:evenodd;stroke:#000;stroke-width:2.52906036;stroke-linecap:butt;stroke-linejoin:miter;stroke-miterlimit:4;stroke-dasharray:none;stroke-opacity:1" id="path4469" d="m 85.957687,18.866396 c 0.943285,-1.017294 2.082972,-1.609605 3.249296,-1.838961 l 0.897456,1.989028 c -1.50271,0.514407 -2.601207,0.123509 -4.146752,-0.150067 z"/><path id="path4475" d="M 135.09771,134.39775 C 110.81157,134.92592 -46.792076,74.832223 85.94863,18.897385" style="fill:none;fill-rule:evenodd;stroke:#ff8080;stroke-width:.84302008;stroke-linecap:butt;stroke-linejoin:miter;stroke-miterlimit:4;stroke-dasharray:none;stroke-dashoffset:0;stroke-opacity:1"/><path id="path4477" d="M 91.941486,17.374367 C 268.51493,1.1632712 200.6069,119.35978 142.95705,133.90377" style="fill:none;fill-rule:evenodd;stroke:#ff8080;stroke-width:1.04229152;stroke-linecap:butt;stroke-linejoin:miter;stroke-miterlimit:4;stroke-dasharray:none;stroke-opacity:1"/><path id="path4479" d="m 85.829557,18.952933 c 0.943297,-1.017298 2.082983,-1.609608 3.249295,-1.838962 l 0.897457,1.989027 c -1.502711,0.514408 -2.601196,0.123508 -4.146752,-0.150065 z" style="fill:none;fill-rule:evenodd;stroke:#ff8080;stroke-width:.84302008;stroke-linecap:butt;stroke-linejoin:miter;stroke-miterlimit:4;stroke-dasharray:none;stroke-opacity:1"/><path style="fill:#ff8080;fill-rule:evenodd;stroke:#000;stroke-width:.31502989;stroke-linecap:butt;stroke-linejoin:miter;stroke-miterlimit:4;stroke-dasharray:none;stroke-opacity:1" id="path4489" d="m 90.529519,18.05369 c 0.288394,-0.102306 0.310264,0.765256 0.292672,0.768537 -1.264522,0.236058 -2.498017,-0.59299 -1.922972,-1.122641 0.195711,0.129173 1.154006,0.459208 1.630312,0.354102 z"/><g id="g4333" transform="matrix(1.2066521,-0.18041362,0.18000822,1.0573194,-50.521728,-0.50785037)"><g id="g4370" transform="translate(-1.3177061,-0.64707097)"><path style="fill:#ff8080;fill-rule:evenodd;stroke:#000;stroke-width:1;stroke-linecap:butt;stroke-linejoin:miter;stroke-miterlimit:4;stroke-dasharray:none;stroke-opacity:1" id="path4463" d="m 130.27158,159.06887 2.35029,-11.27639 6.76567,0.0208 1.78393,11.62259 z"/><path style="fill:#fff;fill-rule:evenodd;stroke:none;stroke-width:1px;stroke-linecap:butt;stroke-linejoin:miter;stroke-opacity:1" id="path4510" d="m 138.62218,154.14764 c 0.0576,-1.60838 0.31501,-2.71712 0.11293,-4.92646 -0.23408,-0.1808 -0.47219,-0.36748 -0.71409,-0.56149 -0.14559,0.27408 -0.297,0.53192 -0.45376,0.77499 0.59334,2.10841 0.69958,3.03179 1.05492,4.71296 z"/><path style="fill:#f55;fill-rule:evenodd;stroke:#000;stroke-width:1px;stroke-linecap:butt;stroke-linejoin:miter;stroke-opacity:1" id="path4284" d="m 135.72363,155.14783 c -25.17874,0.3264 -15.0505,33.72578 -2.89258,44.36914 -8.3548,-1.24164 -23.97322,-4.49183 -24.70703,-3.5918 -0.7897,0.96858 -0.75652,6.18522 0.01,7.42969 0.88219,1.43266 16.97225,0.33936 25.36914,0.12891 -2.01308,13.45125 -7.4342,39.01631 -5.77148,40.08593 1.04692,0.67349 13.91091,1.05862 14.61523,-0.19726 0.90961,-1.62194 -2.84344,-26.24922 -4.24218,-39.57422 8.14436,0.50508 22.56554,2.28747 24.21093,1.33789 0.92186,-0.53202 1.02518,-7.2061 0.31446,-8.27148 -0.75919,-1.13803 -15.95174,1.93623 -23.92774,2.90429 12.52278,-9.98691 25.9215,-44.99574 -2.97851,-44.62109 z m -0.58399,5.5332 c 0.46604,-0.0177 0.9449,-0.0175 1.4375,0 18.52645,0.65766 13.9564,23.36845 -0.58203,38.44531 -16.89226,-20.65959 -15.30254,-37.89685 -0.85547,-38.44531 z"/><path style="fill:#fff;fill-rule:evenodd;stroke:none;stroke-width:1px;stroke-linecap:butt;stroke-linejoin:miter;stroke-opacity:1" id="path4506-4" d="m 130.0396,157.04365 c 8.11768,-1.80335 14.03667,0.16196 17.27502,4.19397 0.0579,0.0602 0.11527,0.12102 0.17205,0.18254 3.59195,3.89214 4.87102,10.49261 2.6032,18.73738 2.67841,-7.99925 2.06903,-15.00504 -1.53898,-19.63613 -0.0574,-0.0737 -0.11556,-0.14674 -0.17448,-0.21919 -4.0133,-4.19794 -10.44725,-5.49091 -18.33681,-3.25857 z"/><path style="fill:#fff;fill-rule:evenodd;stroke:none;stroke-width:1px;stroke-linecap:butt;stroke-linejoin:miter;stroke-opacity:1" id="path4510-2" d="m 141.0579,242.40469 c -0.20236,-0.20677 -0.45294,-0.90211 -0.74971,-1.99352 -0.0673,-0.24747 -0.13671,-0.51467 -0.2081,-0.80013 -0.076,-0.98282 -0.17474,-2.17496 -0.29026,-3.51898 -0.29934,-3.48265 -0.71167,-7.98566 -1.1358,-12.51382 -0.42414,-4.52826 -0.8601,-9.08175 -1.20677,-12.66607 -0.17333,-1.79212 -0.32434,-3.34199 -0.44039,-4.52523 -0.11076,-1.12939 -0.20262,-2.05423 -0.23084,-2.32734 0.0992,0.31662 0.24603,1.12677 0.42782,2.30247 0.18186,1.1762 0.39871,2.71927 0.63787,4.50462 0.47834,3.57072 1.046,8.11103 1.60184,12.62599 0.55592,4.51565 1.09978,9.00415 1.53097,12.47492 0.16638,1.33926 0.31593,2.52651 0.44288,3.50503 -0.0114,0.2943 -0.0248,0.57032 -0.0403,0.82658 -0.0676,1.11687 -0.17732,1.86987 -0.33925,2.10548 z"/><path style="fill:#fff;fill-rule:evenodd;stroke:none;stroke-width:1px;stroke-linecap:butt;stroke-linejoin:miter;stroke-opacity:1" id="path4510-7" d="m 161.59362,204.32433 c -0.006,-1.39155 0.40115,-3.50063 0.31079,-5.58923 -0.16434,-0.41994 -0.34693,-0.83348 -0.55481,-1.238 -0.0309,0.45222 -0.0915,0.88956 -0.17178,1.3103 0.25773,1.61737 0.23802,4.47073 0.4158,5.51693 z"/></g></g></g></svg>