<svg xmlns="http://www.w3.org/2000/svg" xmlns:svg="http://www.w3.org/2000/svg" id="svg4206" version="1.1" viewBox="0 0 256 256"><style id="style3">svg{cursor:default}</style><metadata id="metadata4211"/><g id="layer4"><path style="fill:none;fill-rule:evenodd;stroke:#000;stroke-width:3.07178402;stroke-linecap:butt;stroke-linejoin:miter;stroke-miterlimit:4;stroke-dasharray:none;stroke-opacity:1" id="path4471" d="m 130.8987,31.446245 c 0,0 -2.307,-0.939062 -5.08418,-0.909254 0.003,0.486146 0.37802,1.032923 0.32699,1.550781 2.00779,-0.282632 3.31442,-0.56145 4.75719,-0.641527 z"/><path style="fill:none;fill-rule:evenodd;stroke:#000;stroke-width:3;stroke-linecap:butt;stroke-linejoin:miter;stroke-miterlimit:4;stroke-dasharray:none;stroke-dashoffset:0;stroke-opacity:1" id="path4465" d="M 127.13458,169.42617 C 97.95378,162.97537 -62.782776,53.05418 120.62071,31.474584"/><path style="fill:none;fill-rule:evenodd;stroke:#000;stroke-width:3;stroke-linecap:butt;stroke-linejoin:miter;stroke-miterlimit:4;stroke-dasharray:none;stroke-opacity:1" id="path4467" d="m 130.86078,31.474584 c 142.61237,6.872813 47.0574,129.870586 -2.86804,138.008116"/><path id="path4483" d="m 131.24094,31.521457 c 0,0 -2.5884,-0.918714 -5.56831,-0.888948 0.003,0.485477 0.19374,1.075963 0.35086,1.548648 2.15436,-0.282244 3.66938,-0.579734 5.21745,-0.6597 z" style="fill:none;fill-rule:evenodd;stroke:#ff8080;stroke-width:.84869391;stroke-linecap:butt;stroke-linejoin:miter;stroke-miterlimit:4;stroke-dasharray:none;stroke-opacity:1"/><path style="fill:none;fill-rule:evenodd;stroke:#000;stroke-width:3;stroke-linecap:butt;stroke-linejoin:miter;stroke-miterlimit:4;stroke-dasharray:none;stroke-opacity:1" id="path4469" d="m 120.82017,31.430513 c 1.54464,-0.876814 3.15921,-1.246135 4.6626,-1.215773 l 0.301,2.369993 c -2.02352,0.198092 -3.19961,-0.48818 -4.9636,-1.15422 z"/><path id="path4475" d="M 127.13458,169.42617 C 97.95378,162.97537 -62.782776,53.05418 120.62071,31.474584" style="fill:none;fill-rule:evenodd;stroke:#ff8080;stroke-width:1;stroke-linecap:butt;stroke-linejoin:miter;stroke-miterlimit:4;stroke-dasharray:none;stroke-dashoffset:0;stroke-opacity:1"/><path id="path4477" d="m 130.86078,31.474584 c 142.61237,6.872813 47.0574,129.870586 -2.86804,138.008116" style="fill:none;fill-rule:evenodd;stroke:#ff8080;stroke-width:1;stroke-linecap:butt;stroke-linejoin:miter;stroke-miterlimit:4;stroke-dasharray:none;stroke-opacity:1"/><path id="path4479" d="m 120.63077,31.493648 c 1.54464,-0.876814 3.15921,-1.246135 4.6626,-1.215773 l 0.301,2.369993 c -2.02352,0.198092 -3.19961,-0.48818 -4.9636,-1.15422 z" style="fill:none;fill-rule:evenodd;stroke:#ff8080;stroke-width:1;stroke-linecap:butt;stroke-linejoin:miter;stroke-miterlimit:4;stroke-dasharray:none;stroke-opacity:1"/><path style="fill:#ff8080;fill-rule:evenodd;stroke:#000;stroke-width:.37369201;stroke-linecap:butt;stroke-linejoin:miter;stroke-miterlimit:4;stroke-dasharray:none;stroke-opacity:1" id="path4489" d="m 126.67915,31.643082 c 0.38974,-0.0419 0.0734,0.903455 0.0507,0.902804 -1.62498,-0.04658 -2.79145,-1.239932 -1.88559,-1.676373 0.18601,0.186778 1.21634,0.773569 1.83482,0.773569 z"/><path style="fill:#ff8080;fill-rule:evenodd;stroke:#000;stroke-width:1;stroke-linecap:butt;stroke-linejoin:miter;stroke-miterlimit:4;stroke-dasharray:none;stroke-opacity:1" id="path4463" d="m 126.04157,197.89661 0.89819,-30.40616 3.35641,-0.16856 -0.23638,30.49982 z"/><path style="fill:#f55;fill-rule:evenodd;stroke:#000;stroke-width:.99443018;stroke-linecap:butt;stroke-linejoin:miter;stroke-miterlimit:4;stroke-dasharray:none;stroke-opacity:1" id="path4461" d="m 129.3712,216.91184 c -9.85067,-5.88722 -24.14319,-16.78062 -24.58773,-29.54525 -0.42999,-12.34668 13.52525,-19.05745 23.6479,-5.2407 7.06641,-13.97435 24.33867,-7.39425 24.50343,4.9902 0.16847,12.66859 -15.12019,23.44925 -23.5636,29.79575 z"/><path style="fill:#ff2a2a;fill-rule:evenodd;stroke:none;stroke-width:1px;stroke-linecap:butt;stroke-linejoin:miter;stroke-opacity:1" id="path4518" d="m 129.34546,216.31405 c -13.89158,-8.17493 -29.66588,-22.82083 -22.2349,-36.9098 -0.47192,6.01057 2.46638,15.1512 6.87065,20.13297 8.39944,9.50079 11.64398,12.68558 15.36425,16.77683 z"/><path style="fill:#fff;fill-rule:evenodd;stroke:none;stroke-width:1px;stroke-linecap:butt;stroke-linejoin:miter;stroke-opacity:1" id="path4506" d="m 132.54362,178.34589 c 6.05007,-3.10896 11.21601,-1.87715 14.16818,1.16959 0.053,0.044 0.10565,0.0886 0.15782,0.13382 3.28182,2.84374 4.87351,8.16079 2.59927,14.22119 2.67324,-5.81062 1.79362,-11.59583 -1.63221,-15.22375 -0.0542,-0.0574 -0.10904,-0.11424 -0.16451,-0.17051 -3.78447,-3.17366 -9.38698,-3.60743 -15.12855,-0.13034 z"/><path style="fill:#fff;fill-rule:evenodd;stroke:none;stroke-width:1px;stroke-linecap:butt;stroke-linejoin:miter;stroke-opacity:1" id="path4510" d="m 129.27827,180.15907 c 0.19236,-6.37037 0.15286,-8.54307 0.35616,-12.23436 -0.20775,-0.041 -0.41546,-0.0824 -0.62315,-0.12443 -0.20772,0.042 -0.41531,0.0841 -0.62297,0.12627 0.21426,3.74507 0.66572,5.86488 0.88996,12.23252 z"/><path style="fill:#fff;fill-rule:evenodd;stroke:none;stroke-width:1px;stroke-linecap:butt;stroke-linejoin:miter;stroke-opacity:1" id="path4514" d="m 111.31358,177.01778 c 2.03239,-1.45986 5.057,-1.20466 7.7387,-0.0417 0.37734,0.12147 0.75223,0.26115 1.12124,0.41764 3.09565,1.31282 5.78832,3.81329 6.00036,6.66442 0.0736,-2.92763 -2.44671,-5.77061 -5.63018,-7.44324 -0.37725,-0.19821 -0.76382,-0.38001 -1.15643,-0.54356 -3.0271,-0.94836 -6.18949,-0.80765 -8.07369,0.94648 z"/></g></svg>