<svg xmlns="http://www.w3.org/2000/svg" xmlns:svg="http://www.w3.org/2000/svg" xmlns:xlink="http://www.w3.org/1999/xlink" id="svg4164" version="1.1" viewBox="0 0 256 256"><style id="style3">svg{cursor:default}</style><defs id="defs4166"><linearGradient id="innoGrad1"><stop style="stop-color:#f95;stop-opacity:1" id="stop4579" offset="0"/><stop style="stop-color:#ffb380;stop-opacity:1" id="stop4581" offset="1"/></linearGradient><linearGradient id="innoGrad2"><stop style="stop-color:#ff2a2a;stop-opacity:1" id="stop4483" offset="0"/><stop style="stop-color:#f55;stop-opacity:1" id="stop4485" offset="1"/></linearGradient><linearGradient id="innoGrad3"><stop style="stop-color:#f55;stop-opacity:1" id="stop4475" offset="0"/><stop style="stop-color:#ff8080;stop-opacity:1" id="stop4477" offset="1"/></linearGradient><marker id="Arrow1Lstart" orient="auto" refX="0" refY="0" style="overflow:visible"><path id="path4233" d="M 0.0,0.0 L 5.0,-5.0 L -12.5,0.0 L 5.0,5.0 L 0.0,0.0 z" transform="scale(0.8) translate(12.5,0)" style="fill-rule:evenodd;stroke:#000;stroke-width:1pt;stroke-opacity:1;fill:#000;fill-opacity:1"/></marker><linearGradient id="linearGradient4479" x1="122.86" x2="99.879" y1="958.494" y2="955.135" gradientTransform="translate(0.75000001,-1.75)" gradientUnits="userSpaceOnUse" xlink:href="#innoGrad3"/><radialGradient id="radialGradient4489" cx="92.578" cy="949.901" r="34.466" fx="92.578" fy="949.901" gradientTransform="matrix(-1.05671,-0.01538685,0.02065569,-1.4185521,163.79333,2302.1879)" gradientUnits="userSpaceOnUse" xlink:href="#innoGrad2"/><radialGradient id="radialGradient4489-4" cx="92.578" cy="949.901" r="34.466" fx="92.578" fy="949.901" gradientTransform="matrix(1.0507124,0.11347328,0.15232915,-1.4105008,-64.159133,2286.8421)" gradientUnits="userSpaceOnUse" xlink:href="#innoGrad2"/><linearGradient id="linearGradient4565" x1="122.86" x2="99.879" y1="958.494" y2="955.135" gradientTransform="matrix(-0.99255022,-0.12183617,-0.12183617,0.99255022,378.37253,19.932571)" gradientUnits="userSpaceOnUse" xlink:href="#innoGrad3"/><linearGradient id="linearGradient4583" x1="136" x2="136" y1="923.862" y2="889.362" gradientUnits="userSpaceOnUse" xlink:href="#innoGrad1"/></defs><metadata id="metadata4169"/><g id="layer1" transform="translate(0,-796.36219)" style="display:inline"><path style="fill:url(#linearGradient4583);fill-rule:evenodd;stroke:#000;stroke-width:1px;stroke-linecap:butt;stroke-linejoin:miter;stroke-opacity:1;fill-opacity:1" id="path4427" d="m 42.125,877.11219 c -1.040615,-17.68313 177.54539,-24.69371 181.375,9 l -6,53.25 -158.249999,-9.25 c -5.708334,-17.66667 -21.133559,-26.3639 -17.125001,-53 z"/><path style="fill:#fca;fill-rule:evenodd;stroke:#000;stroke-width:1px;stroke-linecap:butt;stroke-linejoin:miter;stroke-opacity:1" id="path4421" d="m 106.75,921.11219 33.875,1.625 c 18.92796,0.90798 17.55377,34.16741 -1,32.25 l -40.499999,-6.375 z"/><path style="fill:none;fill-rule:evenodd;stroke:#000;stroke-width:1px;stroke-linecap:butt;stroke-linejoin:miter;stroke-opacity:1" id="path4573" d="m 42.25,892.86219 c 10.090639,-24.97658 162.72473,-37.97298 180.25,7.25"/><path id="path4429" d="m 106.375,924.11219 33.875,1.625 c 18.92796,0.90798 17.55377,34.16741 -1,32.25 l -40.499999,-6.375 z" style="fill:#ffb380;fill-rule:evenodd;stroke:#000;stroke-width:1px;stroke-linecap:butt;stroke-linejoin:miter;stroke-opacity:1"/><path style="fill:#fca;fill-rule:evenodd;stroke:#000;stroke-width:1px;stroke-linecap:butt;stroke-linejoin:miter;stroke-opacity:1" id="path4419" d="m 75.750001,1025.3622 c 3.87805,-2.0993 19.791666,-63.75001 33.749999,-104.00001 -30.273465,-8.85409 -65.556217,-18.72558 -67.25,-45.25 -7.794497,26.33956 -16.476646,50.23962 -24,77.75 -4.942693,18.07377 49.983649,75.56871 57.500001,71.50001 z"/><path style="fill:#fca;fill-rule:evenodd;stroke:#000;stroke-width:1px;stroke-linecap:butt;stroke-linejoin:miter;stroke-opacity:1" id="path4425" d="m 162.5,930.61219 c 3,32.33334 16.83369,97.36411 19.5,99.12501 3.80892,2.5155 60.56174,-40.16129 58,-67.12501 -2.44192,-25.70257 -8.81816,-51.16667 -16.625,-76.75 1.8858,15.36927 -31.25787,30.02365 -60.875,44.75 z"/><path style="display:inline;fill:#fca;fill-rule:evenodd;stroke:#000;stroke-width:1px;stroke-linecap:butt;stroke-linejoin:miter;stroke-opacity:1" id="path4421-2" d="m 167.61834,928.82829 -33.77218,-3.0978 c -18.8705,-1.73091 -22.13114,31.39681 -3.49093,32.0761 l 40.99293,-0.68556 z"/><path id="path4429-4" d="m 168.36767,931.58415 -33.77217,-3.0978 c -18.87051,-1.73092 -22.13115,31.39681 -3.49094,32.0761 l 40.99294,-0.68556 z" style="display:inline;fill:#ffb380;fill-rule:evenodd;stroke:#000;stroke-width:1px;stroke-linecap:butt;stroke-linejoin:miter;stroke-opacity:1"/><ellipse style="opacity:1;fill:#fd5;fill-opacity:1;stroke:#000;stroke-width:1;stroke-linecap:round;stroke-linejoin:round;stroke-miterlimit:4;stroke-dasharray:none;stroke-dashoffset:0;stroke-opacity:1" id="path4449" cx="135.125" cy="946.362" rx="13" ry="12.25"/><path style="fill:none;fill-rule:evenodd;stroke:#000;stroke-width:.5;stroke-linecap:butt;stroke-linejoin:miter;stroke-miterlimit:4;stroke-dasharray:2,2;stroke-dashoffset:0;stroke-opacity:1" id="path4451" d="m 19.445437,950.71559 c 7.183545,27.69467 26.234172,50.37881 54.623999,69.11971 12.224424,-30.65557 20.77484,-62.94402 28.814604,-95.45944"/><path style="fill:none;fill-rule:evenodd;stroke:#000;stroke-width:.5;stroke-linecap:butt;stroke-linejoin:miter;stroke-miterlimit:4;stroke-dasharray:2,2;stroke-dashoffset:0;stroke-opacity:1" id="path4453" d="m 168.11464,932.68437 c 3.18873,30.58238 7.30162,61.16475 16.08668,91.74713 17.27035,-10.9849 42.85804,-28.08905 55.3311,-63.81642"/><path style="fill:#ff2a2a;fill-rule:evenodd;stroke:none;stroke-width:1px;stroke-linecap:butt;stroke-linejoin:miter;stroke-opacity:1" id="path4461-4" d="m 141.49812,965.16464 c 14.80066,-10.10438 38.69989,-12.41326 56.58254,-10.54777 -17.66116,-2.49491 -42.01728,-0.96121 -57.65528,8.91293 z"/><path style="fill:url(#radialGradient4489);fill-opacity:1;fill-rule:evenodd;stroke:#000;stroke-width:1px;stroke-linecap:butt;stroke-linejoin:miter;stroke-opacity:1" id="path4459" d="M 116.18518,938.18221 C 100.62883,926.16139 74.659757,900.66528 69.516135,902.11976 57.385123,917.19448 50.388263,926.957 48.652282,942.48368 c -1.877372,16.79127 3.368753,29.61524 8.312708,56.15612 9.250321,2.6024 38.77302,-20.85962 58.15953,-31.28943 z"/><path style="fill:url(#linearGradient4479);fill-opacity:1;fill-rule:evenodd;stroke:#000;stroke-width:1px;stroke-linecap:butt;stroke-linejoin:miter;stroke-opacity:1" id="path4457" d="M 115.12452,937.4751 C 107.57901,927.60992 107.70804,917.90462 79.062077,907.59984 47.880032,938.06436 53.302894,968.52888 67.925145,998.9934 83.67481,991.3981 99.6305,991.21969 114.94775,968.05747 Z"/><path style="fill:#ff2a2a;fill-rule:evenodd;stroke:none;stroke-width:1px;stroke-linecap:butt;stroke-linejoin:miter;stroke-opacity:1" id="path4461" d="m 118.58491,964.83662 c -14.31847,-11.70585 -38.306281,-16.19558 -56.139843,-15.87103 17.976716,0.32716 41.416603,5.53063 54.875923,17.36299 z"/><path style="fill:#ff2a2a;fill-rule:evenodd;stroke:none;stroke-width:1px;stroke-linecap:butt;stroke-linejoin:miter;stroke-opacity:1" id="path4465" d="m 116.71551,952.14757 c 0.45236,-0.23198 0.90222,-0.46953 1.34952,-0.71248 -2.23548,-4.20737 -6.71655,-7.71934 -10.71868,-9.54057 3.58702,2.74835 6.90024,6.81016 7.90576,10.67943 0.48588,-0.14765 0.97371,-0.28984 1.4634,-0.42638 z"/><path style="fill:#ff2a2a;fill-rule:evenodd;stroke:none;stroke-width:1px;stroke-linecap:butt;stroke-linejoin:miter;stroke-opacity:1" id="path4469" d="m 114.84074,967.37043 c -2.09206,-0.0243 -3.87368,0.79398 -5.41959,1.79641 -1.53126,0.99293 -2.99638,2.28314 -4.3729,3.31005 1.59378,-0.82216 3.12848,-1.81517 4.79032,-2.54885 1.6507,-0.72875 3.23489,-1.10709 4.86263,-0.82997 z"/><path style="fill:#faa;fill-rule:evenodd;stroke:none;stroke-width:1px;stroke-linecap:butt;stroke-linejoin:miter;stroke-opacity:1" id="path4491" d="m 79.238853,909.89794 c 5.107795,2.24273 11.110567,6.05411 16.359041,10.47413 0.685324,0.44443 1.362526,0.89936 2.028774,1.36331 6.237502,4.34355 11.563542,9.50473 13.608772,14.32551 -1.27723,-5.21615 -6.06972,-11.13446 -12.028413,-16.34376 -0.633165,-0.55353 -1.279398,-1.09908 -1.935917,-1.63508 -6.010476,-3.80678 -12.589908,-6.82527 -18.032257,-8.18411 z"/><path style="fill:url(#radialGradient4489-4);fill-opacity:1;fill-rule:evenodd;stroke:#000;stroke-width:1px;stroke-linecap:butt;stroke-linejoin:miter;stroke-opacity:1" id="path4459-0" d="m 149.27958,938.79831 c 16.90502,-10.03594 47.20119,-32.17814 52.12929,-30.10781 10.20399,16.44041 14.36831,30.87176 14.19964,46.49428 -0.18239,16.89491 -5.71442,31.98937 -15.44617,49.24492 -9.49848,1.456 -35.41239,-23.83721 -53.38374,-36.5513 z"/><path style="fill:url(#linearGradient4565);fill-opacity:1;fill-rule:evenodd;stroke:#000;stroke-width:1px;stroke-linecap:butt;stroke-linejoin:miter;stroke-opacity:1" id="path4457-1" d="m 150.41849,938.2257 c 8.69123,-8.87237 9.74562,-18.52109 39.43367,-25.25899 27.23806,34.03667 18.14392,63.61353 -0.0811,92.06959 -14.70695,-9.45761 -30.52204,-11.57867 -42.90318,-36.43453 z"/><path style="fill:#ff2a2a;fill-rule:evenodd;stroke:none;stroke-width:1px;stroke-linecap:butt;stroke-linejoin:miter;stroke-opacity:1" id="path4465-6" d="m 148.31784,948.89881 c 0.40312,0.30974 0.80239,0.62401 1.19783,0.94263 2.37934,-3.21265 6.97099,-5.74099 11.32545,-6.94876 -4.39281,0.19268 -9.86201,1.7744 -13.50851,4.84073 0.32401,0.39258 0.65242,0.78111 0.98523,1.1654 z"/><path style="fill:#ff2a2a;fill-rule:evenodd;stroke:none;stroke-width:1px;stroke-linecap:butt;stroke-linejoin:miter;stroke-opacity:1" id="path4469-5" d="m 147.16262,965.42202 c 1.64937,-0.0767 3.17567,0.49179 4.72528,1.41623 1.56007,0.93069 2.96235,2.10329 4.44409,3.1135 -1.24115,-1.18697 -2.53816,-2.64608 -3.93704,-3.81817 -1.41226,-1.18331 -3.08092,-2.21251 -5.16035,-2.44334 z"/><path style="fill:#faa;fill-rule:evenodd;stroke:none;stroke-width:1px;stroke-linecap:butt;stroke-linejoin:miter;stroke-opacity:1" id="path4491-0" d="m 189.39671,915.22615 c -5.56736,0.68564 -12.46554,2.88003 -18.89504,5.92616 -0.71694,0.45202 -1.42482,0.91477 -2.12071,1.38704 -6.54898,4.4445 -12.02683,9.73482 -13.93006,14.7565 2.61734,-4.53568 8.53252,-9.00951 15.25275,-12.56074 0.71781,-0.37932 1.44539,-0.74836 2.17976,-1.10598 5.74789,-3.74764 12.17031,-6.79927 17.5133,-8.40298 z"/><path style="fill:#faa;fill-rule:evenodd;stroke:#000;stroke-width:1px;stroke-linecap:butt;stroke-linejoin:miter;stroke-opacity:1" id="path4455" d="m 114.59419,935.88411 c 0.38053,12.13867 0.8505,21.80246 -1.59099,33.94113 l 35.17857,1.59099 c 3.89436,-11.09052 1.86072,-21.34692 1.76776,-32.88047 z"/><path style="fill:#f95;fill-rule:evenodd;stroke:#000;stroke-width:1px;stroke-linecap:butt;stroke-linejoin:miter;stroke-opacity:1" id="path4575" d="m 88.000001,889.61219 0.75,17.25 C 118.8472,898.84262 150.56952,898.29864 184,905.61219 l 0.25,-16.75 c -32.08333,-6.56236 -64.16667,-6.68559 -96.249999,0.75 z"/></g></svg>