<svg xmlns="http://www.w3.org/2000/svg" xmlns:osb="http://www.openswatchbook.org/uri/2009/osb" xmlns:svg="http://www.w3.org/2000/svg" xmlns:xlink="http://www.w3.org/1999/xlink" id="svg2" version="1.1" viewBox="0 0 256 256"><style id="style3"/><defs id="defs4"><linearGradient id="linearGradient5760" osb:paint="solid"><stop id="stop5762" offset="0" style="stop-color:#efe7c1;stop-opacity:1"/></linearGradient></defs><metadata id="metadata7"/><g style="opacity:1" id="layer2"><g id="g4171"><path id="path4168" d="m 15.468283,187.08858 13.630847,6.89243 9.273248,1.07771 8.18166,4.76902 9.903028,1.24569 8.574265,5.59952 9.364466,0.8229 8.778107,5.67249 9.568317,0.89589 8.997059,5.06094 8.46099,1.41936 8.64724,5.39566 10.10688,1.31868 8.16657,5.45355 9.6413,0.69204 8.09357,5.65739 9.84515,0.76502 7.88973,5.58442 10.4567,0.98396 2.18196,3.54092 62.99855,-176.606374 -9.27639,-1.711281 -8.99706,-5.060949 -10.23775,-1.595511 -7.75886,-5.307583 -8.88378,-0.880787 -9.6665,-5.760575 -9.29148,-1.026751 -8.64725,-5.395665 -9.77216,-0.968865 -8.09358,-5.657398 -9.90304,-1.245699 -8.03569,-5.176718 -9.56832,-0.895884 -8.3704,-5.526529 -9.71428,-0.488186 -8.22445,-5.93423 -9.860249,-0.08049 -8.544067,-6.968572 -7.064238,0.460581 z" style="fill:#ff8080;fill-opacity:1;fill-rule:evenodd;stroke:#000;stroke-width:.85737503px;stroke-linecap:butt;stroke-linejoin:miter;stroke-opacity:1"/><path id="path5766" d="M 83.480166,44.014063 39.82184,166.6004 c -2.371679,6.65929 0.93475,9.78473 6.384799,11.71499 l 119.601581,42.35975 c 4.56652,1.61733 9.20682,2.47301 11.74268,-4.53506 L 221.01797,96.015024 c 1.79889,-4.971388 3.25915,-10.349844 -5.93181,-13.622612 L 96.169111,40.047762 C 91.16856,38.267138 85.889848,37.248018 83.480166,44.014063 Z" style="fill:#ffd5d5;fill-opacity:.44859812;fill-rule:evenodd;stroke:#000;stroke-width:.85737503px;stroke-linecap:butt;stroke-linejoin:miter;stroke-opacity:1"/><path id="path5773" d="m 95.679056,155.894 c 2.409927,2.98129 4.879824,5.41588 7.887064,7.47441 4.32953,3.95663 10.38669,7.20216 20.34367,10.19453 -10.06151,-2.36912 -16.55878,-5.06057 -21.54239,-8.73991 -2.766675,-2.67375 -4.81286,-5.6144 -6.688344,-8.92903 z" style="fill:#fff;fill-opacity:1;fill-rule:evenodd;stroke:none;stroke-width:1px;stroke-linecap:butt;stroke-linejoin:miter;stroke-opacity:1"/><path id="path5777" d="m 155.92606,70.146956 c 12.64916,7.687555 21.15439,16.831605 26.61863,25.187937 5.48877,6.293207 9.08309,12.348417 11.26626,16.977407 -0.99133,-5.01824 -3.52743,-11.8666 -8.25243,-19.234533 -6.77677,-8.016132 -16.37084,-16.337636 -29.63246,-22.930811 z" style="fill:#fff;fill-opacity:1;fill-rule:evenodd;stroke:none;stroke-width:1px;stroke-linecap:butt;stroke-linejoin:miter;stroke-opacity:1"/><path id="path5768" d="M 154.90175,68.384223 A 66.00911,63.813133 19.69836 0 0 71.247526,106.21326 66.00911,63.813133 19.69836 0 0 111.88342,188.5406 66.00911,63.813133 19.69836 0 0 195.53923,150.71212 66.00911,63.813133 19.69836 0 0 154.90175,68.384223 Z M 148.4135,86.506845 A 46.096623,44.563091 19.69836 0 1 176.79229,144.00035 46.096623,44.563091 19.69836 0 1 118.37168,170.41797 46.096623,44.563091 19.69836 0 1 89.994468,112.92503 46.096623,44.563091 19.69836 0 1 148.4135,86.506845 Z" style="opacity:1;fill:#fff;fill-opacity:.52336448;stroke:none;stroke-width:.5;stroke-linecap:round;stroke-linejoin:round;stroke-miterlimit:4;stroke-dasharray:none;stroke-dashoffset:0;stroke-opacity:1"/></g></g></svg>