<svg xmlns="http://www.w3.org/2000/svg" xmlns:svg="http://www.w3.org/2000/svg" id="svg4164" version="1.1" viewBox="0 0 256 256"><style id="style3">svg{cursor:default}</style><defs id="defs4166"><marker id="Arrow1Lstart" orient="auto" refX="0" refY="0" style="overflow:visible"><path id="path4233" d="M 0.0,0.0 L 5.0,-5.0 L -12.5,0.0 L 5.0,5.0 L 0.0,0.0 z" transform="scale(0.8) translate(12.5,0)" style="fill-rule:evenodd;stroke:#000;stroke-width:1pt;stroke-opacity:1;fill:#000;fill-opacity:1"/></marker></defs><metadata id="metadata4169"/><g id="layer1" transform="translate(0,-796.36219)" style="display:inline"><path style="display:inline;opacity:1;fill:#ff8080;fill-opacity:1;stroke:#000;stroke-width:1;stroke-linecap:round;stroke-linejoin:miter;stroke-miterlimit:4;stroke-dasharray:none;stroke-dashoffset:0;stroke-opacity:1" id="path4171-6" d="m 186.6232,828.46046 a 30.966231,103.77234 12.580749 0 0 -48.34826,82.46597 30.966231,103.77234 12.580749 0 0 1.13258,118.72787 30.966231,103.77234 12.580749 0 0 52.91045,-79.03947 c -3.12085,-0.013 -6.65752,-0.71163 -8.95256,-2.50696 a 16.916475,82.134429 12.391398 0 1 -32.5938,58.15013 16.916475,82.134429 12.391398 0 1 6.81145,-95.50018 16.916475,82.134429 12.391398 0 1 30.92036,-63.20875 16.916475,82.134429 12.391398 0 1 2.55787,1.74979 16.916475,82.134429 12.391398 0 1 -6.79554,95.44622 c 1.97242,1.24066 4.40074,2.24551 8.98756,2.24292 a 30.966231,103.77234 12.580749 0 0 -1.61935,-116.74594 30.966231,103.77234 12.580749 0 0 -5.01076,-1.7816 z"/><path style="fill:#fff;fill-rule:evenodd;stroke:none;stroke-width:1px;stroke-linecap:butt;stroke-linejoin:miter;stroke-opacity:1" id="path4232" d="m 194.13478,836.51598 c -1.3309,-3.1169 -3.00653,-5.20238 -5.18473,-6.09522 -0.73785,-0.30244 -1.52635,-0.46431 -2.35783,-0.48122 -1.62786,0.16296 -3.25316,0.88276 -4.85235,2.0065 -4.75458,3.34102 -9.86997,10.69517 -14.91592,20.58042 -10.13661,19.85807 -20.30841,50.58217 -26.69526,82.05324 6.77791,-31.40723 17.31856,-61.94014 27.74814,-81.50397 5.23575,-9.82124 10.37002,-16.73113 14.86264,-19.65528 1.47793,-0.96195 2.81766,-1.44477 4.01063,-1.50769 0.58761,-0.12992 1.18054,-0.15972 1.78345,-0.0691 1.83401,0.27567 3.77957,1.6818 5.60123,4.67232 z"/><path style="display:inline;opacity:1;fill:#ff8080;fill-opacity:1;stroke:#000;stroke-width:1;stroke-linecap:round;stroke-linejoin:miter;stroke-miterlimit:4;stroke-dasharray:none;stroke-dashoffset:0;stroke-opacity:1" id="path4171-6-5" d="m 122.47741,818.20545 a 30.966231,103.77234 12.580749 0 0 -48.348258,82.46597 30.966231,103.77234 12.580749 0 0 1.13258,118.72788 30.966231,103.77234 12.580749 0 0 52.910448,-79.03948 c -3.12085,-0.013 -6.65752,-0.71163 -8.95256,-2.50696 a 16.916475,82.134429 12.391398 0 1 -32.593798,58.15016 16.916475,82.134429 12.391398 0 1 6.81145,-95.50021 16.916475,82.134429 12.391398 0 1 30.920358,-63.20875 16.916475,82.134429 12.391398 0 1 2.55787,1.74979 16.916475,82.134429 12.391398 0 1 -6.79554,95.44622 c 1.97242,1.24066 4.40074,2.24551 8.98756,2.24292 a 30.966231,103.77234 12.580749 0 0 -1.61935,-116.74594 30.966231,103.77234 12.580749 0 0 -5.01076,-1.7816 z"/><path style="display:inline;fill:#fff;fill-rule:evenodd;stroke:none;stroke-width:1px;stroke-linecap:butt;stroke-linejoin:miter;stroke-opacity:1" id="path4232-8" d="m 129.98899,826.26097 c -1.3309,-3.1169 -3.00653,-5.20238 -5.18473,-6.09522 -0.73785,-0.30244 -1.52635,-0.46431 -2.35783,-0.48122 -1.62786,0.16296 -3.25316,0.88276 -4.85235,2.0065 -4.75458,3.34102 -9.86997,10.69517 -14.91592,20.58042 -10.136611,19.85807 -20.308405,50.58217 -26.695258,82.05324 6.777912,-31.40723 17.318562,-61.94014 27.748138,-81.50397 5.23575,-9.82124 10.37002,-16.73113 14.86264,-19.65528 1.47793,-0.96195 2.81766,-1.44477 4.01063,-1.50769 0.58761,-0.12992 1.18054,-0.15972 1.78345,-0.0691 1.83401,0.27567 3.77957,1.6818 5.60123,4.67232 z"/></g></svg>