<svg xmlns="http://www.w3.org/2000/svg" xmlns:svg="http://www.w3.org/2000/svg" id="svg4164" version="1.1" viewBox="0 0 256 256"><style id="style3">svg{cursor:default}</style><defs id="defs4166"><marker id="Arrow1Lstart" orient="auto" refX="0" refY="0" style="overflow:visible"><path id="path4233" d="M 0.0,0.0 L 5.0,-5.0 L -12.5,0.0 L 5.0,5.0 L 0.0,0.0 z" transform="scale(0.8) translate(12.5,0)" style="fill-rule:evenodd;stroke:#000;stroke-width:1pt;stroke-opacity:1;fill:#000;fill-opacity:1"/></marker></defs><metadata id="metadata4169"/><g id="layer1" transform="translate(0,-796.36219)" style="display:inline"><path style="fill:#ffb380;fill-rule:evenodd;stroke:#000;stroke-width:.94999999px;stroke-linecap:butt;stroke-linejoin:miter;stroke-opacity:1" id="path4186-2" d="m 68.664273,823.52387 -0.471711,1.38851 -23.565413,2.34313 c -1.452886,0.14446 -1.654173,1.75474 0.135322,1.58966 l 23.663326,-2.18291 1.271033,1.07161 c 1.503166,-2.45735 1.608827,-3.16094 -1.032557,-4.21 z"/><path style="fill:#f55;fill-rule:evenodd;stroke:#000;stroke-width:.94999999px;stroke-linecap:butt;stroke-linejoin:miter;stroke-opacity:1" id="path4181-0" d="m 29.867666,853.35025 4.713955,-2.72528 c 0.325517,-1.69622 -0.214978,-4.23197 1.292632,-5.11557 6.621109,-3.88063 13.384973,-6.26461 19.796087,-11.75584 1.167837,-1.00027 2.592867,-7.80848 3.889296,-11.71272 0.378254,-1.24707 2.093627,-0.75169 1.642673,0.39647 -1.463839,4.03767 -3.257152,11.32817 -4.391528,12.11301 -7.481933,5.17656 -12.800301,12.01544 -18.466706,18.97221 -1.242259,1.52515 -2.190281,-1.06862 -3.242567,-1.69043 l -4.323735,3.10919 z"/><ellipse style="opacity:1;fill:#ff2a2a;fill-opacity:1;stroke:#000;stroke-width:.47499999;stroke-linecap:round;stroke-linejoin:round;stroke-miterlimit:4;stroke-dasharray:none;stroke-dashoffset:0;stroke-opacity:1" id="path4183-9" cx="-34.516" cy="849.305" rx="1.811" ry="1.781" transform="matrix(0.99639631,-0.08481972,0.08481972,0.99639631,0,0)"/><path style="fill:#ff8080;fill-rule:evenodd;stroke:#000;stroke-width:.94999999px;stroke-linecap:butt;stroke-linejoin:miter;stroke-opacity:1" id="path4179-4" d="m 27.440406,852.06208 c 1.370508,-1.70108 5.309186,2.04423 4.329361,3.33945 -48.157956,72.51625 42.393944,156.97937 109.708273,96.84443 46.12073,-41.20172 21.27525,-138.00558 -68.922304,-124.58691 -2.903574,0.50559 -3.654853,-5.27284 -1.851468,-5.91002 C 143.27678,804.11146 207.70085,893.40862 144.86038,956.34022 83.022744,1018.2675 -27.967092,938.77689 27.440406,852.06208 Z"/><path style="fill:#ffd5d5;fill-rule:evenodd;stroke:none;stroke-width:1px;stroke-linecap:butt;stroke-linejoin:miter;stroke-opacity:1" id="path4188-0" d="m 74.269371,822.63593 c 19.335144,-3.44996 36.871499,0.3307 51.326779,8.41273 24.03557,12.62474 40.53207,37.21213 43.33245,61.94936 -2.26462,-24.77371 -18.3067,-50.01838 -42.56677,-63.37154 -15.03339,-7.77939 -32.858021,-10.96768 -52.092459,-6.99055 z"/><path style="fill:#ffb380;fill-rule:evenodd;stroke:#000;stroke-width:1px;stroke-linecap:butt;stroke-linejoin:miter;stroke-opacity:1" id="path4186" d="m 149.02276,873.02223 -0.61872,1.41421 -24.92551,0.35355 c -1.53674,0.0218 -1.89163,1.69275 0,1.67938 l 25.0139,-0.17677 1.23743,1.23743 c 1.79598,-2.44315 1.96962,-3.17167 -0.7071,-4.5078 z"/><path style="fill:#f55;fill-rule:evenodd;stroke:#000;stroke-width:1px;stroke-linecap:butt;stroke-linejoin:miter;stroke-opacity:1" id="path4181" d="m 105.66838,900.84137 5.1875,-2.4375 c 0.49286,-1.75 0.15237,-4.45785 1.8125,-5.25 7.29095,-3.47899 14.598,-5.3755 21.8125,-10.5625 1.31418,-0.94485 3.41667,-7.95833 5.125,-11.9375 0.50807,-1.2742 2.26299,-0.60147 1.6875,0.5625 -1.89583,4.10417 -4.42765,11.59061 -5.6875,12.3125 -8.30952,4.76135 -14.49823,11.45939 -21.0625,18.25 -1.4391,1.48872 -2.20184,-1.31637 -3.25,-2.0625 l -4.8125,2.875 z"/><ellipse style="opacity:1;fill:#ff2a2a;fill-opacity:1;stroke:#000;stroke-width:.5;stroke-linecap:round;stroke-linejoin:round;stroke-miterlimit:4;stroke-dasharray:none;stroke-dashoffset:0;stroke-opacity:1" id="path4183" cx="114.2" cy="897.154" rx="1.906" ry="1.875"/><path style="fill:#ff8080;fill-rule:evenodd;stroke:#000;stroke-width:1px;stroke-linecap:butt;stroke-linejoin:miter;stroke-opacity:1" id="path4179" d="m 103.23759,899.27357 c 1.58932,-1.6618 5.38596,2.61809 4.24264,3.88908 -56.98444,71.75809 30.44866,168.43105 106.41958,111.36935 52.05184,-39.09612 34.63597,-142.84601 -61.16474,-136.82519 -3.09052,0.27104 -3.36257,-5.85667 -1.41422,-6.36396 77.69158,-12.0194 137.2892,87.39091 65.76094,147.78535 C 146.695,1078.5588 37.38185,985.27638 103.23759,899.27357 Z"/><path style="fill:#ffd5d5;fill-rule:evenodd;stroke:none;stroke-width:1px;stroke-linecap:butt;stroke-linejoin:miter;stroke-opacity:1" id="path4188" d="m 154.98088,872.59137 c 20.58746,-1.89213 38.64271,3.63888 53.08236,13.40625 24.08224,15.38729 39.18914,42.64837 39.91765,68.84375 -0.16332,-26.18581 -14.73493,-54.09569 -38.9876,-70.26702 -15.07301,-9.50157 -33.4835,-14.43702 -54.01241,-11.98298 z"/></g></svg>