<svg xmlns="http://www.w3.org/2000/svg" xmlns:svg="http://www.w3.org/2000/svg" id="svg4164" version="1.1" viewBox="0 0 256 256"><style id="style3">svg{cursor:default}</style><defs id="defs4166"><marker id="Arrow1Lstart" orient="auto" refX="0" refY="0" style="overflow:visible"><path id="path4233" d="M 0.0,0.0 L 5.0,-5.0 L -12.5,0.0 L 5.0,5.0 L 0.0,0.0 z" transform="scale(0.8) translate(12.5,0)" style="fill-rule:evenodd;stroke:#000;stroke-width:1pt;stroke-opacity:1;fill:#000;fill-opacity:1"/></marker></defs><metadata id="metadata4169"/><g id="layer1" transform="translate(0,-796.36219)" style="display:inline"><g id="g4349" transform="matrix(0.857375,0,0,0.857375,-288.71282,110.30449)"><path id="path4314" d="m 485.79883,833.85828 a 124.1237,121.82559 0 0 0 -124.12305,121.82618 124.1237,121.82559 0 0 0 124.12305,121.82614 124.1237,121.82559 0 0 0 124.125,-121.82614 124.1237,121.82559 0 0 0 -124.125,-121.82618 z m 0,41.00391 a 82.346199,80.821579 0 0 1 82.34765,80.82227 82.346199,80.821579 0 0 1 -82.34765,80.82224 82.346199,80.821579 0 0 1 -82.34571,-80.82224 82.346199,80.821579 0 0 1 82.34571,-80.82227 z" style="opacity:1;fill:#ff8080;fill-opacity:1;stroke:#000;stroke-width:.94700003;stroke-linecap:round;stroke-linejoin:miter;stroke-miterlimit:4;stroke-dasharray:none;stroke-dashoffset:0;stroke-opacity:1"/><path id="path4319" d="m 417.87501,1057.6122 c 6.18741,-13.7146 14.50582,-26.9483 21.87501,-34.75" style="fill:none;fill-rule:evenodd;stroke:#000;stroke-width:1px;stroke-linecap:butt;stroke-linejoin:miter;stroke-opacity:1"/><path id="path4321" d="m 530.12502,1023.4872 c 9.59719,11.238 18.27887,27.101 21,35.5" style="fill:none;fill-rule:evenodd;stroke:#000;stroke-width:1px;stroke-linecap:butt;stroke-linejoin:miter;stroke-opacity:1"/><path id="path4323" d="m 490.39581,840.24918 c 35.42204,3.27676 62.19581,18.65148 80.19431,39.82021 23.88309,25.7249 34.84846,61.93095 31.17502,97.3585 5.00362,-35.1716 -4.4421,-72.51823 -28.15488,-100.07717 -19.72159,-21.05761 -47.72942,-35.1753 -83.21445,-37.10154 z" style="fill:#fff;fill-opacity:1;fill-rule:evenodd;stroke:none;stroke-width:1px;stroke-linecap:butt;stroke-linejoin:miter;stroke-opacity:1"/><path id="path4323-7" d="m 434.02816,1027.9116 c -1.80967,-1.2756 -4.92656,-3.2151 -8.91001,-6.446 -3.94095,-3.1964 -8.6258,-7.5834 -13.23962,-13.4996 -9.22308,-11.82647 -18.21642,-29.835 -20.31824,-56.74648 1.63,26.94507 10.17505,45.27129 19.18565,57.60138 4.50317,6.1622 9.10856,10.8071 12.99325,14.2662 2.478,2.2065 8.44943,6.9797 8.53197,7.0533 z" style="display:inline;fill:#fff;fill-opacity:1;fill-rule:evenodd;stroke:none;stroke-width:1px;stroke-linecap:butt;stroke-linejoin:miter;stroke-opacity:1"/><path id="path4345" d="m 434.25331,1031.267 c 8.59694,5.6112 20.40951,9.3857 32.77301,11.4065 12.39729,2.0263 25.46149,2.3076 36.61983,0.8459 -11.2027,1.0229 -24.18559,0.2903 -36.38171,-2.1476 -12.2279,-2.4442 -23.56281,-6.5828 -31.51771,-12.2894 z" style="fill:#fff;fill-rule:evenodd;stroke:none;stroke-width:1px;stroke-linecap:butt;stroke-linejoin:miter;stroke-opacity:1"/></g></g></svg>