<svg xmlns="http://www.w3.org/2000/svg" xmlns:svg="http://www.w3.org/2000/svg" id="svg4164" version="1.1" viewBox="0 0 256 256"><style id="style3">svg{cursor:default}</style><defs id="defs4166"><marker id="Arrow1Lstart" orient="auto" refX="0" refY="0" style="overflow:visible"><path id="path4233" d="M 0.0,0.0 L 5.0,-5.0 L -12.5,0.0 L 5.0,5.0 L 0.0,0.0 z" transform="scale(0.8) translate(12.5,0)" style="fill-rule:evenodd;stroke:#000;stroke-width:1pt;stroke-opacity:1;fill:#000;fill-opacity:1"/></marker></defs><metadata id="metadata4169"/><g id="layer1" transform="translate(0,-796.36219)" style="display:inline"><path style="display:inline;fill:#ff2a2a;fill-opacity:1;fill-rule:evenodd;stroke:#000;stroke-width:.89999998px;stroke-linecap:butt;stroke-linejoin:miter;stroke-opacity:1" id="path4182-6" d="m 75.033446,1023.0238 109.575014,12.375 c 7.08061,0.7996 16.90633,1.9868 17.325,-10.35 l 3.375,-99.45002 c 0.16847,-4.96441 -2.08547,-9.0285 -9.225,-13.275 -18.1598,-10.80123 -35.61307,-28.91687 -35.88751,-70.20001 0.22436,-39.57594 -42.20194,-39.35655 -43.875,0.7875 -0.75616,18.14358 -11.93025,48.45557 -32.512504,61.9875 -6.043,3.97301 -9.80032,6.85769 -10.0125,11.81251 l -4.1625,97.20002 c -0.18628,4.35 1.10491,8.6274 5.4,9.1125 z"/><path style="fill:#ff8080;fill-opacity:1;fill-rule:evenodd;stroke:#000;stroke-width:.89999998px;stroke-linecap:butt;stroke-linejoin:miter;stroke-opacity:1" id="path4182" d="m 58.353748,1022.8917 113.850012,20.475 c 7.01311,1.2612 16.89403,1.9864 17.325,-10.35 l 3.6,-103.05003 c 0.17342,-4.96424 -2.08547,-9.0285 -9.225,-13.275 -18.1598,-10.80123 -40.11307,-33.41687 -40.38751,-74.70001 0.22436,-39.57594 -42.20194,-39.35655 -43.875002,0.7875 -0.75616,18.14358 -11.93025,48.45557 -32.5125,61.9875 -6.04301,3.97301 -9.80032,6.85769 -10.0125,11.81251 l -4.162502,97.20003 c -0.186282,4.3499 1.145862,8.3474 5.400002,9.1125 z"/><path style="fill:#faa;fill-opacity:1;fill-rule:evenodd;stroke:#000;stroke-width:.89999998px;stroke-linecap:butt;stroke-linejoin:miter;stroke-opacity:1" id="path4186" d="m 96.603748,824.55416 c 4.976302,-6.67112 12.704402,-5.0868 20.137502,-4.3875 21.98918,1.75852 22.06816,33.73098 3.0375,37.9125 -5.90587,-2.52553 -19.32172,-4.19025 -20.768252,-8.13529 z"/><path style="fill:none;fill-rule:evenodd;stroke:#000;stroke-width:.89999998px;stroke-linecap:butt;stroke-linejoin:miter;stroke-opacity:1" id="path4188" d="m 123.38688,829.88895 7.07989,0.71595"/><path style="fill:none;fill-rule:evenodd;stroke:#000;stroke-width:.89999998px;stroke-linecap:butt;stroke-linejoin:miter;stroke-opacity:1" id="path4190" d="m 123.14822,843.01462 c 0.3182,0.0796 7.8754,0.71595 7.8754,0.71595"/><path style="fill:none;fill-rule:evenodd;stroke:#000;stroke-width:.89999998px;stroke-linecap:butt;stroke-linejoin:miter;stroke-opacity:1" id="path4192" d="m 115.82967,852.56056 7.47765,0.4773"/><path style="fill:none;fill-rule:evenodd;stroke:#000;stroke-width:.89999998px;stroke-linecap:butt;stroke-linejoin:miter;stroke-opacity:1" id="path4194" d="m 115.27282,821.29761 4.29567,0.31818"/><path style="display:inline;fill:none;fill-opacity:1;fill-rule:evenodd;stroke:#1a1a1a;stroke-width:1.64925241;stroke-linecap:round;stroke-linejoin:round;stroke-miterlimit:4;stroke-dasharray:none;stroke-opacity:1" id="path4352" d="m 118.88476,884.05883 -12.64848,31.32458 27.55809,-18.47671 -31.79201,-1.57374 25.21125,21.09986 z"/><path style="fill:none;fill-rule:evenodd;stroke:#1a1a1a;stroke-width:3.5999999;stroke-linecap:round;stroke-linejoin:miter;stroke-miterlimit:4;stroke-dasharray:none;stroke-opacity:1" id="path4262" d="m 84.281158,1021.6768 11.25,-43.20003 c 4.785902,-18.37782 -13.79673,-28.95993 -14.5125,-5.175 -0.50596,16.81308 9.16747,21.04425 13.5,8.55"/><path style="display:inline;fill:none;fill-rule:evenodd;stroke:#1a1a1a;stroke-width:3.5999999;stroke-linecap:round;stroke-linejoin:miter;stroke-miterlimit:4;stroke-dasharray:none;stroke-opacity:1" id="path4262-4" d="m 71.455008,955.65673 -11.25,43.20008 c -4.785901,18.37779 13.79673,28.95989 14.5125,5.17499 0.50598,-16.81315 -9.16749,-21.04433 -13.5,-8.55008"/><path style="display:inline;fill:none;fill-rule:evenodd;stroke:#1a1a1a;stroke-width:3.5999999;stroke-linecap:round;stroke-linejoin:miter;stroke-miterlimit:4;stroke-dasharray:none;stroke-opacity:1" id="path4262-5" d="m 165.75633,1032.4191 11.25,-43.20002 c 4.78589,-18.37791 -13.79674,-28.96003 -14.5125,-5.175 -0.50596,16.81312 9.16746,21.04422 13.5,8.55"/><path style="display:inline;fill:none;fill-rule:evenodd;stroke:#1a1a1a;stroke-width:3.5999999;stroke-linecap:round;stroke-linejoin:miter;stroke-miterlimit:4;stroke-dasharray:none;stroke-opacity:1" id="path4262-4-5" d="m 152.93018,966.39894 -11.25,43.20016 c -4.78591,18.3778 13.79673,28.96 14.5125,5.175 0.50598,-16.81314 -9.16749,-21.04432 -13.5,-8.5501"/><path style="fill:none;fill-rule:evenodd;stroke:#1a1a1a;stroke-width:3.5999999;stroke-linecap:butt;stroke-linejoin:miter;stroke-miterlimit:4;stroke-dasharray:none;stroke-opacity:1" id="path4305" d="m 100.63571,1014.3644 1.27279,-40.88857 c 0.52353,-16.81866 12.09696,-14.24268 11.45513,0.63639 l -1.7501,40.57028 c -0.58323,13.5205 -11.33384,11.1192 -10.97782,-0.3181 z"/><path style="display:inline;fill:none;fill-rule:evenodd;stroke:#1a1a1a;stroke-width:3.5999999;stroke-linecap:butt;stroke-linejoin:miter;stroke-miterlimit:4;stroke-dasharray:none;stroke-opacity:1" id="path4305-1" d="m 122.10536,1017.3796 1.27279,-40.88851 c 0.52353,-16.81867 12.09697,-14.2427 11.45513,0.63639 l -1.75009,40.57032 c -0.58324,13.5205 -11.33385,11.1192 -10.97783,-0.3182 z"/><path style="fill:none;fill-rule:evenodd;stroke:#1a1a1a;stroke-width:1.89479065;stroke-linecap:round;stroke-linejoin:round;stroke-miterlimit:4;stroke-dasharray:none;stroke-opacity:1" id="path4322" d="m 61.358378,920.77306 -0.51431,21.39197 c 0,0 8.90776,0.52734 8.63615,-10.07835 -0.28181,-11.00409 -8.12184,-11.31362 -8.12184,-11.31362 z"/><path style="fill:none;fill-rule:evenodd;stroke:#1a1a1a;stroke-width:1.89479065;stroke-linecap:round;stroke-linejoin:round;stroke-miterlimit:4;stroke-dasharray:none;stroke-opacity:1" id="path4324" d="m 73.851918,942.92259 0.37706,-20.55569 10.40783,21.84357 0.44963,-20.78787"/><path style="display:inline;fill:none;fill-rule:evenodd;stroke:#1a1a1a;stroke-width:1.91707647;stroke-linecap:round;stroke-linejoin:miter;stroke-miterlimit:4;stroke-dasharray:none;stroke-opacity:1" id="path4262-4-7" d="m 113.5096,926.18252 -6.3562,15.24029 c -2.70403,6.48335 7.79509,10.21659 8.1995,1.82566 0.28587,-5.93142 -5.1796,-7.42411 -7.62746,-3.01634"/><path style="display:inline;fill:none;fill-rule:evenodd;stroke:#1a1a1a;stroke-width:1.95200765;stroke-linecap:round;stroke-linejoin:miter;stroke-miterlimit:4;stroke-dasharray:none;stroke-opacity:1" id="path4262-4-7-6" d="m 95.786848,929.71259 c 0.45942,-3.47777 0.60479,-5.34962 4.10777,-5.14553 3.468472,0.2021 3.500202,2.08716 3.270112,5.24011 -0.24012,3.29053 -1.49605,5.81517 -4.261752,5.5055 -3.41862,-0.38277 -3.92443,1.61892 -4.36328,5.28479 -0.42942,3.58711 -0.0581,5.55969 3.13319,5.97532 4.009472,0.52217 3.952262,-1.81455 4.340442,-5.78356 0.2554,-2.61144 0.53428,-5.13772 -3.192292,-5.37205 -2.53469,-0.15938 -3.4084,-2.87178 -3.03419,-5.70458 z"/><path style="fill:none;fill-rule:evenodd;stroke:#1a1a1a;stroke-width:1.79999995;stroke-linecap:round;stroke-linejoin:round;stroke-miterlimit:4;stroke-dasharray:none;stroke-opacity:1" id="path4356" d="m 119.23705,927.49055 9.22774,0.95459 -5.17071,20.12604"/><path style="fill:none;fill-rule:evenodd;stroke:#1a1a1a;stroke-width:1.79999995;stroke-linecap:round;stroke-linejoin:miter;stroke-miterlimit:4;stroke-dasharray:none;stroke-opacity:1" id="path4358" d="m 144.13604,930.08274 -8.90954,-0.95459 -1.35234,7.5572 c 12.55091,-0.29709 9.05387,17.21732 -1.51144,12.88701"/><path style="fill:none;fill-rule:evenodd;stroke:#1a1a1a;stroke-width:1.79999995;stroke-linecap:round;stroke-linejoin:round;stroke-miterlimit:4;stroke-dasharray:none;stroke-opacity:1" id="path4362" d="m 150.04435,930.68619 8.75045,0.55684 -6.68216,6.92081 c 11.4461,-0.14364 2.76481,18.39118 -5.88666,12.56882"/><path style="display:inline;fill:none;fill-rule:evenodd;stroke:#1a1a1a;stroke-width:1.79999995;stroke-linecap:butt;stroke-linejoin:miter;stroke-miterlimit:4;stroke-dasharray:none;stroke-opacity:1" id="path4305-1-7" d="m 162.50981,951.34699 0.91953,-15.63747 c 0.37822,-6.43216 8.73937,-5.447 8.27568,0.24339 l -1.26434,15.51575 c -0.42137,5.1708 -8.18808,4.25245 -7.93087,-0.12167 z"/><path style="display:inline;fill:none;fill-rule:evenodd;stroke:#1a1a1a;stroke-width:1.78754091;stroke-linecap:round;stroke-linejoin:miter;stroke-miterlimit:4;stroke-dasharray:none;stroke-opacity:1" id="path4262-5-9" d="m 178.54738,955.66531 7.32801,-16.35144 c 3.11744,-6.95617 -8.98691,-10.96156 -9.45314,-1.95878 -0.32957,6.36386 5.9715,7.96538 8.79363,3.23623"/><ellipse style="fill:#ffb380;fill-opacity:1;stroke:#000;stroke-width:.87488776;stroke-linecap:round;stroke-linejoin:round;stroke-miterlimit:4;stroke-dasharray:none;stroke-dashoffset:0;stroke-opacity:1" id="path4184" cx="105.323" cy="836.535" rx="13.119" ry="15.819"/></g></svg>