<svg xmlns="http://www.w3.org/2000/svg" xmlns:svg="http://www.w3.org/2000/svg" id="svg4164" version="1.1" viewBox="0 0 256 256"><style id="style3">svg{cursor:default}</style><defs id="defs4166"><marker id="Arrow1Lstart" orient="auto" refX="0" refY="0" style="overflow:visible"><path id="path4233" d="M 0.0,0.0 L 5.0,-5.0 L -12.5,0.0 L 5.0,5.0 L 0.0,0.0 z" transform="scale(0.8) translate(12.5,0)" style="fill-rule:evenodd;stroke:#000;stroke-width:1pt;stroke-opacity:1;fill:#000;fill-opacity:1"/></marker></defs><metadata id="metadata4169"/><g id="layer1" transform="translate(0,-796.36219)" style="display:inline"><g id="g4282"><g id="g4307"><ellipse style="display:inline;opacity:1;fill:#faa;fill-opacity:1;stroke:#000;stroke-width:1.00943601;stroke-linecap:round;stroke-linejoin:miter;stroke-miterlimit:4;stroke-dasharray:none;stroke-dashoffset:0;stroke-opacity:1" id="path4173-2-7" cx="131.918" cy="980.806" rx="32.77" ry="33.083"/><path style="fill:#ff8080;fill-rule:evenodd;stroke:#000;stroke-width:1px;stroke-linecap:butt;stroke-linejoin:miter;stroke-opacity:1" id="path4171" d="m 115.10208,866.53871 c 10.95389,29.36111 10.69678,45.45057 10.59771,82.75447 3.56221,0.7772 9.59975,0.7436 12.37491,-0.211 1.60953,-40.85952 -2.57338,-69.35071 -11.64635,-86.24689 z"/><ellipse style="display:inline;opacity:1;fill:#faa;fill-opacity:1;stroke:#000;stroke-width:1.09364581;stroke-linecap:round;stroke-linejoin:miter;stroke-miterlimit:4;stroke-dasharray:none;stroke-dashoffset:0;stroke-opacity:1" id="path4173-2" cx="116.002" cy="852.131" rx="21.078" ry="20.891"/><path style="display:inline;fill:#fff;fill-rule:evenodd;stroke:none;stroke-width:1px;stroke-linecap:butt;stroke-linejoin:miter;stroke-opacity:1" id="path4200-0" d="m 118.68812,834.72945 c 2.24638,-0.0693 4.70716,0.65829 7.02268,1.8829 0.63993,0.49089 1.2518,1.01997 1.827,1.5756 2.43136,2.34868 4.22328,5.18814 4.71384,7.66836 -0.89919,-2.32142 -3.00895,-4.78915 -5.56193,-6.66838 -0.60571,-0.44585 -1.23617,-0.85846 -1.88136,-1.22838 -1.82584,-1.54654 -3.95897,-2.76478 -6.12023,-3.2301 z"/><ellipse id="ellipse4202" cx="130.043" cy="980.431" rx="28.096" ry="28.364" style="display:inline;opacity:1;fill:#d7e3f4;fill-opacity:1;stroke:#000;stroke-width:.86546516;stroke-linecap:round;stroke-linejoin:miter;stroke-miterlimit:4;stroke-dasharray:none;stroke-dashoffset:0;stroke-opacity:1"/><ellipse style="display:inline;opacity:1;fill:#f2f2f2;fill-opacity:1;stroke:#000;stroke-width:.78108227;stroke-linecap:round;stroke-linejoin:miter;stroke-miterlimit:4;stroke-dasharray:none;stroke-dashoffset:0;stroke-opacity:1" id="ellipse4244" cx="130.668" cy="980.806" rx="25.357" ry="25.599"/><path style="fill:#dbdbe3;fill-rule:evenodd;stroke:#000;stroke-width:.5;stroke-linecap:butt;stroke-linejoin:miter;stroke-miterlimit:4;stroke-dasharray:none;stroke-opacity:1" id="path4228" d="m 124.75318,992.12867 c 0.17678,0.44194 -0.4741,13.25653 -0.4741,13.25653 3.89297,1.2185 7.78593,1.0523 11.6789,0.1929 l -1.73835,-13.46905 z"/><path style="fill:#d7e3f4;fill-rule:evenodd;stroke:#000;stroke-width:.5;stroke-linecap:butt;stroke-linejoin:miter;stroke-miterlimit:4;stroke-dasharray:none;stroke-opacity:1" id="path4234" d="m 140.13183,986.07905 15.03951,0.1616 c 0.47577,-3.64425 1.24317,-7.24873 -0.0375,-11.13249 l -15.26714,1.42494 z"/><path style="fill:#dbdee3;fill-rule:evenodd;stroke:#000;stroke-width:.5;stroke-linecap:butt;stroke-linejoin:miter;stroke-miterlimit:4;stroke-dasharray:none;stroke-opacity:1" id="path4238" d="m 135.20629,968.9232 0.2866,-13.01767 c -3.73172,-0.63398 -6.97789,-0.53754 -9.87896,0.0777 l -0.52145,12.6645 z"/><path style="fill:#f9f9f9;fill-rule:evenodd;stroke:#000;stroke-width:.5;stroke-linecap:butt;stroke-linejoin:miter;stroke-miterlimit:4;stroke-dasharray:none;stroke-opacity:1" id="path4242" d="m 118.30083,985.83977 -12.2869,0.41606 c -0.7038,-3.65418 -0.79941,-7.40973 -0.004,-11.31371 l 11.83776,-0.12592 z"/><path style="fill:#f2f7f9;fill-opacity:1;fill-rule:evenodd;stroke:#000;stroke-width:.5;stroke-linecap:butt;stroke-linejoin:miter;stroke-miterlimit:4;stroke-dasharray:none;stroke-opacity:1" id="path4204" d="m 125.01167,968.46261 -7.28125,6.15625 0.5,11.25 6,6.25 10.71469,-0.0732 5.25092,-5.49556 -0.18528,-11.26203 -4.24242,-6.82008 z"/><path style="fill:#d7e3f4;fill-rule:evenodd;stroke:#000;stroke-width:.5;stroke-linecap:butt;stroke-linejoin:miter;stroke-miterlimit:4;stroke-dasharray:none;stroke-opacity:1" id="path4230" d="m 124.31032,992.35462 c 0.44194,-0.35355 4.83991,-10.36288 4.83991,-10.36288 l -10.76059,3.8191 -8.57057,9.11333 c 1.68731,2.38654 3.26773,4.80096 6.81479,6.70233 z"/><path style="fill:#dbdee3;fill-rule:evenodd;stroke:#000;stroke-width:.5;stroke-linecap:butt;stroke-linejoin:miter;stroke-miterlimit:4;stroke-dasharray:none;stroke-opacity:1" id="path4236" d="m 129.56092,981.67924 c 0,-0.18042 5.71322,-13.08515 5.71322,-13.08515 l 6.62546,-10.51205 c 4.60564,2.54781 8.31078,5.72598 10.56241,9.9216 l -12.75205,7.4175 z"/><path style="fill:#d7e3f4;fill-rule:evenodd;stroke:#000;stroke-width:.5;stroke-linecap:butt;stroke-linejoin:miter;stroke-miterlimit:4;stroke-dasharray:none;stroke-opacity:1" id="path4240" d="m 129.33865,981.64355 c -0.22127,-0.0443 -11.75143,-7.1214 -11.75143,-7.1214 l -6.9771,-9.30275 c 2.37845,-2.5088 4.45618,-5.18466 8.3527,-6.85009 l 6.16845,10.13148 z"/><path style="fill:#dbdee3;fill-rule:evenodd;stroke:#000;stroke-width:.5;stroke-linecap:butt;stroke-linejoin:miter;stroke-miterlimit:4;stroke-dasharray:none;stroke-opacity:1" id="path4232" d="m 129.80112,982.13819 4.52746,9.49839 9.07898,11.11312 c 3.75208,-2.2552 6.52132,-5.02308 8.35676,-8.2782 l -12.04818,-8.50086 z"/><path style="fill:#fff;fill-rule:evenodd;stroke:none;stroke-width:1px;stroke-linecap:butt;stroke-linejoin:miter;stroke-opacity:1" id="path4250" d="m 112.84187,964.35132 c 2.86842,4.44433 3.61283,6.05798 5.22759,9.03019 0.41055,-0.23588 0.82159,-0.47098 1.2332,-0.70535 0.34493,-0.32525 0.68885,-0.64955 1.0337,-0.97481 -2.37532,-2.42225 -3.92795,-3.53771 -7.49449,-7.35003 z"/><path style="fill:#fff;fill-rule:evenodd;stroke:none;stroke-width:1px;stroke-linecap:butt;stroke-linejoin:miter;stroke-opacity:1" id="path4254" d="m 127.57417,956.49386 c -0.3453,1.22397 -0.70748,2.83061 -1.06217,4.51102 0.22016,2.18659 0.4537,4.5 0.74967,6.23898 0.26671,-1.56702 0.68528,-4.18837 1.02707,-6.17681 -0.23771,-1.69497 -0.4679,-3.32523 -0.71457,-4.57319 z"/><path style="fill:#fff;fill-rule:evenodd;stroke:none;stroke-width:1px;stroke-linecap:butt;stroke-linejoin:miter;stroke-opacity:1" id="path4258" d="m 106.83137,976.68634 c 1.45566,-0.0709 3.27049,-0.48479 5.01374,-0.92512 1.56275,0.22858 3.19486,0.4223 4.45539,0.75148 -1.21522,0.31735 -2.81138,0.81353 -4.32683,1.23427 -1.85039,-0.21176 -3.75146,-0.47634 -5.1423,-1.06063 z"/><path style="fill:#fff;fill-rule:evenodd;stroke:none;stroke-width:1px;stroke-linecap:butt;stroke-linejoin:miter;stroke-opacity:1" id="path4262" d="m 127.55472,993.82651 c -0.36723,1.07194 -0.76889,2.68976 -1.20675,4.48263 0.0394,0.25031 0.0786,0.50265 0.11759,0.75503 0.31454,2.03683 0.6205,4.10603 0.97488,5.29033 0.35718,-1.1937 0.75963,-3.2022 1.15658,-5.24874 0.0489,-0.25199 0.0974,-0.50324 0.14584,-0.75395 -0.36506,-1.77772 -0.75167,-3.51053 -1.18814,-4.5253 z"/><path style="fill:#fff;fill-rule:evenodd;stroke:none;stroke-width:1px;stroke-linecap:butt;stroke-linejoin:miter;stroke-opacity:1" id="path4266" d="m 143.86659,1000.7134 c -0.77522,-1.10138 -2.17289,-3.24511 -3.45266,-5.23399 -0.466,-0.72421 -2.75226,-4.30296 -2.8535,-4.45985 -0.48063,0.0586 -0.95452,0.15027 -1.37972,0.28648 -0.16915,0.44081 -0.31433,0.83212 -0.46998,1.30342 0.91609,0.78457 2.28739,2.24148 3.65374,3.691 1.65477,1.75551 3.37197,3.57145 4.50212,4.41294 z"/><path style="fill:#fff;fill-rule:evenodd;stroke:none;stroke-width:1px;stroke-linecap:butt;stroke-linejoin:miter;stroke-opacity:1" id="path4270" d="m 113.23042,995.18136 c 1.37724,-1.96097 2.83768,-3.91822 3.99057,-5.50816 0.29127,-0.4017 0.56274,-0.77972 0.80754,-1.12748 0.33055,-0.25883 0.63574,-0.48893 0.9099,-0.685 0.56266,-0.40239 0.97448,-0.64855 1.23869,-0.73167 -0.0149,0.26994 -0.21967,0.7467 -0.54125,1.34475 -0.16034,0.29821 -0.35152,0.63022 -0.56739,0.9902 -0.31486,0.28603 -0.65554,0.60137 -1.01624,0.94061 -1.42468,1.33996 -3.16211,3.05351 -4.82182,4.77675 z"/><path style="fill:#fff;fill-rule:evenodd;stroke:none;stroke-width:1px;stroke-linecap:butt;stroke-linejoin:miter;stroke-opacity:1" id="path4274" d="m 135.5847,969.38588 c -1.84383,4.58718 -3.90469,8.44508 -4.96445,10.99263 1.31135,-2.29096 3.74594,-6.1788 5.87891,-10.58797 z"/><path style="fill:#fff;fill-rule:evenodd;stroke:none;stroke-width:1px;stroke-linecap:butt;stroke-linejoin:miter;stroke-opacity:1" id="path4278" d="m 154.50187,977.1207 c -1.62601,0.20261 -4.10952,0.70269 -6.6098,1.19589 -1.30526,0.25747 -2.65643,0.5214 -3.90881,0.74315 -1.19628,-0.24179 -2.32129,-0.51943 -3.2399,-0.86099 0.85942,-0.31955 2.01472,-0.7694 3.06826,-1.18309 1.24917,0.0128 2.59646,-0.0141 3.93608,-0.0404 2.56775,-0.0505 5.09744,-0.0985 6.75417,0.14544 z"/></g></g></g></svg>