<svg xmlns="http://www.w3.org/2000/svg" xmlns:svg="http://www.w3.org/2000/svg" id="svg4164" version="1.1" viewBox="0 0 256 256"><style id="style3">svg{cursor:default}</style><defs id="defs4166"><marker id="Arrow1Lstart" orient="auto" refX="0" refY="0" style="overflow:visible"><path id="path4233" d="M 0.0,0.0 L 5.0,-5.0 L -12.5,0.0 L 5.0,5.0 L 0.0,0.0 z" transform="scale(0.8) translate(12.5,0)" style="fill-rule:evenodd;stroke:#000;stroke-width:1pt;stroke-opacity:1;fill:#000;fill-opacity:1"/></marker></defs><metadata id="metadata4169"/><g id="layer1" transform="translate(0,-796.36219)" style="display:inline"><ellipse style="opacity:1;fill:#faa;fill-opacity:1;stroke:#000;stroke-width:.8;stroke-linecap:round;stroke-linejoin:miter;stroke-miterlimit:4;stroke-dasharray:none;stroke-dashoffset:0;stroke-opacity:1" id="path4173" cx="-870.831" cy="-83.69" rx="13.988" ry="14.08" transform="matrix(-0.02199983,-0.99975797,-0.99975797,0.02199983,0,0)"/><path style="fill:#ff8080;fill-rule:evenodd;stroke:#000;stroke-width:.8;stroke-linecap:butt;stroke-linejoin:miter;stroke-opacity:1;stroke-miterlimit:4;stroke-dasharray:none" id="path4171" d="M 219.59949,901.6435 113.75043,875.52025 c -1.31218,-2.62296 0.0807,-6.93349 1.99526,-7.77135 l 106.7514,24.51912 z"/><ellipse style="display:inline;opacity:1;fill:#faa;fill-opacity:1;stroke:#000;stroke-width:.8;stroke-linecap:round;stroke-linejoin:miter;stroke-miterlimit:4;stroke-dasharray:none;stroke-dashoffset:0;stroke-opacity:1" id="path4173-2" cx="-903.537" cy="-209.651" rx="13.988" ry="14.08" transform="matrix(-0.02199983,-0.99975797,-0.99975797,0.02199983,0,0)"/><path style="fill:#fff;fill-rule:evenodd;stroke:none;stroke-width:1px;stroke-linecap:butt;stroke-linejoin:miter;stroke-opacity:1" id="path4200" d="m 114.21976,865.67953 c -0.34357,-1.42629 -1.19377,-2.82139 -2.26005,-4.00737 -0.25894,-0.42279 -0.54647,-0.83525 -0.85609,-1.23084 -1.30513,-1.66753 -3.00064,-3.03244 -4.57933,-3.59599 1.67704,0.28741 3.61449,1.43237 5.23099,3.00925 0.38244,0.37307 0.74758,0.77092 1.08742,1.18802 0.86135,1.52063 1.38954,3.14473 1.37706,4.63693 z"/><path style="display:inline;fill:#fff;fill-rule:evenodd;stroke:none;stroke-width:1px;stroke-linecap:butt;stroke-linejoin:miter;stroke-opacity:1" id="path4200-0" d="m 241.16422,896.66588 c -0.34357,-1.42629 -1.19377,-2.82139 -2.26005,-4.00737 -0.25894,-0.42279 -0.54647,-0.83525 -0.85609,-1.23084 -1.30513,-1.66753 -3.00064,-3.03244 -4.57933,-3.59599 1.67704,0.28741 3.61449,1.43237 5.23099,3.00925 0.38244,0.37307 0.74758,0.77092 1.08742,1.18802 0.86135,1.52063 1.38954,3.14473 1.37706,4.63693 z"/><ellipse style="opacity:1;fill:#faa;fill-opacity:1;stroke:#000;stroke-width:1;stroke-linecap:round;stroke-linejoin:miter;stroke-miterlimit:4;stroke-dasharray:none;stroke-dashoffset:0;stroke-opacity:1" id="path4173-5" cx="-939.402" cy="221.51" rx="18.033" ry="18.151" transform="matrix(0.02199983,-0.99975797,0.99975797,0.02199983,0,0)"/><path style="fill:#ff8080;fill-rule:evenodd;stroke:#000;stroke-width:1;stroke-linecap:butt;stroke-linejoin:miter;stroke-opacity:1;stroke-miterlimit:4;stroke-dasharray:none" id="path4171-1" d="M 50.255704,986.41439 186.70833,952.73825 c 1.69156,-3.38131 -0.10408,-8.93812 -2.57214,-10.01823 L 46.520339,974.32823 Z"/><ellipse style="display:inline;opacity:1;fill:#faa;fill-opacity:1;stroke:#000;stroke-width:1;stroke-linecap:round;stroke-linejoin:miter;stroke-miterlimit:4;stroke-dasharray:none;stroke-dashoffset:0;stroke-opacity:1" id="path4173-2-3" cx="-981.565" cy="59.13" rx="18.033" ry="18.151" transform="matrix(0.02199983,-0.99975797,0.99975797,0.02199983,0,0)"/><path style="fill:#fff;fill-rule:evenodd;stroke:none;stroke-width:1px;stroke-linecap:butt;stroke-linejoin:miter;stroke-opacity:1" id="path4200-00" d="m 206.35229,929.36131 c 1.90723,0.25126 3.88601,1.21637 5.67305,2.58829 0.47163,0.50854 0.91416,1.04592 1.32195,1.60095 1.72365,2.34603 2.83841,5.02445 2.90503,7.21688 -0.43676,-2.11632 -1.87565,-4.52526 -3.77077,-6.49001 -0.44958,-0.4661 -0.92465,-0.90702 -1.41802,-1.31331 -1.32314,-1.5736 -2.95192,-2.90879 -4.71124,-3.6028 z"/><path style="display:inline;fill:#fff;fill-rule:evenodd;stroke:none;stroke-width:1px;stroke-linecap:butt;stroke-linejoin:miter;stroke-opacity:1" id="path4200-0-7" d="m 40.387523,967.9769 c 1.923676,-0.0107 4.015431,0.67598 5.972616,1.79183 0.536476,0.43959 1.048046,0.91172 1.527605,1.40607 2.026996,2.08951 3.496037,4.59123 3.860523,6.75416 -0.720821,-2.03714 -2.474273,-4.22775 -4.619242,-5.9162 -0.508853,-0.40055 -1.039528,-0.77269 -1.583619,-1.10802 -1.525058,-1.37881 -3.320459,-2.47982 -5.157883,-2.92784 z"/></g></svg>