<svg xmlns="http://www.w3.org/2000/svg" xmlns:svg="http://www.w3.org/2000/svg" id="svg4164" version="1.1" viewBox="0 0 256 256"><style id="style3">svg{cursor:default}</style><defs id="defs4166"><marker id="Arrow1Lstart" orient="auto" refX="0" refY="0" style="overflow:visible"><path id="path4233" d="M 0.0,0.0 L 5.0,-5.0 L -12.5,0.0 L 5.0,5.0 L 0.0,0.0 z" transform="scale(0.8) translate(12.5,0)" style="fill-rule:evenodd;stroke:#000;stroke-width:1pt;stroke-opacity:1;fill:#000;fill-opacity:1"/></marker></defs><metadata id="metadata4169"/><g id="layer1" transform="translate(0,-796.36219)" style="display:inline"><g id="g4294" transform="matrix(1.1025,0,0,1.1025,-21.462631,-98.755411)"><path id="path4171-1" d="m 120.80653,950.1672 c 19.57751,-5.52334 64.51264,-39.57756 81.68876,-74.9098 -0.40042,-3.75956 -11.66068,-5.34401 -14.32142,-4.92159 -13.92522,28.90943 -49.55198,58.9231 -74.65896,67.92145 z" style="fill:#ff8080;fill-rule:evenodd;stroke:#000;stroke-width:1;stroke-linecap:butt;stroke-linejoin:miter;stroke-miterlimit:4;stroke-dasharray:none;stroke-opacity:1"/><ellipse id="path4173-5" cx="-863.185" cy="219.207" rx="20.875" ry="21.012" transform="matrix(0.02199983,-0.99975797,0.99975797,0.02199983,0,0)" style="opacity:1;fill:#faa;fill-opacity:1;stroke:#000;stroke-width:1;stroke-linecap:round;stroke-linejoin:miter;stroke-miterlimit:4;stroke-dasharray:none;stroke-dashoffset:0;stroke-opacity:1"/><path id="path4200-00" d="m 206.60415,850.79629 c 2.20785,0.29087 4.49854,1.40811 6.56727,2.99627 0.54597,0.58869 1.05825,1.21078 1.53032,1.8533 1.99533,2.71582 3.28581,5.81643 3.36293,8.35444 -0.50561,-2.44991 -2.17129,-5.23856 -4.36513,-7.513 -0.52045,-0.53957 -1.0704,-1.04999 -1.64154,-1.52031 -1.5317,-1.82164 -3.41722,-3.3673 -5.45385,-4.1707 z" style="fill:#fff;fill-rule:evenodd;stroke:none;stroke-width:1px;stroke-linecap:butt;stroke-linejoin:miter;stroke-opacity:1"/><ellipse id="path4173-5-9" cx="-947.657" cy="133.381" rx="20.875" ry="21.012" transform="matrix(0.02199983,-0.99975797,0.99975797,0.02199983,0,0)" style="opacity:1;fill:#faa;fill-opacity:1;stroke:#000;stroke-width:1;stroke-linecap:round;stroke-linejoin:miter;stroke-miterlimit:4;stroke-dasharray:none;stroke-dashoffset:0;stroke-opacity:1"/><path id="path4200-00-4" d="m 118.93992,933.36026 c 2.20785,0.29087 4.49854,1.40811 6.56727,2.99627 0.54597,0.58869 1.05825,1.21078 1.53032,1.8533 1.99533,2.71582 3.28581,5.81643 3.36293,8.35444 -0.50561,-2.44991 -2.17129,-5.23856 -4.36513,-7.513 -0.52045,-0.53957 -1.0704,-1.04999 -1.64154,-1.52031 -1.5317,-1.82164 -3.41722,-3.3673 -5.45385,-4.1707 z" style="fill:#fff;fill-rule:evenodd;stroke:none;stroke-width:1px;stroke-linecap:butt;stroke-linejoin:miter;stroke-opacity:1"/><path id="path4275" d="m 93.140611,929.53407 a 41.875122,45.970554 0 0 0 -41.875,45.9707 41.875122,45.970554 0 0 0 41.875,45.97073 41.875122,45.970554 0 0 0 41.874999,-45.97073 41.875122,45.970554 0 0 0 -1.8125,-13.33203 c -1.08872,-1.94052 -3.18685,-1.79906 -5.12695,-0.85743 -1.88176,0.91332 -3.7618,2.0403 -3.3164,6.61719 a 32.402172,35.57114 0 0 1 0.7832,7.57227 32.402172,35.57114 0 0 1 -32.402349,35.57033 32.402172,35.57114 0 0 1 -32.40234,-35.57033 32.402172,35.57114 0 0 1 32.40234,-35.57227 32.402172,35.57114 0 0 1 1.05274,0.0586 c 1.80424,-3.19827 4.57574,-5.87759 7.556639,-7.66407 0.0611,-1.13746 -1.01605,-1.72847 -2.437499,-2.25 a 41.875122,45.970554 0 0 0 -6.17188,-0.54296 z" style="opacity:1;fill:#faa;fill-opacity:1;stroke:#000;stroke-width:1;stroke-linecap:round;stroke-linejoin:miter;stroke-miterlimit:4;stroke-dasharray:none;stroke-dashoffset:0;stroke-opacity:1"/><path id="path4286" d="m 131.54483,962.41901 c 0.35721,0.6012 0.7103,1.27375 1.05533,1.99964 0.42457,2.75671 0.72876,6.09803 0.83194,9.42897 0.13205,4.26287 -0.0649,8.52022 -0.76227,11.52755 0.46818,-3.03709 0.43134,-7.27738 0.0713,-11.48741 -0.28198,-3.2973 -0.7623,-6.57583 -1.35348,-9.24208 0.0621,-0.77887 0.11509,-1.53346 0.15717,-2.22667 z" style="fill:#fff;fill-rule:evenodd;stroke:none;stroke-width:1px;stroke-linecap:butt;stroke-linejoin:miter;stroke-opacity:1"/></g></g></svg>