<svg xmlns="http://www.w3.org/2000/svg" xmlns:svg="http://www.w3.org/2000/svg" id="svg4164" version="1.1" viewBox="0 0 256 256"><style id="style3">svg{cursor:default}</style><defs id="defs4166"><marker id="Arrow1Lstart" orient="auto" refX="0" refY="0" style="overflow:visible"><path id="path4233" d="M 0.0,0.0 L 5.0,-5.0 L -12.5,0.0 L 5.0,5.0 L 0.0,0.0 z" transform="scale(0.8) translate(12.5,0)" style="fill-rule:evenodd;stroke:#000;stroke-width:1pt;stroke-opacity:1;fill:#000;fill-opacity:1"/></marker></defs><metadata id="metadata4169"/><g id="layer1" transform="translate(0,-796.36219)" style="display:inline"><g id="g4349" transform="matrix(0.857375,0,0,0.857375,-288.71282,110.30449)"><path style="opacity:1;fill:#ff8080;fill-opacity:1;stroke:#000;stroke-width:.94700009;stroke-linecap:round;stroke-linejoin:miter;stroke-miterlimit:4;stroke-dasharray:none;stroke-dashoffset:0;stroke-opacity:1" id="path4314" d="m 488.24411,1070.9106 c 68.55016,-0.447 123.76531,-55.3518 123.32663,-122.63277 -0.43803,-67.28091 -56.36389,-121.46167 -124.91404,-121.01546 -68.5509,0.44592 -123.76756,55.35109 -123.3289,122.63281 0.43802,67.28172 56.3654,121.46272 124.91631,121.01542 z m -0.1508,-23.1466 c -55.52623,0.3624 -100.82677,-43.5243 -101.18158,-98.02248 -0.35531,-54.49818 44.36955,-98.97142 99.89578,-99.33258 55.52562,-0.36147 100.82449,43.52496 101.1793,98.02254 0.35532,54.49762 -44.36786,98.97052 -99.8935,99.33252 z"/><path id="path4321" d="m 433.66294,865.80785 c -4.10689,-3.84022 -10.94696,-13.88577 -12.21049,-19.59626" style="fill:none;fill-rule:evenodd;stroke:#000;stroke-width:1px;stroke-linecap:butt;stroke-linejoin:miter;stroke-opacity:1"/><path id="path4323" d="m 490.16404,834.03202 c 35.53043,1.74552 62.94258,15.95084 81.8376,36.32336 24.97068,24.67057 37.48787,60.36983 35.34629,95.92287 3.48157,-35.35472 -7.56659,-72.25905 -32.44626,-98.7693 -20.6117,-20.18717 -49.20254,-33.08339 -84.73763,-33.47693 z" style="fill:#fff;fill-opacity:1;fill-rule:evenodd;stroke:none;stroke-width:1px;stroke-linecap:butt;stroke-linejoin:miter;stroke-opacity:1"/><path id="path4319" d="m 554.70859,846.71843 c -0.49824,5.78807 -8.21238,17.58158 -11.84759,20.08551" style="fill:none;fill-rule:evenodd;stroke:#000;stroke-width:1px;stroke-linecap:butt;stroke-linejoin:miter;stroke-opacity:1"/></g></g></svg>