<svg xmlns="http://www.w3.org/2000/svg" xmlns:svg="http://www.w3.org/2000/svg" id="svg4164" version="1.1" viewBox="0 0 256 256"><style id="style3">svg{cursor:default}</style><defs id="defs4166"><marker id="Arrow1Lstart" orient="auto" refX="0" refY="0" style="overflow:visible"><path id="path4233" d="M 0.0,0.0 L 5.0,-5.0 L -12.5,0.0 L 5.0,5.0 L 0.0,0.0 z" transform="scale(0.8) translate(12.5,0)" style="fill-rule:evenodd;stroke:#000;stroke-width:1pt;stroke-opacity:1;fill:#000;fill-opacity:1"/></marker></defs><metadata id="metadata4169"/><g id="layer1" transform="translate(0,-796.36219)" style="display:inline"><path style="fill:#f55;fill-rule:evenodd;stroke:#000;stroke-width:1px;stroke-linecap:butt;stroke-linejoin:miter;stroke-opacity:1" id="path4169-6" d="m 77.4737,962.55424 c 18.61938,-7.13476 30.85983,-51.92341 29.875,-78.125 0.0504,-2.10131 31.45833,2.77083 31.625,4.625 3.11922,79.1887 -35.6269,102.87111 -61.5,73.5 z"/><path style="fill:#faa;fill-rule:evenodd;stroke:#000;stroke-width:1px;stroke-linecap:butt;stroke-linejoin:miter;stroke-opacity:1" id="path4171-4" d="m 107.41384,884.84776 c -0.33703,-3.82771 8.67065,-10.0623 10.00175,-10.32681 3.34118,-0.52155 24.00299,1.77864 26.77355,6.99784 -2.97791,2.94383 -4.98133,4.00526 -7.87101,8.13617 -3.33006,-1.86776 -23.06367,-5.33987 -28.90429,-4.8072 z"/><path style="fill:#ffd5d5;fill-rule:evenodd;stroke:#000;stroke-width:1px;stroke-linecap:butt;stroke-linejoin:miter;stroke-opacity:1" id="path4173-2" d="m 70.2237,855.55424 c 4.16611,-4.91018 7.9573,-12.08038 23.875,-12.375 24.15766,-0.44713 36.2842,25.34048 37.875,39.875 -3.61351,1.72246 -12.45019,1.567 -14,-0.625 -6.367,-24.45388 -25.95643,-33.83556 -40,-16.125 z"/><path style="fill:#ff8080;fill-opacity:1;fill-rule:evenodd;stroke:#000;stroke-width:1px;stroke-linecap:butt;stroke-linejoin:miter;stroke-opacity:1" id="path4165-5" d="m 54.45287,848.44333 c -24.96468,17.92762 -43.97373,113.18269 6.38202,138.01735 8.2281,4.05796 30.48305,3.29845 34.9513,2.28106 -40.7808,-3.95607 -52.09422,-82.89571 -14.44423,-137.20006 -8.69486,-4.4918 -21.85778,-4.39023 -26.88909,-3.09835 z"/><path style="fill:#faa;fill-rule:evenodd;stroke:#000;stroke-width:1px;stroke-linecap:butt;stroke-linejoin:miter;stroke-opacity:1" id="path4167-2" d="m 80.60636,851.23806 c 3.50766,0.40357 4.41607,11.18503 4.11949,18.79105 -13.88305,16.88126 -27.59972,109.21329 19.86916,99.96447 16.88727,-3.29031 35.21039,-46.4577 31.66118,-80.6495 1.29602,-3.69806 4.88686,-5.60129 7.4519,-8.03033 3.47262,-1.83302 9.38878,91.71149 -46.2969,106.99049 -31.05953,8.52211 -71.23205,-69.82137 -16.80483,-137.06618 z"/><path style="fill:#fff;fill-rule:evenodd;stroke:none;stroke-width:1px;stroke-linecap:butt;stroke-linejoin:miter;stroke-opacity:1" id="path4175-4" d="m 78.09502,851.43292 c -1.250156,0.58138 -2.504483,1.23932 -3.757602,1.97125 -11.488902,12.37185 -19.578075,32.27316 -20.100708,53.06733 1.299959,-20.80259 10.150905,-40.05142 21.770396,-51.44395 0.655046,-1.23023 1.350855,-2.43085 2.087914,-3.59463 z"/><path style="fill:#fff;fill-rule:evenodd;stroke:none;stroke-width:1px;stroke-linecap:butt;stroke-linejoin:miter;stroke-opacity:1" id="path4185-8" d="m 105.64787,847.25614 c 6.74012,2.16122 12.28424,7.87973 16.32507,14.50348 3.51835,5.76728 5.90316,12.23227 6.94013,17.66605 0.37649,0.77049 0.72623,1.53234 1.04546,2.27762 0.0979,-0.80593 0.16218,-1.65419 0.19291,-2.53681 -1.25973,-5.54102 -3.87835,-12.03642 -7.60581,-17.76775 -4.2973,-6.60753 -10.06195,-12.18814 -16.89776,-14.14259 z"/><path style="fill:#f55;fill-rule:evenodd;stroke:#000;stroke-width:1px;stroke-linecap:butt;stroke-linejoin:miter;stroke-opacity:1" id="path4169" d="m 163.75001,989.11219 c 18.61938,-7.13476 30.85983,-51.92341 29.875,-78.125 0.0504,-2.10131 31.45833,2.77083 31.625,4.625 3.11922,79.1887 -35.6269,102.87111 -61.5,73.5 z"/><path style="fill:#faa;fill-rule:evenodd;stroke:#000;stroke-width:1px;stroke-linecap:butt;stroke-linejoin:miter;stroke-opacity:1" id="path4171" d="m 193.69015,911.40571 c -0.33703,-3.82771 8.67065,-10.0623 10.00175,-10.32681 3.34118,-0.52155 24.00299,1.77864 26.77355,6.99784 -2.97791,2.94383 -4.98133,4.00526 -7.87101,8.13617 -3.33006,-1.86776 -23.06367,-5.33987 -28.90429,-4.8072 z"/><path style="fill:#ffd5d5;fill-rule:evenodd;stroke:#000;stroke-width:1px;stroke-linecap:butt;stroke-linejoin:miter;stroke-opacity:1" id="path4173" d="m 156.50001,882.11219 c 4.16611,-4.91018 7.9573,-12.08038 23.875,-12.375 24.15766,-0.44713 36.2842,25.34048 37.875,39.875 -3.61351,1.72246 -12.45019,1.567 -14,-0.625 -6.367,-24.45388 -25.95643,-33.83556 -40,-16.125 z"/><path style="fill:#ff8080;fill-opacity:1;fill-rule:evenodd;stroke:#000;stroke-width:1px;stroke-linecap:butt;stroke-linejoin:miter;stroke-opacity:1" id="path4165" d="m 140.72918,875.00128 c -24.96468,17.92762 -43.97373,113.18269 6.38202,138.01732 8.2281,4.058 30.48305,3.2985 34.9513,2.2811 -40.7808,-3.9561 -52.09422,-82.89572 -14.44423,-137.20007 -8.69486,-4.4918 -21.85778,-4.39023 -26.88909,-3.09835 z"/><path style="fill:#faa;fill-rule:evenodd;stroke:#000;stroke-width:1px;stroke-linecap:butt;stroke-linejoin:miter;stroke-opacity:1" id="path4167" d="m 166.88267,877.79601 c 3.50766,0.40357 4.41607,11.18503 4.11949,18.79105 -13.88305,16.88126 -27.59972,109.21334 19.86916,99.96447 16.88727,-3.29031 35.21039,-46.4577 31.66118,-80.6495 1.29602,-3.69806 4.88686,-5.60129 7.4519,-8.03033 3.47262,-1.83302 9.38878,91.71149 -46.2969,106.9905 -31.05953,8.5221 -71.23205,-69.82138 -16.80483,-137.06619 z"/><path style="fill:#fff;fill-rule:evenodd;stroke:none;stroke-width:1px;stroke-linecap:butt;stroke-linejoin:miter;stroke-opacity:1" id="path4175" d="m 164.37133,877.99087 c -1.25016,0.58138 -2.50448,1.23932 -3.7576,1.97125 -11.4889,12.37185 -19.57808,32.27316 -20.10071,53.06733 1.29996,-20.80259 10.1509,-40.05142 21.7704,-51.44395 0.65504,-1.23023 1.35085,-2.43085 2.08791,-3.59463 z"/><path style="fill:#fff;fill-rule:evenodd;stroke:none;stroke-width:1px;stroke-linecap:butt;stroke-linejoin:miter;stroke-opacity:1" id="path4185" d="m 191.92418,873.81409 c 6.74012,2.16122 12.28424,7.87973 16.32507,14.50348 3.51835,5.76728 5.90316,12.23227 6.94013,17.66605 0.37649,0.77049 0.72623,1.53234 1.04546,2.27762 0.0979,-0.80593 0.16218,-1.65419 0.19291,-2.53681 -1.25973,-5.54102 -3.87835,-12.03642 -7.60581,-17.76775 -4.2973,-6.60753 -10.06195,-12.18814 -16.89776,-14.14259 z"/></g></svg>