<svg xmlns="http://www.w3.org/2000/svg" xmlns:svg="http://www.w3.org/2000/svg" id="svg4164" version="1.1" viewBox="0 0 256 256"><style id="style3">svg{cursor:default}</style><defs id="defs4166"><marker id="Arrow1Lstart" orient="auto" refX="0" refY="0" style="overflow:visible"><path id="path4233" d="M 0.0,0.0 L 5.0,-5.0 L -12.5,0.0 L 5.0,5.0 L 0.0,0.0 z" transform="scale(0.8) translate(12.5,0)" style="fill-rule:evenodd;stroke:#000;stroke-width:1pt;stroke-opacity:1;fill:#000;fill-opacity:1"/></marker></defs><metadata id="metadata4169"/><g id="layer1" transform="translate(0,-796.36219)" style="display:inline"><ellipse style="opacity:1;fill:#faa;fill-opacity:1;stroke:#000;stroke-width:1;stroke-linecap:round;stroke-linejoin:miter;stroke-miterlimit:4;stroke-dasharray:none;stroke-dashoffset:0;stroke-opacity:1" id="path4173" cx="161.625" cy="1013.112" rx="19.125" ry="19.25"/><path style="fill:#ff8080;fill-rule:evenodd;stroke:#000;stroke-width:1px;stroke-linecap:butt;stroke-linejoin:miter;stroke-opacity:1" id="path4171" d="M 113.19153,854.48856 152.0824,998.3848 c 3.62471,1.7147 9.47475,-0.3189 10.56241,-2.961 L 125.91945,850.24592 Z"/><ellipse style="display:inline;opacity:1;fill:#faa;fill-opacity:1;stroke:#000;stroke-width:1;stroke-linecap:round;stroke-linejoin:miter;stroke-miterlimit:4;stroke-dasharray:none;stroke-dashoffset:0;stroke-opacity:1" id="path4173-2" cx="116.909" cy="840.898" rx="19.125" ry="19.25"/><path style="fill:#fff;fill-rule:evenodd;stroke:none;stroke-width:1px;stroke-linecap:butt;stroke-linejoin:miter;stroke-opacity:1" id="path4200" d="m 165.51927,997.4473 c 2.03928,-0.062 4.27509,0.61117 6.3795,1.7428 0.58034,0.45197 1.13514,0.9391 1.65658,1.4506 2.20402,2.1621 3.8273,4.7759 4.27059,7.0596 -0.81778,-2.1409 -2.73444,-4.4174 -5.05299,-6.1512 -0.55004,-0.4113 -1.12246,-0.7919 -1.70814,-1.1331 -1.65316,-1.42183 -3.58565,-2.54198 -5.54554,-2.9687 z"/><path style="display:inline;fill:#fff;fill-rule:evenodd;stroke:none;stroke-width:1px;stroke-linecap:butt;stroke-linejoin:miter;stroke-opacity:1" id="path4200-0" d="m 119.34667,824.86265 c 2.03928,-0.062 4.27509,0.61117 6.3795,1.7428 0.58034,0.45197 1.13514,0.9391 1.65658,1.45062 2.20402,2.16212 3.8273,4.77593 4.27059,7.05958 -0.81778,-2.14092 -2.73444,-4.41741 -5.05299,-6.1512 -0.55004,-0.4113 -1.12246,-0.79191 -1.70814,-1.13314 -1.65316,-1.42179 -3.58565,-2.54194 -5.54554,-2.96866 z"/></g></svg>