<svg xmlns="http://www.w3.org/2000/svg" xmlns:svg="http://www.w3.org/2000/svg" xmlns:xlink="http://www.w3.org/1999/xlink" id="svg4166" version="1.1" viewBox="0 0 256 256"><style id="style3">svg{cursor:default}</style><defs id="defs4168"><linearGradient id="linearGradient4199"><stop style="stop-color:#ff8080;stop-opacity:1" id="stop4201" offset="0"/><stop style="stop-color:#faa;stop-opacity:1" id="stop4203" offset="1"/></linearGradient><linearGradient id="linearGradient4185"><stop style="stop-color:#ff8080;stop-opacity:1" id="stop4187" offset="0"/><stop style="stop-color:#faa;stop-opacity:1" id="stop4189" offset="1"/></linearGradient><linearGradient id="linearGradient4191" x1="99.286" x2="97.5" y1="981.648" y2="830.934" gradientUnits="userSpaceOnUse" xlink:href="#linearGradient4185"/><linearGradient id="linearGradient4205" x1="142.937" x2="160.109" y1="990.743" y2="849.827" gradientUnits="userSpaceOnUse" xlink:href="#linearGradient4199"/></defs><metadata id="metadata4171"/><g id="layer1" transform="translate(0,-796.36216)" style="display:inline"><g id="g4209" transform="matrix(1.1025,0,0,1.1025,-10.319165,-104.14698)"><path id="path4193" d="m 127.53176,1040.9348 c 0.31567,0.1263 10.94363,1.4328 14.83979,1.3475 3.70141,-0.081 14.6856,0.951 10.66656,-5.0724 -3.69631,-6.3562 -6.97619,-11.2668 -6.93714,-20.0953 0.0238,-5.3863 0.96722,-12.5521 1.94951,-19.23754 3.9371,-26.79605 13.64032,-45.12238 19.70881,-70.34271 3.02124,-12.55612 4.5559,-25.26402 6.74456,-37.80675 1.71884,-9.85028 6.02299,-15.15136 5.39259,-29.45767 -0.697,-15.81754 0.4973,-23.13695 -0.4031,-37.15375 -5.40759,-5.67748 -39.80145,-2.01146 -41.86006,9.03273 0.37939,7.1293 2.95094,11.73907 3.03046,14.89975 0.45466,18.07075 4.34604,26.60318 2.58852,31.94607 -14.15207,43.02242 -9.7116,50.72688 -9.91212,79.42324 -2.00033,29.08408 -14.10889,24.01773 -13.59242,35.91294 0.28349,6.52929 7.88683,10.17089 8.48301,19.08829 0.58517,8.7527 -4.86925,14.2767 -0.69897,27.5156 z" style="fill:url(#linearGradient4205);fill-opacity:1;fill-rule:evenodd;stroke:#000;stroke-width:1px;stroke-linecap:butt;stroke-linejoin:miter;stroke-opacity:1"/><path id="path4177" d="m 133.30357,1043.1657 c -6.26266,1.8569 -16.60714,0.8333 -24.91071,1.25 -5.70007,-1.1522 -9.611902,-5.974 -10.089289,-9.6428 -1.143772,-8.7901 -1.819377,-17.5611 -8.214286,-25 -4.387297,-5.1035 -0.993133,-11.09986 0.594366,-15.71617 2.786411,-8.10263 1.052556,-14.36512 -0.237219,-19.73028 -5.185009,-21.56842 -14.735846,-45.41284 -13.125,-65 1.236514,-15.03546 4.338552,-27.8728 5.535714,-41.78572 1.350258,-15.69213 -2.021693,-28.81121 -3.035714,-43.21428 7.992744,-3.21563 27.762048,-1.61358 42.321428,-2.14286 0,0 0.35766,26.72358 -0.71429,31.96428 -1.34011,6.55175 -2.3192,6.99584 -4.34139,12.71662 -0.6901,1.95229 -0.61985,6.94734 -1.49531,10.19683 -0.93267,3.46182 -2.7941,5.1835 -2.9133,7.26513 -1.87745,50.24996 -6.9322,87.4761 3.75,106.96428 1.70676,3.11374 5.43065,26.87047 5.1564,36.22907 -0.0345,1.1766 2.13721,4.6108 2.87932,5.7352 4.84383,2.6136 12.83346,8.7264 8.83928,9.9107 z" style="fill:url(#linearGradient4191);fill-opacity:1;fill-rule:evenodd;stroke:#000;stroke-width:1px;stroke-linecap:butt;stroke-linejoin:miter;stroke-opacity:1"/><path id="path4179" d="m 81.479559,834.76522 c 10.161865,-3.13706 29.566141,-0.44146 40.715601,-1.57519" style="fill:none;fill-rule:evenodd;stroke:#000;stroke-width:.5;stroke-linecap:butt;stroke-linejoin:miter;stroke-miterlimit:4;stroke-dasharray:none;stroke-opacity:1"/><path id="path4181" d="m 125.14825,1033.064 c -2.12746,-0.1858 -5.18611,-0.11 -8.19081,0.2173 -3.01455,0.3283 -5.99764,0.9124 -7.97145,1.7505 2.02182,-0.6768 5.01561,-1.09 8.01211,-1.2484 3.00366,-0.1589 6.00412,-0.061 8.02341,0.2802 z" style="fill:#000;fill-rule:evenodd;stroke:none;stroke-width:1px;stroke-linecap:butt;stroke-linejoin:miter;stroke-opacity:1"/><path id="path4195" d="m 151.36572,1034.2736 c -3.43436,-0.015 -6.83552,-0.114 -10.29429,0.053 3.44996,0.1665 6.817,0.5977 10.24141,0.9457 z" style="fill:#000;fill-rule:evenodd;stroke:none;stroke-width:1px;stroke-linecap:butt;stroke-linejoin:miter;stroke-opacity:1"/><path id="path4207" d="m 139.40105,841.80849 c 9.93665,-7.61485 38.5392,-9.38629 40.4061,-5.24016" style="fill:none;fill-rule:evenodd;stroke:#000;stroke-width:.5;stroke-linecap:butt;stroke-linejoin:miter;stroke-miterlimit:4;stroke-dasharray:none;stroke-opacity:1"/></g></g></svg>