<svg xmlns="http://www.w3.org/2000/svg" xmlns:svg="http://www.w3.org/2000/svg" xmlns:xlink="http://www.w3.org/1999/xlink" id="svg4206" version="1.1" viewBox="0 0 256 256"><style id="style3">svg{cursor:default}</style><defs id="defs4208"><linearGradient id="innoGrad1"><stop style="stop-color:#f55;stop-opacity:1" id="stop1115" offset="0"/><stop style="stop-color:#ff8080;stop-opacity:1" id="stop1117" offset="1"/></linearGradient><linearGradient id="innoGrad3"><stop style="stop-color:#f95;stop-opacity:1" id="stop1107" offset="0"/><stop style="stop-color:#ffb380;stop-opacity:1" id="stop1109" offset="1"/></linearGradient><linearGradient id="innoGrad2"><stop style="stop-color:#f95;stop-opacity:1" id="stop965" offset="0"/><stop style="stop-color:#ff7f2a;stop-opacity:1" id="stop967" offset="1"/></linearGradient><linearGradient id="linearGradient961" x1="-153.543" x2="-160.362" y1="1056.529" y2="1050.594" gradientTransform="matrix(0.9025,0,0,0.9025,260.67977,77.39983)" gradientUnits="userSpaceOnUse" xlink:href="#innoGrad2"/><linearGradient id="linearGradient971" x1="-184.605" x2="-184.984" y1="813.209" y2="823.815" gradientTransform="matrix(0.9025,0,0,0.9025,260.67977,77.39983)" gradientUnits="userSpaceOnUse" xlink:href="#innoGrad2"/><linearGradient id="linearGradient971-0" x1="-184.605" x2="-184.984" y1="813.209" y2="823.815" gradientTransform="matrix(0.88439824,-0.17984994,0.17984994,0.88439824,196.9674,59.883696)" gradientUnits="userSpaceOnUse" xlink:href="#innoGrad2"/><linearGradient id="linearGradient961-7" x1="-153.543" x2="-160.362" y1="1056.529" y2="1050.594" gradientTransform="matrix(0.80453932,0.40892875,-0.40892875,0.80453932,685.21839,227.05548)" gradientUnits="userSpaceOnUse" xlink:href="#innoGrad2"/><linearGradient id="linearGradient1105" x1="105.601" x2="141.674" y1="988.049" y2="979.884" gradientUnits="userSpaceOnUse" xlink:href="#innoGrad3"/><linearGradient id="linearGradient1113" x1="91.429" x2="105" y1="1011.648" y2="996.469" gradientUnits="userSpaceOnUse" xlink:href="#innoGrad3"/><linearGradient id="linearGradient1121" x1="91.25" x2="107.801" y1="1011.469" y2="997.817" gradientUnits="userSpaceOnUse" xlink:href="#innoGrad1"/><linearGradient id="linearGradient1129" x1="96.607" x2="116.25" y1="1040.398" y2="1013.969" gradientUnits="userSpaceOnUse" xlink:href="#innoGrad1"/><linearGradient id="linearGradient1137" x1="76.071" x2="99.821" y1="994.326" y2="975.576" gradientUnits="userSpaceOnUse" xlink:href="#innoGrad1"/><linearGradient id="linearGradient1145" x1="71.071" x2="93.571" y1="991.826" y2="955.755" gradientUnits="userSpaceOnUse" xlink:href="#innoGrad1"/><linearGradient id="linearGradient1153" x1="108.75" x2="130.893" y1="1010.755" y2="992.541" gradientUnits="userSpaceOnUse" xlink:href="#innoGrad1"/><linearGradient id="linearGradient1161" x1="109.464" x2="127.321" y1="981.469" y2="971.469" gradientUnits="userSpaceOnUse" xlink:href="#innoGrad1"/><linearGradient id="linearGradient1169" x1="116.25" x2="141.25" y1="967.362" y2="948.434" gradientUnits="userSpaceOnUse" xlink:href="#innoGrad1"/></defs><metadata id="metadata4211"/><g id="layer1" transform="translate(0,-796.36216)" style="display:inline"><path style="fill:url(#linearGradient971);fill-opacity:1;fill-rule:evenodd;stroke:#000;stroke-width:.90249997px;stroke-linecap:butt;stroke-linejoin:miter;stroke-opacity:1" id="path963" d="m 64.049874,809.73607 c 1.450931,15.81531 59.489126,26.12599 57.387046,3.07686 0.53824,-4.39886 -60.395457,-5.44604 -57.387046,-3.07686 z"/><path style="display:inline;fill:url(#linearGradient961-7);fill-opacity:1;fill-rule:evenodd;stroke:#000;stroke-width:.90249997px;stroke-linecap:butt;stroke-linejoin:miter;stroke-opacity:1" id="path951-6" d="m 112.71036,1020.5703 c 1.81028,4.8065 19.14335,-9.4168 26.43377,-8.6353 2.91429,0.5948 3.25209,-5.4847 -0.33544,-10.4048 -15.34553,-1.018 -31.28705,9.8921 -26.09833,19.0401 z"/><path style="fill:url(#linearGradient961);fill-opacity:1;fill-rule:evenodd;stroke:#000;stroke-width:.90249997px;stroke-linecap:butt;stroke-linejoin:miter;stroke-opacity:1" id="path951" d="m 109.86067,1044.1908 c 3.79162,3.4645 11.33065,-15.5555 18.18383,-18.1622 2.86752,-0.7901 0.80602,-8.7353 -3.54554,-10.6366 -14.14111,6.0457 -23.40882,22.9948 -14.63829,28.7988 z"/><path style="display:inline;fill:url(#linearGradient971-0);fill-opacity:1;fill-rule:evenodd;stroke:#000;stroke-width:.90249997px;stroke-linecap:butt;stroke-linejoin:miter;stroke-opacity:1" id="path963-8" d="m 151.63334,815.74329 c 4.5735,15.20895 55.40195,13.26882 55.43696,-7.44866 -0.19339,-3.32756 -56.87724,5.56498 -55.43696,7.44866 z"/><path style="fill:url(#linearGradient1105);fill-rule:evenodd;stroke:#000;stroke-width:.90249997px;stroke-linecap:butt;stroke-linejoin:miter;stroke-opacity:1;fill-opacity:1" id="path927" d="m 207.0703,808.29463 c 2.42055,23.80312 5.7152,50.63361 -10.04902,64.63125 -4.8376,4.29549 -7.44175,5.98081 -9.66963,9.99196 -18.18456,32.73996 -53.12211,87.23609 -52.69956,97.66338 0.37015,9.13433 2.54287,17.29997 6.13941,24.52938 -8.41405,-6.55615 -24.2871,5.1594 -24.65238,16.6853 -5.2344,-2.6502 -8.70099,-5.9365 -12.49388,-13.0496 12.06122,-15.63419 4.04561,-32.16186 -0.34062,-36.64362 28.89771,-47.9328 22.26718,-91.01301 54.55462,-114.32591 -0.19615,-14.33821 -2.25095,-28.3062 -6.2259,-42.03348 -0.34648,2.53106 55.46038,-3.98228 55.43696,-7.44866 z"/><path style="fill:url(#linearGradient1153);fill-rule:evenodd;stroke:#000;stroke-width:.90249997px;stroke-linecap:butt;stroke-linejoin:miter;stroke-opacity:1;fill-opacity:1" id="path975" d="m 137.63356,997.42263 c -8.2417,0.80873 -16.45197,2.02593 -23.85178,13.77917 l -5.80179,-9.9919 c 2.37971,-3.72247 5.64944,-7.00676 27.39732,-12.57058 0.57719,2.8741 0.651,5.90921 2.25625,8.78331 z"/><path style="fill:url(#linearGradient1113);fill-rule:evenodd;stroke:#000;stroke-width:.90249997px;stroke-linecap:butt;stroke-linejoin:miter;stroke-opacity:1;fill-opacity:1" id="path925" d="m 64.049874,809.73607 c 2.320725,3.95048 55.188956,7.68503 57.387046,3.07686 -0.66501,45.49947 -14.87129,52.08982 -18.81667,79.07581 -4.696166,32.12128 -0.90074,69.22156 1.13958,91.39411 0.42352,4.60243 5.6028,15.92501 7.40726,18.23335 1.32267,1.692 10.3337,8.6492 15.5616,15.4464 -4.85133,-2.2132 -18.12403,16.9316 -16.86802,27.2282 -6.23793,-3.4857 -11.684771,-7.0058 -11.684771,-7.0058 -0.457333,-0.246 -0.939683,-0.4676 -1.442285,-0.6693 12.587876,-24.109 -10.713171,-36.1996 -17.157536,-36.63547 0.111296,-1.31693 0.101387,-2.49506 -0.08926,-3.49214 C 74.82527,972.00955 48.722091,923.16248 66.279164,874.51994 71.768006,859.3129 65.748024,831.81211 64.049871,809.73607 Z"/><path style="fill:url(#linearGradient1129);fill-rule:evenodd;stroke:#000;stroke-width:.90249997px;stroke-linecap:butt;stroke-linejoin:miter;stroke-opacity:1;fill-opacity:1" id="path931" d="m 105.32084,1041.5806 -8.587226,-5.0649 c 1.871677,-3.9302 3.220509,-7.711 3.591246,-11.2123 4.03239,-9.1488 10.138,-13.6905 16.03549,-18.6947 l 7.09107,6.6076 c -7.19203,5.1257 -13.71429,12.7761 -18.13058,28.3643 z"/><path style="fill:url(#linearGradient1121);fill-rule:evenodd;stroke:#000;stroke-width:.90249997px;stroke-linecap:butt;stroke-linejoin:miter;stroke-opacity:1;fill-opacity:1" id="path933" d="m 96.618166,1010.8795 c 5.722994,-3.6268 10.100344,-6.677 14.343294,-9.6696 -1.60929,-2.51959 -3.09932,-5.90355 -4.64643,-9.49979 -5.6174,4.81592 -12.326072,7.70479 -19.205351,10.62789 3.52364,2.3583 6.661677,4.6433 9.508487,8.5415 z"/><path style="fill:url(#linearGradient1137);fill-rule:evenodd;stroke:#000;stroke-width:.90249997px;stroke-linecap:butt;stroke-linejoin:miter;stroke-opacity:1;fill-opacity:1" id="path935" d="m 77.842935,988.8005 -3.867853,-12.10499 c 9.566852,0.91431 18.53522,1.51752 28.731258,-4.27944 0.36239,3.7345 0.92685,8.98443 1.07365,11.10201 -7.769766,4.61244 -16.663335,6.25613 -25.937055,5.28242 z"/><path style="fill:url(#linearGradient1145);fill-opacity:1;fill-rule:evenodd;stroke:#000;stroke-width:.90249997px;stroke-linecap:butt;stroke-linejoin:miter;stroke-opacity:1" id="path937" d="m 70.256231,965.61945 c 11.19832,1.09728 21.678978,-0.96049 31.358369,-5.33135 -0.0256,-3.04959 -0.1875,-6.23549 -0.56978,-9.64176 -10.584774,4.65902 -21.91575,5.89316 -33.40962,5.40065 z"/><path style="fill:#ff8080;fill-rule:evenodd;stroke:#000;stroke-width:.90249997px;stroke-linecap:butt;stroke-linejoin:miter;stroke-opacity:1" id="path939" d="m 65.272401,947.38213 c 11.992338,0.47502 23.811821,-1.12419 35.374779,-5.80179 l -0.22433,-10.1308 c -12.211803,3.83274 -24.980393,5.45945 -37.406699,5.86004 0.608483,3.69245 1.569718,6.71803 2.25625,10.07255 z"/><path style="fill:#ff8080;fill-rule:evenodd;stroke:#000;stroke-width:.90249997px;stroke-linecap:butt;stroke-linejoin:miter;stroke-opacity:1" id="path941" d="m 61.485132,927.3982 -1.20871,-13.05402 c 13.510642,-0.46099 27.021275,-2.82085 40.531918,-6.28527 l -0.4029,12.48996 c -13.022195,4.30577 -26.112904,6.83931 -38.920308,6.84933 z"/><path style="fill:#ff8080;fill-rule:evenodd;stroke:#000;stroke-width:.90249997px;stroke-linecap:butt;stroke-linejoin:miter;stroke-opacity:1" id="path943" d="m 60.759901,901.61249 c 14.008812,-1.30635 29.895177,-1.36101 41.015399,-4.59309 l 1.53103,-9.8308 c -12.685258,2.17469 -26.864887,1.78761 -41.015401,1.45045 z"/><path style="fill:#ff8080;fill-rule:evenodd;stroke:#000;stroke-width:.90249997px;stroke-linecap:butt;stroke-linejoin:miter;stroke-opacity:1" id="path945" d="m 65.997623,875.98793 c 10.081331,3.57882 26.214854,3.23957 39.887277,2.01451 l 3.78728,-9.50848 c -7.66501,-0.0353 -33.51035,3.6009 -41.337723,-2.98147 -0.365991,3.90476 -1.111582,7.42993 -2.336834,10.47544 z"/><path style="fill:#ff8080;fill-rule:evenodd;stroke:#000;stroke-width:.90249997px;stroke-linecap:butt;stroke-linejoin:miter;stroke-opacity:1" id="path947" d="m 68.576201,855.92343 -0.322328,-9.34733 c 4.00932,6.17536 29.073216,3.0539 48.509377,2.41742 l -3.22321,9.91138 c -16.970618,-0.0547 -42.725603,4.05169 -44.963839,-2.98147 z"/><path style="fill:#ff8080;fill-rule:evenodd;stroke:#000;stroke-width:.90249997px;stroke-linecap:butt;stroke-linejoin:miter;stroke-opacity:1" id="path949" d="m 65.997623,826.59218 1.369868,11.20066 c 16.996458,6.00539 34.225849,6.18736 51.652009,1.45044 l 1.20871,-9.26673 c -20.779001,5.25874 -38.156819,2.47834 -54.230587,-3.38437 z"/><path style="fill:none;fill-rule:evenodd;stroke:#000;stroke-width:.45124999;stroke-linecap:butt;stroke-linejoin:miter;stroke-miterlimit:4;stroke-dasharray:none;stroke-opacity:1" id="path973" d="m 65.356044,821.69071 c 14.941159,7.01438 41.217566,7.92076 55.383506,3.41873"/><path style="fill:url(#linearGradient1161);fill-rule:evenodd;stroke:#000;stroke-width:.90249997px;stroke-linecap:butt;stroke-linejoin:miter;stroke-opacity:1;fill-opacity:1" id="path977" d="m 134.65209,980.82291 c -11.46479,1.8716 -21.54487,-2.54732 -29.57299,-11.2006 l 4.5125,-8.94443 c 9.15001,4.33253 18.45239,10.89056 27.80023,10.47545 -1.48447,3.30994 -2.53933,6.34618 -2.73974,9.66958 z"/><path style="fill:url(#linearGradient1169);fill-rule:evenodd;stroke:#000;stroke-width:.90249997px;stroke-linecap:butt;stroke-linejoin:miter;stroke-opacity:1;fill-opacity:1" id="path979" d="m 114.34584,950.68593 4.02902,-9.42791 c 6.60965,5.92124 15.14289,10.17883 29.65357,9.26675 l -5.80178,10.95892 c -10.34619,-1.84495 -20.09576,-4.68427 -27.88081,-10.79776 z"/><path style="fill:#ff8080;fill-rule:evenodd;stroke:#000;stroke-width:.90249997px;stroke-linecap:butt;stroke-linejoin:miter;stroke-opacity:1" id="path981" d="m 121.9204,930.70199 3.06205,-10.15312 c 9.30136,7.40171 20.15943,11.81455 34.81072,8.94441 l -6.04353,11.03952 c -12.97093,0.99136 -24.41829,-0.77144 -31.82924,-9.83081 z"/><path style="fill:#ff8080;fill-rule:evenodd;stroke:#000;stroke-width:.90249997px;stroke-linecap:butt;stroke-linejoin:miter;stroke-opacity:1" id="path983" d="m 127.72218,911.12097 3.54553,-11.76473 c 10.46564,9.79793 24.19247,12.66582 39.8067,11.52298 l -5.7212,9.66965 c -13.003,0.7723 -26.10338,-0.28732 -37.63103,-9.4279 z"/><path style="fill:#ff8080;fill-rule:evenodd;stroke:#000;stroke-width:.90249997px;stroke-linecap:butt;stroke-linejoin:miter;stroke-opacity:1" id="path985" d="m 135.8608,887.10802 c 1.66268,-3.91685 3.22993,-7.90527 5.7212,-11.20067 8.44854,12.43202 22.69656,16.90658 40.37076,16.68014 l -5.47946,9.34732 c -15.626,0.77841 -29.90492,-2.13303 -40.6125,-14.82679 z"/><path style="fill:#ff8080;fill-rule:evenodd;stroke:#000;stroke-width:.90249997px;stroke-linecap:butt;stroke-linejoin:miter;stroke-opacity:1" id="path987" d="m 149.3983,865.51249 c 2.94294,16.99892 21.18019,16.48339 36.82522,18.93638 l 7.17165,-8.13862 c -15.19702,-2.70587 -35.91282,-3.35049 -37.14755,-17.00245 -2.63208,1.60292 -4.86092,3.74353 -6.84932,6.20469 z"/><path style="fill:#ff8080;fill-rule:evenodd;stroke:#000;stroke-width:.90249997px;stroke-linecap:butt;stroke-linejoin:miter;stroke-opacity:1" id="path989" d="m 202.17843,867.28525 c -18.26228,-1.56704 -35.26873,-4.29956 -44.31919,-9.50848 l -0.32232,-9.58905 c 13.68285,4.83347 31.28903,6.89596 49.47633,7.01048 -0.48587,4.13136 -1.98634,8.17048 -4.83482,12.08705 z"/><path style="fill:#ff8080;fill-rule:evenodd;stroke:#000;stroke-width:.90249997px;stroke-linecap:butt;stroke-linejoin:miter;stroke-opacity:1" id="path991" d="m 156.73111,839.48503 -1.36987,-8.86384 c 19.85239,0.58956 39.46718,0.96696 53.42478,-3.7067 0.18163,4.40755 0.70671,8.92249 0.3085,13.32914 -16.40073,5.16284 -34.78106,0.5775 -52.36341,-0.7586 z"/><path style="fill:none;fill-rule:evenodd;stroke:#000;stroke-width:.45124999;stroke-linecap:butt;stroke-linejoin:miter;stroke-miterlimit:4;stroke-dasharray:none;stroke-opacity:1" id="path993" d="m 154.01902,824.65824 c 21.2,1.5972 41.40975,-2.62888 54.28351,-6.84933"/><path style="fill:#000;fill-rule:nonzero;stroke:none;stroke-width:1px;stroke-linecap:butt;stroke-linejoin:miter;stroke-opacity:1" id="path1171" d="m 157.82901,857.2283 c 0,0 -0.42611,0.0312 -0.42611,0.0312 0.0788,1.0777 0.31161,3.30102 0.4319,4.22659 0.19616,1.50942 0.30165,1.72569 0.47558,2.68236 -0.13084,-0.71966 -0.11065,-1.44067 -0.0487,-2.69955 0.0649,-1.31882 0.10181,-2.78942 -0.007,-4.27172 0,0 -0.42611,0.0312 -0.42611,0.0312 z"/></g></svg>