<svg xmlns="http://www.w3.org/2000/svg" xmlns:svg="http://www.w3.org/2000/svg" xmlns:xlink="http://www.w3.org/1999/xlink" id="svg4166" version="1.1" viewBox="0 0 256 256"><style id="style3">svg{cursor:default}</style><defs id="defs4168"><linearGradient id="linearGradient6"><stop style="stop-color:#ff8080;stop-opacity:1" id="stop4238" offset="0"/><stop style="stop-color:#f55;stop-opacity:1" id="stop4240" offset="1"/></linearGradient><linearGradient id="linearGradient4"><stop style="stop-color:#ff8080;stop-opacity:1" id="stop4230" offset="0"/><stop style="stop-color:#f55;stop-opacity:1" id="stop4232" offset="1"/></linearGradient><linearGradient id="linearGradient2"><stop style="stop-color:#ff8080;stop-opacity:1" id="stop4222" offset="0"/><stop style="stop-color:#faa;stop-opacity:1" id="stop4224" offset="1"/></linearGradient><linearGradient id="linearGradient0"><stop style="stop-color:#ff8080;stop-opacity:1" id="stop4214" offset="0"/><stop style="stop-color:#faa;stop-opacity:1" id="stop4216" offset="1"/></linearGradient><linearGradient id="linearGradient1" x1="105.056" x2="100.763" y1="1010.441" y2="846.796" gradientUnits="userSpaceOnUse" xlink:href="#linearGradient0"/><linearGradient id="linearGradient3" x1="138.643" x2="159.099" y1="994.531" y2="841.745" gradientUnits="userSpaceOnUse" xlink:href="#linearGradient2"/><linearGradient id="linearGradient5" x1="98.742" x2="98.742" y1="821.795" y2="828.361" gradientUnits="userSpaceOnUse" xlink:href="#linearGradient4"/><linearGradient id="linearGradient7" x1="166.549" x2="165.539" y1="824.32" y2="834.043" gradientUnits="userSpaceOnUse" xlink:href="#linearGradient6"/></defs><metadata id="metadata4171"/><g id="layer1" transform="translate(0,-796.36216)" style="display:inline"><path style="fill:url(#linearGradient5);fill-rule:evenodd;stroke:#000;stroke-width:1px;stroke-linecap:butt;stroke-linejoin:miter;stroke-opacity:1;fill-opacity:1" id="path4204" d="m 76.741072,822.31752 c 0.498887,-3.27086 41.428578,-3.6756 41.428578,0.89285 -0.71159,8.30843 -12.0387,10.35714 -17.99108,15.44643 -7.648807,-5.625 -23.283678,-6.55531 -23.437498,-16.33928 z"/><path style="fill:url(#linearGradient1);fill-opacity:1;fill-rule:evenodd;stroke:#000;stroke-width:1px;stroke-linecap:butt;stroke-linejoin:miter;stroke-opacity:1" id="path4200" d="m 117.93531,824.57276 c -1.3469,10.45613 -6.45672,25.40835 -6.81853,29.7995 -0.50776,6.16253 0.68705,27.20011 -0.5396,47.58617 -0.95468,15.86624 -3.61419,29.72304 -4.00609,38.02426 -0.3465,7.33973 -0.28324,19.0498 1.45157,26.4423 1.11805,4.76431 2.8767,6.79864 4.07626,11.37977 1.08032,4.12575 1.13079,9.47031 3.01191,14.72158 4.04219,11.28396 6.82192,15.02626 10.40062,22.46016 1.43643,2.9838 4.26543,5.5564 5.84877,8.4765 1.20656,2.2252 1.25226,4.7645 1.97992,7.1809 1.00255,3.3292 3.85938,9.1724 1.26269,10.354 -11.76679,5.3544 -34.636139,-3.9172 -36.491764,-8.018 -0.833841,-1.8428 -0.908097,-5.6753 -1.53865,-9.855 -0.532818,-3.5319 -1.625349,-7.3116 -2.249422,-10.3481 -1.005326,-4.8915 -0.651718,-10.8863 -1.808651,-16.03478 -1.21891,-5.42429 -3.933954,-9.97173 -4.378533,-13.82785 -0.684214,-5.93463 1.839298,-7.49949 -0.378808,-22.98097 -3.139831,-21.91475 -10.93638,-43.6561 -12.879445,-66.16499 -1.722435,-19.95307 3.320403,-47.49004 1.857008,-71.69121 2.116107,5.07479 29.567065,12.14958 41.200745,2.49576 z"/><path style="fill:url(#linearGradient7);fill-rule:evenodd;stroke:#000;stroke-width:1px;stroke-linecap:butt;stroke-linejoin:miter;stroke-opacity:1;fill-opacity:1" id="path4206" d="m 144.70057,824.58254 c 1.21213,-4.21327 41.19926,-1.9573 42.24299,3.40911 -0.30027,12.31797 -14.02689,6.40783 -20.96142,9.81694 -7.08333,-4.16667 -21.48636,-1.68944 -21.28157,-13.22605 z"/><path style="fill:url(#linearGradient3);fill-rule:evenodd;stroke:#000;stroke-width:1px;stroke-linecap:butt;stroke-linejoin:miter;stroke-opacity:1;fill-opacity:1" id="path4202" d="m 144.70435,825.20411 c 11.2405,8.92207 35.12203,6.70252 42.30014,3.40926 0.52171,4.51827 0.16044,8.78102 -1.01015,12.87944 -1.97077,6.90002 -8.91716,29.01577 -12.15506,43.72649 -6.36904,28.93647 -14.36178,42.00186 -19.01785,63.75 -4.08112,19.06259 -4.77284,19.62952 -4.84123,29.91521 -0.0372,5.58894 2.19849,10.72226 2.98038,16.76353 0.65358,5.04986 1.13971,11.71616 2.2901,17.22816 0.82632,3.9593 4.78298,6.0455 7.46937,7.859 3.70344,2.5 6.32177,6.7993 6.40876,8.3207 0.30399,5.317 -1.54759,6.1857 -4.82329,6.3618 -9.76932,0.5253 -20.22048,-0.062 -24.78893,-5.5988 -1.92745,-2.3361 -4.08473,-14.406 -6.78572,-21.6378 -3.42552,-9.1718 -11.67188,-13.15423 -15.34631,-20.39155 -3.0928,-6.09172 -1.21209,-9.23323 2.00762,-13.15826 14.41136,-17.56836 12.02785,-52.72835 12.61543,-79.95668 0.39449,-18.2801 9.52368,-26.4681 10.93882,-39.45531 1.90034,-17.43999 1.26123,-19.59346 1.75792,-30.01519 z"/><path style="fill:none;fill-rule:evenodd;stroke:#000;stroke-width:.5;stroke-linecap:butt;stroke-linejoin:miter;stroke-miterlimit:4;stroke-dasharray:none;stroke-opacity:1" id="path4208" d="m 76.834728,833.97981 c 4.308017,5.77217 31.468032,8.31426 38.448932,2.77791"/><path style="fill:none;fill-rule:evenodd;stroke:#000;stroke-width:.5;stroke-linecap:butt;stroke-linejoin:miter;stroke-miterlimit:4;stroke-dasharray:none;stroke-opacity:1" id="path4210" d="m 144.45181,837.76788 c 12.37434,5.80473 29.64287,7.20676 41.73193,3.03046"/></g></svg>