<svg xmlns="http://www.w3.org/2000/svg" xmlns:svg="http://www.w3.org/2000/svg" id="svg4166" version="1.1" viewBox="0 0 256 256"><style id="style3">svg{cursor:default}</style><metadata id="metadata4171"/><g id="layer1" transform="translate(0,-796.36216)" style="display:inline"><path style="fill:#ff8080;fill-opacity:1;fill-rule:evenodd;stroke:#000;stroke-width:1.15762496px;stroke-linecap:butt;stroke-linejoin:miter;stroke-opacity:1" id="path4165-4" d="m 20.905325,931.71765 c -18.3978679,14.37765 -10.034826,50.43379 -4.996715,54.175 35.18974,26.13115 68.436695,4.24177 81.689372,-8.28339 37.450638,-35.39469 54.043828,-53.54297 88.475628,-65.52988 13.05558,-4.54511 33.71714,-30.04711 6.615,-60.15516 -22.27204,12.93898 -47.25822,6.31802 -70.28438,-7.02844 -22.25672,27.70031 -55.761072,51.07846 -101.498905,86.82187 z"/><path style="fill:#ff8080;fill-opacity:1;fill-rule:evenodd;stroke:#000;stroke-width:1.15762496px;stroke-linecap:butt;stroke-linejoin:miter;stroke-opacity:1" id="path4167-5" d="m 129.43267,835.80015 -8.90145,11.44262 c 14.04264,10.36387 43.78171,24.30447 74.25485,7.07492 -3.61893,-5.01833 -4.78371,-10.1917 -7.05871,-15.21004 -15.92917,6.32258 -35.69337,11.25794 -58.29469,-3.3075 z"/><path style="fill:none;fill-rule:evenodd;stroke:#ff2a2a;stroke-width:1.15762496px;stroke-linecap:butt;stroke-linejoin:miter;stroke-opacity:1" id="path4169-8" d="m 123.99085,848.78593 7.23553,-10.88983"/><path style="display:inline;fill:none;fill-rule:evenodd;stroke:#ff2a2a;stroke-width:1.15762496px;stroke-linecap:butt;stroke-linejoin:miter;stroke-opacity:1" id="path4169-7-8" d="M 127.09701,850.64962 134.14982,839.504"/><path style="display:inline;fill:none;fill-rule:evenodd;stroke:#ff2a2a;stroke-width:1.15762496px;stroke-linecap:butt;stroke-linejoin:miter;stroke-opacity:1" id="path4169-1-4" d="m 130.60515,852.58641 6.68738,-11.58416"/><path style="display:inline;fill:none;fill-rule:evenodd;stroke:#ff2a2a;stroke-width:1.15762496px;stroke-linecap:butt;stroke-linejoin:miter;stroke-opacity:1" id="path4169-0-1" d="m 134.77106,854.59627 6.10269,-12.13228"/><path style="display:inline;fill:none;fill-rule:evenodd;stroke:#ff2a2a;stroke-width:1.15762496px;stroke-linecap:butt;stroke-linejoin:miter;stroke-opacity:1" id="path4169-9-36" d="m 138.93696,856.35034 5.44492,-12.6439"/><path style="display:inline;fill:none;fill-rule:evenodd;stroke:#ff2a2a;stroke-width:1.15762496px;stroke-linecap:butt;stroke-linejoin:miter;stroke-opacity:1" id="path4169-5-95" d="m 142.88361,857.81207 4.82369,-13.19204"/><path style="display:inline;fill:none;fill-rule:evenodd;stroke:#ff2a2a;stroke-width:1.15762496px;stroke-linecap:butt;stroke-linejoin:miter;stroke-opacity:1" id="path4169-6-9" d="m 147.30532,859.31033 3.80048,-13.95945"/><path style="display:inline;fill:none;fill-rule:evenodd;stroke:#ff2a2a;stroke-width:1.15762496px;stroke-linecap:butt;stroke-linejoin:miter;stroke-opacity:1" id="path4169-90-2" d="m 152.23864,860.33354 2.3753,-14.47104"/><path style="display:inline;fill:none;fill-rule:evenodd;stroke:#ff2a2a;stroke-width:1.15762496px;stroke-linecap:butt;stroke-linejoin:miter;stroke-opacity:1" id="path4169-9-3-4" d="m 156.76916,861.05015 1.62272,-14.86398"/><path style="display:inline;fill:none;fill-rule:evenodd;stroke:#ff2a2a;stroke-width:1.15762496px;stroke-linecap:butt;stroke-linejoin:miter;stroke-opacity:1" id="path4169-5-9-4" d="m 161.88656,861.65258 0.16099,-15.44869"/><path style="display:inline;fill:none;fill-rule:evenodd;stroke:#ff2a2a;stroke-width:1.15762496px;stroke-linecap:butt;stroke-linejoin:miter;stroke-opacity:1" id="path4169-6-7-4" d="m 167.19825,861.54789 -1.26419,-15.55832"/><path style="display:inline;fill:none;fill-rule:evenodd;stroke:#ff2a2a;stroke-width:1.15762496px;stroke-linecap:butt;stroke-linejoin:miter;stroke-opacity:1" id="path4169-90-6-2" d="M 172.76183,860.95998 169.78012,845.4382"/><path style="display:inline;fill:none;fill-rule:evenodd;stroke:#ff2a2a;stroke-width:1.15762496px;stroke-linecap:butt;stroke-linejoin:miter;stroke-opacity:1" id="path4169-9-1-9" d="m 177.90726,860.14872 -4.18052,-15.508"/><path style="display:inline;fill:none;fill-rule:evenodd;stroke:#ff2a2a;stroke-width:1.15762496px;stroke-linecap:butt;stroke-linejoin:miter;stroke-opacity:1" id="path4169-5-7-5" d="M 182.40575,858.82974 177.5309,843.54098"/><path style="display:inline;fill:none;fill-rule:evenodd;stroke:#ff2a2a;stroke-width:1.15762496px;stroke-linecap:butt;stroke-linejoin:miter;stroke-opacity:1" id="path4169-6-2-1" d="m 187.03614,857.2061 -5.82496,-14.70406"/><path style="display:inline;fill:none;fill-rule:evenodd;stroke:#ff2a2a;stroke-width:1.15762496px;stroke-linecap:butt;stroke-linejoin:miter;stroke-opacity:1" id="path4169-90-60-8" d="m 191.15621,855.37954 -6.1904,-14.33862"/><path style="fill:none;fill-rule:evenodd;stroke:#000;stroke-width:.57881248;stroke-linecap:butt;stroke-linejoin:miter;stroke-miterlimit:4;stroke-dasharray:none;stroke-opacity:1" id="path4258-7" d="m 179.66532,914.14656 c -13.30009,-9.20423 -17.55883,-22.1757 -24.80624,-33.90187"/><path style="fill:none;fill-rule:evenodd;stroke:#000;stroke-width:.57881248;stroke-linecap:butt;stroke-linejoin:miter;stroke-miterlimit:4;stroke-dasharray:none;stroke-opacity:1" id="path4260-2" d="m 11.706339,945.15438 c 12.512711,1.51115 20.14881,9.22887 29.974222,14.16024"/><path style="fill:#ff8080;fill-opacity:1;fill-rule:evenodd;stroke:#000;stroke-width:1.15762496px;stroke-linecap:butt;stroke-linejoin:miter;stroke-opacity:1" id="path4165" d="m 59.810935,964.21288 c -18.397868,14.37765 -10.034826,50.43382 -4.996715,54.17502 35.18974,26.1312 68.4367,4.2417 81.68937,-8.2834 37.45064,-35.3947 54.04383,-53.54298 88.47563,-65.52989 13.05558,-4.54511 33.71714,-30.04711 6.615,-60.15516 -22.27204,12.93898 -47.25822,6.31802 -70.28438,-7.02844 -22.25672,27.70031 -55.76107,51.07846 -101.498905,86.82187 z"/><path style="fill:#ff8080;fill-opacity:1;fill-rule:evenodd;stroke:#000;stroke-width:1.15762496px;stroke-linecap:butt;stroke-linejoin:miter;stroke-opacity:1" id="path4167" d="m 168.33828,868.29538 -8.90145,11.44262 c 14.04264,10.36387 43.78171,24.30447 74.25485,7.07492 -3.61893,-5.01833 -4.78371,-10.1917 -7.05871,-15.21004 -15.92917,6.32258 -35.69337,11.25794 -58.29469,-3.3075 z"/><path style="fill:none;fill-rule:evenodd;stroke:#ff2a2a;stroke-width:1.15762496px;stroke-linecap:butt;stroke-linejoin:miter;stroke-opacity:1" id="path4169" d="m 162.89646,881.28116 7.23553,-10.88983"/><path style="display:inline;fill:none;fill-rule:evenodd;stroke:#ff2a2a;stroke-width:1.15762496px;stroke-linecap:butt;stroke-linejoin:miter;stroke-opacity:1" id="path4169-7" d="m 166.00262,883.14485 7.05281,-11.14562"/><path style="display:inline;fill:none;fill-rule:evenodd;stroke:#ff2a2a;stroke-width:1.15762496px;stroke-linecap:butt;stroke-linejoin:miter;stroke-opacity:1" id="path4169-1" d="m 169.51076,885.08164 6.68738,-11.58416"/><path style="display:inline;fill:none;fill-rule:evenodd;stroke:#ff2a2a;stroke-width:1.15762496px;stroke-linecap:butt;stroke-linejoin:miter;stroke-opacity:1" id="path4169-0" d="m 173.67667,887.0915 6.10269,-12.13228"/><path style="display:inline;fill:none;fill-rule:evenodd;stroke:#ff2a2a;stroke-width:1.15762496px;stroke-linecap:butt;stroke-linejoin:miter;stroke-opacity:1" id="path4169-9" d="m 177.84257,888.84557 5.44492,-12.6439"/><path style="display:inline;fill:none;fill-rule:evenodd;stroke:#ff2a2a;stroke-width:1.15762496px;stroke-linecap:butt;stroke-linejoin:miter;stroke-opacity:1" id="path4169-5" d="m 181.78922,890.3073 4.82369,-13.19204"/><path style="display:inline;fill:none;fill-rule:evenodd;stroke:#ff2a2a;stroke-width:1.15762496px;stroke-linecap:butt;stroke-linejoin:miter;stroke-opacity:1" id="path4169-6" d="m 186.21093,891.80556 3.80048,-13.95945"/><path style="display:inline;fill:none;fill-rule:evenodd;stroke:#ff2a2a;stroke-width:1.15762496px;stroke-linecap:butt;stroke-linejoin:miter;stroke-opacity:1" id="path4169-90" d="m 191.14425,892.82877 2.3753,-14.47104"/><path style="display:inline;fill:none;fill-rule:evenodd;stroke:#ff2a2a;stroke-width:1.15762496px;stroke-linecap:butt;stroke-linejoin:miter;stroke-opacity:1" id="path4169-9-3" d="m 195.67477,893.54538 1.62272,-14.86398"/><path style="display:inline;fill:none;fill-rule:evenodd;stroke:#ff2a2a;stroke-width:1.15762496px;stroke-linecap:butt;stroke-linejoin:miter;stroke-opacity:1" id="path4169-5-9" d="m 200.79217,894.14781 0.16099,-15.44869"/><path style="display:inline;fill:none;fill-rule:evenodd;stroke:#ff2a2a;stroke-width:1.15762496px;stroke-linecap:butt;stroke-linejoin:miter;stroke-opacity:1" id="path4169-6-7" d="M 206.10386,894.04312 204.83967,878.4848"/><path style="display:inline;fill:none;fill-rule:evenodd;stroke:#ff2a2a;stroke-width:1.15762496px;stroke-linecap:butt;stroke-linejoin:miter;stroke-opacity:1" id="path4169-90-6" d="m 211.66744,893.45521 -2.98171,-15.52178"/><path style="display:inline;fill:none;fill-rule:evenodd;stroke:#ff2a2a;stroke-width:1.15762496px;stroke-linecap:butt;stroke-linejoin:miter;stroke-opacity:1" id="path4169-9-1" d="m 216.81287,892.64395 -4.18052,-15.508"/><path style="display:inline;fill:none;fill-rule:evenodd;stroke:#ff2a2a;stroke-width:1.15762496px;stroke-linecap:butt;stroke-linejoin:miter;stroke-opacity:1" id="path4169-5-7" d="m 221.31136,891.32497 -4.87485,-15.28876"/><path style="display:inline;fill:none;fill-rule:evenodd;stroke:#ff2a2a;stroke-width:1.15762496px;stroke-linecap:butt;stroke-linejoin:miter;stroke-opacity:1" id="path4169-6-2" d="m 225.94175,889.70133 -5.82496,-14.70406"/><path style="display:inline;fill:none;fill-rule:evenodd;stroke:#ff2a2a;stroke-width:1.15762496px;stroke-linecap:butt;stroke-linejoin:miter;stroke-opacity:1" id="path4169-90-60" d="m 230.06182,887.87477 -6.1904,-14.33862"/><path style="fill:none;fill-rule:evenodd;stroke:#000;stroke-width:.57881248;stroke-linecap:butt;stroke-linejoin:miter;stroke-miterlimit:4;stroke-dasharray:none;stroke-opacity:1" id="path4258" d="m 218.57093,946.64179 c -13.30009,-9.20423 -17.55883,-22.1757 -24.80624,-33.90187"/><path style="fill:none;fill-rule:evenodd;stroke:#000;stroke-width:.57881248;stroke-linecap:butt;stroke-linejoin:miter;stroke-miterlimit:4;stroke-dasharray:none;stroke-opacity:1" id="path4260" d="m 50.611949,977.64961 c 12.512711,1.51115 20.14881,9.22887 29.974222,14.16024"/></g></svg>