<svg xmlns="http://www.w3.org/2000/svg" xmlns:svg="http://www.w3.org/2000/svg" id="svg4166" version="1.1" viewBox="0 0 256 256"><style id="style3">svg{cursor:default}</style><metadata id="metadata4171"/><g id="layer1" transform="translate(0,-796.36216)" style="display:inline"><path style="fill:#fca;fill-rule:evenodd;stroke:none;stroke-width:1px;stroke-linecap:butt;stroke-linejoin:miter;stroke-opacity:1" id="path4426" d="m 127.76381,806.70653 c 5.99476,-1.66041 38.36534,-4.81744 44.46429,2.85714 0,0 -8.35626,37.95445 -11.01278,57.23214 -1.12656,8.17512 -2.04033,20.59532 -1.21937,24.10715 6.15463,26.32767 -13.36139,84.39585 -16.42857,107.14285 -0.54506,4.04239 1.77006,6.37879 -0.26785,11.51789 -1.02431,2.583 2.58928,11.0714 2.23214,27.9464 0.19908,2.3862 -1.14849,8.3158 -11.60714,8.3929 -11.94114,0.088 -11.25,-7.1429 -11.25,-7.1429 0,0 -0.55662,-18.8295 -0.53572,-22.3214 0.0258,-4.3147 1.72584,-6.2567 2.14286,-9.4643 0.50506,-3.8848 0.87384,-10.82872 3.21428,-16.60716 5.39727,-13.32561 0.2081,-69.36734 3.125,-87.76786 1.16672,-7.35994 -3.72374,-27.67157 -2.76785,-24.73214 z"/><path style="fill:#faa;fill-rule:evenodd;stroke:#000;stroke-width:.5;stroke-linecap:butt;stroke-linejoin:miter;stroke-miterlimit:4;stroke-dasharray:none;stroke-opacity:1" id="path4428" d="m 131.51381,828.22438 c 2.73289,-0.54796 28.40128,-1.13513 36.25,2.58929 l -3.66071,19.01786 c -9.08344,-0.47107 -20.80142,-0.56579 -32.14286,-0.71429 z"/><path style="fill:#faa;fill-rule:evenodd;stroke:#000;stroke-width:.5;stroke-linecap:butt;stroke-linejoin:miter;stroke-miterlimit:4;stroke-dasharray:none;stroke-opacity:1" id="path4430" d="m 160.53167,870.81367 c -11.00653,0.51951 -20.36876,-0.27642 -29.73214,-1.07143 -0.21392,7.52387 -2.15589,14.75974 -0.53572,22.58929 9.48361,2.72382 19.59698,2.71864 30.08929,1.07142 -0.93283,-7.9267 -0.55949,-15.33094 0.17857,-22.58928 z"/><path style="fill:#faa;fill-rule:evenodd;stroke:#000;stroke-width:.5;stroke-linecap:butt;stroke-linejoin:miter;stroke-miterlimit:4;stroke-dasharray:none;stroke-opacity:1" id="path4432" d="m 160.44238,915.0101 c -10.09299,1.30591 -20.37396,0.92003 -30.80357,-0.80357 l 0.26786,19.375 c 9.52657,1.20213 19.81933,3.2799 27.14286,1.96428 1.98733,-6.63114 2.72692,-13.57422 3.39285,-20.53571 z"/><path style="fill:#faa;fill-rule:evenodd;stroke:#000;stroke-width:.5;stroke-linecap:butt;stroke-linejoin:miter;stroke-miterlimit:4;stroke-dasharray:none;stroke-opacity:1" id="path4434" d="m 154.19238,951.2601 -4.19643,17.05357 c -6.24583,-0.51875 -13.19105,-1.38719 -20.08928,-2.23214 l 0.0893,-16.16072 c 9.23305,0.871 18.5683,1.77917 24.19641,1.33929 z"/><path style="fill:#faa;fill-rule:evenodd;stroke:#000;stroke-width:.5;stroke-linecap:butt;stroke-linejoin:miter;stroke-miterlimit:4;stroke-dasharray:none;stroke-opacity:1" id="path4436" d="m 145.79953,986.70653 c -1.4654,5.86836 -2.64527,11.69593 -1.78572,17.23217 -5.76814,-3.4373 -12.06102,-4.60067 -18.83928,-3.6608 -0.081,-5.57761 2.42264,-7.74766 3.83928,-16.60709 5.9153,-0.57216 11.48466,0.56787 16.78572,3.03572 z"/><path style="fill:#faa;fill-rule:evenodd;stroke:#000;stroke-width:.5;stroke-linecap:butt;stroke-linejoin:miter;stroke-miterlimit:4;stroke-dasharray:none;stroke-opacity:1" id="path4438" d="m 144.63881,1021.6173 c 0.56854,4.6726 0.73156,9.3452 0.98214,14.0178 -7.03171,-6.6872 -17.64462,-8.481 -23.125,0.1786 -0.0343,-5.7017 0.13093,-11.3036 -0.53571,-17.3214 1.73109,-4.7335 17.38595,-3.6942 22.67857,3.125 z"/><path id="path4442" d="m 127.76381,806.70653 c 5.99476,-1.66041 38.36534,-4.81744 44.46429,2.85714 0,0 -8.35626,37.95445 -11.01278,57.23214 -1.12656,8.17512 -2.04033,20.59532 -1.21937,24.10715 6.15463,26.32767 -13.36139,84.39585 -16.42857,107.14285 -0.54506,4.04239 1.77006,6.37879 -0.26785,11.51789 -1.02431,2.583 2.58928,11.0714 2.23214,27.9464 0.19908,2.3862 -1.14849,8.3158 -11.60714,8.3929 -11.94114,0.088 -11.25,-7.1429 -11.25,-7.1429 0,0 -0.55662,-18.8295 -0.53572,-22.3214 0.0258,-4.3147 1.72584,-6.2567 2.14286,-9.4643 0.50506,-3.8848 0.87384,-10.82872 3.21428,-16.60716 5.39727,-13.32561 0.2081,-69.36734 3.125,-87.76786 1.16672,-7.35994 -3.72374,-27.67157 -2.76785,-24.73214 z" style="fill:none;fill-rule:evenodd;stroke:#000;stroke-width:1px;stroke-linecap:butt;stroke-linejoin:miter;stroke-opacity:1"/><path style="fill:#fca;fill-rule:evenodd;stroke:none;stroke-width:1px;stroke-linecap:butt;stroke-linejoin:miter;stroke-opacity:1" id="path4412" d="m 84.54953,810.27796 c 10.54367,23.17565 18.4453,60.67718 15.98214,67.76785 -10.8838,31.33103 -3.70143,53.50668 -3.03572,67.67857 0.67988,14.47357 1.31873,26.82507 2.58294,40.44008 0.16397,1.76588 -1.29965,4.73455 -1.68012,10.14559 -0.29876,4.24915 0.60285,10.87555 -0.10559,13.73285 -0.74325,2.9977 -3.59781,12.7408 -3.56508,23.3601 0.0176,5.7186 0.9045,14.7001 10.17857,15.1786 6.12761,0.3162 12.75994,-2.8023 12.85714,-7.8572 0,0 -0.0882,-15.3451 0.80357,-22.9464 0.6693,-5.7051 -1.00042,-15.8049 -0.26785,-18.12505 1.65877,-5.25346 -0.49168,-9.49928 -0.80358,-14.28571 -2.00241,-30.72888 12.79536,-61.00153 11.78572,-92.14286 -0.15218,-4.69373 7.19239,-15.46783 5.625,-43.03571 -0.84998,-14.94985 -6.07143,-43.66071 -6.07143,-43.66071 -6.28601,-14.90168 -43.55118,-1.53606 -44.28571,3.75 z"/><path style="fill:#faa;fill-rule:evenodd;stroke:#000;stroke-width:.5;stroke-linecap:butt;stroke-linejoin:miter;stroke-miterlimit:4;stroke-dasharray:none;stroke-opacity:1" id="path4414" d="m 91.51381,829.29581 c 2.7837,-3.29342 28.71328,-12.85745 40.26786,-4.82143 0.87553,6.16486 2.09604,12.44471 2.32143,18.39286 -15.62851,-0.109 -27.94278,1.74599 -37.14286,5.44643 -1.22768,-6.48624 -3.27932,-12.76648 -5.44643,-19.01786 z"/><path style="fill:#faa;fill-rule:evenodd;stroke:#000;stroke-width:.5;stroke-linecap:butt;stroke-linejoin:miter;stroke-miterlimit:4;stroke-dasharray:none;stroke-opacity:1" id="path4416" d="m 100.17453,866.52795 c 24.44342,0.51003 30.63501,-0.1311 34.64285,-2.85714 0.61406,8.28191 -2.09285,16.01032 -4.19643,23.83929 -10.64096,3.60293 -21.5406,0.48006 -32.41071,-1.875 1.51502,-6.04877 4.31527,-8.21481 1.96429,-19.10715 z"/><path style="fill:#faa;fill-rule:evenodd;stroke:#000;stroke-width:.5;stroke-linecap:butt;stroke-linejoin:miter;stroke-miterlimit:4;stroke-dasharray:none;stroke-opacity:1" id="path4418" d="m 94.63881,904.74224 c 11.45833,4.16174 22.91667,5.436 34.375,1.51786 l -2.85714,17.58928 c -11.42264,5.2293 -21.82116,4.44187 -31.33929,-1.51785 z"/><path style="fill:#faa;fill-rule:evenodd;stroke:#000;stroke-width:.5;stroke-linecap:butt;stroke-linejoin:miter;stroke-miterlimit:4;stroke-dasharray:none;stroke-opacity:1" id="path4420" d="m 96.96024,940.99224 c 7.10809,4.40309 16.08817,3.36039 25.80357,0.17857 l -3.83928,18.83929 c -6.71231,1.61374 -13.3969,3.45838 -20.80358,-0.71429 z"/><path style="fill:#faa;fill-rule:evenodd;stroke:#000;stroke-width:.5;stroke-linecap:butt;stroke-linejoin:miter;stroke-miterlimit:4;stroke-dasharray:none;stroke-opacity:1" id="path4422" d="m 99.54953,979.11724 c 8.04333,0.4312 13.83139,-0.0146 17.58928,-1.25 -0.089,5.48829 0.59759,11.59712 1.69643,18.03571 -6.84479,0.32247 -13.73894,1.18794 -20.35714,-0.98214 2.23524,-8.17037 1.30799,-11.45325 1.07143,-15.80357 z"/><path style="fill:#faa;fill-rule:evenodd;stroke:#000;stroke-width:.5;stroke-linecap:butt;stroke-linejoin:miter;stroke-miterlimit:4;stroke-dasharray:none;stroke-opacity:1" id="path4424" d="m 98.29953,1009.9208 c 5.8421,1.2868 12.29223,2.3709 20.26785,2.9465 l -0.80357,19.2857 c -6.84962,-5.5818 -14.49004,-6.946 -22.76786,-4.9107 0.59375,-5.9188 1.5359,-11.7381 3.30358,-17.3215 z"/><path id="path4440" d="m 84.54953,810.27796 c 10.54367,23.17565 18.4453,60.67718 15.98214,67.76785 -10.8838,31.33103 -3.70143,53.50668 -3.03572,67.67857 0.67988,14.47357 1.31873,26.82507 2.58294,40.44008 0.16397,1.76588 -1.29965,4.73455 -1.68012,10.14559 -0.29876,4.24915 0.60285,10.87555 -0.10559,13.73285 -0.74325,2.9977 -3.59781,12.7408 -3.56508,23.3601 0.0176,5.7186 0.63664,14.7894 10.17857,15.1786 6.13066,0.2501 12.75994,-2.8023 12.85714,-7.8572 0,0 -0.0882,-15.3451 0.80357,-22.9464 0.6693,-5.7051 -1.00042,-15.8049 -0.26785,-18.12505 1.65877,-5.25346 -0.49168,-9.49928 -0.80358,-14.28571 -2.00241,-30.72888 12.79536,-61.00153 11.78572,-92.14286 -0.15218,-4.69373 7.19239,-15.46783 5.625,-43.03571 -0.84998,-14.94985 -6.07143,-43.66071 -6.07143,-43.66071 -6.28601,-14.90168 -43.55118,-1.53606 -44.28571,3.75 z" style="fill:none;fill-rule:evenodd;stroke:#000;stroke-width:1px;stroke-linecap:butt;stroke-linejoin:miter;stroke-opacity:1"/><path style="fill:none;fill-rule:evenodd;stroke:#000;stroke-width:.5;stroke-linecap:butt;stroke-linejoin:miter;stroke-miterlimit:4;stroke-dasharray:none;stroke-opacity:1" id="path4444" d="m 87.378195,815.98647 c 3.479688,-4.03521 25.843885,-15.01405 42.110735,-5.42957"/><path style="fill:none;fill-rule:evenodd;stroke:#000;stroke-width:.5;stroke-linecap:butt;stroke-linejoin:miter;stroke-miterlimit:4;stroke-dasharray:none;stroke-opacity:1" id="path4446" d="m 170.96832,815.22885 c -11.75498,-3.89094 -25.70786,-4.18533 -41.16372,-2.0203"/></g></svg>