<svg xmlns="http://www.w3.org/2000/svg" xmlns:svg="http://www.w3.org/2000/svg" xmlns:xlink="http://www.w3.org/1999/xlink" id="svg4164" version="1.1" viewBox="0 0 256 256"><style id="style3">svg{cursor:default}</style><defs id="defs4166"><linearGradient id="linearGradient2"><stop style="stop-color:#ff8080;stop-opacity:1" id="stop4693" offset="0"/><stop style="stop-color:#f55;stop-opacity:1" id="stop4695" offset="1"/></linearGradient><linearGradient id="linearGradient0"><stop style="stop-color:#ff8080;stop-opacity:1" id="stop4679" offset="0"/><stop style="stop-color:#f55;stop-opacity:1" id="stop4681" offset="1"/></linearGradient><marker id="Arrow1Lstart" orient="auto" refX="0" refY="0" style="overflow:visible"><path id="path4233" d="M 0.0,0.0 L 5.0,-5.0 L -12.5,0.0 L 5.0,5.0 L 0.0,0.0 z" transform="scale(0.8) translate(12.5,0)" style="fill-rule:evenodd;stroke:#000;stroke-width:1pt;stroke-opacity:1;fill:#000;fill-opacity:1"/></marker><linearGradient id="linearGradient1" x1="88.194" x2="84.918" y1="831.781" y2="1023.15" gradientUnits="userSpaceOnUse" xlink:href="#linearGradient0"/><linearGradient id="linearGradient3" x1="171.429" x2="174.286" y1="849.862" y2="1013.791" gradientUnits="userSpaceOnUse" xlink:href="#linearGradient2"/></defs><metadata id="metadata4169"/><g id="layer1" transform="translate(0,-796.36219)"><path style="fill:url(#linearGradient1);fill-rule:evenodd;stroke:#000;stroke-width:.94999999px;stroke-linecap:butt;stroke-linejoin:miter;stroke-opacity:1;fill-opacity:1" id="path4530" d="M 125.59665,1046.3827 C 86.378991,1030.8851 49.009693,1002.8176 19.959419,973.36495 30.141835,951.98527 54.673983,927.58998 55.60432,901.19034 56.608836,872.6858 36.171511,820.34025 36.171511,820.34025 c 44.242527,14.51935 68.637049,2.91323 93.143769,-8.47068 -0.71973,75.10217 -2.99889,155.78232 -3.71863,234.51313 z"/><path style="fill:url(#linearGradient3);fill-rule:evenodd;stroke:#000;stroke-width:.94999999px;stroke-linecap:butt;stroke-linejoin:miter;stroke-opacity:1;fill-opacity:1" id="path4532" d="m 126.19644,1045.5431 c 8.02549,5.8662 103.92617,-61.97028 104.8412,-73.7727 0,0 -34.28027,-46.68958 -36.91722,-76.26973 -2.24589,-25.1935 18.68397,-77.99319 18.68397,-77.99319 -28.94282,12.44294 -55.50754,0.70854 -82.64942,-5.15809 z"/><path style="fill:#faa;fill-rule:evenodd;stroke:#000;stroke-width:.94999999px;stroke-linecap:butt;stroke-linejoin:miter;stroke-opacity:1" id="path4534" d="m 22.074962,969.8511 -5.278048,8.15699 c 6.632076,5.93147 19.703859,14.78135 32.756421,24.00831 22.987672,16.2501 50.453695,34.6785 75.023705,47.6051 l 0.41984,-7.6771 C 73.095327,1012.0153 30.220696,985.65526 22.074962,969.8511 Z"/><path style="fill:#faa;fill-rule:evenodd;stroke:#000;stroke-width:.94999999px;stroke-linecap:butt;stroke-linejoin:miter;stroke-opacity:1" id="path4536" d="m 126.87501,1040.1039 -0.0316,7.6916 c 64.97712,-27.316 108.372,-67.35567 106.04075,-75.24716 l -5.6851,-7.01563 c 4.14821,13.05458 -41.2926,47.51789 -100.32405,74.57119 z"/><path style="fill:#faa;fill-rule:evenodd;stroke:#000;stroke-width:.94999999px;stroke-linecap:butt;stroke-linejoin:miter;stroke-opacity:1" id="path4538" d="m 36.200618,818.44051 c 0,2.1592 1.175443,7.40565 1.175443,7.40565 20.514062,5.44684 46.786071,8.76661 91.219489,-13.1369 l -0.47982,-6.47761 c -28.565343,10.66562 -57.302562,26.86649 -91.915112,12.20886 z"/><path style="fill:#faa;fill-rule:evenodd;stroke:#000;stroke-width:.94999999px;stroke-linecap:butt;stroke-linejoin:miter;stroke-opacity:1" id="path4540" d="m 212.80439,813.42899 -0.23991,6.71751 c -14.43645,9.20564 -51.32781,8.37131 -81.56982,-7.19733 l 0.47982,-5.99779 c 7.77306,2.1031 57.10601,24.77767 81.32991,6.47761 z"/><path style="fill:#ececec;fill-rule:evenodd;stroke:#000;stroke-width:.86158031px;stroke-linecap:butt;stroke-linejoin:miter;stroke-opacity:1" id="path4542" d="m 126.85928,1005.9839 -0.0775,-4.1158 c 6.17609,-0.4735 7.52716,-1.4538 0.63006,-3.6294 l -0.003,-3.7373 c 0,0 9.1676,2.87546 8.80257,6.3624 -0.3566,3.4063 -9.35273,5.1201 -9.35273,5.1201 z"/><path style="fill:#ececec;fill-rule:evenodd;stroke:#000;stroke-width:.89620745px;stroke-linecap:butt;stroke-linejoin:miter;stroke-opacity:1" id="path4542-7" d="m 127.39824,965.39732 -0.0842,-4.10243 c 6.70431,-0.47189 8.17093,-1.44904 0.68395,-3.6176 l -0.003,-3.72511 c 0,0 9.95165,2.86614 9.55539,6.34177 -0.38709,3.39519 -10.1526,5.10337 -10.1526,5.10337 z"/><path style="fill:#ececec;fill-rule:evenodd;stroke:#000;stroke-width:.92146742px;stroke-linecap:butt;stroke-linejoin:miter;stroke-opacity:1" id="path4542-6" d="m 127.77182,925.68058 -0.084,-4.34879 c 6.68604,-0.50022 8.14867,-1.53605 0.68207,-3.83484 l -0.003,-3.9488 c 0,0 9.92456,3.03825 9.52939,6.7226 -0.38604,3.59907 -10.12497,5.40983 -10.12497,5.40983 z"/><path style="fill:#ececec;fill-rule:evenodd;stroke:#000;stroke-width:.77927971px;stroke-linecap:butt;stroke-linejoin:miter;stroke-opacity:1" id="path4542-1" d="m 128.40944,885.44431 -0.0763,-3.42211 c 6.07673,-0.39364 7.40606,-1.20875 0.61991,-3.01769 l -0.003,-3.10735 c 0,0 9.02011,2.39083 8.66095,5.29008 -0.35086,2.83216 -9.20226,4.25707 -9.20226,4.25707 z"/><path style="fill:#ececec;fill-rule:evenodd;stroke:#000;stroke-width:.89066911px;stroke-linecap:butt;stroke-linejoin:miter;stroke-opacity:1" id="path4542-3" d="m 129.55335,845.20526 -0.0823,-4.14729 c 6.55007,-0.47705 7.98294,-1.46489 0.6682,-3.65716 l -0.003,-3.76585 c 0,0 9.72271,2.89748 9.33557,6.41113 -0.37818,3.43231 -9.91905,5.15917 -9.91905,5.15917 z"/><path style="fill:#000;fill-rule:evenodd;stroke:none;stroke-width:1px;stroke-linecap:butt;stroke-linejoin:miter;stroke-opacity:1" id="path4593" d="m 109.55347,1032.1928 c 0.10686,-32.1263 1.18839,-76.21457 1.90003,-108.40566 -1.02805,32.17765 -2.42642,76.26536 -2.84999,108.39786 z"/><path style="fill:#000;fill-rule:evenodd;stroke:none;stroke-width:1px;stroke-linecap:butt;stroke-linejoin:miter;stroke-opacity:1" id="path4597" d="m 88.45734,1019.9314 c 3.584396,-38.54761 8.751903,-71.15205 8.406866,-106.15318 0.02829,34.98665 -5.45063,67.52161 -9.352418,106.06138 z"/><path style="fill:#000;fill-rule:evenodd;stroke:none;stroke-width:1px;stroke-linecap:butt;stroke-linejoin:miter;stroke-opacity:1" id="path4601" d="m 70.866455,1009.1219 c 7.568458,-40.3939 14.745888,-70.8611 12.087035,-105.86154 2.340326,34.98567 -5.1426,65.35893 -13.020105,105.68294 z"/><path style="fill:#000;fill-rule:evenodd;stroke:none;stroke-width:1px;stroke-linecap:butt;stroke-linejoin:miter;stroke-opacity:1" id="path4605" d="M 52.758187,997.17331 C 62.901498,967.72648 74.62559,930.41422 72.26599,894.09965 c 2.040943,36.29132 -9.982084,73.47419 -20.404423,102.7597 z"/><path style="fill:#000;fill-rule:evenodd;stroke:none;stroke-width:1px;stroke-linecap:butt;stroke-linejoin:miter;stroke-opacity:1" id="path4609" d="m 36.471348,985.19786 0.429393,0.20309 c 15.950517,-34.0946 28.775889,-53.69533 23.999179,-105.89059 4.457039,52.17531 -8.653252,71.593 -24.857965,105.48441 l 0.429393,0.20309 z"/><path style="fill:#000;fill-rule:evenodd;stroke:none;stroke-width:1px;stroke-linecap:butt;stroke-linejoin:miter;stroke-opacity:1" id="path4613" d="m 146.5065,1030.5484 c -0.6875,-43.64055 -2.30397,-63.53888 -1.10238,-107.05816 -1.51834,43.51691 -0.21827,63.43628 0.15244,107.06976 z"/><path style="fill:#000;fill-rule:evenodd;stroke:none;stroke-width:1px;stroke-linecap:butt;stroke-linejoin:miter;stroke-opacity:1" id="path4617" d="m 167.71318,1019.368 0.47277,-0.046 c -4.01474,-39.60774 -7.88666,-61.35754 -8.04496,-99.43664 -0.15837,38.09521 3.40071,59.89888 7.09942,99.52864 l 0.47277,-0.046 z"/><path style="fill:#000;fill-rule:evenodd;stroke:none;stroke-width:1px;stroke-linecap:butt;stroke-linejoin:miter;stroke-opacity:1" id="path4621" d="m 184.78768,1008.5607 c -3.00371,-28.08003 -13.03586,-64.45549 -11.92347,-97.49677 -1.42917,33.03792 8.30046,69.58719 10.97831,97.59257 z"/><path style="fill:#000;fill-rule:evenodd;stroke:none;stroke-width:1px;stroke-linecap:butt;stroke-linejoin:miter;stroke-opacity:1" id="path4625" d="m 202.8343,995.9946 c -12.56079,-38.58772 -20.01275,-63.65735 -21.14866,-94.93959 0.82032,31.32179 7.97106,56.50253 20.24418,95.23011 z"/><path style="fill:#000;fill-rule:evenodd;stroke:none;stroke-width:1px;stroke-linecap:butt;stroke-linejoin:miter;stroke-opacity:1" id="path4629" d="m 219.2444,981.39043 c -17.00727,-27.95137 -25.63354,-41.11245 -30.6034,-95.60328 4.65487,54.5238 12.99581,67.88264 29.78946,96.09316 z"/></g></svg>