<svg xmlns="http://www.w3.org/2000/svg" xmlns:svg="http://www.w3.org/2000/svg" xmlns:xlink="http://www.w3.org/1999/xlink" id="svg4164" version="1.1" viewBox="0 0 256 256"><style id="style3">svg{cursor:default}</style><defs id="defs4166"><linearGradient id="linearGradient2"><stop style="stop-color:#ff8080;stop-opacity:1" id="stop4299" offset="0"/><stop style="stop-color:#f55;stop-opacity:1" id="stop4301" offset="1"/></linearGradient><linearGradient id="linearGradient0"><stop style="stop-color:#f55;stop-opacity:1" id="stop4291" offset="0"/><stop style="stop-color:#ff8080;stop-opacity:1" id="stop4293" offset="1"/></linearGradient><marker id="Arrow1Lstart" orient="auto" refX="0" refY="0" style="overflow:visible"><path id="path4233" d="M 0.0,0.0 L 5.0,-5.0 L -12.5,0.0 L 5.0,5.0 L 0.0,0.0 z" transform="scale(0.8) translate(12.5,0)" style="fill-rule:evenodd;stroke:#000;stroke-width:1pt;stroke-opacity:1;fill:#000;fill-opacity:1"/></marker><linearGradient id="linearGradient1" x1="67.5" x2="86.071" y1="1048.434" y2="848.791" gradientUnits="userSpaceOnUse" xlink:href="#linearGradient0"/><linearGradient id="linearGradient3" x1="154.286" x2="170.357" y1="868.791" y2="1045.934" gradientUnits="userSpaceOnUse" xlink:href="#linearGradient2"/></defs><metadata id="metadata4169"/><g id="layer1" transform="translate(0,-796.36219)"><g id="g4305" transform="matrix(1.05,0,0,1.05,-3.5276979,-52.227363)"><path id="path4208" d="M 129.04699,1037.9675 C 99.403651,1034.2876 69.499829,1024.9639 39.143411,1005.8339 45.381161,985.28706 56.24862,971.05325 65.659915,954.12485 73.350098,940.29227 78.515827,928.137 67.175144,902.47446 56.041686,877.28084 53.871673,863.29531 50.002551,844.01823 65.327056,803.70981 112.59811,824.66396 127.65803,834.67432 Z" style="fill:url(#linearGradient1);fill-opacity:1;fill-rule:evenodd;stroke:#000;stroke-width:1px;stroke-linecap:butt;stroke-linejoin:miter;stroke-opacity:1"/><path id="path4212" d="m 216.42518,1007.1579 c -7.71885,-23.90334 -16.64534,-35.81891 -26.26396,-52.52797 -12.74687,-22.14333 -6.04653,-34.94862 -2.52538,-51.77032 4.4006,-21.02314 15.15228,-62.62945 15.15228,-62.62945 -20.59248,-29.10439 -47.24237,-20.13365 -74.81442,-5.36644 l 1.51709,204.00938 c 39.031,-5.8576 67.89631,-16.5752 86.93439,-31.7152 z" style="fill:url(#linearGradient3);fill-opacity:1;fill-rule:evenodd;stroke:#000;stroke-width:1px;stroke-linecap:butt;stroke-linejoin:miter;stroke-opacity:1"/><path id="path4216" d="M 59.821429,1016.648 C 89.922088,918.47471 78.399166,915.9699 55.714286,832.8979" style="fill:none;fill-rule:evenodd;stroke:#000;stroke-width:.5;stroke-linecap:butt;stroke-linejoin:miter;stroke-miterlimit:4;stroke-dasharray:none;stroke-opacity:1"/><path id="path4218" d="M 93.75,1029.6836 C 111.17361,883.26357 81.268003,897.13745 79.285714,821.29076" style="fill:none;fill-rule:evenodd;stroke:#000;stroke-width:.5;stroke-linecap:butt;stroke-linejoin:miter;stroke-miterlimit:4;stroke-dasharray:none;stroke-opacity:1"/><path id="path4220" d="m 110.02321,827.3495 c 3.88925,89.35528 8.87031,90.06968 3.54822,209.477" style="fill:none;fill-rule:evenodd;stroke:#000;stroke-width:.5;stroke-linecap:butt;stroke-linejoin:miter;stroke-miterlimit:4;stroke-dasharray:none;stroke-opacity:1"/><path id="path4222" d="M 145.53571,1036.6479 C 144.86258,966.56131 139.19131,898.55728 143.75,826.29076" style="fill:none;fill-rule:evenodd;stroke:#000;stroke-width:.5;stroke-linecap:butt;stroke-linejoin:miter;stroke-miterlimit:4;stroke-dasharray:none;stroke-opacity:1"/><path id="path4224" d="m 172.92893,822.39282 c 0.95855,67.16913 -20.78562,89.90088 -4.10805,206.67368" style="fill:none;fill-rule:evenodd;stroke:#000;stroke-width:.5;stroke-linecap:butt;stroke-linejoin:miter;stroke-miterlimit:4;stroke-dasharray:none;stroke-opacity:1"/><path id="path4226" d="M 195.17857,1021.8265 C 167.52782,932.38977 175.44358,909.98475 194.08702,832.45936" style="fill:none;fill-rule:evenodd;stroke:#000;stroke-width:.5;stroke-linecap:butt;stroke-linejoin:miter;stroke-miterlimit:4;stroke-dasharray:none;stroke-opacity:1"/><path id="path4228" d="m 127.85834,852.7921 0.021,1.74147 c 6.92809,1.66186 4.77029,2.61339 0.0406,3.36386 l 0.0283,2.34837 c 0,0 7.38936,-1.27758 7.41544,-3.84838 0.0209,-2.06881 -7.50534,-3.60532 -7.50534,-3.60532 z" style="fill:#e6e6e6;fill-rule:evenodd;stroke:#000;stroke-width:.95576566px;stroke-linecap:butt;stroke-linejoin:miter;stroke-opacity:1"/><ellipse id="path4239" cx="131.83" cy="856.313" rx="1.384" ry="1.183" style="fill:#e6e6e6;fill-opacity:1;stroke:#000;stroke-width:.5;stroke-miterlimit:4;stroke-dasharray:none;stroke-dashoffset:0"/><path id="path4228-9" d="m 128.15202,885.89482 0.021,1.74147 c 6.92809,1.66186 4.77029,2.61339 0.0406,3.36386 l 0.0283,2.34837 c 0,0 7.38936,-1.27758 7.41544,-3.84838 0.0209,-2.06881 -7.50534,-3.60532 -7.50534,-3.60532 z" style="fill:#e6e6e6;fill-rule:evenodd;stroke:#000;stroke-width:.95576566px;stroke-linecap:butt;stroke-linejoin:miter;stroke-opacity:1"/><ellipse id="path4239-1" cx="132.124" cy="889.416" rx="1.384" ry="1.183" style="fill:#e6e6e6;fill-opacity:1;stroke:#000;stroke-width:.5;stroke-miterlimit:4;stroke-dasharray:none;stroke-dashoffset:0"/><path id="path4228-6" d="m 128.45458,918.8409 0.021,1.74147 c 6.92809,1.66186 4.77029,2.61339 0.0406,3.36386 l 0.0283,2.34837 c 0,0 7.38936,-1.27758 7.41544,-3.84838 0.0209,-2.06881 -7.50534,-3.60532 -7.50534,-3.60532 z" style="fill:#e6e6e6;fill-rule:evenodd;stroke:#000;stroke-width:.95576566px;stroke-linecap:butt;stroke-linejoin:miter;stroke-opacity:1"/><ellipse id="path4239-7" cx="132.427" cy="922.362" rx="1.384" ry="1.183" style="fill:#e6e6e6;fill-opacity:1;stroke:#000;stroke-width:.5;stroke-miterlimit:4;stroke-dasharray:none;stroke-dashoffset:0"/><path id="path4228-62" d="m 128.83339,951.79713 0.021,1.74147 c 6.92809,1.66186 4.77029,2.61339 0.0406,3.36386 l 0.0283,2.34837 c 0,0 7.38936,-1.27758 7.41544,-3.84838 0.0209,-2.06881 -7.50534,-3.60532 -7.50534,-3.60532 z" style="fill:#e6e6e6;fill-rule:evenodd;stroke:#000;stroke-width:.95576566px;stroke-linecap:butt;stroke-linejoin:miter;stroke-opacity:1"/><ellipse id="path4239-9" cx="132.805" cy="955.318" rx="1.384" ry="1.183" style="fill:#e6e6e6;fill-opacity:1;stroke:#000;stroke-width:.5;stroke-miterlimit:4;stroke-dasharray:none;stroke-dashoffset:0"/><path id="path4228-3" d="m 128.83339,988.28889 0.021,1.74147 c 6.92809,1.66186 4.77029,2.61339 0.0406,3.36386 l 0.0283,2.34837 c 0,0 7.38936,-1.27758 7.41544,-3.84838 0.0209,-2.06881 -7.50534,-3.60532 -7.50534,-3.60532 z" style="fill:#e6e6e6;fill-rule:evenodd;stroke:#000;stroke-width:.95576566px;stroke-linecap:butt;stroke-linejoin:miter;stroke-opacity:1"/><ellipse id="path4239-96" cx="132.805" cy="991.81" rx="1.384" ry="1.183" style="fill:#e6e6e6;fill-opacity:1;stroke:#000;stroke-width:.5;stroke-miterlimit:4;stroke-dasharray:none;stroke-dashoffset:0"/><path id="path4204" d="m 129.29953,1035.6947 c -0.23647,2.1503 -0.0808,4.6928 -0.74493,6.4154 -39.017141,-7.4499 -59.74599,-17.6235 -90.800149,-33.6896 0.841794,-3.6133 0.799704,-3.536 1.641498,-5.0507 20.860717,12.1143 32.193086,20.4285 89.903581,32.3249 z" style="fill:#faa;fill-rule:evenodd;stroke:#000;stroke-width:1px;stroke-linecap:butt;stroke-linejoin:miter;stroke-opacity:1"/><path id="path4206" d="m 129.95516,1035.9918 -0.13524,6.2828 c 18.53989,-0.4548 84.47149,-23.702 87.86795,-32.3388 l -1.26269,-4.5457 c -14.76992,10.9353 -47.38526,25.2834 -86.47002,30.6017 z" style="fill:#faa;fill-rule:evenodd;stroke:#000;stroke-width:1px;stroke-linecap:butt;stroke-linejoin:miter;stroke-opacity:1"/><path id="path4210" d="m 50.877461,849.26025 c -0.252538,-1.01015 -1.140139,-6.91788 -1.140139,-6.91788 1.476136,-15.92264 16.337125,-22.98763 33.297743,-23.98583 16.38036,-0.96405 20.918155,3.84846 44.181025,12.78224 0.13207,2.20971 0.15793,3.72494 0.12623,5.93464 C 97.813317,817.7719 55.785504,815.91927 50.877431,849.26025 Z" style="fill:#faa;fill-rule:evenodd;stroke:#000;stroke-width:1px;stroke-linecap:butt;stroke-linejoin:miter;stroke-opacity:1"/><path id="path4214" d="m 202.28305,843.19748 c 0.77798,-1.62874 0.66697,-3.07967 0.63134,-4.54568 -18.85696,-33.81523 -55.05424,-17.57107 -74.62501,-7.19735 -0.62954,1.97822 0.0726,3.95644 0.18939,5.93465 36.28381,-20.71629 59.50471,-16.44361 73.80428,5.80838 z" style="fill:#faa;fill-rule:evenodd;stroke:#000;stroke-width:1px;stroke-linecap:butt;stroke-linejoin:miter;stroke-opacity:1"/></g></g></svg>