<svg xmlns="http://www.w3.org/2000/svg" xmlns:svg="http://www.w3.org/2000/svg" id="svg4166" version="1.1" viewBox="0 0 256 256"><style id="style3">svg{cursor:default}</style><metadata id="metadata4171"/><g id="layer1" transform="translate(0,-796.36216)" style="display:inline"><g id="g4224" transform="matrix(0.970299,0,0,0.970299,490.34466,-32.859084)"><path id="path4206" d="m -490.42906,935.94208 -3.28299,-24.74874 -8.08122,-12.37437 228.15336,-2.00798 -5.16219,18.17042 c -69.92258,8.42003 -134.92691,28.21354 -211.62696,20.96067 z" style="fill:gray;fill-opacity:1;fill-rule:evenodd;stroke:#000;stroke-width:1px;stroke-linecap:butt;stroke-linejoin:miter;stroke-opacity:1"/><path id="path4216" d="m -450.69746,936.76478 c -2.32693,-4.96004 -5.04462,-8.08909 -7.74768,-10.40339 -2.65439,-2.27263 -5.38189,-3.82096 -7.74026,-5.5716 2.09084,2.35779 4.20754,4.16024 6.41166,6.86914 2.1106,2.59396 4.06776,5.7801 5.62706,10.49091 z" style="fill:#333;fill-opacity:1;fill-rule:evenodd;stroke:none;stroke-width:1px;stroke-linecap:butt;stroke-linejoin:miter;stroke-opacity:1"/><path id="path4222" d="m -494.21713,1063.7264 -3.73396,13.2608 253.67822,-0.4078 -7.25511,-23.7122 z" style="fill:gray;fill-opacity:1;fill-rule:evenodd;stroke:#000;stroke-width:1px;stroke-linecap:butt;stroke-linejoin:miter;stroke-opacity:1"/><path id="path4204" d="m -376.27537,1062.2189 -116.21282,2.6526 56.60737,-22.1058 z" style="fill:#ff8080;fill-rule:evenodd;stroke:#000;stroke-width:1px;stroke-linecap:butt;stroke-linejoin:miter;stroke-opacity:1"/><path id="path4200" d="m -254.2827,1042.1434 c 1.01016,1.0101 3.85941,14.1981 3.85941,14.1981 l -127.87884,5.112 c 39.45815,-11.509 74.4627,-35.0234 124.01943,-19.3101 z" style="fill:#faa;fill-rule:evenodd;stroke:#000;stroke-width:1px;stroke-linecap:butt;stroke-linejoin:miter;stroke-opacity:1"/><path id="path4198" d="m -277.28687,1037.4624 -99.24749,24.7488 -69.95306,-13.132 57.19962,-18.56 z" style="fill:#ff8080;fill-rule:evenodd;stroke:#000;stroke-width:1px;stroke-linecap:butt;stroke-linejoin:miter;stroke-opacity:1"/><path id="path4196" d="m -263.20338,1005.5892 c 0,0 8.70028,27.2876 9.35179,39.2095 l -169.40232,-15.165 c 51.88505,-11.562 103.75181,-23.1682 160.05053,-24.0445 z" style="fill:#faa;fill-rule:evenodd;stroke:#000;stroke-width:1px;stroke-linecap:butt;stroke-linejoin:miter;stroke-opacity:1"/><path id="path4188" d="m -481.84276,975.08549 c -0.50507,9.84898 -2.84105,25.69571 -2.84105,25.69571 93.34288,10.2353 170.72109,-15.11635 211.7181,-32.0538 -1.08632,-12.66036 -3.56354,-21.30257 -5.64381,-31.09152 -69.14287,25.05423 -136.9424,39.96502 -203.23324,37.44961 z" style="fill:#ff8080;fill-rule:evenodd;stroke:#000;stroke-width:1px;stroke-linecap:butt;stroke-linejoin:miter;stroke-opacity:1"/><path id="path4186" d="m -486.38845,957.66036 c 2.06901,9.66353 2.77923,15.61546 3.85121,24.24366 68.92027,-1.76144 138.22982,-14.40499 204.50676,-41.66748 0.623,-7.14424 -0.68233,-13.8064 -1.02416,-20.70944 z" style="fill:#faa;fill-rule:evenodd;stroke:#000;stroke-width:1px;stroke-linecap:butt;stroke-linejoin:miter;stroke-opacity:1"/><path id="path4194" d="m -268.8205,981.65148 c 4.10737,8.17295 4.71095,16.84312 6.11956,24.79472 -36.54667,7.6471 -72.54688,9.241 -109.55079,12.3157 2.36335,-24.66163 68.98148,-26.57219 103.43123,-37.11042 z" style="fill:#ff8080;fill-rule:evenodd;stroke:#000;stroke-width:1px;stroke-linecap:butt;stroke-linejoin:miter;stroke-opacity:1"/><path id="path4192" d="m -273.24626,966.24666 c 2.33877,5.49614 4.0062,11.8874 5.64513,18.31667 -36.20948,14.52401 -77.27785,26.34587 -125.85328,34.21127 l -60.35662,-13.6371 z" style="fill:#faa;fill-rule:evenodd;stroke:#000;stroke-width:1px;stroke-linecap:butt;stroke-linejoin:miter;stroke-opacity:1"/><path id="path4202" d="m -412.14224,1025.088 24.51633,7.9482 -107.85391,34.4783 3.78807,-23.2336 z" style="fill:#faa;fill-rule:evenodd;stroke:#000;stroke-width:1px;stroke-linecap:butt;stroke-linejoin:miter;stroke-opacity:1"/><path id="path4190" d="m -484.77387,1000.002 c 0.25254,1.01 -7.67549,47.0569 -7.67549,47.0569 50.81033,-10.4051 101.21806,-22.8231 152.45906,-31.0749 z" style="fill:#ff8080;fill-rule:evenodd;stroke:#000;stroke-width:1px;stroke-linecap:butt;stroke-linejoin:miter;stroke-opacity:1"/><path id="path4184" d="m -491.08207,933.49067 5.74525,31.05136 c 89.86772,-3.84838 155.62931,-26.26893 206.77325,-35.21058 0.0859,-10.70938 2.92185,-20.44852 4.48704,-30.63108 -22.92366,13.7542 -119.55024,34.33984 -217.00554,34.7903 z" style="fill:#ff8080;fill-rule:evenodd;stroke:#000;stroke-width:1px;stroke-linecap:butt;stroke-linejoin:miter;stroke-opacity:1"/><path id="path4208" d="m -496.61624,901.09182 c 1.19642,0.78683 2.33588,1.58221 3.42503,2.38479 12.96257,3.8363 21.89955,8.94906 33.06673,14.03019 -10.62595,-5.75177 -19.40489,-11.73347 -32.27553,-16.42563 -1.38126,-0.0133 -2.78406,-0.01 -4.21623,0.0106 z" style="fill:#333;fill-opacity:1;fill-rule:evenodd;stroke:none;stroke-width:1px;stroke-linecap:butt;stroke-linejoin:miter;stroke-opacity:1"/><path id="path4212" d="m -296.41219,896.79761 c -0.8322,0.17045 -1.60648,0.29437 -2.34073,0.38686 -2.10567,1.73253 -3.50277,2.93398 -4.76822,4.39628 -1.55712,1.79933 -2.90644,3.9851 -5.32031,8.128 2.76893,-3.96434 4.40175,-5.84727 6.14991,-7.28031 1.39635,-1.14465 2.8984,-2.0282 5.20242,-3.51078 0.31295,-0.66997 0.67148,-1.37614 1.07693,-2.12005 z" style="fill:#333;fill-opacity:1;fill-rule:evenodd;stroke:none;stroke-width:1px;stroke-linecap:butt;stroke-linejoin:miter;stroke-opacity:1"/></g></g></svg>