<svg xmlns="http://www.w3.org/2000/svg" xmlns:svg="http://www.w3.org/2000/svg" id="svg4206" version="1.1" viewBox="0 0 256 256"><style id="style3">svg{cursor:default}</style><metadata id="metadata4211"/><g id="layer4"><g id="g4393" transform="matrix(1.1025,0,0,1.1025,-8.5689728,-9.7653484)"><path id="path4281" d="m 109.05266,26.9317 c 0,0 8.28956,34.866739 13.49439,34.461658 15.63272,-1.216663 18.52438,-33.786214 18.52438,-33.786214 -3.91917,-4.291814 -20.74031,-4.810177 -32.01877,-0.675444 z" style="fill:#f55;fill-rule:evenodd;stroke:#000;stroke-width:1px;stroke-linecap:butt;stroke-linejoin:miter;stroke-opacity:1"/><path id="path4271" d="M 121.42857,232.42857 C 99.505502,237.09639 82.380808,226.40369 70.892857,217.25 L 73.035714,114.75 65,123.85714 C 47.74898,115.95221 41.743803,109.92159 30.178571,102.96429 39.30894,83.766189 49.554939,69.204493 63.571428,49.584121 81.338561,39.138417 91.904763,34.630954 106.07143,27.785716 l 16.78571,29.642857 c 0,0 11.14891,69.348297 11.09836,75.540307 -0.42564,52.14132 -12.52693,99.45969 -12.52693,99.45969 z" style="fill:#ff8080;fill-rule:evenodd;stroke:#000;stroke-width:1px;stroke-linecap:butt;stroke-linejoin:miter;stroke-opacity:1"/><path id="path4279" d="m 109.91071,17.607144 c 7.55945,-3.452511 25.94764,-2.734655 28.30357,0.08929 l -0.0893,9.821428 C 128.05837,25.424132 120.027,26.26307 110.26784,28.232148 Z" style="fill:#ff8080;fill-rule:evenodd;stroke:#000;stroke-width:1px;stroke-linecap:butt;stroke-linejoin:miter;stroke-opacity:1"/><path id="path4273" d="m 120.53571,234.03571 c 1.16819,0.59735 44.05944,2.87206 54.10715,-20.17857 l -1.25,-99.82142 c 2.32935,3.94746 3.95295,10.18864 7.5,10.17857 15.62443,-7.16328 23.25513,-14.32656 34.8827,-21.48985 C 206.04545,89.981176 195.92097,69.182876 181.25,48.678573 168.98809,40.081756 156.72619,35.991662 144.46428,30.107144 c -2.0763,11.649213 -2.59473,14.170346 -18.35277,25.394498 -0.94008,0.669599 -0.59511,1.905885 -1.64722,2.641216 l -1.39169,3.034945 c 0,0 0.21643,10.157803 -0.12469,24.994645 -0.25868,11.251271 -1.06564,25.041552 -1.21974,40.007372 -0.23239,22.57029 0.21378,47.82617 -0.0382,64.99735 -0.20617,14.04808 -1.15423,42.85854 -1.15423,42.85854 z" style="fill:#ff8080;fill-rule:evenodd;stroke:#000;stroke-width:1px;stroke-linecap:butt;stroke-linejoin:miter;stroke-opacity:1"/><path id="path4275" d="m 146.51786,28.589287 c -2.5947,-3.409997 -5.13276,-6.744466 -8.21429,-10.803571 0.48207,23.085204 -1.15405,27.253037 -12.05357,36.428571 l 5.53571,-2.410714 5.71429,3.571428 c 7.52098,-7.001297 7.85416,-18.140465 9.01786,-26.785714 z" style="fill:#faa;fill-rule:evenodd;stroke:#000;stroke-width:1px;stroke-linecap:butt;stroke-linejoin:miter;stroke-opacity:1"/><path id="path4277" d="M 121.25,54.482144 C 116.64288,43.077911 111.16288,30.576941 110,17.607144 l -7.04088,7.746193 c -0.81574,13.50524 6.76343,19.907096 10.16588,29.843093 l 5.625,-3.839286 z" style="fill:#faa;fill-rule:evenodd;stroke:#000;stroke-width:1px;stroke-linecap:butt;stroke-linejoin:miter;stroke-opacity:1"/><path id="path4283" d="m 73.10979,115.84134 c 0.189404,-5.68211 1.136422,-30.935926 1.136422,-30.935926" style="fill:none;fill-rule:evenodd;stroke:#000;stroke-width:1px;stroke-linecap:butt;stroke-linejoin:miter;stroke-opacity:1"/><path id="path4285" d="m 173.43057,114.89432 c -0.31606,-3.27389 0.69254,-21.182295 0.69447,-25.064413" style="fill:none;fill-rule:evenodd;stroke:#000;stroke-width:1px;stroke-linecap:butt;stroke-linejoin:miter;stroke-opacity:1"/><ellipse id="path4293" cx="124.976" cy="121.591" rx="1.964" ry="1.92" style="fill:#e6e6e6;fill-opacity:1;stroke:#000;stroke-width:.5;stroke-miterlimit:4;stroke-dasharray:none;stroke-dashoffset:0"/><path id="path4301" d="m 120.82973,36.158767 0.0631,-3.462337 8.48214,0.267857 0.54205,3.098849 z" style="fill:#ccc;fill-rule:evenodd;stroke:#000;stroke-width:.5;stroke-linecap:butt;stroke-linejoin:miter;stroke-miterlimit:4;stroke-dasharray:none;stroke-opacity:1"/><path id="path4303" d="m 63.253921,49.600537 c 3.896219,2.987274 5.294786,6.841093 6.031793,11.667321 -0.396819,-4.788531 -1.463757,-8.99063 -5.396779,-12.439821 z" style="fill:#000;fill-rule:evenodd;stroke:none;stroke-width:1px;stroke-linecap:butt;stroke-linejoin:miter;stroke-opacity:1"/><path id="path4312" d="m 183.51859,52.22301 c -0.16487,6.135464 -0.52818,12.321315 -1.37573,18.419848 1.17752,-6.050753 1.87504,-12.220237 2.37427,-18.365866 z" style="fill:#000;fill-rule:evenodd;stroke:none;stroke-width:1px;stroke-linecap:butt;stroke-linejoin:miter;stroke-opacity:1"/><path id="path4324" d="m 145.17857,37.69643 -0.1909,0.462123 c 7.13733,2.769778 14.66049,4.896331 21.79804,7.573591 -7.15292,-3.042425 -14.32672,-5.387131 -21.41624,-8.497837 l -0.1909,0.462123 z" style="fill:#000;fill-rule:evenodd;stroke:none;stroke-width:1px;stroke-linecap:butt;stroke-linejoin:miter;stroke-opacity:1"/><path id="path4328" d="m 103.10872,35.628817 c -9.11212,4.036691 -18.393881,7.964321 -28.019435,10.639041 9.72416,-2.355943 19.143077,-5.978215 28.409135,-9.718101 z" style="fill:#000;fill-rule:evenodd;stroke:none;stroke-width:1px;stroke-linecap:butt;stroke-linejoin:miter;stroke-opacity:1"/><path id="path4332" d="m 175.88341,212.85784 c -8.57266,-9.15153 -17.69613,-17.93524 -23.22411,-29.33628 5.24533,11.58341 14.15241,20.62689 22.48529,30.01018 z" style="fill:#000;fill-rule:evenodd;stroke:none;stroke-width:1px;stroke-linecap:butt;stroke-linejoin:miter;stroke-opacity:1"/><path id="path4336" d="m 174.81277,215.25473 c -6.57517,-2.40128 -13.37873,-4.02466 -20.25943,-5.0904 6.82786,1.39491 13.50696,3.33571 19.89413,6.02128 z" style="fill:#000;fill-rule:evenodd;stroke:none;stroke-width:1px;stroke-linecap:butt;stroke-linejoin:miter;stroke-opacity:1"/><path id="path4344" d="m 71.483039,216.28112 c 6.695771,-8.81405 10.475328,-19.68154 13.117236,-30.23418 -2.975687,10.51064 -7.050772,21.14237 -13.904344,29.61736 z" style="fill:#000;fill-rule:evenodd;stroke:none;stroke-width:1px;stroke-linecap:butt;stroke-linejoin:miter;stroke-opacity:1"/><ellipse id="path4293-3" cx="125.006" cy="149.681" rx="1.964" ry="1.92" style="fill:#e6e6e6;fill-opacity:1;stroke:#000;stroke-width:.5;stroke-miterlimit:4;stroke-dasharray:none;stroke-dashoffset:0"/><ellipse id="path4293-7" cx="124.88" cy="175.188" rx="1.964" ry="1.92" style="fill:#e6e6e6;fill-opacity:1;stroke:#000;stroke-width:.5;stroke-miterlimit:4;stroke-dasharray:none;stroke-dashoffset:0"/><ellipse id="path4293-1" cx="124.628" cy="203.851" rx="1.964" ry="1.92" style="fill:#e6e6e6;fill-opacity:1;stroke:#000;stroke-width:.5;stroke-miterlimit:4;stroke-dasharray:none;stroke-dashoffset:0"/><ellipse id="path4293-12" cx="125.638" cy="94.376" rx="1.964" ry="1.92" style="fill:#e6e6e6;fill-opacity:1;stroke:#000;stroke-width:.5;stroke-miterlimit:4;stroke-dasharray:none;stroke-dashoffset:0"/><ellipse id="path4293-14" cx="126.395" cy="68.364" rx="1.964" ry="1.92" style="fill:#e6e6e6;fill-opacity:1;stroke:#000;stroke-width:.5;stroke-miterlimit:4;stroke-dasharray:none;stroke-dashoffset:0"/><ellipse id="path4293-9" cx="118.541" cy="-60.804" rx="2.069" ry="1.14" transform="matrix(0.60647316,0.79510396,-0.79510396,0.60647316,0,0)" style="fill:#e6e6e6;fill-opacity:1;stroke:#000;stroke-width:.79095775;stroke-miterlimit:4;stroke-dasharray:none;stroke-dashoffset:0"/></g></g></svg>