<svg xmlns="http://www.w3.org/2000/svg" xmlns:svg="http://www.w3.org/2000/svg" xmlns:xlink="http://www.w3.org/1999/xlink" id="svg4206" version="1.1" viewBox="0 0 256 256"><style id="style3">svg{cursor:default}</style><defs id="defs4208"><linearGradient id="linearGradient0"><stop style="stop-color:#ffd5d5;stop-opacity:1" id="stop4461" offset="0"/><stop id="stop4467" offset=".522" style="stop-color:#faa;stop-opacity:1"/><stop style="stop-color:#ff8080;stop-opacity:1" id="stop4463" offset="1"/></linearGradient><linearGradient id="linearGradient1" x1="123.568" x2="117.885" y1="31.842" y2="238.371" gradientTransform="matrix(1.1025,0,0,1.1025,-12.905595,-16.8387)" gradientUnits="userSpaceOnUse" xlink:href="#linearGradient0"/></defs><metadata id="metadata4211"/><g id="layer4"><path style="fill:#f55;fill-rule:evenodd;stroke:#000;stroke-width:1.10249996px;stroke-linecap:butt;stroke-linejoin:miter;stroke-opacity:1" id="path4387" d="m 109.74548,7.168856 c 7.42011,-0.9959445 34.36501,0.2287544 37.70071,1.3900684 0.87096,7.0959126 -39.34169,8.9004226 -37.70071,-1.3900684 z"/><path style="fill:url(#linearGradient1);fill-opacity:1;fill-rule:evenodd;stroke:#000;stroke-width:1.10249996px;stroke-linecap:butt;stroke-linejoin:miter;stroke-opacity:1" id="path4373" d="m 102.91849,243.40586 c 4.58229,-1.11378 9.77607,-1.684 12.80748,-4.17634 2.06159,-0.99382 4.66492,-0.61387 6.54295,-0.13922 -0.64699,5.36847 7.63529,1.90388 12.1114,2.64502 10.19017,-0.72369 18.14213,2.1897 27.00706,3.6195 1.36385,1.29931 1.69853,2.59862 0.83528,3.89793 4.31237,4.38342 10.93087,2.83681 16.42697,4.17635 3.62435,-2.98681 6.24503,-2.46075 9.18798,-3.06266 l 0,2.50581 c 1.10375,4.33054 12.76382,-4.0399 18.09751,-5.01161 -2.01365,-4.82601 -3.94204,-9.65202 -6.12531,-14.47802 -2.33948,-10.30942 -6.50376,-20.09745 -10.02325,-30.06971 -9.00924,-24.37553 -13.57569,-40.63968 -14.75643,-51.78674 -2.88903,-27.27452 1.48492,-29.14164 2.22739,-43.71246 9.49439,43.39083 16.2685,84.96814 23.66598,126.96103 10.42346,0.33641 20.10743,-0.80618 28.95601,-3.6195 -6.64365,-28.12076 -9.74669,-56.2272 -14.19958,-84.36227 C 206.71818,90.169175 203.90728,75.512732 195.73045,41.647408 192.38007,27.771434 171.11949,29.502299 155.6148,18.384823 l -54.85409,-1.05868 c 0,0 -14.773662,8.900722 -23.457158,10.232057 -18.756099,2.875646 -20.186369,10.101404 -23.109133,19.00239 -8.372889,25.498802 -9.008747,52.91543 -13.642741,79.35063 -6.104352,34.82305 -18.654361,104.40874 -18.654361,104.40874 8.855398,4.64429 18.054014,3.1766 27.706022,5.03276 6.139268,-45.52675 15.726541,-83.92377 22.967018,-126.14688 2.448189,7.83159 5.131987,10.9373 3.897926,32.29709 -0.919757,15.91965 -3.415063,29.95363 -8.631122,47.05354 -2.166988,7.10408 -14.935872,37.59232 -22.273864,58.74731 4.210281,5.47413 12.00551,6.26023 18.375938,8.90955 -0.337841,-1.67054 -0.121788,-3.34107 0.278423,-5.01161 11.883893,4.99988 22.160961,-0.81774 30.069715,-3.34108 3.956176,0.19351 9.190537,0.58263 8.631117,-4.45478 z"/><path style="fill:none;fill-rule:evenodd;stroke:#000;stroke-width:.55124998;stroke-linecap:butt;stroke-linejoin:miter;stroke-miterlimit:4;stroke-dasharray:none;stroke-opacity:1" id="path4375" d="m 75.786593,152.49348 c 8.572363,-0.94562 14.75235,-3.42056 21.557812,-5.8078 10.729775,-3.76383 43.860705,-5.74445 56.503125,-0.59063 6.72127,2.73999 21.06562,5.5125 21.06562,5.5125"/><path style="fill:none;fill-rule:evenodd;stroke:#000;stroke-width:1.10249996px;stroke-linecap:butt;stroke-linejoin:miter;stroke-opacity:1" id="path4377" d="m 72.488936,109.96849 c 0.24717,-8.08396 -5.561207,-14.224113 -9.007031,-26.282815"/><path style="fill:none;fill-rule:evenodd;stroke:#000;stroke-width:1.10249996px;stroke-linecap:butt;stroke-linejoin:miter;stroke-opacity:1" id="path4379" d="m 177.27668,109.24565 c -0.57125,-5.70961 7.99306,-17.34889 9.44898,-25.953726"/><path style="fill:none;fill-rule:evenodd;stroke:#000;stroke-width:.55124998;stroke-linecap:butt;stroke-linejoin:miter;stroke-miterlimit:4;stroke-dasharray:none;stroke-opacity:1" id="path4381" d="m 203.92441,79.272876 c -5.74243,2.595166 -9.85058,7.131054 -18.03402,7.958597"/><path style="fill:none;fill-rule:evenodd;stroke:#000;stroke-width:.55124998;stroke-linecap:butt;stroke-linejoin:miter;stroke-miterlimit:4;stroke-dasharray:none;stroke-opacity:1" id="path4383" d="m 46.942356,79.064058 c 6.074008,3.320377 9.466059,7.236743 18.222031,9.961127"/><path style="fill:#faa;fill-rule:evenodd;stroke:#000;stroke-width:1.10249996px;stroke-linecap:butt;stroke-linejoin:miter;stroke-opacity:1" id="path4385" d="m 96.002108,19.597916 c 7.510092,-5.031077 9.871832,-8.495263 13.351672,-12.2997412 4.95699,2.6221045 18.045,9.8723522 38.39063,1.378125 4.08399,4.0490672 8.16798,8.1068142 12.25197,11.9755962 -12.35049,7.331476 -28.85815,18.246446 -63.994272,-1.05398 z"/><path style="fill:#000;fill-rule:evenodd;stroke:none;stroke-width:1px;stroke-linecap:butt;stroke-linejoin:miter;stroke-opacity:1" id="path4389" d="m 102.11882,145.50688 c 1.93463,-12.98468 -2.733944,-26.18291 -2.819826,-38.94607 -0.08709,12.94221 4.413396,25.90334 2.307106,38.86625 z"/><path style="fill:#000;fill-rule:evenodd;stroke:none;stroke-width:1px;stroke-linecap:butt;stroke-linejoin:miter;stroke-opacity:1" id="path4394" d="m 154.06683,146.2038 c 0.0842,-0.02 0.16845,-0.0399 0.25268,-0.0598 -1.18687,-10.13722 0.36083,-20.52494 3.866,-30.11679 -3.66377,9.52555 -5.40376,19.93057 -4.37833,30.17241 0.0866,0.001 0.1731,0.003 0.25965,0.004 z"/><path style="fill:#000;fill-rule:evenodd;stroke:none;stroke-width:1px;stroke-linecap:butt;stroke-linejoin:miter;stroke-opacity:1" id="path4403" d="m 64.705228,251.37601 c 0.04702,-12.11532 0.02009,-23.83988 3.107927,-35.58721 -3.451412,11.68295 -3.795145,23.42504 -4.210227,35.56623 z"/><path style="fill:#000;fill-rule:evenodd;stroke:none;stroke-width:1px;stroke-linecap:butt;stroke-linejoin:miter;stroke-opacity:1" id="path4407" d="m 95.325039,247.47336 c -2.553836,-11.53666 -3.313101,-23.36313 -2.508759,-35.22831 -1.170185,11.83 -0.787104,23.73198 1.428743,35.44983 z"/><path style="fill:#000;fill-rule:evenodd;stroke:none;stroke-width:1px;stroke-linecap:butt;stroke-linejoin:miter;stroke-opacity:1" id="path4411" d="m 103.48913,242.91831 c -6.073814,-22.81224 -5.763825,-46.43377 -5.947852,-69.94983 -0.183473,23.44529 -0.870588,47.19352 4.880292,70.22517 z"/><path style="fill:#000;fill-rule:evenodd;stroke:none;stroke-width:1px;stroke-linecap:butt;stroke-linejoin:miter;stroke-opacity:1" id="path4415" d="m 116.37468,238.87763 c -3.63278,-27.76609 3.57475,-55.56717 0.8541,-83.43101 2.27179,26.98552 -5.13824,56.38426 -1.94822,83.56675 z"/><path style="fill:#000;fill-rule:evenodd;stroke:none;stroke-width:1px;stroke-linecap:butt;stroke-linejoin:miter;stroke-opacity:1" id="path4419" d="m 135.04953,241.70269 c -1.68718,-15.91615 1.95275,-41.275 1.76831,-62.33576 -0.18293,20.88818 -4.19057,46.45481 -2.86593,62.4393 z"/><path style="fill:#000;fill-rule:evenodd;stroke:none;stroke-width:1px;stroke-linecap:butt;stroke-linejoin:miter;stroke-opacity:1" id="path4423" d="m 157.54651,244.09036 c 2.32134,-27.5001 -3.15983,-55.42899 -2.4193,-83.13124 -1.11783,27.99025 4.01714,55.47154 1.32134,83.03124 z"/><path style="fill:#000;fill-rule:evenodd;stroke:none;stroke-width:1px;stroke-linecap:butt;stroke-linejoin:miter;stroke-opacity:1" id="path4428" d="m 176.98034,246.00911 0.55032,-0.032 c -1.93917,-30.16554 -4.26677,-60.76039 -11.28001,-90.3336 6.65042,29.63536 8.60879,60.24011 10.17937,90.39764 l 0.55032,-0.032 z"/><path style="fill:#000;fill-rule:evenodd;stroke:none;stroke-width:1px;stroke-linecap:butt;stroke-linejoin:miter;stroke-opacity:1" id="path4432" d="m 187.71003,249.84818 0.53583,0.12945 c 3.88976,-16.88162 0.62462,-34.76569 -3.48896,-51.12008 3.77484,16.51768 6.61028,34.28936 2.4173,50.86118 l 0.53583,0.12945 z"/><path style="fill:#000;fill-rule:evenodd;stroke:none;stroke-width:1px;stroke-linecap:butt;stroke-linejoin:miter;stroke-opacity:1" id="path4436" d="m 178.78714,253.45484 c 3.45762,-11.92243 2.46898,-23.72251 0.16196,-35.59885 1.95473,11.99415 2.52927,23.66904 -1.21618,35.27615 z"/><path style="fill:none;fill-rule:evenodd;stroke:#000;stroke-width:1.10249996px;stroke-linecap:butt;stroke-linejoin:miter;stroke-opacity:1" id="path4440" d="m 161.42722,245.22161 c 4.16665,2.70549 12.92627,1.30488 15.89766,0.34454"/><path style="fill:#000;fill-rule:evenodd;stroke:none;stroke-width:1px;stroke-linecap:butt;stroke-linejoin:miter;stroke-opacity:1" id="path4442" d="m 122.74978,239.04999 c 0.43053,-11.54192 -0.0885,-23.079 -0.27205,-34.62339 -0.184,11.57549 -0.0329,23.07169 -0.82889,34.56479 z"/><path style="fill:#000;fill-rule:evenodd;stroke:none;stroke-width:1px;stroke-linecap:butt;stroke-linejoin:miter;stroke-opacity:1" id="path4451" d="m 85.158303,150.82545 c -0.311322,-6.80689 0.198446,-11.09577 -1.683725,-17.60362 1.689607,6.53533 0.986083,10.79169 1.105057,17.62186 z"/><path style="fill:#000;fill-rule:evenodd;stroke:none;stroke-width:1px;stroke-linecap:butt;stroke-linejoin:miter;stroke-opacity:1" id="path4455" d="m 167.25345,150.00373 c 0.107,-0.004 0.214,-0.008 0.321,-0.0114 -0.14835,-6.00146 0.27357,-10.58979 0.85445,-12.72992 -0.79288,2.10059 -1.43127,6.68415 -1.49657,12.73435 0.10704,0.002 0.21408,0.005 0.32112,0.007 z"/></g></svg>