<svg xmlns="http://www.w3.org/2000/svg" xmlns:svg="http://www.w3.org/2000/svg" id="svg4206" version="1.1" viewBox="0 0 256 256"><style id="style3">svg{cursor:default}</style><metadata id="metadata4211"/><g id="layer4"><path style="fill:#f55;fill-rule:evenodd;stroke:#000;stroke-width:1.13447249px;stroke-linecap:butt;stroke-linejoin:miter;stroke-opacity:1" id="path4326" d="m 87.60456,24.998792 c 0.193813,-1.388561 18.82266,-0.842493 38.80068,-0.256346 19.08102,0.559829 46.98484,-1.504015 47.02272,1.713099 3.07985,7.114697 -52.69136,48.892838 -85.8234,-1.456753 z"/><path style="fill:#ff8080;fill-rule:evenodd;stroke:#000;stroke-width:1.13447249px;stroke-linecap:butt;stroke-linejoin:miter;stroke-opacity:1" id="path4322" d="m 31.540042,63.950916 c 10.522299,33.671711 13.309517,69.317104 8.308422,109.155584 3.203445,15.75934 6.622653,33.71079 6.116065,52.39163 44.359169,5.32904 117.760781,9.164 172.324221,0.94537 1.48709,-50.05194 2.67813,-49.49169 4.48842,-65.08341 -0.62076,-21.10531 2.79446,-58.35336 13.75187,-96.263176 C 218.80182,59.054737 200.64274,52.131857 181.37826,36.447151 149.86088,48.971919 114.3977,58.430992 82.250111,32.722689 64.628577,46.004798 63.776849,50.075137 31.540042,63.950916 Z"/><path style="fill:none;fill-rule:evenodd;stroke:#000;stroke-width:.56723624;stroke-linecap:butt;stroke-linejoin:miter;stroke-miterlimit:4;stroke-dasharray:none;stroke-opacity:1" id="path4332" d="m 131.21112,24.98038 c 0,0.118733 -0.11564,5.111115 0.0329,12.508919 0.11067,5.51601 1.47656,14.058123 1.65088,22.387885 0.4333,20.704667 0.86567,48.729166 1.2401,75.459816 0.35218,25.14202 -0.33176,74.07441 -0.12955,91.04214"/><path style="fill:#faa;fill-rule:evenodd;stroke:#000;stroke-width:1.13447249px;stroke-linecap:butt;stroke-linejoin:miter;stroke-opacity:1" id="path4324" d="m 87.335441,25.416992 c -5.027778,8.064 -9.545463,9.89606 -14.539751,14.468132 57.09787,38.297829 99.65751,11.194475 115.60896,2.073509 -9.23241,-6.486596 -10.64786,-9.390743 -14.6902,-15.252392 -3.83969,5.331737 -23.56829,13.306999 -44.25582,13.760878 C 113.20405,40.82373 96.110764,35.961448 87.335441,25.416992 Z"/><path style="fill:none;fill-rule:evenodd;stroke:#000;stroke-width:.56723624;stroke-linecap:butt;stroke-linejoin:miter;stroke-miterlimit:4;stroke-dasharray:none;stroke-opacity:1" id="path4334" d="M 40.567777,177.32656 C 53.477245,121.82698 42.242949,80.801315 37.04415,62.215434"/><path style="fill:none;fill-rule:evenodd;stroke:#000;stroke-width:.56723624;stroke-linecap:butt;stroke-linejoin:miter;stroke-miterlimit:4;stroke-dasharray:none;stroke-opacity:1" id="path4336" d="M 230.41813,63.347037 C 218.42636,97.391092 215.6968,147.47689 222.04688,168.43916"/><path style="fill:none;fill-rule:evenodd;stroke:#000;stroke-width:.57881248;stroke-linecap:butt;stroke-linejoin:miter;stroke-miterlimit:4;stroke-dasharray:none;stroke-opacity:1" id="path4342" d="m 46.395761,221.75723 c 56.142539,6.02966 124.906479,5.9667 171.989999,0.31008"/></g></svg>