<svg xmlns="http://www.w3.org/2000/svg" xmlns:svg="http://www.w3.org/2000/svg" id="svg4206" version="1.1" viewBox="0 0 256 256"><style id="style3">svg{cursor:default}</style><metadata id="metadata4211"/><g id="layer4"><path style="fill:#ff8080;fill-rule:evenodd;stroke:#000;stroke-width:1px;stroke-linecap:butt;stroke-linejoin:miter;stroke-opacity:1" id="path4618" d="m 94.565901,8.6855115 c 0.763077,-1.902911 4.757736,-2.877478 13.783999,-4.0736 6.27124,-0.831038 17.15738,-1.9630285 24.7995,-1.932731 9.81503,0.038912 17.46486,1.112826 25.49729,2.065078 9.02969,1.070479 17.01427,1.789995 17.68806,2.347843 l 2.90419,8.1759225 -84.789678,1.830901 z"/><path style="fill:#ff8080;fill-rule:evenodd;stroke:#000;stroke-width:1px;stroke-linecap:butt;stroke-linejoin:miter;stroke-opacity:1" id="path4612" d="m 185.11045,232.26142 c -37.55173,-0.71303 -44.07153,-9.58597 -113.762082,-2.37745 l -1.395305,-18.58322 c 0.719325,10.2222 0.197327,19.14665 -2.777919,25.50635 -1.367915,5.32435 -0.761795,12.90473 -4.103745,15.97304 -3.975047,1.8482 -23.75963,-1.66254 -24.938141,-3.21987 -1.125339,-6.93371 -1.178511,-12.16391 -1.767767,-18.56154 -0.282477,-36.6511 2.979641,-76.94942 11.123471,-109.06328 7.806848,-30.785034 12.508696,-60.062522 26.504711,-85.138551 0.83563,-1.328976 12.192935,-7.543016 18.94036,-11.616754 21.741707,8.820335 63.818457,2.489131 78.539357,0 9.67853,7.482484 15.45243,-2.690768 29.04189,22.475894 9.53435,25.484015 13.97461,69.546611 17.17718,113.061481 1.86277,25.31029 4.60654,49.72632 4.28856,72.04897 -1.34906,4.87802 -2.34168,10.46892 -2.0203,18.68783 -4.73019,1.90598 -15.09297,3.78092 -26.26397,0.50507 -0.83853,-6.04634 -0.14572,-11.83746 -2.77792,-18.18274 l -2.02031,-27.7792 -2.0203,7.82868 z"/><path style="fill:#f55;fill-rule:evenodd;stroke:#000;stroke-width:1px;stroke-linecap:butt;stroke-linejoin:miter;stroke-opacity:1" id="path4622" d="m 110.6117,27.20045 c 8.79917,-1.408097 35.77164,-8.961197 55.44187,-0.953364 -8.83101,7.572664 4.06939,0.427404 -31.07008,19.692719 C 123.66363,38.199602 116.91515,38.371119 110.6117,27.20045 Z"/><path style="fill:#ff2a2a;fill-rule:evenodd;stroke:#000;stroke-width:1px;stroke-linecap:butt;stroke-linejoin:miter;stroke-opacity:1" id="path4684" d="m 108.23704,35.416152 c 13.56391,12.853603 33.80516,12.093116 51.33929,-2.142857 2.1858,-2.779324 -47.19436,-1.886177 -51.33929,2.142857 z"/><path style="fill:#ffd5d5;fill-rule:evenodd;stroke:#000;stroke-width:1px;stroke-linecap:butt;stroke-linejoin:miter;stroke-opacity:1" id="path4620" d="M 95.711953,21.518342 C 96.34401,18.5602 102.49669,9.0292765 107.45498,9.2702425 c 33.99525,1.6521235 34.73062,-0.392548 51.39151,-0.883884 5.99567,-0.176815 12.27047,7.1292985 17.36199,10.2909295 L 154.1114,38.059589 c 0.28792,-4.294843 1.35608,-7.984081 0.30035,-11.681748 -20.27966,3.641588 -27.03814,1.148494 -40.21221,2.579543 l 4.11458,11.12251 z"/><path style="fill:#faa;fill-rule:evenodd;stroke:#000;stroke-width:1px;stroke-linecap:butt;stroke-linejoin:miter;stroke-opacity:1" id="path4614" d="M 136.24432,45.888271 C 132.41111,43.101859 113.39417,29.742951 102.3383,21.180096 99.958163,19.336663 94.804991,12.424986 94.575531,8.6388975 93.134944,12.60648 91.450802,18.575117 89.565443,22.137801 c -2.194176,4.146242 -4.504251,5.660341 -4.586361,6.704146 -0.220798,2.806846 21.795018,9.024583 32.829958,13.384522 0,0 8.33376,4.798224 8.83883,4.798224 0.50508,0 9.59645,-1.136422 9.59645,-1.136422 z"/><path style="fill:#faa;fill-rule:evenodd;stroke:#000;stroke-width:1px;stroke-linecap:butt;stroke-linejoin:miter;stroke-opacity:1" id="path4616" d="m 132.96133,46.330213 c 0,0 14.83012,-0.993375 17.86707,-1.578363 5.01257,-0.965537 29.7995,-13.447656 29.7995,-13.447656 1.23037,-1.715911 3.44296,-3.889112 3.59867,-5.177032 0.20892,-1.727983 -3.3089,-11.97153 -7.95495,-19.1297625 0.90493,7.1131575 -0.53317,13.6492835 -43.31029,39.3328135 z"/><path style="fill:#fff;fill-rule:evenodd;stroke:#000;stroke-width:.5;stroke-linecap:butt;stroke-linejoin:miter;stroke-miterlimit:4;stroke-dasharray:none;stroke-opacity:1" id="path4652" d="m 123.49115,92.418423 0.1894,5.303306 1.51523,-0.12627 -0.31567,-5.429574 z"/><ellipse style="fill:#ff2a2a;fill-opacity:1;stroke:#000;stroke-width:.5;stroke-miterlimit:4;stroke-dasharray:none;stroke-dashoffset:0" id="path4656" cx="122.834" cy="41.953" rx="1.842" ry="1.645"/><path style="fill:#e6e6e6;fill-rule:evenodd;stroke:#000;stroke-width:.5;stroke-linecap:butt;stroke-linejoin:miter;stroke-miterlimit:4;stroke-dasharray:none;stroke-opacity:1" id="path4624" d="m 121.36624,41.66909 c 3.24921,6.827143 3.3898,15.243415 2.84726,24.156018 -0.5483,9.007266 -1.43899,18.698453 -1.22743,27.287796 l 2.52538,0.126268 c -0.32526,-8.477224 0.0954,-18.108569 0.59853,-26.978216 0.53862,-9.494234 0.81585,-18.291757 -2.86437,-25.787592 -0.65421,-0.240331 -1.77533,-0.167507 -1.87937,1.195726 z"/><path style="fill:#f9f9f9;fill-rule:evenodd;stroke:#000;stroke-width:.47609812;stroke-linecap:butt;stroke-linejoin:miter;stroke-miterlimit:4;stroke-dasharray:none;stroke-opacity:1" id="path4654" d="m 145.00847,92.974311 0.057,5.896348 1.48203,-0.19021 -0.228,-5.769545 z"/><ellipse style="fill:#ff2a2a;fill-opacity:1;stroke:#000;stroke-width:.5;stroke-miterlimit:4;stroke-dasharray:none;stroke-dashoffset:0" id="path4658" cx="146.518" cy="43.608" rx="1.614" ry="1.049"/><path style="fill:#e6e6e6;fill-rule:evenodd;stroke:#000;stroke-width:.5;stroke-linecap:butt;stroke-linejoin:miter;stroke-miterlimit:4;stroke-dasharray:none;stroke-opacity:1" id="path4626" d="m 145.9224,42.738547 c -1.57837,1.325825 -1.21805,52.394661 -1.21805,52.394661 l 1.95717,-0.25254 c 0.0421,-17.25677 -0.34024,-34.954642 0.74678,-52.04649 -0.46377,-0.284082 -0.96265,-0.287382 -1.4859,-0.09563 z"/><path style="fill:#ff8080;fill-rule:evenodd;stroke:#000;stroke-width:1px;stroke-linecap:butt;stroke-linejoin:miter;stroke-opacity:1" id="path4630" d="m 173.24116,211.42702 c 0.40745,-1.8537 3.26194,-13.32133 6.06092,-20.07678 -4.62223,-12.21938 -10.03078,-22.52209 -12.12184,-40.91118 -17.72306,-2.99028 -42.88614,-6.45675 -67.17514,-1.76777 -2.485491,14.2529 -1.892428,24.5124 -14.142134,41.28999 l 3.788072,19.44543"/><path style="fill:none;fill-rule:evenodd;stroke:#000;stroke-width:1px;stroke-linecap:butt;stroke-linejoin:miter;stroke-opacity:1" id="path4628" d="m 69.953063,211.17448 c 55.736787,-6.66679 116.977667,1.8436 116.546347,1.89404"/><path style="fill:none;fill-rule:evenodd;stroke:#000;stroke-width:1px;stroke-linecap:butt;stroke-linejoin:miter;stroke-opacity:1" id="path4632" d="m 69.953063,211.58485 c -1.857371,-14.3895 0.603141,-30.44197 1.585227,-47.43431 2.075946,-35.91863 8.393509,-66.967972 8.390029,-112.580161"/><path style="fill:none;fill-rule:evenodd;stroke:#000;stroke-width:1px;stroke-linecap:butt;stroke-linejoin:miter;stroke-opacity:1" id="path4634" d="m 188.26718,59.272793 c 0,0 1.95636,21.243476 2.61444,47.105737 0.55093,21.65134 -0.18577,46.69092 -0.11264,63.76131 0.0499,11.65791 -1.87046,36.48896 -1.87046,36.48896"/><path style="fill:#000;fill-rule:evenodd;stroke:none;stroke-width:1px;stroke-linecap:butt;stroke-linejoin:miter;stroke-opacity:1" id="path4636" d="M 79.869134,75.030391 C 79.159473,71.323864 78.92003,66.50888 78.639468,61.745925 c -0.279916,-4.752 -0.599634,-9.407327 -1.473858,-12.758344 0.709038,3.376546 0.861268,8.029625 0.974285,12.778998 0.112701,4.736106 0.186104,9.626532 0.743147,13.430008 z"/><path style="fill:none;fill-rule:evenodd;stroke:#000;stroke-width:1px;stroke-linecap:butt;stroke-linejoin:miter;stroke-opacity:1" id="path4648" d="m 36.362038,231.57687 c 9.575052,0.8798 17.526202,0.49657 31.071429,4.46428"/><path style="fill:none;fill-rule:evenodd;stroke:#000;stroke-width:1px;stroke-linecap:butt;stroke-linejoin:miter;stroke-opacity:1" id="path4650" d="m 190.82632,233.8983 c 15.42907,2.86936 21.5238,-0.006 31.42857,-0.53572"/><path style="fill:#000;fill-rule:evenodd;stroke:none;stroke-width:1px;stroke-linecap:butt;stroke-linejoin:miter;stroke-opacity:1" id="path4660" d="m 154.30978,26.197413 0.47031,-0.16972 c -1.29046,-3.093079 -4.37865,-7.582826 -6.54021,-9.938921 1.91513,2.580119 4.67076,7.206592 5.59959,10.278361 l 0.47031,-0.16972 z"/><path style="fill:#000;fill-rule:evenodd;stroke:none;stroke-width:1px;stroke-linecap:butt;stroke-linejoin:miter;stroke-opacity:1" id="path4664" d="m 114.68654,29.255385 c -0.68055,-1.940273 -2.25363,-3.811845 -3.86493,-5.516378 -1.63061,-1.724963 -3.37414,-3.349236 -4.50306,-4.809181 0.99841,1.56388 2.63244,3.316492 4.12699,5.137702 1.51237,1.842944 2.82641,3.695811 3.28494,5.480999 z"/><path style="fill:#000;fill-rule:evenodd;stroke:none;stroke-width:1px;stroke-linecap:butt;stroke-linejoin:miter;stroke-opacity:1" id="path4668" d="m 112.37249,25.531355 c 1.78734,-1.646277 2.24757,-3.82331 2.28147,-5.991954 0.0337,-2.154691 -0.36168,-4.492905 -0.44359,-6.481087 -0.0848,2.059387 0.14488,4.302372 -0.0557,6.454256 -0.19932,2.138552 -0.81715,3.980461 -2.43393,5.260345 z"/><path style="fill:#000;fill-rule:evenodd;stroke:none;stroke-width:1px;stroke-linecap:butt;stroke-linejoin:miter;stroke-opacity:1" id="path4672" d="m 171.68908,18.415607 c -1.842,-0.69504 -3.63968,-1.261142 -5.58212,-1.506086 1.85473,0.567137 3.50121,1.435729 5.15074,2.408256 z"/><path style="fill:#000;fill-rule:evenodd;stroke:none;stroke-width:1px;stroke-linecap:butt;stroke-linejoin:miter;stroke-opacity:1" id="path4676" d="m 148.0325,9.5744793 c 2.04681,2.3947587 4.31953,3.7415827 7.15218,4.8096607 -2.71804,-1.382077 -4.69041,-2.969033 -6.3586,-5.4181343 z"/><path style="fill:#000;fill-rule:evenodd;stroke:none;stroke-width:1px;stroke-linecap:butt;stroke-linejoin:miter;stroke-opacity:1" id="path4680" d="m 106.3746,9.0146436 c -1.07003,1.0139274 -1.7798,2.0055154 -2.112,3.1017904 -0.32961,1.087721 -0.276,2.240203 0.0988,3.593531 -0.21503,-1.403608 -0.0775,-2.489861 0.36781,-3.413828 0.44018,-0.913398 1.19735,-1.701972 2.29093,-2.5177576 z"/><path style="fill:#000;fill-rule:evenodd;stroke:none;stroke-width:1px;stroke-linecap:butt;stroke-linejoin:miter;stroke-opacity:1" id="path4686" d="m 37.744519,192.93497 c 1.339971,-10.74405 3.890059,-17.56372 7.964883,-27.59616 -4.367884,9.86963 -7.269508,16.64858 -8.955173,27.45714 z"/><path style="fill:#000;fill-rule:evenodd;stroke:none;stroke-width:1px;stroke-linecap:butt;stroke-linejoin:miter;stroke-opacity:1" id="path4690" d="m 219.17932,172.02187 c -2.41094,-7.9499 -4.6739,-15.91642 -8.05744,-23.60311 3.06911,7.79873 5.0064,15.83965 7.09484,23.87405 z"/><path style="fill:#000;fill-rule:evenodd;stroke:none;stroke-width:1px;stroke-linecap:butt;stroke-linejoin:miter;stroke-opacity:1" id="path4718" d="m 71.620362,169.88981 c -0.961215,-15.10048 -3.773355,-29.81587 -3.940142,-44.9571 -0.166545,15.11926 2.318679,29.99622 2.941522,45.00962 z"/><path style="fill:#000;fill-rule:evenodd;stroke:none;stroke-width:1px;stroke-linecap:butt;stroke-linejoin:miter;stroke-opacity:1" id="path4722" d="m 189.80887,201.0784 c -0.0913,-7.07232 3.71941,-14.03911 6.91834,-20.33476 -3.43083,6.02328 -7.67366,13.02289 -7.91828,20.32388 z"/><path style="fill:#000;fill-rule:evenodd;stroke:none;stroke-width:1px;stroke-linecap:butt;stroke-linejoin:miter;stroke-opacity:1" id="path4726" d="m 190.91883,112.55834 0.4987,0.036 c 0.79748,-13.349118 1.68833,-26.708993 1.5216,-40.189604 -0.1666,13.470579 -1.38945,26.79798 -2.519,40.117524 l 0.4987,0.036 z"/><path style="fill:#faa;fill-rule:evenodd;stroke:#000;stroke-width:.5;stroke-linecap:butt;stroke-linejoin:miter;stroke-miterlimit:4;stroke-dasharray:none;stroke-opacity:1" id="path4730" d="m 87.759721,197.60351 c 14.432379,-12.81926 18.521899,-39.51031 19.091929,-49.69886 0.0105,-0.18765 -3.13695,0.45538 -6.67509,0.86819 -2.992531,24.7848 -7.289736,31.28248 -14.022511,41.31908 0.844274,4.31191 1.348586,7.73994 1.605672,7.51159 z"/><path style="fill:#faa;fill-rule:evenodd;stroke:#000;stroke-width:.5;stroke-linecap:butt;stroke-linejoin:miter;stroke-miterlimit:4;stroke-dasharray:none;stroke-opacity:1" id="path4732" d="m 176.33317,198.95495 c 0.98016,-2.7729 2.5068,-5.5274 3.09041,-7.75625 -5.62063,-14.22486 -9.88067,-22.68942 -12.48946,-40.60335 -2.18932,-0.25824 -6.78246,-1.07129 -7.51405,-1.20598 -0.80571,14.95858 11.32385,46.89938 16.9131,49.56558 z"/></g></svg>