<svg xmlns="http://www.w3.org/2000/svg" xmlns:svg="http://www.w3.org/2000/svg" xmlns:xlink="http://www.w3.org/1999/xlink" id="svg4206" version="1.1" viewBox="0 0 256 256"><style id="style3">svg{cursor:default}</style><defs id="defs4208"><linearGradient id="linearGradient6768"><stop style="stop-color:#faa;stop-opacity:1" id="stop6764" offset="0"/><stop style="stop-color:#ffd5d5;stop-opacity:1" id="stop6766" offset="1"/></linearGradient><linearGradient id="linearGradient5959"><stop style="stop-color:#999;stop-opacity:1" id="stop5955" offset="0"/><stop style="stop-color:#f9f9f9;stop-opacity:1" id="stop5957" offset="1"/></linearGradient><linearGradient id="linearGradient5879"><stop style="stop-color:#ff2a2a;stop-opacity:1" id="stop5875" offset="0"/><stop style="stop-color:#f55;stop-opacity:1" id="stop5877" offset="1"/></linearGradient><linearGradient id="linearGradient5873"><stop id="stop5869" offset="0" style="stop-color:#ff2a2a;stop-opacity:1"/><stop id="stop5871" offset="1" style="stop-color:#ff8080;stop-opacity:0"/></linearGradient><pattern id="pattern5822" width="30.049" height="178.462" patternTransform="translate(-132.99379,49.595954)" patternUnits="userSpaceOnUse"><path id="path4408" d="M 29.850962,178.4353 C 21.729672,119.12705 13.292512,59.395876 0.19530151,0.04309663" style="fill:none;fill-rule:evenodd;stroke:#ff2a2a;stroke-width:.40000001;stroke-linecap:butt;stroke-linejoin:miter;stroke-miterlimit:4;stroke-dasharray:none;stroke-opacity:1"/></pattern><radialGradient id="radialGradient5769" cx="154.513" cy="181.06" r="22.097" fx="154.513" fy="181.06" gradientTransform="matrix(0.94292684,0.33299998,-0.64381322,1.8230294,122.20544,-212.07351)" gradientUnits="userSpaceOnUse" xlink:href="#linearGradient5873"/><linearGradient id="linearGradient5881" x1="98.992" x2="216.022" y1="89.049" y2="117.687" gradientUnits="userSpaceOnUse" xlink:href="#linearGradient5879"/><radialGradient id="radialGradient5961" cx="147.57" cy="182.808" r="3.517" fx="147.57" fy="182.808" gradientTransform="matrix(1,0,0,1.0063578,0,-1.1784478)" gradientUnits="userSpaceOnUse" xlink:href="#linearGradient5959"/><radialGradient id="radialGradient5969" cx="146.831" cy="152.712" r="3.517" fx="146.831" fy="152.712" gradientTransform="matrix(1,0,0,1.0063578,0,-0.96309405)" gradientUnits="userSpaceOnUse" xlink:href="#linearGradient5959"/><linearGradient id="linearGradient5881-9" x1="98.992" x2="216.022" y1="89.049" y2="117.687" gradientTransform="matrix(-1,0,0,1,258.34444,-0.381005)" gradientUnits="userSpaceOnUse" xlink:href="#linearGradient5879"/><radialGradient id="radialGradient6770" cx="129.718" cy="32.101" r="67.825" fx="129.718" fy="32.101" gradientTransform="matrix(2.4448905,-0.08846268,0.0528428,1.4604447,-189.41267,-43.800025)" gradientUnits="userSpaceOnUse" xlink:href="#linearGradient6768"/></defs><metadata id="metadata4211"/><g id="layer4"><g id="g4381" transform="matrix(1.1025,0,0,1.1025,-13.94726,1.0091716)"><path id="path4439-6-3" d="m 88.427694,21.628913 c 29.428366,-0.832919 60.724726,-0.17749 91.659226,2.855884 1.49656,0.52625 -7.50505,64.643275 -3.4095,117.153803 2.91245,37.3416 19.96893,62.4579 20.13828,63.46602 -28.41024,21.74718 -124.128905,12.92379 -134.419986,0.75619 0.10647,-0.99491 13.211171,-23.11888 18.015503,-59.76224 7.098941,-54.144676 6.422744,-123.87391 8.016477,-124.469652 z" style="fill:url(#radialGradient6770);fill-opacity:1;fill-rule:evenodd;stroke:#000;stroke-width:1.15762496px;stroke-linecap:butt;stroke-linejoin:miter;stroke-opacity:1"/><path id="path6177-6-2" d="m 120.97249,151.79578 c -0.7795,-3.362 -1.36392,-6.73436 -1.79164,-10.11107 -3.57292,-19.39185 -1.97349,-39.46061 -2.13693,-59.174656 -0.16272,19.626646 -2.09317,39.811856 1.17322,59.343966 0.75439,3.35119 1.66154,6.6669 2.75535,9.94176 z" style="fill:#faa;fill-rule:evenodd;stroke:none;stroke-width:1px;stroke-linecap:butt;stroke-linejoin:miter;stroke-opacity:1"/><path id="path4439-6" d="m 102.96482,12.33511 c 4.4798,-1.184842 14.52035,1.614676 25.84161,1.869434 9.76901,0.219827 20.78009,-2.239146 26.57319,-1.488424 2.56081,0.90048 1.55441,7.35167 1.96191,9.77741 -3.09266,-0.698464 -16.7774,1.517751 -29.09174,1.67731 -11.23929,0.145629 -23.23095,-3.294629 -26.34728,-1.946985 0.26379,-2.46498 -1.61001,-8.88982 1.06231,-9.88874 z" style="fill:#f55;fill-rule:evenodd;stroke:#000;stroke-width:1.15762496px;stroke-linecap:butt;stroke-linejoin:miter;stroke-opacity:1"/><path id="path6185-3-9" d="m 141.15509,143.24318 c -0.62635,-7.13568 -0.9247,-14.317 -1.01798,-21.51811 -0.71318,-19.45935 0.0711,-39.109746 -0.0534,-58.481891 -0.12438,19.341187 -1.15763,39.030321 -0.69306,58.504471 0.34261,7.20984 0.89034,14.38387 1.76449,21.49553 z" style="fill:#faa;fill-rule:evenodd;stroke:none;stroke-width:1px;stroke-linecap:butt;stroke-linejoin:miter;stroke-opacity:1"/><path id="path4431-7" d="m 141.57008,219.37674 c 3.46665,5.42579 53.9396,-7.35983 56.01712,-9.3208 1.72892,-1.63193 -5.87321,-30.98473 -8.08088,-40.38003 -2.20768,-9.39529 -6.40168,-24.80182 -6.58714,-28.7954 -1.10529,-23.80011 0.35067,-57.122933 -1.79751,-65.346595 1.50141,1.999529 9.22251,53.882075 12.26616,57.395065 3.30421,31.01686 11.35899,61.62778 18.48302,90.33391 3.99799,1.86688 21.97377,0.0726 28.79379,-3.34463 -0.78892,-5.85703 -3.69886,-12.33707 -6.72313,-21.90438 -3.73263,-11.8082 -10.16427,-45.0624 -16.89078,-78.62061 -3.4137,-17.03075 -6.90334,-34.139804 -10.15469,-48.563707 -2.19615,-9.74277 -2.0803,-21.827982 -2.91146,-32.115768 -0.5379,-6.65786 -3.03376,-11.516803 -4.5091,-12.688995 -3.75504,-2.983474 -13.83244,-6.835811 -21.57409,-8.289828 -7.74165,-1.454017 -8.89699,-0.312006 -22.52177,-5.018852 3.42145,13.708592 -0.52699,34.894307 -4.14826,61.778393 -2.16904,16.102861 -9.85326,47.687197 -13.82382,71.384997 1.15523,8.31027 1.26583,26.7798 2.38642,40.5217 -0.13834,17.46914 1.77608,32.97553 1.77608,32.97553 z" style="fill:url(#linearGradient5881);fill-opacity:1;fill-rule:evenodd;stroke:#000;stroke-width:1.15762496px;stroke-linecap:butt;stroke-linejoin:miter;stroke-opacity:1"/><path id="path4437-0" d="m 143.51727,105.97905 c -2.456,9.73285 -4.59376,26.57058 -5.72464,30.27916 -0.99986,3.2789 -0.38505,9.6213 -0.38505,9.6213 2.90412,-8.51645 3.43245,-13.02623 16.74099,-54.267666 2.91403,-5.900405 10.88102,-33.751371 10.6529,-34.731372 -0.89128,-0.584869 -12.12816,-4.950918 -10.66633,-4.347972 5.52181,-1.176825 5.78928,-1.438639 8.60222,-2.466498 2.67261,-13.319535 4.30233,-22.754706 2.22648,-35.349825 -4.32096,-1.567358 -8.53449,-3.948172 -10.37897,-2.149259 -0.9331,0.938239 -0.66624,-1.34288 1.00543,3.227763 1.02557,2.804096 -1.13632,12.961105 -1.47631,15.756065 -5.62195,24.32635 -5.1217,33.953661 -10.59672,74.428304 z" style="fill:#ff8080;fill-rule:evenodd;stroke:#000;stroke-width:1.15762496px;stroke-linecap:butt;stroke-linejoin:miter;stroke-opacity:1"/><path id="path4394-4" d="m 181.10604,75.744853 c 0.17269,-0.05937 0.34546,-0.118369 0.51831,-0.176994 -1.25471,-10.054085 0.2064,-20.487949 3.616,-30.087825 -3.73848,9.462399 -5.59813,19.931549 -4.67859,30.201487 0.18143,0.02149 0.36285,0.0426 0.54428,0.06333 z" style="fill:#000;fill-rule:evenodd;stroke:none;stroke-width:1px;stroke-linecap:butt;stroke-linejoin:miter;stroke-opacity:1"/><path id="path4445-9" d="m 150.87455,169.43371 1.57595,6.33257 c 1.00047,2.80751 2.32992,3.19291 4.06596,3.00944 l 25.69176,-3.60758 c 3.90143,-0.49437 3.36881,-2.77269 3.11497,-4.46353 l -0.97997,-5.00034 c -2.34473,0.57138 -19.65863,3.35085 -33.46867,3.72944 z" style="fill:#ff8080;fill-rule:evenodd;stroke:#000;stroke-width:.57881248;stroke-linecap:butt;stroke-linejoin:miter;stroke-miterlimit:4;stroke-dasharray:none;stroke-opacity:1"/><path id="path4394-4-4" d="m 150.87455,169.43371 c 0.15196,0.008 0.304,0.0159 0.4561,0.0234 1.62767,-4.86784 3.68405,-11.65715 6.07132,-18.23315 2.40386,-6.62169 5.1384,-13.01239 8.08867,-16.92925 -3.07533,3.83879 -5.95175,10.18398 -8.50066,16.77482 -2.5248,6.52848 -4.73227,13.30917 -6.48638,18.09793 0.12368,0.0888 0.24728,0.17751 0.37095,0.26624 z" style="fill:#000;fill-rule:evenodd;stroke:none;stroke-width:1px;stroke-linecap:butt;stroke-linejoin:miter;stroke-opacity:1"/><ellipse id="path4293-1-3-4-8" cx="143.384" cy="151.482" rx="3.115" ry="3.137" style="fill:url(#radialGradient5969);fill-opacity:1;stroke:#000;stroke-width:.80484778;stroke-miterlimit:4;stroke-dasharray:none;stroke-dashoffset:0"/><ellipse id="path4293-1-3-4-8-1" cx="145.537" cy="185.355" rx="3.115" ry="3.137" style="fill:url(#radialGradient5961);fill-opacity:1;stroke:#000;stroke-width:.80484778;stroke-miterlimit:4;stroke-dasharray:none;stroke-dashoffset:0"/><path id="path4337-1-7" d="m 121.99698,31.921947 c 4.25154,0.413077 10.82939,0.222983 15.00634,-0.156251 l -0.0631,-4.482552 c -4.21773,0.425005 -10.74752,0.697047 -15.06951,0.07095 -0.05,1.499732 0.0832,3.059098 0.12627,4.567856 z" style="fill:gray;fill-rule:evenodd;stroke:#000;stroke-width:.5;stroke-linecap:butt;stroke-linejoin:miter;stroke-miterlimit:4;stroke-dasharray:none;stroke-opacity:1"/><path id="path6185-3-9-2" d="m 117.18935,142.86217 c 0.87415,-7.11166 1.42188,-14.28569 1.76449,-21.49553 0.46457,-19.47414 -0.56868,-39.163279 -0.69306,-58.504466 -0.12458,19.372145 0.65973,39.022536 -0.0534,58.481886 -0.0933,7.20111 -0.39163,14.38243 -1.01798,21.51811 z" style="fill:#faa;fill-rule:evenodd;stroke:none;stroke-width:1px;stroke-linecap:butt;stroke-linejoin:miter;stroke-opacity:1"/><path id="path4431-7-2" d="m 116.77436,218.99573 c -3.46665,5.42579 -53.9396,-7.35983 -56.01712,-9.3208 -1.72892,-1.63193 5.87321,-30.98473 8.08088,-40.38003 2.20768,-9.39529 6.40168,-24.80182 6.58714,-28.7954 1.10529,-23.8001 -0.35067,-57.122928 1.79751,-65.34659 -1.50141,1.999529 -9.22251,53.88208 -12.26616,57.39506 -3.30421,31.01686 -11.35899,61.62778 -18.48302,90.33391 -3.99799,1.86688 -21.97377,0.0726 -28.79379,-3.34463 0.78892,-5.85703 3.69886,-12.33707 6.72313,-21.90438 3.73263,-11.8082 10.16427,-45.0624 16.89078,-78.6206 3.4137,-17.03076 6.90334,-34.139809 10.15469,-48.563712 2.19615,-9.74277 2.0803,-21.827982 2.91146,-32.115768 0.5379,-6.65786 3.03376,-11.516803 4.5091,-12.688995 3.75504,-2.983474 13.83244,-6.835811 21.57409,-8.289828 7.74165,-1.454017 8.89699,-0.312006 22.52177,-5.018852 -3.42145,13.708592 0.52699,34.894307 4.14826,61.778393 2.16904,16.102861 9.85326,47.687202 13.82382,71.384992 -1.15523,8.31027 -1.26583,26.7798 -2.38642,40.5217 0.13834,17.46914 -1.77608,32.97553 -1.77608,32.97553 z" style="fill:url(#linearGradient5881-9);fill-opacity:1;fill-rule:evenodd;stroke:#000;stroke-width:1.15762496px;stroke-linecap:butt;stroke-linejoin:miter;stroke-opacity:1"/><path id="path4437-0-0" d="m 114.82717,105.59804 c 2.456,9.73286 4.59376,26.57058 5.72464,30.27916 0.99986,3.2789 0.38505,9.6213 0.38505,9.6213 -2.90412,-8.51645 -3.43245,-13.02623 -16.74099,-54.267661 C 101.28184,85.330434 93.31485,57.479468 93.54297,56.499467 94.43425,55.914598 105.67113,51.548549 104.2093,52.151495 98.68749,50.97467 98.42002,50.712856 95.60708,49.684997 92.93447,36.365462 91.30475,26.930291 93.3806,14.335172 c 4.32096,-1.567358 8.53449,-3.948172 10.37897,-2.149259 0.9331,0.938239 0.66624,-1.34288 -1.00543,3.227763 -1.02557,2.804096 1.13632,12.961105 1.47631,15.756065 5.62195,24.32635 5.1217,33.953661 10.59672,74.428299 z" style="fill:#ff8080;fill-rule:evenodd;stroke:#000;stroke-width:1.15762496px;stroke-linecap:butt;stroke-linejoin:miter;stroke-opacity:1"/><path id="path4394-4-0" d="m 77.2384,75.363848 c 0.181427,-0.02073 0.362853,-0.04184 0.544276,-0.06333 0.919547,-10.269938 -0.940104,-20.739088 -4.678586,-30.201487 3.409599,9.599876 4.870709,20.03374 3.616,30.087825 0.172853,0.05863 0.345624,0.117623 0.51831,0.176994 z" style="fill:#000;fill-rule:evenodd;stroke:none;stroke-width:1px;stroke-linecap:butt;stroke-linejoin:miter;stroke-opacity:1"/><path id="path4445-9-2" d="m 107.46989,169.0527 -1.57595,6.33257 c -1.00047,2.80751 -2.32992,3.19291 -4.06596,3.00944 l -25.69176,-3.60758 c -3.90143,-0.49437 -3.36881,-2.77269 -3.11497,-4.46353 l 0.97997,-5.00034 c 2.34473,0.57138 19.65863,3.35085 33.46867,3.72944 z" style="fill:#ff8080;fill-rule:evenodd;stroke:#000;stroke-width:.57881248;stroke-linecap:butt;stroke-linejoin:miter;stroke-miterlimit:4;stroke-dasharray:none;stroke-opacity:1"/><path id="path4394-4-4-0" d="m 107.46989,169.0527 c 0.12367,-0.0887 0.24727,-0.17744 0.37095,-0.26624 -1.75411,-4.78876 -3.96158,-11.56945 -6.48638,-18.09793 -2.548912,-6.59084 -5.425328,-12.93603 -8.50066,-16.77482 2.950275,3.91686 5.68481,10.30756 8.08867,16.92925 2.38727,6.576 4.44365,13.36531 6.07132,18.23315 0.1521,-0.008 0.30414,-0.0154 0.4561,-0.0234 z" style="fill:#000;fill-rule:evenodd;stroke:none;stroke-width:1px;stroke-linecap:butt;stroke-linejoin:miter;stroke-opacity:1"/><path id="path6670" d="m 113.83046,151.75655 c -0.0808,0.38863 1.7323,0.69376 2.11713,0.77062 0.3848,0.077 1.62032,0.23468 1.65952,-0.16097 0.0392,-0.39569 -1.12012,-0.67614 -1.47115,-0.72463 -0.35103,-0.0485 -2.22444,-0.27355 -2.3055,0.11498 z" style="fill:#f55;stroke:#000;stroke-width:.40000001;stroke-linecap:butt;stroke-linejoin:miter;stroke-miterlimit:4;stroke-dasharray:none;stroke-opacity:1"/><path id="path4527-6-4-9" d="m 49.560466,208.20025 c -2.564248,2.7387 -5.152574,3.28857 -8.445531,4.26401 3.250098,-0.63706 6.15148,-0.90001 9.113583,-3.58287 z" style="display:inline;fill:#000;fill-rule:evenodd;stroke:none;stroke-width:.96301967px;stroke-linecap:butt;stroke-linejoin:miter;stroke-opacity:1"/><path id="path4527-6-4-9-1" d="m 207.18841,206.5695 c 2.9621,2.68286 5.86348,2.94581 9.11358,3.58287 -3.29296,-0.97544 -5.88128,-1.52531 -8.44552,-4.26401 z" style="display:inline;fill:#000;fill-rule:evenodd;stroke:none;stroke-width:.96301967px;stroke-linecap:butt;stroke-linejoin:miter;stroke-opacity:1"/><path id="path4527-6-4-9-5" d="m 40.577459,120.04014 c 0.324467,3.98328 2.260431,6.16025 4.194718,8.84866 -1.734018,-2.9645 -3.245361,-5.1365 -3.241474,-8.88828 z" style="display:inline;fill:#000;fill-rule:evenodd;stroke:none;stroke-width:.96301967px;stroke-linecap:butt;stroke-linejoin:miter;stroke-opacity:1"/><path id="path4527-6-4-9-5-1" d="m 216.26912,118.18086 c 0.004,3.75178 -1.50746,5.92379 -3.24148,8.88828 1.93429,-2.68841 3.87025,-4.86538 4.19472,-8.84866 z" style="display:inline;fill:#000;fill-rule:evenodd;stroke:none;stroke-width:.96301967px;stroke-linecap:butt;stroke-linejoin:miter;stroke-opacity:1"/><path id="path4527-6-4-9-5-7" d="m 52.394057,60.986014 c 0.324467,3.98328 2.260431,6.160252 4.194718,8.848657 -1.734018,-2.964495 -3.245361,-5.136503 -3.241474,-8.888285 z" style="display:inline;fill:#000;fill-rule:evenodd;stroke:none;stroke-width:.96301967px;stroke-linecap:butt;stroke-linejoin:miter;stroke-opacity:1"/><path id="path4527-6-4-9-5-9" d="m 205.23281,63.819009 c 0.004,3.75178 -1.50745,5.923788 -3.24147,8.888283 1.93429,-2.688405 3.87025,-4.865377 4.19471,-8.848657 z" style="display:inline;fill:#000;fill-rule:evenodd;stroke:none;stroke-width:.96301967px;stroke-linecap:butt;stroke-linejoin:miter;stroke-opacity:1"/><path id="path6670-1" d="m 111.91217,185.10019 c -0.0808,0.38863 1.7323,0.69376 2.11713,0.77062 0.3848,0.077 1.62032,0.23468 1.65952,-0.16097 0.0392,-0.39569 -1.12012,-0.67614 -1.47115,-0.72463 -0.35103,-0.0485 -2.22444,-0.27355 -2.3055,0.11498 z" style="fill:#f55;stroke:#000;stroke-width:.40000001;stroke-linecap:butt;stroke-linejoin:miter;stroke-miterlimit:4;stroke-dasharray:none;stroke-opacity:1"/></g></g></svg>