<svg xmlns="http://www.w3.org/2000/svg" xmlns:svg="http://www.w3.org/2000/svg" xmlns:xlink="http://www.w3.org/1999/xlink" id="svg4206" version="1.1" viewBox="0 0 256 256"><style id="style3">svg{cursor:default}</style><defs id="defs4208"><linearGradient id="linearGradientSKATER_DRESS4416"><stop style="stop-color:#000;stop-opacity:.23921569" id="stop4418" offset="0"/><stop style="stop-color:#ff8080;stop-opacity:0" id="stop4420" offset="1"/></linearGradient><linearGradient id="linearGradientSKATER_DRESS4400"><stop style="stop-color:#000;stop-opacity:.21028037" id="stop4402" offset="0"/><stop style="stop-color:#ff8080;stop-opacity:0" id="stop4404" offset="1"/></linearGradient><linearGradient id="linearGradient0" x1="85.863" x2="104.298" y1="85.032" y2="78.718" gradientTransform="matrix(0.970299,0,0,0.970299,9.2125178,1.94104)" gradientUnits="userSpaceOnUse" xlink:href="#linearGradientSKATER_DRESS4400"/><linearGradient id="linearGradient1" x1="163.392" x2="150.765" y1="80.739" y2="75.435" gradientTransform="matrix(0.970299,0,0,0.970299,9.2125178,1.94104)" gradientUnits="userSpaceOnUse" xlink:href="#linearGradientSKATER_DRESS4400"/><linearGradient id="linearGradient2" x1="124.754" x2="124.501" y1="256.758" y2="55.485" gradientTransform="matrix(0.970299,0,0,0.970299,9.2125178,1.94104)" gradientUnits="userSpaceOnUse" xlink:href="#linearGradientSKATER_DRESS4416"/></defs><metadata id="metadata4211"/><g id="layer4"><path style="fill:#ff8080;fill-opacity:1;fill-rule:evenodd;stroke:#000;stroke-width:.97029901px;stroke-linecap:butt;stroke-linejoin:miter;stroke-opacity:1" id="path4358" d="m 63.272033,232.49101 c 8.157135,8.65521 16.294441,16.29614 40.024837,12.63324 0.0967,1.9108 -0.0918,3.25117 -0.14264,4.8668 2.47424,0.59431 4.29852,1.34346 7.59315,1.73267 15.68265,1.85268 31.76443,0.3426 47.1288,-1.0396 -0.15285,-1.63904 -0.47416,-2.82744 -0.48917,-5.02476 12.02416,-0.46557 25.08883,3.11078 36.70212,-5.89111 -15.27409,-93.50756 -28.77153,-121.28885 -29.28224,-132.02996 -1.13117,-23.79071 7.1454,-36.816831 7.01734,-41.757515 -0.0682,-2.630771 -4.47458,-9.203804 -2.98887,-46.695638 -0.0406,-1.12484 -9.1375,-4.751401 -9.91957,-3.595306 -1.65222,1.802422 -22.84426,44.222887 -28.4159,44.399843 -9.22098,0.29286 -30.19189,-46.219153 -30.19189,-46.219153 -0.769364,-1.031866 -10.886986,2.902234 -10.526012,4.50496 3.768572,20.589975 -1.349689,44.051833 -1.646043,48.211731 -0.30886,4.335436 9.160897,32.9485 8.490116,38.898598 -1.726488,15.31464 -14.461831,60.68319 -33.354028,127.0052 z"/><path id="path4369" d="m 63.272033,232.49101 c 8.157135,8.65521 16.294441,16.29614 40.024837,12.63324 0.0967,1.9108 -0.0918,3.25117 -0.14264,4.8668 2.47424,0.59431 4.29852,1.34346 7.59315,1.73267 15.68265,1.85268 31.76443,0.3426 47.1288,-1.0396 -0.15285,-1.63904 -0.47416,-2.82744 -0.48917,-5.02476 12.02416,-0.46557 25.08883,3.11078 36.70212,-5.89111 -15.27409,-93.50756 -28.77153,-121.28885 -29.28224,-132.02996 -1.13117,-23.79071 7.1454,-36.816831 7.01734,-41.757515 -0.0682,-2.630771 -4.47458,-9.203804 -2.98887,-46.695638 -0.0406,-1.12484 -9.1375,-4.751401 -9.91957,-3.595306 -1.65222,1.802422 -22.84426,44.222887 -28.4159,44.399843 -9.22098,0.29286 -30.19189,-46.219153 -30.19189,-46.219153 -0.769364,-1.031866 -10.886986,2.902234 -10.526012,4.50496 3.768572,20.589975 -1.349689,44.051833 -1.646043,48.211731 -0.30886,4.335436 9.160897,32.9485 8.490116,38.898598 -1.726488,15.31464 -14.461831,60.68319 -33.354028,127.0052 z" style="fill:url(#linearGradient2);fill-opacity:1;fill-rule:evenodd;stroke:none;stroke-width:.97029901px;stroke-linecap:butt;stroke-linejoin:miter;stroke-opacity:1"/><path style="fill:#000;fill-rule:evenodd;stroke:none;stroke-width:1px;stroke-linecap:butt;stroke-linejoin:miter;stroke-opacity:1" id="path4360" d="m 103.77236,245.39153 c 0.50162,-47.10724 7.76571,-87.99163 8.31912,-136.78902 -0.77093,42.02856 -8.5652,96.34044 -9.28932,136.77516 z"/><path style="fill:#000;fill-rule:evenodd;stroke:none;stroke-width:1px;stroke-linecap:butt;stroke-linejoin:miter;stroke-opacity:1" id="path4364" d="m 157.87089,245.90964 c -4.11313,-54.63669 -10.55237,-79.80284 -9.1779,-137.30502 -1.69823,57.51012 4.42241,82.75404 8.21012,137.375 z"/><path style="fill:url(#linearGradient1);fill-opacity:1;fill-rule:evenodd;stroke:#000;stroke-width:.4851495;stroke-linecap:butt;stroke-linejoin:miter;stroke-miterlimit:4;stroke-dasharray:none;stroke-opacity:1" id="path4380" d="m 168.53215,45.708457 c -5.97915,8.818923 -8.26326,16.776766 -10.06627,24.012319 -3.11891,12.516267 -2.84548,22.99327 -3.70851,32.906114 l 10.48269,-9.00992 c 1.06333,-8.981041 3.59364,-17.962083 6.67081,-26.943124 z"/><path style="fill:url(#linearGradient0);fill-opacity:1;fill-rule:evenodd;stroke:#000;stroke-width:.4851495;stroke-linecap:butt;stroke-linejoin:miter;stroke-miterlimit:4;stroke-dasharray:none;stroke-opacity:1" id="path4382" d="m 94.460215,93.530336 c 0.519804,0.346535 11.175765,9.269824 11.175765,9.269824 C 104.3938,96.012633 103.54755,84.596971 101.2797,72.330212 99.557017,63.012243 99.685812,54.92788 91.081496,44.755484 l -3.118819,22.264897 z"/><path style="fill:#000;fill-rule:evenodd;stroke:none;stroke-width:1px;stroke-linecap:butt;stroke-linejoin:miter;stroke-opacity:1" id="path4384" d="m 105.41139,102.6304 c 0.0504,0.13865 0.0978,0.27471 0.1423,0.4084 2.62104,2.39937 3.07832,2.98707 6.6052,5.49865 -3.44411,-2.61517 -3.80219,-3.2918 -6.33143,-5.78671 -0.13611,-0.038 -0.27475,-0.0781 -0.41607,-0.12034 z"/><path style="fill:#000;fill-rule:evenodd;stroke:none;stroke-width:1px;stroke-linecap:butt;stroke-linejoin:miter;stroke-opacity:1" id="path4388" d="m 154.68137,102.35281 c -1.75749,1.89144 -2.27581,2.8452 -6.12415,5.51469 3.94587,-2.53676 4.59499,-3.3866 6.47477,-5.16757 z"/><path style="fill:none;fill-rule:evenodd;stroke:#000;stroke-width:.4851495;stroke-linecap:butt;stroke-linejoin:miter;stroke-miterlimit:4;stroke-dasharray:none;stroke-opacity:1" id="path4392" d="M 89.881309,18.041632 C 89.292039,14.721901 87.773055,8.6263823 88.135945,8.1093706 88.566163,7.6290987 89.850978,13.83889 90.691643,16.902705"/><path style="fill:none;fill-rule:evenodd;stroke:#000;stroke-width:.4851495;stroke-linecap:butt;stroke-linejoin:miter;stroke-miterlimit:4;stroke-dasharray:none;stroke-opacity:1" id="path4394" d="M 100.00478,14.000472 C 99.225077,10.79502 97.428404,6.088713 97.665667,4.3841155 98.232614,3.4939042 122.39655,30.406236 135.22144,55.454764"/><path style="fill:none;fill-rule:evenodd;stroke:#000;stroke-width:.4851495;stroke-linecap:butt;stroke-linejoin:miter;stroke-miterlimit:4;stroke-dasharray:none;stroke-opacity:1" id="path4396" d="m 123.74245,55.108228 c 12.70948,-24.566433 35.32926,-50.9721882 36.28014,-50.889154 0.7108,-0.012304 -0.54083,7.370306 -0.7246,11.066288"/><path style="fill:none;fill-rule:evenodd;stroke:#000;stroke-width:.4851495;stroke-linecap:butt;stroke-linejoin:miter;stroke-miterlimit:4;stroke-dasharray:none;stroke-opacity:1" id="path4398" d="m 168.85444,18.777147 c 0.47531,-2.975636 1.91559,-10.6742087 1.42554,-10.2656014 -0.47286,0.3905659 -1.36077,6.6367194 -2.05235,9.8912504"/></g></svg>