<svg xmlns="http://www.w3.org/2000/svg" xmlns:svg="http://www.w3.org/2000/svg" xmlns:xlink="http://www.w3.org/1999/xlink" id="svg4206" version="1.1" viewBox="0 0 256 256"><style id="style3">svg{cursor:default}</style><defs id="defs4208"><linearGradient id="innoGrad2"><stop style="stop-color:#f55;stop-opacity:1" id="stop4516" offset="0"/><stop style="stop-color:#ff8080;stop-opacity:1" id="stop4518" offset="1"/></linearGradient><linearGradient id="innoGrad1"><stop style="stop-color:#f55;stop-opacity:1" id="stop4508" offset="0"/><stop style="stop-color:#ff8080;stop-opacity:1" id="stop4510" offset="1"/></linearGradient><linearGradient id="innoGrad3"><stop style="stop-color:#000;stop-opacity:.25098041" id="stop4488" offset="0"/><stop style="stop-color:#000;stop-opacity:0" id="stop4490" offset="1"/></linearGradient><linearGradient id="2"><stop id="stop5869" offset="0" style="stop-color:#ff2a2a;stop-opacity:1"/><stop id="stop5871" offset="1" style="stop-color:#ff8080;stop-opacity:0"/></linearGradient><pattern id="pattern5822" width="30.049" height="178.462" patternTransform="translate(-132.99379,49.595954)" patternUnits="userSpaceOnUse"><path id="path4408" d="M 29.850962,178.4353 C 21.729672,119.12705 13.292512,59.395876 0.19530151,0.04309663" style="fill:none;fill-rule:evenodd;stroke:#ff2a2a;stroke-width:.40000001;stroke-linecap:butt;stroke-linejoin:miter;stroke-miterlimit:4;stroke-dasharray:none;stroke-opacity:1"/></pattern><radialGradient id="radialGradient5769" cx="154.513" cy="181.06" r="22.097" fx="154.513" fy="181.06" gradientTransform="matrix(0.94292684,0.33299998,-0.64381322,1.8230294,122.20544,-212.07351)" gradientUnits="userSpaceOnUse" xlink:href="#2"/><linearGradient id="linearGradient4492" x1="113.314" x2="139.83" y1="33.615" y2="31.14" gradientTransform="translate(0.49999999,0.74999998)" gradientUnits="userSpaceOnUse" xlink:href="#innoGrad3"/><linearGradient id="linearGradient4512" x1="124" x2="126.75" y1="244.75" y2="111.25" gradientTransform="translate(0.49999999,0.74999998)" gradientUnits="userSpaceOnUse" xlink:href="#innoGrad1"/><linearGradient id="linearGradient4520" x1="107.375" x2="105.313" y1="46.125" y2="41.063" gradientTransform="translate(0.49999999,0.74999998)" gradientUnits="userSpaceOnUse" xlink:href="#innoGrad2"/></defs><metadata id="metadata4211"/><g id="layer4"><path style="fill:#f55;fill-opacity:1;fill-rule:evenodd;stroke:#000;stroke-width:.5;stroke-linecap:butt;stroke-linejoin:miter;stroke-miterlimit:4;stroke-dasharray:none;stroke-opacity:1" id="path4386" d="m 130.74023,7.052924 c 6.51395,-2.8836804 14.25087,34.489939 14.09794,37.344076 -0.3741,6.981755 -16.07367,4.897141 -18.42898,4.927649 -3.83327,0.04965 -12.38515,-2.433481 -18.07541,-5.325397 -0.69452,-14.66239 6.02057,-26.995773 22.40645,-36.946328 z"/><path id="path4484" d="m 130.74023,7.052924 c 6.51395,-2.8836804 14.25087,34.489939 14.09794,37.344076 -0.3741,6.981755 -16.07367,4.897141 -18.42898,4.927649 -3.83327,0.04965 -12.38515,-2.433481 -18.07541,-5.325397 -0.69452,-14.66239 6.02057,-26.995773 22.40645,-36.946328 z" style="fill:url(#linearGradient4492);fill-opacity:1;fill-rule:evenodd;stroke:none;stroke-width:.5;stroke-linecap:butt;stroke-linejoin:miter;stroke-miterlimit:4;stroke-dasharray:none;stroke-opacity:1"/><path style="fill:#f55;fill-rule:evenodd;stroke:#000;stroke-width:.5;stroke-linecap:butt;stroke-linejoin:miter;stroke-miterlimit:4;stroke-dasharray:none;stroke-opacity:1" id="path4390" d="m 114.76403,43.402631 c 2.29869,-1.391112 15.70507,1.064171 16.97681,3.335554 -0.70864,2.322035 -0.57825,15.668052 -3.19213,15.575091 -8.70265,-0.309505 -11.36049,-16.565318 -13.78468,-18.910645 z"/><path style="fill:url(#linearGradient4512);fill-opacity:1;fill-rule:evenodd;stroke:#000;stroke-width:.5;stroke-linecap:butt;stroke-linejoin:miter;stroke-miterlimit:4;stroke-dasharray:none;stroke-opacity:1" id="path4382" d="m 75.099763,232.35481 c 4.05517,2.77198 8.56568,1.67366 13.08148,0.53033 -0.0589,2.58974 -0.10921,4.43891 -0.0884,6.8059 0.0181,2.05909 1.39624,3.45479 2.65165,6.27558 2.58764,5.8142 12.238057,5.26083 13.876967,2.47487 l 0.17677,-7.6014 c 1.52899,-1.17597 2.56627,-1.35652 3.97748,-0.17677 l -0.7513,7.68979 c 7.27001,1.11054 10.61576,-1.58143 11.44629,-13.21406 9.7361,3.87763 14.24525,-0.44365 22.27386,-2.96101 l -0.22097,-1.98874 c 3.96274,0.16522 2.57222,8.53483 11.71146,7.29204 l -0.17678,-8.61786 c 7.17017,-1.17844 11.61128,0.9896 19.44544,0.92807 5.19211,-0.0408 7.5067,-0.74813 10.54142,-3.16635 0.71731,-0.57159 -17.28089,-106.4003 -32.10818,-159.556589 -3.32899,-11.934534 -7.05153,-14.594912 -16.7322,-18.146419 l -6.49759,0.46455 0.27884,10.571572 -3.08703,-10.867574 -14.62066,-3.235358 c -4.47834,1.299937 -8.90825,1.837021 -13.810027,4.27481 -6.91178,3.437418 -6.60549,12.749511 -7.05942,15.264376 -10.04545,55.653412 -10.70152,111.306822 -14.3091,166.960242 z"/><path style="fill:#ff8080;fill-rule:evenodd;stroke:#000;stroke-width:.5;stroke-linecap:butt;stroke-linejoin:miter;stroke-miterlimit:4;stroke-dasharray:none;stroke-opacity:1" id="path4388" d="m 124.7557,49.608121 c -3.36906,-1.892633 -7.76054,-4.002635 -9.81489,-6.315976 -4.27624,1.243615 -3.83419,2.073344 -5.06024,3.049398 5.42955,1.087081 12.62669,2.246942 16.28804,3.261216 l 13.0348,-0.476983 c -2.7638,-0.340751 -5.51559,-0.710997 -7.64559,-2.607456 -0.77092,0.847055 -2.05071,2.275566 -3.9355,3.122621 z"/><path style="fill:url(#linearGradient4520);fill-opacity:1;fill-rule:evenodd;stroke:#000;stroke-width:.5;stroke-linecap:butt;stroke-linejoin:miter;stroke-miterlimit:4;stroke-dasharray:none;stroke-opacity:1" id="path4384" d="m 124.58835,48.959723 c -4.79166,-1.988537 -12.94579,-3.301251 -14.66358,-5.844354 -1.98027,-2.931694 13.43921,-33.8157459 21.56675,-36.1508332 -5.40894,-0.1926828 -27.41555,8.5249632 -28.0191,9.5901352 -0.73241,1.292589 0.001,25.558759 -0.0884,27.135222 -0.0851,1.498947 -0.0859,3.330223 3.09359,3.668117 5.67947,0.603572 12.3345,1.207499 18.11074,1.601713 z"/><path style="fill:#ffb380;fill-rule:evenodd;stroke:#000;stroke-width:.25;stroke-linecap:butt;stroke-linejoin:miter;stroke-miterlimit:4;stroke-dasharray:none;stroke-opacity:1" id="path4418" d="m 124.8182,49.037388 c 0.0768,0.335007 3.60617,0.592675 3.66812,0.220971 l 0.0884,0.640815 c -1.25217,0.212791 -2.50433,0.309979 -3.7565,-0.176777 z"/><ellipse style="opacity:1;fill:#ffb380;fill-opacity:1;stroke:#000;stroke-width:.25;stroke-linecap:round;stroke-linejoin:round;stroke-miterlimit:4;stroke-dasharray:none;stroke-dashoffset:0;stroke-opacity:1" id="path4400" cx="124.398" cy="49.457" rx="1.008" ry=".942"/><ellipse style="opacity:1;fill:#ffb380;fill-opacity:1;stroke:#000;stroke-width:.25;stroke-linecap:round;stroke-linejoin:round;stroke-miterlimit:4;stroke-dasharray:none;stroke-dashoffset:0;stroke-opacity:1" id="path4400-4" cx="128.442" cy="49.645" rx="1.01" ry=".922"/><path style="fill:#000;fill-rule:evenodd;stroke:none;stroke-width:1px;stroke-linecap:butt;stroke-linejoin:miter;stroke-opacity:1" id="path4420" d="m 88.147746,233.00758 c 3e-6,0 0.288614,-0.002 0.288616,-0.002 2.101635,-50.87276 0.891877,-91.85801 0.550824,-122.13991 -0.17056,-15.144043 -0.123934,-27.61249 0.662053,-37.308745 0.785839,-9.694429 2.310523,-16.619823 5.100759,-20.6816 -2.83429,4.040985 -4.409619,10.966485 -5.244396,20.6696 -0.834625,9.70135 -0.92921,22.177357 -0.806677,37.323525 0.245072,30.29286 1.358341,71.26112 -0.83857,122.11279 -3e-6,0 0.287393,0.0267 0.287391,0.0267 z"/><path style="fill:#000;fill-rule:evenodd;stroke:none;stroke-width:1px;stroke-linecap:butt;stroke-linejoin:miter;stroke-opacity:1" id="path4424" d="m 104.78125,241.1875 c 0.0807,-0.0133 0.16131,-0.0266 0.24197,-0.0399 1.27898,-45.89803 2.32095,-146.744118 3.72678,-189.897629 -1.56678,43.165246 -2.76838,143.983799 -4.20793,189.883379 1e-5,0 0.23916,0.0541 0.23918,0.0541 z"/><path style="fill:#000;fill-rule:evenodd;stroke:none;stroke-width:1px;stroke-linecap:butt;stroke-linejoin:miter;stroke-opacity:1" id="path4424-6" d="m 108.74989,240.86759 c 1e-5,0 0.26293,0.0127 0.26294,0.0127 4.33985,-42.5766 4.41417,-112.72623 5.23706,-156.51268 -0.99842,43.79914 -1.24837,113.92473 -5.75992,156.4583 -2e-5,0 0.25994,0.0417 0.25992,0.0417 z"/><path style="fill:#000;fill-rule:evenodd;stroke:none;stroke-width:1px;stroke-linecap:butt;stroke-linejoin:miter;stroke-opacity:1" id="path4447" d="m 119.48549,235.3294 c 0.10743,-0.0212 0.21486,-0.0423 0.3223,-0.0635 0.50805,-20.90111 1.54898,-34.9923 1.44221,-55.26592 -0.10676,20.2721 -1.36059,34.33689 -2.08252,55.24708 2.8e-4,8e-5 0.31773,0.0822 0.31801,0.0823 z"/><path style="fill:#000;fill-rule:evenodd;stroke:none;stroke-width:1px;stroke-linecap:butt;stroke-linejoin:miter;stroke-opacity:1" id="path4451" d="m 141.57031,230.4375 c 3e-5,-1e-5 0.24492,-0.0563 0.24495,-0.0563 -6.08349,-46.96758 -7.20213,-127.95533 -13.94822,-171.647972 6.58291,43.728702 7.52587,124.659532 13.45202,171.711352 0.0837,-0.002 0.1675,-0.005 0.25125,-0.007 z"/><path style="fill:#000;fill-rule:evenodd;stroke:none;stroke-width:1px;stroke-linecap:butt;stroke-linejoin:miter;stroke-opacity:1" id="path4456" d="m 153.07812,229.03125 c 10e-6,0 0.24998,-0.0283 0.24999,-0.0283 0.10537,-24.84109 -0.58562,-59.25731 -2.3784,-90.97892 -0.89677,-15.86732 -2.06922,-31.06069 -3.5556,-44.044172 -1.48642,-12.983855 -3.28669,-23.756771 -5.43853,-30.781911 2.11131,7.034997 3.86985,17.811785 5.31439,30.795923 1.44458,12.98454 2.57524,28.17757 3.43025,44.04392 1.70933,31.72038 2.31683,66.13108 2.12826,90.96221 -2e-5,-1e-5 0.24967,0.0312 0.24964,0.0312 z"/></g></svg>