<svg xmlns="http://www.w3.org/2000/svg" xmlns:svg="http://www.w3.org/2000/svg" xmlns:xlink="http://www.w3.org/1999/xlink" id="svg4206" version="1.1" viewBox="0 0 256 256"><style id="style3">svg{cursor:default}</style><defs id="defs4208"><linearGradient id="linearGradient2"><stop style="stop-color:#f55;stop-opacity:1" id="stop4473" offset="0"/><stop style="stop-color:#ff2a2a;stop-opacity:1" id="stop4475" offset="1"/></linearGradient><linearGradient id="linearGradient0"><stop style="stop-color:#faa;stop-opacity:1" id="stop4465" offset="0"/><stop style="stop-color:#ff8080;stop-opacity:1" id="stop4467" offset="1"/></linearGradient><linearGradient id="linearGradient1" x1="134.35" x2="134.603" y1="32.504" y2="189.835" gradientUnits="userSpaceOnUse" xlink:href="#linearGradient0"/><linearGradient id="linearGradient3" x1="161.786" x2="148.214" y1="234.036" y2="228.5" gradientUnits="userSpaceOnUse" xlink:href="#linearGradient2"/></defs><metadata id="metadata4211"/><g id="layer4"><path style="fill:url(#linearGradient3);fill-rule:evenodd;stroke:#000;stroke-width:1px;stroke-linecap:butt;stroke-linejoin:miter;stroke-opacity:1;fill-opacity:1" id="path4461" d="m 167.05398,248.99207 c -16.25398,-0.44976 -18.61313,0.13067 -25.63262,0.56821 l 20.07678,-78.41309 z"/><path style="fill:none;fill-rule:evenodd;stroke:#000;stroke-width:.5;stroke-linecap:butt;stroke-linejoin:miter;stroke-miterlimit:4;stroke-dasharray:none;stroke-opacity:1" id="path4445" d="m 108.66071,26.44643 c 0,0 -7.16719,-18.0956812 -5.95982,-19.0401786 0.66626,-0.5211988 11.31697,22.4330356 11.31697,22.4330356"/><path style="fill:none;fill-rule:evenodd;stroke:#000;stroke-width:.5;stroke-linecap:butt;stroke-linejoin:miter;stroke-miterlimit:4;stroke-dasharray:none;stroke-opacity:1" id="path4447" d="m 113.57143,24.214287 c 0,0 -1.53987,-22.8999399 -1.00446,-22.9910713 1.04911,-0.1785706 15.7366,45.5803573 15.7366,45.5803573"/><path style="fill:none;fill-rule:evenodd;stroke:#000;stroke-width:.5;stroke-linecap:butt;stroke-linejoin:miter;stroke-miterlimit:4;stroke-dasharray:none;stroke-opacity:1" id="path4449" d="m 143.57143,43.767858 c 0,0 13.38133,-42.6755829 13.8235,-42.5671562 2.07802,0.5095641 -0.51993,26.1385852 -0.51993,26.1385852"/><path style="fill:none;fill-rule:evenodd;stroke:#000;stroke-width:.5;stroke-linecap:butt;stroke-linejoin:miter;stroke-miterlimit:4;stroke-dasharray:none;stroke-opacity:1" id="path4451" d="m 160.35714,30.642858 c 0,0 9.54413,-22.887245 7.91981,-23.503342 -1.05346,-0.3995765 -11.58052,21.628342 -11.58052,21.628342"/><path style="fill:url(#linearGradient1);fill-rule:evenodd;stroke:#000;stroke-width:1px;stroke-linecap:butt;stroke-linejoin:miter;stroke-opacity:1;fill-opacity:1" id="path4443" d="m 146.42857,253.67857 c -15.00355,-1.4861 -25.92796,3.27401 -45.71428,-5.53571 -1.910181,-38.52988 -4.866966,-75.966 -3.303576,-114.64286 0.397991,-9.84594 9.374516,-32.45343 9.374996,-48.92857 6.6e-4,-22.422829 -4.52377,-29.762038 -6.785711,-44.642857 2.978441,-8.910181 8.788341,-13.069036 13.035711,-16.964286 9.38246,8.932815 13.33533,18.793629 22.85715,29.821429 8.9309,-10.50501 12.00162,-19.779508 20.53571,-29.642857 7.41124,3.109648 11.06082,9.604787 13.75,16.964285 -1.47882,14.133622 -7.29039,26.373364 -6.69642,39.642857 1.39178,31.093209 9.41057,37.761769 9.73213,54.732139 1.12995,59.6333 -0.36064,63.66379 -3.39285,113.30357 l -4.28572,2.5 -3.92857,-66.07142 c -9.84874,29.25013 -10.11905,46.30952 -15.17857,69.46428 z"/><path style="fill:none;fill-rule:evenodd;stroke:#000;stroke-width:.5;stroke-linecap:butt;stroke-linejoin:miter;stroke-miterlimit:4;stroke-dasharray:none;stroke-opacity:1" id="path4453" d="m 106.78571,87.160715 c 9.46802,-14.897571 19.51537,-23.132841 29.28572,-34.553571 9.79345,11.59752 19.16254,23.124312 27.94643,34.553571"/><path style="fill:none;fill-rule:evenodd;stroke:#000;stroke-width:.5;stroke-linecap:butt;stroke-linejoin:miter;stroke-miterlimit:4;stroke-dasharray:none;stroke-opacity:1" id="path4455" d="m 152.05357,71.714287 c 3.32497,-8.157802 3.43353,-17.48521 5.08929,-26.25"/><path style="fill:none;fill-rule:evenodd;stroke:#000;stroke-width:.5;stroke-linecap:butt;stroke-linejoin:miter;stroke-miterlimit:4;stroke-dasharray:none;stroke-opacity:1" id="path4457" d="M 118.83928,71.491072 C 117.1769,65.48909 113.5918,48.645301 112.5,45.642858"/><path style="fill:none;fill-rule:evenodd;stroke:#000;stroke-width:.5;stroke-linecap:butt;stroke-linejoin:miter;stroke-miterlimit:4;stroke-dasharray:none;stroke-opacity:1" id="path4459" d="m 161.42857,184.52679 c 5.57603,-20.61459 9.29525,-40.53769 12.09821,-44.91072"/></g></svg>