<svg xmlns="http://www.w3.org/2000/svg" xmlns:svg="http://www.w3.org/2000/svg" id="svg4206" version="1.1" viewBox="0 0 256 256"><style id="style3">svg{cursor:default}</style><metadata id="metadata4211"/><g id="layer4"><path style="fill:#ff8080;fill-rule:evenodd;stroke:#000;stroke-width:1px;stroke-linecap:butt;stroke-linejoin:miter;stroke-opacity:1" id="path4922" d="m 197.02031,242.74547 c -28.75603,2.362 -78.41372,2.49365 -132.142859,0.71429 1.246201,-39.97292 -7.700482,-89.3281 -13.928571,-128.92857 13.256359,-41.258185 1.822965,-56.526764 0.714286,-78.928581 14.414293,-4.859705 23.087017,-11.486046 31.428571,-18.214285 20.583803,12.701105 53.522693,24.897414 90.000003,-2.857143 9.13627,6.530733 16.01495,13.491483 34.64285,18.214285 0.83451,3.348341 -12.75935,41.761547 0.71429,71.071434 -5.43227,45.71925 -10.42274,94.3242 -11.42857,138.92857 z"/><path style="fill:#ff2a2a;fill-rule:evenodd;stroke:#000;stroke-width:1px;stroke-linecap:butt;stroke-linejoin:miter;stroke-opacity:1" id="path4932" d="m 127.91057,110.53804 c -5.04284,-0.72333 -18.75341,-50.644853 -0.63135,-79.549518 3.54022,-2.426908 18.46047,48.817866 0.63135,79.549518 z"/><path style="fill:#f55;fill-rule:evenodd;stroke:#000;stroke-width:1px;stroke-linecap:butt;stroke-linejoin:miter;stroke-opacity:1" id="path4926" d="m 90.166973,9.6096341 c 1.913873,-0.210226 16.313207,3.3214569 33.356917,3.7845879 15.31222,0.416082 31.51055,-2.075712 44.72924,-4.1994489 C 177.2352,27.04946 95.631683,33.393021 90.166973,9.6096341 Z"/><path style="fill:#faa;fill-rule:evenodd;stroke:#000;stroke-width:1px;stroke-linecap:butt;stroke-linejoin:miter;stroke-opacity:1" id="path4930" d="m 126.4846,109.62047 3.34055,3.38017 c 14.23849,-23.162188 7.74661,-69.209118 2.98155,-79.448045 l -4.75287,0.404029 c 7.97047,26.858587 8.78457,53.088846 -1.56923,75.663846 z"/><path style="fill:#faa;fill-rule:evenodd;stroke:#000;stroke-width:1px;stroke-linecap:butt;stroke-linejoin:miter;stroke-opacity:1" id="path4928" d="M 201.30223,171.56298 C 186.51627,159.00656 179.18596,155.65788 166.82199,148.69346 148.00028,138.09151 126.658,121.69677 118.75606,95.764552 115.7759,85.984395 112.9779,57.43204 122.19689,33.608605 l 6.7554,0.284106 c -10.67948,12.658558 -8.45536,50.120954 -5.27173,60.987961 7.7133,26.328618 26.38496,38.903028 41.38851,47.550648 13.9279,8.02764 25.31237,12.19224 36.71974,23.50634 -0.14564,1.64215 -0.15013,2.39116 -0.48658,5.62532 z"/><path style="fill:#faa;fill-rule:evenodd;stroke:#000;stroke-width:1px;stroke-linecap:butt;stroke-linejoin:miter;stroke-opacity:1" id="path4924" d="m 80.591737,19.352609 c 4.943008,-3.502406 6.109123,-6.37533 9.107143,-9.5535709 25.11713,19.6950999 60.29617,17.0014429 78.83929,-0.446429 2.74985,2.6248379 3.71967,5.0948899 8.28825,7.8778779 -22.74766,15.661555 -63.1751,28.514374 -96.234683,2.122122 z"/><path style="fill:none;fill-rule:evenodd;stroke:#000;stroke-width:.5;stroke-linecap:butt;stroke-linejoin:miter;stroke-miterlimit:4;stroke-dasharray:none;stroke-opacity:1" id="path4935" d="M 51.931023,120.95976 C 69.287364,92.749892 61.301802,57.123232 54.877452,34.888323"/><path style="fill:none;fill-rule:evenodd;stroke:#000;stroke-width:.5;stroke-linecap:butt;stroke-linejoin:miter;stroke-miterlimit:4;stroke-dasharray:none;stroke-opacity:1" id="path4937" d="m 204.87745,32.209752 c -11.32502,28.654203 -7.77847,69.583228 2.5,76.964298"/><path style="fill:none;fill-rule:evenodd;stroke:#000;stroke-width:.5;stroke-linecap:butt;stroke-linejoin:miter;stroke-miterlimit:4;stroke-dasharray:none;stroke-opacity:1" id="path4939" d="m 64.877452,232.56691 c 50.639968,1.3933 94.137318,1.2236 132.321428,-0.7143"/></g></svg>