<svg xmlns="http://www.w3.org/2000/svg" xmlns:svg="http://www.w3.org/2000/svg" xmlns:xlink="http://www.w3.org/1999/xlink" id="svg4206" version="1.1" viewBox="0 0 256 256"><style id="style3">svg{cursor:default}</style><defs id="defs4208"><linearGradient id="innoGrad1"><stop id="stop4464" offset="0" style="stop-color:#f55;stop-opacity:1"/><stop style="stop-color:#ff8080;stop-opacity:1" id="stop4458" offset="1"/></linearGradient><linearGradient id="linearGradient4460" x1="-192.905" x2="-192.444" y1="200.104" y2="76.27" gradientTransform="matrix(1.21,0,0,1.21,361.29341,-36.941604)" gradientUnits="userSpaceOnUse" xlink:href="#innoGrad1"/></defs><metadata id="metadata4211"/><g id="layer4"><path style="fill:url(#linearGradient4460);fill-opacity:1;fill-rule:evenodd;stroke:#000;stroke-width:1.21000004px;stroke-linecap:butt;stroke-linejoin:miter;stroke-opacity:1" id="path4331" d="m 54.47198,245.16126 c 50.96238,-1.43045 94.25531,2.4487 140.44643,4.32143 -4.2513,-27.37231 -11.1412,-55.49281 -17.71786,-85.13215 -3.60924,-16.26589 1.33479,-29.30922 6.4035,-53.43293 l 0.68528,-10.09207 c -2.22546,-20.195899 -0.52273,-40.27756 4.14694,-60.067858 l -27.225,-12.532143 -60.5,1.728571 c -8.134115,6.671267 -17.114155,12.617466 -28.08929,16.853572 -0.151589,15.4043 -0.09244,31.054442 2.160721,49.264284 1.610377,8.865394 2.512008,17.553604 5.617848,26.792864 2.172822,13.07053 6.877277,29.76764 2.640789,39.70921 -12.116783,28.43382 -23.047414,54.04179 -28.569358,82.58722 z"/><path style="fill:#f55;fill-rule:evenodd;stroke:#000;stroke-width:1.10352004;stroke-linecap:butt;stroke-linejoin:round;stroke-miterlimit:4;stroke-dasharray:none;stroke-opacity:1" id="path4401-4" d="m 110.1045,6.7988118 c 10.3398,1.976195 25.20384,3.3415522 37.51708,-0.9203429 11.04021,20.3476551 -44.0039,21.4014271 -37.51708,0.9203429 z"/><path style="fill:#ff8080;fill-rule:evenodd;stroke:#000;stroke-width:1.10333455px;stroke-linecap:butt;stroke-linejoin:miter;stroke-opacity:1" id="path4365-3" d="M 98.029681,32.035723 C 108.97913,51.090656 154.08214,43.848594 164.31605,29.581804 150.87261,21.714051 149.24828,15.186079 150.60454,8.7977815 c 0.42669,-2.0098028 -0.0895,-2.7165747 -2.666,-2.8948597 2.64709,9.2118052 -33.36558,20.6501422 -37.9725,0.8015234 -0.53074,0.025543 -5.14102,1.9255395 -3.41449,4.5726908 2.50579,3.841872 -0.40994,14.637949 -8.521869,20.758587 z"/><path style="fill:#ff8080;fill-rule:evenodd;stroke:#000;stroke-width:1.21000004px;stroke-linecap:butt;stroke-linejoin:miter;stroke-opacity:1" id="path4367-6-3" d="m 55.779881,240.12322 c -0.824119,2.79286 -1.579195,5.39572 -2.080208,7.72879 4.156628,2.34732 133.460847,4.14996 141.850087,4.88145 -0.30576,-2.80321 -0.89697,-5.0773 -1.49079,-8.10101 -9.79555,2.30452 -125.552757,-0.66345 -138.279089,-4.50923 z"/><path style="fill:#faa;fill-rule:evenodd;stroke:#000;stroke-width:1.21000004px;stroke-linecap:butt;stroke-linejoin:miter;stroke-opacity:1" id="path4450" d="M 80.167951,122.01904 C 76.84298,96.925221 72.974029,71.876744 74.362105,46.390178 l -1.986215,0.458356 c -1.402717,31.190387 2.268859,60.257256 7.792061,75.170506 z"/><path style="fill:#faa;fill-rule:evenodd;stroke:#000;stroke-width:1.21000004px;stroke-linecap:butt;stroke-linejoin:miter;stroke-opacity:1" id="path4452" d="m 183.90936,101.08742 c -3.74142,-18.743473 -2.30446,-38.871086 2.59736,-61.267022 l 2.29178,0.916713 c -4.90666,19.648633 -5.6574,39.890969 -4.88914,60.350309 z"/><path style="fill:none;fill-rule:evenodd;stroke:#ff2a2a;stroke-width:1.81500006;stroke-linecap:butt;stroke-linejoin:miter;stroke-miterlimit:4;stroke-dasharray:.9075,.9075;stroke-dashoffset:0;stroke-opacity:1" id="path4672-28-2-1-9" d="m 101.36409,34.581041 c 16.54869,-22.462861 4.42456,-22.254487 8.61822,-24.178012"/><path style="fill:none;fill-rule:evenodd;stroke:#000;stroke-width:.60500002;stroke-linecap:butt;stroke-linejoin:miter;stroke-miterlimit:4;stroke-dasharray:none;stroke-opacity:1" id="path4491" d="M 96.134046,34.090939 C 111.5663,53.968653 158.09384,44.273295 166.72098,30.958835"/><path style="fill:none;fill-rule:evenodd;stroke:#ff2a2a;stroke-width:1.81500006;stroke-linecap:butt;stroke-linejoin:miter;stroke-miterlimit:4;stroke-dasharray:.9075,.9075;stroke-dashoffset:0;stroke-opacity:1" id="path4672-28-2-1-9-3" d="m 106.04772,37.920041 c 5.79995,-9.120483 8.23593,-13.688293 9.76412,-21.351481"/><path style="fill:none;fill-rule:evenodd;stroke:#ff2a2a;stroke-width:1.81500006;stroke-linecap:butt;stroke-linejoin:miter;stroke-miterlimit:4;stroke-dasharray:.9075,.9075;stroke-dashoffset:0;stroke-opacity:1" id="path4672-28-2-1-9-3-1" d="m 114.02647,40.645789 c 3.45487,-7.615005 5.51419,-14.165371 7.16677,-21.886229"/><path style="fill:none;fill-rule:evenodd;stroke:#ff2a2a;stroke-width:1.81500006;stroke-linecap:butt;stroke-linejoin:miter;stroke-miterlimit:4;stroke-dasharray:.9075,.9075;stroke-dashoffset:0;stroke-opacity:1" id="path4672-28-2-1-9-3-1-3" d="m 123.70162,41.86409 c 1.40447,-9.603088 1.36141,-14.585503 2.12485,-22.344587"/><path style="fill:none;fill-rule:evenodd;stroke:#ff2a2a;stroke-width:1.81500006;stroke-linecap:butt;stroke-linejoin:miter;stroke-miterlimit:4;stroke-dasharray:.9075,.9075;stroke-dashoffset:0;stroke-opacity:1" id="path4672-28-2-1-9-9" d="M 158.29778,33.215452 C 140.64091,12.599564 150.07897,14.31887 147.99892,9.5721887"/><path style="fill:none;fill-rule:evenodd;stroke:#ff2a2a;stroke-width:1.81500006;stroke-linecap:butt;stroke-linejoin:miter;stroke-miterlimit:4;stroke-dasharray:.9075,.9075;stroke-dashoffset:0;stroke-opacity:1" id="path4672-28-2-1-9-3-7" d="M 151.93351,37.089202 C 146.13356,27.968719 143.69759,23.400908 142.16939,15.73772"/><path style="fill:none;fill-rule:evenodd;stroke:#ff2a2a;stroke-width:1.81500006;stroke-linecap:butt;stroke-linejoin:miter;stroke-miterlimit:4;stroke-dasharray:.9075,.9075;stroke-dashoffset:0;stroke-opacity:1" id="path4672-28-2-1-9-3-1-5" d="m 144.10755,39.662163 c -3.45487,-7.615005 -5.51419,-14.165371 -7.16677,-21.88623"/><path style="fill:none;fill-rule:evenodd;stroke:#ff2a2a;stroke-width:1.81500006;stroke-linecap:butt;stroke-linejoin:miter;stroke-miterlimit:4;stroke-dasharray:.9075,.9075;stroke-dashoffset:0;stroke-opacity:1" id="path4672-28-2-1-9-3-1-3-1" d="m 134.356,41.644393 c -1.25169,-9.679481 -1.74337,-14.661895 -2.50681,-22.420981"/><path style="fill:none;fill-rule:evenodd;stroke:#ff2a2a;stroke-width:1.81500006;stroke-linecap:butt;stroke-linejoin:miter;stroke-miterlimit:4;stroke-dasharray:.9075,.9075;stroke-dashoffset:0;stroke-opacity:1" id="path4403-6-0-07-3-1-42" d="M 61.014922,239.38577 C 70.994699,201.47174 86.79114,183.3264 87.272744,154.93795 87.962989,114.25092 81.476155,126.85689 76.457873,46.383951"/><path style="fill:none;fill-rule:evenodd;stroke:#ff2a2a;stroke-width:1.81500006;stroke-linecap:butt;stroke-linejoin:miter;stroke-miterlimit:4;stroke-dasharray:.9075,.9075;stroke-dashoffset:0;stroke-opacity:1" id="path4403-6-0-07-3-1-42-4" d="M 71.782978,240.66375 C 75.521963,217.24896 89.675913,200.6411 92.460027,153.86984 94.905182,112.79277 86.536871,126.78601 85.191799,42.207704"/><path style="fill:none;fill-rule:evenodd;stroke:#ff2a2a;stroke-width:1.81500006;stroke-linecap:butt;stroke-linejoin:miter;stroke-miterlimit:4;stroke-dasharray:.9075,.9075;stroke-dashoffset:0;stroke-opacity:1" id="path4403-6-0-07-3-1-42-1" d="M 82.783947,241.54514 C 88.304862,210.76859 96.967978,188.53696 98.654997,160.19458 101.33146,115.22956 92.926179,130.6924 93.309688,36.606957"/><path style="fill:none;fill-rule:evenodd;stroke:#ff2a2a;stroke-width:1.81500006;stroke-linecap:butt;stroke-linejoin:miter;stroke-miterlimit:4;stroke-dasharray:.9075,.9075;stroke-dashoffset:0;stroke-opacity:1" id="path4403-6-0-07-3-1-42-4-7" d="m 94.621498,242.23817 c 2.386568,-29.07418 10.187852,-54.45238 12.667052,-82.73648 3.59317,-40.9926 -4.84282,-21.7326 -4.45931,-118.626974"/><path style="fill:none;fill-rule:evenodd;stroke:#ff2a2a;stroke-width:1.81500006;stroke-linecap:butt;stroke-linejoin:miter;stroke-miterlimit:4;stroke-dasharray:.9075,.9075;stroke-dashoffset:0;stroke-opacity:1" id="path4403-6-0-07-3-1-42-8" d="m 106.21365,242.77827 c 2.1705,-33.91089 7.03177,-50.62638 9.51097,-78.91046 3.59317,-40.9926 -4.20545,-60.86326 -2.30944,-119.080849"/><path style="fill:none;fill-rule:evenodd;stroke:#ff2a2a;stroke-width:1.81500006;stroke-linecap:butt;stroke-linejoin:miter;stroke-miterlimit:4;stroke-dasharray:.9075,.9075;stroke-dashoffset:0;stroke-opacity:1" id="path4403-6-0-07-3-1-42-4-8" d="m 118.36314,243.07625 c 9.87489,-86.94028 6.14287,-155.393311 6.0886,-197.111681"/><path style="fill:none;fill-rule:evenodd;stroke:#ff2a2a;stroke-width:1.81500006;stroke-linecap:butt;stroke-linejoin:miter;stroke-miterlimit:4;stroke-dasharray:.9075,.9075;stroke-dashoffset:0;stroke-opacity:1" id="path4403-6-0-07-3-1-42-2" d="m 189.43045,244.2388 c -8.97806,-40.9319 -15.39977,-53.71467 -17.87898,-81.99876 -3.59317,-40.9926 7.23944,-34.82719 7.36859,-124.314495"/><path style="fill:none;fill-rule:evenodd;stroke:#ff2a2a;stroke-width:1.81500006;stroke-linecap:butt;stroke-linejoin:miter;stroke-miterlimit:4;stroke-dasharray:.9075,.9075;stroke-dashoffset:0;stroke-opacity:1" id="path4403-6-0-07-3-1-42-4-76" d="m 181.03468,242.85613 c -8.97806,-26.23904 -13.10799,-58.74759 -15.5872,-87.03169 -3.59317,-40.9926 7.39224,-31.73892 4.30652,-121.8175"/><path style="fill:none;fill-rule:evenodd;stroke:#ff2a2a;stroke-width:1.81500006;stroke-linecap:butt;stroke-linejoin:miter;stroke-miterlimit:4;stroke-dasharray:.9075,.9075;stroke-dashoffset:0;stroke-opacity:1" id="path4403-6-0-07-3-1-42-1-7" d="m 171.63121,243.61094 c -8.97806,-26.67118 -12.59085,-50.46459 -14.45891,-82.10997 -2.4249,-41.07826 3.75612,-29.92982 3.37259,-124.015279"/><path style="fill:none;fill-rule:evenodd;stroke:#ff2a2a;stroke-width:1.81500006;stroke-linecap:butt;stroke-linejoin:miter;stroke-miterlimit:4;stroke-dasharray:.9075,.9075;stroke-dashoffset:0;stroke-opacity:1" id="path4403-6-0-07-3-1-42-4-7-0" d="m 159.83072,243.40264 c -6.60127,-27.75154 -9.82985,-55.93418 -10.32284,-86.05171 -0.67348,-41.14426 1.44897,-18.59825 1.06546,-115.492626"/><path style="fill:none;fill-rule:evenodd;stroke:#ff2a2a;stroke-width:1.81500006;stroke-linecap:butt;stroke-linejoin:miter;stroke-miterlimit:4;stroke-dasharray:.9075,.9075;stroke-dashoffset:0;stroke-opacity:1" id="path4403-6-0-07-3-1-42-8-5" d="m 145.42965,243.89481 c -5.52091,-30.12833 -4.92349,-51.30082 -5.26369,-79.89048 -0.48964,-41.14686 3.3086,-61.53318 1.41259,-119.750778"/><path style="fill:none;fill-rule:evenodd;stroke:#ff2a2a;stroke-width:1.81500006;stroke-linecap:butt;stroke-linejoin:miter;stroke-miterlimit:4;stroke-dasharray:.9075,.9075;stroke-dashoffset:0;stroke-opacity:1" id="path4403-6-0-07-3-1-42-4-8-0" d="m 131.32016,243.87635 c -0.80683,-72.87294 3.75912,-156.722556 2.19889,-198.423473"/></g></svg>