<svg xmlns="http://www.w3.org/2000/svg" xmlns:svg="http://www.w3.org/2000/svg" id="svg4206" version="1.1" viewBox="0 0 256 256"><style id="style3">svg{cursor:default}</style><metadata id="metadata4211"/><g id="layer4"><g id="g4908" transform="translate(-1.7781929,0.170764)"><path id="path4863" d="M 98.812976,20.547801 C 124.42216,76.817673 165.49877,32.030144 163.46275,19.411379 Z" style="fill:#f55;fill-rule:evenodd;stroke:#000;stroke-width:1px;stroke-linecap:butt;stroke-linejoin:miter;stroke-opacity:1"/><path id="path4852" d="m 99.570596,15.023529 1.641504,-1.104854 c 19.74512,5.855258 44.13406,7.178404 58.84138,-0.757615 l 5.1139,2.525381 c 1.81921,0.975467 -1.64252,3.469502 -4.20959,5.92118 -10.83729,4.456513 -42.40963,6.563034 -60.54491,-0.104967 -1.780274,-1.487875 -0.419894,-3.209856 -0.842284,-6.479125 z" style="fill:#ff8080;fill-rule:evenodd;stroke:#000;stroke-width:1px;stroke-linecap:butt;stroke-linejoin:miter;stroke-opacity:1"/><path id="path4848" d="m 195.72449,243.28643 c -15.9148,-0.15994 -23.76432,0.22583 -38.26107,-0.33927 -10.62686,-0.41424 -24.63427,-1.62386 -37.6039,-1.98734 -16.48302,-0.46194 -32.532686,0.0544 -51.414251,1.06392 2.271239,-44.78075 1.93611,-89.50303 1.515229,-133.01145 -8.910324,4.70836 -13.088504,9.50933 -22.980971,13.81345 C 34.441372,109.00446 23.735053,100.06807 12.129265,88.733097 38.439458,60.09339 44.959222,53.882834 61.374201,36.457703 76.020282,26.885707 85.384565,22.789213 96.688726,16.555085 110.85819,62.360874 152.4291,54.345436 165.32903,15.127843 c 17.42293,6.646119 25.00202,12.563065 36.96145,18.804479 17.70609,19.702419 32.19097,35.564758 48.23479,53.285546 -10.01685,12.711582 -22.05419,23.402672 -33.0825,35.102802 -9.52965,-3.02725 -13.83639,-9.96977 -20.56019,-16.74456 -1.68283,42.80502 -0.68571,95.20791 -1.15809,137.71032 z" style="fill:#ff8080;fill-rule:evenodd;stroke:#000;stroke-width:1px;stroke-linecap:butt;stroke-linejoin:miter;stroke-opacity:1"/><path id="path4850" d="m 94.880147,17.517343 c 13.316483,48.140785 65.257923,37.49661 71.668533,-1.998641 l -5.36961,-1.863398 c -4.40617,39.455683 -53.10899,44.894279 -61.694594,1.411938 z" style="fill:#faa;fill-rule:evenodd;stroke:#000;stroke-width:1px;stroke-linecap:butt;stroke-linejoin:miter;stroke-opacity:1"/><path id="path4875" d="M 70.115436,88.204133 C 69.55072,41.842034 64.684675,53.713319 61.964286,36.535715" style="fill:none;fill-rule:evenodd;stroke:#faa;stroke-width:.5;stroke-linecap:butt;stroke-linejoin:miter;stroke-miterlimit:4;stroke-dasharray:1,.5;stroke-dashoffset:0;stroke-opacity:1"/><path id="path4865" d="m 69.905298,109.63363 c 0.249057,-7.76022 0.370171,-16.247604 0.630416,-24.526487" style="fill:none;fill-rule:evenodd;stroke:#000;stroke-width:1px;stroke-linecap:butt;stroke-linejoin:miter;stroke-opacity:1"/><path id="path4877" d="m 196.10383,92.075759 c -8.71384,-23.917281 3.98471,-60.993893 4.95268,-58.37181" style="fill:none;fill-rule:evenodd;stroke:#faa;stroke-width:.48665819;stroke-linecap:butt;stroke-linejoin:miter;stroke-miterlimit:4;stroke-dasharray:.97331638,.48665819;stroke-dashoffset:0;stroke-opacity:1"/><path id="path4867" d="m 196.85101,106.44375 c 0.29551,-9.364633 -0.66683,-14.416668 -1.00025,-21.624994" style="fill:none;fill-rule:evenodd;stroke:#000;stroke-width:1px;stroke-linecap:butt;stroke-linejoin:miter;stroke-opacity:1"/><path id="path4869" d="M 16.25,84.750001 C 35.210767,99.066287 43.571733,112.68081 51.339286,120.19642" style="fill:none;fill-rule:evenodd;stroke:#faa;stroke-width:.5;stroke-linecap:butt;stroke-linejoin:miter;stroke-miterlimit:4;stroke-dasharray:1,.5;stroke-dashoffset:0;stroke-opacity:1"/><path id="path4871" d="m 68.928571,236.35714 c 41.953399,-3.0301 58.800619,0.24646 126.428579,1.25" style="fill:none;fill-rule:evenodd;stroke:#faa;stroke-width:.5;stroke-linecap:butt;stroke-linejoin:miter;stroke-miterlimit:4;stroke-dasharray:1,.5;stroke-dashoffset:0;stroke-opacity:1"/><path id="path4873" d="M 213.75,120.19643 C 235.60902,92.172543 238.30563,93.34918 247.85715,83.678572" style="fill:none;fill-rule:evenodd;stroke:#faa;stroke-width:.5;stroke-linecap:butt;stroke-linejoin:miter;stroke-miterlimit:4;stroke-dasharray:1,.5;stroke-dashoffset:0;stroke-opacity:1"/><path id="path4895" d="m 122.41072,29.660715 c 0.44643,0.08929 15.44643,0.178572 15.44643,0.178572 L 137.41072,32.160715 122.5,32.071425 Z" style="fill:#b3b3b3;fill-rule:evenodd;stroke:#000;stroke-width:1px;stroke-linecap:butt;stroke-linejoin:miter;stroke-opacity:1"/></g></g></svg>