<svg xmlns="http://www.w3.org/2000/svg" xmlns:svg="http://www.w3.org/2000/svg" xmlns:xlink="http://www.w3.org/1999/xlink" id="svg4206" version="1.1" viewBox="0 0 256 256"><style id="style3">svg{cursor:default}</style><defs id="defs4208"><linearGradient id="linearGradient0"><stop style="stop-color:#f55;stop-opacity:1" id="stop4412" offset="0"/><stop id="stop4418" offset=".601" style="stop-color:#ff8080;stop-opacity:1"/><stop style="stop-color:#faa;stop-opacity:1" id="stop4414" offset="1"/></linearGradient><linearGradient id="linearGradient1" x1="129.414" x2="125.52" y1="265.865" y2="29.475" gradientTransform="matrix(1.1025,0,0,1.1025,-13.379667,-15.397571)" gradientUnits="userSpaceOnUse" xlink:href="#linearGradient0"/></defs><metadata id="metadata4211"/><g id="layer4"><path style="fill:none;fill-rule:evenodd;stroke:#000;stroke-width:1.10249996px;stroke-linecap:butt;stroke-linejoin:miter;stroke-opacity:1" id="path4360" d="m 98.297674,31.035399 c -0.645713,-3.647755 -2.892935,-7.695891 -1.673436,-10.877344 12.661182,9.449549 19.342972,11.59922 27.808592,13.830469 12.39166,-2.618145 17.14851,-10.417388 27.71016,-15.110156 2.22282,0.376085 -0.75468,7.530469 -1.03359,10.877344"/><path style="fill:none;fill-rule:evenodd;stroke:#000;stroke-width:1.10249996px;stroke-linecap:butt;stroke-linejoin:miter;stroke-opacity:1" id="path4362" d="m 96.427363,20.674852 c 0,0 -4.318888,-17.1525958 -3.199218,-17.3988281 1.823629,-0.4010421 9.425395,19.0230461 9.425395,19.0230461"/><path style="fill:none;fill-rule:evenodd;stroke:#000;stroke-width:1.10249996px;stroke-linecap:butt;stroke-linejoin:miter;stroke-opacity:1" id="path4364" d="m 97.042599,20.74868 c 0,0 -1.083593,-18.5944907 0.123028,-18.457031 1.827283,0.2081663 5.414073,19.638281 5.414073,19.638281"/><path style="fill:none;fill-rule:evenodd;stroke:#000;stroke-width:1.10249996px;stroke-linecap:butt;stroke-linejoin:miter;stroke-opacity:1" id="path4366" d="m 147.81174,21.388524 c 0,0 3.9702,-19.6976228 5.41406,-19.4414062 1.79596,0.3187007 -1.23047,17.2265622 -1.23047,17.2265622"/><path style="fill:none;fill-rule:evenodd;stroke:#000;stroke-width:1.10249996px;stroke-linecap:butt;stroke-linejoin:miter;stroke-opacity:1" id="path4368" d="m 147.1719,22.028368 c 0.0492,-0.246094 8.6492,-19.2370561 9.89296,-18.6539063 2.83905,1.3311089 -2.94774,10.4662303 -4.47891,15.9468743"/><path style="fill:none;fill-rule:evenodd;stroke:#000;stroke-width:1.10249996px;stroke-linecap:butt;stroke-linejoin:miter;stroke-opacity:1" id="path4370" d="m 119.23006,37.8455 c 1.60633,-1.130405 1.97483,-2.458342 4.90746,-3.70932 3.09821,0.521098 4.76992,2.921187 6.93737,4.256697"/><path style="fill:url(#linearGradient1);fill-opacity:1;fill-rule:evenodd;stroke:#000;stroke-width:1.10249996px;stroke-linecap:butt;stroke-linejoin:miter;stroke-opacity:1" id="path4358" d="m 155.53908,249.32055 c -3.54623,1.21001 -7.47257,2.01364 -11.63042,3.03243 -5.32454,1.30466 -11.12321,2.67872 -17.99935,2.68097 -4.64454,0.001 -10.05784,-1.25746 -15.64575,-2.2746 -4.82762,-0.87875 -9.69819,-1.3648 -15.361978,-3.24193 0,0 -0.554494,-63.14012 0.196876,-94.69686 0.246025,-10.33281 -3.640528,-23.62981 -2.657813,-48.33282 0.549177,-13.804942 8.247835,-25.134403 8.662505,-37.70156 0.31848,-9.65194 -4.060474,-13.284852 -4.035944,-20.573438 0.02227,-6.602307 1.230479,-16.586718 1.230479,-16.586718 l 4.134375,-10.63125 c 13.98993,14.427009 22.50699,33.207285 45.03515,-0.04922 2.16141,3.609375 3.29271,7.21875 4.725,10.828125 0.1413,6.774726 0.98397,11.018415 1.18125,16.5375 0.22749,6.364273 -4.05633,13.128593 -3.9375,19.884375 0.20985,11.930636 8.32489,24.767687 8.46562,36.815616 0.27363,23.4256 -2.48438,40.59803 -2.3625,48.23438 0.92719,58.09285 0,64.04999 0,96.07499 z"/><path style="fill:#000;fill-rule:evenodd;stroke:none;stroke-width:1px;stroke-linecap:butt;stroke-linejoin:miter;stroke-opacity:1" id="path4372" d="m 106.12346,251.68305 c 0,0 0.23515,-0.0217 0.23515,-0.0217 -0.90752,-21.03074 -0.23936,-42.11961 0.9461,-62.97828 -1.34212,20.84479 -2.16856,41.94081 -1.41738,62.99685 0,0 0.23613,0.003 0.23613,0.003 z"/><path style="fill:#000;fill-rule:evenodd;stroke:none;stroke-width:1px;stroke-linecap:butt;stroke-linejoin:miter;stroke-opacity:1" id="path4380" d="m 138.60783,253.6518 c 0.0988,-0.0167 0.19763,-0.0333 0.29645,-0.0499 -1.93699,-20.21826 -0.69618,-40.58176 -0.0996,-60.78444 -0.79542,20.16988 -2.23876,40.56573 -0.49746,60.83867 0.10019,-0.001 0.20039,-0.003 0.30059,-0.004 z"/><path style="fill:#000;fill-rule:evenodd;stroke:none;stroke-width:1px;stroke-linecap:butt;stroke-linejoin:miter;stroke-opacity:1" id="path4384" d="m 149.23908,250.69868 c 0.0989,-0.0157 0.1978,-0.0314 0.29671,-0.047 -0.77597,-7.92581 -0.19657,-16.22151 -0.29671,-24.36552 -0.0996,8.09984 -0.87931,16.45029 -0.30038,24.4164 0.10013,-0.001 0.20025,-0.003 0.30038,-0.004 z"/><path style="fill:#000;fill-rule:evenodd;stroke:none;stroke-width:1px;stroke-linecap:butt;stroke-linejoin:miter;stroke-opacity:1" id="path4388" d="m 119.31408,254.4393 c 0.0765,-0.0269 0.15308,-0.0539 0.22964,-0.0807 -2.03351,-13.25343 -0.38995,-27.1247 -0.0328,-40.67242 -0.51496,13.49775 -2.32218,27.42324 -0.44006,40.74209 0.0811,0.004 0.16213,0.007 0.24319,0.011 z"/><path style="fill:#000;fill-rule:evenodd;stroke:none;stroke-width:1px;stroke-linecap:butt;stroke-linejoin:miter;stroke-opacity:1" id="path4392" d="m 97.460953,249.91118 c 0.077,-0.0235 0.154033,-0.0469 0.231082,-0.0703 -0.472651,-3.08647 -0.469814,-6.22155 -0.427955,-9.37974 -0.199966,3.13842 -0.364083,6.2985 -0.04449,9.43982 0.08046,0.004 0.160914,0.007 0.241364,0.0102 z"/></g></svg>