<svg xmlns="http://www.w3.org/2000/svg" xmlns:svg="http://www.w3.org/2000/svg" xmlns:xlink="http://www.w3.org/1999/xlink" id="svg4206" version="1.1" viewBox="0 0 256 256"><style id="style3">svg{cursor:default}</style><defs id="defs4208"><linearGradient id="innoGrad3"><stop style="stop-color:#ffb380;stop-opacity:1" id="stop4369" offset="0"/><stop style="stop-color:#f95;stop-opacity:1" id="stop4371" offset="1"/></linearGradient><linearGradient id="innoGrad2"><stop style="stop-color:#fea;stop-opacity:1" id="stop5130" offset="0"/><stop style="stop-color:#ffd42a;stop-opacity:1" id="stop5132" offset="1"/></linearGradient><linearGradient id="innoGrad1"><stop style="stop-color:#ff7f2a;stop-opacity:1" id="stop4621" offset="0"/><stop style="stop-color:#f95;stop-opacity:1" id="stop4623" offset="1"/></linearGradient><linearGradient id="linearGradient4761" x1="-125.714" x2="-126.071" y1="497.071" y2="545.821" gradientTransform="matrix(0.81450625,0,0,0.81450625,231.25866,-213.44505)" gradientUnits="userSpaceOnUse" xlink:href="#innoGrad1"/><linearGradient id="linearGradient5134" x1="130.404" x2="125.196" y1="74.173" y2="71.773" gradientUnits="userSpaceOnUse" xlink:href="#innoGrad2"/><linearGradient id="linearGradient4373" x1="129.286" x2="128.214" y1="162.964" y2="115.643" gradientUnits="userSpaceOnUse" xlink:href="#innoGrad3"/></defs><metadata id="metadata4211"/><g id="layer4"><path style="fill:#ff2a2a;fill-rule:evenodd;stroke:#000;stroke-width:.75;stroke-linecap:butt;stroke-linejoin:miter;stroke-opacity:1;stroke-miterlimit:4;stroke-dasharray:none" id="path5026" d="m 102.23462,36.895159 c 16.76613,-2.019612 33.53227,-2.014093 50.29841,-0.224529 l -25.12754,59.599 z"/><path id="path4617-4" d="m 59.472624,197.30695 -1.818084,4.87249 c 7.171068,5.41991 16.734072,9.48566 26.616892,12.58121 l -4.799772,17.1628 c 5.922854,2.97398 12.154356,6.60422 19.199086,5.09068 7.649744,-3.24175 14.469314,-4.21939 17.890044,4.07253 0,0 0.24538,5.75263 0.43634,9.59954 0.28025,5.64567 21.90514,5.10447 21.81713,-0.5818 -0.0497,-3.21054 -0.87268,-9.16319 -0.87268,-9.16319 2.6223,-5.15333 7.70482,-6.82137 14.98109,-5.38156 2.13647,2.95946 25.55192,-5.21293 22.10803,-9.01774 l -4.79977,-12.65395 c 10.69802,-3.48356 20.18289,-6.60169 26.6169,-11.6358 l -2.7635,-7.41783 c -41.9862,-31.8448 -87.58371,-31.61376 -134.611706,2.47262 z" style="fill:#ffb380;fill-opacity:.50196078;fill-rule:evenodd;stroke:#000;stroke-width:.40725312;stroke-linecap:butt;stroke-linejoin:miter;stroke-miterlimit:4;stroke-dasharray:none;stroke-opacity:1"/><path style="fill:url(#linearGradient4761);fill-opacity:1;fill-rule:evenodd;stroke:#000;stroke-width:.81450623px;stroke-linecap:butt;stroke-linejoin:miter;stroke-opacity:1" id="path4572-7" d="m 60.503235,192.58632 -2.472604,5.96335 c 7.171067,5.41991 16.006839,9.41293 25.889659,12.50849 l -4.217978,17.30826 c 5.922854,2.97397 11.718009,6.45875 18.762738,4.94521 7.64975,-3.24174 14.46931,-4.21938 17.89004,4.07253 0,0 0.24538,5.75264 0.43634,9.59955 0.28026,5.64567 21.90515,5.10447 21.81714,-0.5818 -0.0497,-3.21054 -0.87269,-9.16319 -0.87269,-9.16319 2.62231,-5.15333 7.70482,-6.82137 14.9811,-5.38157 2.13646,2.95947 25.55191,-5.21292 22.10802,-9.01774 l -4.79976,-12.65394 c 10.69801,-3.48356 20.18289,-6.60169 26.6169,-11.6358 l -2.76351,-7.41783 c -41.9862,-31.84481 -86.3474,-32.6319 -133.375395,1.45448 z"/><path style="fill:#000;fill-rule:evenodd;stroke:none;stroke-width:1px;stroke-linecap:butt;stroke-linejoin:miter;stroke-opacity:1" id="path4594-1" d="m 84.167945,211.45548 c 1.807992,-7.19497 1.834868,-15.00778 2.515851,-22.35991 -0.958828,7.39425 -1.248294,15.08328 -3.302053,22.14705 z"/><path style="fill:#000;fill-rule:evenodd;stroke:none;stroke-width:1px;stroke-linecap:butt;stroke-linejoin:miter;stroke-opacity:1" id="path4598-3" d="m 116.83491,239.26348 c -0.58883,-16.01748 0.89267,-31.5269 0.75649,-47.25895 -0.13534,15.63496 -1.88736,31.28292 -1.57067,47.28195 z"/><path style="fill:#000;fill-rule:evenodd;stroke:none;stroke-width:1px;stroke-linecap:butt;stroke-linejoin:miter;stroke-opacity:1" id="path4602-3" d="m 138.4276,239.34834 c -0.73441,-3.69761 -1.20363,-11.05499 -1.50301,-19.40496 -0.29917,-8.3445 -0.42985,-17.66728 -0.49773,-25.32079 -0.0679,7.65243 -0.073,16.9792 0.0906,25.33207 0.1634,8.34213 0.49414,15.74153 1.10846,19.53786 z"/><path style="fill:#000;fill-rule:evenodd;stroke:none;stroke-width:1px;stroke-linecap:butt;stroke-linejoin:miter;stroke-opacity:1" id="path4606-7" d="m 153.11731,231.92784 c -2.53193,-12.81507 -2.71931,-26.02411 -3.60017,-39.05063 0.60713,12.99531 0.52494,26.28425 2.79951,39.20017 z"/><path style="fill:#000;fill-rule:evenodd;stroke:none;stroke-width:1px;stroke-linecap:butt;stroke-linejoin:miter;stroke-opacity:1" id="path4610-7" d="m 170.70824,211.38449 c -1.76064,-5.78038 -5.32281,-10.99492 -7.51904,-16.47101 2.00837,5.74839 5.23027,10.81809 6.73482,16.69103 z"/><path id="path4574-4" d="m 58.612416,198.25878 c 5.100674,1.01986 11.114557,1.43948 17.308266,0 6.281782,4.16437 21.685626,2.4462 28.603248,0.426 2.25453,-0.6584 4.0807,-5.83809 5.16909,-6.14879 2.89722,-0.82706 5.83845,-1.39609 5.06216,3.83197 4.27249,3.06422 14.81301,2.11436 16.95711,-1.42952 l 1.95106,-3.22481 c 4.2348,-1.03495 6.62493,-0.22524 9.59954,0 0.77572,3.07665 0.65975,6.1112 2.8414,7.63083 3.45958,2.4098 16.97873,2.46068 25.95722,3.1323 l 0.14544,-3.0544 c 7.97127,-0.18038 18.26688,1.61003 25.01697,-1.74538 -22.07314,-91.88204 -128.07668,-84.9747 -138.611504,0.5818 z" style="fill:#fca;fill-opacity:.50196078;fill-rule:evenodd;stroke:#000;stroke-width:.40725312;stroke-linecap:butt;stroke-linejoin:miter;stroke-miterlimit:4;stroke-dasharray:none;stroke-opacity:1"/><path style="fill:url(#linearGradient4373);fill-opacity:1;fill-rule:evenodd;stroke:#000;stroke-width:.81450623px;stroke-linecap:butt;stroke-linejoin:miter;stroke-opacity:1" id="path4526-2" d="m 59.339656,193.45901 c 5.100674,1.01986 10.532763,1.29403 16.726472,-0.14545 6.281782,4.16437 21.685627,2.4462 28.603252,0.426 2.25453,-0.6584 4.08069,-5.83808 5.16909,-6.14879 2.89722,-0.82706 5.83845,-1.39609 5.06215,3.83197 4.27249,3.06422 14.81301,2.11436 16.95712,-1.42952 l 1.95106,-3.2248 c 4.23479,-1.03496 6.62493,-0.22525 9.59954,0 0.77572,3.07665 0.65975,6.11119 2.8414,7.63082 3.45957,2.4098 16.97872,2.46068 25.95721,3.1323 l 0.14545,-3.0544 c 7.97126,-0.18038 16.8124,1.90093 23.5625,-1.45448 -8.03061,-31.72652 -21.85197,-62.11671 -36.94367,-92.21374 l -62.833346,3.63619 c -17.584457,26.7577 -34.16945,56.77396 -36.798228,89.0139 z"/><path style="fill:#fca;fill-opacity:.50196078;fill-rule:evenodd;stroke:#000;stroke-width:.40725312;stroke-linecap:butt;stroke-linejoin:miter;stroke-miterlimit:4;stroke-dasharray:none;stroke-opacity:1" id="path4528-0" d="m 70.764491,146.51648 c -1.270068,1.98675 -2.011358,4.55371 -3.033987,6.7879 9.717736,-1.41019 15.78909,-3.12147 18.563868,-7.50783 2.536796,-4.01015 8.80816,-8.41674 12.54733,-11.51885 7.282148,-6.04148 13.575788,-24.27189 13.575788,-24.27189 l -3.60845,-2.07459 c -2.97028,7.80847 -5.64018,15.64425 -12.743338,23.077 -10.689417,6.40824 -11.8002,11.71338 -14.870693,13.98069 -3.368781,1.37367 -6.868373,1.70081 -10.430518,1.52757 z"/><path style="fill:#ffb380;fill-opacity:.78431373;fill-rule:evenodd;stroke:#000;stroke-width:.81450623px;stroke-linecap:butt;stroke-linejoin:miter;stroke-opacity:1" id="path4524-0" d="m 98.46505,100.08169 c -12.913328,14.12101 -20.35311,30.43144 -27.925933,46.68865 4.272476,-0.16268 11.023186,0.4088 14.491826,-5.76799 3.465536,-6.17127 8.029321,-7.10112 11.397842,-10.23123 6.285705,-5.84084 8.773435,-14.82496 12.363035,-22.83527 z"/><path style="fill:#000;fill-rule:evenodd;stroke:none;stroke-width:1px;stroke-linecap:butt;stroke-linejoin:miter;stroke-opacity:1" id="path4548-4" d="m 75.923411,198.31284 c 0.254134,-1.53367 0.469063,-3.1716 0.661183,-4.88613 0.01126,-12.84864 -1.269856,-29.72088 3.077661,-40.59094 -4.681723,10.79782 -3.739543,27.7582 -4.08647,40.57685 0.144209,1.70746 0.26599,3.3505 0.347626,4.90022 z"/><path style="fill:#000;fill-rule:evenodd;stroke:none;stroke-width:1px;stroke-linecap:butt;stroke-linejoin:miter;stroke-opacity:1" id="path4552-2" d="m 109.49153,192.74038 c 0.14691,-1.65211 0.29231,-3.32488 0.43474,-5.0147 0.008,-16.47822 -0.26805,-34.52031 -2.1868,-50.6255 1.66235,16.1241 1.68047,34.15963 1.41606,50.61913 0.11451,1.69118 0.22599,3.3659 0.336,5.02107 z"/><path style="fill:#000;fill-rule:evenodd;stroke:none;stroke-width:1px;stroke-linecap:butt;stroke-linejoin:miter;stroke-opacity:1" id="path4556-7" d="m 114.78449,196.23718 c 0.15081,-1.55627 0.29873,-3.14355 0.44356,-4.75687 0.0995,-19.14679 -0.23609,-41.87946 -1.31776,-60.03671 0.83018,18.16743 0.91377,40.89668 0.5628,60.02782 0.10683,1.61518 0.21058,3.20552 0.3114,4.76576 z"/><path style="fill:#000;fill-rule:evenodd;stroke:none;stroke-width:1px;stroke-linecap:butt;stroke-linejoin:miter;stroke-opacity:1" id="path4560-6" d="m 133.70833,191.86619 c 0.0756,-1.69444 0.16395,-3.42037 0.26171,-5.17194 -0.25852,-19.19918 0.62048,-41.68467 -1.5473,-60.1873 1.94541,18.51533 0.84383,40.97611 0.88008,60.19242 0.12466,1.75258 0.25877,3.47677 0.40551,5.16682 z"/><path style="fill:#000;fill-rule:evenodd;stroke:none;stroke-width:1px;stroke-linecap:butt;stroke-linejoin:miter;stroke-opacity:1" id="path4564-3" d="m 143.37594,192.27757 c 0.14899,-1.68657 0.29817,-3.44641 0.44353,-5.26391 0.19638,-14.24959 0.15729,-31.9935 -2.06525,-45.31435 -0.7955,-4.51128 -2.58529,-8.80956 -3.05781,-13.34112 0.35035,4.5164 2.0376,8.94693 2.70161,13.3991 2.10998,13.29337 2.04354,31.0024 1.74062,45.24444 0.0816,1.81991 0.15937,3.58485 0.2373,5.27584 z"/><path style="fill:#000;fill-rule:evenodd;stroke:none;stroke-width:1px;stroke-linecap:butt;stroke-linejoin:miter;stroke-opacity:1" id="path4568-2" d="m 172.0427,202.51014 c 0.21043,-2.06597 0.41748,-4.26643 0.6127,-6.56771 0.25571,-15.47198 -0.0261,-35.37594 -3.41345,-49.17464 3.11506,13.83566 3.12123,33.72237 2.59303,49.15382 0.0784,2.30474 0.14476,4.51289 0.20772,6.58853 z"/><path style="fill:#fca;fill-opacity:.50196078;fill-rule:evenodd;stroke:#000;stroke-width:.40725312;stroke-linecap:butt;stroke-linejoin:miter;stroke-miterlimit:4;stroke-dasharray:none;stroke-opacity:1" id="path4528-2-7" d="m 181.62,146.78719 c 1.06044,2.10611 1.53561,4.73537 2.32463,7.06235 -9.52282,-2.39562 -15.38757,-4.71822 -17.6997,-9.36511 -2.11383,-4.24833 -7.90219,-9.27257 -11.30487,-12.74046 -6.62681,-6.75385 -11.02503,-25.53185 -11.02503,-25.53185 l 3.80153,-1.69508 c 2.15698,8.07107 4.01237,16.13861 10.319,24.25816 9.97879,7.46679 10.54177,12.85765 13.36456,15.42679 3.21081,1.71065 6.65868,2.39361 10.21988,2.5852 z"/><path style="fill:#ffb380;fill-opacity:.78431373;fill-rule:evenodd;stroke:#000;stroke-width:.81450623px;stroke-linecap:butt;stroke-linejoin:miter;stroke-opacity:1" id="path4524-8-3" d="m 158.80835,97.765364 c 11.4031,15.366406 17.13762,32.351566 23.00991,49.297386 -4.23351,-0.59833 -11.00727,-0.71952 -13.82672,-7.21836 -2.81692,-6.49303 -7.26183,-7.88426 -10.29293,-11.34214 -5.6561,-6.45246 -7.21296,-15.64373 -9.9654,-23.97885 z"/><path style="fill:#faa;fill-rule:evenodd;stroke:#000;stroke-width:.81450623px;stroke-linecap:butt;stroke-linejoin:miter;stroke-opacity:1" id="path4490-5" d="m 93.616601,34.548379 c 0.103556,-10.387541 -0.07225,-20.775083 1.337012,-31.1626248 -4.709858,2.1565666 -9.126209,5.0392142 -12.033092,9.1533778 0.597106,4.947917 3.136704,10.254141 5.990832,15.021223 1.471479,2.457709 2.382137,5.628728 3.573931,8.11934 z"/><path style="display:inline;fill:#ffd42a;fill-opacity:1;fill-rule:evenodd;stroke:#000;stroke-width:.39006665;stroke-linecap:butt;stroke-linejoin:miter;stroke-miterlimit:4;stroke-dasharray:none;stroke-opacity:1" id="path4647-3-4-0-84-5-1" d="m 133.7027,74.510157 c 1.12033,-0.02061 0.90293,1.242904 -0.0532,1.206781 l -11.63518,0.216381 c -1.41124,-0.579716 -0.52086,-1.421517 0.77607,-1.085728 z"/><path style="display:inline;fill:#ffd42a;fill-opacity:1;fill-rule:evenodd;stroke:#000;stroke-width:.40362504;stroke-linecap:butt;stroke-linejoin:miter;stroke-miterlimit:4;stroke-dasharray:none;stroke-opacity:1" id="path4647-3-4-0-84-8-0-8" d="m 134.90186,69.672161 c 0.14032,0.568876 -0.12512,1.042307 -1.1588,1.006534 l -11.60798,-4.939039 c -1.52559,-0.574191 -0.56307,-1.407977 0.83896,-1.075382 z"/><path style="display:inline;fill:#ffd42a;fill-opacity:1;fill-rule:evenodd;stroke:#000;stroke-width:.40362504;stroke-linecap:butt;stroke-linejoin:miter;stroke-miterlimit:4;stroke-dasharray:none;stroke-opacity:1" id="path4647-3-4-0-84-8-5-3" d="m 134.47852,65.014094 c 0.14032,0.568881 -0.12515,1.042286 -1.1588,1.006526 L 121.7232,60.697286 c -1.52558,-0.574191 -0.56306,-1.407984 0.83895,-1.075388 z"/><path style="display:inline;fill:#ffd42a;fill-opacity:1;fill-rule:evenodd;stroke:#000;stroke-width:.40362504;stroke-linecap:butt;stroke-linejoin:miter;stroke-miterlimit:4;stroke-dasharray:none;stroke-opacity:1" id="path4647-3-4-0-84-8-0-0-55" d="m 134.46808,59.955123 c 0.1403,0.56888 -0.12515,1.042293 -1.15882,1.006534 l -12.57687,-5.450208 c -1.52557,-0.574187 -0.56304,-1.407981 0.83897,-1.075382 z"/><path style="display:inline;fill:#ffd42a;fill-opacity:1;fill-rule:evenodd;stroke:#000;stroke-width:.40362504;stroke-linecap:butt;stroke-linejoin:miter;stroke-miterlimit:4;stroke-dasharray:none;stroke-opacity:1" id="path4647-3-4-0-84-8-0-0-5-6" d="m 134.36208,55.089529 c 0.14031,0.568874 -0.12512,1.042296 -1.1588,1.006526 l -13.55391,-5.861593 c -1.52559,-0.574185 -0.56306,-1.407978 0.83895,-1.075381 z"/><path id="path5524-0" d="m 134.75953,49.794848 c 0.1403,0.568875 -0.12514,1.042298 -1.15882,1.006528 l -14.75855,-5.491299 c -1.52559,-0.574186 -0.56307,-1.407979 0.83897,-1.075382 z" style="display:inline;fill:#ffd42a;fill-opacity:1;fill-rule:evenodd;stroke:#000;stroke-width:.40362504;stroke-linecap:butt;stroke-linejoin:miter;stroke-miterlimit:4;stroke-dasharray:none;stroke-opacity:1"/><path id="path5524-3-3" d="m 134.64244,44.783895 c 0.1403,0.568875 -0.12514,1.042296 -1.15882,1.006527 l -16.03899,-5.388334 c -1.52557,-0.574187 -0.56303,-1.40798 0.83898,-1.075382 z" style="display:inline;fill:#ffd42a;fill-opacity:1;fill-rule:evenodd;stroke:#000;stroke-width:.40362504;stroke-linecap:butt;stroke-linejoin:miter;stroke-miterlimit:4;stroke-dasharray:none;stroke-opacity:1"/><path id="path5524-3-0-2-1" d="m 135.3226,35.104078 c 0.14031,0.568876 -0.12514,1.042297 -1.15882,1.006528 l -16.92691,-4.771887 c -1.52557,-0.574187 -0.56306,-1.407978 0.83895,-1.075382 z" style="display:inline;fill:#ffd42a;fill-opacity:1;fill-rule:evenodd;stroke:#000;stroke-width:.40362504;stroke-linecap:butt;stroke-linejoin:miter;stroke-miterlimit:4;stroke-dasharray:none;stroke-opacity:1"/><path style="fill:#faa;fill-rule:evenodd;stroke:#000;stroke-width:.81450623px;stroke-linecap:butt;stroke-linejoin:miter;stroke-opacity:1" id="path4490-3-5" d="m 161.36958,33.993776 c 0.77052,-10.359443 1.81941,-20.695388 1.28885,-31.1646545 4.51177,2.5450763 8.67002,5.7889736 11.22054,10.1330595 -1.01116,4.88016 -3.98807,9.953972 -7.23305,14.464098 -1.67298,2.325232 -2.84713,5.408417 -4.24419,7.78996 z"/><path id="path5524-3-0-4" d="m 135.07691,39.144595 c 0.1403,0.568875 -0.12515,1.042297 -1.15883,1.006527 l -16.36126,-4.360498 c -1.52557,-0.574186 -0.56305,-1.407981 0.83895,-1.075381 z" style="display:inline;fill:#ffd42a;fill-opacity:1;fill-rule:evenodd;stroke:#000;stroke-width:.40362504;stroke-linecap:butt;stroke-linejoin:miter;stroke-miterlimit:4;stroke-dasharray:none;stroke-opacity:1"/><path id="path5524-3-0-2-9-6" d="m 136.50483,29.740183 c 0.14029,0.568875 -0.12515,1.042297 -1.15883,1.006529 l -8.41262,0.431463 c -1.52558,-0.574186 -0.56306,-1.40798 0.83895,-1.075382 z" style="display:inline;fill:#ffd42a;fill-opacity:1;fill-rule:evenodd;stroke:#000;stroke-width:.40362504;stroke-linecap:butt;stroke-linejoin:miter;stroke-miterlimit:4;stroke-dasharray:none;stroke-opacity:1"/><path style="fill:none;fill-rule:evenodd;stroke:#000;stroke-width:.40725312;stroke-linecap:butt;stroke-linejoin:miter;stroke-miterlimit:4;stroke-dasharray:none;stroke-opacity:1" id="path4507-8-5" d="m 173.01501,11.781572 c -0.94673,8.232683 -8.40678,13.795981 -10.43984,22.000839 l -0.48428,-0.330522 c 1.55038,-9.414053 2.28593,-19.996739 1.7227,-29.7741351"/><path id="path4466-5" d="m 127.1447,83.194985 c 2.51735,-18.64958 6.12911,-37.29916 5.75943,-55.948739 14.01097,-3.391374 27.30002,-1.70588 30.23701,7.40498 0.15155,7.834846 -4.40043,13.70301 -8.58673,25.897561 -1.56428,4.556685 -3.97526,9.321812 -3.9606,15.035525 0.0323,12.614448 15.02614,21.315753 16.45551,34.556568 -10.00077,8.79077 -23.75818,13.99959 -35.9861,19.43291 -1.85627,0.82482 -2.65387,-0.41688 -2.78311,-2.11719 z" style="fill:#ff8080;fill-rule:evenodd;stroke:#000;stroke-width:.81450623px;stroke-linecap:butt;stroke-linejoin:miter;stroke-opacity:1"/><path style="display:inline;fill:url(#linearGradient5134);fill-opacity:1;fill-rule:evenodd;stroke:#000;stroke-width:.40362504;stroke-linecap:butt;stroke-linejoin:miter;stroke-miterlimit:4;stroke-dasharray:none;stroke-opacity:1" id="path4647-3-4-0-84-0" d="m 131.83493,74.414094 c 0.1403,0.568884 -0.12514,1.042299 -1.15882,1.006543 l -9.02677,-4.65764 c -1.52559,-0.574178 -0.56307,-1.40798 0.83896,-1.075368 z"/><path style="fill:none;fill-rule:evenodd;stroke:#000;stroke-width:.40725312;stroke-linecap:butt;stroke-linejoin:miter;stroke-miterlimit:4;stroke-dasharray:none;stroke-opacity:1" id="path4507-2" d="m 84.006103,11.367256 c 0.28792,8.281935 7.281099,14.421806 8.654129,22.762541 l 0.509066,-0.290895 C 92.373745,24.331264 92.483516,13.723615 93.823811,4.0221548"/><path style="fill:#ff8080;fill-rule:evenodd;stroke:#000;stroke-width:.81450623px;stroke-linecap:butt;stroke-linejoin:miter;stroke-opacity:1" id="path4328-8" d="M 88.268561,113.2263 C 88.447662,97.162759 104.64193,88.969201 104.16723,76.282311 103.95691,70.661086 102.57797,65.167668 100.16506,59.243303 96.536149,50.333334 92.358897,49.182386 91.875512,35.012704 c 2.060139,-7.857316 9.242178,-11.121119 26.012968,-7.972152 3.40386,18.718145 6.19633,37.436288 9.25622,56.154433 l 1.13541,44.261615 c 0.0687,1.84619 -0.97775,3.01841 -2.57526,2.4309 -13.11061,-4.82167 -26.135667,-9.45808 -37.436289,-16.6612 z"/><path id="path4330-5" d="m 88.268561,113.2263 c 0.179101,-16.063541 16.373369,-24.257099 15.898669,-36.943989 -0.21032,-5.621225 -1.58926,-11.114643 -4.00217,-17.039008 17.41313,10.273809 -1.118065,47.478987 6.6723,63.429167 -6.49679,-2.71978 -12.760572,-5.74395 -18.568799,-9.44617 z" style="fill:#faa;fill-rule:evenodd;stroke:#000;stroke-width:.81450623px;stroke-linecap:butt;stroke-linejoin:miter;stroke-opacity:1"/><path id="path4332-5" d="m 154.55441,60.548787 c -1.56428,4.556685 -3.97526,9.321812 -3.9606,15.035525 0.0323,12.614448 15.02614,21.315753 16.45551,34.556568 -5.39629,4.74339 -11.88633,8.44387 -18.63967,11.69946 4.64378,-23.422459 -10.40127,-45.963783 6.14476,-61.291553 z" style="fill:#faa;fill-rule:evenodd;stroke:#000;stroke-width:.81450623px;stroke-linecap:butt;stroke-linejoin:miter;stroke-opacity:1"/><path style="fill:none;fill-rule:evenodd;stroke:#000;stroke-width:.40725312;stroke-linecap:butt;stroke-linejoin:miter;stroke-miterlimit:4;stroke-dasharray:none;stroke-opacity:1" id="path4334-2" d="M 114.76826,125.97993 C 104.72814,102.28235 121.57881,67.334854 100.65985,59.074051"/><path style="fill:none;fill-rule:evenodd;stroke:#000;stroke-width:.40725312;stroke-linecap:butt;stroke-linejoin:miter;stroke-miterlimit:4;stroke-dasharray:none;stroke-opacity:1" id="path4336-9" d="M 140.14885,125.25269 C 143.9909,102.9577 135.54163,66.816727 154.0391,60.528526"/><path style="display:inline;fill:#fea;fill-rule:evenodd;stroke:#000;stroke-width:.40362504;stroke-linecap:butt;stroke-linejoin:miter;stroke-miterlimit:4;stroke-dasharray:none;stroke-opacity:1" id="path4647-3-4-0-8-8" d="m 123.05541,74.255632 c -0.13454,0.571596 0.13568,1.039717 1.16886,0.9835 l 7.12265,-4.010661 c 1.51962,-0.604315 0.54878,-1.418984 -0.84975,-1.058663 z"/><path style="display:inline;fill:#fea;fill-rule:evenodd;stroke:#000;stroke-width:.40362504;stroke-linecap:butt;stroke-linejoin:miter;stroke-miterlimit:4;stroke-dasharray:none;stroke-opacity:1" id="path4647-3-4-0-81-5" d="m 122.07216,69.42965 c -0.13454,0.571612 0.13568,1.039733 1.16888,0.9835 l 8.69319,-3.907045 c 1.51965,-0.604319 0.54878,-1.418981 -0.84972,-1.058675 z"/><path style="display:inline;fill:#fea;fill-rule:evenodd;stroke:#000;stroke-width:.40362504;stroke-linecap:butt;stroke-linejoin:miter;stroke-miterlimit:4;stroke-dasharray:none;stroke-opacity:1" id="path4647-3-4-0-8-9-0" d="m 121.50942,64.666076 c -0.13454,0.571599 0.13568,1.039712 1.16887,0.983502 l 9.98752,-4.213076 c 1.51961,-0.604328 0.54878,-1.418991 -0.84975,-1.058675 z"/><path style="display:inline;fill:#fea;fill-rule:evenodd;stroke:#000;stroke-width:.40362504;stroke-linecap:butt;stroke-linejoin:miter;stroke-miterlimit:4;stroke-dasharray:none;stroke-opacity:1" id="path4647-3-4-0-1-7" d="m 120.70584,59.945112 c -0.13454,0.571592 0.13568,1.039713 1.16887,0.983494 l 11.2731,-4.573051 c 1.51962,-0.604319 0.54877,-1.418982 -0.84973,-1.05867 z"/><path style="display:inline;fill:#fea;fill-rule:evenodd;stroke:#000;stroke-width:.40362504;stroke-linecap:butt;stroke-linejoin:miter;stroke-miterlimit:4;stroke-dasharray:none;stroke-opacity:1" id="path4647-3-4-0-8-0-4" d="m 119.80584,54.54856 c -0.13454,0.571596 0.13568,1.039718 1.16886,0.983496 l 12.71296,-4.727316 c 1.51963,-0.604318 0.54878,-1.418981 -0.84974,-1.058671 z"/><path style="display:inline;fill:#fea;fill-rule:evenodd;stroke:#000;stroke-width:.40362504;stroke-linecap:butt;stroke-linejoin:miter;stroke-miterlimit:4;stroke-dasharray:none;stroke-opacity:1" id="path4647-3-4-0-2-8" d="m 119.14403,49.359502 c -0.13454,0.571594 0.13568,1.039715 1.16888,0.983494 l 13.76629,-4.548124 c 1.51963,-0.60432 0.54875,-1.418981 -0.84975,-1.058671 z"/><path style="display:inline;fill:#fea;fill-rule:evenodd;stroke:#000;stroke-width:.40362504;stroke-linecap:butt;stroke-linejoin:miter;stroke-miterlimit:4;stroke-dasharray:none;stroke-opacity:1" id="path4647-3-4-0-8-4-2" d="m 118.1361,44.172313 c -0.13454,0.571594 0.13569,1.039715 1.16887,0.983494 l 15.41693,-5.014593 c 1.51962,-0.604319 0.54877,-1.418981 -0.84975,-1.058672 z"/><path style="display:inline;fill:#fea;fill-rule:evenodd;stroke:#000;stroke-width:.42566383;stroke-linecap:butt;stroke-linejoin:miter;stroke-miterlimit:4;stroke-dasharray:none;stroke-opacity:1" id="path4647-3-4-40-3-0" d="m 116.16885,29.745933 c -0.12151,0.698301 0.12435,1.133317 1.06434,1.06778 l 9.39164,0.518732 c 1.38167,-0.734018 0.49706,-1.732867 -0.77479,-1.296748 z"/><path style="display:inline;fill:#fea;fill-rule:evenodd;stroke:#000;stroke-width:.40362504;stroke-linecap:butt;stroke-linejoin:miter;stroke-miterlimit:4;stroke-dasharray:none;stroke-opacity:1" id="path4647-3-4-0-8-4-9-4" d="m 117.33007,39.306077 c -0.13454,0.571595 0.13569,1.039716 1.16887,0.983495 l 16.77527,-4.510131 c 1.51962,-0.604319 0.54877,-1.418982 -0.84974,-1.058672 z"/><path style="display:inline;fill:#fea;fill-rule:evenodd;stroke:#000;stroke-width:.40362504;stroke-linecap:butt;stroke-linejoin:miter;stroke-miterlimit:4;stroke-dasharray:none;stroke-opacity:1" id="path4647-3-4-0-8-4-9-2-5" d="m 116.62759,34.776818 c -0.13454,0.571595 0.13569,1.039718 1.16887,0.983494 l 18.37231,-4.859329 c 1.51964,-0.604321 0.54877,-1.418983 -0.84973,-1.058673 z"/><path style="fill:#ff2a2a;fill-rule:evenodd;stroke:none;stroke-width:1px;stroke-linecap:butt;stroke-linejoin:miter;stroke-opacity:1" id="path4468-7" d="m 96.393464,49.769727 c 3.557574,2.579035 7.195296,3.96033 10.934896,4.374054 3.74532,0.121846 7.43456,-0.729054 11.07435,-2.214269 -3.75591,1.217054 -7.42644,1.744381 -11.01112,1.34181 -3.60275,-0.111439 -7.2735,-1.161781 -10.998126,-3.501595 z"/><path style="fill:#ff2a2a;fill-rule:evenodd;stroke:none;stroke-width:1px;stroke-linecap:butt;stroke-linejoin:miter;stroke-opacity:1" id="path4468-3-8" d="m 135.58623,50.561708 c 3.88042,2.061579 7.67436,2.925857 11.43522,2.817779 3.72612,-0.397937 7.26199,-1.751483 10.66107,-3.726387 -3.55121,1.725405 -7.11336,2.755904 -10.71925,2.853578 -3.58348,0.388502 -7.3643,-0.143439 -11.37704,-1.94497 z"/><path style="display:inline;fill:#ffd42a;fill-rule:evenodd;stroke:#000;stroke-width:.40725312;stroke-linecap:butt;stroke-linejoin:miter;stroke-miterlimit:4;stroke-dasharray:none;stroke-opacity:1" id="path4647-3-4-40-3-9-1" d="m 125.80564,31.817195 c -0.41299,-1.218955 -0.15264,-1.491917 -0.99509,-0.567016 -1.3024,2.305406 -1.10487,5.054346 -1.36471,7.686203 -0.24495,2.48112 0.94443,2.342503 0.8935,0.33619 -0.0672,-2.646412 -0.22995,-5.292862 1.4663,-7.455377 z"/><path style="display:inline;fill:#ffd42a;fill-rule:evenodd;stroke:#000;stroke-width:.40725312;stroke-linecap:butt;stroke-linejoin:miter;stroke-miterlimit:4;stroke-dasharray:none;stroke-opacity:1" id="path4647-3-4-40-3-9-0-4" d="m 127.24348,30.831452 c -0.92651,-0.345714 -1.54584,-0.05002 -1.58056,1.457402 1.82254,1.611246 1.68129,4.057501 2.10739,6.504627 0.42727,2.453849 1.45782,1.794047 1.08032,-0.330228 -0.47312,-2.662464 -0.964,-5.172243 -1.60715,-7.631801 z"/><path style="display:inline;fill:#fea;fill-rule:evenodd;stroke:#000;stroke-width:.40725312;stroke-linecap:butt;stroke-linejoin:miter;stroke-miterlimit:4;stroke-dasharray:none;stroke-opacity:1" id="path4647-3-4-40-3-9-0-7-2" d="m 126.54448,29.980838 c -0.32684,-0.231518 -0.71052,-0.289573 -1.05057,-0.01073 -7.88857,6.129152 1.08099,12.647224 1.76516,1.065205 -0.11659,-0.418206 -0.38776,-0.822846 -0.71458,-1.054379 z m -0.78792,1.944324 c 0.15633,0.110718 0.28676,0.304931 0.34254,0.504913 -0.68785,7.725941 -5.72601,2.395016 -0.84322,-0.511833 0.16262,-0.133332 0.34436,-0.10387 0.50069,0.0068 z"/><path style="display:inline;fill:#fea;fill-rule:evenodd;stroke:#000;stroke-width:.40725312;stroke-linecap:butt;stroke-linejoin:miter;stroke-miterlimit:4;stroke-dasharray:none;stroke-opacity:1" id="path4647-3-4-40-3-9-0-7-1-3" d="m 125.60097,30.072001 c -0.28846,0.311823 -0.49044,0.772294 -0.45828,1.326269 0.53001,12.702365 8.55191,4.218052 1.43957,-1.765768 -0.31754,-0.03709 -0.6928,0.12773 -0.98129,0.439499 z m 1.37484,1.646382 c 4.29014,3.938049 -0.4899,8.726191 -0.68958,0.842198 -0.0498,-1.966363 -0.4427,-1.881562 0.68958,-0.842198 z"/></g></svg>