<svg xmlns="http://www.w3.org/2000/svg" xmlns:svg="http://www.w3.org/2000/svg" id="svg4206" version="1.1" viewBox="0 0 256 256"><style id="style3">svg{cursor:default}</style><metadata id="metadata4211"/><g id="layer4"><g id="g4572" transform="matrix(1.157625,0,0,1.157625,-19.461353,-2.9438872)"><path id="path4443" d="m 108.21429,18.678573 13.39285,32.678571 c 29.50569,-7.036978 15.47619,-20.47619 23.21429,-30.714285 z" style="fill:#f55;fill-rule:evenodd;stroke:#000;stroke-width:1px;stroke-linecap:butt;stroke-linejoin:miter;stroke-opacity:1"/><path id="path4439" d="m 111.54812,13.754783 c 7.20906,-1.906685 20.75688,-1.78915 31.56063,-0.389095 2.21212,0.777868 1.34276,6.350643 1.69477,8.446089 -5.34063,-1.206159 -28.78656,-1.844105 -34.17306,0.48527 0.22787,-2.129343 -1.39079,-7.679359 0.91766,-8.542264 z" style="fill:#ff8080;fill-rule:evenodd;stroke:#000;stroke-width:1px;stroke-linecap:butt;stroke-linejoin:miter;stroke-opacity:1"/><path id="path4433" d="m 79.375,196.98214 c 39.5651,37.63563 102.22061,7.50105 105.80357,-2.76785 z" style="fill:#f55;fill-rule:evenodd;stroke:#000;stroke-width:1px;stroke-linecap:butt;stroke-linejoin:miter;stroke-opacity:1"/><path id="path4429" d="m 130,202.96429 c -4.86791,2.9999 -14.30311,4.34781 -52.321429,-4.64286 l 0.535714,-36.78572 c -3.631974,10.42008 -6.50633,18.31475 -11.428571,33.03572 -1.356287,6.58582 -2.442672,10.20272 -3.571429,14.28571 C 52.450974,208.2229 44.283639,204.25097 35,201.71429 c 1.370733,-4.58165 2.688835,-9.21593 4.285714,-13.57143 C 39.230161,127.63803 53.00488,101.81361 68.571428,37.607144 86.802982,27.248399 95.714283,25.464287 109.28571,19.392859 l 17.5,25.535714 z" style="fill:#ff8080;fill-rule:evenodd;stroke:#000;stroke-width:1px;stroke-linecap:butt;stroke-linejoin:miter;stroke-opacity:1"/><path id="path4431" d="m 124.82143,204.92857 c 2.99462,4.687 45.39496,1.19215 61.96428,-9.28571 l -2.5,-29.82143 c 2.73368,9.15814 4.97877,16.99008 8.79763,29.09368 0.19105,4.71206 1.67866,9.20803 2.80952,13.76346 8.34022,-1.74686 16.38576,-2.60967 25.17857,-5.71428 -0.6815,-5.05953 -1.86189,-10.11905 -3.03572,-15.17858 C 215.08037,137.98794 200.58891,80.328241 186.42857,36.892858 174.56637,30.24315 161.08447,25.213145 147.85714,19.928573 l -17.32143,20.535714 -4.46428,6.607143 c 0,0 -0.8079,17.331276 -0.77373,41.622356 0.0325,23.126554 0.91103,52.786114 0.7661,71.089554 -0.1195,15.0905 -1.24237,45.14523 -1.24237,45.14523 z" style="fill:#ff8080;fill-rule:evenodd;stroke:#000;stroke-width:1px;stroke-linecap:butt;stroke-linejoin:miter;stroke-opacity:1"/><path id="path4435" d="m 103.57143,21.000001 c 1.77356,11.313713 9.01112,17.770538 13.57143,26.607143 l 5.89285,-8.392857 c -4.63089,-7.80958 -12.11606,-12.764892 -12.14285,-25.178571 -2.42883,1.065549 -4.78617,4.45328 -7.32143,6.964285 z" style="fill:#faa;fill-rule:evenodd;stroke:#000;stroke-width:1px;stroke-linecap:butt;stroke-linejoin:miter;stroke-opacity:1"/><path id="path4437" d="m 132.32143,38.500001 c 2.95414,3.011795 7.72135,10.897786 6.96428,10.178572 4.70837,-9.269861 8.59662,-17.992983 12.85715,-26.964286 -2.60639,-2.510157 -7.14008,-7.339178 -8.28732,-7.991456 -0.0769,12.276162 -6.79431,17.052924 -11.53411,24.77717 z" style="fill:#faa;fill-rule:evenodd;stroke:#000;stroke-width:1px;stroke-linecap:butt;stroke-linejoin:miter;stroke-opacity:1"/><path id="path4441" d="m 120.31753,24.071 -0.14794,3.306199 13.65159,-0.197448 -0.5645,-3.214286 z" style="fill:#ececec;fill-rule:evenodd;stroke:#000;stroke-width:.5;stroke-linecap:butt;stroke-linejoin:miter;stroke-miterlimit:4;stroke-dasharray:none;stroke-opacity:1"/><path id="path4445" d="m 141.78571,70.375001 -0.625,27.678571 c 0.41196,2.541448 2.96067,4.885008 4.46429,4.999998 l 19.46428,1.33929 c 4.20793,0.22879 4.95184,-2.18453 5,-3.66072 l 0.71429,-28.303568 c -2.0813,0.11961 -17.22538,-0.220417 -29.01786,-2.053571 z" style="fill:none;fill-rule:evenodd;stroke:#000;stroke-width:.5;stroke-linecap:butt;stroke-linejoin:miter;stroke-miterlimit:4;stroke-dasharray:none;stroke-opacity:1"/><path id="path4447" d="m 141.78571,76.714287 c 11.41484,2.141878 21.17687,1.568402 28.83929,2.232143" style="fill:none;fill-rule:evenodd;stroke:#000;stroke-width:.5;stroke-linecap:butt;stroke-linejoin:miter;stroke-miterlimit:4;stroke-dasharray:none;stroke-opacity:1"/><path id="path4449" d="M 78.20121,162.39475 C 77.535155,133.02809 78.883028,103.9834 80.892857,75.285715" style="fill:none;fill-rule:evenodd;stroke:#000;stroke-width:1px;stroke-linecap:butt;stroke-linejoin:miter;stroke-opacity:1"/><path id="path4451" d="m 176.60714,82.964287 c 1.48679,28.155413 4.58785,55.665103 7.72097,83.161983" style="fill:none;fill-rule:evenodd;stroke:#000;stroke-width:1px;stroke-linecap:butt;stroke-linejoin:miter;stroke-opacity:1"/><path id="path4453" d="M 39.395949,188.19351 66.29126,194.7595" style="fill:none;fill-rule:evenodd;stroke:#000;stroke-width:1px;stroke-linecap:butt;stroke-linejoin:miter;stroke-opacity:1"/><path id="path4455" d="m 193.31794,194.88577 24.4962,-6.56599" style="fill:none;fill-rule:evenodd;stroke:#000;stroke-width:1px;stroke-linecap:butt;stroke-linejoin:miter;stroke-opacity:1"/><path id="path4457" d="m 39.464285,176.53571 0.484564,0.12328 c 2.07188,-8.81862 4.088904,-18.03164 7.908294,-26.37328 -4.131784,8.22216 -6.478613,17.37501 -8.877422,26.12672 l 0.484564,0.12328 z" style="fill:#000;fill-rule:evenodd;stroke:none;stroke-width:1px;stroke-linecap:butt;stroke-linejoin:miter;stroke-opacity:1"/><path id="path4461" d="m 190.2745,183.79912 c -1.5026,-15.98607 -3.64464,-33.19303 -3.31022,-49.22769 -0.66817,16.0426 1.14365,33.30168 2.3137,49.31093 z" style="fill:#000;fill-rule:evenodd;stroke:none;stroke-width:1px;stroke-linecap:butt;stroke-linejoin:miter;stroke-opacity:1"/><path id="path4465" d="m 177.55115,88.63847 c 0.65647,-8.334624 0.51975,-18.48561 1.91313,-27.102755 -1.72237,8.563016 -1.92649,18.767673 -2.90829,27.004387 z" style="fill:#000;fill-rule:evenodd;stroke:none;stroke-width:1px;stroke-linecap:butt;stroke-linejoin:miter;stroke-opacity:1"/><path id="path4469" d="m 80.416542,90.270685 c 0.02096,-4.072679 -1.207008,-10.376412 -2.023685,-14.270684 0.496737,3.999058 1.37341,10.275327 1.024719,14.225238 z" style="fill:#000;fill-rule:evenodd;stroke:none;stroke-width:1px;stroke-linecap:butt;stroke-linejoin:miter;stroke-opacity:1"/><path id="path4473" d="m 78.574185,198.45176 c 6.140437,-12.93809 10.091127,-28.14351 12.675814,-41.91605 -2.916252,13.73071 -7.1803,28.77923 -13.574186,41.47681 z" style="fill:#000;fill-rule:evenodd;stroke:none;stroke-width:1px;stroke-linecap:butt;stroke-linejoin:miter;stroke-opacity:1"/><path id="path4477" d="m 185.10058,196.12326 c -8.53426,-4.59989 -17.45123,-12.77716 -24.92201,-19.05183 7.1971,6.47836 15.97301,14.98365 24.43241,19.92377 z" style="fill:#000;fill-rule:evenodd;stroke:none;stroke-width:1px;stroke-linecap:butt;stroke-linejoin:miter;stroke-opacity:1"/><ellipse id="path4293-1-3" cx="129.805" cy="171.715" rx="1.938" ry="1.952" style="fill:#e6e6e6;fill-opacity:1;stroke:#000;stroke-width:.50087172;stroke-miterlimit:4;stroke-dasharray:none;stroke-dashoffset:0"/><ellipse id="path4293-1-3-6" cx="129.805" cy="148.671" rx="1.938" ry="1.952" style="fill:#e6e6e6;fill-opacity:1;stroke:#000;stroke-width:.50087172;stroke-miterlimit:4;stroke-dasharray:none;stroke-dashoffset:0"/><ellipse id="path4293-1-3-4" cx="129.805" cy="124.554" rx="1.938" ry="1.952" style="fill:#e6e6e6;fill-opacity:1;stroke:#000;stroke-width:.50087172;stroke-miterlimit:4;stroke-dasharray:none;stroke-dashoffset:0"/><ellipse id="path4293-1-3-48" cx="129.3" cy="101.447" rx="1.938" ry="1.952" style="fill:#e6e6e6;fill-opacity:1;stroke:#000;stroke-width:.50087172;stroke-miterlimit:4;stroke-dasharray:none;stroke-dashoffset:0"/><ellipse id="path4293-1-3-8" cx="129.3" cy="77.708" rx="1.938" ry="1.952" style="fill:#e6e6e6;fill-opacity:1;stroke:#000;stroke-width:.50087172;stroke-miterlimit:4;stroke-dasharray:none;stroke-dashoffset:0"/><ellipse id="path4293-1-3-45" cx="128.921" cy="55.106" rx="1.938" ry="1.952" style="fill:#e6e6e6;fill-opacity:1;stroke:#000;stroke-width:.50087172;stroke-miterlimit:4;stroke-dasharray:none;stroke-dashoffset:0"/><ellipse id="path4293-1-3-3" cx="126.696" cy="-32.106" rx="1.843" ry="1.162" transform="matrix(0.83698746,0.54722207,-0.54722207,0.83698746,0,0)" style="fill:#e6e6e6;fill-opacity:1;stroke:#000;stroke-width:.60000002;stroke-miterlimit:4;stroke-dasharray:none;stroke-dashoffset:0"/></g></g></svg>