<svg xmlns="http://www.w3.org/2000/svg" xmlns:svg="http://www.w3.org/2000/svg" xmlns:xlink="http://www.w3.org/1999/xlink" id="svg4206" version="1.1" viewBox="0 0 256 256"><style id="style3">svg{cursor:default}</style><defs id="defs4208"><linearGradient id="linearGradient4374"><stop style="stop-color:#f55;stop-opacity:1" id="stop4376" offset="0"/><stop style="stop-color:#ff8080;stop-opacity:1" id="stop4378" offset="1"/></linearGradient><linearGradient id="linearGradient4380" x1="128.929" x2="130" y1="222.429" y2="124.929" gradientUnits="userSpaceOnUse" xlink:href="#linearGradient4374"/></defs><metadata id="metadata4211"/><g id="layer4"><path style="fill:#f55;fill-rule:evenodd;stroke:#000;stroke-width:1;stroke-linecap:butt;stroke-linejoin:miter;stroke-opacity:1;stroke-miterlimit:4;stroke-dasharray:none" id="path4387" d="m 119.91402,8.0699767 c 8.16213,-1.0955384 22.52296,-0.026158 26.19222,1.2512841 0.95806,7.8055032 -27.99729,10.0682572 -26.19222,-1.2512841 z"/><path style="fill:#ff8080;fill-rule:evenodd;stroke:#000;stroke-width:1;stroke-linecap:butt;stroke-linejoin:miter;stroke-opacity:1;stroke-miterlimit:4;stroke-dasharray:none" id="path4396" d="m 67.895395,176.67948 13.513588,-0.64465 c 1.158784,-20.66843 10.022661,-46.84924 10.783344,-58.65551 1.258829,-19.538032 0.331837,-36.981312 -0.244101,-58.319459 0.654071,19.232649 2.182169,29.018649 3.81964,37.571357 l 68.406274,2.91683 c 0.51767,-11.437455 4.50603,-24.110733 5.55584,-36.043516 -0.76132,18.246322 -4.3387,35.28577 -2.28395,54.738978 2.30799,21.851 6.13683,41.03611 6.45082,65.82273 l 15.55635,1.38896 c -0.68654,-25.2903 0.66996,-50.08697 -2.05961,-75.8709 -2.85688,-26.98654 3.64573,-78.921338 -8.46176,-81.116276 -4.75961,-0.86286 -19.38796,-4.37255 -29.33334,-10.294132 l -33.48236,0.05056 C 105.24655,23.158368 88.486999,24.05222 85.052535,24.66277 71.401887,27.089468 74.980869,82.775006 73.696773,98.798079 71.618983,124.72478 66.936294,133.87169 67.895395,176.67948 Z"/><path style="fill:#faa;fill-rule:evenodd;stroke:#000;stroke-width:1;stroke-linecap:butt;stroke-linejoin:miter;stroke-opacity:1;stroke-miterlimit:4;stroke-dasharray:none" id="path4402" d="m 67.878532,174.90682 c -0.286473,3.10871 0.179487,6.38464 0.441969,9.61535 L 81.8418,183.65799 c -0.918478,-3.52804 -0.375969,-6.63867 -0.481932,-9.93455 z"/><path style="fill:#faa;fill-rule:evenodd;stroke:#000;stroke-width:1;stroke-linecap:butt;stroke-linejoin:miter;stroke-opacity:1;stroke-miterlimit:4;stroke-dasharray:none" id="path4404" d="m 173.61906,181.28832 c -0.0198,3.16118 -0.86475,6.68111 -0.79241,9.38496 2.30564,-0.19904 13.35588,0.51923 16.76537,0.92807 -0.0688,-3.1477 -0.0558,-6.21351 -0.27778,-9.51437 -5.47731,-0.86776 -10.44237,-1.05182 -15.69525,-0.79866 z"/><path style="fill:url(#linearGradient4380);fill-opacity:1;fill-rule:evenodd;stroke:#000;stroke-width:1;stroke-linecap:butt;stroke-linejoin:miter;stroke-opacity:1;stroke-miterlimit:4;stroke-dasharray:none" id="path4406" d="m 95.559526,109.06242 c -9.685831,38.08616 -22.875022,65.64346 -10.658624,122.09229 16.012858,17.70838 74.976238,4.91042 83.605038,1.60841 17.45735,-54.17598 -2.68627,-107.51279 -4.88739,-118.70045 z"/><path style="fill:none;fill-rule:evenodd;stroke:#000;stroke-width:.55000001;stroke-linecap:butt;stroke-linejoin:miter;stroke-miterlimit:4;stroke-dasharray:none;stroke-opacity:1" id="path4435" d="m 85.387859,24.801662 c 4.441206,13.408264 7.095528,23.794936 6.814324,38.004053"/><path style="fill:none;fill-rule:evenodd;stroke:#000;stroke-width:.55000001;stroke-linecap:butt;stroke-linejoin:miter;stroke-miterlimit:4;stroke-dasharray:none;stroke-opacity:1" id="path4437" d="m 179.1749,28.641642 c -6.85756,9.743095 -9.43077,24.924708 -10.10468,38.508909"/><path style="fill:#faa;fill-rule:evenodd;stroke:#000;stroke-width:1;stroke-linecap:butt;stroke-linejoin:miter;stroke-opacity:1;stroke-miterlimit:4;stroke-dasharray:none" id="path4398" d="m 95.003949,92.186547 c 0.925199,4.910411 1.805023,13.310253 -0.416691,20.695513 25.558042,7.29842 47.540022,5.30298 69.725772,4.79191 -1.67883,-8.27822 0.0592,-13.29236 0.13891,-22.22336 -23.9401,0.09999 -46.6171,-1.145628 -69.447991,-3.264063 z"/><path style="fill:#faa;fill-rule:evenodd;stroke:#000;stroke-width:1;stroke-linecap:butt;stroke-linejoin:miter;stroke-opacity:1;stroke-miterlimit:4;stroke-dasharray:none" id="path4400" d="m 119.79687,8.3628297 c -0.98772,3.4681453 -0.83624,6.9315613 -6.94976,11.1067113 7.5731,10.684326 34.14732,9.830326 40.42369,0.907791 -2.82127,-4.074282 -7.25822,-6.690156 -7.15314,-10.7644381 -12.17536,2.8819941 -20.23938,1.7772281 -26.32079,-1.2500642 z"/><path style="fill:#faa;fill-rule:evenodd;stroke:#000;stroke-width:1px;stroke-linecap:butt;stroke-linejoin:miter;stroke-opacity:1" id="path4370" d="m 84.866072,231.22322 c 17.845478,-4.77893 55.264188,-4.95304 83.638398,1.65178 -1.02026,3.95555 -2.70224,7.75749 -4.04018,11.60714 -17.04267,-2.64556 -62.26433,-3.78207 -76.696432,-1.07143 -0.9796,-4.0224 -1.932364,-7.47911 -2.901786,-12.18749 z"/><path style="fill:none;fill-rule:evenodd;stroke:#000;stroke-width:.5;stroke-linecap:butt;stroke-linejoin:miter;stroke-miterlimit:4;stroke-dasharray:none;stroke-opacity:1" id="path4353" d="m 80.892857,170.55358 c 5.416965,-22.3987 15.645048,-31.93694 19.642853,-56.16072"/><path style="fill:none;fill-rule:evenodd;stroke:#000;stroke-width:.5;stroke-linecap:butt;stroke-linejoin:miter;stroke-miterlimit:4;stroke-dasharray:none;stroke-opacity:1" id="path4355" d="m 157.85714,117.78572 c 1.23895,16.76752 11.62544,31.7408 16.78572,53.03571"/><path style="fill:none;fill-rule:evenodd;stroke:#000;stroke-width:.5;stroke-linecap:butt;stroke-linejoin:miter;stroke-miterlimit:4;stroke-dasharray:none;stroke-opacity:1" id="path4357" d="m 127.85714,228.14286 c 0.25254,-46.29371 2.74268,-84.77971 1.42857,-110"/></g></svg>