<svg xmlns="http://www.w3.org/2000/svg" xmlns:svg="http://www.w3.org/2000/svg" xmlns:xlink="http://www.w3.org/1999/xlink" id="svg4206" version="1.1" viewBox="0 0 256 256"><style id="style3">svg{cursor:default}</style><defs id="defs4208"><linearGradient id="innoGrad3"><stop style="stop-color:#000;stop-opacity:.25098041" id="stop4676" offset="0"/><stop style="stop-color:#ff8080;stop-opacity:0" id="stop4678" offset="1"/></linearGradient><linearGradient id="innoGrad2"><stop style="stop-color:#000;stop-opacity:.25098041" id="stop4622" offset="0"/><stop style="stop-color:#000;stop-opacity:0" id="stop4624" offset="1"/></linearGradient><linearGradient id="innoGrad1"><stop style="stop-color:#000;stop-opacity:0" id="stop4604" offset="0"/><stop style="stop-color:#000;stop-opacity:.25098041" id="stop4606" offset="1"/></linearGradient><linearGradient id="linearGradient4608" x1="-93.036" x2="-117.321" y1="110.821" y2="98.857" gradientTransform="translate(245.97214,-19.192898)" gradientUnits="userSpaceOnUse" xlink:href="#innoGrad1"/><linearGradient id="linearGradient4626" x1="-86.607" x2="-118.571" y1="122.786" y2="128.5" gradientTransform="translate(245.97214,-19.192898)" gradientUnits="userSpaceOnUse" xlink:href="#innoGrad2"/><linearGradient id="linearGradient4680" x1="-106.95" x2="-109.349" y1="66.218" y2="42.353" gradientTransform="translate(245.97214,-19.192898)" gradientUnits="userSpaceOnUse" xlink:href="#innoGrad3"/></defs><metadata id="metadata4211"/><g id="layer4"><path style="fill:#ffe680;fill-rule:evenodd;stroke:#000;stroke-width:.5;stroke-linecap:butt;stroke-linejoin:miter;stroke-miterlimit:4;stroke-dasharray:none;stroke-opacity:1" id="path4432" d="m 166.42263,94.817532 -0.94702,2.52539 c -0.0943,0.71318 -0.89026,1.26019 1.51523,0.4735 -0.0326,1.67563 1.03928,0.21991 1.70463,0.18941 0.98193,1.142 1.42895,0.13196 1.60993,-0.56822 1.12342,1.23974 1.71518,-0.21591 1.57836,-0.47351 2.5522,0.4399 2.28362,-1.28972 1.89404,-1.89403 0.69302,0.42372 1.38452,0.83581 1.8309,-0.63135 0.70664,-0.21802 1.24268,0.14615 0.41038,-0.97859 1.12587,0.58198 1.54676,0.23868 1.32582,-0.94701 1.8066,-0.36849 -0.0135,-0.69289 -1.10485,-0.97858 -0.98476,-0.50011 -1.2271,-0.45216 -2.20971,-0.94702 -4.08533,-0.36897 -5.71125,2.08584 -7.60771,4.23001 z"/><path style="fill:#ffe680;fill-rule:evenodd;stroke:#000;stroke-width:.5;stroke-linecap:butt;stroke-linejoin:miter;stroke-miterlimit:4;stroke-dasharray:none;stroke-opacity:1" id="path4428" d="m 81.72672,92.139732 c -1.59666,0.0727 -3.02746,0.56002 -4.38692,1.22571 -0.30448,0.50508 -0.82312,1.01015 0.12627,1.51523 -0.10603,0.77518 4.4e-4,1.3591 1.07329,1.07329 0.12771,0.78112 0.60825,1.37225 2.27284,1.32582 -0.10829,2.09881 1.14323,1.22158 1.8309,1.57836 0.0397,0.84465 0.17845,1.570458 1.38896,1.01016 0.37122,0.476278 0.23101,1.691298 1.57836,0.757608 0.3337,1.73321 1.04395,0.73935 2.02665,0.85008 0.40062,0.58034 0.86295,0.72871 1.38262,0.47575 0.92137,-0.10915 1.45514,0.45924 2.26835,-0.73146 0.77687,0.29814 1.08037,-0.0664 1.26718,-0.59437 l -1.70463,-3.788068 c -0.82899,-3.54964 -3.7742,-4.95535 -9.12387,-4.69811 z"/><path style="fill:#ff8080;fill-rule:evenodd;stroke:#000;stroke-width:.5;stroke-linecap:butt;stroke-linejoin:miter;stroke-miterlimit:4;stroke-dasharray:none;stroke-opacity:1" id="path4408" d="m 153.60607,20.780317 c 0.77215,-0.962454 1.77185,-0.397562 4.54498,1.861925 2.10641,1.716256 -2.04168,21.209715 -0.21462,36.218432 0.81059,0.532387 0.823,1.104684 0.44642,1.696429 0.90699,0.890732 2.01635,1.701455 0.44643,3.571428 2.55123,3.958333 5.12855,7.916667 6.69643,11.875 L 158.74,80.19996 148.38285,61.539246 c 1.74057,-13.586366 2.94846,-27.231918 5.22322,-40.758929 z"/><path style="fill:#ffb380;fill-opacity:1;fill-rule:evenodd;stroke:#000;stroke-width:.5;stroke-linecap:butt;stroke-linejoin:miter;stroke-miterlimit:4;stroke-dasharray:none;stroke-opacity:1" id="path4430" d="m 155.87916,80.044055 c 1.88402,-3.138162 3.95742,-6.146298 11.36422,-5.492705 l 7.00793,16.099302 c -2.23314,0.23986 -4.97846,2.27234 -7.70241,4.23002 z"/><path style="fill:#f55;fill-rule:evenodd;stroke:#000;stroke-width:.5;stroke-linecap:butt;stroke-linejoin:miter;stroke-miterlimit:4;stroke-dasharray:none;stroke-opacity:1" id="path4424" d="m 92.62392,130.02138 c -0.93384,2.755 6.37607,6.59547 10.31251,9.64286 l 3.92857,-15.53571 z"/><path style="fill:#faa;fill-rule:evenodd;stroke:#000;stroke-width:.5;stroke-linecap:butt;stroke-linejoin:miter;stroke-miterlimit:4;stroke-dasharray:none;stroke-opacity:1" id="path4422" d="m 99.94536,114.53032 -7.36607,15.44642 c 5.0055,0.76527 9.93474,-1.44361 14.82142,-5.3125 l 1.78572,-7.32143 z"/><path style="fill:#f55;fill-rule:evenodd;stroke:#000;stroke-width:.5;stroke-linecap:butt;stroke-linejoin:miter;stroke-miterlimit:4;stroke-dasharray:none;stroke-opacity:1" id="path4420" d="m 97.57928,110.2446 c -3.27343,4.34523 10.13393,7.61904 10.80357,10.40178 l 4.41965,-16.51785 c -4.76191,2.03869 -12.99948,3.41113 -15.22322,6.11607 z"/><path style="fill:#faa;fill-rule:evenodd;stroke:#000;stroke-width:.5;stroke-linecap:butt;stroke-linejoin:miter;stroke-miterlimit:4;stroke-dasharray:none;stroke-opacity:1" id="path4418" d="m 104.98999,98.012462 c -2.72547,4.165528 -5.74505,8.184008 -7.81249,12.678558 1.82316,-1.6685 9.53138,-0.84138 16.11607,-4.73214 z"/><path style="fill:#f55;fill-rule:evenodd;stroke:#000;stroke-width:.5;stroke-linecap:butt;stroke-linejoin:miter;stroke-miterlimit:4;stroke-dasharray:none;stroke-opacity:1" id="path4416" d="m 103.29357,98.057102 c 3.45341,3.931668 6.08236,5.389958 9.10714,8.035718 l 2.8125,-10.848218 c -3.79739,0.56759 -10.57581,-1.06207 -11.91964,2.8125 z"/><path style="fill:#faa;fill-rule:evenodd;stroke:#000;stroke-width:.5;stroke-linecap:butt;stroke-linejoin:miter;stroke-miterlimit:4;stroke-dasharray:none;stroke-opacity:1" id="path4414" d="m 125.75396,67.344676 -8.71039,29.998146 c -7.01037,-1.1956 -12.42784,-1.52838 -13.75,0.35714 6.11397,-9.93538 13.82523,-20.083743 22.46039,-30.355286 z"/><path style="fill:#f55;fill-rule:evenodd;stroke:#000;stroke-width:.5;stroke-linecap:butt;stroke-linejoin:miter;stroke-miterlimit:4;stroke-dasharray:none;stroke-opacity:1" id="path4412" d="m 125.07929,205.46782 c 3.31488,-49.09444 10.25238,-97.33955 16.42856,-145.089288 l -13.39285,1.25 c -19.86002,49.454278 -4.51339,96.092018 -3.03571,143.839288 z"/><path id="path4600" d="m 125.07929,205.46782 c 3.31488,-49.09444 10.25238,-97.33955 16.42856,-145.089288 l -13.39285,1.25 c -19.86002,49.454278 -4.51339,96.092018 -3.03571,143.839288 z" style="fill:url(#linearGradient4608);fill-opacity:1;fill-rule:evenodd;stroke:none;stroke-width:.5;stroke-linecap:butt;stroke-linejoin:miter;stroke-miterlimit:4;stroke-dasharray:none;stroke-opacity:1"/><path style="fill:none;fill-rule:evenodd;stroke:#000;stroke-width:.5;stroke-linecap:butt;stroke-linejoin:miter;stroke-miterlimit:4;stroke-dasharray:none;stroke-opacity:1" id="path4670" d="m 167.93643,76.583889 c -6.39129,-0.368923 -9.79433,3.458825 -10.49108,4.508923"/><path style="fill:#f55;fill-rule:evenodd;stroke:#000;stroke-width:.5;stroke-linecap:butt;stroke-linejoin:miter;stroke-miterlimit:4;stroke-dasharray:none;stroke-opacity:1" id="path4436" d="m 140.79357,60.914246 c 1.42008,10.070737 -13.64182,93.427204 -11.42857,184.285714 3.57886,0.29435 8.80979,0.66005 13.03046,-0.26151 4.15731,0.96095 8.35903,1.52217 12.68382,0.97579 7.04575,-66.46392 14.76807,-157.328308 -7.5,-185.71428 z"/><path id="path4618" d="m 140.79357,60.914246 c 1.42008,10.070737 -13.64182,93.427204 -11.42857,184.285714 3.57886,0.29435 8.80979,0.66005 13.03046,-0.26151 4.15731,0.96095 8.35903,1.52217 12.68382,0.97579 7.04575,-66.46392 14.76807,-157.328308 -7.5,-185.71428 z" style="fill:url(#linearGradient4626);fill-opacity:1;fill-rule:evenodd;stroke:none;stroke-width:.5;stroke-linecap:butt;stroke-linejoin:miter;stroke-miterlimit:4;stroke-dasharray:none;stroke-opacity:1"/><path style="fill:#ff2a2a;fill-rule:evenodd;stroke:#000;stroke-width:.5;stroke-linecap:butt;stroke-linejoin:miter;stroke-miterlimit:4;stroke-dasharray:none;stroke-opacity:1" id="path4449" d="m 125.25891,67.795955 c 10.59704,-4.014907 17.42029,-6.64317 25.12755,-3.219861 -6.72554,-5.118056 4.3417,-51.859393 -16.93722,-52.435428 -19.48633,-0.527508 -5.16369,50.941312 -8.19033,55.655289 z"/><path id="path4672" d="m 125.25891,67.795955 c 10.59704,-4.014907 17.42029,-6.64317 25.12755,-3.219861 -6.72554,-5.118056 4.3417,-51.859393 -16.93722,-52.435428 -19.48633,-0.527508 -5.16369,50.941312 -8.19033,55.655289 z" style="fill:url(#linearGradient4680);fill-opacity:1;fill-rule:evenodd;stroke:none;stroke-width:.5;stroke-linecap:butt;stroke-linejoin:miter;stroke-miterlimit:4;stroke-dasharray:none;stroke-opacity:1"/><path style="fill:#ff8080;fill-rule:evenodd;stroke:#000;stroke-width:.5;stroke-linecap:butt;stroke-linejoin:miter;stroke-miterlimit:4;stroke-dasharray:none;stroke-opacity:1" id="path4410" d="m 125.52571,66.76246 c 3.58579,-2.392807 7.24824,-4.133983 11.07143,-4.508929 -12.1421,8.719953 -13.80209,17.374573 -13.75,25.446431 0.35337,54.761898 3.74278,104.094238 5.80357,164.285708 -4.34502,1.90763 -8.80974,2.25904 -13.39285,1.07143 -8.97051,-0.54591 -17.81133,-1.99782 -15.71429,-5.89286 0.76341,-1.41795 -1.29303,-2.00231 -2.5,-1.60714 -4.34395,1.42224 -8.16424,2.24976 -11.42857,-0.71429 l 1.60714,-5.71428 c -6.9441,0.5825 -13.39589,1.01025 -18.61607,-2.54465 4.77994,-30.45283 23.3467,-56.81203 43.68057,-134.73861 2.99671,-11.484438 9.33946,-21.538011 13.23907,-35.08281 z"/><path style="fill:#ff8080;fill-rule:evenodd;stroke:#000;stroke-width:.5;stroke-linecap:butt;stroke-linejoin:miter;stroke-miterlimit:4;stroke-dasharray:none;stroke-opacity:1" id="path4434" d="m 144.76678,61.092818 c 13.59886,9.353308 13.31753,23.057584 11.80213,64.816942 -1.39434,38.42349 -5.71174,85.2901 -4.34677,120.18305 2.15506,0.94776 4.24982,1.62419 6.07143,1.07143 5.40013,3.79327 7.9042,3.11158 9.27488,0.52489 6.5893,1.53071 5.95858,-0.60035 5.27235,-3.20346 3.0783,0.37857 6.64802,1.73997 8.30991,-0.71428 C 164.66262,152.69996 171.35629,95.519052 149.18643,61.807103 Z"/><path style="fill:#ff8080;fill-rule:evenodd;stroke:#000;stroke-width:.5;stroke-linecap:butt;stroke-linejoin:miter;stroke-miterlimit:4;stroke-dasharray:none;stroke-opacity:1" id="path4406" d="m 143.91857,16.271389 c 3.44263,1.563223 5.95539,3.551734 9.77678,4.508928 -2.87066,20.303976 -4.43001,39.315465 -3.25892,43.258929 -1.2705,-0.965105 -3.99859,-2.64512 -8.86161,-2.165179 l -1.243,-18.296569 c 1.27976,-9.017857 1.93727,-18.657973 3.58675,-27.306109 z"/><path style="fill:#ff8080;fill-rule:evenodd;stroke:#000;stroke-width:.5;stroke-linecap:butt;stroke-linejoin:miter;stroke-miterlimit:4;stroke-dasharray:none;stroke-opacity:1" id="path4392" d="m 111.50785,21.44996 c 3.31243,-1.534952 7.18213,-3.209223 11.16072,-4.910714 l 5,4.196429 c 1.57306,8.884036 8.46488,15.995155 12.71107,23.988148 l 1.35143,17.150244 c -5.87874,0.47478 -12.68838,2.754984 -16.20536,5.379464 -0.57749,-9.6732 -6.24704,-15.668883 -9.375,-25.446428 z"/><path style="fill:#f95;fill-rule:evenodd;stroke:#000;stroke-width:.5;stroke-linecap:butt;stroke-linejoin:miter;stroke-miterlimit:4;stroke-dasharray:none;stroke-opacity:1" id="path4402" d="m 148.115,9.842817 c 0.62261,-0.03381 2.42714,12.077595 2.27903,12.196089 -2.62536,-2.061999 -4.58458,-3.457849 -6.74332,-5.053231 z"/><path style="fill:#ff8080;fill-rule:evenodd;stroke:#000;stroke-width:.5;stroke-linecap:butt;stroke-linejoin:miter;stroke-miterlimit:4;stroke-dasharray:none;stroke-opacity:1" id="path4390" d="m 112.84714,20.557103 c -0.41917,-1.440406 -7.05655,-2.091113 -7.15817,2.741707 -0.40665,19.339648 -4.74415,16.981973 -6.68111,26.90115 -1.76904,9.05923 -5.69792,17.578497 -8.66072,26.339286 l 9.38135,4.969366 c 6.12677,-12.25338 11.04793,-21.941306 17.40436,-37.38008 -0.26283,-4.861604 2.878,-14.494193 -4.28571,-23.571429 z"/><path style="fill:#ffb380;fill-rule:evenodd;stroke:#000;stroke-width:.5;stroke-linecap:butt;stroke-linejoin:miter;stroke-miterlimit:4;stroke-dasharray:none;stroke-opacity:1" id="path4394" d="m 139.67433,43.361943 c -6.543,-3.599999 -13.04255,-7.330322 -19.25322,-11.927302 2.25191,-3.615997 4.36878,-6.609554 7.46209,-9.889049 4.43278,7.587081 7.92493,14.50349 11.79113,21.816351 z"/><path style="fill:#ffb380;fill-rule:evenodd;stroke:#000;stroke-width:.5;stroke-linecap:butt;stroke-linejoin:miter;stroke-miterlimit:4;stroke-dasharray:none;stroke-opacity:1" id="path4400" d="m 143.74,21.628532 c 0.0722,-4.838266 2.69138,-8.126263 4.55357,-11.875 C 142.39163,4.18637 125.89313,1.233402 123.47214,5.42186 l -0.60427,11.649542 c 2.28223,-2.458363 14.55328,-6.955658 20.87213,4.55713 z"/><path style="fill:#ffb380;fill-rule:evenodd;stroke:#000;stroke-width:.5;stroke-linecap:butt;stroke-linejoin:miter;stroke-miterlimit:4;stroke-dasharray:none;stroke-opacity:1" id="path4404" d="m 142.66949,20.083594 -2.32235,23.330652 c 3.13143,-4.981903 7.74773,-9.221375 11.78571,-13.75 -3.33333,-3.622324 -6.66667,-6.57316 -9.46336,-9.580652 z"/><path style="fill:#ffb380;fill-opacity:1;fill-rule:evenodd;stroke:#000;stroke-width:.5;stroke-linecap:butt;stroke-linejoin:miter;stroke-miterlimit:4;stroke-dasharray:none;stroke-opacity:1" id="path4426" d="m 89.07965,75.279641 c -1.83482,5.524245 -4.09487,11.159331 -7.4792,17.038671 4.0964,0.78762 7.0817,2.46412 9.3949,4.6783 3.20245,-5.20444 6.7199,-10.27388 10.75453,-15.12166 -0.79574,-2.7341 -6.41531,-8.209861 -12.67023,-6.595311 z"/><path style="fill:none;fill-rule:evenodd;stroke:#000;stroke-width:.5;stroke-linecap:butt;stroke-linejoin:miter;stroke-miterlimit:4;stroke-dasharray:none;stroke-opacity:1" id="path4443" d="m 77.71321,93.324962 c -0.51743,1.51275 2.23627,0.59649 2.27679,0.53571 0.10623,0.39733 -0.73142,1.31904 1.33928,0.625 0.41513,0.51157 0.7801,1.34566 1.42858,0.35714 -0.92377,1.3811 0.28584,1.44153 1.83035,1.29465 0.20275,0.78085 0.17935,1.48009 1.51786,0.625 0.27995,0.70406 -0.10255,1.62588 1.875,1.42857 0.13648,0.67078 -0.56032,1.47841 0.71428,0.66964 0.22293,0.49193 0.5889,1.983318 1.38393,0.75893 -0.53997,1.484008 0.63315,1.516508 1.51786,1.339288"/><path style="fill:none;fill-rule:evenodd;stroke:#000;stroke-width:.5;stroke-linecap:butt;stroke-linejoin:miter;stroke-miterlimit:4;stroke-dasharray:none;stroke-opacity:1" id="path4445" d="m 165.41248,97.974262 c 0.43859,0.33774 0.84593,0.33706 1.40637,-0.52772 0.81052,0.59477 1.87445,-0.11971 2.16073,-0.7981 1.23666,0.40254 1.37485,-0.2089 1.54679,-0.78919 0.81362,0.0762 1.88,0.39036 1.32583,-0.82075 1.27334,-0.0701 1.91044,-0.52065 1.9256,-1.01015 0.84875,0.0508 1.45251,-0.52592 1.29426,-0.97859 0.64449,0.1473 2.49414,-0.93953 1.02864,-1.54138"/><path style="fill:#f95;fill-rule:evenodd;stroke:#000;stroke-width:.5;stroke-linecap:butt;stroke-linejoin:miter;stroke-miterlimit:4;stroke-dasharray:none;stroke-opacity:1" id="path4398" d="m 127.90487,21.627602 c -0.29221,-2.747998 -0.13739,-7.82073 -1.06603,-8.023023 l -3.81313,3.91681 c 1.92603,1.079614 3.62569,2.354038 4.87916,4.106213 z"/><path style="fill:#ffb380;fill-rule:evenodd;stroke:#000;stroke-width:.5;stroke-linecap:butt;stroke-linejoin:miter;stroke-miterlimit:4;stroke-dasharray:none;stroke-opacity:1" id="path4396" d="m 122.31143,24.664246 c 1.53161,-4.131089 2.47393,-11.061337 4.91071,-10.892857 l -3.83929,-8.482143 c -3.64717,3.513871 -3.72512,8.627737 -5.17857,13.125 1.24939,2.188032 2.23521,4.606692 4.10715,6.25 z"/><path style="fill:#000;fill-rule:evenodd;stroke:none;stroke-width:1px;stroke-linecap:butt;stroke-linejoin:miter;stroke-opacity:1" id="path4451" d="m 87.18021,239.37836 c 0.08383,-0.015 0.167659,-0.0301 0.2515,-0.0453 5.618604,-19.22858 10.191334,-44.67192 14.55251,-69.10592 4.3702,-24.4846 8.5306,-47.97231 13.32099,-63.21489 -4.86448,15.22402 -9.10053,38.7016 -13.54606,63.17437 -4.437786,24.43017 -9.081764,49.83608 -14.765786,69.01745 0.0623,0.0581 0.124579,0.11615 0.186846,0.17425 z"/><path style="fill:#000;fill-rule:evenodd;stroke:none;stroke-width:1px;stroke-linecap:butt;stroke-linejoin:miter;stroke-opacity:1" id="path4455" d="m 99.23107,248.00129 c 0.0805,0.0365 0.167355,0.0643 0.256979,0.0848 0.208862,-0.29558 0.408859,-0.83315 0.613671,-1.55552 0.22697,-0.80049 0.46778,-1.86494 0.72062,-3.15703 0.50587,-2.58524 1.06351,-6.10077 1.65648,-10.27936 1.18609,-8.35818 2.51555,-19.38368 3.85665,-30.95615 2.68207,-23.14379 5.41265,-48.4914 7.13668,-59.0809 -1.80944,10.58371 -4.62348,35.91417 -7.39051,59.05101 -1.38347,11.568 -2.75476,22.5843 -3.98225,30.93122 -0.61381,4.17388 -1.19122,7.67713 -1.71565,10.24651 -0.2623,1.28512 -0.510506,2.33239 -0.742215,3.11103 -0.214093,0.71944 -0.408702,1.18403 -0.565003,1.39061 0.0551,0.0675 0.108069,0.13901 0.154548,0.21381 z"/><path style="fill:#000;fill-rule:evenodd;stroke:none;stroke-width:1px;stroke-linecap:butt;stroke-linejoin:miter;stroke-opacity:1" id="path4459" d="m 115.32482,253.10174 c 0.0936,-0.0136 0.18727,-0.0272 0.2809,-0.0408 0.77755,-19.54201 0.25782,-58.42047 0.54499,-88.75383 -0.47314,30.34138 -0.13952,69.21107 -1.10204,88.72901 -9.1e-4,-2.1e-4 0.27706,0.0659 0.27615,0.0656 z"/><path style="fill:#000;fill-rule:evenodd;stroke:none;stroke-width:1px;stroke-linecap:butt;stroke-linejoin:miter;stroke-opacity:1" id="path4463" d="m 158.27283,247.32796 c 0.0824,-0.0206 0.16483,-0.0413 0.24725,-0.0619 -0.80765,-25.04861 1.51283,-48.19652 0.86286,-75.05852 0.48035,26.68971 -1.99843,50.15372 -1.36053,75.07291 0.0835,0.0158 0.16694,0.0317 0.25042,0.0475 z"/><path style="fill:#000;fill-rule:evenodd;stroke:none;stroke-width:1px;stroke-linecap:butt;stroke-linejoin:miter;stroke-opacity:1" id="path4467" d="m 167.53286,247.82128 c 2e-5,0 0.19969,-0.0516 0.19971,-0.0516 -1.10562,-25.85783 -3.12687,-65.87813 -5.33929,-93.38395 2.0783,27.51474 3.9652,67.5403 4.93638,93.40013 -2e-5,-1e-5 0.20322,0.0355 0.2032,0.0355 z"/><path style="fill:#000;fill-rule:evenodd;stroke:none;stroke-width:1px;stroke-linecap:butt;stroke-linejoin:miter;stroke-opacity:1" id="path4471" d="m 172.81016,244.52807 c 1.7e-4,-2e-5 0.27471,-0.0378 0.27487,-0.0378 -0.97784,-9.80881 -2.64053,-32.90938 -4.56793,-57.85498 -1.92826,-24.9567 -4.12189,-51.76434 -6.16189,-68.97964 1.948,17.22433 4.04942,44.03834 5.8854,69.00049 1.83524,24.95196 3.4052,48.0543 4.29247,57.88655 0.0924,-0.005 0.18472,-0.01 0.27708,-0.0146 z"/><path style="fill:#000;fill-rule:evenodd;stroke:none;stroke-width:1px;stroke-linecap:butt;stroke-linejoin:miter;stroke-opacity:1" id="path4475" d="m 142.40071,244.87531 c 0,0 0.27899,-0.006 0.279,-0.006 -0.36911,-23.72728 1.2733,-58.29087 1.18021,-82.04018 -0.0929,23.70798 -1.92119,58.33141 -1.73827,82.04667 0,0 0.27906,-6.7e-4 0.27906,-6.7e-4 z"/><path style="fill:none;fill-rule:evenodd;stroke:#000;stroke-width:.25;stroke-linecap:butt;stroke-linejoin:miter;stroke-miterlimit:4;stroke-dasharray:none;stroke-opacity:1" id="path4479" d="m 128.29357,45.735674 4.853,17.720971"/><path style="fill:#ff8080;fill-rule:evenodd;stroke:#000;stroke-width:.5;stroke-linecap:butt;stroke-linejoin:miter;stroke-miterlimit:4;stroke-dasharray:none;stroke-opacity:1" id="path4483" d="m 151.45974,30.477101 c 0.30615,5.927927 1.78883,7.404576 1.55968,11.671967 -0.20629,3.841583 -2.83871,5.454376 -3.11922,8.695265"/><path style="fill:none;fill-rule:evenodd;stroke:#000;stroke-width:.25;stroke-linecap:butt;stroke-linejoin:miter;stroke-miterlimit:4;stroke-dasharray:none;stroke-opacity:1" id="path4481" d="m 150.31557,45.231527 -1.75414,17.73629"/><path style="fill:#000;fill-rule:evenodd;stroke:none;stroke-width:1px;stroke-linecap:butt;stroke-linejoin:miter;stroke-opacity:1" id="path4485" d="m 120.71323,47.277232 c 0.76895,1.500222 1.82114,2.816076 3.09953,3.875015 1.83645,1.325203 4.02259,2.117445 6.37065,2.249035 -2.33786,-0.258915 -4.43745,-1.17149 -6.13775,-2.55333 -1.31419,-0.925487 -2.45177,-2.132452 -3.33243,-3.57072 z"/><ellipse style="opacity:1;fill:#ffe680;fill-opacity:1;stroke:#000;stroke-width:.25;stroke-linecap:round;stroke-linejoin:round;stroke-miterlimit:4;stroke-dasharray:none;stroke-dashoffset:0;stroke-opacity:1" id="path6580-0" cx="136.244" cy="49.266" rx="1.517" ry="1.548"/><ellipse style="opacity:1;fill:#333;fill-opacity:1;stroke:#000;stroke-width:.18529943;stroke-linecap:round;stroke-linejoin:round;stroke-miterlimit:4;stroke-dasharray:none;stroke-dashoffset:0;stroke-opacity:1" id="path6619-54" cx="135.963" cy="48.972" rx=".201" ry=".208"/><ellipse style="opacity:1;fill:#333;fill-opacity:1;stroke:#000;stroke-width:.18529943;stroke-linecap:round;stroke-linejoin:round;stroke-miterlimit:4;stroke-dasharray:none;stroke-dashoffset:0;stroke-opacity:1" id="path6619-9-6" cx="136.589" cy="48.966" rx=".201" ry=".208"/><ellipse style="opacity:1;fill:#333;fill-opacity:1;stroke:#000;stroke-width:.18529943;stroke-linecap:round;stroke-linejoin:round;stroke-miterlimit:4;stroke-dasharray:none;stroke-dashoffset:0;stroke-opacity:1" id="path6619-5-56" cx="135.966" cy="49.6" rx=".201" ry=".208"/><ellipse style="opacity:1;fill:#333;fill-opacity:1;stroke:#000;stroke-width:.18529943;stroke-linecap:round;stroke-linejoin:round;stroke-miterlimit:4;stroke-dasharray:none;stroke-dashoffset:0;stroke-opacity:1" id="path6619-9-4-50" cx="136.592" cy="49.594" rx=".201" ry=".208"/><ellipse style="opacity:1;fill:#ffe680;fill-opacity:1;stroke:#000;stroke-width:.25;stroke-linecap:round;stroke-linejoin:round;stroke-miterlimit:4;stroke-dasharray:none;stroke-dashoffset:0;stroke-opacity:1" id="path6580-0-9" cx="145.367" cy="48.619" rx="1.517" ry="1.548"/><ellipse style="opacity:1;fill:#333;fill-opacity:1;stroke:#000;stroke-width:.18529943;stroke-linecap:round;stroke-linejoin:round;stroke-miterlimit:4;stroke-dasharray:none;stroke-dashoffset:0;stroke-opacity:1" id="path6619-54-8" cx="145.086" cy="48.324" rx=".201" ry=".208"/><ellipse style="opacity:1;fill:#333;fill-opacity:1;stroke:#000;stroke-width:.18529943;stroke-linecap:round;stroke-linejoin:round;stroke-miterlimit:4;stroke-dasharray:none;stroke-dashoffset:0;stroke-opacity:1" id="path6619-9-6-2" cx="145.712" cy="48.319" rx=".201" ry=".208"/><ellipse style="opacity:1;fill:#333;fill-opacity:1;stroke:#000;stroke-width:.18529943;stroke-linecap:round;stroke-linejoin:round;stroke-miterlimit:4;stroke-dasharray:none;stroke-dashoffset:0;stroke-opacity:1" id="path6619-5-56-6" cx="145.089" cy="48.953" rx=".201" ry=".208"/><ellipse style="opacity:1;fill:#333;fill-opacity:1;stroke:#000;stroke-width:.18529943;stroke-linecap:round;stroke-linejoin:round;stroke-miterlimit:4;stroke-dasharray:none;stroke-dashoffset:0;stroke-opacity:1" id="path6619-9-4-50-7" cx="145.715" cy="48.947" rx=".201" ry=".208"/><ellipse style="opacity:1;fill:#ffe680;fill-opacity:1;stroke:#000;stroke-width:.25;stroke-linecap:round;stroke-linejoin:round;stroke-miterlimit:4;stroke-dasharray:none;stroke-dashoffset:0;stroke-opacity:1" id="path6580-0-2" cx="145.762" cy="58.026" rx="1.517" ry="1.548"/><ellipse style="opacity:1;fill:#333;fill-opacity:1;stroke:#000;stroke-width:.18529943;stroke-linecap:round;stroke-linejoin:round;stroke-miterlimit:4;stroke-dasharray:none;stroke-dashoffset:0;stroke-opacity:1" id="path6619-54-1" cx="145.481" cy="57.732" rx=".201" ry=".208"/><ellipse style="opacity:1;fill:#333;fill-opacity:1;stroke:#000;stroke-width:.18529943;stroke-linecap:round;stroke-linejoin:round;stroke-miterlimit:4;stroke-dasharray:none;stroke-dashoffset:0;stroke-opacity:1" id="path6619-9-6-6" cx="146.107" cy="57.726" rx=".201" ry=".208"/><ellipse style="opacity:1;fill:#333;fill-opacity:1;stroke:#000;stroke-width:.18529943;stroke-linecap:round;stroke-linejoin:round;stroke-miterlimit:4;stroke-dasharray:none;stroke-dashoffset:0;stroke-opacity:1" id="path6619-5-56-5" cx="145.484" cy="58.36" rx=".201" ry=".208"/><ellipse style="opacity:1;fill:#333;fill-opacity:1;stroke:#000;stroke-width:.18529943;stroke-linecap:round;stroke-linejoin:round;stroke-miterlimit:4;stroke-dasharray:none;stroke-dashoffset:0;stroke-opacity:1" id="path6619-9-4-50-5" cx="146.11" cy="58.354" rx=".201" ry=".208"/><ellipse style="opacity:1;fill:#ffe680;fill-opacity:1;stroke:#000;stroke-width:.25;stroke-linecap:round;stroke-linejoin:round;stroke-miterlimit:4;stroke-dasharray:none;stroke-dashoffset:0;stroke-opacity:1" id="path6580-0-25" cx="136.797" cy="58.626" rx="1.517" ry="1.548"/><ellipse style="opacity:1;fill:#333;fill-opacity:1;stroke:#000;stroke-width:.18529943;stroke-linecap:round;stroke-linejoin:round;stroke-miterlimit:4;stroke-dasharray:none;stroke-dashoffset:0;stroke-opacity:1" id="path6619-54-4" cx="136.516" cy="58.331" rx=".201" ry=".208"/><ellipse style="opacity:1;fill:#333;fill-opacity:1;stroke:#000;stroke-width:.18529943;stroke-linecap:round;stroke-linejoin:round;stroke-miterlimit:4;stroke-dasharray:none;stroke-dashoffset:0;stroke-opacity:1" id="path6619-9-6-0" cx="137.142" cy="58.325" rx=".201" ry=".208"/><ellipse style="opacity:1;fill:#333;fill-opacity:1;stroke:#000;stroke-width:.18529943;stroke-linecap:round;stroke-linejoin:round;stroke-miterlimit:4;stroke-dasharray:none;stroke-dashoffset:0;stroke-opacity:1" id="path6619-5-56-9" cx="136.519" cy="58.96" rx=".201" ry=".208"/><ellipse style="opacity:1;fill:#333;fill-opacity:1;stroke:#000;stroke-width:.18529943;stroke-linecap:round;stroke-linejoin:round;stroke-miterlimit:4;stroke-dasharray:none;stroke-dashoffset:0;stroke-opacity:1" id="path6619-9-4-50-3" cx="137.145" cy="58.954" rx=".201" ry=".208"/><path style="fill:#000;fill-rule:evenodd;stroke:none;stroke-width:1px;stroke-linecap:butt;stroke-linejoin:miter;stroke-opacity:1" id="path4628" d="m 113.14432,20.916024 c -0.005,-0.06612 -0.0117,-0.132622 -0.0207,-0.19943 -0.96297,-0.427877 -2.17307,-0.390748 -3.17369,-0.06763 -1.04435,0.337231 -1.87758,0.990746 -2.01345,1.783144 0.189,-0.766024 1.04317,-1.348022 2.06205,-1.617946 0.99372,-0.263262 2.13069,-0.226843 2.97955,0.208174 0.054,-0.03681 0.1094,-0.07229 0.16629,-0.106307 z"/><path style="fill:#000;fill-rule:evenodd;stroke:none;stroke-width:1px;stroke-linecap:butt;stroke-linejoin:miter;stroke-opacity:1" id="path4632" d="m 114.30009,22.329278 c -0.0504,-0.122247 -0.11477,-0.241439 -0.19437,-0.356643 -0.68674,-0.281943 -1.46134,-0.165762 -2.15234,0.11013 -0.81032,0.323532 -1.55717,0.887283 -2.00803,1.420767 0.50684,-0.48179 1.28348,-0.965728 2.08349,-1.204931 0.6963,-0.208191 1.37201,-0.219639 1.89815,0.0602 0.1165,-0.02429 0.24115,-0.03545 0.3731,-0.02952 z"/><path style="fill:#000;fill-rule:evenodd;stroke:none;stroke-width:1px;stroke-linecap:butt;stroke-linejoin:miter;stroke-opacity:1" id="path4636" d="m 114.97785,23.493164 c -0.0367,-0.132375 -0.0968,-0.261789 -0.185,-0.384827 -0.28174,-0.09185 -0.57308,-0.08319 -0.85149,-0.01515 -0.39463,0.09644 -0.78653,0.31764 -1.13614,0.589611 -0.7028,0.546721 -1.2847,1.337336 -1.43129,1.918951 0.22839,-0.545367 0.87062,-1.253978 1.58481,-1.699875 0.35931,-0.224333 0.72556,-0.375192 1.05657,-0.414293 0.23091,-0.02728 0.43155,0.0013 0.59939,0.08267 0.10416,-0.0486 0.22565,-0.07767 0.36315,-0.07708 z"/><path style="fill:#000;fill-rule:evenodd;stroke:none;stroke-width:1px;stroke-linecap:butt;stroke-linejoin:miter;stroke-opacity:1" id="path4640" d="m 115.76246,25.329402 c 0.007,-0.06173 0.009,-0.124616 0.008,-0.188508 -0.26326,-0.154016 -0.54021,-0.181862 -0.80611,-0.119014 -0.29354,0.06938 -0.57479,0.248795 -0.82663,0.490387 -0.50476,0.484208 -0.92503,1.250169 -1.11272,2.041538 0.24091,-0.779829 0.70591,-1.498827 1.22103,-1.919515 0.25819,-0.210862 0.52033,-0.339749 0.76389,-0.371951 0.21436,-0.02834 0.41148,0.018 0.5892,0.146036 0.0508,-0.03035 0.10547,-0.05675 0.16347,-0.07897 z"/><path style="fill:#000;fill-rule:evenodd;stroke:none;stroke-width:1px;stroke-linecap:butt;stroke-linejoin:miter;stroke-opacity:1" id="path4644" d="m 153.18196,24.999068 c 0.0183,0.09156 0.0333,0.183163 0.0451,0.274735 1.13476,0.0987 1.9584,0.979645 2.70042,1.890443 -0.54933,-0.94306 -1.30764,-2.105977 -2.6127,-2.413179 -0.047,0.0817 -0.0913,0.164385 -0.13284,0.248001 z"/><path style="fill:#000;fill-rule:evenodd;stroke:none;stroke-width:1px;stroke-linecap:butt;stroke-linejoin:miter;stroke-opacity:1" id="path4648" d="m 153.38285,23.302639 -0.009,0.247465 c 0.53001,-0.02178 1.14447,0.178857 1.68443,0.527044 0.53336,0.34393 0.98312,0.825416 1.18211,1.346026 -0.12199,-0.551125 -0.51433,-1.108033 -1.03469,-1.545009 -0.51426,-0.43186 -1.16779,-0.757673 -1.81307,-0.822991 l -0.009,0.247465 z"/><path style="fill:#000;fill-rule:evenodd;stroke:none;stroke-width:1px;stroke-linecap:butt;stroke-linejoin:miter;stroke-opacity:1" id="path4652" d="m 153.60607,21.896389 c 0.0189,0.09271 0.0363,0.185584 0.0526,0.278591 1.25065,-0.128749 2.79156,0.573868 3.47423,1.730337 -0.51489,-1.238368 -2.01591,-2.238482 -3.48961,-2.290629 -0.0137,0.09383 -0.0262,0.18774 -0.0372,0.281701 z"/><path style="fill:#000;fill-rule:evenodd;stroke:none;stroke-width:1px;stroke-linecap:butt;stroke-linejoin:miter;stroke-opacity:1" id="path4656" d="m 158.96321,64.091548 c -0.005,-0.100567 -0.0112,-0.201148 -0.0173,-0.301731 -2.45579,-0.372947 -3.86977,0.0271 -6.09962,1.291533 2.33444,-1.098568 3.70734,-1.254717 5.98874,-0.716462 0.0422,-0.09127 0.0849,-0.182388 0.12818,-0.27334 z"/><path style="fill:#000;fill-rule:evenodd;stroke:none;stroke-width:1px;stroke-linecap:butt;stroke-linejoin:miter;stroke-opacity:1" id="path4660" d="m 158.51725,60.58867 c 0.033,-0.0912 0.0641,-0.183345 0.0932,-0.276394 -0.99285,-0.553238 -2.16182,-0.476163 -3.27411,-0.204919 -1.14394,0.278963 -2.31157,0.786933 -3.29273,1.164032 1.02677,-0.291622 2.20395,-0.701336 3.34935,-0.883144 1.13116,-0.179548 2.14848,-0.120588 2.92132,0.407787 0.0659,-0.07051 0.13356,-0.139652 0.20301,-0.207362 z"/><path style="fill:#000;fill-rule:evenodd;stroke:none;stroke-width:1px;stroke-linecap:butt;stroke-linejoin:miter;stroke-opacity:1" id="path4664" d="m 158.03001,58.646642 c -1.34405,-0.268571 -2.73218,0.269637 -3.91585,0.71871 1.28894,-0.319741 2.61418,-0.656782 3.79971,-0.268848 z"/><path style="fill:none;fill-rule:evenodd;stroke:#000;stroke-width:.5;stroke-linecap:butt;stroke-linejoin:miter;stroke-miterlimit:4;stroke-dasharray:none;stroke-opacity:1" id="path4668" d="m 88.74,76.717817 c 5.89714,-0.54739 8.76835,2.494258 11.78571,6.160715"/></g></svg>