<svg xmlns="http://www.w3.org/2000/svg" xmlns:svg="http://www.w3.org/2000/svg" xmlns:xlink="http://www.w3.org/1999/xlink" id="svg4206" version="1.1" viewBox="0 0 256 256"><style id="style3">svg{cursor:default}</style><defs id="defs4208"><linearGradient id="linearGradient0"><stop style="stop-color:#ff8080;stop-opacity:1" id="stop4970" offset="0"/><stop style="stop-color:#f55;stop-opacity:1" id="stop4972" offset="1"/></linearGradient><marker id="Tail" orient="auto" refX="0" refY="0" style="overflow:visible"><g id="g4542" transform="scale(-1.2)" style="stroke:#ccc;stroke-opacity:1;fill:#ccc;fill-opacity:1"><path id="path4544" d="M -3.8048674,-3.9585227 L 0.54352094,0" style="fill:#ccc;fill-rule:evenodd;stroke:#ccc;stroke-width:.8;stroke-linecap:round;stroke-opacity:1;fill-opacity:1"/><path id="path4546" d="M -1.2866832,-3.9585227 L 3.0617053,0" style="fill:#ccc;fill-rule:evenodd;stroke:#ccc;stroke-width:.8;stroke-linecap:round;stroke-opacity:1;fill-opacity:1"/><path id="path4548" d="M 1.3053582,-3.9585227 L 5.6537466,0" style="fill:#ccc;fill-rule:evenodd;stroke:#ccc;stroke-width:.8;stroke-linecap:round;stroke-opacity:1;fill-opacity:1"/><path id="path4550" d="M -3.8048674,4.1775838 L 0.54352094,0.21974226" style="fill:#ccc;fill-rule:evenodd;stroke:#ccc;stroke-width:.8;stroke-linecap:round;stroke-opacity:1;fill-opacity:1"/><path id="path4552" d="M -1.2866832,4.1775838 L 3.0617053,0.21974226" style="fill:#ccc;fill-rule:evenodd;stroke:#ccc;stroke-width:.8;stroke-linecap:round;stroke-opacity:1;fill-opacity:1"/><path id="path4554" d="M 1.3053582,4.1775838 L 5.6537466,0.21974226" style="fill:#ccc;fill-rule:evenodd;stroke:#ccc;stroke-width:.8;stroke-linecap:round;stroke-opacity:1;fill-opacity:1"/></g></marker><linearGradient id="linearGradient1" x1="113.571" x2="115.714" y1="55.286" y2="261" gradientUnits="userSpaceOnUse" xlink:href="#linearGradient0"/></defs><metadata id="metadata4211"/><g id="layer4"><path style="fill:#ff8080;fill-rule:evenodd;stroke:#000;stroke-width:.98009998px;stroke-linecap:butt;stroke-linejoin:miter;stroke-opacity:1" id="path4492" d="m 81.060247,44.74895 c -10.00481,-3.062435 -16.805344,-2.920594 -24.940045,-4.112919 0.143751,-3.41075 0.605076,-7.139075 0.962599,-10.763598 17.803945,0.904259 17.851821,1.808518 26.777732,2.712777 z"/><path style="fill:#ff8080;fill-rule:evenodd;stroke:#000;stroke-width:.98009998px;stroke-linecap:butt;stroke-linejoin:miter;stroke-opacity:1" id="path4494" d="m 162.9686,34.072861 c 0.26253,0.350036 4.813,11.376161 4.813,11.376161 7.18595,-2.433216 16.46069,-2.931117 25.02755,-3.062812 -0.41718,-3.75133 -0.15556,-6.145032 -1.40015,-11.551179 -9.03823,0.943309 -16.63702,1.443709 -28.4404,3.23783 z"/><path style="fill:url(#linearGradient1);fill-rule:evenodd;stroke:#000;stroke-width:.98009998px;stroke-linecap:butt;stroke-linejoin:miter;stroke-opacity:1;fill-opacity:1" id="path4490" d="m 122.91807,252.63628 c -18.05486,3.24122 -31.108585,-0.13259 -39.16448,-3.66894 1.124504,-29.28854 -6.893391,-52.38514 -7.054109,-78.58526 -0.184167,-30.02243 11.748207,-46.72906 11.633092,-64.6008 -0.114659,-17.801002 -4.909,-25.040025 -7.054109,-38.488211 0,0 -1.277541,-20.455484 -0.842485,-23.018674 C 80.799455,42.132929 83.92267,30.861328 84.001102,28.6811 84.308458,20.13733 79.298363,6.1574508 79.298363,6.1574508 81.252442,3.1377014 85.898699,3.8473329 89.198867,2.692274 c 3.79212,11.988049 6.848994,30.687189 7.862928,32.671666 1.604767,3.140881 9.275055,8.832955 25.551275,13.118169 0.31987,1.657426 3.63144,2.011609 3.71269,0 11.00439,-3.061085 22.95704,-9.433047 24.00872,-10.148017 2.19344,-1.491161 7.26038,-23.596204 10.89056,-35.3943054 4.10181,0.8851352 6.12221,1.978412 9.15797,2.9701516 0,0 -7.4273,21.5935348 -7.42538,24.7512628 9.8e-4,1.923945 5.9403,14.603245 5.9403,14.603245 -1.41268,6.547305 -0.44941,11.335713 -1.67071,16.707102 -1.44354,6.348888 -5.87941,31.290318 -5.44968,40.758292 1.03539,22.81179 10.50387,42.53651 10.68552,59.72561 0.40332,38.16488 -7.07155,37.13312 -7.27782,84.7793 -1.99294,7.97632 -25.71424,3.81033 -38.61197,5.69279 -0.64641,-2.08606 -3.38771,-1.83838 -3.6552,-0.29126 z"/><path style="fill:none;fill-rule:evenodd;stroke:#000;stroke-width:.49004999;stroke-linecap:butt;stroke-linejoin:miter;stroke-miterlimit:4;stroke-dasharray:none;stroke-opacity:1" id="path4496" d="M 97.599439,36.69813 C 93.549861,41.88187 85.714973,53.090336 81.410283,66.713691"/><path style="fill:none;fill-rule:evenodd;stroke:#000;stroke-width:.49004999;stroke-linecap:butt;stroke-linejoin:miter;stroke-miterlimit:4;stroke-dasharray:none;stroke-opacity:1" id="path4498" d="m 150.89238,38.185781 c 5.55729,7.367383 12.47392,10.970445 16.62669,22.227268"/><path style="fill:none;fill-rule:evenodd;stroke:#000;stroke-width:2.94029999;stroke-linecap:butt;stroke-linejoin:miter;stroke-miterlimit:4;stroke-dasharray:none;stroke-dashoffset:0;stroke-opacity:1" id="path4900" d="m 124.59318,49.843429 -0.041,201.601611"/><path style="fill:none;fill-rule:evenodd;stroke:#fca;stroke-width:1.47014999;stroke-linecap:butt;stroke-linejoin:miter;stroke-miterlimit:4;stroke-dasharray:1.47015,1.4701500000000001;stroke-dashoffset:0;stroke-opacity:1" id="path4500" d="m 124.59318,49.843429 -0.041,201.601611"/><path id="path4898" d="m 124.59318,49.843429 -0.041,201.601611" style="fill:none;fill-rule:evenodd;stroke:#f95;stroke-width:1.47014999;stroke-linecap:butt;stroke-linejoin:miter;stroke-miterlimit:4;stroke-dasharray:1.47015,1.4701500000000001;stroke-dashoffset:1.5;stroke-opacity:1"/><path style="fill:#ffb380;fill-rule:evenodd;stroke:#000;stroke-width:.49004999;stroke-linecap:butt;stroke-linejoin:miter;stroke-miterlimit:4;stroke-dasharray:none;stroke-opacity:1" id="path4906" d="m 123.65034,57.167077 c -0.021,0.765289 0.0326,0.723006 -0.14357,2.006142 -1.24541,0.993548 -2.58313,7.009018 1.12815,6.897025 4.08115,-0.123155 1.95428,-6.470855 1.2417,-6.900853 -0.2039,-0.898734 -0.18613,-1.214748 -0.25268,-1.979344 l 1.00721,-7.277672 c -1.48573,-0.874343 -2.86816,-0.784468 -4.17542,0.0069 z m 1.00306,3.237009 c 2.06383,-0.100421 2.00016,4.41371 -0.0121,4.42008 -1.96086,0.0062 -1.92185,-4.32598 0.0121,-4.42008 z"/><path style="fill:#fca;fill-rule:evenodd;stroke:#000;stroke-width:.53964978;stroke-linecap:butt;stroke-linejoin:miter;stroke-miterlimit:4;stroke-dasharray:none;stroke-opacity:1" id="path4904" d="m 124.52599,54.486115 c -2.01476,0.119062 -2.00798,3.993993 0.0349,3.986132 2.09632,-0.0081 2.11526,-4.113196 -0.0349,-3.986132 z"/></g></svg>