<svg xmlns="http://www.w3.org/2000/svg" xmlns:svg="http://www.w3.org/2000/svg" xmlns:xlink="http://www.w3.org/1999/xlink" id="svg4206" version="1.1" viewBox="0 0 256 256"><style id="style3">svg{cursor:default}</style><defs id="defs4208"><linearGradient id="linearGradient5873"><stop id="stop5869" offset="0" style="stop-color:#ff2a2a;stop-opacity:1"/><stop id="stop5871" offset="1" style="stop-color:#ff8080;stop-opacity:0"/></linearGradient><pattern id="pattern5822" width="30.049" height="178.462" patternTransform="translate(-132.99379,49.595954)" patternUnits="userSpaceOnUse"><path id="path4408" d="M 29.850962,178.4353 C 21.729672,119.12705 13.292512,59.395876 0.19530151,0.04309663" style="fill:none;fill-rule:evenodd;stroke:#ff2a2a;stroke-width:.40000001;stroke-linecap:butt;stroke-linejoin:miter;stroke-miterlimit:4;stroke-dasharray:none;stroke-opacity:1"/></pattern><radialGradient id="radialGradient5769" cx="154.513" cy="181.06" r="22.097" fx="154.513" fy="181.06" gradientTransform="matrix(0.94292684,0.33299998,-0.64381322,1.8230294,122.20544,-212.07351)" gradientUnits="userSpaceOnUse" xlink:href="#linearGradient5873"/></defs><metadata id="metadata4211"/><g id="layer4"><path style="fill:#f55;fill-rule:evenodd;stroke:#000;stroke-width:.75;stroke-linecap:butt;stroke-linejoin:miter;stroke-miterlimit:4;stroke-dasharray:none;stroke-opacity:1" id="path4403" d="m 101.3724,25.039212 c 7.93953,-2.562894 23.97682,-1.413947 34.3776,-1.539214 l -15.77773,46.544194 z"/><path style="fill:#ff8080;fill-rule:evenodd;stroke:#000;stroke-width:.75;stroke-linecap:butt;stroke-linejoin:miter;stroke-miterlimit:4;stroke-dasharray:none;stroke-opacity:1" id="path4401" d="m 104.40782,16.499348 c 0.69094,-1.180742 28.18444,-1.126301 29.16919,0.180567 l 0.54799,8.570083 c -11.52846,-0.850407 -21.57487,-0.811591 -30.75,-0.25 z"/><path style="fill:#ff8080;fill-rule:evenodd;stroke:#000;stroke-width:.75;stroke-linecap:butt;stroke-linejoin:miter;stroke-miterlimit:4;stroke-dasharray:none;stroke-opacity:1" id="path4395" d="m 73.539106,235.14035 c 14.290418,9.55745 33.973484,7.49997 52.325904,8.3085 L 121.44559,69.323808 97.40396,25.836741 C 89.125997,30.227775 81.17042,34.941194 73.362329,39.8021 68.16779,39.44909 63.22768,55.661929 61.51829,66.848934 c 0,0 -9.155448,69.667316 -15.909902,104.121476 -0.29145,1.48667 -1.06066,4.41942 -1.06066,4.41942 7.798529,3.64222 16.690733,3.06597 25.632621,2.29809 l 0.707106,-4.24264 c 0.648181,-6.95322 1.595712,-10.01489 1.944544,-20.85965 0.05987,-1.86141 -0.04549,-3.35357 0.353554,-4.94975 1.202752,-4.811 1.469749,-7.67157 2.828427,-11.3137 0.86062,-2.30701 0.607005,-4.3791 1.06066,-6.54074 1.119586,-5.33475 2.239171,-11.07801 3.358757,-16.61701 0,0 -0.07467,13.67541 -0.353553,20.5061 -1.382648,33.86526 -6.540738,101.46982 -6.540738,101.46982 z"/><path style="fill:#faa;fill-rule:evenodd;stroke:#000;stroke-width:.5;stroke-linecap:butt;stroke-linejoin:miter;stroke-miterlimit:4;stroke-dasharray:none;stroke-opacity:1" id="path4425" d="m 125.77608,243.39057 c -19.29864,-0.31096 -38.33716,0.76568 -52.170652,-8.27066 -0.02883,-0.91692 0.122926,-1.86417 0.249087,-2.8227 21.031696,8.96513 36.230775,7.36341 51.881665,7.52938 -0.0978,0.17492 0.0318,1.91822 0.0399,3.56398 z"/><path style="fill:#ff8080;fill-rule:evenodd;stroke:#000;stroke-width:.75;stroke-linecap:butt;stroke-linejoin:miter;stroke-miterlimit:4;stroke-dasharray:none;stroke-opacity:1" id="path4393" d="m 118.26361,241.68109 c 18.45864,0.25179 37.38122,3.56556 54.27045,-6.54074 -4.74562,-43.01941 -12.56346,-86.05574 -12.1976,-129.04699 0,0 1.70405,12.2301 3.00521,18.25978 0.34668,1.60654 1.06066,1.2707 0.93566,4.56218 -0.14856,3.91176 2.08255,9.42467 2.4231,13.24049 0.76153,8.53282 2.40725,24.80515 3.53553,25.45584 0.38939,0.51241 0.62623,1.1011 0.35355,1.94455 0.11785,1.06447 0.23571,1.72469 0.35356,2.47487 l 0.17677,2.82843 c 7.27422,1.36851 15.09323,0.9816 23.86486,-2.47488 l -1.06066,-4.41942 c -4.5962,-32.52691 -14.13625,-82.849548 -13.78859,-97.580732 0.21018,-8.905882 -8.43911,-31.84208 -14.14213,-33.025072 -9.36917,-3.328925 -18.73833,-8.104973 -28.1075,-11.876209 l -21.56675,51.265242 z"/><path style="fill:#faa;fill-rule:evenodd;stroke:#000;stroke-width:.75;stroke-linecap:butt;stroke-linejoin:miter;stroke-miterlimit:4;stroke-dasharray:none;stroke-opacity:1" id="path4397" d="m 100.5,36.249998 -5.624999,0.875 C 94.099759,32.985461 94.680124,30.131967 96.275165,26.95063 98.079839,23.351178 101.89841,22.524633 104.375,16.499998 l 0,9.25 17,43.125 -22.499999,-25.125 z"/><path style="fill:#faa;fill-rule:evenodd;stroke:#000;stroke-width:.75;stroke-linecap:butt;stroke-linejoin:miter;stroke-miterlimit:4;stroke-dasharray:none;stroke-opacity:1" id="path4399" d="m 139.875,37.999998 2.625,6.375 -26.25,32.125 16.875,-50.25 0.375,-9.4375 c 0.86169,-1.349831 9.04167,13.979167 13.375,20.8125 z"/><path style="fill:#000;fill-rule:evenodd;stroke:none;stroke-width:1px;stroke-linecap:butt;stroke-linejoin:miter;stroke-opacity:1" id="path4405" d="m 161.10214,109.97646 c -0.43237,-3.37785 -0.64528,-9.87877 -0.78261,-16.974574 -0.13725,-7.091225 -0.19982,-14.775965 -0.33662,-20.540292 -0.0298,5.763323 -0.13401,13.45035 -0.16337,20.544093 -0.0293,7.084383 0.015,13.619283 0.28786,17.073293 z"/><path style="fill:#000;fill-rule:evenodd;stroke:none;stroke-width:1px;stroke-linecap:butt;stroke-linejoin:miter;stroke-opacity:1" id="path4409" d="m 165.50094,37.325791 c 0.9366,4.822832 -0.21844,9.418539 -1.6382,14.15126 -1.41503,4.716953 -3.05082,9.457904 -2.9673,14.498723 0.0831,-5.018439 1.87246,-9.688702 3.44371,-14.346953 1.56622,-4.643354 2.96146,-9.384626 2.14655,-14.476938 z"/><path style="fill:#000;fill-rule:evenodd;stroke:none;stroke-width:1px;stroke-linecap:butt;stroke-linejoin:miter;stroke-opacity:1" id="path4413" d="m 72.815759,39.755516 c -0.527013,5.32252 0.857501,10.99675 2.618424,16.585497 1.765898,5.604537 3.939593,11.202236 5.065818,16.408985 C 79.534608,67.49761 77.515829,61.839913 75.912186,56.198131 74.303953,50.540199 73.139311,44.97532 73.809243,39.86948 Z"/><path style="fill:#000;fill-rule:evenodd;stroke:none;stroke-width:1px;stroke-linecap:butt;stroke-linejoin:miter;stroke-opacity:1" id="path4417" d="M 80.739856,115.49008 C 81.429472,104.83765 79.971918,93.833264 80.610174,79.842021 79.622592,94.113312 80.778012,104.6113 79.743054,115.41016 Z"/><path style="fill:#000;fill-rule:evenodd;stroke:none;stroke-width:1px;stroke-linecap:butt;stroke-linejoin:miter;stroke-opacity:1" id="path4429" d="m 168.19619,201.04918 c -0.29944,0.15923 -0.8739,0.35868 -1.61571,0.56546 -0.7398,0.20623 -1.64048,0.4188 -2.60444,0.61317 -1.92685,0.38852 -4.10543,0.70413 -5.75951,0.75204 1.65796,0.048 3.85417,-0.17243 5.8095,-0.46855 0.9771,-0.14798 1.89562,-0.31509 2.65734,-0.4773 0.75294,-0.16034 1.37771,-0.32092 1.74544,-0.45818 z"/><path style="fill:#000;fill-rule:evenodd;stroke:none;stroke-width:1px;stroke-linecap:butt;stroke-linejoin:miter;stroke-opacity:1" id="path4433" d="m 75.913817,201.90748 c 1.8726,0.60521 4.397277,0.64103 5.757017,0.79434 -1.399625,-0.35355 -3.802412,-0.56323 -5.556691,-1.32696 z"/><path style="fill:#ff8080;fill-rule:evenodd;stroke:#000;stroke-width:.5;stroke-linecap:butt;stroke-linejoin:miter;stroke-miterlimit:4;stroke-dasharray:none;stroke-opacity:1" id="path4437" d="m 106.12873,142.24349 -0.9466,34.47216 -4.59619,4.86136 -22.273863,-3.27037 -0.707107,-3.8007 2.315619,-35.18265 c 0.279863,-0.35565 24.858601,1.85569 26.208141,2.9202 z"/><path style="fill:#faa;fill-rule:evenodd;stroke:#000;stroke-width:.5;stroke-linecap:butt;stroke-linejoin:miter;stroke-miterlimit:4;stroke-dasharray:none;stroke-opacity:1" id="path4439" d="m 106.12682,142.47963 c 0.0538,-0.872 -0.0334,-2.12496 0.14305,-4.36688 -9.68693,-0.0372 -21.778321,-1.4255 -26.366402,-3.34164 -0.120832,1.30873 -0.141479,3.9445 -0.171146,4.75843 9.810062,2.27324 18.669848,2.78009 26.394498,2.95009 z"/><path style="fill:#ff8080;fill-rule:evenodd;stroke:#000;stroke-width:.5;stroke-linecap:butt;stroke-linejoin:miter;stroke-miterlimit:4;stroke-dasharray:none;stroke-opacity:1" id="path4441" d="m 135.91859,143.37566 0.26891,33.87434 5.25,5 21.8125,-2.375 1.75,-4.4375 -3.15318,-33.25311 c -3.66037,-1.07544 -17.05249,-0.4662 -25.92823,1.19127 z"/><path style="fill:#ff8080;fill-rule:evenodd;stroke:#000;stroke-width:.5;stroke-linecap:butt;stroke-linejoin:miter;stroke-miterlimit:4;stroke-dasharray:none;stroke-opacity:1" id="path4445" d="m 131.9638,107.3308 22.09709,0.0884 3.8007,-6.01041 -0.15448,-25.158534 c -11.0307,-0.359329 -17.82356,-0.73552 -29.77376,-9.97e-4 l 0.14137,24.364031 z"/><path style="fill:none;fill-rule:evenodd;stroke:#000;stroke-width:.5;stroke-linecap:butt;stroke-linejoin:miter;stroke-miterlimit:4;stroke-dasharray:none;stroke-opacity:1" id="path4449" d="m 100.5,36.468748 c 0.0625,-0.25 3.78125,-10.9375 3.78125,-10.9375"/><path style="fill:none;fill-rule:evenodd;stroke:#000;stroke-width:.5;stroke-linecap:butt;stroke-linejoin:miter;stroke-miterlimit:4;stroke-dasharray:none;stroke-opacity:1" id="path4451" d="m 139.8125,38.062498 -6.5625,-12.125"/><path style="fill:#faa;fill-rule:evenodd;stroke:#000;stroke-width:.51378936;stroke-linecap:butt;stroke-linejoin:miter;stroke-miterlimit:4;stroke-dasharray:none;stroke-opacity:1" id="path4439-2" d="m 135.88405,143.61379 c -0.009,-0.87205 0.15261,-2.3342 0.0901,-4.57847 12.31288,0.0441 17.51431,0.0156 25.56431,-0.81351 0.0554,1.31116 0.36375,3.23924 0.34975,4.05201 -2.78908,0.5572 -16.22303,1.70015 -26.00416,1.33997 z"/><path style="fill:#faa;fill-rule:evenodd;stroke:#000;stroke-width:.51378936;stroke-linecap:butt;stroke-linejoin:miter;stroke-miterlimit:4;stroke-dasharray:none;stroke-opacity:1" id="path4439-2-9" d="m 127.90411,76.487335 c -0.009,-0.87205 0.0589,-2.3967 -0.004,-4.64097 12.31288,0.0441 20.26431,0.3281 29.75181,0.18649 0.0554,1.31116 0.0513,3.67674 0.0373,4.48951 -8.06609,0.24275 -23.22392,-0.04613 -29.78546,-0.03503 z"/><path style="fill:#faa;fill-rule:evenodd;stroke:#000;stroke-width:.49219117;stroke-linecap:butt;stroke-linejoin:miter;stroke-miterlimit:4;stroke-dasharray:none;stroke-opacity:1" id="path4425-3" d="m 118.43938,241.62835 c 18.25801,0.44021 36.93723,3.65108 53.95658,-6.55436 0.0279,-0.91772 -0.11901,-1.8658 -0.24115,-2.82518 -20.36202,8.97301 -38.67895,5.64631 -53.83148,5.81243 0.0947,0.17507 0.0134,1.9199 0.006,3.56711 z"/><path style="fill:#faa;fill-rule:evenodd;stroke:#000;stroke-width:.5;stroke-linecap:butt;stroke-linejoin:miter;stroke-miterlimit:4;stroke-dasharray:none;stroke-opacity:1" id="path4439-4" d="m 70.159952,177.50722 c 0.0538,-0.872 0.231765,-1.02011 0.408215,-3.26203 -9.646899,0.64332 -20.288676,-0.099 -24.952188,-3.29745 -0.120832,1.30873 -0.848586,3.63514 -0.878253,4.44907 9.969181,3.9649 20.051923,2.6574 25.422226,2.11041 z"/><path style="fill:#faa;fill-rule:evenodd;stroke:#000;stroke-width:.48006704;stroke-linecap:butt;stroke-linejoin:miter;stroke-miterlimit:4;stroke-dasharray:none;stroke-opacity:1" id="path4439-4-7" d="m 171.19211,174.69587 c -0.0494,-0.87488 -0.21295,-1.02348 -0.37507,-3.27281 8.86376,0.64544 18.73004,0.16587 23.01497,-3.04318 0.37619,1.31306 0.95648,3.07262 0.98375,3.88924 -10.13334,4.1403 -20.89039,3.43411 -23.62365,2.42675 z"/></g></svg>