<svg xmlns="http://www.w3.org/2000/svg" xmlns:osb="http://www.openswatchbook.org/uri/2009/osb" xmlns:svg="http://www.w3.org/2000/svg" xmlns:xlink="http://www.w3.org/1999/xlink" id="svg4206" version="1.1" viewBox="0 0 256 256"><style id="style3">svg{cursor:default}</style><defs id="defs4208"><linearGradient id="linearGradient4509" osb:paint="solid"><stop style="stop-color:#faa;stop-opacity:1" id="stop4511" offset="0"/></linearGradient><linearGradient id="linearGradient4503" osb:paint="solid"><stop style="stop-color:#ff8080;stop-opacity:1" id="stop4505" offset="0"/></linearGradient><linearGradient id="linearGradient4497" osb:paint="solid"><stop style="stop-color:#f55;stop-opacity:1" id="stop4499" offset="0"/></linearGradient><linearGradient id="linearGradient4420"><stop style="stop-color:#f55;stop-opacity:1" id="stop4422" offset="0"/><stop style="stop-color:#ff2a2a;stop-opacity:1" id="stop4424" offset="1"/></linearGradient><linearGradient id="linearGradient4426" x1="117.43" x2="117.935" y1="221.655" y2="174.178" gradientTransform="translate(8.0812204,0)" gradientUnits="userSpaceOnUse" xlink:href="#linearGradient4420"/><linearGradient id="linearGradient4501" x1="106.836" x2="134.093" y1="8.604" y2="8.604" gradientTransform="translate(8.0812204,0)" gradientUnits="userSpaceOnUse" xlink:href="#linearGradient4497"/><linearGradient id="linearGradient4507" x1="104.639" x2="135.552" y1="12.626" y2="12.626" gradientTransform="translate(8.0812204,0)" gradientUnits="userSpaceOnUse" xlink:href="#linearGradient4503"/><linearGradient id="linearGradient4513" x1="116.732" x2="123.798" y1="16.844" y2="16.844" gradientTransform="translate(8.2390567,0)" gradientUnits="userSpaceOnUse" xlink:href="#linearGradient4509"/></defs><metadata id="metadata4211"/><g id="layer4"><path style="fill:none;fill-rule:evenodd;stroke:#000;stroke-width:1px;stroke-linecap:butt;stroke-linejoin:miter;stroke-opacity:1" id="path4519" d="M 128.57229,23.366071 121.65264,43.678572 145.44729,33.589285 110.983,33.8125 136.38479,43.633929 Z"/><path style="fill:#ff2a2a;fill-rule:evenodd;stroke:#000;stroke-width:.6;stroke-linecap:butt;stroke-linejoin:miter;stroke-opacity:1;stroke-miterlimit:4;stroke-dasharray:none" id="path4493" d="m 125.13265,10.532932 c -1.35476,10.211992 -5.11257,19.835998 -19.52729,22.938729 l 22.43147,22.391866 24.20034,-21.047323 c -16.34843,-3.794643 -19.62943,-16.667263 -21.36114,-24.314839 -1.87856,-0.276716 -3.78101,-0.362223 -5.74338,0.03157 z"/><path style="fill:#ff8080;fill-rule:evenodd;stroke:#000;stroke-width:.5;stroke-linecap:butt;stroke-linejoin:miter;stroke-miterlimit:4;stroke-dasharray:none;stroke-opacity:1" id="path4549" d="m 122.14756,39.280593 0.5542,-1.628808 -12.78345,-4.850752 1.70977,2.149202 z"/><path style="fill:url(#linearGradient4501);fill-opacity:1;fill-rule:evenodd;stroke:#000;stroke-width:.6;stroke-linecap:butt;stroke-linejoin:miter;stroke-miterlimit:4;stroke-dasharray:none;stroke-opacity:1" id="path4491" d="m 116.42943,6.6696425 c 2.51701,-1.7648049 21.29927,-1.6296118 23.52679,-0.2678572 l 1.51786,5.3124997 c -8.21672,-1.448261 -16.77028,-1.7596668 -25.9375,0 z"/><path style="fill:url(#linearGradient4426);fill-opacity:1;fill-rule:evenodd;stroke:#000;stroke-width:.6;stroke-linecap:butt;stroke-linejoin:miter;stroke-opacity:1;stroke-miterlimit:4;stroke-dasharray:none" id="path4357" d="m 82.099078,216.625 c 5.123687,6.83351 14.010444,11.78695 23.392852,16.96429 3e-5,1.19048 -0.0964,2.38095 0.35715,3.57143 1.09922,0.80886 3.26161,1.44052 5,2.14285 l -1.25,9.55357 c 8.18452,3.95621 16.40557,-1.55797 24.55357,-0.71428 11.54902,1.19586 10.51013,-5.36814 12.23214,-10.98215 4.16017,-2.28762 11.15329,-4.08255 10.35714,-7.23214 5.39398,-3.50716 12.11282,-6.61111 12.32143,-11.69643 l -9.10714,-50.26785 -68.75,2.14285 z"/><path style="fill:#ff8080;fill-rule:evenodd;stroke:#000;stroke-width:.60000002;stroke-linecap:butt;stroke-linejoin:miter;stroke-miterlimit:4;stroke-dasharray:none;stroke-opacity:1" id="path4353" d="m 166.42263,184.53171 2.46225,33.35081 c -5.52723,-6.73014 -19.17788,-12.71457 -18.62469,-16.6833 z"/><path style="fill:#f55;fill-rule:evenodd;stroke:#000;stroke-width:.6;stroke-linecap:butt;stroke-linejoin:miter;stroke-opacity:1;stroke-miterlimit:4;stroke-dasharray:none" id="path4355" d="m 157.9626,171.65226 c -3.38917,9.60147 -6.96941,19.59712 -7.70241,29.86263 6.32525,-4.3107 23.18563,-18.72861 23.10406,-20.21071 -2.2757,-6.74307 -6.98505,-9.67958 -15.40165,-9.65192 z"/><path style="fill:#ff8080;fill-rule:evenodd;stroke:#000;stroke-width:.6;stroke-linecap:butt;stroke-linejoin:miter;stroke-opacity:1;stroke-miterlimit:4;stroke-dasharray:none" id="path4353-9" d="m 84.234538,186.10118 -2.02665,29.21891 c 5.52723,-6.73014 19.724422,-12.95767 19.171232,-16.9264 z"/><path style="fill:#f55;fill-rule:evenodd;stroke:#000;stroke-width:.6;stroke-linecap:butt;stroke-linejoin:miter;stroke-opacity:1;stroke-miterlimit:4;stroke-dasharray:none" id="path4355-2" d="m 91.010213,174.82794 c 5.621313,4.33362 5.897981,11.20427 9.934557,22.71977 -8.735969,-4.66784 -17.96242,-9.42057 -20.470135,-10.99196 -0.201979,-4.84575 2.118978,-11.75547 10.535578,-11.72781 z"/><path style="fill:#ff8080;fill-rule:evenodd;stroke:#000;stroke-width:.5;stroke-linecap:butt;stroke-linejoin:miter;stroke-miterlimit:4;stroke-dasharray:none;stroke-opacity:1" id="path4551" d="m 145.40265,33.790178 -1.20087,2.009858 -22.09187,9.341846 -1.35012,-1.262418 z"/><path style="fill:#ff8080;fill-rule:evenodd;stroke:#000;stroke-width:.6;stroke-linecap:butt;stroke-linejoin:miter;stroke-opacity:1;stroke-miterlimit:4;stroke-dasharray:none" id="path4351" d="m 92.277648,94.236607 c 0.806127,-15.60865 4.145128,-45.4539 5.54206,-44.133951 1.711687,1.617358 6.673772,18.721061 6.690082,28.575915 0.0197,11.918878 -8.955826,34.869969 -14.065452,61.615369 -3.04729,15.95048 -10.759317,25.46664 -9.993576,45.16731 11.717785,-15.28455 60.583918,-20.16684 83.344748,-8.38982 6.10276,2.29174 6.96204,3.71865 9.60465,3.95973 -0.67425,-9.70467 -6.1757,-26.04821 -7.47468,-34.68551 -3.40904,-22.66764 -13.89927,-52.764619 -14.62997,-66.833958 -0.42413,-8.166536 4.37518,-30.503855 5.44194,-28.416061 3.53183,6.912254 4.8358,30.968555 6.10207,46.769001 l 13.27741,-0.971775 c -1.06884,-17.977054 -1.46022,-36.179924 -3.21428,-53.928571 -0.7851,-7.944152 -3.45883,-22.143629 -15.58988,-22.75068 -11.49023,11.490763 -18.60145,24.402632 -28.51726,31.50068 -15.86243,-14.290414 -15.0722,-16.902189 -33.571433,-31.696429 -13.809983,6.329059 -13.893206,16.65011 -14.732143,28.214285 -1.077992,14.859395 0.0843,21.326912 -1.205357,44.754465"/><path style="fill:#000;fill-rule:evenodd;stroke:none;stroke-width:1px;stroke-linecap:butt;stroke-linejoin:miter;stroke-opacity:1" id="path4388" d="m 164.08666,176.98713 0.49739,0.051 c 0.61702,-7.65585 2.56994,-15.34188 1.64918,-22.1165 0.58634,6.78302 -1.68556,14.29688 -2.64396,22.01454 l 0.49739,0.051 z"/><path style="fill:#f55;fill-rule:evenodd;stroke:#000;stroke-width:.6;stroke-linecap:butt;stroke-linejoin:miter;stroke-opacity:1;stroke-miterlimit:4;stroke-dasharray:none" id="path4363" d="m 184.51129,158.37289 c 2.29035,2.89503 -11.61358,7.08348 -16.82597,13.02683 -1.33084,1.51747 -3.42845,0.74145 -4.05144,-0.45277 -0.42667,-8.64171 12.59396,-10.94572 20.87741,-12.57406 z"/><path style="fill:#ff8080;fill-rule:evenodd;stroke:#000;stroke-width:.6;stroke-linecap:butt;stroke-linejoin:miter;stroke-opacity:1;stroke-miterlimit:4;stroke-dasharray:none" id="path4359" d="M 79.288658,92.852273 C 78.431827,105.88426 70.337232,135.77311 61.856524,158.14913 l 7.338925,3.40161 c 0.446049,4.34904 7.155606,6.17705 10.354064,8.71256 4.898043,3.88284 6.967929,9.17472 12.248099,12.62691 1.810781,-31.23055 -1.927664,-59.38599 0.505076,-89.10132"/><path style="fill:#ff8080;fill-rule:evenodd;stroke:#000;stroke-width:.6;stroke-linecap:butt;stroke-linejoin:miter;stroke-opacity:1;stroke-miterlimit:4;stroke-dasharray:none" id="path4361" d="m 162.75046,96.739965 c 1.59425,25.115875 -1.02256,49.658485 0.89425,74.407225 -0.92218,-8.19537 13.33813,-8.53773 21.08694,-12.2481 -5.71664,-20.87649 -7.1395,-42.27112 -8.67829,-63.147613"/><path style="fill:#000;fill-rule:evenodd;stroke:none;stroke-width:1px;stroke-linecap:butt;stroke-linejoin:miter;stroke-opacity:1" id="path4365" d="m 97.830561,50.562215 c 0.521441,-1.514119 1.171274,-2.982399 1.810281,-4.221145 0.636758,-1.234375 1.265618,-2.246046 1.743948,-2.84107 -0.60379,0.485376 -1.37888,1.410907 -2.173798,2.585671 -0.794251,1.173778 -1.611944,2.601435 -2.307685,4.102114 z"/><path style="fill:#000;fill-rule:evenodd;stroke:none;stroke-width:1px;stroke-linecap:butt;stroke-linejoin:miter;stroke-opacity:1" id="path4370" d="m 157.16277,51.00247 c -1.10832,-2.271713 -2.95403,-4.741781 -5.26108,-5.808679 2.1068,1.337159 3.59925,3.945649 4.33536,6.186881 z"/><path style="fill:#000;fill-rule:evenodd;stroke:none;stroke-width:1px;stroke-linecap:butt;stroke-linejoin:miter;stroke-opacity:1" id="path4374" d="m 159.6041,50.244553 c -0.0414,-2.535557 0.4127,-5.031247 1.19368,-7.414927 0.63535,-2.616344 1.66531,-5.164296 2.91007,-7.547957 -1.41888,2.278116 -2.65159,4.768366 -3.49759,7.381474 -0.60201,2.49871 -0.85111,5.05192 -0.60616,7.58141 z"/><path style="fill:#000;fill-rule:evenodd;stroke:none;stroke-width:1px;stroke-linecap:butt;stroke-linejoin:miter;stroke-opacity:1" id="path4378" d="m 69.536339,161.58641 c 0.468695,-8.8829 -0.174042,-18.48456 2.815837,-26.93098 -3.318648,8.3738 -3.015019,18.04121 -3.813289,26.85964 z"/><path style="fill:#000;fill-rule:evenodd;stroke:none;stroke-width:1px;stroke-linecap:butt;stroke-linejoin:miter;stroke-opacity:1" id="path4384" d="m 97.973783,175.36351 c -2.521575,-15.12733 -0.579287,-31.40169 -0.746601,-46.89527 -0.166014,15.37317 -2.44496,31.79808 -0.241525,47.04891 z"/><path style="fill:#000;fill-rule:evenodd;stroke:none;stroke-width:1px;stroke-linecap:butt;stroke-linejoin:miter;stroke-opacity:1" id="path4392" d="m 105.42001,233.81232 c 0.002,-6.2e-4 0.38661,-0.13583 0.38839,-0.13645 -0.22344,-17.7174 -1.07927,-31.46377 -1.20925,-45.33466 -0.12954,13.82393 0.46749,27.68999 0.43108,45.33877 0.12993,0.0441 0.25986,0.0882 0.38978,0.13234 z"/><path style="fill:#000;fill-rule:evenodd;stroke:none;stroke-width:1px;stroke-linecap:butt;stroke-linejoin:miter;stroke-opacity:1" id="path4396" d="m 111.15348,239.40773 c 1.21387,-11.56617 -0.60414,-25.8461 -1.17312,-38.33477 0.23882,12.59104 1.71604,26.76458 0.18018,38.21623 z"/><path style="fill:#000;fill-rule:evenodd;stroke:none;stroke-width:1px;stroke-linecap:butt;stroke-linejoin:miter;stroke-opacity:1" id="path4400" d="m 146.54291,237.20393 c 0.14894,-0.0267 0.29787,-0.0539 0.4468,-0.0815 1.69045,-12.16024 -1.52487,-25.25019 2.26033,-37.05959 -4.03583,11.65609 -1.17973,25.10383 -3.10946,36.93141 0.13426,0.0695 0.26837,0.13936 0.40233,0.20972 z"/><path style="fill:#000;fill-rule:evenodd;stroke:none;stroke-width:1px;stroke-linecap:butt;stroke-linejoin:miter;stroke-opacity:1" id="path4404" d="m 157.42742,229.75839 c -1.73127,-5.34058 -1.91981,-13.95498 -2.08714,-22.35141 -0.16581,8.31978 -0.32313,17.06417 1.12704,22.63107 z"/><path style="fill:#000;fill-rule:evenodd;stroke:none;stroke-width:1px;stroke-linecap:butt;stroke-linejoin:miter;stroke-opacity:1" id="path4408" d="m 119.82935,231.5038 c 0.47395,-9.34977 -0.12095,-23.53199 -0.5969,-36.62112 -0.55641,-8.29974 -1.06404,-16.16273 -1.21946,-22.10868 -0.1554,5.94542 0.0419,13.84007 0.28691,22.15695 0.78631,13.08352 1.69277,27.21177 1.52945,36.57285 z"/><path style="fill:#000;fill-rule:evenodd;stroke:none;stroke-width:1px;stroke-linecap:butt;stroke-linejoin:miter;stroke-opacity:1" id="path4412" d="m 132.20897,234.49728 c 0.99044,-11.24847 1.44029,-21.18102 1.78269,-30.11581 0.0753,-10.21071 0.01,-19.10732 0.45054,-27.17337 -0.73526,8.05206 -0.96482,16.95121 -1.33486,27.15407 -0.0474,8.93037 -0.20225,18.86846 -0.89837,30.13511 z"/><path style="fill:#000;fill-rule:evenodd;stroke:none;stroke-width:1px;stroke-linecap:butt;stroke-linejoin:miter;stroke-opacity:1" id="path4416" d="m 140.41121,173.79884 c -0.0288,4.32706 -0.32432,10.18354 -0.75221,16.05448 -0.0226,1.22562 -0.051,2.45283 -0.084,3.66797 -0.19142,7.04845 -0.53794,13.69971 -0.80528,17.27438 0.58569,-3.54544 1.25184,-10.1761 1.76343,-17.22661 0.0882,-1.21511 0.17176,-2.44288 0.24957,-3.66972 0.0542,-5.9062 -0.0255,-11.77906 -0.3715,-16.1005 z"/><path style="fill:#000;fill-rule:evenodd;stroke:none;stroke-width:1px;stroke-linecap:butt;stroke-linejoin:miter;stroke-opacity:1" id="path4374-2" d="m 88.002726,35.33827 c 1.810661,1.775463 3.240653,3.87065 4.359323,6.115744 1.385765,2.30837 2.442636,4.845279 3.231223,7.416154 -0.590521,-2.618078 -1.46256,-5.256347 -2.696133,-7.710392 -1.326849,-2.201238 -2.943159,-4.19334 -4.894413,-5.821506 z"/><path style="fill:#000;fill-rule:evenodd;stroke:none;stroke-width:1px;stroke-linecap:butt;stroke-linejoin:miter;stroke-opacity:1" id="path4446" d="m 155.05047,173.47352 c 0.60474,-7.1816 0.63121,-14.23138 1.39691,-21.39296 -1.09233,7.08862 -1.46385,14.22212 -2.39117,21.28598 z"/><path style="fill:#000;fill-rule:evenodd;stroke:none;stroke-width:1px;stroke-linecap:butt;stroke-linejoin:miter;stroke-opacity:1" id="path4481" d="m 103.97408,63.857143 c 2.44083,1.999316 5.24866,2.978498 8.15335,3.173892 3.68903,0.06121 7.39917,-1.144458 10.55704,-2.995321 -3.24916,1.713732 -6.95475,2.723503 -10.53792,2.501989 -2.813,-0.02692 -5.63335,-0.81284 -8.17247,-2.68056 z"/><path style="fill:#000;fill-rule:evenodd;stroke:none;stroke-width:1px;stroke-linecap:butt;stroke-linejoin:miter;stroke-opacity:1" id="path4485" d="m 132.40655,63.996103 c 2.39315,1.475274 5.82488,1.879006 9.12908,1.607115 0.12193,-0.01566 0.24359,-0.03224 0.36492,-0.04972 3.38919,-0.488173 6.52936,-1.676281 8.12701,-3.072624 -1.67926,1.267909 -4.83806,2.292031 -8.18175,2.622408 -0.11971,0.01183 -0.23965,0.02277 -0.35976,0.0328 -3.21514,0.419888 -6.62553,0.189592 -9.0795,-1.139974 z"/><path style="fill:url(#linearGradient4507);fill-opacity:1;fill-rule:evenodd;stroke:#000;stroke-width:.5;stroke-linecap:butt;stroke-linejoin:miter;stroke-miterlimit:4;stroke-dasharray:none;stroke-opacity:1" id="path4489" d="m 116.13768,6.9406724 c 8.42395,8.9085506 16.78079,6.8765426 24.02961,-0.3309917 1.00006,0.7654079 2.31437,3.6585463 2.88685,5.4626773 -9.19048,7.503602 -17.83537,10.148796 -29.77717,0.487898 0.4539,-1.986399 1.2956,-4.2979576 2.86071,-5.6195836 z"/><path style="fill:#ff8080;fill-rule:evenodd;stroke:#000;stroke-width:.5;stroke-linecap:butt;stroke-linejoin:miter;stroke-miterlimit:4;stroke-dasharray:none;stroke-opacity:1" id="path4541" d="m 127.55971,23.300693 -7.00081,20.511807 1.54017,1.294643 7.12054,-21.696429 z"/><path style="opacity:1;fill:#ffb380;fill-opacity:1;stroke:#000;stroke-width:.45006067;stroke-linecap:round;stroke-linejoin:round;stroke-miterlimit:4;stroke-dasharray:none;stroke-dashoffset:0;stroke-opacity:1" id="path4521" d="m 128.41615,19.221491 a 4.0012363,2.3754975 0 0 0 -4.00153,2.376174 4.0012363,2.3754975 0 0 0 4.00153,2.374601 4.0012363,2.3754975 0 0 0 4.00154,-2.374601 4.0012363,2.3754975 0 0 0 -4.00154,-2.376174 z m 0.0314,0.978147 a 2.5731617,1.3726326 0 0 1 2.57269,1.372865 2.5731617,1.3726326 0 0 1 -2.57269,1.371293 2.5731617,1.3726326 0 0 1 -2.5727,-1.371293 2.5731617,1.3726326 0 0 1 2.5727,-1.372865 z"/><path style="fill:url(#linearGradient4513);fill-opacity:1;fill-rule:evenodd;stroke:#000;stroke-width:.5;stroke-linecap:butt;stroke-linejoin:miter;stroke-miterlimit:4;stroke-dasharray:none;stroke-opacity:1" id="path4495" d="m 126.02868,12.821094 0.30353,8.129036 4.07218,0.03156 0.003,-8.365326 c -2.01598,0.495551 -2.97274,0.295821 -4.37887,0.20473 z"/><path style="fill:#faa;fill-rule:evenodd;stroke:#000;stroke-width:.5;stroke-linecap:butt;stroke-linejoin:miter;stroke-miterlimit:4;stroke-dasharray:none;stroke-opacity:1" id="path4545" d="m 111.32362,34.128828 33.38707,0.420278 1.49553,-1.629465 -36.49554,-0.312496 z"/><path style="fill:#ff8080;fill-rule:evenodd;stroke:#000;stroke-width:.5;stroke-linecap:butt;stroke-linejoin:miter;stroke-miterlimit:4;stroke-dasharray:none;stroke-opacity:1" id="path4543" d="m 136.34239,45.026445 -12.42464,-5.061548 0.50685,-1.763857 12.98698,5.566817 z"/><path style="fill:#faa;fill-rule:evenodd;stroke:#000;stroke-width:.5;stroke-linecap:butt;stroke-linejoin:miter;stroke-miterlimit:4;stroke-dasharray:none;stroke-opacity:1" id="path4539" d="m 137.34462,43.522321 -8.18926,-20.681132 c -0.53358,0.06355 -1.3747,-0.01179 -1.82766,-0.02886 l 8.76692,22.026957 z"/><path style="fill:#000;fill-rule:evenodd;stroke:none;stroke-width:1px;stroke-linecap:butt;stroke-linejoin:miter;stroke-opacity:1" id="path4553" d="m 181.55192,159.77658 c -1.82788,-6.01569 -3.84443,-12.30805 -4.64896,-18.68143 0.47521,6.43015 2.17511,12.83101 3.6848,18.94675 z"/><path style="fill:#000;fill-rule:evenodd;stroke:none;stroke-width:1px;stroke-linecap:butt;stroke-linejoin:miter;stroke-opacity:1" id="path4557" d="m 166.7075,165.41097 c -0.37638,-1.694 -0.59779,-3.95851 -0.72269,-6.07299 -0.12446,-2.1072 -0.15269,-4.05787 -0.14757,-5.11873 -0.17136,1.05215 -0.31061,3.00242 -0.35233,5.12851 -0.0416,2.11816 0.013,4.44204 0.23705,6.23269 z"/><path style="fill:#000;fill-rule:evenodd;stroke:none;stroke-width:1px;stroke-linecap:butt;stroke-linejoin:miter;stroke-opacity:1" id="path4561" d="m 80.864062,171.25717 c 0.589104,-1.85463 0.342866,-4.6027 0.05518,-7.1896 -0.292726,-2.63225 -0.655245,-5.26101 -0.391531,-7.00146 -0.431447,1.72992 -0.233601,4.39525 -0.106896,7.04109 0.128575,2.68491 0.17026,5.22859 -0.496543,6.80821 z"/></g></svg>