<svg xmlns="http://www.w3.org/2000/svg" xmlns:svg="http://www.w3.org/2000/svg" xmlns:xlink="http://www.w3.org/1999/xlink" id="svg4164" version="1.1" viewBox="0 0 256 256"><style id="style3">svg{cursor:default}</style><defs id="defs4166"><linearGradient id="innoGrad2"><stop style="stop-color:#f55;stop-opacity:1" id="stop4344" offset="0"/><stop style="stop-color:#ff8080;stop-opacity:1" id="stop4346" offset="1"/></linearGradient><linearGradient id="innoGrad1"><stop style="stop-color:#f55;stop-opacity:1" id="stop4317" offset="0"/><stop style="stop-color:#ff8080;stop-opacity:1" id="stop4319" offset="1"/></linearGradient><marker id="Arrow1Lstart" orient="auto" refX="0" refY="0" style="overflow:visible"><path id="path4233" d="M 0.0,0.0 L 5.0,-5.0 L -12.5,0.0 L 5.0,5.0 L 0.0,0.0 z" transform="scale(0.8) translate(12.5,0)" style="fill-rule:evenodd;stroke:#000;stroke-width:1pt;stroke-opacity:1;fill:#000;fill-opacity:1"/></marker><linearGradient id="linearGradient4321" x1="121.799" x2="78.312" y1="892.556" y2="890.258" gradientTransform="matrix(0.99732288,0.07312367,-0.07312367,0.99732288,95.363314,91.78734)" gradientUnits="userSpaceOnUse" xlink:href="#innoGrad1"/><linearGradient id="linearGradient4321-9" x1="121.799" x2="78.312" y1="892.556" y2="890.258" gradientTransform="matrix(-0.96843709,0.24925809,0.24925809,0.96843709,4.4885894,-7.7433163)" gradientUnits="userSpaceOnUse" xlink:href="#innoGrad2"/></defs><metadata id="metadata4169"/><g id="layer1" transform="translate(0,-796.36219)" style="display:inline"><path style="fill:#ff2a2a;fill-rule:evenodd;stroke:#000;stroke-width:1px;stroke-linecap:butt;stroke-linejoin:miter;stroke-opacity:1" id="path4303-5" d="m 60.391484,840.32719 c 5.537158,1.05196 5.957594,6.96898 9.261929,10.91077 -15.526748,8.2344 -15.14545,1.83249 -9.261929,-10.91077 z"/><path style="fill:#f55;fill-rule:evenodd;stroke:#000;stroke-width:1px;stroke-linecap:butt;stroke-linejoin:miter;stroke-opacity:1" id="path4295-8" d="m 167.37465,821.69777 c -16.78752,3.76971 -37.15603,1.95123 -55.86631,7.63722 -21.328744,6.48171 -40.411033,20.21781 -47.967411,19.21677 -5.170479,-0.68497 5.18454,-12.52188 -12.872122,-6.88379 C 35.175889,846.50554 21.073571,858.40646 6.2759497,866.77572 15.871318,885.27053 176.69914,858.5654 167.37465,821.69777 Z"/><path style="fill:url(#linearGradient4321-9);fill-opacity:1;fill-rule:evenodd;stroke:#000;stroke-width:1px;stroke-linecap:butt;stroke-linejoin:miter;stroke-opacity:1" id="path4293-8" d="m 167.74139,822.11968 21.15632,69.15949 c -25.85819,15.82727 -56.04659,23.89926 -84.83226,34.48352 L 78.958773,855.29662 c 30.619757,-9.54353 60.902387,-19.58524 88.782617,-33.17694 z"/><path style="fill:#ff8080;fill-rule:evenodd;stroke:#000;stroke-width:1px;stroke-linecap:butt;stroke-linejoin:miter;stroke-opacity:1" id="path4297-1" d="M 112.1063,843.66728 C 71.843658,854.23398 8.0229038,870.80341 6.4281616,866.86562 12.321576,890.42606 32.818873,905.78305 35.649685,931.75501 65.345144,947.21663 100.848,929.58324 135.00742,919.60583 127.92103,894.38485 122.17436,869.38875 112.1063,843.66728 Z"/><ellipse style="opacity:1;fill:#ff7f2a;fill-opacity:1;stroke:#000;stroke-width:1.10328221;stroke-linecap:round;stroke-linejoin:round;stroke-miterlimit:4;stroke-dasharray:none;stroke-dashoffset:0;stroke-opacity:1" id="path4301-5" cx="124.245" cy="902.147" rx="16.242" ry="15.253" transform="matrix(-0.96843709,0.24925809,0.24925809,0.96843709,0,0)"/><path style="fill:#000;fill-rule:evenodd;stroke:none;stroke-width:1px;stroke-linecap:butt;stroke-linejoin:miter;stroke-opacity:1" id="path4305-0" d="m 61.553119,847.58626 c 0.640868,3.33383 2.006061,5.61259 3.9783,8.19762 -1.716393,-2.80181 -2.703108,-5.13741 -2.988178,-8.33784 z"/><path style="fill:#ff2a2a;fill-rule:evenodd;stroke:#000;stroke-width:1px;stroke-linecap:butt;stroke-linejoin:miter;stroke-opacity:1" id="path4303" d="m 191.11673,936.2872 c -5.26195,2.01957 -4.62379,7.91708 -7.17474,12.38351 16.7433,5.34296 15.22998,-0.88918 7.17474,-12.38351 z"/><path style="fill:#f55;fill-rule:evenodd;stroke:#000;stroke-width:1px;stroke-linecap:butt;stroke-linejoin:miter;stroke-opacity:1" id="path4295" d="m 82.525835,936.97347 c 17.190277,0.72526 36.911055,-4.68527 56.334125,-2.41608 22.14129,2.58675 43.36156,12.71169 50.61961,10.38326 4.96635,-1.59324 -7.32803,-11.40074 11.44332,-9.06249 16.10613,2.00627 32.09951,11.21058 48.14926,16.81587 -6.1546,19.90603 -169.168129,22.21747 -166.546315,-15.72056 z"/><path style="fill:url(#linearGradient4321);fill-opacity:1;fill-rule:evenodd;stroke:#000;stroke-width:1px;stroke-linecap:butt;stroke-linejoin:miter;stroke-opacity:1" id="path4293" d="m 82.239942,937.45385 -8.524484,71.81895 c 28.259992,10.9782 59.402522,13.5549 89.611282,18.8532 l 12.17965,-73.80702 c -31.82862,-3.94808 -63.41405,-8.44633 -93.266448,-16.86513 z"/><path style="fill:#ff8080;fill-rule:evenodd;stroke:#000;stroke-width:1px;stroke-linecap:butt;stroke-linejoin:miter;stroke-opacity:1" id="path4297" d="m 140.81946,948.76769 c 41.4998,3.24069 107.24959,8.20045 108.11889,4.04187 -1.61108,24.23285 -19.05179,42.98913 -17.22034,69.05064 -26.47375,20.4944 -64.54587,9.4535 -99.9349,5.7077 2.48985,-26.079 3.7013,-51.69861 9.03635,-78.80021 z"/><ellipse style="opacity:1;fill:#ff7f2a;fill-opacity:1;stroke:#000;stroke-width:1.10328221;stroke-linecap:round;stroke-linejoin:round;stroke-miterlimit:4;stroke-dasharray:none;stroke-dashoffset:0;stroke-opacity:1" id="path4301" cx="232.342" cy="993.096" rx="16.242" ry="15.253" transform="matrix(0.99732288,0.07312367,-0.07312367,0.99732288,0,0)"/><path style="fill:#000;fill-rule:evenodd;stroke:none;stroke-width:1px;stroke-linecap:butt;stroke-linejoin:miter;stroke-opacity:1" id="path4305" d="m 190.2648,943.67518 c 0.28843,3.20013 -0.26736,5.67395 -1.45832,8.73625 1.48127,-2.89447 2.41961,-5.37963 2.4576,-8.77429 z"/></g></svg>