<svg xmlns="http://www.w3.org/2000/svg" xmlns:svg="http://www.w3.org/2000/svg" xmlns:xlink="http://www.w3.org/1999/xlink" id="svg4206" version="1.1" viewBox="0 0 256 256"><style id="style3">svg{cursor:default}</style><defs id="defs4208"><linearGradient id="innoGrad2"><stop style="stop-color:#ff8080;stop-opacity:1" id="stop4676" offset="0"/><stop style="stop-color:#f55;stop-opacity:1" id="stop4678" offset="1"/></linearGradient><linearGradient id="innoGrad3"><stop style="stop-color:#f55;stop-opacity:1" id="stop4663" offset="0"/><stop style="stop-color:#ff8080;stop-opacity:1" id="stop4665" offset="1"/></linearGradient><linearGradient id="innoGrad1"><stop style="stop-color:#faa;stop-opacity:1" id="stop4580" offset="0"/><stop style="stop-color:#f55;stop-opacity:1" id="stop4582" offset="1"/></linearGradient><linearGradient id="linearGradient4584" x1="315.082" x2="313.538" y1="122.843" y2="132.491" gradientTransform="translate(-218.1455,-24.802757)" gradientUnits="userSpaceOnUse" xlink:href="#innoGrad1"/><linearGradient id="linearGradient4654" x1="315.082" x2="313.538" y1="122.843" y2="132.491" gradientTransform="matrix(0.9025,0,0,0.9025,-108.57938,-24.052776)" gradientUnits="userSpaceOnUse" xlink:href="#innoGrad1"/><linearGradient id="linearGradient4667" x1="50.847" x2="90.497" y1="205.678" y2="130.362" gradientUnits="userSpaceOnUse" xlink:href="#innoGrad3"/><linearGradient id="linearGradient4680" x1="171.781" x2="140.668" y1="117.21" y2="186.888" gradientUnits="userSpaceOnUse" xlink:href="#innoGrad2"/></defs><metadata id="metadata4211"/><g id="layer4"><g id="g4333" transform="matrix(1.2066521,-0.18041362,0.18000822,1.0573194,-50.521728,-0.50785037)"><path style="fill:#faa;fill-rule:evenodd;stroke:none;stroke-width:.87427396px;stroke-linecap:butt;stroke-linejoin:miter;stroke-opacity:1" id="path4568-1" d="m 140.52925,81.395902 c -25.02321,26.785978 82.1889,48.828508 75.14286,15.56548 -7.50677,-10.140165 -54.8035,-22.332904 -75.14286,-15.56548 z"/><path id="path4574-0" d="m 202.86638,88.982732 c -14.37846,-5.929588 -36.98242,-10.599989 -52.94402,-9.330641 -29.61601,12.580534 81.07304,33.418819 52.94402,9.330641 z" style="fill:url(#linearGradient4654);fill-opacity:1;fill-rule:evenodd;stroke:none;stroke-width:.87427396px;stroke-linecap:butt;stroke-linejoin:miter;stroke-opacity:1"/><path id="path4576-2" d="m 140.52925,81.395902 c -25.02321,26.785978 82.1889,48.828508 75.14286,15.56548 -7.50677,-10.140165 -54.8035,-22.332904 -75.14286,-15.56548 z" style="fill:none;fill-rule:evenodd;stroke:#000;stroke-width:.78903222px;stroke-linecap:butt;stroke-linejoin:miter;stroke-opacity:1"/><path style="fill:url(#linearGradient4680);fill-opacity:1;fill-rule:evenodd;stroke:#000;stroke-width:.78903222px;stroke-linecap:butt;stroke-linejoin:miter;stroke-opacity:1" id="path4566-6" d="m 124.89288,175.46775 c 16.5394,14.71661 55.73423,24.3336 76.37187,10.21621 2.92501,-2.00087 2.93571,-2.45556 3.11579,-4.42622 0.61417,-6.72127 0.28943,-17.5898 1.87394,-20.15844 7.46244,-12.09724 8.66522,-23.91191 8.15664,-35.6845 -0.20252,-4.68793 0.914,-13.28909 3.62402,-19.98621 0.95681,-2.3645 0.0632,-7.049436 -2.55321,-8.716108 0.80327,10.811128 -34.20426,8.443558 -56.90266,0.664267 -15.09026,-5.171794 -20.64013,-12.451287 -17.47244,-16.157394 -2.20451,0.83335 -4.99463,1.828645 -6.03978,4.740597 -2.60366,7.254214 -0.34909,17.070318 -2.05779,21.684918 -4.80945,12.98859 -5.77506,23.76348 -5.51919,36.99679 0.0669,3.45912 -3.87035,20.54615 -3.98115,21.4688 -0.31127,2.59219 -0.69621,7.50638 1.38396,9.35729 z"/><path style="fill:#000;fill-rule:evenodd;stroke:none;stroke-width:1px;stroke-linecap:butt;stroke-linejoin:miter;stroke-opacity:1" id="path4570-4" d="m 144.88918,83.740299 c -0.33022,1.428155 0.49133,2.913471 2.19598,4.371939 1.6955,1.450641 4.24628,2.860724 7.34841,4.178557 5.71267,2.426837 13.31167,4.548274 20.96582,6.052795 0.66234,0.1136 1.32495,0.222596 1.98665,0.326791 8.34072,1.313371 16.5537,1.866559 22.28822,1.25642 2.86444,-0.304771 5.12839,-0.902171 6.46389,-1.850404 0.6709,-0.476352 1.10362,-1.03889 1.25759,-1.686168 0.15302,-0.643265 0.0279,-1.357087 -0.38585,-2.147953 0.37223,0.818171 0.43269,1.518599 0.24334,2.108388 -0.18799,0.585581 -0.62576,1.074122 -1.279,1.47951 -1.31342,0.815077 -3.51643,1.304118 -6.3525,1.507368 -5.66658,0.406101 -13.78801,-0.33571 -22.03801,-1.833721 -0.65378,-0.118712 -1.30827,-0.242154 -1.9623,-0.370125 -7.6312,-1.300479 -15.22015,-3.215884 -20.9468,-5.436246 -3.11008,-1.205854 -5.66616,-2.499708 -7.38716,-3.833436 -1.71077,-1.325798 -2.61781,-2.705846 -2.39828,-4.123715 z"/><path style="fill:#faa;fill-rule:evenodd;stroke:none;stroke-width:.87427396px;stroke-linecap:butt;stroke-linejoin:miter;stroke-opacity:1" id="path4568" d="M 57.87514,92.037883 C 30.14859,121.71763 148.94318,146.14149 141.13593,109.28495 132.81818,98.049313 80.41183,84.539353 57.87514,92.037883 Z"/><path id="path4574" d="M 126.94675,100.44434 C 111.01494,93.874163 85.969,88.699203 68.28302,90.105683 35.4675,104.04533 158.11464,127.13484 126.94675,100.44434 Z" style="fill:url(#linearGradient4584);fill-opacity:1;fill-rule:evenodd;stroke:none;stroke-width:.87427396px;stroke-linecap:butt;stroke-linejoin:miter;stroke-opacity:1"/><path id="path4576" d="M 57.87514,92.037883 C 30.14859,121.71763 148.94318,146.14149 141.13593,109.28495 132.81818,98.049313 80.41183,84.539353 57.87514,92.037883 Z" style="fill:none;fill-rule:evenodd;stroke:#000;stroke-width:.87427396px;stroke-linecap:butt;stroke-linejoin:miter;stroke-opacity:1"/><path style="fill:url(#linearGradient4667);fill-opacity:1;fill-rule:evenodd;stroke:#000;stroke-width:.87427396px;stroke-linecap:butt;stroke-linejoin:miter;stroke-opacity:1" id="path4566" d="m 40.54953,196.27262 c 18.3262,16.30649 61.75537,26.96243 84.62257,11.3199 3.241,-2.21703 3.25286,-2.72085 3.45239,-4.9044 0.68053,-7.44739 0.3207,-19.49009 2.07639,-22.33622 8.26863,-13.40415 9.60135,-26.4952 9.03783,-39.53962 -0.2244,-5.19438 -0.0727,-13.97845 2.93007,-21.39908 1.06017,-2.61994 1.82141,-7.32499 -1.74358,-10.40404 -1.18959,10.19039 -37.89945,9.35574 -63.05004,0.73603 -16.7205,-5.73052 -22.86994,-13.796437 -19.36004,-17.902927 -2.44267,0.92338 -5.53422,2.0262 -6.69228,5.25274 -2.88494,8.037907 -0.3868,18.914477 -2.2801,24.027607 -5.32903,14.39179 -6.39896,26.33072 -6.11544,40.99367 0.0741,3.83282 -4.28848,22.76582 -4.41125,23.78815 -0.3449,2.87223 -0.77142,8.31731 1.53348,10.36819 z"/><path style="fill:#000;fill-rule:evenodd;stroke:none;stroke-width:1px;stroke-linecap:butt;stroke-linejoin:miter;stroke-opacity:1" id="path4570" d="m 62.70609,94.635553 c -0.365898,1.582443 0.544409,3.228222 2.433216,4.844253 1.878669,1.607354 4.705024,3.169774 8.142284,4.629984 6.329835,2.68901 14.74978,5.03963 23.230827,6.70669 0.733896,0.12587 1.468085,0.24664 2.201278,0.3621 9.241795,1.45525 18.342045,2.06821 24.696085,1.39215 3.17389,-0.3377 5.68243,-0.99963 7.1622,-2.05031 0.74338,-0.52781 1.22285,-1.15112 1.39346,-1.86833 0.16955,-0.71276 0.0309,-1.50369 -0.42754,-2.38 0.41244,0.90656 0.47944,1.68266 0.26963,2.33616 -0.2083,0.64885 -0.69336,1.19017 -1.41718,1.63935 -1.4553,0.90313 -3.89631,1.44501 -7.03878,1.67021 -6.27875,0.44998 -15.27756,-0.37198 -24.418845,-2.03182 -0.72441,-0.13154 -1.449604,-0.26831 -2.17429,-0.41011 -8.455621,-1.44097 -16.864435,-3.56331 -23.209754,-6.02354 -3.446074,-1.33613 -6.278293,-2.76976 -8.18522,-4.247575 -1.895588,-1.469027 -2.900621,-2.998166 -2.657371,-4.569212 z"/></g></g></svg>