<svg xmlns="http://www.w3.org/2000/svg" xmlns:svg="http://www.w3.org/2000/svg" xmlns:xlink="http://www.w3.org/1999/xlink" id="svg4164" version="1.1" viewBox="0 0 256 256"><style id="style3">svg{cursor:default}</style><defs id="defs4166"><linearGradient id="linearGradient2"><stop style="stop-color:#ff8080;stop-opacity:1" id="stop4849" offset="0"/><stop style="stop-color:#faa;stop-opacity:1" id="stop4851" offset="1"/></linearGradient><linearGradient id="linearGradient0"><stop style="stop-color:#f55;stop-opacity:1" id="stop4841" offset="0"/><stop style="stop-color:#ff8080;stop-opacity:1" id="stop4843" offset="1"/></linearGradient><marker id="Arrow1Lstart" orient="auto" refX="0" refY="0" style="overflow:visible"><path id="path4233" d="M 0.0,0.0 L 5.0,-5.0 L -12.5,0.0 L 5.0,5.0 L 0.0,0.0 z" transform="scale(0.8) translate(12.5,0)" style="fill-rule:evenodd;stroke:#000;stroke-width:1pt;stroke-opacity:1;fill:#000;fill-opacity:1"/></marker><linearGradient id="linearGradient1" x1="132.857" x2="131.071" y1="1058.791" y2="992.719" gradientUnits="userSpaceOnUse" xlink:href="#linearGradient0"/><linearGradient id="linearGradient3" x1="132.5" x2="132.5" y1="857.005" y2="807.362" gradientUnits="userSpaceOnUse" xlink:href="#linearGradient2"/></defs><metadata id="metadata4169"/><g id="layer1" transform="translate(0,-796.36219)" style="display:inline"><g id="g4855" transform="translate(-2.4007305,6.0113275)"><path id="path4754" d="m 189.33485,924.56725 c 0.86764,-0.01 3.40928,0.22315 3.39286,-5.71428 -0.0135,-4.88377 -3.49391,-4.81602 -3.49391,-4.81602 z" style="fill:#b3b3b3;fill-rule:evenodd;stroke:#000;stroke-width:1px;stroke-linecap:butt;stroke-linejoin:miter;stroke-opacity:1"/><path id="path4752" d="m 184.86607,925.3979 -0.0217,-12.07972 4.6636,-0.0216 c 0.14829,3.94378 0.28525,7.89664 0.0216,12.16994 z" style="fill:#b3b3b3;fill-rule:evenodd;stroke:#000;stroke-width:1px;stroke-linecap:butt;stroke-linejoin:miter;stroke-opacity:1"/><path id="path4738" d="m 104.28571,865.39791 c -0.90087,-29.45514 1.10292,-51.59212 3.21429,-56.25001 1.79914,-0.7847 4.28867,-1.10914 6.78571,-1.42857 8.40885,-6.95983 28.00558,-3.72176 30.35715,-0.35714 3.1632,-0.39598 5.28677,-0.19789 6.78571,0.35714 2.77887,2.97008 5.29762,36.01191 5.53572,58.03572 -20.19826,-1.69643 -36.33688,-1.16072 -52.67858,-0.35714 z" style="fill:url(#linearGradient3);fill-opacity:1;fill-rule:evenodd;stroke:#000;stroke-width:1px;stroke-linecap:butt;stroke-linejoin:miter;stroke-opacity:1"/><path id="path4740" d="m 104.10714,972.00505 c 1.07143,21.84525 1.59182,43.13945 3.21429,65.53575 1.95161,2.1594 4.50103,1.4462 6.78571,1.9643 5.93664,4.4407 26.93284,3.6227 31.07143,-0.5358 2.78575,-0.053 5.30518,-0.3068 7.14286,-1.0714 3.12429,-21.4386 3.7311,-43.15686 4.82143,-64.82142 -18.99688,0.77283 -38.21158,0.0615 -53.03572,-1.07143 z" style="fill:url(#linearGradient1);fill-opacity:1;fill-rule:evenodd;stroke:#000;stroke-width:1px;stroke-linecap:butt;stroke-linejoin:miter;stroke-opacity:1"/><ellipse id="path4742" cx="130.268" cy="918.791" rx="55.095" ry="55.542" style="fill:#999;fill-opacity:1;stroke:#000;stroke-width:.98823714;stroke-miterlimit:4;stroke-dasharray:none;stroke-dashoffset:0"/><ellipse style="fill:#b3b3b3;fill-opacity:1;stroke:#000;stroke-width:.93980366;stroke-miterlimit:4;stroke-dasharray:none;stroke-dashoffset:0" id="ellipse4744" cx="130.268" cy="918.791" rx="52.395" ry="52.819"/><ellipse id="ellipse4746" cx="130.268" cy="918.791" rx="49.329" ry="49.729" style="fill:#f9f9f9;fill-opacity:1;stroke:#000;stroke-width:.88480651;stroke-miterlimit:4;stroke-dasharray:none;stroke-dashoffset:0"/><path id="path4748" d="m 97.857143,964.05862 c -0.05362,6.04167 0.676433,12.08333 1.071429,18.125 1.892378,0.78048 3.337088,0.36718 4.732138,-0.17857 -0.0605,-4.85023 -0.27713,-9.5443 -0.17857,-14.55357 z" style="fill:#ccc;fill-rule:evenodd;stroke:#000;stroke-width:1px;stroke-linecap:butt;stroke-linejoin:miter;stroke-opacity:1"/><path id="path4750" d="m 157.23214,982.80862 c 1.28851,0.52171 2.26866,1.42032 5,0.17857 0.20869,-6.36905 0.75126,-12.73809 0.625,-19.10714 l -6.07143,3.92857 c 0.61198,4.53683 0.30252,9.9951 0.44643,15 z" style="fill:#ccc;fill-rule:evenodd;stroke:#000;stroke-width:1px;stroke-linecap:butt;stroke-linejoin:miter;stroke-opacity:1"/><path id="path4756" d="m 97.946429,873.5229 c 0.605044,-5.79088 0.816865,-11.71283 1.197697,-17.57845 0.263326,-1.04217 3.921944,-0.73917 4.248734,-0.1001 -0.0298,4.85119 -0.0595,9.47094 -0.0893,14.55357 z" style="fill:#ccc;fill-rule:evenodd;stroke:#000;stroke-width:1px;stroke-linecap:butt;stroke-linejoin:miter;stroke-opacity:1"/><path id="path4758" d="m 157.14286,869.7729 0.17857,-13.66071 c 0.50344,-0.32261 1.42666,-1.0502 3.92857,0.0446 0.55826,5.97448 1.11174,11.95373 1.78571,17.8125 z" style="fill:#ccc;fill-rule:evenodd;stroke:#000;stroke-width:1px;stroke-linecap:butt;stroke-linejoin:miter;stroke-opacity:1"/><path id="path4760" d="m 90.267857,895.93362 9.910713,5.26786" style="fill:none;fill-rule:evenodd;stroke:#000;stroke-width:1px;stroke-linecap:butt;stroke-linejoin:miter;stroke-opacity:1"/><path id="path4762" d="m 84.464286,918.61219 10.982143,-0.0893" style="fill:none;fill-rule:evenodd;stroke:#000;stroke-width:1px;stroke-linecap:butt;stroke-linejoin:miter;stroke-opacity:1"/><path id="path4764" d="m 90.446429,941.29076 10.000001,-5.625" style="fill:none;fill-rule:evenodd;stroke:#000;stroke-width:1px;stroke-linecap:butt;stroke-linejoin:miter;stroke-opacity:1"/><path id="path4766" d="m 107.32143,957.71933 5.625,-9.375" style="fill:none;fill-rule:evenodd;stroke:#000;stroke-width:1px;stroke-linecap:butt;stroke-linejoin:miter;stroke-opacity:1"/><path id="path4768" d="m 130.44643,952.98719 0.17857,11.25" style="fill:none;fill-rule:evenodd;stroke:#000;stroke-width:1px;stroke-linecap:butt;stroke-linejoin:miter;stroke-opacity:1"/><path id="path4770" d="m 147.5,948.5229 5.625,9.28572" style="fill:none;fill-rule:evenodd;stroke:#000;stroke-width:1px;stroke-linecap:butt;stroke-linejoin:miter;stroke-opacity:1"/><path id="path4772" d="m 160.26786,935.66576 9.91071,5.44643" style="fill:none;fill-rule:evenodd;stroke:#000;stroke-width:1px;stroke-linecap:butt;stroke-linejoin:miter;stroke-opacity:1"/><path id="path4774" d="m 164.82143,918.07648 11.51786,0.26785" style="fill:none;fill-rule:evenodd;stroke:#000;stroke-width:1px;stroke-linecap:butt;stroke-linejoin:miter;stroke-opacity:1"/><path id="path4776" d="m 160.26786,900.84433 9.91071,-5.71428" style="fill:none;fill-rule:evenodd;stroke:#000;stroke-width:1px;stroke-linecap:butt;stroke-linejoin:miter;stroke-opacity:1"/><path id="path4778" d="M 147.67857,888.25505 153.125,878.5229" style="fill:none;fill-rule:evenodd;stroke:#000;stroke-width:1px;stroke-linecap:butt;stroke-linejoin:miter;stroke-opacity:1"/><path id="path4780" d="m 107.32143,878.88005 5.98214,9.46428" style="fill:none;fill-rule:evenodd;stroke:#000;stroke-width:1px;stroke-linecap:butt;stroke-linejoin:miter;stroke-opacity:1"/><path id="path4782" d="m 125.9534,883.66672 5.05076,-10.92228" style="fill:none;fill-rule:evenodd;stroke:#000;stroke-width:1px;stroke-linecap:butt;stroke-linejoin:miter;stroke-opacity:1"/><path id="path4784" d="m 126.20593,872.74444 4.60882,10.6066" style="fill:none;fill-rule:evenodd;stroke:#000;stroke-width:1px;stroke-linecap:butt;stroke-linejoin:miter;stroke-opacity:1"/><path id="path4786" d="m 132.39312,872.99698 0,10.35406" style="fill:none;fill-rule:evenodd;stroke:#000;stroke-width:1px;stroke-linecap:butt;stroke-linejoin:miter;stroke-opacity:1"/><path id="path4788" d="m 134.53969,872.99698 -0.0631,10.35406" style="fill:none;fill-rule:evenodd;stroke:#000;stroke-width:1px;stroke-linecap:butt;stroke-linejoin:miter;stroke-opacity:1"/><path id="path4790" d="m 129.23639,883.72985 c 0.44194,0 6.56599,0 6.56599,0" style="fill:none;fill-rule:evenodd;stroke:#000;stroke-width:1px;stroke-linecap:butt;stroke-linejoin:miter;stroke-opacity:1"/><path id="path4792" d="m 125.06951,883.85612 1.89404,-0.0631" style="fill:none;fill-rule:evenodd;stroke:#000;stroke-width:1px;stroke-linecap:butt;stroke-linejoin:miter;stroke-opacity:1"/><path id="path4794" d="m 125.38518,872.42877 c 0.25254,0 2.20971,0.12627 2.20971,0.12627" style="fill:none;fill-rule:evenodd;stroke:#000;stroke-width:1px;stroke-linecap:butt;stroke-linejoin:miter;stroke-opacity:1"/><path id="path4796" d="m 129.99401,872.4919 5.24016,0.12627" style="fill:none;fill-rule:evenodd;stroke:#000;stroke-width:1px;stroke-linecap:butt;stroke-linejoin:miter;stroke-opacity:1"/><path id="path4798" d="m 185.35714,923.36666 4.24108,0.0223" style="fill:none;fill-rule:evenodd;stroke:#000;stroke-width:.5;stroke-linecap:butt;stroke-linejoin:miter;stroke-miterlimit:4;stroke-dasharray:none;stroke-opacity:1"/><path id="path4800" d="m 189.62053,920.33094 -4.08481,-0.0669" style="fill:none;fill-rule:evenodd;stroke:#000;stroke-width:.5;stroke-linecap:butt;stroke-linejoin:miter;stroke-miterlimit:4;stroke-dasharray:none;stroke-opacity:1"/><path id="path4802" d="m 185.44643,921.84879 4.04018,0.0892" style="fill:none;fill-rule:evenodd;stroke:#000;stroke-width:.5;stroke-linecap:butt;stroke-linejoin:miter;stroke-miterlimit:4;stroke-dasharray:none;stroke-opacity:1"/><path id="path4804" d="m 189.59821,918.56755 -4.01786,0" style="fill:none;fill-rule:evenodd;stroke:#000;stroke-width:.5;stroke-linecap:butt;stroke-linejoin:miter;stroke-miterlimit:4;stroke-dasharray:none;stroke-opacity:1"/><path id="path4806" d="m 185.49107,917.00504 c 0.17858,0 4.12946,-0.0446 4.12946,-0.0446" style="fill:none;fill-rule:evenodd;stroke:#000;stroke-width:.5;stroke-linecap:butt;stroke-linejoin:miter;stroke-miterlimit:4;stroke-dasharray:none;stroke-opacity:1"/><path id="path4808" d="m 189.33036,914.50504 -4.01786,-0.0446" style="fill:none;fill-rule:evenodd;stroke:#000;stroke-width:.5;stroke-linecap:butt;stroke-linejoin:miter;stroke-miterlimit:4;stroke-dasharray:none;stroke-opacity:1"/><path id="path4808-5" d="m 189.39732,915.57646 -4.01786,-0.0446" style="display:inline;fill:none;fill-rule:evenodd;stroke:#000;stroke-width:.5;stroke-linecap:butt;stroke-linejoin:miter;stroke-miterlimit:4;stroke-dasharray:none;stroke-opacity:1"/><path id="path4808-3" d="m 189.28572,924.59431 -4.01786,-0.0446" style="display:inline;fill:none;fill-rule:evenodd;stroke:#000;stroke-width:.5;stroke-linecap:butt;stroke-linejoin:miter;stroke-miterlimit:4;stroke-dasharray:none;stroke-opacity:1"/><path id="path4831" d="m 113.83929,1039.5943 c -1.74273,-17.6786 -2.52748,-35.3571 -3.66072,-53.03568" style="fill:none;fill-rule:evenodd;stroke:#000;stroke-width:1;stroke-linecap:butt;stroke-linejoin:miter;stroke-miterlimit:4;stroke-dasharray:6,1;stroke-dashoffset:0;stroke-opacity:1"/><path id="path4833" d="m 149.84375,986.75952 c -0.84978,16.92518 -1.10873,34.52898 -4.375,52.05358" style="fill:none;fill-rule:evenodd;stroke:#000;stroke-width:1;stroke-linecap:butt;stroke-linejoin:miter;stroke-miterlimit:4;stroke-dasharray:6,1;stroke-dashoffset:0;stroke-opacity:1"/><path id="path4835" d="m 113.6454,807.96103 c -2.45979,14.48294 -3.10554,29.36268 -3.46683,44.04402" style="fill:none;fill-rule:evenodd;stroke:#000;stroke-width:1;stroke-linecap:butt;stroke-linejoin:miter;stroke-miterlimit:4;stroke-dasharray:6,1;stroke-dashoffset:0;stroke-opacity:1"/><path id="path4837" d="m 144.9152,807.37302 c 3.50331,12.4142 3.79756,30.68912 4.37051,43.38203" style="fill:none;fill-rule:evenodd;stroke:#000;stroke-width:1;stroke-linecap:butt;stroke-linejoin:miter;stroke-miterlimit:4;stroke-dasharray:6,1;stroke-dashoffset:0;stroke-opacity:1"/></g></g></svg>