<svg xmlns="http://www.w3.org/2000/svg" xmlns:svg="http://www.w3.org/2000/svg" id="svg4311" width="100%" height="100%" version="1.1" viewBox="0 0 64 64"><metadata id="metadata4316"/><g id="layer3" style="display:inline"><path style="fill:#f2f2f2;fill-rule:evenodd;stroke:#000;stroke-width:1px;stroke-linecap:butt;stroke-linejoin:miter;stroke-opacity:1" id="path4148" d="m 8.1250003,60.562501 47.8750027,-0.0625 c 4.20164,-0.0055 4.757067,-2.554956 4.75,-5 l 0.0625,-35.312502 -57.0000028,-0.125 -0.1875,34.937502 c -0.013777,2.567152 1.8559853,5.565952 4.5000001,5.5625 z"/><path style="fill:#f55;fill-rule:evenodd;stroke:#000;stroke-width:1px;stroke-linecap:butt;stroke-linejoin:miter;stroke-opacity:1" id="path4150" d="m 3.8750002,16.999999 0,-5.6875 c 0,-1.6016845 0.8001547,-3.9417505 3.2497892,-3.9322355 L 57.730403,7.5768288 c 2.118352,0.00823 3.2696,2.1234528 3.2696,3.7981702 l -0.0625,5.625 z"/><path style="fill:gray;fill-rule:evenodd;stroke:#000;stroke-width:1px;stroke-linecap:butt;stroke-linejoin:miter;stroke-opacity:1" id="path4172" d="m 11.281251,12.187499 0,-8.0625007 c 0,-3.22167535 5.576122,-3.95141431 5.53125,-0.0625 l -0.09375,8.1250007 c -0.03569,3.092832 -5.4375,3.743843 -5.4375,0 z"/><path style="display:inline;fill:gray;fill-rule:evenodd;stroke:#000;stroke-width:1px;stroke-linecap:butt;stroke-linejoin:miter;stroke-opacity:1" id="path4172-0" d="m 48.984251,12.286958 0,-8.0625012 c 0,-3.2216753 5.576122,-3.95141419 5.53125,-0.0625 l -0.09375,8.1250012 c -0.03569,3.092832 -5.4375,3.743843 -5.4375,0 z"/><path style="display:inline;fill:#333;fill-rule:evenodd;stroke:#000;stroke-width:1px;stroke-linecap:butt;stroke-linejoin:miter;stroke-opacity:1" id="path4189-8" d="m 18.288125,25.483391 0,6.645212 7.258568,0.03125 0.0054,-6.63985 z"/><path style="display:inline;fill:#333;fill-rule:evenodd;stroke:#000;stroke-width:1px;stroke-linecap:butt;stroke-linejoin:miter;stroke-opacity:1" id="path4189-6" d="m 28.412722,25.660075 0,6.645212 7.258568,0.03125 0.0054,-6.63985 z"/><path style="display:inline;fill:#333;fill-rule:evenodd;stroke:#000;stroke-width:1px;stroke-linecap:butt;stroke-linejoin:miter;stroke-opacity:1" id="path4189-8-4" d="m 38.745896,25.66026 0,6.645212 7.258568,0.03125 0.0054,-6.63985 z"/><path style="display:inline;fill:#333;fill-rule:evenodd;stroke:#000;stroke-width:1px;stroke-linecap:butt;stroke-linejoin:miter;stroke-opacity:1" id="path4189-8-4-7" d="m 48.870494,25.748557 0,6.645212 7.258568,0.03125 0.0054,-6.63985 z"/><path style="display:inline;fill:#333;fill-rule:evenodd;stroke:#000;stroke-width:1px;stroke-linecap:butt;stroke-linejoin:miter;stroke-opacity:1" id="path4189-3" d="m 7.6414613,36.39926 0,6.645212 7.2585667,0.03125 0.0054,-6.63985 z"/><path style="display:inline;fill:#333;fill-rule:evenodd;stroke:#000;stroke-width:1px;stroke-linecap:butt;stroke-linejoin:miter;stroke-opacity:1" id="path4189-8-5" d="m 17.974634,36.399445 0,6.645212 7.258568,0.03125 0.0054,-6.63985 z"/><path style="display:inline;fill:#333;fill-rule:evenodd;stroke:#000;stroke-width:1px;stroke-linecap:butt;stroke-linejoin:miter;stroke-opacity:1" id="path4189-6-7" d="m 28.099231,36.576129 0,6.645212 7.258568,0.03125 0.0054,-6.63985 z"/><path style="display:inline;fill:#333;fill-rule:evenodd;stroke:#000;stroke-width:1px;stroke-linecap:butt;stroke-linejoin:miter;stroke-opacity:1" id="path4189-8-4-0" d="m 38.432405,36.576314 0,6.645212 7.258568,0.03125 0.0054,-6.63985 z"/><path style="display:inline;fill:#333;fill-rule:evenodd;stroke:#000;stroke-width:1px;stroke-linecap:butt;stroke-linejoin:miter;stroke-opacity:1" id="path4189-8-4-7-7" d="m 48.557003,36.664611 0,6.645212 7.258568,0.03125 0.0054,-6.63985 z"/><path style="display:inline;fill:#333;fill-rule:evenodd;stroke:#000;stroke-width:1px;stroke-linecap:butt;stroke-linejoin:miter;stroke-opacity:1" id="path4189-4" d="m 7.6414612,46.652309 0,6.645212 7.2585668,0.03125 0.0054,-6.63985 z"/><path style="display:inline;fill:#333;fill-rule:evenodd;stroke:#000;stroke-width:1px;stroke-linecap:butt;stroke-linejoin:miter;stroke-opacity:1" id="path4189-8-6" d="m 17.974634,46.652494 0,6.645212 7.258568,0.03125 0.0054,-6.63985 z"/><path style="display:inline;fill:#333;fill-rule:evenodd;stroke:#000;stroke-width:1px;stroke-linecap:butt;stroke-linejoin:miter;stroke-opacity:1" id="path4189-6-2" d="m 28.099231,46.829178 0,6.645212 7.258568,0.03125 0.0054,-6.63985 z"/></g></svg>