<svg xmlns="http://www.w3.org/2000/svg" xmlns:svg="http://www.w3.org/2000/svg" id="svg4311" width="100%" height="100%" version="1.1" viewBox="0 0 64 64"><metadata id="metadata4316"/><g id="layer3" style="display:inline"><g id="g4146" transform="matrix(1.157625,0,0,1.157625,-5.5755797,-4.6885936)"><path id="path4145" d="m 42.412494,55.935352 -24.32601,-0.227346 c -2.435031,-0.02275 -4.381915,-2.38285 -4.395354,-5.077392 L 13.539566,20.242047 c -0.01829,-3.666008 2.663508,-4.850045 5.380519,-4.850045 l 17.657198,0 9.700091,9.245399 0.303128,26.296342 c 0.029,2.516187 -1.560683,5.025976 -4.168008,5.001609 z" style="fill:none;fill-rule:evenodd;stroke:#ff8080;stroke-width:4.28687477;stroke-linecap:round;stroke-linejoin:miter;stroke-miterlimit:4;stroke-dasharray:none;stroke-opacity:1"/><path id="path4147" d="M 20.949388,45.76297 39.61237,45.660393" style="fill:none;fill-rule:evenodd;stroke:#ff8080;stroke-width:4.28687477;stroke-linecap:round;stroke-linejoin:miter;stroke-miterlimit:4;stroke-dasharray:none;stroke-opacity:1"/><path id="path4149" d="M 39.933885,37.030445 20.511506,36.989861" style="fill:none;fill-rule:evenodd;stroke:#ff8080;stroke-width:4.28687477;stroke-linecap:round;stroke-linejoin:miter;stroke-miterlimit:4;stroke-dasharray:none;stroke-opacity:1"/><path id="path4151" d="m 20.632469,28.257336 11.736222,-0.05818" style="fill:none;fill-rule:evenodd;stroke:#ff8080;stroke-width:4.28687477;stroke-linecap:round;stroke-linejoin:miter;stroke-miterlimit:4;stroke-dasharray:none;stroke-opacity:1"/><path id="path4153" d="M 19.07165,11.602903 C 19.13684,9.2381762 20.263118,8.2119121 23.315439,8.1927151 L 47.414103,8.0411512 c 3.506907,-0.022056 4.975684,1.9133828 5.00161,4.6226998 l 0.303128,31.67686 c 0.031,3.23987 -1.373462,4.749733 -2.950111,4.763166" style="fill:none;fill-rule:evenodd;stroke:#ff8080;stroke-width:4.28687477;stroke-linecap:butt;stroke-linejoin:miter;stroke-miterlimit:4;stroke-dasharray:none;stroke-opacity:1"/><path id="path4155" d="m 35.751344,15.868955 0,5.572938 c 0,2.576725 2.266847,4.375387 4.394047,4.394047 l 6.108797,0.05359 z" style="fill:#ff8080;fill-rule:evenodd;stroke:#ff8080;stroke-width:.85737503px;stroke-linecap:butt;stroke-linejoin:miter;stroke-opacity:1"/></g></g></svg>