<svg xmlns="http://www.w3.org/2000/svg" xmlns:svg="http://www.w3.org/2000/svg" id="svg4311" width="100%" height="100%" version="1.1" viewBox="0 0 64 64"><metadata id="metadata4316"/><g id="layer1" transform="translate(0,-988.36216)" style="display:inline"><path style="display:inline;fill:#e202a8;fill-opacity:1;fill-rule:evenodd;stroke:#000;stroke-width:1.15762496px;stroke-linecap:butt;stroke-linejoin:miter;stroke-opacity:1" id="path4382" d="M 11.614856,1023.3447 C 1.1613936,1011.5394 -1.3687253,1002.7451 3.4799531,991.31062 4.6974589,1002.4571 5.9333192,1005.468 18.157006,1013.2178 Z"/><path style="display:inline;fill:#e602ab;fill-opacity:1;fill-rule:evenodd;stroke:#000;stroke-width:1.15762496px;stroke-linecap:butt;stroke-linejoin:miter;stroke-opacity:1" id="path4382-3" d="m 52.325854,1024.0733 c 10.453462,-11.8053 12.983581,-20.5996 8.134903,-32.034 -1.217507,11.1466 -2.453366,14.1573 -14.677053,21.9072 z"/><path style="fill:#ff35ca;fill-opacity:1;fill-rule:evenodd;stroke:#000;stroke-width:1.158;stroke-linecap:butt;stroke-linejoin:round;stroke-opacity:1;stroke-miterlimit:4;stroke-dasharray:none" id="path4859" d="m 10.736296,1020.7627 c -3.8590303,-15.4252 18.415802,-15.3816 21.698051,-3.2336 2.602782,-12.2663 23.389661,-12.2894 20.743574,3.755 -2.029891,12.3081 -17.243168,11.9559 -21.746407,30.2432 -3.861146,-18.2361 -17.68894,-18.748 -20.695217,-30.7646 z"/><path style="fill:#fff;fill-opacity:.78504675;fill-rule:evenodd;stroke:none;stroke-width:1px;stroke-linecap:butt;stroke-linejoin:miter;stroke-opacity:1" id="path4861" d="m 50.41515,1025.8769 c 1.52811,-10.8514 -3.561947,-15.1391 -13.151817,-14.5414 9.369367,-4.8168 19.538166,1.3758 13.151817,14.5414 z"/></g></svg>