<svg xmlns="http://www.w3.org/2000/svg" xmlns:svg="http://www.w3.org/2000/svg" id="svg4311" width="100%" height="100%" version="1.1" viewBox="0 0 64 64"><metadata id="metadata4316"/><g id="layer3" style="display:inline"><path style="fill:#ff2a2a;fill-rule:evenodd;stroke:#000;stroke-width:.91256618;stroke-linecap:round;stroke-linejoin:round;stroke-miterlimit:4;stroke-dasharray:none;stroke-opacity:1" id="path4152" d="m 7.8925898,55.284494 c -0.00502,1.367404 0.8419108,2.685783 2.1679182,2.682999 l 44.030526,-0.09243 c 1.609411,-0.0034 2.892552,-1.110461 2.89051,-2.523751 l -0.01458,-10.089323 c -0.0028,-1.957043 -7.847713,-2.236474 -7.830867,-0.298021 0.0078,0.894373 0.06796,7.107984 -0.253571,7.415008 -0.3995,0.381473 -32.576036,0.429061 -32.863981,0.07908 -0.248606,-0.30215 -0.338756,-5.794882 -0.202915,-7.510435 0.107789,-1.361281 -7.8797477,-1.549972 -7.885252,-0.03869 z"/><path style="fill:#ff8080;fill-rule:evenodd;stroke:#000;stroke-width:.975999px;stroke-linecap:butt;stroke-linejoin:round;stroke-opacity:1" id="path4160" d="m 32.382739,8.6299908 -13.801944,15.3647312 8.878958,0.04233 -0.351644,22.560334 10.065751,0.04233 -0.131865,-22.644988 8.835003,0 z"/></g></svg>