<svg xmlns="http://www.w3.org/2000/svg" xmlns:svg="http://www.w3.org/2000/svg" id="svg4311" width="100%" height="100%" version="1.1" viewBox="0 0 64 64"><metadata id="metadata4316"/><g id="layer3" style="display:inline"><path style="fill:#e6e6e6;fill-rule:evenodd;stroke:#000;stroke-width:.91256618px;stroke-linecap:butt;stroke-linejoin:miter;stroke-opacity:1" id="path4156" d="M 18.516053,6.1062793 46.833111,6.214444 47.276148,25.626642 17.845887,24.999253 Z"/><path style="fill:#ff8080;fill-rule:evenodd;stroke:#000;stroke-width:.91256618;stroke-linecap:round;stroke-linejoin:round;stroke-miterlimit:4;stroke-dasharray:none;stroke-opacity:1" id="path4152" d="m 7.8925898,55.284494 c -0.00502,1.367404 0.8419108,2.685783 2.1679182,2.682999 l 44.030526,-0.09243 c 1.609411,-0.0034 2.892552,-1.110461 2.89051,-2.523751 L 56.918776,11.925079 51.06315,6.260131 45.936537,6.1982024 46.06934,23.615918 19.188523,23.753615 19.083398,6.0890264 10.619474,6.1960077 C 8.9567338,6.2170241 8.0647998,7.9919374 8.0604816,9.1778838 Z"/><path style="fill:#e6e6e6;fill-rule:evenodd;stroke:#000;stroke-width:1px;stroke-linecap:butt;stroke-linejoin:round;stroke-opacity:1" id="path4154" d="m 14.653201,28.366932 35.924032,0.005 c 0.661595,9.4e-5 0.670216,0.137815 0.670667,0.736178 l 0.01745,23.154055 c 5.59e-4,0.74279 0.02248,0.969572 -0.752424,0.968392 l -36.174742,-0.05502 c -0.443115,-6.75e-4 -0.541247,-0.24664 -0.540239,-0.685214 l 0.05352,-23.281356 c 0.0016,-0.672629 0.100694,-0.844332 0.801735,-0.842055 z"/><path style="fill:#ff8080;fill-opacity:1;fill-rule:evenodd;stroke:#000;stroke-width:.91256618px;stroke-linecap:butt;stroke-linejoin:round;stroke-opacity:1" id="path4158" d="m 35.070574,7.8886353 -0.05703,12.9470337 5.817611,0 0.11407,-12.8899982 z"/></g></svg>