<svg xmlns="http://www.w3.org/2000/svg" xmlns:svg="http://www.w3.org/2000/svg" id="svg4311" width="100%" height="100%" version="1.1" viewBox="0 0 64 64"><metadata id="metadata4316"/><g id="layer3" style="display:inline"><path style="fill:#f55;fill-rule:evenodd;stroke:#000;stroke-width:1.21000004px;stroke-linecap:butt;stroke-linejoin:miter;stroke-opacity:1" id="path828" d="M 47.939737,5.1712805 36.068293,38.218801 c -0.685646,1.908691 0.67459,4.09915 1.818149,0.855599 L 49.650927,5.7060305 c -0.55911,-0.216858 -1.13783,-0.366869 -1.71119,-0.53475 z"/><path id="path846" d="m 17.88681,62.389479 22.138627,-0.106952 4.987,-34.993511 C 33.734587,26.077394 19.175828,28.155081 12.648782,26.667842 Z" style="fill:#faa;fill-opacity:.78431373;fill-rule:evenodd;stroke:none;stroke-width:1.21000004px;stroke-linecap:round;stroke-linejoin:round;stroke-opacity:1"/><path style="fill:none;fill-rule:evenodd;stroke:#000;stroke-width:1.21000004px;stroke-linecap:round;stroke-linejoin:round;stroke-opacity:1" id="path822" d="M 17.88681,62.389479 40.025437,62.28253 46.335487,18.005268 11.362866,17.898319 Z"/><path style="fill:#ff8080;fill-opacity:1;fill-rule:evenodd;stroke:#000;stroke-width:1.21000004px;stroke-linecap:butt;stroke-linejoin:miter;stroke-opacity:1" id="path824" d="m 26.475884,11.263532 9.106583,0.668242 3.74493,3.253546 5.94834,-0.365194 4.79601,4.408066 4.72827,-0.736893 4.98015,4.569516 -9.86305,-21.2163506 c -6.923,3.2293271 -23.441233,9.4190676 -23.441233,9.4190676 z"/><path style="fill:none;fill-rule:evenodd;stroke:#000;stroke-width:.60500002;stroke-linecap:butt;stroke-linejoin:miter;stroke-miterlimit:4;stroke-dasharray:none;stroke-opacity:1" id="path830" d="M 35.582467,11.931774 49.917117,1.8444644"/><path style="fill:none;fill-rule:evenodd;stroke:#000;stroke-width:.60500002;stroke-linecap:butt;stroke-linejoin:miter;stroke-miterlimit:4;stroke-dasharray:none;stroke-opacity:1" id="path832" d="M 49.917117,1.8444644 45.275737,14.820126"/><path style="fill:none;fill-rule:evenodd;stroke:#000;stroke-width:.60500002;stroke-linecap:butt;stroke-linejoin:miter;stroke-miterlimit:4;stroke-dasharray:none;stroke-opacity:1" id="path834" d="m 49.917117,1.8444644 4.8829,16.6468346"/></g></svg>