<svg xmlns="http://www.w3.org/2000/svg" xmlns:svg="http://www.w3.org/2000/svg" id="svg4311" width="100%" height="100%" version="1.1" viewBox="0 0 64 64"><metadata id="metadata4316"/><g id="layer3" style="display:inline"><g id="g832" transform="translate(-0.37500002,3.0000002)"><path id="path828-1" d="M 6.7302747,11.556101 C 12.297905,9.5474514 18.149099,6.5876974 22.170376,7.6837614 c 1.005399,0.274038 1.190792,1.939343 1.29487,2.5535286 l 6.818856,40.239372 c 0.267289,1.577324 2.244868,1.256013 2.005958,-0.117683 0,0 -4.045125,-26.210932 -6.708351,-40.118762 -0.273597,-1.4287686 -0.634308,-3.6408916 -1.894177,-4.3174836 -3.590795,-1.928377 -12.727004,1.730657 -17.9045193,3.798094 -0.9128,0.3644906 -0.236031,2.2621736 0.947262,1.8352736 z" style="display:inline;fill:#f55;fill-rule:evenodd;stroke:#000;stroke-width:.75;stroke-linecap:butt;stroke-linejoin:miter;stroke-miterlimit:4;stroke-dasharray:none;stroke-opacity:1"/><path id="path897" d="m 23.464506,9.6190674 1.96664,-0.397748" style="fill:none;fill-rule:evenodd;stroke:#000;stroke-width:.5;stroke-linecap:butt;stroke-linejoin:miter;stroke-miterlimit:4;stroke-dasharray:none;stroke-opacity:1"/><path id="path899" d="m 22.642432,7.9300754 1.635184,-1.06066" style="fill:none;fill-rule:evenodd;stroke:#000;stroke-width:.5;stroke-linecap:butt;stroke-linejoin:miter;stroke-miterlimit:4;stroke-dasharray:none;stroke-opacity:1"/><path id="path901" d="m 22.049182,7.4796714 0.950174,-1.635184" style="fill:none;fill-rule:evenodd;stroke:#000;stroke-width:.5;stroke-linecap:butt;stroke-linejoin:miter;stroke-miterlimit:4;stroke-dasharray:none;stroke-opacity:1"/><path id="path903" d="M 20.332961,7.3131584 20.100942,5.4791004" style="fill:none;fill-rule:evenodd;stroke:#000;stroke-width:.5;stroke-linecap:butt;stroke-linejoin:miter;stroke-miterlimit:4;stroke-dasharray:none;stroke-opacity:1"/><path id="path903-0" d="m 21.326651,7.3672964 0.176777,-1.767767" style="display:inline;fill:none;fill-rule:evenodd;stroke:#000;stroke-width:.5;stroke-linecap:butt;stroke-linejoin:miter;stroke-miterlimit:4;stroke-dasharray:none;stroke-opacity:1"/><path id="path899-2" d="m 23.079412,8.7644234 1.811882,-0.71827" style="display:inline;fill:none;fill-rule:evenodd;stroke:#000;stroke-width:.5;stroke-linecap:butt;stroke-linejoin:miter;stroke-miterlimit:4;stroke-dasharray:none;stroke-opacity:1"/></g><path id="path846-7" d="M 27.405799,59.572744 49.54443,59.465792 51.379123,44.312999 C 40.219515,45.513605 34.741577,43.36553 25.201784,44.542076 Z" style="display:inline;fill:#faa;fill-opacity:.78431373;fill-rule:evenodd;stroke:none;stroke-width:1.21000004px;stroke-linecap:round;stroke-linejoin:round;stroke-opacity:1"/><path style="display:inline;fill:none;fill-rule:evenodd;stroke:#000;stroke-width:1.21000004px;stroke-linecap:round;stroke-linejoin:round;stroke-opacity:1" id="path822-8" d="M 27.405799,59.572744 49.54443,59.465795 54.729475,15.188533 20.881856,15.081584 Z"/></g></svg>