<svg xmlns="http://www.w3.org/2000/svg" xmlns:svg="http://www.w3.org/2000/svg" id="svg4311" width="100%" height="100%" version="1.1" viewBox="0 0 64 64"><metadata id="metadata4316"/><g id="layer3" style="display:inline"><g id="g4137" transform="matrix(1.092025,0,0,1.092025,-5.2955986,-4.0823313)"><path id="path4145" d="m 44.196027,42.299523 0.08638,5.805793 c 0.03743,2.516076 -1.560683,5.025976 -4.168008,5.001609 l -24.32601,-0.227346 c -2.435031,-0.02275 -4.381915,-2.38285 -4.395354,-5.077392 L 11.241469,17.41362 c -0.01829,-3.666008 2.663508,-4.850045 5.380519,-4.850045 l 17.657198,0 9.700091,9.245399 0.01947,5.017228" style="fill:none;fill-rule:evenodd;stroke:#ff8080;stroke-width:4.28687477;stroke-linecap:round;stroke-linejoin:miter;stroke-miterlimit:4;stroke-dasharray:none;stroke-opacity:1"/><path id="path4149" d="M 51.961918,34.731986 27.833031,34.60818" style="fill:none;fill-rule:evenodd;stroke:#ff8080;stroke-width:7.99063635;stroke-linecap:round;stroke-linejoin:miter;stroke-miterlimit:4;stroke-dasharray:none;stroke-opacity:1"/><path id="path4155" d="m 33.453247,13.040528 0,5.572938 c 0,2.576725 2.266847,4.375387 4.394047,4.394047 l 6.108797,0.05359 z" style="fill:#ff8080;fill-rule:evenodd;stroke:#ff8080;stroke-width:.85737503px;stroke-linecap:butt;stroke-linejoin:miter;stroke-opacity:1"/><path id="path4146" d="m 57.889406,35.046573 -6.875,-8.500001 0.25,15.875001 z" style="fill:none;fill-rule:evenodd;stroke:#ff8080;stroke-width:4;stroke-linecap:round;stroke-linejoin:round;stroke-miterlimit:4;stroke-dasharray:none;stroke-opacity:1"/></g></g></svg>