<svg xmlns="http://www.w3.org/2000/svg" xmlns:svg="http://www.w3.org/2000/svg" id="svg4311" width="100%" height="100%" version="1.1" viewBox="0 0 64 64"><metadata id="metadata4316"/><g id="layer1" transform="translate(0,-988.36216)" style="display:inline"><path style="display:inline;fill:#ff8080;fill-opacity:1;fill-rule:evenodd;stroke:#000;stroke-width:1px;stroke-linecap:butt;stroke-linejoin:miter;stroke-opacity:1" id="path4796" d="m 36.426187,1029.9343 c 0.304726,6.7072 -4.269683,3.8606 -10.230951,13.5677 -2.31051,2.4223 -6.906385,-0.4581 -6.386058,-1.9888 1.498614,-2.0624 1.850368,-4.0143 2.541164,-6.0767 -9.523441,3.5126 -13.9390429,-7.4085 -12.219689,-9.9658 0.840046,-4.1905 24.917613,-1.5836 26.295534,4.4636 z"/><path style="display:inline;fill:#ff8080;fill-opacity:1;fill-rule:evenodd;stroke:#000;stroke-width:1px;stroke-linecap:butt;stroke-linejoin:miter;stroke-opacity:1" id="path4734" d="m 32.289069,999.34162 c 2.794013,-1.7639 6.21611,-1.0294 7.25,-0.125 1.218418,-0.4442 3.300172,0.4705 4.1875,1.93758 7.908701,1.7801 10.234063,4.7169 10.375001,7.8126 3.688129,2.8809 3.421405,7.3452 1.875001,9.3125 -0.701364,5.916 -3.077195,8.0343 -6.25,8.0625 -2.679452,1.9785 -6.399298,1.5728 -7.500002,0.25 -2.863512,3.9728 -7.502174,3.294 -9,2.5 -5.959102,0.9591 -10.819144,0.8191 -11.875,-3.125 -3.536582,1.3932 -6.997018,0.6196 -7.5,-0.1875 -6.5015461,1.7137 -6.8944071,-5.3796 -5.7500001,-7.625 -1.92313,-5.0437 1.9975131,-8.3883 3.4375001,-8.75 -1.434626,-2.9249 2.766489,-5.4115 5.4375,-4.2501 -0.01963,-3.0656 3.137175,-4.907 4.3125,-3.9375 2.082122,-4.87169 8.806957,-4.00348 11,-1.87508 z"/><path style="fill:none;fill-rule:evenodd;stroke:#000;stroke-width:1px;stroke-linecap:butt;stroke-linejoin:miter;stroke-opacity:1" id="path4821" d="m 22.173567,1035.9352 c 1.645092,-2.4138 2.021479,-4.7538 2.12132,-7.0932"/><path style="fill:none;fill-rule:evenodd;stroke:#000;stroke-width:1px;stroke-linecap:butt;stroke-linejoin:miter;stroke-opacity:1" id="path4895" d="m 42.294945,1026.6747 c -1.796544,-2.1876 -1.918263,-2.786 -2.125,-4.1875"/><path style="fill:none;fill-rule:evenodd;stroke:#000;stroke-width:1px;stroke-linecap:butt;stroke-linejoin:miter;stroke-opacity:1" id="path4897" d="m 56.034547,1017.9572 c -1.978578,-2.0285 -3.607075,-0.409 -4.677102,0.03"/><path style="fill:none;fill-rule:evenodd;stroke:#000;stroke-width:1px;stroke-linecap:butt;stroke-linejoin:miter;stroke-opacity:1" id="path4899" d="m 54.15432,1009.0653 c -1.400303,6.1284 -10.734835,0.8419 -13.796875,4.9219"/><path style="fill:none;fill-rule:evenodd;stroke:#000;stroke-width:1px;stroke-linecap:butt;stroke-linejoin:miter;stroke-opacity:1" id="path4901" d="m 47.015265,1012.2934 c -1.460347,-0.6525 -3.38854,-1.0618 -3.47032,-2.4312"/><path style="fill:none;fill-rule:evenodd;stroke:#000;stroke-width:1px;stroke-linecap:butt;stroke-linejoin:miter;stroke-opacity:1" id="path4903" d="m 43.607445,1000.9716 c -4.13297,1.8988 -3.560127,5.1815 -2.0625,7.1406"/><path style="fill:none;fill-rule:evenodd;stroke:#000;stroke-width:1px;stroke-linecap:butt;stroke-linejoin:miter;stroke-opacity:1" id="path4905" d="m 40.43879,1005.4273 c -0.222328,0.2972 -1.545418,1.3566 -2.933059,0.9085"/><path style="fill:none;fill-rule:evenodd;stroke:#000;stroke-width:1px;stroke-linecap:butt;stroke-linejoin:miter;stroke-opacity:1" id="path4907" d="m 32.40432,999.15903 c 0.502312,1.07897 -1.977909,11.78037 1.765625,12.26567"/><path style="fill:none;fill-rule:evenodd;stroke:#000;stroke-width:1px;stroke-linecap:butt;stroke-linejoin:miter;stroke-opacity:1" id="path4909" d="m 31.959047,1005.616 c -2.171929,-0.092 -2.572214,0.6001 -2.919194,1.6294"/><path style="fill:none;fill-rule:evenodd;stroke:#000;stroke-width:1px;stroke-linecap:butt;stroke-linejoin:miter;stroke-opacity:1" id="path4911" d="m 21.263695,1001.1434 c -1.491228,3.6713 3.28125,6.7813 3.28125,6.7813"/><path style="fill:none;fill-rule:evenodd;stroke:#000;stroke-width:1px;stroke-linecap:butt;stroke-linejoin:miter;stroke-opacity:1" id="path4913" d="m 17.107445,1005.581 c -2.597022,3.2083 2.664281,5.9672 3.78033,4.5115"/><path style="fill:none;fill-rule:evenodd;stroke:#000;stroke-width:1px;stroke-linecap:butt;stroke-linejoin:miter;stroke-opacity:1" id="path4915" d="m 17.090979,1008.8685 c -0.329661,1.1489 -1.306551,1.6155 -0.217909,4.2593"/><path style="fill:none;fill-rule:evenodd;stroke:#000;stroke-width:1px;stroke-linecap:butt;stroke-linejoin:miter;stroke-opacity:1" id="path4917" d="m 7.9199449,1017.6122 c 1.3466212,1.6939 6.6250001,-0.25 6.6250001,-0.25"/><path style="fill:none;fill-rule:evenodd;stroke:#000;stroke-width:1px;stroke-linecap:butt;stroke-linejoin:miter;stroke-opacity:1" id="path4919" d="m 13.81057,1025.7997 c 3.494481,-0.9901 2.546875,-4.9375 2.546875,-4.9375"/><path style="fill:none;fill-rule:evenodd;stroke:#000;stroke-width:1px;stroke-linecap:butt;stroke-linejoin:miter;stroke-opacity:1" id="path4921" d="m 23.169945,1028.5028 c 4.021692,-0.931 3.476714,-2.9689 3,-4.3906"/><path style="fill:none;fill-rule:evenodd;stroke:#000;stroke-width:1px;stroke-linecap:butt;stroke-linejoin:miter;stroke-opacity:1" id="path4923" d="m 32.794945,1029.1747 c 1.068243,-5.5198 -1.5625,-6.1875 -1.5625,-6.1875"/><path style="fill:none;fill-rule:evenodd;stroke:#000;stroke-width:1px;stroke-linecap:butt;stroke-linejoin:miter;stroke-opacity:1" id="path4925" d="m 29.669945,1012.4247 c 0.981546,2.5354 -3.590108,4.489 3.125,7.625"/><path style="fill:none;fill-rule:evenodd;stroke:#000;stroke-width:1px;stroke-linecap:butt;stroke-linejoin:miter;stroke-opacity:1" id="path4927" d="m 29.193231,1015.4676 c -1.55382,2.4378 -2.477985,2.7768 -3.335786,2.8946"/><path style="fill:none;fill-rule:evenodd;stroke:#000;stroke-width:1px;stroke-linecap:butt;stroke-linejoin:miter;stroke-opacity:1" id="path4929" d="m 49.694644,1022.2392 c -2.982456,-4.2351 -6.149654,-0.917 -10.149699,-3.877"/></g></svg>