<svg xmlns="http://www.w3.org/2000/svg" xmlns:svg="http://www.w3.org/2000/svg" id="svg4311" width="100%" height="100%" version="1.1" viewBox="0 0 64 64"><metadata id="metadata4316"/><g id="layer3" style="display:inline"><g id="g4155" transform="matrix(0.93506329,0,0,1.0232803,2.0075362,-0.93861443)"><path id="path4165" d="m 43.774864,62.262803 -22.275782,0.04159 c -2.174252,0.0041 -5.641669,-3.10299 -5.651859,-6.668049 L 15.713239,8.7616591 c -0.0088,-3.1043273 2.761239,-6.54436 6.101141,-6.5382415 l 22.701747,0.041588 c 2.532972,0.00465 6.095626,2.9280533 6.09505,6.3313493 l -0.008,47.2407851 c -4.68e-4,2.756353 -2.888004,6.418306 -6.828309,6.425663 z" style="fill:#999;fill-rule:evenodd;stroke:#000;stroke-width:1.13590682px;stroke-linecap:butt;stroke-linejoin:miter;stroke-opacity:1"/><path id="path4167" d="m 29.507493,58.045614 c 0.03575,0.964175 -0.273127,1.901096 1.171404,1.896482 l 5.558937,-0.01775 c 1.47684,-0.0047 1.211675,-1.029039 1.195241,-1.872644 z" style="fill:#666;fill-rule:evenodd;stroke:#000;stroke-width:.56795341;stroke-linecap:butt;stroke-linejoin:miter;stroke-miterlimit:4;stroke-dasharray:none;stroke-opacity:1"/><path id="path4169" d="M 17.583986,55.360178 17.414722,8.5934973 48.915283,8.4906239 48.995827,55.360178 Z" style="fill:#e8eded;fill-opacity:1;fill-rule:evenodd;stroke:#000;stroke-width:1.14990747;stroke-linecap:butt;stroke-linejoin:round;stroke-miterlimit:4;stroke-dasharray:none;stroke-opacity:1"/><path id="path4171" d="m 29.498097,4.5270735 7.027019,-0.023839" style="fill:none;fill-rule:evenodd;stroke:#000;stroke-width:1.13590682px;stroke-linecap:round;stroke-linejoin:miter;stroke-opacity:1"/><ellipse id="path4173" cx="22.541" cy="5.717" rx=".887" ry=".816" style="fill:#666;fill-opacity:1;stroke:#000;stroke-width:.56795341;stroke-linecap:round;stroke-linejoin:round;stroke-miterlimit:4;stroke-dasharray:none;stroke-dashoffset:0"/><ellipse id="path4175" cx="38.479" cy="5.646" rx=".71" ry=".674" style="fill:#666;fill-opacity:1;stroke:#000;stroke-width:.56795341;stroke-linecap:round;stroke-linejoin:round;stroke-miterlimit:4;stroke-dasharray:none;stroke-dashoffset:0"/><circle id="path4177" cx="40.201" cy="5.628" r=".692" style="fill:#666;fill-opacity:1;stroke:#000;stroke-width:.56795341;stroke-linecap:round;stroke-linejoin:round;stroke-miterlimit:4;stroke-dasharray:none;stroke-dashoffset:0"/><ellipse id="path4179" cx="43.591" cy="5.841" rx="1.136" ry="1.083" style="fill:#666;fill-opacity:1;stroke:#000;stroke-width:.56795341;stroke-linecap:round;stroke-linejoin:round;stroke-miterlimit:4;stroke-dasharray:none;stroke-dashoffset:0"/></g><path style="fill:#fff;fill-opacity:1;fill-rule:evenodd;stroke:none;stroke-width:1px;stroke-linecap:butt;stroke-linejoin:miter;stroke-opacity:1" id="path4170" d="m 19.448039,9.572383 c -4.23e-4,0.2501855 17.956395,0.530122 25.702394,0.875334 -0.0047,0.260022 -0.0091,0.531376 -0.01316,0.813406 0.16523,5.607786 0.459627,15.48722 0.750844,24.269971 0.320617,9.669444 0.638534,18.04377 0.780171,18.04079 0.141639,-0.003 0.107007,-8.382934 0.0697,-18.056516 -0.03391,-8.792946 -0.07003,-18.664683 0.02214,-24.26488 -0.01542,-0.559565 -0.0295,-1.074662 -0.04223,-1.5437562 a 0.79528066,0.74819773 88.601691 0 0 -0.76515,-0.774527 C 38.68675,9.0871305 19.448476,9.3138456 19.448039,9.572383 Z"/></g></svg>