<svg xmlns="http://www.w3.org/2000/svg" xmlns:svg="http://www.w3.org/2000/svg" id="svg4311" width="100%" height="100%" version="1.1" viewBox="0 0 64 64"><metadata id="metadata4316"/><g id="layer3" style="display:inline"><path style="display:inline;fill:#666;fill-rule:evenodd;stroke:#000;stroke-width:2;stroke-linecap:butt;stroke-linejoin:round;stroke-miterlimit:4;stroke-dasharray:none;stroke-opacity:1" id="path4159-4-8" d="m 25.39163,56.796563 c -4.386311,0.414783 -11.780654,0.34375 -16.4402335,0 C 5.8065955,43.651942 4.3253415,28.317257 5.6368325,18.656989 9.7910865,17.949882 25.19449,18.041681 28.750387,18.524402 c 0.610428,10.721644 0.0442,21.139549 -3.358757,38.272161 z"/><ellipse style="display:inline;fill:#666;fill-opacity:1;stroke:#000;stroke-width:2;stroke-linecap:round;stroke-linejoin:round;stroke-miterlimit:4;stroke-dasharray:none;stroke-dashoffset:0;stroke-opacity:1" id="path4161-5-8" cx="17.172" cy="10.525" rx="7.513" ry="7.491"/><path style="display:inline;fill:#666;fill-rule:evenodd;stroke:#000;stroke-width:2;stroke-linecap:butt;stroke-linejoin:round;stroke-miterlimit:4;stroke-dasharray:none;stroke-opacity:1" id="path4159-4" d="m 57.918543,56.619787 c -4.386311,0.414783 -11.780654,0.34375 -16.440233,0 C 38.333509,43.475166 36.852255,28.140481 38.163746,18.480213 42.318,17.773106 57.721403,17.864905 61.2773,18.347626 61.887728,29.06927 61.3215,39.487175 57.918543,56.619787 Z"/><ellipse style="display:inline;fill:#666;fill-opacity:1;stroke:#000;stroke-width:2;stroke-linecap:round;stroke-linejoin:round;stroke-miterlimit:4;stroke-dasharray:none;stroke-dashoffset:0;stroke-opacity:1" id="path4161-5" cx="49.698" cy="10.348" rx="7.513" ry="7.491"/><path style="fill:#999;fill-rule:evenodd;stroke:#000;stroke-width:2;stroke-linecap:butt;stroke-linejoin:round;stroke-opacity:1;stroke-miterlimit:4;stroke-dasharray:none" id="path4159" d="m 41.27736,62.055457 c -4.386311,0.414783 -11.780654,0.34375 -16.440233,0 -3.144801,-13.144621 -4.626055,-28.479306 -3.314564,-38.139574 4.154254,-0.707107 19.557657,-0.615308 23.113554,-0.132587 0.610428,10.721644 0.0442,21.139549 -3.358757,38.272161 z"/><ellipse style="fill:#999;fill-opacity:1;stroke:#000;stroke-width:2;stroke-linecap:round;stroke-linejoin:round;stroke-miterlimit:4;stroke-dasharray:none;stroke-dashoffset:0;stroke-opacity:1" id="path4161" cx="33.057" cy="15.784" rx="7.513" ry="7.491"/></g></svg>