<svg xmlns="http://www.w3.org/2000/svg" xmlns:svg="http://www.w3.org/2000/svg" xmlns:xlink="http://www.w3.org/1999/xlink" id="svg4311" width="100%" height="100%" version="1.1" viewBox="0 0 64 64"><defs id="defs4313"><linearGradient id="linearGradient4147"><stop style="stop-color:#ff8080;stop-opacity:1" id="stop4149" offset="0"/><stop style="stop-color:#f55;stop-opacity:1" id="stop4151" offset="1"/></linearGradient><linearGradient id="linearGradient4153" x1="39.51" x2="25.279" y1="21.662" y2="22.634" gradientUnits="userSpaceOnUse" xlink:href="#linearGradient4147"/></defs><metadata id="metadata4316"/><g id="layer3" style="display:inline"><path style="fill:url(#linearGradient4153);fill-rule:evenodd;stroke:#000;stroke-width:.48924261;stroke-linecap:butt;stroke-linejoin:miter;stroke-miterlimit:4;stroke-dasharray:none;stroke-opacity:1;fill-opacity:1" id="path4151" d="m 43.588282,62.382389 -22.40446,0.07997 c -2.00329,0.0072 -2.10239,-4.885652 0.0352,-4.907278 2.02723,-0.0205 2.7279,-0.999128 2.72423,-2.166714 l -0.1307,-41.62944 c -0.0117,-3.712677 2.42434,-4.6929102 4.5346,-5.4625862 2.90634,-1.060028 0.70999,-5.955109 4.00195,-5.97297 3.80112,-0.02062 1.13169,4.93838 3.93789,5.836781 2.80958,0.89948 4.70769,2.4798482 4.72052,5.4295512 l 0.18213,41.898882 c 0.005,1.040735 0.94901,2.232947 2.28271,2.175805 2.87482,-0.123165 2.24354,4.710406 0.11596,4.718001 z"/><path style="fill:#ffd5d5;fill-rule:evenodd;stroke:none;stroke-width:1px;stroke-linecap:butt;stroke-linejoin:miter;stroke-opacity:1" id="path4134" d="m 34.825011,9.5527768 c 2.077991,-0.2059651 3.617801,0.6587462 4.685479,2.5270842 0.143952,0.439298 0.253485,0.902563 0.336232,1.381645 0.439139,2.542507 0.170208,5.872349 -0.160353,9.172746 -0.08097,-3.392484 -0.24841,-6.586677 -1.048391,-8.86448 -0.144725,-0.412079 -0.307173,-0.784445 -0.487879,-1.115191 -0.394204,-1.541339 -1.264252,-2.8125748 -3.325088,-3.1018042 z"/><path style="fill:none;fill-rule:evenodd;stroke:#000;stroke-width:.25;stroke-linecap:butt;stroke-linejoin:miter;stroke-miterlimit:4;stroke-dasharray:none;stroke-opacity:1" id="path4140" d="m 21.531251,57.652345 c 4.06781,-0.302315 17.331171,-0.09011 21.88672,0.128906"/></g></svg>