<svg xmlns="http://www.w3.org/2000/svg" xmlns:svg="http://www.w3.org/2000/svg" id="svg4311" width="100%" height="100%" version="1.1" viewBox="0 0 64 64"><metadata id="metadata4316"/><g id="layer1" transform="translate(0,-988.36216)" style="display:inline"><path style="fill:#333;fill-rule:evenodd;stroke:#000;stroke-width:1.12029099px;stroke-linecap:butt;stroke-linejoin:miter;stroke-opacity:1" id="path4205" d="m 12.383342,1004.3461 3.318375,-4.117 5.052226,-0.77743 14.656394,17.56043 16.7018,-16.9969 4.319239,-0.78175 6.495093,4.37595 -1.26183,3.8134 -19.692421,14.9663 12.120302,11.2649 3.370069,6.1992 -1.502542,5.6635 -6.06583,-1.425 -14.463557,-15.2409 -18.579793,21.9892 -7.8180571,-1.1659 -0.6188859,-6.1128 2.931868,-5.5437 18.684906,-15.656 -17.206772,-13.3764 z"/><path id="path4136" d="m 10.826199,1002.4068 3.318374,-4.11704 5.052226,-0.77746 14.656394,17.5604 16.7018,-16.99687 4.319239,-0.78176 6.495093,4.37603 -1.261831,3.8134 -19.69242,14.9662 12.120301,11.2649 3.37007,6.1993 -1.502542,5.6634 -6.06583,-1.4249 -14.463558,-15.2409 -18.579792,21.9892 -7.8180569,-1.166 -0.6188859,-6.1127 2.9318684,-5.5437 18.6849044,-15.656 -17.206771,-13.3765 z" style="fill:#ff8080;fill-rule:evenodd;stroke:#000;stroke-width:1.12029099px;stroke-linecap:butt;stroke-linejoin:miter;stroke-opacity:1"/></g></svg>