<svg xmlns="http://www.w3.org/2000/svg" xmlns:svg="http://www.w3.org/2000/svg" id="svg4311" width="100%" height="100%" version="1.1" viewBox="0 0 64 64"><metadata id="metadata4316"/><g id="layer1" transform="translate(0,-988.36216)" style="display:inline"><path style="display:inline;fill:#ff7adb;fill-opacity:1;fill-rule:evenodd;stroke:#000;stroke-width:.607445;stroke-linecap:butt;stroke-linejoin:miter;stroke-miterlimit:4;stroke-dasharray:none;stroke-opacity:1" id="path4859" d="m 3.9084161,1012.8994 c -0.027603,-18.93562 22.8766629,-20.06928 28.0314469,-8.8465 4.213908,-11.43787 28.092874,-11.72195 28.026606,9.0693 -0.04757,14.9314 -23.177073,21.9871 -27.798,34.1195 -5.261507,-12.3345 -28.2374359,-18.8322 -28.2600529,-34.3423 z"/><path style="display:inline;fill:#fff;fill-rule:evenodd;stroke:none;stroke-width:1px;stroke-linecap:butt;stroke-linejoin:miter;stroke-opacity:1" id="path4152" d="m 43.227917,999.4547 c 3.42564,-1.34958 7.460327,-0.4641 10.798141,2.441 0.288286,0.2509 0.570343,0.5161 0.845257,0.7953 2.24603,3.4136 3.344542,7.8746 2.81548,12.7005 -0.339133,-4.8731 -2.325619,-8.6869 -4.828756,-11.0445 -0.180244,-0.2742 -0.368573,-0.5393 -0.564468,-0.7947 -2.203059,-2.8729 -5.488279,-4.65932 -9.065654,-4.0976 z"/></g></svg>