<svg xmlns="http://www.w3.org/2000/svg" xmlns:svg="http://www.w3.org/2000/svg" id="svg4311" width="100%" height="100%" version="1.1" viewBox="0 0 64 64"><metadata id="metadata4316"/><g id="layer1" transform="translate(0,-988.36216)" style="display:inline"><path style="display:inline;fill:#333;fill-opacity:1;stroke:#000;stroke-width:.81028736;stroke-linecap:butt;stroke-linejoin:round;stroke-miterlimit:4;stroke-dasharray:none;stroke-dashoffset:0;stroke-opacity:1" id="path4172-4" d="m 9.128012,1005.6787 a 23.247177,23.293991 84.260036 0 0 -6.4685833,18.5205 23.247177,23.293991 84.260036 0 0 25.5030043,20.8032 23.247177,23.293991 84.260036 0 0 20.852993,-25.463 23.247177,23.293991 84.260036 0 0 -25.503037,-20.80117 23.247177,23.293991 84.260036 0 0 -14.384377,6.94047 z m 3.556975,2.6791 a 18.840414,18.878352 84.260036 0 1 11.268029,-5.2343 18.840414,18.878352 84.260036 0 1 20.665016,16.8573 18.840414,18.878352 84.260036 0 1 -16.896226,20.6366 18.840414,18.878352 84.260036 0 1 -20.6694592,-16.8599 18.840414,18.878352 84.260036 0 1 5.6326402,-15.3997 z"/><path style="display:inline;fill:#ff7adb;fill-opacity:1;fill-rule:evenodd;stroke:#000;stroke-width:.88964683;stroke-linecap:butt;stroke-linejoin:miter;stroke-miterlimit:4;stroke-dasharray:none;stroke-opacity:1" id="path4859-9" d="m 6.9812242,1015.857 c -0.018022,-13.3398 14.9450978,-14.1386 18.3126688,-6.2323 2.752904,-8.0578 18.352796,-8.258 18.309504,6.3894 -0.03107,10.519 -15.141351,15.4896 -18.160157,24.0368 -3.437293,-8.6894 -18.4472406,-13.2671 -18.4620158,-24.1939 z"/><path id="path4157" d="m 8.0367762,1006.6345 29.1916748,30.2185 3.682155,-3.606 -29.338413,-30.2408 z" style="display:inline;fill:#fae;fill-rule:evenodd;stroke:#000;stroke-width:.9948203;stroke-linecap:butt;stroke-linejoin:miter;stroke-miterlimit:4;stroke-dasharray:none;stroke-opacity:1"/><g id="g4160" transform="matrix(2.8531167,0,0,2.8531167,-6.2412843,-1950.684)"><path id="path4172" d="m 5.0148912,1035.6386 a 8.1479939,8.1644016 84.260036 0 0 -2.2671989,6.4913 8.1479939,8.1644016 84.260036 0 0 8.9386477,7.2914 8.1479939,8.1644016 84.260036 0 0 7.308847,-8.9246 8.1479939,8.1644016 84.260036 0 0 -8.938659,-7.2907 8.1479939,8.1644016 84.260036 0 0 -5.0416368,2.4326 z m 1.2466985,0.939 a 6.6034503,6.6167473 84.260036 0 1 3.9493753,-1.8346 6.6034503,6.6167473 84.260036 0 1 7.242962,5.9084 6.6034503,6.6167473 84.260036 0 1 -5.922024,7.233 6.6034503,6.6167473 84.260036 0 1 -7.2445192,-5.9093 6.6034503,6.6167473 84.260036 0 1 1.9742059,-5.3975 z" style="display:inline;fill:#f06;fill-opacity:1;stroke:#000;stroke-width:.28400078;stroke-linecap:butt;stroke-linejoin:round;stroke-miterlimit:4;stroke-dasharray:none;stroke-dashoffset:0;stroke-opacity:1"/><path id="path4207" d="m 5.0613873,1036.4532 10.2485257,10.6009 1.157221,-1.1332 -10.2976744,-10.6112 z" style="display:inline;fill:#f06;fill-rule:evenodd;stroke:none;stroke-width:.5;stroke-linecap:butt;stroke-linejoin:miter;stroke-miterlimit:4;stroke-dasharray:none;stroke-opacity:1"/></g></g></svg>