<svg xmlns="http://www.w3.org/2000/svg" xmlns:svg="http://www.w3.org/2000/svg" id="svg4311" width="100%" height="100%" version="1.1" viewBox="0 0 64 64"><metadata id="metadata4316"/><g id="layer1" transform="translate(0,-988.36216)" style="display:inline"><path style="display:inline;fill:#333;fill-opacity:1;fill-rule:evenodd;stroke:#000;stroke-width:1.42105293px;stroke-linecap:butt;stroke-linejoin:miter;stroke-opacity:1" id="path4205-9-2" d="m 27.217691,1050.019 c 0,0 -14.715758,-8.4043 -20.4011475,-14.5139 -0.9414817,-1.0117 -1.8688547,-2.1901 -2.1545382,-3.5423 -0.4973065,-2.3538 -0.7102969,-5.4019 0.9357543,-7.1564 1.5929518,-1.6979 4.5979404,-1.9208 6.8537724,-1.345 5.843994,1.4918 13.913127,11.5682 13.913127,11.5682 0,0 15.423564,-33.168 22.318893,-38.5883 2.708855,-2.1294 7.622693,-2.0274 10.336387,0.096 1.991097,1.5578 2.040902,4.8206 1.892747,7.3443 -0.151929,2.588 -1.51982,5.0033 -2.80883,7.2526 -8.230215,14.3618 -30.886165,38.8849 -30.886165,38.8849 z"/><path style="display:inline;fill:#ff8080;fill-rule:evenodd;stroke:#000;stroke-width:1.42105293px;stroke-linecap:butt;stroke-linejoin:miter;stroke-opacity:1" id="path4205-9" d="m 26.99362,1046.7445 c 0,0 -14.715758,-8.4043 -20.4011473,-14.5139 -0.9414817,-1.0117 -1.8688547,-2.1901 -2.1545382,-3.5423 -0.4973065,-2.3538 -0.7102969,-5.4019 0.9357543,-7.1564 1.5929518,-1.6979 4.5979404,-1.9208 6.8537722,-1.345 5.843994,1.4918 13.913127,11.5682 13.913127,11.5682 0,0 15.423564,-33.16804 22.318893,-38.58839 2.708855,-2.1294 7.622693,-2.02733 10.336387,0.0959 1.991097,1.55786 2.040902,4.82061 1.892747,7.34439 -0.151929,2.588 -1.51982,5.0033 -2.80883,7.2526 -8.230215,14.3618 -30.886165,38.8849 -30.886165,38.8849 z"/></g></svg>