<svg xmlns="http://www.w3.org/2000/svg" xmlns:svg="http://www.w3.org/2000/svg" id="svg4311" width="100%" height="100%" version="1.1" viewBox="0 0 64 64"><metadata id="metadata4316"/><g id="layer1" transform="translate(0,-988.36216)" style="display:inline"><g id="g4158" transform="matrix(0.81,0,0,0.81,-2.3438835,184.94527)"><path id="path4859-0-1" d="m 7.3279834,1010.195 c -0.02221,-16.46892 18.4507386,-17.4551 22.6082316,-7.6942 3.398647,-9.94795 22.657773,-10.19507 22.604326,7.8881 -0.03836,12.9864 -18.693026,19.123 -22.419948,29.6755 -4.243568,-10.7281 -22.7743686,-16.3796 -22.7926096,-29.8694 z" style="display:inline;fill:#333;fill-opacity:1;fill-rule:evenodd;stroke:#000;stroke-width:1.09832942;stroke-linecap:butt;stroke-linejoin:miter;stroke-miterlimit:4;stroke-dasharray:none;stroke-opacity:1"/><path id="path4859-9" d="m 4.4593684,1008.1028 c -0.02225,-16.46889 18.4507386,-17.45509 22.6082326,-7.6942 3.398648,-9.94794 22.657773,-10.19507 22.604326,7.8881 -0.03836,12.9864 -18.693025,19.123 -22.419947,29.6751 -4.243571,-10.7277 -22.7743706,-16.3792 -22.7926116,-29.869 z" style="display:inline;fill:#ff7adb;fill-opacity:1;fill-rule:evenodd;stroke:#000;stroke-width:1.09832942;stroke-linecap:butt;stroke-linejoin:miter;stroke-miterlimit:4;stroke-dasharray:none;stroke-opacity:1"/></g><path style="display:inline;fill:#333;fill-opacity:1;fill-rule:evenodd;stroke:#000;stroke-width:1;stroke-linecap:butt;stroke-linejoin:miter;stroke-miterlimit:4;stroke-dasharray:none;stroke-opacity:1" id="path4859-0-1-7" d="m 28.257913,1027.34 c -0.0118,-8.7522 9.805479,-9.2763 12.014941,-4.089 1.80618,-5.2867 12.04127,-5.4181 12.012866,4.1921 -0.02039,6.9015 -9.934241,10.1627 -11.91488,15.7708 -2.255206,-5.7014 -12.103233,-8.7048 -12.112927,-15.8739 z"/><path style="display:inline;fill:#ff7adb;fill-opacity:1;fill-rule:evenodd;stroke:#000;stroke-width:1;stroke-linecap:butt;stroke-linejoin:miter;stroke-miterlimit:4;stroke-dasharray:none;stroke-opacity:1" id="path4859-9-8" d="m 26.733413,1026.2282 c -0.01182,-8.7523 9.805479,-9.2764 12.014942,-4.0891 1.806181,-5.2867 12.041269,-5.418 12.012866,4.1921 -0.02039,6.9015 -9.93424,10.1627 -11.914879,15.7706 -2.255208,-5.7012 -12.103235,-8.7046 -12.112929,-15.8736 z"/><path style="display:inline;fill:#333;fill-opacity:1;fill-rule:evenodd;stroke:#000;stroke-width:1;stroke-linecap:butt;stroke-linejoin:miter;stroke-miterlimit:4;stroke-dasharray:none;stroke-opacity:1" id="path4859-0-1-3" d="m 12.416764,1040.494 c -0.0077,-5.7424 6.433374,-6.0863 7.883003,-2.6828 1.185035,-3.4687 7.900277,-3.5548 7.881641,2.7504 -0.01338,4.5281 -6.517855,6.6678 -7.817353,10.3472 -1.47964,-3.7407 -7.940931,-5.7112 -7.947291,-10.4148 z"/><path style="display:inline;fill:#ff7adb;fill-opacity:1;fill-rule:evenodd;stroke:#000;stroke-width:1;stroke-linecap:butt;stroke-linejoin:miter;stroke-miterlimit:4;stroke-dasharray:none;stroke-opacity:1" id="path4859-9-7" d="m 10.72904,1039.2645 c -0.0078,-5.7424 6.433374,-6.0863 7.883003,-2.6828 1.185035,-3.4687 7.900277,-3.5548 7.881641,2.7504 -0.01337,4.528 -6.517855,6.6677 -7.817352,10.347 -1.479642,-3.7405 -7.940932,-5.711 -7.947292,-10.4146 z"/></g></svg>