<svg xmlns="http://www.w3.org/2000/svg" xmlns:svg="http://www.w3.org/2000/svg" id="svg4311" width="100%" height="100%" version="1.1" viewBox="0 0 64 64"><metadata id="metadata4316"/><g id="layer3" style="display:inline"><path id="path4157" d="M 10.269535,14.455085 48.100417,55.721183 54.278732,49.632995 16.164648,8.4092432 Z" style="display:inline;fill:#ff8080;fill-rule:evenodd;stroke:#000;stroke-width:1.0649215;stroke-linecap:butt;stroke-linejoin:miter;stroke-miterlimit:4;stroke-dasharray:none;stroke-opacity:1"/><path style="display:inline;fill:#ff8080;fill-opacity:1;stroke:#000;stroke-width:1.03723395;stroke-linecap:butt;stroke-linejoin:round;stroke-miterlimit:4;stroke-dasharray:none;stroke-dashoffset:0;stroke-opacity:1" id="path4172" d="M 10.490449,11.154161 A 29.749864,29.80977 84.259614 0 0 2.2124772,34.855224 29.749864,29.80977 84.259614 0 0 34.849168,61.477564 29.749864,29.80977 84.259614 0 0 61.535149,28.891933 29.749864,29.80977 84.259614 0 0 28.898415,2.272463 29.749864,29.80977 84.259614 0 0 10.490449,11.154161 Z m 4.551931,3.428635 A 24.110443,24.158993 84.259614 0 1 29.462293,7.8840597 24.110443,24.158993 84.259614 0 1 55.907717,29.457051 24.110443,24.158993 84.259614 0 1 34.285288,55.865779 24.110443,24.158993 84.259614 0 1 7.834181,34.289972 24.110443,24.158993 84.259614 0 1 15.04238,14.582796 Z"/><path style="display:inline;fill:#ff8080;fill-opacity:1;fill-rule:evenodd;stroke:none;stroke-width:.5;stroke-linecap:butt;stroke-linejoin:miter;stroke-miterlimit:4;stroke-dasharray:none;stroke-opacity:1" id="path4207" d="m 11.568412,15.119905 35.95026,39.20061 5.452447,-5.344971 L 16.755648,9.8099111 Z"/></g></svg>