<svg xmlns="http://www.w3.org/2000/svg" xmlns:svg="http://www.w3.org/2000/svg" id="svg4311" width="100%" height="100%" version="1.1" viewBox="0 0 64 64"><metadata id="metadata4316"/><g id="layer1" transform="translate(0,-988.36216)" style="display:inline"><path style="fill:#ff8080;fill-rule:evenodd;stroke:#000;stroke-width:1px;stroke-linecap:butt;stroke-linejoin:miter;stroke-opacity:1" id="path4141" d="M 31.457965,1051.0264 C 18.21655,1038.4325 8.3534052,1022.0765 8.5114441,1001.5981 c 3.1620629,-0.046 14.5022089,-5.50344 22.8654759,-11.77063 8.871167,6.11904 19.567934,11.24273 22.559522,11.50143 0.04103,20.6169 -9.25328,36.1747 -22.478477,49.6975 z"/><path style="display:inline;fill:#fff;fill-opacity:.78504675;fill-rule:evenodd;stroke:none;stroke-width:1px;stroke-linecap:butt;stroke-linejoin:miter;stroke-opacity:1" id="path4163-2-4" d="m 32.313366,991.35612 c 9.601544,5.58435 11.366012,7.70911 20.844796,10.79098 -9.266759,-0.968 -14.263969,-3.88426 -20.844796,-10.79098 z"/><path style="display:inline;fill:#000;fill-opacity:.14953271;fill-rule:evenodd;stroke:none;stroke-width:1px;stroke-linecap:butt;stroke-linejoin:miter;stroke-opacity:1" id="path4163-2-4-1" d="m 8.730249,1001.8539 c 3.70386,-0.9486 16.198599,-7.33585 22.592194,-11.80544 -0.05376,10.75214 0.584636,40.81654 0.207783,61.30204 -20.574621,-21.586 -22.8554191,-38.9526 -22.799977,-49.4966 z"/></g></svg>