<svg xmlns="http://www.w3.org/2000/svg" xmlns:svg="http://www.w3.org/2000/svg" id="svg4311" width="100%" height="100%" version="1.1" viewBox="0 0 64 64"><metadata id="metadata4316"/><g id="layer3" style="display:inline"><path style="display:inline;fill:#ff8080;fill-rule:evenodd;stroke:#000;stroke-width:.75;stroke-linecap:butt;stroke-linejoin:round;stroke-miterlimit:4;stroke-dasharray:none;stroke-opacity:1" id="path4140-5-5" d="m 9.728171,26.539538 10.727153,0.02899 0,-11.757639 L 9.7842156,5.844394 Z"/><path style="display:inline;fill:#ccc;fill-rule:evenodd;stroke:#000;stroke-width:.81224394;stroke-linecap:butt;stroke-linejoin:round;stroke-miterlimit:4;stroke-dasharray:none;stroke-opacity:1" id="path4140-5" d="m 8.5059722,41.883764 13.1814028,0.04217 0,-17.10501 -13.2343229,0.07714 z"/><path style="fill:#333;fill-rule:evenodd;stroke:#000;stroke-width:.8257187;stroke-linecap:butt;stroke-linejoin:round;stroke-miterlimit:4;stroke-dasharray:none;stroke-opacity:1" id="path4140" d="m 7.0438385,61.804996 16.2744585,0.05381 0,-21.822254 -16.3397965,0.0984 z"/><path style="fill:#000;fill-opacity:.25098041;fill-rule:evenodd;stroke:none;stroke-width:1px;stroke-linecap:butt;stroke-linejoin:miter;stroke-opacity:1" id="path4178" d="m 19.136078,40.056189 0.02811,21.43437 4.126144,0.122956 0,-21.610952 z"/><path style="display:inline;fill:#000;fill-opacity:.25098041;fill-rule:evenodd;stroke:none;stroke-width:1px;stroke-linecap:butt;stroke-linejoin:miter;stroke-opacity:1" id="path4178-7" d="m 18.297874,24.731745 0.02304,15.397555 3.381219,0.08833 0,-15.524404 z"/><path style="display:inline;fill:#000;fill-opacity:.25098041;fill-rule:evenodd;stroke:none;stroke-width:1px;stroke-linecap:butt;stroke-linejoin:miter;stroke-opacity:1" id="path4178-7-5" d="m 17.292509,11.751052 -0.07071,13.111321 3.381219,0.07324 -0.1875,-10.122753 z"/><path style="fill:none;fill-rule:evenodd;stroke:#000;stroke-width:1px;stroke-linecap:butt;stroke-linejoin:miter;stroke-opacity:1" id="path4210" d="m 7.0312503,43.625 16.2187507,0"/><path style="fill:#ffd5d5;fill-rule:evenodd;stroke:#000;stroke-width:.75;stroke-linecap:butt;stroke-linejoin:round;stroke-opacity:1;stroke-miterlimit:4;stroke-dasharray:none" id="path4212" d="m 36.371724,61.007892 17.413486,0.110212 c 1.063325,0.0067 1.193465,-0.688465 1.383933,-1.966005 l 4.20586,-28.210158 c 0.300896,-2.018215 -0.706192,-2.270507 -2.514277,-2.408996 -7.919777,-0.606608 -15.839553,-0.762469 -23.75933,0.125372 -1.87333,0.210008 -2.488056,0.816452 -2.290735,2.195235 l 4.061452,28.379387 c 0.220114,1.538048 0.47042,1.768439 1.499611,1.774953 z"/><path style="fill:#666;fill-rule:evenodd;stroke:#000;stroke-width:.75;stroke-linecap:butt;stroke-linejoin:miter;stroke-miterlimit:4;stroke-dasharray:none;stroke-opacity:1" id="path4214" d="m 38.644016,27.92369 0.02062,-16.515985 c 0.0031,-2.4871452 -0.147673,-2.3846068 2.199089,-2.4009606 l 8.44191,-0.058829 c 2.026802,-0.014124 1.988684,0.00504 1.993263,2.0194656 l -0.14793,16.912114 c -4.05634,-0.170526 -8.331374,-0.136061 -12.506949,0.0442 z"/><path id="path4216" d="m 38.737143,56.622444 12.694432,0.08034 c 0.775163,0.0049 0.870035,-0.501891 1.008886,-1.433217 l 3.066072,-20.565205 c 0.219354,-1.471279 -0.510971,-1.763134 -1.832908,-1.756158 l -17.320551,0.0914 c -1.374193,0.0072 -1.813793,0.595193 -1.669946,1.600327 l 2.960799,20.688573 c 0.160462,1.121237 0.342936,1.289192 1.093216,1.29394 z" style="fill:#999;fill-rule:evenodd;stroke:#000;stroke-width:.75;stroke-linecap:butt;stroke-linejoin:round;stroke-opacity:1;stroke-miterlimit:4;stroke-dasharray:none"/></g></svg>