<svg xmlns="http://www.w3.org/2000/svg" xmlns:svg="http://www.w3.org/2000/svg" id="svg4311" width="100%" height="100%" version="1.1" viewBox="0 0 64 64"><metadata id="metadata4316"/><g id="layer3" style="display:inline"><path style="fill:#f55;fill-rule:evenodd;stroke:#000;stroke-width:1px;stroke-linecap:butt;stroke-linejoin:miter;stroke-opacity:1" id="path4140" d="m 3.3738138,55.652729 57.0729832,-0.01517 0.0581,-24.004705 c 0.0128,2.741217 -2.19222,3.269135 -4.77973,3.29944 -5.73578,0.06718 -12.18022,0.03626 -18.10903,0.01915 l 0.0561,4.2516 -8.9828,0.01469 5.5e-4,-4.317045 c -5.092349,-0.0794 -13.600452,-0.07502 -18.7290292,-0.151646 -3.89393,-0.05818 -6.115881,-1.589788 -6.320129,-3.559967 z"/><path style="fill:#f55;fill-rule:evenodd;stroke:#000;stroke-width:1px;stroke-linecap:butt;stroke-linejoin:miter;stroke-opacity:1" id="path4142" d="m 3.4892768,27.440641 0.02588,-8.940642 c 0.0051,-1.76243 56.9177502,-1.64952 56.9223502,-0.0625 l 0.0259,8.943783 c 0.0102,3.517051 -1.6492,5.034249 -6.92596,5.069024 -4.30514,0.02837 -10.00019,0.04188 -15.61133,0.03955 l -0.0211,-4.091966 -9.39165,-0.07779 0.0867,4.192682 C 23.099085,32.491822 17.289274,32.411168 12.846795,32.358319 7.7579048,32.297779 3.4779118,31.384139 3.4893268,27.440645 Z"/><path style="fill:#ff8080;fill-rule:evenodd;stroke:#000;stroke-width:1px;stroke-linecap:butt;stroke-linejoin:miter;stroke-opacity:1" id="path4144" d="m 30.457267,30.093107 0.0884,7.292039 5.30329,0 0.0442,-7.292039 z"/><path style="fill:#ff8080;fill-rule:evenodd;stroke:#000;stroke-width:1px;stroke-linecap:butt;stroke-linejoin:miter;stroke-opacity:1" id="path4146" d="m 15.812501,15.874999 6.625,-0.3125 c 0,0 0.732604,-2.362217 2,-2.625 4.623316,-0.958603 11.126946,-0.706966 15.750006,-0.25 1.43937,0.142274 2.5,2.875 2.5,2.875 l 6.4375,0.25 c 0,0 -2.10084,-6.3699311 -5.0625,-7.0000001 -6.91878,-1.471913 -16.72733,-1.473904 -23.687506,0.25 -2.805947,0.69498 -4.5625,6.8125001 -4.5625,6.8125001 z"/></g></svg>