<svg xmlns="http://www.w3.org/2000/svg" xmlns:svg="http://www.w3.org/2000/svg" id="svg4311" width="100%" height="100%" version="1.1" viewBox="0 0 64 64"><metadata id="metadata4316"/><g id="layer3" style="display:inline"><ellipse style="opacity:1;fill:#faa;fill-opacity:1;stroke:#000;stroke-width:.5;stroke-linecap:round;stroke-linejoin:round;stroke-miterlimit:4;stroke-dasharray:none;stroke-dashoffset:0;stroke-opacity:1" id="path4144" cx="32.25" cy="55.267" rx="23.467" ry="5.48"/><path style="fill:#ff2a2a;fill-rule:evenodd;stroke:#000;stroke-width:1px;stroke-linecap:butt;stroke-linejoin:miter;stroke-opacity:1" id="path4146" d="m 29.625001,48.9375 1.4375,1.46875 c 0,0 -20.365579,1.020289 -20.625001,4.656251 -0.232868,3.263784 14.608282,4.712446 21.937501,4.75 7.48334,0.03834 22.470014,-2.034291 22.343751,-4.625 C 54.545778,51.638352 33.812501,50.40625 33.812501,50.40625 l 1.156251,-1.4375 c 0,0 22.320264,0.504054 22.500001,6.343751 0.211014,6.855899 -16.363178,7.389456 -24.968752,7.375 C 23.638833,62.672621 6.5889373,60.950708 6.8125003,55.031251 7.0140623,49.694343 27.859159,48.946861 29.625001,48.9375 Z"/><path style="fill:#f55;fill-rule:evenodd;stroke:#000;stroke-width:1.33100009px;stroke-linecap:butt;stroke-linejoin:miter;stroke-opacity:1" id="path4142" d="m 18.323212,37.746702 14.4115,17.882025 14.235032,-17.940846 -8.941012,0.117648 9.35277,-35.3522906 -29.411225,-2.2e-6 9.293947,35.2934708 z"/></g></svg>