<svg xmlns="http://www.w3.org/2000/svg" xmlns:svg="http://www.w3.org/2000/svg" id="svg4311" width="100%" height="100%" version="1.1" viewBox="0 0 64 64"><metadata id="metadata4316"/><g id="layer3" style="display:inline"><ellipse id="ellipse4141" cx="39.029" cy="26.907" rx="20.564" ry="20.113" style="fill:#d8e4f4;fill-opacity:.50196081;stroke:none;stroke-width:.88696098;stroke-miterlimit:4;stroke-dasharray:none;stroke-dashoffset:0"/><path style="fill:#ff2a2a;fill-rule:evenodd;stroke:#000;stroke-width:1.05101001px;stroke-linecap:butt;stroke-linejoin:miter;stroke-opacity:1" id="path4143" d="M 21.595131,40.929463 4.7759587,53.965137 c -6.1085602,4.73443 -0.1200861,11.566197 4.6298083,6.783499 L 24.446249,44.344787 Z"/><path style="fill:#f55;fill-opacity:1;stroke:#000;stroke-width:1.03450763;stroke-miterlimit:4;stroke-dasharray:none;stroke-dashoffset:0" id="path4139" d="M 39.029297 3.4492188 A 23.984419 23.458914 0 0 0 15.044922 26.908203 A 23.984419 23.458914 0 0 0 39.029297 50.367188 A 23.984419 23.458914 0 0 0 63.013672 26.908203 A 23.984419 23.458914 0 0 0 39.029297 3.4492188 z M 39.029297 6.7949219 A 20.563641 20.113085 0 0 1 59.591797 26.908203 A 20.563641 20.113085 0 0 1 39.029297 47.019531 A 20.563641 20.113085 0 0 1 18.464844 26.908203 A 20.563641 20.113085 0 0 1 39.029297 6.7949219 z"/><path style="fill:#fff;fill-rule:evenodd;stroke:none;stroke-width:1px;stroke-linecap:butt;stroke-linejoin:miter;stroke-opacity:1" id="path4138" d="m 42.603186,8.3153394 c 6.335462,1.8253786 10.184862,6.7107296 11.93875,11.9883936 0.282471,0.653984 0.533299,1.321544 0.752331,1.997775 1.937352,5.981314 1.38023,12.631062 -1.730925,16.419424 3.519403,-3.515034 4.715221,-10.30773 3.134584,-16.814878 C 56.519527,21.171622 56.305666,20.440537 56.05559,19.718088 53.622792,14.184149 49.108559,9.6251998 42.603186,8.3153394 Z"/></g></svg>