<svg xmlns="http://www.w3.org/2000/svg" xmlns:svg="http://www.w3.org/2000/svg" id="svg4311" width="100%" height="100%" version="1.1" viewBox="0 0 64 64"><metadata id="metadata4316"/><g id="layer3" style="display:inline"><ellipse style="opacity:1;fill:#f55;fill-opacity:1;stroke:#000;stroke-width:1;stroke-linecap:round;stroke-linejoin:round;stroke-miterlimit:4;stroke-dasharray:none;stroke-dashoffset:0;stroke-opacity:1" id="path4148" cx="31.378" cy="37.218" rx="23.776" ry="23.6"/><path style="fill:#ff8080;fill-rule:evenodd;stroke:#000;stroke-width:1px;stroke-linecap:butt;stroke-linejoin:miter;stroke-opacity:1" id="path4150" d="m 26.781671,12.116039 c 3.05941,-0.41691 6.38504,-0.477635 9.104,-0.08839 l -0.0442,-3.579728 c 2.017881,-0.1150991 2.239935,-3.8336967 -0.04419,-3.8448934 l -9.015611,-0.044194 c -2.696528,-0.013218 -2.285823,3.5797282 2e-6,3.8448933 z"/><path style="display:inline;fill:#ff8080;fill-rule:evenodd;stroke:#000;stroke-width:1;stroke-linecap:butt;stroke-linejoin:miter;stroke-opacity:1;stroke-miterlimit:4;stroke-dasharray:none" id="path4150-8" d="m 42.679439,14.041768 c 2.147241,1.221059 4.290695,2.797843 5.829948,4.365973 L 50.2201,16.110795 c 1.338587,0.906997 3.286,-1.348892 1.839522,-2.465494 L 46.350259,9.2379855 C 44.642614,7.9197779 43.158452,10.403151 44.48265,11.682016 Z"/><path style="display:inline;fill:#ff8080;fill-rule:evenodd;stroke:#000;stroke-width:1;stroke-linecap:butt;stroke-linejoin:miter;stroke-opacity:1;stroke-miterlimit:4;stroke-dasharray:none" id="path4150-8-7" d="m 13.821287,18.419985 c 1.824436,-1.665251 3.986044,-3.217054 5.952847,-4.196858 L 18.117696,11.886739 C 19.393712,10.893643 17.849415,8.3448008 16.340722,9.375791 l -5.954934,4.0694 c -1.7810933,1.217139 0.122618,3.395615 1.747886,2.531034 z"/><ellipse id="ellipse4186" cx="31.378" cy="37.218" rx="21.399" ry="21.24" style="opacity:1;fill:#faa;fill-opacity:1;stroke:#000;stroke-width:1;stroke-linecap:round;stroke-linejoin:round;stroke-miterlimit:4;stroke-dasharray:none;stroke-dashoffset:0;stroke-opacity:1"/><path style="fill:#f55;fill-rule:evenodd;stroke:#000;stroke-width:.5;stroke-linecap:butt;stroke-linejoin:miter;stroke-miterlimit:4;stroke-dasharray:none;stroke-opacity:1" id="path4182" d="m 27.396239,39.37223 2.200156,2.014253 15.174076,-18.567769 z"/><ellipse style="opacity:1;fill:#ff2a2a;fill-opacity:1;stroke:#000;stroke-width:.5;stroke-linecap:round;stroke-linejoin:round;stroke-miterlimit:4;stroke-dasharray:none;stroke-dashoffset:0;stroke-opacity:1" id="path4184" cx="31.552" cy="37.051" rx="2.128" ry="2.104"/><path style="fill:none;fill-rule:evenodd;stroke:#000;stroke-width:1px;stroke-linecap:butt;stroke-linejoin:miter;stroke-opacity:1" id="path4188" d="m 31.437501,17.187499 0,3.75"/><path style="display:inline;fill:none;fill-rule:evenodd;stroke:#000;stroke-width:1px;stroke-linecap:butt;stroke-linejoin:miter;stroke-opacity:1" id="path4188-1" d="m 31.455807,53.5 0,3.75"/><path style="display:inline;fill:none;fill-rule:evenodd;stroke:#000;stroke-width:1px;stroke-linecap:butt;stroke-linejoin:miter;stroke-opacity:1" id="path4188-6" d="m 51.409026,36.802955 -3.749991,0.0099"/><path style="display:inline;fill:none;fill-rule:evenodd;stroke:#000;stroke-width:1px;stroke-linecap:butt;stroke-linejoin:miter;stroke-opacity:1" id="path4188-1-9" d="m 15.096695,36.91674 -3.749987,0.0099"/><path style="display:inline;fill:none;fill-rule:evenodd;stroke:#000;stroke-width:1px;stroke-linecap:butt;stroke-linejoin:miter;stroke-opacity:1" id="path4188-4" d="m 49.09495,27.632597 -3.284503,1.809567"/><path style="display:inline;fill:none;fill-rule:evenodd;stroke:#000;stroke-width:1px;stroke-linecap:butt;stroke-linejoin:miter;stroke-opacity:1" id="path4188-1-0" d="M 17.298835,45.171273 14.014332,46.98084"/><path style="display:inline;fill:none;fill-rule:evenodd;stroke:#000;stroke-width:1px;stroke-linecap:butt;stroke-linejoin:miter;stroke-opacity:1" id="path4188-4-5" d="m 40.148288,19.119537 -1.676515,3.354369"/><path style="display:inline;fill:none;fill-rule:evenodd;stroke:#000;stroke-width:1px;stroke-linecap:butt;stroke-linejoin:miter;stroke-opacity:1" id="path4188-1-0-4" d="M 23.930403,51.609201 22.253888,54.96357"/><path id="path4279" d="m 22.10097,19.525304 1.81794,3.279876" style="display:inline;fill:none;fill-rule:evenodd;stroke:#000;stroke-width:1px;stroke-linecap:butt;stroke-linejoin:miter;stroke-opacity:1"/><path id="path4281" d="m 39.720701,51.276574 1.81794,3.279876" style="display:inline;fill:none;fill-rule:evenodd;stroke:#000;stroke-width:1px;stroke-linecap:butt;stroke-linejoin:miter;stroke-opacity:1"/><path id="path4283" d="m 13.61076,28.493654 3.358635,1.667952" style="display:inline;fill:none;fill-rule:evenodd;stroke:#000;stroke-width:1px;stroke-linecap:butt;stroke-linejoin:miter;stroke-opacity:1"/><path id="path4285" d="m 46.141691,44.628604 3.358634,1.667953" style="display:inline;fill:none;fill-rule:evenodd;stroke:#000;stroke-width:1px;stroke-linecap:butt;stroke-linejoin:miter;stroke-opacity:1"/></g></svg>