<svg xmlns="http://www.w3.org/2000/svg" xmlns:svg="http://www.w3.org/2000/svg" id="svg4311" width="100%" height="100%" version="1.1" viewBox="0 0 64 64"><metadata id="metadata4316"/><g id="layer1" transform="translate(0,-988.36216)" style="display:inline"><g id="g4158" transform="matrix(0.77774065,0.62858531,-0.62858531,0.77774065,651.75321,206.74376)"><path id="path4138" d="m 27.750555,1042.2524 c 0.75352,-17.7558 0.113668,-45.54879 3.203844,-53.26744 2.998469,8.74693 1.523626,35.42434 2.742992,53.13654 z" style="fill:#ffd5d5;fill-rule:evenodd;stroke:#000;stroke-width:1;stroke-linecap:butt;stroke-linejoin:miter;stroke-miterlimit:4;stroke-dasharray:none;stroke-opacity:1"/><path id="path4145" d="m 30.884261,989.85339 -0.06891,53.60911" style="fill:none;fill-rule:evenodd;stroke:#000;stroke-width:.55124998;stroke-linecap:butt;stroke-linejoin:miter;stroke-miterlimit:4;stroke-dasharray:none;stroke-opacity:1"/><path id="path4136" d="m 22.421301,1044.6859 c 0,0 4.699794,-0.7218 7.061846,-1.1588 l -0.331992,9.3007 c 1.516762,1.4759 2.559767,0.7015 3.617943,-8e-4 l -0.532097,-9.3007 7.096715,0.7773 c 0.458977,-1.3316 1.012402,-2.6631 -0.07174,-3.9947 l -5.623825,0.4639 -2.844439,0.4537 -3.039462,-0.3727 -5.33804,-0.5451 c -0.618539,1.5779 -0.551208,3.139 0.0051,4.3772 z" style="fill:#ff8080;fill-rule:evenodd;stroke:#000;stroke-width:1;stroke-linecap:butt;stroke-linejoin:miter;stroke-miterlimit:4;stroke-dasharray:none;stroke-opacity:1"/></g></g></svg>