<svg xmlns="http://www.w3.org/2000/svg" xmlns:svg="http://www.w3.org/2000/svg" id="svg4311" width="100%" height="100%" version="1.1" viewBox="0 0 64 64"><metadata id="metadata4316"/><g id="layer3" style="display:inline"><g style="display:inline" id="g4168" transform="translate(-7.1875028,-8.2499984)"><path id="path4145" d="m 31.750001,10.749999 0,6.25" style="fill:none;fill-rule:evenodd;stroke:#000;stroke-width:3;stroke-linecap:round;stroke-linejoin:miter;stroke-miterlimit:4;stroke-dasharray:none;stroke-opacity:1"/><path id="path4147" d="m 43.250002,21.624999 4.25,-4.375" style="fill:none;fill-rule:evenodd;stroke:#000;stroke-width:3;stroke-linecap:round;stroke-linejoin:miter;stroke-miterlimit:4;stroke-dasharray:none;stroke-opacity:1"/><path id="path4149" d="m 48.250002,33 c 1.125,0 5.25,0 5.25,0" style="fill:none;fill-rule:evenodd;stroke:#000;stroke-width:3;stroke-linecap:round;stroke-linejoin:miter;stroke-miterlimit:4;stroke-dasharray:none;stroke-opacity:1"/><path id="path4151" d="m 43.375002,44.875 4,3.625" style="fill:none;fill-rule:evenodd;stroke:#000;stroke-width:3;stroke-linecap:round;stroke-linejoin:miter;stroke-miterlimit:4;stroke-dasharray:none;stroke-opacity:1"/><path id="path4153" d="m 31.375001,49.625 0.125,5.625001" style="fill:none;fill-rule:evenodd;stroke:#000;stroke-width:3;stroke-linecap:round;stroke-linejoin:miter;stroke-miterlimit:4;stroke-dasharray:none;stroke-opacity:1"/><path id="path4155" d="m 20.375001,44.875 -4,3.75" style="fill:none;fill-rule:evenodd;stroke:#000;stroke-width:3;stroke-linecap:round;stroke-linejoin:miter;stroke-miterlimit:4;stroke-dasharray:none;stroke-opacity:1"/><path id="path4157" d="m 15.500001,33 c -0.5,0 -6.1250006,-0.125 -6.1250006,-0.125" style="fill:none;fill-rule:evenodd;stroke:#000;stroke-width:3;stroke-linecap:round;stroke-linejoin:miter;stroke-miterlimit:4;stroke-dasharray:none;stroke-opacity:1"/><path id="path4159" d="m 20.250001,21.374999 -3.875,-4" style="fill:none;fill-rule:evenodd;stroke:#000;stroke-width:3;stroke-linecap:round;stroke-linejoin:miter;stroke-miterlimit:4;stroke-dasharray:none;stroke-opacity:1"/><ellipse id="path4161" cx="31.688" cy="32.875" rx="10.716" ry="10.528" style="fill:#fd5;fill-opacity:1;stroke:#000;stroke-width:3;stroke-linecap:round;stroke-linejoin:round;stroke-miterlimit:4;stroke-dasharray:none;stroke-dashoffset:0"/></g><path style="fill:#999;fill-rule:evenodd;stroke:#000;stroke-width:3;stroke-linecap:butt;stroke-linejoin:miter;stroke-miterlimit:4;stroke-dasharray:none;stroke-opacity:1" id="path4220" d="m 22.632622,45.892956 c -17.7737515,7.47924 -21.75110052,-24.41875 -2.386485,-19.79899 3.545251,-6.34065 19.42242,-12.25675 26.428117,-0.70711 19.457734,-1.06129 16.420131,24.99514 -1.06066,20.5061 -7.14843,5.07035 -16.038986,6.95986 -22.980972,0 z"/><path style="fill:#08a;fill-rule:evenodd;stroke:#000;stroke-width:2;stroke-linecap:butt;stroke-linejoin:miter;stroke-miterlimit:4;stroke-dasharray:none;stroke-opacity:1" id="path4230" d="m 21.87459,50.78156 -2.879508,8.134605 c -1.638593,4.629034 7.296094,4.931471 5.759014,0 z"/><path style="display:inline;fill:#08a;fill-rule:evenodd;stroke:#000;stroke-width:2;stroke-linecap:butt;stroke-linejoin:miter;stroke-miterlimit:4;stroke-dasharray:none;stroke-opacity:1" id="path4230-0" d="m 46.486,50.832486 -2.879508,8.134605 c -1.638593,4.629034 7.296094,4.931471 5.759014,0 z"/><path style="display:inline;fill:#08a;fill-rule:evenodd;stroke:#000;stroke-width:2;stroke-linecap:butt;stroke-linejoin:miter;stroke-miterlimit:4;stroke-dasharray:none;stroke-opacity:1" id="path4230-3" d="m 34.187217,41.937876 -4.254344,12.018519 c -2.42095,6.839188 10.779651,7.286026 8.508684,0 z"/></g></svg>