<svg xmlns="http://www.w3.org/2000/svg" xmlns:svg="http://www.w3.org/2000/svg" id="svg4311" width="100%" height="100%" version="1.1" viewBox="0 0 64 64"><metadata id="metadata4316"/><g id="layer3" style="display:inline"><path style="display:inline;fill:#ccc;fill-opacity:1;stroke:#000;stroke-width:4.43236685;stroke-linecap:round;stroke-linejoin:round;stroke-miterlimit:4;stroke-dasharray:none;stroke-dashoffset:0" id="path4161" d="M 41.368216,5.0070244 A 15.83236,15.555338 0 0 0 29.049357,20.153827 15.83236,15.555338 0 0 0 44.880059,35.710394 15.83236,15.555338 0 0 0 59.233306,26.684064 15.83236,15.555338 0 0 1 55.721463,27.090942 15.83236,15.555338 0 0 1 39.887875,11.53726 15.83236,15.555338 0 0 1 41.368216,5.0070244 Z"/><path style="fill:#999;fill-rule:evenodd;stroke:#000;stroke-width:3;stroke-linecap:butt;stroke-linejoin:miter;stroke-miterlimit:4;stroke-dasharray:none;stroke-opacity:1" id="path4220" d="m 22.632622,45.892956 c -17.7737515,7.47924 -21.75110052,-24.41875 -2.386485,-19.79899 3.545251,-6.34065 19.42242,-12.25675 26.428117,-0.70711 19.457734,-1.06129 16.420131,24.99514 -1.06066,20.5061 -7.14843,5.07035 -16.038986,6.95986 -22.980972,0 z"/><path style="fill:#08a;fill-rule:evenodd;stroke:#000;stroke-width:2;stroke-linecap:butt;stroke-linejoin:miter;stroke-miterlimit:4;stroke-dasharray:none;stroke-opacity:1" id="path4230" d="m 22.225051,50.88645 -2.742387,7.747242 c -1.560563,4.408606 6.948662,4.696642 5.484775,0 z"/><path style="display:inline;fill:#08a;fill-rule:evenodd;stroke:#000;stroke-width:2;stroke-linecap:butt;stroke-linejoin:miter;stroke-miterlimit:4;stroke-dasharray:none;stroke-opacity:1" id="path4230-0" d="m 46.259559,50.614153 -2.742387,7.747242 c -1.560563,4.408606 6.948662,4.696642 5.484775,0 z"/><path style="display:inline;fill:#08a;fill-rule:evenodd;stroke:#000;stroke-width:2;stroke-linecap:butt;stroke-linejoin:miter;stroke-miterlimit:4;stroke-dasharray:none;stroke-opacity:1" id="path4230-3" d="m 34.200956,42.998439 -3.858814,10.901148 c -2.195869,6.20335 9.777465,6.608647 7.71763,0 z"/></g></svg>