<svg xmlns="http://www.w3.org/2000/svg" xmlns:svg="http://www.w3.org/2000/svg" xmlns:xlink="http://www.w3.org/1999/xlink" id="svg4311" width="100%" height="100%" version="1.1" viewBox="0 0 64 64"><defs id="defs4313"><linearGradient id="linearGradient4138"><stop style="stop-color:#999;stop-opacity:1" id="stop4140" offset="0"/><stop style="stop-color:#f3c;stop-opacity:1" id="stop4142" offset="1"/></linearGradient><linearGradient id="linearGradient4144" x1="33.764" x2="33.057" y1="19.099" y2="60.288" gradientUnits="userSpaceOnUse" xlink:href="#linearGradient4138"/></defs><metadata id="metadata4316"/><g id="layer3" style="display:inline"><path style="display:inline;fill:#f3c;fill-opacity:1;fill-rule:evenodd;stroke:#000;stroke-width:2;stroke-linecap:butt;stroke-linejoin:round;stroke-miterlimit:4;stroke-dasharray:none;stroke-opacity:1" id="path4285-3" d="m 22.263542,28.959747 -11.58103,9.676776 2.083947,6.534773 L 5.2664582,55.27301 18.458401,45.157971 16.311192,39.320344 Z"/><path style="display:inline;fill:#f3c;fill-opacity:1;fill-rule:evenodd;stroke:#000;stroke-width:2;stroke-linecap:butt;stroke-linejoin:round;stroke-miterlimit:4;stroke-dasharray:none;stroke-opacity:1" id="path4285-8" d="m 46.588106,30.136524 2.119164,7.643844 2.083947,6.534773 -7.500001,10.101714 13.191943,-10.115039 -2.147209,-5.837627 z"/><path style="display:inline;fill:#ccc;fill-opacity:1;stroke:#000;stroke-width:4.43236685;stroke-linecap:round;stroke-linejoin:round;stroke-miterlimit:4;stroke-dasharray:none;stroke-dashoffset:0" id="path4161" d="M 41.368216,5.0070244 A 15.83236,15.555338 0 0 0 29.049357,20.153827 15.83236,15.555338 0 0 0 44.880059,35.710394 15.83236,15.555338 0 0 0 59.233306,26.684064 15.83236,15.555338 0 0 1 55.721463,27.090942 15.83236,15.555338 0 0 1 39.887875,11.53726 15.83236,15.555338 0 0 1 41.368216,5.0070244 Z"/><path style="fill:url(#linearGradient4144);fill-rule:evenodd;stroke:#000;stroke-width:3;stroke-linecap:butt;stroke-linejoin:miter;stroke-miterlimit:4;stroke-dasharray:none;stroke-opacity:1;fill-opacity:1" id="path4220" d="m 22.632622,45.892956 c -17.7737515,7.47924 -21.75110052,-24.41875 -2.386485,-19.79899 3.545251,-6.34065 19.42242,-12.25675 26.428117,-0.70711 19.457734,-1.06129 16.420131,24.99514 -1.06066,20.5061 -7.14843,5.07035 -16.038986,6.95986 -22.980972,0 z"/><path style="display:inline;fill:#f3c;fill-opacity:1;fill-rule:evenodd;stroke:#000;stroke-width:2;stroke-linecap:butt;stroke-linejoin:round;stroke-miterlimit:4;stroke-dasharray:none;stroke-opacity:1" id="path4285" d="m 41.132713,34.727068 -11.58103,9.676776 2.083947,6.534773 -7.500001,10.101714 13.191943,-10.115039 -2.147209,-5.837627 z"/></g></svg>