<svg xmlns="http://www.w3.org/2000/svg" xmlns:svg="http://www.w3.org/2000/svg" xmlns:xlink="http://www.w3.org/1999/xlink" id="svg4311" width="100%" height="100%" version="1.1" viewBox="0 0 64 64"><defs id="defs4313"><linearGradient id="brothelGradient"><stop style="stop-color:#f55;stop-opacity:1" id="stop4184" offset="0"/><stop style="stop-color:#ff8080;stop-opacity:1" id="stop4186" offset="1"/></linearGradient><linearGradient id="linearGradient15" x1="29.5" x2="44.125" y1="1025.487" y2="1003.362" gradientTransform="matrix(1.2884366,0,0,1.290513,-9.2250812,-296.31254)" gradientUnits="userSpaceOnUse" xlink:href="#brothelGradient"/></defs><metadata id="metadata4316"/><g id="layer1" transform="translate(0,-988.36216)" style="display:inline"><ellipse id="ellipse4146" cx="32" cy="1020.368" rx="30.383" ry="30.381" style="display:inline;fill:url(#linearGradient15);fill-opacity:1;fill-rule:evenodd;stroke:none;stroke-width:5.4000001;stroke-linecap:butt;stroke-linejoin:miter;stroke-miterlimit:4;stroke-dasharray:none;stroke-opacity:1"/><path style="fill:none;fill-rule:evenodd;stroke:#fff;stroke-width:4.84000015;stroke-linecap:round;stroke-linejoin:miter;stroke-miterlimit:4;stroke-dasharray:none;stroke-opacity:1" id="path4142" d="M 11.682487,1013.5947 32.28195,999.28023 53.598557,1013.8359"/><path style="fill:#fff;fill-rule:evenodd;stroke:none;stroke-width:1px;stroke-linecap:butt;stroke-linejoin:miter;stroke-opacity:1" id="path4186" d="m 32.281936,1004.0456 -16.561875,11.3438 0.1291,21.8638 33.048125,0.037 -0.204725,-22.2041 z m 5.310294,10.4244 c 3.104525,0.052 5.774407,2.567 3.878144,7.0048 -2.062907,4.8278 -6.681427,7.4257 -8.92375,11.4973 -2.088518,-4.2484 -6.970502,-6.3725 -8.999375,-11.495 -1.689209,-4.2648 1.11905,-6.8426 4.406193,-6.8731 2.358898,-0.022 4.794616,0.8478 4.820057,3.7726 0.0025,-2.9282 2.383225,-3.9475 4.818731,-3.9066 z"/></g></svg>