<svg xmlns="http://www.w3.org/2000/svg" xmlns:svg="http://www.w3.org/2000/svg" xmlns:xlink="http://www.w3.org/1999/xlink" id="svg4311" width="100%" height="100%" version="1.1" viewBox="0 0 64 64"><defs id="defs4313"><linearGradient id="canalEndGradient"><stop style="stop-color:#f55;stop-opacity:1" id="stop4184" offset="0"/><stop style="stop-color:#ff8080;stop-opacity:1" id="stop4186" offset="1"/></linearGradient><linearGradient id="linearGradient15" x1="29.5" x2="44.125" y1="1025.487" y2="1003.362" gradientTransform="matrix(1.2884366,0,0,1.290513,-9.2250812,-296.31254)" gradientUnits="userSpaceOnUse" xlink:href="#canalEndGradient"/></defs><metadata id="metadata4316"/><g id="layer1" transform="translate(0,-988.36216)" style="display:inline"><ellipse id="ellipse4146" cx="32" cy="1020.368" rx="30.383" ry="30.381" style="display:inline;fill:url(#linearGradient15);fill-opacity:1;fill-rule:evenodd;stroke:none;stroke-width:5.4000001;stroke-linecap:butt;stroke-linejoin:miter;stroke-miterlimit:4;stroke-dasharray:none;stroke-opacity:1"/><path style="display:inline;fill:#fff;fill-rule:evenodd;stroke:#fff;stroke-width:.8558619px;stroke-linecap:butt;stroke-linejoin:round;stroke-opacity:1" id="path4141-9" d="m 13.206631,1003.9115 4.073142,0.032 0.126391,33.1622 -4.360205,-0.032 z"/><path style="display:inline;fill:#fff;fill-rule:evenodd;stroke:#fff;stroke-width:.86398232px;stroke-linecap:butt;stroke-linejoin:round;stroke-opacity:1" id="path4141-1-1" d="m 46.926204,1004.4099 4.230691,0.031 0.131238,32.5362 -4.528861,-0.032 z"/><path style="display:inline;fill:none;fill-rule:evenodd;stroke:#fff;stroke-width:3;stroke-linecap:round;stroke-linejoin:miter;stroke-miterlimit:4;stroke-dasharray:none;stroke-opacity:1" id="path4158-1-59" d="m 41.668165,1010.7039 c -2.663842,0.099 -5.170652,-2.1871 -5.170652,-2.1871 0,0 -2.749059,2.0754 -4.416419,2.0912 -2.688246,0.024 -4.427341,-2.1075 -4.427341,-2.1075 0,0 -2.694802,2.486 -5.481259,2.4577"/><path style="display:inline;fill:none;fill-rule:evenodd;stroke:#fff;stroke-width:3;stroke-linecap:round;stroke-linejoin:miter;stroke-miterlimit:4;stroke-dasharray:none;stroke-opacity:1" id="path4158-1-59-8" d="m 41.750707,1021.6022 c -2.663842,0.099 -5.170652,-2.1871 -5.170652,-2.1871 0,0 -2.749059,2.0754 -4.416419,2.0912 -2.688247,0.024 -4.427342,-2.1075 -4.427342,-2.1075 0,0 -2.694802,2.486 -5.481259,2.4577"/><path style="display:inline;fill:none;fill-rule:evenodd;stroke:#fff;stroke-width:3;stroke-linecap:round;stroke-linejoin:miter;stroke-miterlimit:4;stroke-dasharray:none;stroke-opacity:1" id="path4158-1-59-84" d="m 41.214094,1033.1382 c -2.663842,0.099 -5.170652,-2.1871 -5.170652,-2.1871 0,0 -2.749059,2.0754 -4.416419,2.0912 -2.688246,0.024 -4.427341,-2.1075 -4.427341,-2.1075 0,0 -2.694802,2.486 -5.481259,2.4577"/></g></svg>