<svg xmlns="http://www.w3.org/2000/svg" xmlns:svg="http://www.w3.org/2000/svg" xmlns:xlink="http://www.w3.org/1999/xlink" id="svg4311" width="100%" height="100%" version="1.1" viewBox="0 0 64 64"><defs id="defs4313"><linearGradient id="statueGradient"><stop style="stop-color:#f55;stop-opacity:1" id="stop4184" offset="0"/><stop style="stop-color:#ff8080;stop-opacity:1" id="stop4186" offset="1"/></linearGradient><linearGradient id="linearGradient15" x1="29.5" x2="44.125" y1="1025.487" y2="1003.362" gradientTransform="matrix(1.2884366,0,0,1.290513,-9.2250812,-296.31254)" gradientUnits="userSpaceOnUse" xlink:href="#statueGradient"/></defs><metadata id="metadata4316"/><g id="layer1" transform="translate(0,-988.36216)" style="display:inline"><ellipse id="ellipse4146" cx="32" cy="1020.368" rx="30.383" ry="30.381" style="display:inline;fill:url(#linearGradient15);fill-opacity:1;fill-rule:evenodd;stroke:none;stroke-width:5.4000001;stroke-linecap:butt;stroke-linejoin:miter;stroke-miterlimit:4;stroke-dasharray:none;stroke-opacity:1"/><path style="fill:none;fill-rule:evenodd;stroke:#fff;stroke-width:2;stroke-linecap:butt;stroke-linejoin:miter;stroke-miterlimit:4;stroke-dasharray:none;stroke-opacity:1" id="path4150" d="m 16.374999,1039.3622 32.249999,0"/><path style="fill:none;fill-rule:evenodd;stroke:#fff;stroke-width:4;stroke-linecap:butt;stroke-linejoin:miter;stroke-miterlimit:4;stroke-dasharray:none;stroke-opacity:1" id="path4152" d="m 21.124999,1038.0497 22.562499,0.062"/><path style="fill:none;fill-rule:evenodd;stroke:#fff;stroke-width:8;stroke-linecap:butt;stroke-linejoin:miter;stroke-miterlimit:4;stroke-dasharray:none;stroke-opacity:1" id="path4154" d="m 32.187499,1036.6122 0,-15.75"/><path style="display:inline;fill:none;fill-rule:evenodd;stroke:#fff;stroke-width:2;stroke-linecap:butt;stroke-linejoin:miter;stroke-miterlimit:4;stroke-dasharray:none;stroke-opacity:1" id="path4152-2" d="m 26.541151,1020.3932 11.042695,5e-4"/><g id="g4215" transform="matrix(1.331,0,0,1.331,-10.574876,-328.25508)"><path id="path4182" d="m 35.263978,1013.5106 c -0.03787,-0.078 -0.424637,-1.4295 -0.424637,-1.4295 -0.467025,-1.2442 -0.907155,-2.4468 -1.231297,-3.47 -0.52279,-1.1277 -1.155727,-2.2281 -1.290821,-3.4517" style="fill:none;fill-rule:evenodd;stroke:#fff;stroke-width:.88640332px;stroke-linecap:butt;stroke-linejoin:miter;stroke-opacity:1"/><path id="path4184" d="m 30.174657,1004.8242 -0.129521,3.4814 c -0.130384,1.0105 -0.115701,2.0386 -0.155965,2.8385 -0.07287,0.6306 -0.321759,1.3398 -0.358236,2.1144" style="fill:none;fill-rule:evenodd;stroke:#fff;stroke-width:.88640332px;stroke-linecap:butt;stroke-linejoin:miter;stroke-opacity:1"/><path id="path4186" d="m 29.74933,1005.38 3.020058,-0.1531 c -0.143786,-1.0126 0.110696,-2.0379 -0.668339,-3.0304 1.04159,-0.9846 0.8997,-1.9931 1.046488,-2.99578 l -2.727149,0.29524 c -0.257135,0.57484 -0.796719,1.46504 0.133744,2.16314 -0.947713,1.2265 -0.95907,2.4721 -0.804802,3.7209 z" style="fill:#fff;fill-rule:evenodd;stroke:#fff;stroke-width:.44320166;stroke-linecap:butt;stroke-linejoin:miter;stroke-miterlimit:4;stroke-dasharray:none;stroke-opacity:1"/><path id="path4188" d="m 31.011425,999.64024 c -1.024274,0.0233 -1.884476,0.87376 -1.853212,1.81556 0.05359,0.6135 0.576926,0.9639 0.877982,1.4386" style="fill:none;fill-rule:evenodd;stroke:#fff;stroke-width:.88640332px;stroke-linecap:butt;stroke-linejoin:miter;stroke-opacity:1"/><path id="path4190" d="m 32.964636,999.46958 c 0.130483,0.0466 1.202093,1.40592 1.195493,1.89022 -0.375694,0.7172 -0.996939,1.5209 -1.713285,2.2646" style="fill:none;fill-rule:evenodd;stroke:#fff;stroke-width:.88640332px;stroke-linecap:butt;stroke-linejoin:miter;stroke-opacity:1"/><path id="path4192" d="m 31.566359,999.3829 -0.07653,-1.09147" style="fill:none;fill-rule:evenodd;stroke:#fff;stroke-width:.88640332px;stroke-linecap:butt;stroke-linejoin:miter;stroke-opacity:1"/><ellipse id="path4194" cx="51.44" cy="996.923" rx=".885" ry=".998" transform="matrix(0.99979578,0.02020871,-0.02020871,0.99979578,0,0)" style="opacity:1;fill:#fff;fill-opacity:1;stroke:#fff;stroke-width:.44320166;stroke-linecap:round;stroke-linejoin:round;stroke-miterlimit:4;stroke-dasharray:none;stroke-dashoffset:0;stroke-opacity:1"/><path id="path4196" d="m 30.973462,997.07115 c 2.288299,-1.18422 0.860254,2.02703 2.434702,1.47325" style="fill:none;fill-rule:evenodd;stroke:#fff;stroke-width:.88640332px;stroke-linecap:butt;stroke-linejoin:miter;stroke-opacity:1"/><path id="path4198" d="m 32.142784,1001.1073 c -2.825539,-2.17834 -5.111946,-3.69596 -5.681726,-6.69359 -3.125428,0.79811 -5.028916,2.45808 -6.186946,4.64362 l 3.278264,-0.41753 1.701307,1.5292 3.307247,-0.31344 z" style="fill:#fff;fill-rule:evenodd;stroke:#fff;stroke-width:.44320166;stroke-linecap:butt;stroke-linejoin:miter;stroke-miterlimit:4;stroke-dasharray:none;stroke-opacity:1"/><path id="path4198-0" d="m 31.314356,1000.6179 c 2.911255,-2.06243 5.257121,-3.48651 5.947568,-6.45867 3.090624,0.92375 4.925474,2.65928 5.994248,4.88984 l -3.258716,-0.54957 -1.76171,1.4591 -3.291882,-0.44672 z" style="display:inline;fill:#fff;fill-rule:evenodd;stroke:#fff;stroke-width:.44320166;stroke-linecap:butt;stroke-linejoin:miter;stroke-miterlimit:4;stroke-dasharray:none;stroke-opacity:1"/></g></g></svg>