<svg xmlns="http://www.w3.org/2000/svg" xmlns:svg="http://www.w3.org/2000/svg" xmlns:xlink="http://www.w3.org/1999/xlink" id="svg4311" width="100%" height="100%" version="1.1" viewBox="0 0 64 64"><defs id="defs4313"><linearGradient id="waitingRoomGradient"><stop style="stop-color:#f55;stop-opacity:1" id="stop4184" offset="0"/><stop style="stop-color:#ff8080;stop-opacity:1" id="stop4186" offset="1"/></linearGradient><linearGradient id="linearGradient15" x1="29.5" x2="44.125" y1="1025.487" y2="1003.362" gradientTransform="matrix(1.2884366,0,0,1.290513,-9.2250812,-296.31254)" gradientUnits="userSpaceOnUse" xlink:href="#waitingRoomGradient"/></defs><metadata id="metadata4316"/><g id="layer1" transform="translate(0,-988.36216)" style="display:inline"><ellipse id="ellipse4146" cx="32" cy="1020.368" rx="30.383" ry="30.381" style="display:inline;fill:url(#linearGradient15);fill-opacity:1;fill-rule:evenodd;stroke:none;stroke-width:5.4000001;stroke-linecap:butt;stroke-linejoin:miter;stroke-miterlimit:4;stroke-dasharray:none;stroke-opacity:1"/><g id="g4169" transform="matrix(1.1,0,0,1.1,-2.8520555,-100.29204)"><path id="path4145" d="m 13.457654,1019.5214 0.106694,10.276" style="fill:none;fill-rule:evenodd;stroke:#fff;stroke-width:5.32399988;stroke-linecap:butt;stroke-linejoin:miter;stroke-miterlimit:4;stroke-dasharray:none;stroke-opacity:1"/><path id="path4153" d="m 13.631034,1012.4807 0.02027,11.6471" style="fill:none;fill-rule:evenodd;stroke:#fff;stroke-width:5.71181345px;stroke-linecap:round;stroke-linejoin:miter;stroke-opacity:1"/><path id="path4155" d="m 14.624826,1023.4928 37.042743,0.052" style="fill:none;fill-rule:evenodd;stroke:#fff;stroke-width:7.98600006;stroke-linecap:butt;stroke-linejoin:miter;stroke-miterlimit:4;stroke-dasharray:none;stroke-opacity:1"/><path id="path4143" d="m 13.882504,1008.8644 c 4.686269,-0.3305 3.832217,4.6791 3.649424,9.8053 l 14.341389,0 -0.03125,-12.625 c -7.072917,-0.2054 -15.427083,0.677 -17.959563,2.8152 z" style="fill:#fff;fill-rule:evenodd;stroke:none;stroke-width:1px;stroke-linecap:butt;stroke-linejoin:miter;stroke-opacity:1"/><path id="path4145-5" d="m 51.083456,1019.5678 -0.01831,9.9667" style="display:inline;fill:none;fill-rule:evenodd;stroke:#fff;stroke-width:5.32399988;stroke-linecap:butt;stroke-linejoin:miter;stroke-miterlimit:4;stroke-dasharray:none;stroke-opacity:1"/><path id="path4153-2" d="m 50.910076,1012.5271 -0.02027,11.6471" style="display:inline;fill:none;fill-rule:evenodd;stroke:#fff;stroke-width:5.71181345px;stroke-linecap:round;stroke-linejoin:miter;stroke-opacity:1"/><path id="path4143-8" d="m 50.658606,1008.9108 c -4.686269,-0.3305 -3.832217,4.6791 -3.649424,9.8053 l -14.341389,0 0.03125,-12.625 c 7.072917,-0.2054 15.427083,0.677 17.959563,2.8152 z" style="display:inline;fill:#fff;fill-rule:evenodd;stroke:none;stroke-width:1px;stroke-linecap:butt;stroke-linejoin:miter;stroke-opacity:1"/></g></g></svg>