<svg xmlns="http://www.w3.org/2000/svg" xmlns:svg="http://www.w3.org/2000/svg" id="svg4206" version="1.1" viewBox="0 0 256 256"><style id="style3">svg{cursor:default}</style><metadata id="metadata4211"/><g id="layer4"><path style="fill:#f55;fill-rule:evenodd;stroke:#000;stroke-width:1px;stroke-linecap:butt;stroke-linejoin:miter;stroke-opacity:1" id="path4988" d="m 101.52033,9.6490494 c 14.08508,7.9699136 36.80576,7.3042336 64.33409,1.8309016 3.58277,16.925282 -12.60369,28.036083 -34.59772,37.438778 C 114.69754,39.765929 96.850188,31.37613 101.52033,9.6490494 Z"/><path style="fill:#ff8080;fill-rule:evenodd;stroke:#000;stroke-width:1px;stroke-linecap:butt;stroke-linejoin:miter;stroke-opacity:1" id="path4408" d="M 36.720546,73.121457 C 36.400549,71.841465 50.426489,35.178814 61.354297,24.984005 65.158586,20.628536 92.876538,11.589225 100.67713,9.116001 c 8.01623,45.606233 60.9755,37.095929 64.73432,1.688833 5.83505,1.467956 19.07685,9.175824 32.14811,11.053932 19.28948,2.771556 28.03571,58.035715 28.03571,58.035715 -12.92963,7.875378 -23.08997,2.212569 -35.87305,9.329042 l -0.37695,-5.400474 c -1.90114,18.781411 -4.35721,24.077881 -2.83971,49.619601 1.36948,23.05037 6.1436,36.25268 13.28397,93.00862 C 165.57297,242.6906 86.790657,239.13011 59.75101,230.23802 71.562721,174.88666 75.235991,157.7994 76.704778,134.11339 77.91107,114.66044 74.523849,84.894478 74.523849,84.894478 63.882467,85.018666 43.884106,89.666139 36.720546,73.121457 Z"/><path style="fill:#fd5;fill-rule:evenodd;stroke:#000;stroke-width:1px;stroke-linecap:butt;stroke-linejoin:miter;stroke-opacity:1" id="path4986" d="m 100.98214,9.214287 1.74108,-0.7142858 c 16.06445,8.9294158 37.32531,7.7128368 61.70408,1.4389386 l 2.89413,1.5074902 C 136.692,20.025362 108.1591,17.972888 100.98214,9.214287 Z"/><path style="fill:#ffe680;fill-rule:evenodd;stroke:#000;stroke-width:1.21000004px;stroke-linecap:butt;stroke-linejoin:miter;stroke-opacity:1" id="path4750" d="m 99.54622,9.240499 c 1.01984,-0.3571429 2.77592,-0.5863218 2.77592,-0.5863218 0.47212,35.0617008 49.32446,45.6411108 62.55377,1.5268918 l 2.04296,0.824951 C 159.28562,48.643969 106.00605,56.050382 99.54622,9.240499 Z"/><path style="fill:#ffe680;fill-rule:evenodd;stroke:#000;stroke-width:1.21000004px;stroke-linecap:butt;stroke-linejoin:miter;stroke-opacity:1" id="path4752" d="m 60.443506,227.53917 c 45.726664,15.2733 120.879854,8.16969 139.182774,-1.44822 l 0.97026,7.5625 c -12.7241,8.90537 -102.481715,17.21516 -140.914459,1.02201 -0.328665,-2.40532 0.156341,-4.4795 0.761425,-7.13629 z"/><path style="fill:#000;fill-rule:evenodd;stroke:none;stroke-width:1px;stroke-linecap:butt;stroke-linejoin:miter;stroke-opacity:1" id="path4410" d="M 74.959877,84.683746 C 73.813446,77.369118 73.73848,69.70927 73.571429,62.25 c -0.166274,7.424614 -0.427127,15.144955 0.397266,22.566254 z"/><path style="fill:#000;fill-rule:evenodd;stroke:none;stroke-width:1px;stroke-linecap:butt;stroke-linejoin:miter;stroke-opacity:1" id="path4415" d="m 189.33802,85.107143 c 0.17843,-0.354997 0.35559,-0.713357 0.53157,-1.074663 -0.24769,-7.093427 -0.93951,-14.794477 -1.11959,-22.139623 -0.17878,7.292003 0.15522,15.148433 0.0431,22.149881 0.18275,0.355482 0.36455,0.710523 0.54487,1.064405 z"/><path style="fill:none;fill-rule:evenodd;stroke:#ffb380;stroke-width:3;stroke-linecap:round;stroke-linejoin:round;stroke-miterlimit:4;stroke-dasharray:none;stroke-opacity:1" id="path4419" d="m 92.679492,79.033959 -2.14658,-9.59645 c 3.31266,-8.564183 19.133098,0.44078 1.6415,5.55584 3.21645,0.72164 5.57798,1.657 7.44988,2.71478"/><path style="fill:none;fill-rule:evenodd;stroke:#ffb380;stroke-width:3;stroke-linecap:round;stroke-linejoin:round;stroke-miterlimit:4;stroke-dasharray:none;stroke-opacity:1" id="path4421" d="m 110.48343,66.028239 c -2.77912,-0.0872 -5.38628,0.25555 -7.82869,1.01016 0.45517,3.2605 0.65006,6.0525 1.89404,10.73287 3.48765,-0.11417 5.28852,-0.7906 7.32361,-1.38896"/><path style="fill:none;fill-rule:evenodd;stroke:#ffb380;stroke-width:3;stroke-linecap:round;stroke-linejoin:round;stroke-miterlimit:4;stroke-dasharray:none;stroke-opacity:1" id="path4423" d="m 112.75627,70.447659 c -3.57763,0.13963 -7.15525,0.49927 -10.73288,1.6415"/><path style="fill:none;fill-rule:evenodd;stroke:#ffb380;stroke-width:3;stroke-linecap:round;stroke-linejoin:round;stroke-miterlimit:4;stroke-dasharray:none;stroke-opacity:1" id="path4425" d="m 116.41807,77.644999 c -0.12627,-0.50508 -0.63134,-10.10153 -0.63134,-10.10153 4.3641,2.34812 6.69496,5.91619 9.47018,9.21764 -0.003,-3.63597 -0.17597,-7.01755 0.12627,-11.11167"/><path style="fill:none;fill-rule:evenodd;stroke:#ffb380;stroke-width:3;stroke-linecap:round;stroke-linejoin:round;stroke-miterlimit:4;stroke-dasharray:none;stroke-opacity:1" id="path4427" d="m 128.03484,67.417199 c 2.96193,-2.01333 5.79134,-2.30397 8.58629,-2.14657"/><path style="fill:none;fill-rule:evenodd;stroke:#ffb380;stroke-width:3;stroke-linecap:round;stroke-linejoin:round;stroke-miterlimit:4;stroke-dasharray:none;stroke-opacity:1" id="path4429" d="m 132.95933,77.013649 c -0.49352,-0.51077 -0.97437,-11.11564 -0.63135,-11.11168"/><path style="fill:none;fill-rule:evenodd;stroke:#ffb380;stroke-width:3;stroke-linecap:round;stroke-linejoin:round;stroke-miterlimit:4;stroke-dasharray:none;stroke-opacity:1" id="path4431" d="m 139.14651,76.761109 4.79823,-12.37436 5.68211,10.35406"/><path style="fill:none;fill-rule:evenodd;stroke:#ffb380;stroke-width:3;stroke-linecap:round;stroke-linejoin:round;stroke-miterlimit:4;stroke-dasharray:none;stroke-opacity:1" id="path4433" d="m 149.62684,72.152289 -11.17481,2.9042"/><path style="fill:none;fill-rule:evenodd;stroke:#ffb380;stroke-width:3;stroke-linecap:round;stroke-linejoin:round;stroke-miterlimit:4;stroke-dasharray:none;stroke-opacity:1" id="path4435" d="m 152.15223,64.386749 0.75761,11.11167 c 2.86061,0.11436 5.6415,-0.40907 8.33376,-1.64149"/><path style="fill:none;fill-rule:evenodd;stroke:#ffb380;stroke-width:3;stroke-linecap:round;stroke-linejoin:round;stroke-miterlimit:4;stroke-dasharray:none;stroke-opacity:1" id="path4446" d="m 159.1467,81.18239 c 1.09534,3.5458 3.82144,6.68392 6.18718,9.91212"/><path style="fill:none;fill-rule:evenodd;stroke:#ffb380;stroke-width:3;stroke-linecap:round;stroke-linejoin:round;stroke-miterlimit:4;stroke-dasharray:none;stroke-opacity:1" id="path4448" d="m 169.87957,82.12941 -6.9448,15.40482"/><path style="fill:none;fill-rule:evenodd;stroke:#ffb380;stroke-width:3;stroke-linecap:round;stroke-linejoin:round;stroke-miterlimit:4;stroke-dasharray:none;stroke-opacity:1" id="path4450" d="m 169.45109,102.64627 c 4.07647,-1.40459 5.8434,-8.500421 2.14657,-6.313451 -0.53047,-7.03209 -3.42958,0.39773 -2.14657,6.313451 z"/><path style="fill:none;fill-rule:evenodd;stroke:#ffb380;stroke-width:3;stroke-linecap:round;stroke-linejoin:round;stroke-miterlimit:4;stroke-dasharray:none;stroke-opacity:1" id="path4452" d="m 136.49486,105.803 c -2.40384,0.10436 -4.665,0.44651 -6.56599,1.38896 -0.24496,1.528 0.25031,2.93262 1.01015,4.29315 10.64041,-0.43376 7.20946,10.13299 -1.38896,6.69226"/><path style="fill:none;fill-rule:evenodd;stroke:#ffb380;stroke-width:3;stroke-linecap:butt;stroke-linejoin:miter;stroke-miterlimit:4;stroke-dasharray:none;stroke-opacity:1" id="path4454" d="m 146.34385,105.23478 c 7.54179,-0.13325 6.49584,13.35136 -0.37881,13.38453 -7.38314,0.0356 -7.25289,-13.24969 0.37881,-13.38453 z"/><path style="fill:none;fill-rule:evenodd;stroke:#ffb380;stroke-width:3;stroke-linecap:butt;stroke-linejoin:miter;stroke-miterlimit:4;stroke-dasharray:none;stroke-opacity:1" id="path4456" d="m 121.5951,117.92483 c 5.68315,-0.25016 4.50159,-12.20956 -0.88388,-11.61675 -4.76974,0.52503 -3.51298,11.81029 0.88388,11.61675 z"/><path style="fill:none;fill-rule:evenodd;stroke:#ffb380;stroke-width:3;stroke-linecap:round;stroke-linejoin:round;stroke-miterlimit:4;stroke-dasharray:none;stroke-opacity:1" id="path4458" d="m 118.75405,116.72527 -1.76777,3.03047"/><path style="fill:none;fill-rule:evenodd;stroke:#ffb380;stroke-width:3;stroke-linecap:round;stroke-linejoin:round;stroke-miterlimit:4;stroke-dasharray:none;stroke-opacity:1" id="path4460" d="m 124.8781,116.47274 2.33598,2.46225"/><path style="fill:none;fill-rule:evenodd;stroke:#ffb380;stroke-width:3;stroke-linecap:round;stroke-linejoin:miter;stroke-miterlimit:4;stroke-dasharray:none;stroke-opacity:1" id="path4462" d="m 118.18584,108.13898 -2.20971,-2.46225"/><path style="fill:none;fill-rule:evenodd;stroke:#ffb380;stroke-width:3;stroke-linecap:round;stroke-linejoin:miter;stroke-miterlimit:4;stroke-dasharray:none;stroke-opacity:1" id="path4464" d="m 124.24675,108.01271 1.76777,-2.52538"/><path style="fill:#ffe680;fill-rule:evenodd;stroke:#000;stroke-width:1px;stroke-linecap:butt;stroke-linejoin:miter;stroke-opacity:1" id="path4466" d="m 37.123106,71.268353 -1.373641,3.915656 c 4.665977,8.279658 11.357842,14.946899 39.15873,11.407544 L 73.993674,83.768991 C 57.722366,85.50515 43.696368,83.912056 37.123106,71.268353 Z"/><path style="fill:#ffe680;fill-rule:evenodd;stroke:#000;stroke-width:1px;stroke-linecap:butt;stroke-linejoin:miter;stroke-opacity:1" id="path4468" d="m 189.60046,86.982143 -0.11188,3.729264 c 7.97493,-5.927297 26.02854,-1.803915 36.67213,-8.639979 l -0.89285,-4.285714 c -9.21168,7.341314 -25.46164,2.361451 -35.6674,9.196429 z"/><path style="fill:none;fill-rule:evenodd;stroke:#ffb380;stroke-width:3;stroke-linecap:round;stroke-linejoin:round;stroke-miterlimit:4;stroke-dasharray:none;stroke-opacity:1" id="path4347" d="m 85.296614,85.789296 c 8.634643,-4.672637 18.163226,6.637652 4.883793,16.689184 z"/><path style="fill:none;fill-rule:evenodd;stroke:#ffb380;stroke-width:3.62464118;stroke-linecap:round;stroke-linejoin:round;stroke-miterlimit:4;stroke-dasharray:none;stroke-opacity:1" id="path4431-7" d="m 102.5068,98.215856 5.71918,-15.155055 6.77271,12.680765"/><path style="fill:none;fill-rule:evenodd;stroke:#ffb380;stroke-width:3.62464118;stroke-linecap:round;stroke-linejoin:round;stroke-miterlimit:4;stroke-dasharray:none;stroke-opacity:1" id="path4433-2" d="m 114.99868,92.571368 -13.31965,3.556816"/><path style="fill:none;fill-rule:evenodd;stroke:#ffb380;stroke-width:3;stroke-linecap:round;stroke-linejoin:round;stroke-miterlimit:4;stroke-dasharray:none;stroke-opacity:1" id="path4347-2" d="m 122.03906,82.433901 c 8.56896,-7.597572 25.67428,14.348962 -0.32429,14.59663 z"/><path style="fill:none;fill-rule:evenodd;stroke:#ffb380;stroke-width:3;stroke-linecap:round;stroke-linejoin:round;stroke-miterlimit:4;stroke-dasharray:none;stroke-opacity:1" id="path4347-2-6" d="m 141.04253,83.066484 c 8.56896,-7.597572 25.67428,14.348962 -0.32429,14.59663 z"/></g></svg>