<svg xmlns="http://www.w3.org/2000/svg" xmlns:svg="http://www.w3.org/2000/svg" xmlns:xlink="http://www.w3.org/1999/xlink" id="svg4311" width="100%" height="100%" version="1.1" viewBox="0 0 64 64"><defs id="defs4313"><linearGradient id="gamblingDenGradient"><stop style="stop-color:#f55;stop-opacity:1" id="stop4184" offset="0"/><stop style="stop-color:#ff8080;stop-opacity:1" id="stop4186" offset="1"/></linearGradient><linearGradient id="linearGradient15" x1="29.5" x2="44.125" y1="1025.487" y2="1003.362" gradientTransform="matrix(1.2884366,0,0,1.290513,-9.2250812,-296.31254)" gradientUnits="userSpaceOnUse" xlink:href="#gamblingDenGradient"/></defs><metadata id="metadata4316"/><g id="layer1" transform="translate(0,-988.36216)" style="display:inline"><ellipse id="ellipse4146" cx="32" cy="1020.368" rx="30.383" ry="30.381" style="display:inline;fill:url(#linearGradient15);fill-opacity:1;fill-rule:evenodd;stroke:none;stroke-width:5.4000001;stroke-linecap:butt;stroke-linejoin:miter;stroke-miterlimit:4;stroke-dasharray:none;stroke-opacity:1"/><path style="fill:#fff;fill-rule:evenodd;stroke:#fff;stroke-width:1px;stroke-linecap:butt;stroke-linejoin:round;stroke-opacity:1" id="path4353" d="m 30.931912,1017.1746 -12.8125,6.7813 5.054917,13.5801 13.075445,-7.8125 z m -1.322266,1.8164 c 1.153858,2e-4 2.088878,0.923 2.087891,2.0606 -1.08e-4,1.1368 -0.934807,2.0584 -2.087891,2.0586 -1.153083,-2e-4 -2.087782,-0.9218 -2.08789,-2.0586 -9.87e-4,-1.1376 0.934033,-2.0604 2.08789,-2.0606 z m 1.8125,4.1114 c 1.153084,10e-5 2.087784,0.9217 2.087891,2.0586 -1.07e-4,1.1368 -0.934807,2.0584 -2.087891,2.0585 -1.153084,-10e-5 -2.087783,-0.9217 -2.08789,-2.0585 1.07e-4,-1.1369 0.934806,-2.0585 2.08789,-2.0586 z m -9.236328,0.1093 c 1.153084,2e-4 2.087784,0.9218 2.087891,2.0586 9.87e-4,1.1376 -0.934033,2.0604 -2.087891,2.0606 -1.153858,-2e-4 -2.088878,-0.923 -2.087891,-2.0606 1.07e-4,-1.1368 0.934807,-2.0584 2.087891,-2.0586 z m 11.048828,3.7793 c 1.153084,2e-4 2.087784,0.9218 2.087891,2.0586 -1.08e-4,1.1369 -0.934807,2.0584 -2.087891,2.0586 -1.153083,-2e-4 -2.087782,-0.9217 -2.08789,-2.0586 1.07e-4,-1.1368 0.934806,-2.0584 2.08789,-2.0586 z m -9.236328,0.3321 c 1.153084,10e-5 2.087784,0.9217 2.087891,2.0586 -1.07e-4,1.1368 -0.934807,2.0584 -2.087891,2.0585 -1.153847,9e-4 -2.089737,-0.921 -2.089844,-2.0585 1.07e-4,-1.1376 0.935997,-2.0595 2.089844,-2.0586 z m 1.810547,3.8886 c 1.153084,2e-4 2.087784,0.9218 2.087891,2.0586 -1.08e-4,1.1369 -0.934807,2.0585 -2.087891,2.0586 -1.153084,-10e-5 -2.087783,-0.9217 -2.087891,-2.0586 1.07e-4,-1.1368 0.934807,-2.0584 2.087891,-2.0586 z"/><path style="fill:#fff;fill-rule:evenodd;stroke:#fff;stroke-width:1px;stroke-linecap:butt;stroke-linejoin:round;stroke-opacity:1" id="path4355" d="m 10.494412,1021.3309 4.4375,12.1875 6.581456,4.4785 -5.081456,-13.791 z m 2.203125,2.0586 c 0.46758,0.042 1.053798,0.7088 1.445312,1.6445 0.493342,1.1787 0.516093,2.3836 0.05078,2.6895 -0.463826,0.3059 -1.238143,-0.3986 -1.730468,-1.5743 -0.493093,-1.1774 -0.516708,-2.3818 -0.05274,-2.6894 0.05573,-0.037 0.117235,-0.06 0.183594,-0.068 0.03338,-0 0.06792,-0 0.103516,-0 z m 2.341797,0.9179 0.002,0 c 0.46737,0.044 1.052476,0.7102 1.443359,1.6446 0.492245,1.1764 0.515847,2.3792 0.05273,2.6875 -0.463682,0.3085 -1.239516,-0.3965 -1.732421,-1.5743 -0.492245,-1.1764 -0.515847,-2.3792 -0.05273,-2.6875 0.08386,-0.056 0.180637,-0.08 0.28711,-0.07 z m -0.212891,5.3594 c 0.475782,-0.058 1.122606,0.6289 1.546875,1.6426 0.493093,1.1774 0.516707,2.3818 0.05273,2.6894 -0.463682,0.3086 -1.239517,-0.3964 -1.732422,-1.5742 -0.493342,-1.1787 -0.516093,-2.3836 -0.05078,-2.6894 0.05573,-0.037 0.117235,-0.06 0.183594,-0.068 z m 2.601563,1.291 c 0.46737,0.044 1.052476,0.7102 1.443359,1.6446 0.493093,1.1774 0.516707,2.3817 0.05273,2.6894 -0.463682,0.3086 -1.239517,-0.3964 -1.732422,-1.5742 -0.493093,-1.1775 -0.516707,-2.3818 -0.05273,-2.6895 0.05629,-0.037 0.118451,-0.06 0.185547,-0.068 0.03338,-0 0.06792,-0.01 0.103516,-0 z"/><path style="fill:#fff;fill-rule:evenodd;stroke:#fff;stroke-width:1px;stroke-linecap:butt;stroke-linejoin:round;stroke-opacity:1" id="path4357" d="m 23.056912,1012.9558 -12.25,6.5 6.1875,3.1875 12.5,-6.875 -6.4375,-2.8125 z m 0.509765,0.4141 a 1.0299648,2.4244697 66.29819 0 1 0.863282,0.293 1.0299648,2.4244697 66.29819 0 1 -1.533203,1.9043 1.0299648,2.4244697 66.29819 0 1 -2.800782,0.2226 1.0299648,2.4244697 66.29819 0 1 1.533203,-1.9043 1.0299648,2.4244697 66.29819 0 1 1.9375,-0.5156 z m 3.027344,1.6348 a 1.0299648,2.4244697 66.29819 0 1 0.863281,0.2929 1.0299648,2.4244697 66.29819 0 1 -1.533203,1.9043 1.0299648,2.4244697 66.29819 0 1 -2.800781,0.2227 1.0299648,2.4244697 66.29819 0 1 1.533203,-1.9043 1.0299648,2.4244697 66.29819 0 1 1.9375,-0.5156 z m -5.148437,1.2168 a 1.0299648,2.4244697 66.29819 0 1 0.863281,0.291 1.0299648,2.4244697 66.29819 0 1 -1.533203,1.9062 1.0299648,2.4244697 66.29819 0 1 -2.800782,0.2227 1.0299648,2.4244697 66.29819 0 1 1.533204,-1.9063 1.0299648,2.4244697 66.29819 0 1 1.9375,-0.5136 z m -4.707032,1.1035 a 1.0299648,2.4244697 66.29819 0 1 0.863282,0.2929 1.0299648,2.4244697 66.29819 0 1 -1.533204,1.9043 1.0299648,2.4244697 66.29819 0 1 -2.800781,0.2227 1.0299648,2.4244697 66.29819 0 1 1.533203,-1.9043 1.0299648,2.4244697 66.29819 0 1 1.9375,-0.5156 z m 2.873047,1.6582 a 1.0299648,2.4244697 66.29819 0 1 0.863281,0.291 1.0299648,2.4244697 66.29819 0 1 -1.533203,1.9062 1.0299648,2.4244697 66.29819 0 1 -2.800781,0.2227 1.0299648,2.4244697 66.29819 0 1 1.533203,-1.9063 1.0299648,2.4244697 66.29819 0 1 1.9375,-0.5136 z"/><path style="fill:#fff;fill-rule:evenodd;stroke:#fff;stroke-width:1px;stroke-linecap:butt;stroke-linejoin:round;stroke-opacity:1" id="path4555" d="m 34.514976,1003.4391 -4.045955,10.0383 2.089844,1.1523 2.486328,5.957 c 0,0 5.082989,2.828 5.259766,2.916 l 4.552734,-14.6269 z m 1.370137,1.9331 c 1.268932,10e-5 2.297413,1.0146 2.296874,2.2656 -5.56e-4,1.2503 -1.028716,2.2636 -2.296874,2.2637 -1.268159,-1e-4 -2.29632,-1.0134 -2.296876,-2.2637 -5.39e-4,-1.251 1.027942,-2.2655 2.296876,-2.2656 z m 1.459176,5.9677 c 1.268159,1e-4 2.296319,1.0134 2.296875,2.2637 5.38e-4,1.2511 -1.027942,2.2656 -2.296875,2.2656 -1.268933,0 -2.297414,-1.0145 -2.296875,-2.2656 5.55e-4,-1.2503 1.028716,-2.2636 2.296875,-2.2637 z m 1.591529,5.7 c 1.268933,0 2.297414,1.0145 2.296875,2.2656 -5.55e-4,1.2503 -1.028716,2.2636 -2.296875,2.2637 -1.268159,-10e-5 -2.29632,-1.0134 -2.296875,-2.2637 -5.39e-4,-1.2511 1.027942,-2.2656 2.296875,-2.2656 z"/><path style="fill:#fff;fill-rule:evenodd;stroke:#fff;stroke-width:1px;stroke-linecap:butt;stroke-linejoin:round;stroke-opacity:1" id="path4557" d="m 46.580349,1009.493 -4.285845,14.0996 7.358226,-1.2158 4.308671,-12.9052 z m 2.416016,4.1172 c 0.754072,0.052 1.116203,1.1406 0.837891,2.5195 -0.299153,1.483 -1.22687,2.7613 -2.072266,2.8555 -0.844309,0.093 -1.286534,-1.0322 -0.988281,-2.5137 0.298626,-1.4834 1.226503,-2.7628 2.072265,-2.8574 0.05113,-0.01 0.101321,-0.01 0.150391,-0 z"/><path style="fill:#fff;fill-rule:evenodd;stroke:#fff;stroke-width:1px;stroke-linecap:butt;stroke-linejoin:round;stroke-opacity:1" id="path4559" d="m 35.752224,1002.157 10.36489,5.5465 7.976907,0.1117 -10.519531,-5.2597 z m 6.941406,0.6817 c 0.422103,-0.01 0.98884,0.1212 1.548829,0.3594 1.04937,0.4458 1.779515,1.1331 1.630859,1.5351 -0.149265,0.4017 -1.120705,0.3659 -2.169922,-0.08 -1.04937,-0.4458 -1.779515,-1.1331 -1.630859,-1.5351 0.06343,-0.1719 0.283435,-0.2708 0.621093,-0.2793 z m 1.765626,2.2539 0.002,0 c 0.422103,-0.01 0.98884,0.1212 1.548828,0.3594 1.049371,0.4458 1.779517,1.1331 1.630859,1.5351 -0.149265,0.4017 -1.120705,0.3659 -2.169922,-0.08 -1.049371,-0.4458 -1.779517,-1.1331 -1.630859,-1.5351 0.06328,-0.1715 0.282542,-0.2705 0.619141,-0.2793 z"/></g></svg>