<svg xmlns="http://www.w3.org/2000/svg" xmlns:svg="http://www.w3.org/2000/svg" xmlns:xlink="http://www.w3.org/1999/xlink" id="svg4311" width="100%" height="100%" version="1.1" viewBox="0 0 64 64"><defs id="defs4313"><linearGradient id="impFortress5Gradient"><stop style="stop-color:#f55;stop-opacity:1" id="stop4184" offset="0"/><stop style="stop-color:#ff8080;stop-opacity:1" id="stop4186" offset="1"/></linearGradient><linearGradient id="linearGradient15" x1="29.5" x2="44.125" y1="1025.487" y2="1003.362" gradientTransform="matrix(1.2884366,0,0,1.290513,-9.2250812,-296.31254)" gradientUnits="userSpaceOnUse" xlink:href="#impFortress5Gradient"/></defs><metadata id="metadata4316"/><g id="layer1" transform="translate(0,-988.36216)" style="display:inline"><ellipse id="ellipse4146" cx="32" cy="1020.368" rx="30.383" ry="30.381" style="display:inline;fill:url(#linearGradient15);fill-opacity:1;fill-rule:evenodd;stroke:none;stroke-width:5.4000001;stroke-linecap:butt;stroke-linejoin:miter;stroke-miterlimit:4;stroke-dasharray:none;stroke-opacity:1"/><path style="fill:#fff;fill-rule:evenodd;stroke:#fff;stroke-width:1px;stroke-linecap:butt;stroke-linejoin:miter;stroke-opacity:1" id="path4941" d="m 44.539062,17.914062 -5.132812,0.03125 0.07617,3.298829 -4.230469,-0.05469 0,-3.175781 -5.390625,0.03516 0.142578,3.234375 -4.386718,0.101563 -0.04297,-3.34961 -5.166016,0.07227 -0.08789,8.152344 3.96875,-0.04492 L 19.625,53.25 l 25.75,0 -4.335938,-27.037109 3.625,-0.08789 z m -7.866727,35.115729 -7.6875,0.0625 c -0.772815,-12.280914 8.140325,-11.810641 7.6875,-0.0625 z" transform="translate(0,988.36216)"/><path style="fill:#fff;fill-rule:evenodd;stroke:#fff;stroke-width:.82037246px;stroke-linecap:butt;stroke-linejoin:miter;stroke-opacity:1" id="path4943" d="m 32.666582,1006.5091 0,-11.82378 c 0,0 2.354459,-1.48088 3.35694,-1.51799 1.053632,-0.0389 2.656834,1.68889 3.702933,1.7743 1.217401,0.0994 3.386596,-0.64122 3.386596,-0.64122 0,0 -2.276678,1.98514 -3.401395,2.38618 -1.061387,0.37798 -2.480365,-0.97182 -3.539722,-0.575 -0.996549,0.37328 -3.463774,2.3624 -3.463774,2.3624"/></g></svg>