<svg xmlns="http://www.w3.org/2000/svg" xmlns:svg="http://www.w3.org/2000/svg" xmlns:xlink="http://www.w3.org/1999/xlink" id="svg4311" width="100%" height="100%" version="1.1" viewBox="0 0 64 64"><defs id="defs4313"><linearGradient id="impFortress1Gradient"><stop style="stop-color:#f55;stop-opacity:1" id="stop4184" offset="0"/><stop style="stop-color:#ff8080;stop-opacity:1" id="stop4186" offset="1"/></linearGradient><linearGradient id="linearGradient15" x1="29.5" x2="44.125" y1="1025.487" y2="1003.362" gradientTransform="matrix(1.2884366,0,0,1.290513,-9.2250812,-296.31254)" gradientUnits="userSpaceOnUse" xlink:href="#impFortress1Gradient"/></defs><metadata id="metadata4316"/><g id="layer1" transform="translate(0,-988.36216)" style="display:inline"><ellipse id="ellipse4146" cx="32" cy="1020.368" rx="30.383" ry="30.381" style="display:inline;fill:url(#linearGradient15);fill-opacity:1;fill-rule:evenodd;stroke:none;stroke-width:5.4000001;stroke-linecap:butt;stroke-linejoin:miter;stroke-miterlimit:4;stroke-dasharray:none;stroke-opacity:1"/><path style="fill:#fff;fill-rule:evenodd;stroke:#fff;stroke-width:1px;stroke-linecap:butt;stroke-linejoin:miter;stroke-opacity:1" id="path4941" d="m 44.539062,17.914062 -5.132812,0.03125 0.07617,3.298829 -4.230469,-0.05469 0,-3.175781 -5.390625,0.03516 0.142578,3.234375 -4.386718,0.101563 -0.04297,-3.34961 -5.166016,0.07227 -0.08789,8.152344 3.96875,-0.04492 L 19.625,53.25 l 25.75,0 -4.335938,-27.037109 3.625,-0.08789 z m -7.866727,35.115729 -7.6875,0.0625 c -0.772815,-12.280914 8.140325,-11.810641 7.6875,-0.0625 z" transform="translate(0,988.36216)"/><path style="fill:#fff;fill-rule:evenodd;stroke:#fff;stroke-width:1px;stroke-linecap:butt;stroke-linejoin:miter;stroke-opacity:1" id="path4943" d="m 32.874999,1007.4247 0,-11.68754 c 0,0 2.879712,1.03837 4.386602,1.11968 1.583781,0.0855 3.137838,-0.88137 4.710294,-0.67389 1.829951,0.24146 5.090603,2.17921 5.090603,2.17921 0,0 -3.422216,-0.71972 -5.112848,-0.45616 -1.595435,0.24872 -2.872576,1.61117 -4.464961,1.87873 -1.497974,0.25167 -4.54719,-0.29757 -4.54719,-0.29757"/></g></svg>