<svg xmlns="http://www.w3.org/2000/svg" xmlns:svg="http://www.w3.org/2000/svg" xmlns:xlink="http://www.w3.org/1999/xlink" id="svg4311" width="100%" height="100%" version="1.1" viewBox="0 0 64 64"><defs id="defs4313"><linearGradient id="lilinPalaceGradient"><stop style="stop-color:#f55;stop-opacity:1" id="stop4184" offset="0"/><stop style="stop-color:#ff8080;stop-opacity:1" id="stop4186" offset="1"/></linearGradient><linearGradient id="linearGradient15" x1="29.5" x2="44.125" y1="1025.487" y2="1003.362" gradientTransform="matrix(1.2884366,0,0,1.290513,-9.2250812,-296.31254)" gradientUnits="userSpaceOnUse" xlink:href="#lilinPalaceGradient"/></defs><metadata id="metadata4316"/><g id="layer1" transform="translate(0,-988.36216)" style="display:inline"><ellipse id="ellipse4146" cx="32" cy="1020.368" rx="30.383" ry="30.381" style="display:inline;fill:url(#linearGradient15);fill-opacity:1;fill-rule:evenodd;stroke:none;stroke-width:5.4000001;stroke-linecap:butt;stroke-linejoin:miter;stroke-miterlimit:4;stroke-dasharray:none;stroke-opacity:1"/><path style="fill:#fff;fill-rule:evenodd;stroke:none;stroke-width:4;stroke-linecap:butt;stroke-linejoin:miter;stroke-miterlimit:4;stroke-dasharray:none;stroke-opacity:1" id="path4772" d="m 50.334777,1015.9597 -36.423551,-0.01 -0.09217,22.2432 36.612612,-0.1172 z m -15.306657,20.8588 -6.80068,-0.057 c 0.148759,-9.4595 6.389562,-10.5645 6.80068,0.057 z"/><path style="fill:#fff;fill-rule:evenodd;stroke:none;stroke-width:1px;stroke-linecap:butt;stroke-linejoin:miter;stroke-opacity:1" id="path4778" d="M 39.521484 15.34375 L 25.146484 15.40625 L 25.216797 27.90625 L 39.521484 28.03125 L 39.521484 15.34375 z M 32.501953 19.582031 C 33.612011 19.649969 34.688493 21.367519 34.75 24.511719 L 30.050781 24.546875 C 30.248886 21.095925 31.391896 19.514094 32.501953 19.582031 z" transform="translate(0,988.36216)"/><path style="fill:#fff;fill-rule:evenodd;stroke:#fff;stroke-width:1px;stroke-linecap:butt;stroke-linejoin:round;stroke-opacity:1" id="path4780" d="m 23.083946,1004.3622 9.5,-7.06254 9.249999,7.06254 z"/><path style="display:inline;fill:#fff;fill-rule:evenodd;stroke:none;stroke-width:.61341506px;stroke-linecap:butt;stroke-linejoin:miter;stroke-opacity:1" id="path4778-4" d="M 21.023438 20.876953 L 13.90625 20.919922 L 13.941406 29.818359 L 21.023438 29.908203 L 21.023438 20.876953 z M 17.779297 23.333984 C 18.402476 23.379522 19.006486 24.531928 19.041016 26.642578 L 16.402344 26.666016 C 16.513559 24.349216 17.156117 23.288447 17.779297 23.333984 z" transform="translate(0,988.36216)"/><path style="display:inline;fill:#fff;fill-rule:evenodd;stroke:#fff;stroke-width:.61341506px;stroke-linecap:butt;stroke-linejoin:round;stroke-opacity:1" id="path4780-1" d="m 12.732065,1009.8166 5.021506,-5.0276 4.889361,5.0276 z"/><path style="display:inline;fill:#fff;fill-rule:evenodd;stroke:none;stroke-width:.61341506px;stroke-linecap:butt;stroke-linejoin:miter;stroke-opacity:1" id="path4778-4-3" d="M 50.335938 20.988281 L 43.21875 21.03125 L 43.253906 29.929688 L 50.335938 30.019531 L 50.335938 20.988281 z M 46.904297 23.115234 C 47.527476 23.160772 48.131486 24.313178 48.166016 26.423828 L 45.527344 26.447266 C 45.638559 24.130466 46.281117 23.069697 46.904297 23.115234 z" transform="translate(0,988.36216)"/><path style="display:inline;fill:#fff;fill-rule:evenodd;stroke:#fff;stroke-width:.61341506px;stroke-linecap:butt;stroke-linejoin:round;stroke-opacity:1" id="path4780-1-0" d="m 41.732064,1009.9274 5.021506,-5.0276 4.889361,5.0276 z"/></g></svg>