<svg xmlns="http://www.w3.org/2000/svg" xmlns:svg="http://www.w3.org/2000/svg" id="svg4311" width="100%" height="100%" version="1.1" viewBox="0 0 64 64"><metadata id="metadata4316"/><g id="layer1" transform="translate(0,-988.36216)" style="display:inline"><g id="g4210" transform="translate(4.8613594,12.197593)"><path style="fill:#ff8080;fill-opacity:1;fill-rule:evenodd;stroke:#000;stroke-width:.80000001;stroke-linecap:butt;stroke-linejoin:miter;stroke-miterlimit:4;stroke-dasharray:none;stroke-opacity:1" id="path4859-9" d="m 8.2251697,1000.4083 c -0.067803,-8.64035 8.6795263,-12.25147 14.5823763,-8.47589 0.565844,0.36192 3.178571,8.99859 3.178571,8.99859 l -3.887749,9.1306 4.338794,9.9653 -0.319499,-9.8571 4.339002,-9.4597 c 0,0 -1.526043,-8.21032 -1.193293,-8.45474 5.641042,-4.14351 15.295702,-0.45126 15.320088,9.25544 0.02118,8.4295 -12.0739,14.345 -18.053427,24.5626 -6.737208,-10.6539 -18.2361415,-16.9077 -18.3048633,-25.6651 z"/><path style="fill:#fff;fill-rule:evenodd;stroke:none;stroke-width:1.17407393;stroke-linecap:butt;stroke-linejoin:miter;stroke-miterlimit:4;stroke-dasharray:none;stroke-opacity:1" id="path4152-1" d="m 33.679717,993.5024 c 2.423822,-0.77941 5.276325,-0.0569 7.494133,1.94532 1.492571,1.99841 2.247013,4.57428 1.938994,7.30458 -0.21737,-2.7442 -1.495148,-4.89058 -3.101582,-6.23504 -1.47826,-1.97592 -3.825254,-3.27435 -6.331545,-3.01486 z"/></g></g></svg>