<svg xmlns="http://www.w3.org/2000/svg" xmlns:svg="http://www.w3.org/2000/svg" id="svg4311" width="100%" height="100%" version="1.1" viewBox="0 0 64 64"><metadata id="metadata4316"/><g id="layer1" transform="translate(0,-988.36216)" style="display:inline"><g style="font-style:normal;font-weight:400;font-size:40px;line-height:125%;font-family:sans-serif;letter-spacing:0;word-spacing:0;display:inline;fill:#ff8080;fill-opacity:1;stroke:#000;stroke-width:1.36229468;stroke-linecap:butt;stroke-linejoin:miter;stroke-miterlimit:4;stroke-dasharray:none;stroke-opacity:1" id="text4145" transform="matrix(1.6472207,0,0,1.6472207,-23.975159,-614.53492)"><path id="path4150" d="m 43.961977,992.95435 c 0.159128,7.43315 -2.645785,15.24985 -10.058594,15.15625 -8.723815,-0.1101 -9.95748,-9.00166 -10.058593,-15.11719 -0.0832,-7.41064 2.660527,-15.25671 10.058593,-15.15625 8.635469,0.11726 10.038561,9.04949 10.058594,15.11719 z m -5.710208,-0.0759 c 0.01611,-4.74676 -1.04656,-9.97356 -4.196615,-9.88357 -4.126429,0.11788 -4.43638,5.48902 -4.462214,9.99852 -0.02758,4.81335 1.371722,9.74529 4.2725,9.76969 3.198349,0.027 4.371308,-5.45943 4.386329,-9.88464 z" style="fill:#ff8080;fill-opacity:1;stroke:#000;stroke-width:1.36229467;stroke-miterlimit:4;stroke-dasharray:none"/></g></g></svg>