<svg xmlns="http://www.w3.org/2000/svg" xmlns:svg="http://www.w3.org/2000/svg" id="svg4311" width="100%" height="100%" version="1.1" viewBox="0 0 64 64"><metadata id="metadata4316"/><g id="layer3" style="display:inline"><path style="fill:#afe9dd;fill-rule:evenodd;stroke:#000;stroke-width:1px;stroke-linecap:butt;stroke-linejoin:miter;stroke-opacity:1" id="path4574" d="m 5.3947739,57.178618 c -0.90848,-0.01612 -1.7863,-0.609749 -2.1875,-1.9375 0.0133,-2.705798 -0.19993,-4.509061 0.0625,-5.875001 0.22308,-1.161111 2.13726,0.372175 3.5,-1.3125 3.2766701,-4.05075 7.1230301,-7.360901 12.0625001,-9.25 1.74732,-2.202038 3.44353,-4.432937 6.8125,-6.312501 0.29988,-2.918024 1.58452,-5.230041 6.1875,-5.5 3.49141,-3.021702 4.66193,-5.300523 10.6875,-7.125 -0.72917,-1.137629 -1.45833,-2.696808 -2.1875,-4.5 l -7.375,0.6875 c -1.835631,2.032512 -2.249246,1.901469 -3.71875,2.65625 -1.280698,0.657805 -4.199276,-2.727886 -1.71875,-3.75 1.490075,-0.613994 3.224663,-0.722071 5.125,-0.843751 4.70814,-2.128613 7.465223,-2.507778 8.416053,-2.260723 4.223665,1.097437 5.048717,4.043621 7.271447,6.448224 1.52767,-5.533473 9.686924,-4.598456 8.625,1.875 -0.170753,1.040902 -1.655275,3.974818 -4.9375,3.8125 l -0.125,1.875 c 1.18366,0.963269 1.35113,2.129773 1.75,3.25 l 3.125,-3.9375 c 0.60915,-1.66168 0.81805,-3.435385 2.125,-4.5 1.35802,-1.106214 3.9974,0.566486 2.5,2.125 l -3.0625,3.1875 c -1.767642,3.301985 -2.343854,5.159392 -4.25,7.187501 -1.472498,1.566715 -5.59067,-4.397516 -5.6875,-6.250001 -1.09159,2.441605 -5.79001,1.902177 -11.5625,5.0625 5.5812,3.854167 6.67016,7.683544 7.1875,11.562501 0.33836,2.536981 -9.62494,2.45836 -14.4375,3.6875 -1.10833,1.302977 -0.41394,2.78699 -0.375,4.25 0.0651,2.447367 -0.93859,3.022811 -2.5,0.0625 -0.95845,-1.817138 -0.93105,-2.14191 -2.5625,-4.5625 -1.18673,-1.760756 1.00043,-2.452278 2.75,-2.25 2.68376,0.310285 8.33328,-3.895733 10.4375,-3.375 -2.54773,-1.095678 -4.96389,-2.375555 -6.6875,-4.625 -4.44725,3.579121 -8.14298,5.582415 -12.3125,7.1875 -4.10431,2.437429 -6.9975,4.667919 -10.4375001,7.4375 -2.95489,4.05279 -0.97484,5.839556 -2.5,5.812501 z"/><path style="fill:#d7f4ee;fill-rule:evenodd;stroke:#000;stroke-width:1px;stroke-linecap:round;stroke-linejoin:miter;stroke-opacity:1;fill-opacity:1" id="path4580" d="m 3.844117,32.000139 c -0.946017,0.0026 -0.7973159,1.672577 -0.00219,1.672045 L 18.808377,33.66217 c 0.930492,-6.22e-4 0.971016,-1.705623 -0.0075,-1.702946 z"/><path style="display:inline;fill:#d7f4ee;fill-opacity:1;fill-rule:evenodd;stroke:#000;stroke-width:1;stroke-linecap:round;stroke-linejoin:miter;stroke-opacity:1;stroke-miterlimit:4;stroke-dasharray:none" id="path4580-1" d="m 4.2736032,23.025786 c -1.2819891,0.0024 -1.0804777,1.553525 -0.00297,1.553031 l 20.2816918,-0.0093 c 1.26095,-5.77e-4 1.315866,-1.584218 -0.01016,-1.581732 z"/><path style="display:inline;fill:#d7f4ee;fill-opacity:1;fill-rule:evenodd;stroke:#000;stroke-width:1px;stroke-linecap:round;stroke-linejoin:miter;stroke-opacity:1" id="path4580-6" d="m 4.2450879,15.18956 c -0.946017,0.0026 -0.7973159,1.672577 -0.00219,1.672045 l 14.9664501,-0.01001 c 0.930492,-6.22e-4 0.971016,-1.705623 -0.0075,-1.702946 z"/></g></svg>