<svg xmlns="http://www.w3.org/2000/svg" xmlns:svg="http://www.w3.org/2000/svg" id="svg4311" width="100%" height="100%" version="1.1" viewBox="0 0 64 64"><metadata id="metadata4316"/><g id="layer3" style="display:inline"><path style="fill:#333;fill-rule:evenodd;stroke:#000;stroke-width:1px;stroke-linecap:butt;stroke-linejoin:miter;stroke-opacity:1" id="path4593" d="M 63.090978,35.951864 1.001301,35.642505 1.1780777,28.836602 63.182507,29.278544 Z"/><path style="fill:#333;fill-rule:evenodd;stroke:#000;stroke-width:1px;stroke-linecap:butt;stroke-linejoin:miter;stroke-opacity:1" id="path4599" d="m 33.749185,29.853068 c 5.776062,-3.475252 10.841432,-7.661197 17.368312,-10.385631 1.811551,-0.756174 5.35713,21.811095 3.977476,21.478369 C 48.934926,39.460213 41.188538,36.128641 33.925962,33.697961 L 12.801146,44.613923 c -1.890604,0.976944 -1.16378,-14.333644 -1.767767,-21.522564 -0.289643,-3.447449 15.173333,4.301567 22.715806,6.761709 z"/><path style="fill:#4d4d4d;fill-rule:evenodd;stroke:#000;stroke-width:1px;stroke-linecap:butt;stroke-linejoin:miter;stroke-opacity:1" id="path4597" d="m 31.230117,29.234349 c -5.521596,-3.591565 -10.488156,-7.569482 -18.296388,-9.059806 -1.292741,-0.24674 -3.0743514,22.60259 -1.767768,22.804195 9.662184,1.490866 15.678273,-7.45419 22.097089,-7.866563 5.724128,3.281744 9.954922,7.781576 19.445437,7.292039 1.822904,-0.09403 1.09156,-22.075336 0.04419,-22.0087 -13.09134,0.832895 -13.164998,6.799523 -18.826719,10.562408 z"/><path style="fill:#000;fill-rule:evenodd;stroke:none;stroke-width:1px;stroke-linecap:butt;stroke-linejoin:miter;stroke-opacity:1" id="path4601" d="m 30.085755,31.916352 c -4.394756,0.126034 -8.94647,-0.131154 -13.307133,0.765143 4.38686,-0.562728 8.877522,0.02726 13.297761,0.234813 z"/><path style="fill:#000;fill-rule:evenodd;stroke:none;stroke-width:1px;stroke-linecap:butt;stroke-linejoin:miter;stroke-opacity:1" id="path4605" d="m 37.620542,33.565873 c 2.923644,-0.858111 5.588492,-2.64124 8.193654,-3.97797 -2.844551,1.078398 -5.514369,2.492803 -8.423358,3.00471 z"/><path style="fill:#000;fill-rule:evenodd;stroke:none;stroke-width:1px;stroke-linecap:butt;stroke-linejoin:miter;stroke-opacity:1" id="path4609" d="m 37.78695,34.020926 c 3.572254,-0.281739 6.279114,1.458732 8.734352,4.008065 -2.142458,-2.698368 -4.805184,-4.968058 -8.76654,-5.007547 z"/><path style="fill:gray;fill-rule:evenodd;stroke:#000;stroke-width:1px;stroke-linecap:butt;stroke-linejoin:miter;stroke-opacity:1" id="path4595" d="m 30.788176,27.996913 c -0.473518,2.569582 -0.456824,5.195371 -1.281631,7.999145 2.248239,0.606963 4.49048,1.237115 6.982679,0.928078 1.003301,-2.795031 1.174469,-4.833579 0.883884,-6.45235 -1.090582,-1.311831 -3.726981,-2.105639 -6.584932,-2.474873 z"/></g></svg>