<svg xmlns="http://www.w3.org/2000/svg" xmlns:svg="http://www.w3.org/2000/svg" id="svg4311" width="100%" height="100%" version="1.1" viewBox="0 0 64 64"><metadata id="metadata4316"/><g id="layer1" transform="translate(0,-988.36216)" style="display:inline"><circle style="display:inline;opacity:1;fill:#1a1a1a;fill-opacity:1;stroke:#000;stroke-width:1;stroke-linecap:round;stroke-linejoin:round;stroke-miterlimit:4;stroke-dasharray:none;stroke-dashoffset:0;stroke-opacity:1" id="path4167-8" cx="25.494" cy="1045.512" r="1.368"/><circle style="opacity:1;fill:#1a1a1a;fill-opacity:1;stroke:#000;stroke-width:1;stroke-linecap:round;stroke-linejoin:round;stroke-miterlimit:4;stroke-dasharray:none;stroke-dashoffset:0;stroke-opacity:1" id="path4167" cx="10.092" cy="1045.49" r="1.368"/><ellipse style="opacity:1;fill:gray;fill-opacity:1;stroke:#000;stroke-width:1;stroke-linecap:round;stroke-linejoin:round;stroke-miterlimit:4;stroke-dasharray:none;stroke-dashoffset:0;stroke-opacity:1" id="path4190" cx="19.169" cy="1000.494" rx="5.089" ry="4.683"/><path style="fill:#4d4d4d;fill-rule:evenodd;stroke:#000;stroke-width:1px;stroke-linecap:butt;stroke-linejoin:miter;stroke-opacity:1;fill-opacity:1" id="path4158" d="m 16.617009,1035.701 -0.0221,4.0879 c -2.785091,-0.04 -4.855765,1.2701 -6.8280001,2.5854 -2.8352195,1.8908 -1.7709924,3.4927 -0.1325825,2.519 2.1639136,-1.286 4.6762196,-2.5842 7.2036506,-2.5632 l 2.65165,0.022 c 2.524764,0.021 4.726335,1.5798 6.67332,2.7621 1.744094,1.0591 2.655293,-1.2064 -0.08839,-2.7842 -1.99251,-1.1458 -4.15872,-2.0401 -6.36396,-2.4307 l 0,-4.1101 z"/><path style="fill:gray;fill-rule:evenodd;stroke:#000;stroke-width:1px;stroke-linecap:butt;stroke-linejoin:miter;stroke-opacity:1;fill-opacity:1" id="path4160" d="m 13.499999,1011.8622 0.125,14.125 c 0.02608,2.9473 2.210695,5.3876 5.1875,5.4375 l 11.1875,0.1875 0,11.3125 c 0,4.1266 5.954549,4.0294 5.937499,0.125 l -0.0625,-14.3125 c -0.0063,-1.4489 -0.495529,-3.3263 -2.625,-3.3125 l -9.562499,0.062 -0.1875,-9.25 2.5625,1.375 9.562499,0.125 c 3.600564,0.047 3.750863,-5.6567 -0.125,-5.6875 l -7.812499,-0.062 c -1.616916,-0.3324 -6.899622,-4.7396 -9.0625,-4.75 -2.076896,-0.01 -5.146405,2.2062 -5.125,4.625 z"/><path style="fill:#4d4d4d;fill-rule:evenodd;stroke:#000;stroke-width:1px;stroke-linecap:butt;stroke-linejoin:miter;stroke-opacity:1" id="path4156" d="m 7.3804267,1010.9964 0.088388,22.8042 c 0.00583,1.5036 0.4193105,3.1709 2.4748736,3.182 l 16.2634557,0.088 c 2.295594,0.012 2.680261,-4.0134 0.132582,-4.0217 l -13.56761,-0.044 c -1.035339,-0 -1.283358,-0.931 -1.281631,-1.7236 l 0.04419,-20.2851 c 0.0064,-2.9195 -4.1689369,-3.7895 -4.1542483,2e-4 z"/><path style="fill:#4d4d4d;fill-rule:evenodd;stroke:#000;stroke-width:1px;stroke-linecap:butt;stroke-linejoin:miter;stroke-opacity:1;fill-opacity:1" id="path4162" d="m 31.201085,1019.9678 c -1.556995,0.019 -1.66605,2.8666 0,2.8727 l 12.065009,0.044 0.132583,22.7158 c 0.007,1.1994 0.106357,1.9496 1.458407,1.9446 l 11.799844,-0.044 c 1.193722,0 1.594631,-0.4463 1.59099,-1.4584 l -0.08839,-24.572 c -0.0032,-0.8921 -0.561305,-1.8222 -1.414214,-1.8119 z"/><path style="fill:#666;fill-rule:evenodd;stroke:#000;stroke-width:1px;stroke-linecap:butt;stroke-linejoin:miter;stroke-opacity:1;fill-opacity:1" id="path4164" d="m 46.468748,1017.2997 c -1.238413,0 -1.041721,1.8437 0.03125,1.8437 l 5.156249,0 -0.03125,-13.875 -3.1875,-3.4062 1.125,-4.87504 c 0.327716,-1.42011 -2.61105,-2.23902 -2.90625,-0.84375 l -3.65625,17.28129 c -0.339686,1.6055 2.541447,2.2534 2.875,0.7812 l 0.90625,-4 2.8125,-0.75 -0.0625,7.8437 z"/></g></svg>