<svg xmlns="http://www.w3.org/2000/svg" xmlns:svg="http://www.w3.org/2000/svg" xmlns:xlink="http://www.w3.org/1999/xlink" id="svg4311" width="100%" height="100%" version="1.1" viewBox="0 0 64 64"><metadata id="metadata4316"/><g id="layer3" style="display:inline"><path style="fill:#333;fill-rule:evenodd;stroke:#000;stroke-width:1px;stroke-linecap:butt;stroke-linejoin:miter;stroke-opacity:1" id="path4164" d="m 13.411319,32.058874 0,8.662058 c 0,12.660179 36.884357,12.544904 36.681167,0.353554 l -0.17678,-10.606603 z"/><path style="fill:#4d4d4d;fill-rule:evenodd;stroke:#000;stroke-width:1px;stroke-linecap:butt;stroke-linejoin:miter;stroke-opacity:1" id="path4166" d="M 2.848911,28.744311 31.663516,15.441864 60.787476,28.744311 31.707706,41.958369 Z"/><path style="fill:#d4aa00;fill-rule:evenodd;stroke:#000;stroke-width:1px;stroke-linecap:butt;stroke-linejoin:miter;stroke-opacity:1" id="path4168" d="m 31.486736,27.904621 -15.18449,6.798321 c 0.03991,1.710517 0.03361,2.181922 0.02589,5.045718 -1.697787,0.08917 -1.597068,7.571215 -1.546796,14.186331 0.02396,3.15253 4.868752,2.550401 4.861359,0.176777 -0.02035,-6.533746 0.253573,-14.293748 -1.458408,-14.347023 0.01547,-1.95851 0.03094,-2.712743 0.04641,-4.006505 l 14.481435,-6.928682 c 1.11283,-0.532437 0.16635,-1.548045 -1.2254,-0.924937 z"/><path style="fill:#000;fill-rule:evenodd;stroke:none;stroke-width:1px;stroke-linecap:butt;stroke-linejoin:miter;stroke-opacity:1" id="path4170" d="m 16.406251,55.78125 c -0.166667,-3.572917 -0.333333,-7.145833 -0.5,-10.71875 -0.166667,3.572917 -0.333333,7.145833 -0.5,10.71875 z"/><path style="display:inline;fill:#000;fill-rule:evenodd;stroke:none;stroke-width:1px;stroke-linecap:butt;stroke-linejoin:miter;stroke-opacity:1" id="path4170-1" d="m 17.750001,55.890625 c -0.166667,-3.572917 -0.333333,-7.145833 -0.5,-10.71875 -0.166667,3.572917 -0.333333,7.145833 -0.5,10.71875 z"/><path style="display:inline;fill:#000;fill-rule:evenodd;stroke:none;stroke-width:1px;stroke-linecap:butt;stroke-linejoin:miter;stroke-opacity:1" id="path4170-9" d="m 19.093751,55.640625 c -0.166667,-3.572917 -0.333333,-7.145833 -0.5,-10.71875 -0.166667,3.572917 -0.333333,7.145833 -0.5,10.71875 z"/><ellipse style="opacity:1;fill:#806600;fill-opacity:1;stroke:#000;stroke-width:.77589083;stroke-linecap:round;stroke-linejoin:round;stroke-miterlimit:4;stroke-dasharray:none;stroke-dashoffset:0;stroke-opacity:1" id="path4212" cx="32.25" cy="28.188" rx="1.706" ry="1.112"/></g></svg>