<svg xmlns="http://www.w3.org/2000/svg" xmlns:svg="http://www.w3.org/2000/svg" id="svg4311" width="100%" height="100%" version="1.1" viewBox="0 0 64 64"><metadata id="metadata4316"/><g id="layer3" style="display:inline"><path style="fill:#373e48;fill-rule:evenodd;stroke:#000;stroke-width:1px;stroke-linecap:butt;stroke-linejoin:miter;stroke-opacity:1" id="path4285" d="M 10.53015,4.3619117 10.35337,36.800437 61.61861,36.535272 61.53021,4.4502997 Z"/><path style="fill:none;fill-rule:evenodd;stroke:#e6e6e6;stroke-width:3;stroke-linecap:round;stroke-linejoin:miter;stroke-miterlimit:4;stroke-dasharray:none;stroke-opacity:1" id="path4283" d="m 46.797286,38.071437 c 0.44194,-0.618718 3.09359,-6.45235 3.09359,-6.45235"/><path style="fill:#6f7c91;fill-rule:evenodd;stroke:#000;stroke-width:1px;stroke-linecap:butt;stroke-linejoin:miter;stroke-opacity:1" id="path4279" d="m 28.744611,60.787244 0.0884,-8.573671 c 7.63072,-2.512586 14.10677,-5.858797 19.88738,-10.253048 3.01527,-2.292124 -1.15426,-8.381388 -4.86136,-6.187185 -4.29904,2.544567 -9.37829,7.091363 -26.251339,6.894291 -5.85318,-0.06836 -12.8953502,1.458052 -12.9930902,10.253049 l -0.0884,7.954952 z"/><ellipse style="opacity:1;fill:#6f7c91;fill-opacity:1;stroke:#000;stroke-width:1;stroke-linecap:round;stroke-linejoin:round;stroke-miterlimit:4;stroke-dasharray:none;stroke-dashoffset:0;stroke-opacity:1" id="path4281" cx="17.97" cy="32.73" rx="8.043" ry="7.734"/><path style="fill:none;fill-rule:evenodd;stroke:#e6e6e6;stroke-width:2;stroke-linecap:round;stroke-linejoin:round;stroke-opacity:1;stroke-miterlimit:4;stroke-dasharray:none" id="path4291" d="m 22.780536,9.3487369 c -4.880629,4.3157741 -4.260487,10.0902721 -0.786973,9.8194091 2.788799,-0.217468 4.227219,-3.746148 2.289375,-4.816363 -1.302631,-0.719407 -4.157288,1.340412 -3.934863,5.301733"/><path style="fill:none;fill-rule:evenodd;stroke:#e6e6e6;stroke-width:2;stroke-linecap:round;stroke-linejoin:miter;stroke-opacity:1;stroke-miterlimit:4;stroke-dasharray:none" id="path4293" d="m 27.466601,15.210514 5.258408,-0.224017"/><path style="fill:none;fill-rule:evenodd;stroke:#e6e6e6;stroke-width:2;stroke-linecap:round;stroke-linejoin:miter;stroke-opacity:1;stroke-miterlimit:4;stroke-dasharray:none" id="path4295" d="m 30.077919,11.439561 -0.107314,6.869854"/><path style="display:inline;fill:none;fill-rule:evenodd;stroke:#e6e6e6;stroke-width:2;stroke-linecap:round;stroke-linejoin:round;stroke-opacity:1;stroke-miterlimit:4;stroke-dasharray:none" id="path4291-7" d="m 39.384421,19.297073 c 0.606685,-3.470705 1.674807,-9.7471881 0.399593,-10.1356781 -2.684555,-0.817838 -4.952108,4.1355471 -3.309388,5.6509811 1.104247,1.018683 3.84184,-0.806214 4.517271,-4.711208"/><path style="display:inline;fill:none;fill-rule:evenodd;stroke:#e6e6e6;stroke-width:2;stroke-linecap:round;stroke-linejoin:miter;stroke-opacity:1;stroke-miterlimit:4;stroke-dasharray:none" id="path4293-6" d="m 43.867829,11.962268 5.258408,-0.224017"/><path style="display:inline;fill:none;fill-rule:evenodd;stroke:#e6e6e6;stroke-width:2;stroke-linecap:round;stroke-linejoin:miter;stroke-opacity:1;stroke-miterlimit:4;stroke-dasharray:none" id="path4293-0" d="m 43.581657,16.666624 5.258408,-0.224017"/><path style="fill:none;fill-rule:evenodd;stroke:#e6e6e6;stroke-width:2;stroke-linecap:round;stroke-linejoin:miter;stroke-opacity:1;stroke-miterlimit:4;stroke-dasharray:none" id="path4333" d="m 52.470871,9.2367279 c 2.426351,-5.7610485 7.286997,3.3501431 0.679659,4.6670211 l -0.500801,2.202833"/><path style="fill:none;fill-rule:evenodd;stroke:#e6e6e6;stroke-width:2;stroke-linecap:round;stroke-linejoin:miter;stroke-opacity:1;stroke-miterlimit:4;stroke-dasharray:none" id="path4335" d="M 52.363557,19.168146 51.970071,20.10155"/></g></svg>