<svg xmlns="http://www.w3.org/2000/svg" xmlns:svg="http://www.w3.org/2000/svg" xmlns:xlink="http://www.w3.org/1999/xlink" id="svg4311" width="100%" height="100%" version="1.1" viewBox="0 0 64 64"><defs id="defs4313"><linearGradient id="angelWings0"><stop style="stop-color:#d5f6ff;stop-opacity:1" id="stop4165" offset="0"/><stop style="stop-color:#aef;stop-opacity:1" id="stop4167" offset="1"/></linearGradient><linearGradient id="linearGradient4169-3" x1="-101.611" x2="-97.934" y1="1012.627" y2="1010.93" gradientTransform="matrix(1.4774554,0,0,1.4774554,164.87381,-468.24663)" gradientUnits="userSpaceOnUse" xlink:href="#angelWings0"/><linearGradient id="linearGradient4237" x1="-101.611" x2="-97.934" y1="1012.627" y2="1010.93" gradientTransform="matrix(-1.4774554,0,0,1.4774554,-100.64666,-468.28248)" gradientUnits="userSpaceOnUse" xlink:href="#angelWings0"/></defs><metadata id="metadata4316"/><g id="layer1" transform="translate(0,-988.36216)" style="display:inline"><path style="display:inline;fill:url(#linearGradient4169-3);fill-opacity:1;fill-rule:evenodd;stroke:#000;stroke-width:.5;stroke-linecap:butt;stroke-linejoin:miter;stroke-miterlimit:4;stroke-dasharray:none;stroke-opacity:1" id="path4161-8" d="m 31.486798,1030.5787 c 0.971162,0.078 -2.734665,6.7218 -5.021778,7.7816 -0.540716,0.2506 -0.338629,-0.9311 -0.244987,-3.3391 -1.76462,2.5048 -3.697438,4.6128 -5.160522,4.9933 -0.868653,0.2259 -0.07953,-3.1788 0.230749,-4.6995 -1.600839,1.6909 -4.452431,3.114 -6.429695,2.886 -0.970437,-0.1123 2.791812,-2.8361 3.360827,-4.9102 -2.057549,1.4562 -6.173577,1.9432 -8.021578,1.1454 -1.087437,-0.4694 2.849465,-1.572 4.365083,-3.0389 -3.871259,0.203 -6.8980919,-1.991 -7.7871064,-3.0181 -0.9187261,-1.0614 2.6624042,-0.8113 5.5670664,-2.0096 -3.4717539,-0.197 -6.3233315,-1.156 -8.7613988,-4.8233 -0.7847357,-1.1804 4.2061973,0.8878 7.2596248,-0.7268 -6.0599754,-1.5596 -8.9882477,-6.2298 -8.6701811,-7.0668 0.3301227,-0.8686 2.2507113,1.2764 7.2989843,1.8433 -7.2572905,-3.2264 -8.73224897,-11.4155 -6.4083889,-13.8541 0.7781757,-0.8166 3.6066164,9.9836 12.4481677,9.2834 7.243089,-0.5735 6.390083,2.2131 5.45212,4.8319 -4.250063,11.8659 4.642464,14.2515 10.523013,14.7215 z"/><path id="path4235" d="m 32.740362,1030.5428 c -0.971161,0.078 2.734667,6.7218 5.021783,7.7816 0.540719,0.2506 0.338618,-0.9311 0.244976,-3.3391 1.764629,2.5048 3.697451,4.6128 5.160531,4.9933 0.868655,0.2259 0.07949,-3.1788 -0.230749,-4.6995 1.600837,1.6909 4.45243,3.114 6.429692,2.886 0.970437,-0.1123 -2.791813,-2.8361 -3.360825,-4.9102 2.057547,1.4562 6.173575,1.9432 8.021576,1.1454 1.087437,-0.4694 -2.849465,-1.572 -4.365083,-3.0389 3.871258,0.203 6.898092,-1.991 7.787106,-3.0181 0.918726,-1.0614 -2.662404,-0.8113 -5.567066,-2.0096 3.471754,-0.197 6.323331,-1.156 8.761399,-4.8233 0.784735,-1.1804 -4.206198,0.8878 -7.259625,-0.7268 6.059975,-1.5596 8.988248,-6.2298 8.670181,-7.0668 -0.330123,-0.8686 -2.250711,1.2764 -7.298984,1.8433 7.25729,-3.2264 8.732249,-11.4153 6.408389,-13.854 -0.778176,-0.8167 -3.606617,9.9835 -12.448168,9.2833 -7.243091,-0.5735 -6.390082,2.2131 -5.452119,4.8319 4.250061,11.8659 -4.64246,14.2515 -10.523014,14.7215 z" style="display:inline;fill:url(#linearGradient4237);fill-opacity:1;fill-rule:evenodd;stroke:#000;stroke-width:.5;stroke-linecap:butt;stroke-linejoin:miter;stroke-miterlimit:4;stroke-dasharray:none;stroke-opacity:1"/><path style="opacity:1;fill:#ffd42a;fill-opacity:1;stroke:#000;stroke-width:.25;stroke-linecap:round;stroke-linejoin:miter;stroke-miterlimit:4;stroke-dasharray:none;stroke-dashoffset:0;stroke-opacity:1" id="path4239" d="m 32.214202,1016.106 a 7.4506458,3.4338133 0 0 0 -7.450762,3.4339 7.4506458,3.4338133 0 0 0 7.450762,3.4339 7.4506458,3.4338133 0 0 0 7.450762,-3.4339 7.4506458,3.4338133 0 0 0 -7.450762,-3.4339 z m -0.01152,1.0849 a 6.5067731,2.6483539 0 0 1 6.507152,2.649 6.5067731,2.6483539 0 0 1 -6.507152,2.6491 6.5067731,2.6483539 0 0 1 -6.507151,-2.6491 6.5067731,2.6483539 0 0 1 6.507151,-2.649 z"/><path style="fill:#fff;fill-rule:evenodd;stroke:none;stroke-width:1px;stroke-linecap:butt;stroke-linejoin:miter;stroke-opacity:1" id="path4256" d="m 39.266526,1019.0729 c -0.266839,-0.5619 -0.722066,-1.0475 -1.304939,-1.4617 -0.539172,-0.2974 -1.152492,-0.5281 -1.792365,-0.7063 -1.37407,-0.3828 -2.898004,-0.5311 -4.128444,-0.561 1.230387,0.1107 2.729015,0.3393 4.056916,0.7922 0.617443,0.2107 1.192471,0.468 1.683337,0.7805 0.600142,0.287 1.121206,0.6619 1.485495,1.1563 z"/><path style="opacity:1;fill:#f9f9f9;fill-opacity:1;stroke:gray;stroke-width:.03384197;stroke-linecap:round;stroke-linejoin:miter;stroke-miterlimit:4;stroke-dasharray:none;stroke-dashoffset:0;stroke-opacity:1" id="path4244" d="m 29.621148,1023.4593 -0.968603,1.2715 1.598353,0.014 -1.584003,0.2142 1.119981,1.1405 -1.271516,-0.9686 -0.01446,1.5983 -0.214191,-1.584 -1.140433,1.12 0.968603,-1.2715 -1.598354,-0.014 1.584004,-0.2142 -1.119981,-1.1404 1.271515,0.9686 0.01446,-1.5984 0.214192,1.584 z" transform="matrix(1.3710615,0.5505133,-0.5505133,1.3710615,562.22959,-403.56449)"/></g></svg>