<svg xmlns="http://www.w3.org/2000/svg" xmlns:svg="http://www.w3.org/2000/svg" xmlns:xlink="http://www.w3.org/1999/xlink" id="svg4311" width="100%" height="100%" version="1.1" viewBox="0 0 64 64"><defs id="defs4313"><linearGradient id="linearGradient4196" x1="-95.879" x2="-89.313" y1="1034.128" y2="1030.256" gradientTransform="matrix(1.4071005,0,0,1.4071005,147.25824,-429.64235)" gradientUnits="userSpaceOnUse" xlink:href="#devilWings5"/><linearGradient id="devilWings5"><stop style="stop-color:#ff96bb;stop-opacity:1" id="stop4316" offset="0"/><stop style="stop-color:#ff2b7e;stop-opacity:1" id="stop4318" offset="1"/></linearGradient><linearGradient id="linearGradient4233" x1="-95.879" x2="-89.313" y1="1034.128" y2="1030.256" gradientTransform="matrix(-1.4071005,0,0,1.4071005,-83.357085,-429.7303)" gradientUnits="userSpaceOnUse" xlink:href="#devilWings5"/><linearGradient id="linearGradient4326" x1="24.439" x2="29.08" y1="1044.319" y2="1037.646" gradientTransform="translate(-0.47695166,-1.8365253)" gradientUnits="userSpaceOnUse" xlink:href="#devilWings5"/></defs><metadata id="metadata4316"/><g id="layer1" transform="translate(0,-988.36216)" style="display:inline"><path style="fill:url(#linearGradient4196);fill-opacity:1;fill-rule:evenodd;stroke:#000;stroke-width:.5;stroke-linecap:butt;stroke-linejoin:miter;stroke-miterlimit:4;stroke-dasharray:none;stroke-opacity:1" id="path4180" d="m 31.592932,1029.3409 c -9.124308,-3.9971 -11.044833,-8.8197 -7.49337,-15.1733 -6.285134,-6.141 -17.6714557,-5.3255 -22.5423029,-1.337 5.6711765,-0.8641 8.7106529,5.5648 6.2496636,8.4574 2.9606743,-0.107 8.0889803,2.4392 7.9286693,5.8764 3.681986,-0.3564 6.304249,2.0891 6.622772,4.7884 2.083904,-2.2854 5.011748,-1.3362 6.156379,-0.1555 -0.586303,-1.9072 0.709086,-3.1685 3.078189,-2.4564 z"/><path style="fill:none;fill-rule:evenodd;stroke:#000;stroke-width:.28142011;stroke-linecap:butt;stroke-linejoin:miter;stroke-miterlimit:4;stroke-dasharray:none;stroke-opacity:1" id="path4206" d="m 24.130655,1014.1676 c -5.247567,-0.094 -13.644921,3.1788 -16.0749893,6.9649"/><path style="fill:none;fill-rule:evenodd;stroke:#000;stroke-width:.28142011;stroke-linecap:butt;stroke-linejoin:miter;stroke-miterlimit:4;stroke-dasharray:none;stroke-opacity:1" id="path4208" d="m 23.913006,1014.5408 c -3.899644,3.2864 -6.216835,7.9848 -7.959764,12.4059"/><path style="fill:none;fill-rule:evenodd;stroke:#000;stroke-width:.28142011;stroke-linecap:butt;stroke-linejoin:miter;stroke-miterlimit:4;stroke-dasharray:none;stroke-opacity:1" id="path4210" d="m 22.420549,1031.6418 c -0.291163,-2.7487 -2.418061,-10.9082 1.626581,-17.4036"/><path style="fill:none;fill-rule:evenodd;stroke:#000;stroke-width:.28142011;stroke-linecap:butt;stroke-linejoin:miter;stroke-miterlimit:4;stroke-dasharray:none;stroke-opacity:1" id="path4212" d="m 28.266,1031.4863 c -2.344515,-6.0827 -8.643247,-8.7119 -4.446274,-16.6968"/><path id="path4223" d="m 32.308221,1029.253 c 9.124308,-3.9972 11.044833,-8.8197 7.49337,-15.1733 6.285134,-6.1411 17.671456,-5.3255 22.542303,-1.3371 -5.671176,-0.8641 -8.710653,5.5648 -6.249663,8.4574 -2.960675,-0.1069 -8.088981,2.4392 -7.92867,5.8765 -3.681986,-0.3564 -6.304249,2.0891 -6.622772,4.7883 -2.083904,-2.2854 -5.011748,-1.3361 -6.156379,-0.1554 0.586303,-1.9072 -0.709086,-3.1686 -3.078189,-2.4564 z" style="fill:url(#linearGradient4233);fill-opacity:1;fill-rule:evenodd;stroke:#000;stroke-width:.5;stroke-linecap:butt;stroke-linejoin:miter;stroke-miterlimit:4;stroke-dasharray:none;stroke-opacity:1"/><path id="path4225" d="m 39.770498,1014.0797 c 5.247567,-0.094 13.644921,3.1787 16.07499,6.9648" style="fill:none;fill-rule:evenodd;stroke:#000;stroke-width:.28142011;stroke-linecap:butt;stroke-linejoin:miter;stroke-miterlimit:4;stroke-dasharray:none;stroke-opacity:1"/><path id="path4227" d="m 39.988147,1014.4528 c 3.899644,3.2864 6.216835,7.9849 7.959764,12.406" style="fill:none;fill-rule:evenodd;stroke:#000;stroke-width:.28142011;stroke-linecap:butt;stroke-linejoin:miter;stroke-miterlimit:4;stroke-dasharray:none;stroke-opacity:1"/><path id="path4229" d="m 41.480604,1031.5539 c 0.291163,-2.7488 2.418061,-10.9083 -1.626581,-17.4036" style="fill:none;fill-rule:evenodd;stroke:#000;stroke-width:.28142011;stroke-linecap:butt;stroke-linejoin:miter;stroke-miterlimit:4;stroke-dasharray:none;stroke-opacity:1"/><path id="path4231" d="m 35.635153,1031.3984 c 2.344515,-6.0828 8.643247,-8.7119 4.446274,-16.6968" style="fill:none;fill-rule:evenodd;stroke:#000;stroke-width:.28142011;stroke-linecap:butt;stroke-linejoin:miter;stroke-miterlimit:4;stroke-dasharray:none;stroke-opacity:1"/><path style="display:inline;fill:#ff2b7e;fill-opacity:1;fill-rule:evenodd;stroke:#000;stroke-width:.5;stroke-linecap:butt;stroke-linejoin:miter;stroke-miterlimit:4;stroke-dasharray:none;stroke-opacity:1" id="path4271-6" d="m 28.370733,1017.6311 c 0.482186,-0.317 0.980361,-0.5434 1.524699,-0.5082 -0.372382,-0.7792 -0.616272,-1.5693 -0.0221,-2.4307 -1.505563,0.6926 -1.396314,1.8465 -1.502599,2.9389 z"/><path style="display:inline;fill:#ff2b7e;fill-opacity:1;fill-rule:evenodd;stroke:#000;stroke-width:.5;stroke-linecap:butt;stroke-linejoin:miter;stroke-miterlimit:4;stroke-dasharray:none;stroke-opacity:1" id="path4271-7-4" d="m 35.182279,1017.6222 c -0.482186,-0.317 -0.980361,-0.5434 -1.524699,-0.5082 0.372382,-0.7792 0.616272,-1.5693 0.0221,-2.4307 1.505563,0.6926 1.396314,1.8465 1.502599,2.9389 z"/><path style="fill:url(#linearGradient4326);fill-opacity:1;fill-rule:evenodd;stroke:#000;stroke-width:.28;stroke-linecap:butt;stroke-linejoin:miter;stroke-miterlimit:4;stroke-dasharray:none;stroke-opacity:1" id="path4312" d="m 41.079012,1040.3238 c -0.142582,0.9324 -1.505816,1.3964 -5.02065,0.8228 -5.503962,-0.8981 -12.244308,-5.4005 -12.759138,-2.1213 -0.51634,-0.6299 -1.308808,-0.6275 -1.343785,0.09 -0.0342,0.7014 0.727679,1.8939 0.732835,2.7255 0.470326,-0.6174 2.072052,-0.9751 2.558243,-1.454 0.317818,-0.3131 0.01049,-1.2799 -1.284456,-1.0663 -0.18238,-2.96 6.599089,1.547 11.626422,2.4391 4.563698,0.8098 6.158827,-0.2232 6.255623,-1.4022 0.1647,-2.0063 -3.759394,-3.3784 -3.806415,-2.8032 -0.04547,0.5562 3.324572,0.9173 3.041321,2.7696 z"/></g></svg>