<svg xmlns="http://www.w3.org/2000/svg" xmlns:svg="http://www.w3.org/2000/svg" xmlns:xlink="http://www.w3.org/1999/xlink" id="svg4311" width="100%" height="100%" version="1.1" viewBox="0 0 64 64"><defs id="defs4313"><linearGradient id="angelWings2"><stop style="stop-color:#e8d5ff;stop-opacity:1" id="stop4167" offset="0"/><stop style="stop-color:#b9aaff;stop-opacity:1" id="stop4169" offset="1"/></linearGradient><linearGradient id="linearGradient4196" x1="-95.879" x2="-89.313" y1="1034.128" y2="1030.256" gradientTransform="matrix(1.4071005,0,0,1.4071005,147.29325,-429.57359)" gradientUnits="userSpaceOnUse" xlink:href="#angelWings2"/><linearGradient id="linearGradient4233" x1="-95.879" x2="-89.313" y1="1034.128" y2="1030.256" gradientTransform="matrix(-1.4071005,0,0,1.4071005,-83.322075,-429.66154)" gradientUnits="userSpaceOnUse" xlink:href="#angelWings2"/></defs><metadata id="metadata4316"/><g id="layer1" transform="translate(0,-988.36216)" style="display:inline"><path style="fill:url(#linearGradient4196);fill-opacity:1;fill-rule:evenodd;stroke:#000;stroke-width:.5;stroke-linecap:butt;stroke-linejoin:miter;stroke-miterlimit:4;stroke-dasharray:none;stroke-opacity:1" id="path4180" d="m 31.627942,1029.4096 c -9.124308,-3.9971 -11.044833,-8.8197 -7.49337,-15.1733 -6.285134,-6.141 -17.6714557,-5.3255 -22.5423029,-1.337 5.6711765,-0.8641 8.7106529,5.5648 6.2496636,8.4574 2.9606743,-0.107 8.0889803,2.4392 7.9286693,5.8764 3.681986,-0.3564 6.304249,2.0891 6.622772,4.7884 2.083904,-2.2854 5.011748,-1.3362 6.156379,-0.1555 -0.586303,-1.9072 0.709086,-3.1685 3.078189,-2.4564 z"/><path style="fill:none;fill-rule:evenodd;stroke:#000;stroke-width:.28142011;stroke-linecap:butt;stroke-linejoin:miter;stroke-miterlimit:4;stroke-dasharray:none;stroke-opacity:1" id="path4206" d="m 24.165665,1014.2363 c -5.247567,-0.094 -13.644921,3.1788 -16.0749893,6.9649"/><path style="fill:none;fill-rule:evenodd;stroke:#000;stroke-width:.28142011;stroke-linecap:butt;stroke-linejoin:miter;stroke-miterlimit:4;stroke-dasharray:none;stroke-opacity:1" id="path4208" d="m 23.948016,1014.6095 c -3.899644,3.2864 -6.216835,7.9848 -7.959764,12.4059"/><path style="fill:none;fill-rule:evenodd;stroke:#000;stroke-width:.28142011;stroke-linecap:butt;stroke-linejoin:miter;stroke-miterlimit:4;stroke-dasharray:none;stroke-opacity:1" id="path4210" d="m 22.455559,1031.7105 c -0.291163,-2.7487 -2.418061,-10.9082 1.626581,-17.4036"/><path style="fill:none;fill-rule:evenodd;stroke:#000;stroke-width:.28142011;stroke-linecap:butt;stroke-linejoin:miter;stroke-miterlimit:4;stroke-dasharray:none;stroke-opacity:1" id="path4212" d="m 28.30101,1031.555 c -2.344515,-6.0827 -8.643247,-8.7119 -4.446274,-16.6968"/><path id="path4223" d="m 32.343231,1029.3217 c 9.124308,-3.9972 11.044833,-8.8197 7.49337,-15.1733 6.285134,-6.1411 17.671456,-5.3255 22.542303,-1.3371 -5.671176,-0.8641 -8.710653,5.5648 -6.249663,8.4574 -2.960675,-0.1069 -8.088981,2.4392 -7.92867,5.8765 -3.681986,-0.3564 -6.304249,2.0891 -6.622772,4.7883 -2.083904,-2.2854 -5.011748,-1.3361 -6.156379,-0.1554 0.586303,-1.9072 -0.709086,-3.1686 -3.078189,-2.4564 z" style="fill:url(#linearGradient4233);fill-opacity:1;fill-rule:evenodd;stroke:#000;stroke-width:.5;stroke-linecap:butt;stroke-linejoin:miter;stroke-miterlimit:4;stroke-dasharray:none;stroke-opacity:1"/><path id="path4225" d="m 39.805508,1014.1484 c 5.247567,-0.094 13.644921,3.1787 16.07499,6.9648" style="fill:none;fill-rule:evenodd;stroke:#000;stroke-width:.28142011;stroke-linecap:butt;stroke-linejoin:miter;stroke-miterlimit:4;stroke-dasharray:none;stroke-opacity:1"/><path id="path4227" d="m 40.023157,1014.5215 c 3.899644,3.2864 6.216835,7.9849 7.959764,12.406" style="fill:none;fill-rule:evenodd;stroke:#000;stroke-width:.28142011;stroke-linecap:butt;stroke-linejoin:miter;stroke-miterlimit:4;stroke-dasharray:none;stroke-opacity:1"/><path id="path4229" d="m 41.515614,1031.6226 c 0.291163,-2.7488 2.418061,-10.9083 -1.626581,-17.4036" style="fill:none;fill-rule:evenodd;stroke:#000;stroke-width:.28142011;stroke-linecap:butt;stroke-linejoin:miter;stroke-miterlimit:4;stroke-dasharray:none;stroke-opacity:1"/><path id="path4231" d="m 35.670163,1031.4671 c 2.344515,-6.0828 8.643247,-8.7119 4.446274,-16.6968" style="fill:none;fill-rule:evenodd;stroke:#000;stroke-width:.28142011;stroke-linecap:butt;stroke-linejoin:miter;stroke-miterlimit:4;stroke-dasharray:none;stroke-opacity:1"/></g></svg>