<svg xmlns="http://www.w3.org/2000/svg" xmlns:svg="http://www.w3.org/2000/svg" xmlns:xlink="http://www.w3.org/1999/xlink" id="svg4311" width="100%" height="100%" version="1.1" viewBox="0 0 64 64"><defs id="defs4313"><linearGradient id="linearGradient4196-9" x1="-95.879" x2="-89.313" y1="1034.128" y2="1030.256" gradientTransform="matrix(1.4071005,0,0,1.4071005,147.73519,-427.80582)" gradientUnits="userSpaceOnUse" xlink:href="#devilWings4"/><linearGradient id="devilWings4"><stop id="stop4308" offset="0" style="stop-color:#ffd5f1;stop-opacity:1"/><stop id="stop4310" offset="1" style="stop-color:#fe99ff;stop-opacity:1"/></linearGradient><linearGradient id="linearGradient4233-2" x1="-95.879" x2="-89.313" y1="1034.128" y2="1030.256" gradientTransform="matrix(-1.4071005,0,0,1.4071005,-82.880133,-427.89377)" gradientUnits="userSpaceOnUse" xlink:href="#devilWings4"/></defs><metadata id="metadata4316"/><g id="layer1" transform="translate(0,-988.36216)" style="display:inline"><g style="display:inline" id="g4155" transform="translate(-0.49724668,-1.8393014)"><path id="path4180-0" d="m 32.069884,1031.1774 c -9.124308,-3.9971 -11.044833,-8.8197 -7.49337,-15.1733 -6.285134,-6.141 -17.671456,-5.3255 -22.5423032,-1.337 5.6711765,-0.8641 8.7106532,5.5648 6.2496636,8.4574 2.9606746,-0.107 8.0889806,2.4392 7.9286696,5.8764 3.681986,-0.3564 6.304249,2.0891 6.622772,4.7884 2.083904,-2.2854 5.011748,-1.3362 6.156379,-0.1555 -0.586303,-1.9072 0.709086,-3.1685 3.078189,-2.4564 z" style="fill:url(#linearGradient4196-9);fill-opacity:1;fill-rule:evenodd;stroke:#000;stroke-width:.5;stroke-linecap:butt;stroke-linejoin:miter;stroke-miterlimit:4;stroke-dasharray:none;stroke-opacity:1"/><path id="path4206-1" d="m 24.607607,1016.0041 c -5.247567,-0.094 -13.644921,3.1788 -16.0749896,6.9649" style="fill:none;fill-rule:evenodd;stroke:#000;stroke-width:.28142011;stroke-linecap:butt;stroke-linejoin:miter;stroke-miterlimit:4;stroke-dasharray:none;stroke-opacity:1"/><path id="path4208-8" d="m 24.389958,1016.3773 c -3.899644,3.2864 -6.216835,7.9848 -7.959764,12.4059" style="fill:none;fill-rule:evenodd;stroke:#000;stroke-width:.28142011;stroke-linecap:butt;stroke-linejoin:miter;stroke-miterlimit:4;stroke-dasharray:none;stroke-opacity:1"/><path id="path4210-8" d="m 22.897501,1033.4783 c -0.291163,-2.7487 -2.418061,-10.9082 1.626581,-17.4036" style="fill:none;fill-rule:evenodd;stroke:#000;stroke-width:.28142011;stroke-linecap:butt;stroke-linejoin:miter;stroke-miterlimit:4;stroke-dasharray:none;stroke-opacity:1"/><path id="path4212-7" d="m 28.742952,1033.3228 c -2.344515,-6.0827 -8.643247,-8.7119 -4.446274,-16.6968" style="fill:none;fill-rule:evenodd;stroke:#000;stroke-width:.28142011;stroke-linecap:butt;stroke-linejoin:miter;stroke-miterlimit:4;stroke-dasharray:none;stroke-opacity:1"/><path style="fill:url(#linearGradient4233-2);fill-opacity:1;fill-rule:evenodd;stroke:#000;stroke-width:.5;stroke-linecap:butt;stroke-linejoin:miter;stroke-miterlimit:4;stroke-dasharray:none;stroke-opacity:1" id="path4223-7" d="m 32.785173,1031.0895 c 9.124308,-3.9972 11.044833,-8.8197 7.49337,-15.1733 6.285134,-6.1411 17.671456,-5.3255 22.542303,-1.3371 -5.671176,-0.8641 -8.710653,5.5648 -6.249663,8.4574 -2.960675,-0.1069 -8.088981,2.4392 -7.92867,5.8765 -3.681986,-0.3564 -6.304249,2.0891 -6.622772,4.7883 -2.083904,-2.2854 -5.011748,-1.3361 -6.156379,-0.1554 0.586303,-1.9072 -0.709086,-3.1686 -3.078189,-2.4564 z"/><path style="fill:none;fill-rule:evenodd;stroke:#000;stroke-width:.28142011;stroke-linecap:butt;stroke-linejoin:miter;stroke-miterlimit:4;stroke-dasharray:none;stroke-opacity:1" id="path4225-1" d="m 40.24745,1015.9162 c 5.247567,-0.094 13.644921,3.1787 16.07499,6.9648"/><path style="fill:none;fill-rule:evenodd;stroke:#000;stroke-width:.28142011;stroke-linecap:butt;stroke-linejoin:miter;stroke-miterlimit:4;stroke-dasharray:none;stroke-opacity:1" id="path4227-4" d="m 40.465099,1016.2893 c 3.899644,3.2864 6.216835,7.9849 7.959764,12.406"/><path style="fill:none;fill-rule:evenodd;stroke:#000;stroke-width:.28142011;stroke-linecap:butt;stroke-linejoin:miter;stroke-miterlimit:4;stroke-dasharray:none;stroke-opacity:1" id="path4229-7" d="m 41.957556,1033.3904 c 0.291163,-2.7488 2.418061,-10.9083 -1.626581,-17.4036"/><path style="fill:none;fill-rule:evenodd;stroke:#000;stroke-width:.28142011;stroke-linecap:butt;stroke-linejoin:miter;stroke-miterlimit:4;stroke-dasharray:none;stroke-opacity:1" id="path4231-4" d="m 36.112105,1033.2349 c 2.344515,-6.0828 8.643247,-8.7119 4.446274,-16.6968"/><path id="path4271" d="m 28.847685,1019.4676 c 0.482186,-0.317 0.980361,-0.5434 1.524699,-0.5082 -0.372382,-0.7792 -0.616272,-1.5693 -0.0221,-2.4307 -1.505563,0.6926 -1.396314,1.8465 -1.502599,2.9389 z" style="display:inline;fill:#fe99ff;fill-opacity:1;fill-rule:evenodd;stroke:#000;stroke-width:.5;stroke-linecap:butt;stroke-linejoin:miter;stroke-miterlimit:4;stroke-dasharray:none;stroke-opacity:1"/><path id="path4271-7" d="m 35.659231,1019.4587 c -0.482186,-0.317 -0.980361,-0.5434 -1.524699,-0.5082 0.372382,-0.7792 0.616272,-1.5693 0.0221,-2.4307 1.505563,0.6926 1.396314,1.8465 1.502599,2.9389 z" style="display:inline;fill:#fe99ff;fill-opacity:1;fill-rule:evenodd;stroke:#000;stroke-width:.5;stroke-linecap:butt;stroke-linejoin:miter;stroke-miterlimit:4;stroke-dasharray:none;stroke-opacity:1"/></g></g></svg>