<svg xmlns="http://www.w3.org/2000/svg" xmlns:svg="http://www.w3.org/2000/svg" id="svg4311" width="100%" height="100%" version="1.1" viewBox="0 0 64 64"><metadata id="metadata4316"/><g id="layer1" transform="translate(0,-988.36216)" style="display:inline"><path style="fill:#ff8080;fill-rule:evenodd;stroke:#000;stroke-width:1px;stroke-linecap:butt;stroke-linejoin:miter;stroke-opacity:1" id="path4149" d="m 28.812501,1031.2685 0,1.3437 c -6.290672,5.0094 -2.430358,13.1277 3.6875,13.125 5.976412,0 9.992867,-8.5154 3.500001,-13.25 l 0,-1.2812 z"/><path style="fill:none;fill-rule:evenodd;stroke:gray;stroke-width:2;stroke-linecap:butt;stroke-linejoin:miter;stroke-miterlimit:4;stroke-dasharray:none;stroke-opacity:.50196081" id="path4151" d="m 38.437502,1023.7372 -5.437501,0"/><path style="fill:none;fill-rule:evenodd;stroke:gray;stroke-width:2;stroke-linecap:butt;stroke-linejoin:miter;stroke-miterlimit:4;stroke-dasharray:none;stroke-opacity:.50196081" id="path4153" d="m 38.562502,1016.6747 -5.625001,5e-4"/><path style="fill:none;fill-rule:evenodd;stroke:gray;stroke-width:2;stroke-linecap:butt;stroke-linejoin:miter;stroke-miterlimit:4;stroke-dasharray:none;stroke-opacity:.50196081" id="path4155" d="m 38.750002,1009.3622 -5.781251,-5e-4"/><path style="fill:none;fill-rule:evenodd;stroke:gray;stroke-width:2;stroke-linecap:butt;stroke-linejoin:miter;stroke-miterlimit:4;stroke-dasharray:none;stroke-opacity:.50196081" id="path4157" d="m 38.625002,1001.6747 -5.640626,-0.016"/><path style="fill:#ffd5d5;fill-rule:evenodd;stroke:none;stroke-width:1px;stroke-linecap:butt;stroke-linejoin:miter;stroke-opacity:1" id="path4159" d="m 35.311147,1033.8006 c 0.865498,0.4749 1.427244,1.4519 1.754116,2.4621 0.04979,0.08 0.09818,0.1615 0.145152,0.2441 0.583761,1.0266 0.937819,2.2129 1.017548,2.9949 0.18116,-0.7799 0.0917,-2.0727 -0.296447,-3.3048 -0.03145,-0.1 -0.06494,-0.1995 -0.100496,-0.2987 -0.64849,-1.0302 -1.510995,-1.8705 -2.519873,-2.0976 z"/><path style="fill:#d7eef4;fill-rule:evenodd;stroke:#000;stroke-width:1px;stroke-linecap:butt;stroke-linejoin:miter;stroke-opacity:1;fill-opacity:.25098041" id="path4147" d="m 26.187501,1030.9247 c -6.995379,6.8945 -2.176242,17.611 6.347209,17.6721 8.847823,0.063 13.69622,-11.0724 6.090292,-17.4221 l 0.1875,-32.12504 c 0.04056,-6.94898 -12.395967,-6.98445 -12.437501,0.0625 z"/></g></svg>