<svg xmlns="http://www.w3.org/2000/svg" xmlns:svg="http://www.w3.org/2000/svg" id="svg2" version="1.1" viewBox="0 0 256 256"><metadata id="metadata7"/><g id="layer2" style="display:inline"><path style="display:inline;fill:#fae;fill-opacity:1;fill-rule:evenodd;stroke:#f0c;stroke-width:6.22466183;stroke-linecap:butt;stroke-linejoin:miter;stroke-miterlimit:4;stroke-dasharray:none;stroke-opacity:1" id="path4141" d="m 129.209,204.89304 c -20.86803,-19.84756 -38.51683,-43.28012 -49.118779,-70.50527 -1.221056,-3.13559 10.551672,-13.30803 10.551672,-13.30803 0,0 -16.032273,-3.29463 -16.90326,-6.90578 -2.903615,-12.03853 -4.439972,-24.736744 -4.336771,-38.109428 2.551536,-0.03712 7.146116,-1.426127 12.920981,-3.811104 2.931472,-1.210676 14.951125,9.394588 14.951125,9.394588 0,0 0.737661,-16.8211 3.927492,-18.563734 9.27612,-5.067632 19.14702,-11.216861 27.7963,-17.698388 4.69431,3.237984 9.53055,6.46095 14.46346,9.308743 5.65506,3.264681 8.4396,25.300102 8.4396,25.300102 0,0 15.81339,-12.096626 19.56017,-10.390011 7.45149,3.394068 13.35772,5.500678 16.33528,5.758164 0.0278,13.970285 -1.589,27.049308 -4.60285,39.375598 -0.51977,2.12578 -9.01913,8.32733 -9.01913,8.32733 l -12.01269,-1.29721 6.92267,12.20146 c 0,0 6.32363,4.60772 4.08166,9.50025 -4.87643,10.64161 -10.83368,20.70468 -17.65884,30.30828 -1.6529,2.32577 -17.44237,-14.3049 -17.44237,-14.3049 l -0.58517,22.59014 c 0,0 3.08436,10.6249 0.1243,13.90382 -2.72174,3.01498 -5.52276,5.9886 -8.39491,8.92538 z"/><path id="path4172" d="m 129.16903,200.44102 c -19.84331,-18.87294 -36.625454,-41.15484 -46.706795,-67.0431 -1.161095,-2.98162 10.033533,-12.65453 10.033533,-12.65453 0,0 -15.245007,-3.13285 -16.073225,-6.56668 -2.761032,-11.44737 -4.221948,-23.522047 -4.123814,-36.238065 2.426243,-0.0353 6.795207,-1.356097 12.286494,-3.62396 2.787524,-1.151226 14.216951,8.933267 14.216951,8.933267 0,0 0.701439,-15.9951 3.734636,-17.65216 8.82061,-4.818787 18.20681,-10.666059 26.43135,-16.829308 l 0.20081,151.674536 z" style="display:inline;fill:#ff8ce7;fill-opacity:1;fill-rule:evenodd;stroke:none;stroke-width:6.22466183;stroke-linecap:butt;stroke-linejoin:miter;stroke-miterlimit:4;stroke-dasharray:none;stroke-opacity:1"/><path style="display:inline;opacity:1;fill:none;fill-rule:evenodd;stroke:#f0c;stroke-width:8.38825703;stroke-linecap:round;stroke-linejoin:miter;stroke-miterlimit:4;stroke-dasharray:none;stroke-opacity:1" id="path4279-7" d="m 102.87449,148.7943 25.7374,-77.675035 26.69094,77.270725 -68.806697,-47.35108 85.011457,0.14761 z"/></g></svg>