<svg xmlns="http://www.w3.org/2000/svg" xmlns:svg="http://www.w3.org/2000/svg" id="svg4311" width="100%" height="100%" version="1.1" viewBox="0 0 64 64"><metadata id="metadata4316"/><g id="layer5" style="display:inline"><flowRoot id="flowRoot4142" xml:space="preserve" style="fill:#000;stroke:none;stroke-opacity:1;stroke-width:1px;stroke-linejoin:miter;stroke-linecap:butt;fill-opacity:1;font-family:sans-serif;font-style:normal;font-weight:400;font-size:40px;line-height:125%;letter-spacing:0;word-spacing:0"><flowRegion id="flowRegion4144"><rect id="rect4146" width="41.858" height="40.848" x="15.405" y="13.177"/></flowRegion><flowPara id="flowPara4148"/></flowRoot><path style="fill:#ff8080;fill-opacity:1;stroke:#000;stroke-width:.5;stroke-linecap:butt;stroke-linejoin:round;stroke-miterlimit:4;stroke-dasharray:none;stroke-dashoffset:0;stroke-opacity:1" id="path4200" d="m 34.753517,31.429018 a 13.8004,13.828189 42.244666 0 0 19.514051,-0.957865 13.8004,13.828189 42.244666 0 0 -0.920517,-19.515848 13.8004,13.828189 42.244666 0 0 -19.512745,0.95905 13.8004,13.828189 42.244666 0 0 0.919211,19.514663 z m 2.462547,-2.71156 A 10.144562,10.164989 42.244666 0 1 36.540646,14.372162 10.144562,10.164989 42.244666 0 1 50.88332,13.668169 10.144562,10.164989 42.244666 0 1 51.561227,28.013345 10.144562,10.164989 42.244666 0 1 37.216064,28.717458 Z"/><path style="fill:#ff8080;fill-rule:evenodd;stroke:#000;stroke-width:.5;stroke-linecap:butt;stroke-linejoin:miter;stroke-miterlimit:4;stroke-dasharray:none;stroke-opacity:1" id="path4207" d="m 54.601794,12.588147 6.106146,-6.9847489 0.0152,7.6456509 2.302395,-2.535213 c -0.03567,-3.3042887 -0.0092,-9.4437711 -0.0092,-9.4437711 l -10.280755,0.098752 -2.322026,2.5718105 6.850639,-0.1243149 -5.59126,6.105114"/><path style="fill:#ccc;fill-rule:evenodd;stroke:#000;stroke-width:.5;stroke-linecap:butt;stroke-linejoin:miter;stroke-miterlimit:4;stroke-dasharray:none;stroke-opacity:1" id="path4235" d="m 10.067994,59.816882 c -3.1391207,-0.323143 0.215246,-8.218508 0.07978,-12.32454 -0.111974,-3.394003 0.47402,-5.802496 -0.459264,-9.223927 -1.017352,3.398623 -2.4649083,6.356064 -3.1621346,8.85667 0.1674913,3.384777 1.1013297,9.029264 1.3706204,11.451732 -0.042056,0.477981 -0.1468675,0.680898 -0.070802,0.989335 -0.4402395,0.556512 -1.5389557,0.702123 -2.1627673,0.93943 -0.2059866,-0.230859 -0.1844168,-0.367814 -0.7972956,-0.473785 0,0 -3.2197951,-10.300027 -3.1513404,-12.768116 C 1.7888875,44.593399 7.1800431,30.366583 7.5902835,29.929564 8.370675,29.098236 13.133944,27.83765 15.764758,26.93976 l 0.126495,-1.14499 c 0.242213,1.8865 1.216299,2.481093 1.895556,3.695227 -0.152133,0.604261 -0.06976,0.974053 -0.0036,1.359755 l -1.214134,16.004426 c 0,0 2.353233,2.951508 2.433006,2.791967 0.07978,-0.15954 2.472886,-2.552656 2.472886,-2.552656 L 20.11886,30.979851 c 0.22641,-0.558393 0.239532,-1.116786 0.319079,-1.675179 0.99682,-0.700242 1.827012,-2.103388 1.87461,-3.150935 l 0.438732,0.917361 c 2.844283,0.701638 6.347003,1.899407 7.558247,2.333288 1.567137,0.56136 6.097967,14.911498 6.239208,16.619045 0.155925,1.885044 -1.413089,10.516212 -3.656641,13.56411 -0.347038,0.136056 -0.69219,0.281571 -0.987155,0.67805 -0.697885,-0.231616 -1.246776,-0.626493 -1.744974,-1.076902 0.0666,-0.382179 0.103589,-0.775476 -0.03989,-1.236443 1.535342,-3.135504 1.421104,-8.429575 1.525613,-11.975544 -0.547854,-2.192704 -1.388189,-5.673147 -2.731127,-8.732863 0,0 -0.762541,5.756409 -0.89843,8.653093 -0.220652,4.703502 3.640956,13.473662 0.119654,14.119376 l 0.279197,1.037016 c -6.885633,1.987352 -14.541116,1.111519 -18.317294,-0.07977 z"/></g></svg>