<svg xmlns="http://www.w3.org/2000/svg" xmlns:svg="http://www.w3.org/2000/svg" id="svg4311" width="100%" height="100%" version="1.1" viewBox="0 0 64 64"><metadata id="metadata4316"/><g id="layer5" style="display:inline;opacity:1"><path style="fill:#ff8080;fill-opacity:1;stroke:#000;stroke-width:.73031849;stroke-linecap:round;stroke-miterlimit:4;stroke-dasharray:none;stroke-dashoffset:0;stroke-opacity:1" id="path4168" d="M 12.142857,4.1785731 -8.3375598,4.867448 -15.321516,-14.397712 0.8425794,-26.993111 17.816495,-15.512335 Z" transform="matrix(1.5645444,0.05692315,-0.03980006,1.6319874,29.685873,48.596329)"/><g id="g4274" transform="matrix(0.6983373,0,0,0.6983373,76.145121,4.1435037)" style="fill:#ff2a2a"><path id="path4161-8" d="m -63.129971,53.660477 c 0.971162,0.078 -2.734665,6.7218 -5.021778,7.7816 -0.540716,0.2506 -0.338629,-0.9311 -0.244987,-3.3391 -1.76462,2.5048 -3.697438,4.6128 -5.160522,4.9933 -0.868653,0.2259 -0.07953,-3.1788 0.230749,-4.6995 -1.600839,1.6909 -4.452431,3.114 -6.429695,2.886 -0.970437,-0.1123 2.791812,-2.8361 3.360827,-4.9102 -2.057549,1.4562 -6.173577,1.9432 -8.021577,1.1454 -1.087437,-0.4694 2.849464,-1.572 4.365082,-3.0389 -3.871258,0.203 -6.898091,-1.991 -7.787106,-3.0181 -0.918726,-1.0614 2.662405,-0.8113 5.567066,-2.0096 -3.471753,-0.197 -6.323331,-1.156 -8.761398,-4.8233 -0.784736,-1.1804 4.206197,0.8878 7.259625,-0.7268 -6.059976,-1.5596 -8.988248,-6.2298 -8.670181,-7.0668 0.330122,-0.8686 2.250711,1.2764 7.298984,1.8433 -7.257291,-3.2264 -8.732249,-11.4155 -6.408389,-13.8541 0.778176,-0.8166 3.606616,9.9836 12.448167,9.2834 7.243089,-0.5735 6.390083,2.2131 5.45212,4.8319 -4.250063,11.8659 4.642464,14.2515 10.523013,14.7215 z" style="display:inline;fill:#ff2a2a;fill-opacity:1;fill-rule:evenodd;stroke:none;stroke-width:.5;stroke-linecap:butt;stroke-linejoin:miter;stroke-miterlimit:4;stroke-dasharray:none;stroke-opacity:1"/><path style="display:inline;fill:#ff2a2a;fill-opacity:1;fill-rule:evenodd;stroke:none;stroke-width:.5;stroke-linecap:butt;stroke-linejoin:miter;stroke-miterlimit:4;stroke-dasharray:none;stroke-opacity:1" id="path4235" d="m -61.876407,53.624577 c -0.971161,0.078 2.734667,6.7218 5.021783,7.7816 0.540719,0.2506 0.338618,-0.9311 0.244976,-3.3391 1.764629,2.5048 3.697451,4.6128 5.160531,4.9933 0.868655,0.2259 0.07949,-3.1788 -0.230749,-4.6995 1.600837,1.6909 4.45243,3.114 6.429692,2.886 0.970437,-0.1123 -2.791813,-2.8361 -3.360825,-4.9102 2.057547,1.4562 6.173575,1.9432 8.021576,1.1454 1.087437,-0.4694 -2.849465,-1.572 -4.365083,-3.0389 3.871258,0.203 6.898092,-1.991 7.787106,-3.0181 0.918726,-1.0614 -2.662404,-0.8113 -5.567066,-2.0096 3.471754,-0.197 6.323331,-1.156 8.761399,-4.8233 0.784735,-1.1804 -4.206198,0.8878 -7.259625,-0.7268 6.059975,-1.5596 8.988248,-6.2298 8.670181,-7.0668 -0.330123,-0.8686 -2.250711,1.2764 -7.298984,1.8433 7.25729,-3.2264 8.732249,-11.4153 6.408389,-13.854 -0.778176,-0.8167 -3.606617,9.9835 -12.448168,9.2833 -7.243091,-0.5735 -6.390082,2.2131 -5.452119,4.8319 4.250061,11.8659 -4.64246,14.2515 -10.523014,14.7215 z"/><path id="path4239" d="m -62.402567,39.187777 a 7.4506458,3.4338133 0 0 0 -7.450762,3.4339 7.4506458,3.4338133 0 0 0 7.450762,3.4339 7.4506458,3.4338133 0 0 0 7.450762,-3.4339 7.4506458,3.4338133 0 0 0 -7.450762,-3.4339 z m -0.01152,1.0849 a 6.5067731,2.6483539 0 0 1 6.507152,2.649 6.5067731,2.6483539 0 0 1 -6.507152,2.6491 6.5067731,2.6483539 0 0 1 -6.507151,-2.6491 6.5067731,2.6483539 0 0 1 6.507151,-2.649 z" style="display:inline;opacity:1;fill:#ff2a2a;fill-opacity:1;stroke:none;stroke-width:.25;stroke-linecap:round;stroke-linejoin:miter;stroke-miterlimit:4;stroke-dasharray:none;stroke-dashoffset:0;stroke-opacity:1"/></g><flowRoot id="flowRoot4156" xml:space="preserve" style="fill:#000;stroke:none;stroke-opacity:1;stroke-width:1px;stroke-linejoin:miter;stroke-linecap:butt;fill-opacity:1;font-family:sans-serif;font-style:normal;font-weight:400;font-size:40px;line-height:125%;letter-spacing:0;word-spacing:0"><flowRegion id="flowRegion4158"><rect id="rect4160" width="42.679" height="44.068" x="6.566" y="11.22"/></flowRegion><flowPara id="flowPara4162"/></flowRoot><flowRoot id="flowRoot4168" xml:space="preserve" style="fill:#000;stroke:none;stroke-opacity:1;stroke-width:1px;stroke-linejoin:miter;stroke-linecap:butt;fill-opacity:1;font-family:sans-serif;font-style:normal;font-weight:400;font-size:40px;line-height:125%;letter-spacing:0;word-spacing:0"><flowRegion id="flowRegion4170"><rect id="rect4172" width="63.766" height="63.64" x=".253" y="-.271"/></flowRegion><flowPara id="flowPara4174"/></flowRoot><path style="display:inline;opacity:1;fill:#f9f9f9;fill-opacity:1;fill-rule:evenodd;stroke:none;stroke-width:1px;stroke-linecap:butt;stroke-linejoin:miter;stroke-opacity:1" id="path4281-0" d="M 32.58813,6.8299461 C 43.141652,14.150158 45.68552,16.35403 56.6841,24.88989 47.793699,22.27626 34.541579,9.5048609 32.58813,6.8299461 Z"/><path style="display:inline;opacity:1;fill:#000;fill-opacity:.44859811;fill-rule:evenodd;stroke:none;stroke-width:1px;stroke-linecap:butt;stroke-linejoin:miter;stroke-opacity:1" id="path4283-0" d="M 48.528934,55.968492 C 36.350582,56.180178 24.675347,56.047986 16.557409,55.981412 13.168111,46.178694 9.9127758,35.093102 6.3878346,24.118699 11.878755,36.064798 12.7552,43.733966 21.138496,50.327266 c 6.025034,4.738571 15.106093,4.469879 27.390438,5.641226 z"/></g></svg>