<svg xmlns="http://www.w3.org/2000/svg" xmlns:svg="http://www.w3.org/2000/svg" id="svg4311" width="100%" height="100%" version="1.1" viewBox="0 0 64 64"><metadata id="metadata4316"/><g id="layer5" style="display:inline;opacity:1"><flowRoot id="flowRoot4156" xml:space="preserve" style="fill:#000;stroke:none;stroke-opacity:1;stroke-width:1px;stroke-linejoin:miter;stroke-linecap:butt;fill-opacity:1;font-family:sans-serif;font-style:normal;font-weight:400;font-size:40px;line-height:125%;letter-spacing:0;word-spacing:0"><flowRegion id="flowRegion4158"><rect id="rect4160" width="42.679" height="44.068" x="6.566" y="11.22"/></flowRegion><flowPara id="flowPara4162"/></flowRoot><flowRoot id="flowRoot4168" xml:space="preserve" style="fill:#000;stroke:none;stroke-opacity:1;stroke-width:1px;stroke-linejoin:miter;stroke-linecap:butt;fill-opacity:1;font-family:sans-serif;font-style:normal;font-weight:400;font-size:40px;line-height:125%;letter-spacing:0;word-spacing:0"><flowRegion id="flowRegion4170"><rect id="rect4172" width="63.766" height="63.64" x=".253" y="-.271"/></flowRegion><flowPara id="flowPara4174"/></flowRoot><path style="fill:#ff2a2a;fill-opacity:1;fill-rule:nonzero;stroke:#000;stroke-width:.55032927px;stroke-linecap:round;stroke-linejoin:bevel;stroke-miterlimit:4;stroke-dasharray:none;stroke-opacity:1" id="path4160" d="m 32.142808,3.319669 c -15.599635,10e-8 -29.7730417,13.434008 -29.7730417,28.568062 0,15.155249 14.0471377,28.905219 29.6467727,28.905219 15.621,0 29.794525,-13.371162 29.794525,-28.526411 0,-15.134054 -14.047256,-28.94687 -29.668256,-28.94687 z m 0.08599,3.9716256 c 14.054667,0 25.441406,11.0699234 25.441406,24.7011714 0,13.631249 -11.38674,24.701172 -25.441406,24.701172 -14.033331,0 -25.4218754,-11.069923 -25.4218754,-24.701172 0,-13.631248 11.3885434,-24.7011714 25.4218754,-24.7011714 z"/><path id="path4164" d="M 19.063232,50.660897 53.966896,25.663176 10.067455,25.747843 45.140396,50.76673 32.101729,9.2379838 Z" style="fill:#ff8080;fill-opacity:1;fill-rule:evenodd;stroke:#000;stroke-width:.67732829px;stroke-linecap:butt;stroke-linejoin:miter;stroke-miterlimit:4;stroke-dasharray:none;stroke-opacity:1"/><path id="path4166" d="m 33.070279,5.2601322 c 8.360833,0.4868305 14.710833,3.9793135 19.028833,8.6782578 5.101167,4.974138 7.895167,11.705082 8.0645,17.843387 0.1905,-6.138305 -2.243667,-13.165582 -7.281333,-18.626526 -4.7625,-4.6354723 -11.43,-7.7892854 -19.812,-7.8951188 z" style="fill:#fff;fill-opacity:.64485976;fill-rule:evenodd;stroke:none"/><path id="path4170" d="m 39.065562,26.742676 1.862667,0.423334 10.2235,-0.677334 -10.244667,-0.254 -1.8415,0.508 z" style="fill:#fff;fill-opacity:.64485979;fill-rule:evenodd;stroke:none"/><path id="path4172" d="m 35.340229,24.689538 0,-1.883833 -3.048,-9.800082 2.137833,10.032915 0.910167,1.651 z" style="fill:#fff;fill-opacity:.64485979;fill-rule:evenodd;stroke:none"/></g></svg>