<svg xmlns="http://www.w3.org/2000/svg" xmlns:svg="http://www.w3.org/2000/svg" id="svg4311" width="100%" height="100%" version="1.1" viewBox="0 0 64 64"><metadata id="metadata4316"/><g id="layer5" style="display:inline;opacity:1"><path style="fill:#ff8080;fill-opacity:1;stroke:#000;stroke-width:.73031849;stroke-linecap:round;stroke-miterlimit:4;stroke-dasharray:none;stroke-dashoffset:0;stroke-opacity:1" id="path4168" d="M 12.142857,4.1785731 -8.3375598,4.867448 -15.321516,-14.397712 0.8425794,-26.993111 17.816495,-15.512335 Z" transform="matrix(1.5645444,0.05692315,-0.03980006,1.6319874,29.685873,48.596329)"/><flowRoot id="flowRoot4156" xml:space="preserve" style="fill:#000;stroke:none;stroke-opacity:1;stroke-width:1px;stroke-linejoin:miter;stroke-linecap:butt;fill-opacity:1;font-family:sans-serif;font-style:normal;font-weight:400;font-size:40px;line-height:125%;letter-spacing:0;word-spacing:0"><flowRegion id="flowRegion4158"><rect id="rect4160" width="42.679" height="44.068" x="6.566" y="11.22"/></flowRegion><flowPara id="flowPara4162"/></flowRoot><flowRoot id="flowRoot4168" xml:space="preserve" style="fill:#000;stroke:none;stroke-opacity:1;stroke-width:1px;stroke-linejoin:miter;stroke-linecap:butt;fill-opacity:1;font-family:sans-serif;font-style:normal;font-weight:400;font-size:40px;line-height:125%;letter-spacing:0;word-spacing:0"><flowRegion id="flowRegion4170"><rect id="rect4172" width="63.766" height="63.64" x=".253" y="-.271"/></flowRegion><flowPara id="flowPara4174"/></flowRoot><path style="display:inline;opacity:1;fill:#f9f9f9;fill-opacity:1;fill-rule:evenodd;stroke:none;stroke-width:1px;stroke-linecap:butt;stroke-linejoin:miter;stroke-opacity:1" id="path4281-0" d="M 32.58813,6.8299461 C 43.141652,14.150158 45.68552,16.35403 56.6841,24.88989 47.793699,22.27626 34.541579,9.5048609 32.58813,6.8299461 Z"/><path style="display:inline;opacity:1;fill:#000;fill-opacity:.44859811;fill-rule:evenodd;stroke:none;stroke-width:1px;stroke-linecap:butt;stroke-linejoin:miter;stroke-opacity:1" id="path4283-0" d="M 48.528934,55.968492 C 36.350582,56.180178 24.675347,56.047986 16.557409,55.981412 13.168111,46.178694 9.9127758,35.093102 6.3878346,24.118699 11.878755,36.064798 12.7552,43.733966 21.138496,50.327266 c 6.025034,4.738571 15.106093,4.469879 27.390438,5.641226 z"/><path id="path4158-1" d="m 50.220908,30.575026 c 1.279886,0.225861 3.161965,-3.011492 -0.75287,-4.743098 -0.828163,-0.451724 -1.279886,-0.903447 -2.78563,-0.828159 -0.677586,0 -1.505744,0.376435 -2.559768,1.054021 -1.054021,0.376435 -1.656318,0.752874 -2.409192,1.05402 -1.882182,0 -3.688977,0.225862 -5.872307,0.225862 -0.527012,-0.376435 -0.903447,-0.828159 -1.656321,-1.129309 -0.451723,-0.75287 -0.752873,-1.505744 -1.882182,-2.258515 -2.108041,-1.505747 -3.990224,-1.054024 -5.797119,-0.527012 -2.860815,-0.978735 -4.517136,-0.451723 -5.872306,0.376435 l -1.279883,1.656222 c -9.0344,10.540216 -5.571217,19.951023 8.130925,21.080332 1.505744,-0.527009 2.258618,-1.505744 4.216086,-3.011488 7.829874,-2.78563 18.520567,-2.183334 19.424014,-6.474608 0.0753,-0.828159 0.0753,-1.05402 -2.409191,-0.828159 -0.225862,0 -0.677586,-0.828158 -1.129309,-1.656321 -0.225862,0.828163 -0.225862,1.806895 -0.677585,1.882183 -1.054021,0.0753 -2.18333,0.225862 -3.237354,0.301161 -0.376435,0.0753 -0.903447,-0.602297 -1.279882,-1.505744 -0.301161,0.903447 -0.602297,1.656317 -1.054021,1.656317 -1.355174,0.0753 -2.710245,0.150563 -4.140701,0.150563 -0.301161,0 -0.978736,-0.301161 -1.129309,-1.129309 -0.301161,0.903447 -0.6023,0.978736 -1.054024,0.978736 -1.279882,-0.0753 -2.559765,-0.301161 -3.83965,-0.527012 -0.828159,-0.225862 -1.204594,-0.527009 -1.581033,-1.054021 0.451724,-0.527012 1.054024,-1.05402 2.258618,-1.05402 0.451724,0 0.903447,0 1.279886,-0.0753 0.225862,0 0.301161,0.150562 0.75287,0.978732 0.301161,-0.828159 0.451724,-1.129309 0.752874,-1.129309 0.903447,-0.0753 1.731606,-0.301161 2.635053,-0.527009 0.150563,-0.0753 0.376439,0.225862 0.828162,1.129309 0.0753,-0.828162 0.225862,-1.430459 0.376435,-1.505748 0.978736,-0.225861 1.957368,-0.602296 2.860819,-0.978732 0.75287,0 1.581033,0 2.333903,-0.0753 0.451724,-0.0753 0.6023,0.0753 1.279886,1.505744 0.301161,-1.505744 0.677585,-1.806894 0.978732,-1.806894 0.828162,-0.225862 1.505748,-0.451724 2.258618,-0.903447 0.150563,0 0.451723,0.451723 0.752874,0.903447 0,-0.677585 -0.150563,-1.204597 0,-1.355171 0.0753,-0.0753 0.301161,-0.150562 0.376435,-0.225861 0.376438,0.0753 0.6023,0.225861 0.903447,0.376435 z" style="fill:#ff2a2a;fill-opacity:1;fill-rule:evenodd;stroke:#ff2a2a;stroke-width:.7528671px;stroke-linecap:butt;stroke-linejoin:miter;stroke-miterlimit:4;stroke-dasharray:none;stroke-opacity:1"/></g></svg>