<svg xmlns="http://www.w3.org/2000/svg" xmlns:svg="http://www.w3.org/2000/svg" id="svg4311" width="100%" height="100%" version="1.1" viewBox="0 0 64 64"><metadata id="metadata4316"/><g id="layer5" style="display:inline;opacity:1"><path style="fill:#ff8080;fill-opacity:1;stroke:#000;stroke-width:.73031849;stroke-linecap:round;stroke-miterlimit:4;stroke-dasharray:none;stroke-dashoffset:0;stroke-opacity:1" id="path4168" d="M 12.142857,4.1785731 -8.3375598,4.867448 -15.321516,-14.397712 0.8425794,-26.993111 17.816495,-15.512335 Z" transform="matrix(1.5645444,0.05692315,-0.03980006,1.6319874,29.685873,48.596329)"/><g id="g4219" transform="matrix(0.81450625,0,0,0.81450625,63.590354,5.298284)" style="fill:#ff2a2a"><path id="path4271-6-6" d="m -54.378536,35.168052 c 2.568127,-2.34433 5.221411,-4.018641 8.12056,-3.758324 -4.63496,-6.267543 -3.28227,-11.605543 -0.117705,-17.97591 -8.018641,5.12203 -12.235005,12.519117 -8.002855,21.734234 z" style="display:inline;opacity:1;fill:#ff2a2a;fill-opacity:1;fill-rule:evenodd;stroke:none;stroke-width:.75;stroke-linecap:butt;stroke-linejoin:miter;stroke-miterlimit:4;stroke-dasharray:none;stroke-opacity:1"/><path id="path4271-6-6-9" d="m -21.837717,35.633741 c -2.568127,-2.34433 -5.221411,-4.018641 -8.12056,-3.758324 4.63496,-6.267543 3.28227,-11.605543 0.117705,-17.975909 8.018641,5.122029 12.235005,12.519116 8.002855,21.734233 z" style="display:inline;opacity:1;fill:#ff2a2a;fill-opacity:1;fill-rule:evenodd;stroke:none;stroke-width:.75;stroke-linecap:butt;stroke-linejoin:miter;stroke-miterlimit:4;stroke-dasharray:none;stroke-opacity:1"/><path id="path4312-8" d="m -18.334345,48.442581 c -0.311527,2.584931 -3.29006,3.871298 -10.969626,2.281083 -12.025616,-2.489841 -26.752609,-14.972033 -27.877462,-5.880969 -1.128152,-1.746298 -2.859617,-1.739645 -2.936038,0.249511 -0.07472,1.94452 1.589907,5.250538 1.601172,7.556017 1.027616,-1.711644 4.52723,-2.70331 5.589509,-4.030985 0.694402,-0.86802 0.02292,-3.54832 -2.80641,-2.956148 -0.398482,-8.206132 14.418361,4.288813 25.402589,6.762019 9.971232,2.245043 13.456432,-0.618786 13.667921,-3.887378 0.359854,-5.562149 -8.213906,-9.366079 -8.316642,-7.771428 -0.09935,1.541976 7.263863,2.543069 6.644987,7.678278 z" style="display:inline;opacity:1;fill:#ff2a2a;fill-opacity:1;fill-rule:evenodd;stroke:none;stroke-width:.75;stroke-linecap:butt;stroke-linejoin:miter;stroke-miterlimit:4;stroke-dasharray:none;stroke-opacity:1"/></g><flowRoot id="flowRoot4156" xml:space="preserve" style="fill:#000;stroke:none;stroke-opacity:1;stroke-width:1px;stroke-linejoin:miter;stroke-linecap:butt;fill-opacity:1;font-family:sans-serif;font-style:normal;font-weight:400;font-size:40px;line-height:125%;letter-spacing:0;word-spacing:0"><flowRegion id="flowRegion4158"><rect id="rect4160" width="42.679" height="44.068" x="6.566" y="11.22"/></flowRegion><flowPara id="flowPara4162"/></flowRoot><flowRoot id="flowRoot4168" xml:space="preserve" style="fill:#000;stroke:none;stroke-opacity:1;stroke-width:1px;stroke-linejoin:miter;stroke-linecap:butt;fill-opacity:1;font-family:sans-serif;font-style:normal;font-weight:400;font-size:40px;line-height:125%;letter-spacing:0;word-spacing:0"><flowRegion id="flowRegion4170"><rect id="rect4172" width="63.766" height="63.64" x=".253" y="-.271"/></flowRegion><flowPara id="flowPara4174"/></flowRoot><path style="display:inline;opacity:1;fill:#f9f9f9;fill-opacity:1;fill-rule:evenodd;stroke:none;stroke-width:1px;stroke-linecap:butt;stroke-linejoin:miter;stroke-opacity:1" id="path4281-0" d="M 32.58813,6.8299461 C 43.141652,14.150158 45.68552,16.35403 56.6841,24.88989 47.793699,22.27626 34.541579,9.5048609 32.58813,6.8299461 Z"/><path style="display:inline;opacity:1;fill:#000;fill-opacity:.44859811;fill-rule:evenodd;stroke:none;stroke-width:1px;stroke-linecap:butt;stroke-linejoin:miter;stroke-opacity:1" id="path4283-0" d="M 48.528934,55.968492 C 36.350582,56.180178 24.675347,56.047986 16.557409,55.981412 13.168111,46.178694 9.9127758,35.093102 6.3878346,24.118699 11.878755,36.064798 12.7552,43.733966 21.138496,50.327266 c 6.025034,4.738571 15.106093,4.469879 27.390438,5.641226 z"/></g></svg>