<svg xmlns="http://www.w3.org/2000/svg" xmlns:svg="http://www.w3.org/2000/svg" id="svg4311" width="100%" height="100%" version="1.1" viewBox="0 0 64 64"><metadata id="metadata4316"/><g id="layer5" style="display:inline;opacity:1"><path style="fill:#ff8080;fill-opacity:1;stroke:#000;stroke-width:.73031849;stroke-linecap:round;stroke-miterlimit:4;stroke-dasharray:none;stroke-dashoffset:0;stroke-opacity:1" id="path4168" d="M 12.142857,4.1785731 -8.3375598,4.867448 -15.321516,-14.397712 0.8425794,-26.993111 17.816495,-15.512335 Z" transform="matrix(1.5645444,0.05692315,-0.03980006,1.6319874,29.685873,48.596329)"/><g id="g4182" transform="matrix(2.8531167,0,0,2.8531168,58.2975,-63.857813)"><path style="fill:none;stroke:#ff2a2a;stroke-width:.14816557px;stroke-linecap:butt;stroke-linejoin:miter;stroke-miterlimit:4;stroke-dasharray:none;stroke-opacity:1" id="path4156" d="m -13.471088,34.825836 c -0.253991,-0.804333 -0.127,-1.735666 -3.005638,-2.286"/><path style="fill:none;stroke:#ff2a2a;stroke-width:.14816557px;stroke-linecap:butt;stroke-linejoin:miter;stroke-miterlimit:4;stroke-dasharray:none;stroke-opacity:1" id="path4158-4" d="m -13.661588,34.402503 c 0.783167,-1.164167 0,-2.201333 -1.164149,-3.174986"/><path style="fill:none;stroke:#ff2a2a;stroke-width:.14816557px;stroke-linecap:butt;stroke-linejoin:miter;stroke-miterlimit:4;stroke-dasharray:none;stroke-opacity:1" id="path4160" d="m -13.365254,34.952808 c 0.529166,-1.227638 -0.275167,-2.074305 -1.883814,-2.899805"/><path style="fill:#ff2a2a;fill-opacity:1;fill-rule:evenodd;stroke:#ff2a2a;stroke-width:.27516463px;stroke-linecap:butt;stroke-linejoin:miter;stroke-miterlimit:4;stroke-dasharray:none;stroke-opacity:1" id="path4162" d="m -2.5491727,31.883678 c -0.232833,2.603492 -0.634971,5.270463 -5.8207764,6.032463 -0.4021667,-0.148166 -0.6985,-0.4445 -0.9736667,-0.867833 -2.3706382,-0.148167 -4.0216382,-0.8255 -4.3814632,-2.434138 -0.994828,-0.719667 -0.656164,-1.058334 0.275158,-1.248834 0.656167,-0.423333 1.058333,-0.994833 2.836305,-1.291166 0.7831669,-0.656156 1.7991669,-0.93132 3.0056669,-0.952486 -0.3175,-0.677328 -0.3386667,-1.926153 1.1006384,-1.799154 1.037167,0.105833 0.804333,1.375823 0.084667,1.968484 0.275166,0 0.550333,0.02117 0.889,0.169334 -0.169334,-1.037159 0.296333,-2.264817 2.180166,-2.137818 1.269972,0.08467 1.291139,1.502823 0.402139,2.518815 z"/><path style="fill:none;stroke:#ff2a2a;stroke-width:.14816557px;stroke-linecap:butt;stroke-linejoin:miter;stroke-miterlimit:4;stroke-dasharray:none;stroke-opacity:1" id="path4164" d="m -13.238254,34.212003 c -0.0635,1.121805 0.1905,2.307138 -1.86265,3.598305"/><path style="fill:none;stroke:#ff2a2a;stroke-width:.14816557px;stroke-linecap:butt;stroke-linejoin:miter;stroke-miterlimit:4;stroke-dasharray:none;stroke-opacity:1" id="path4166" d="m -12.687921,34.720003 c 0.677333,1.545138 0.127,2.942138 -0.6985,4.21211"/><path style="fill:none;stroke:#ff2a2a;stroke-width:.14816557px;stroke-linecap:butt;stroke-linejoin:miter;stroke-miterlimit:4;stroke-dasharray:none;stroke-opacity:1" id="path4168-5" d="m -13.111254,33.873336 c 0.635,1.439305 0.232833,2.751639 -0.761992,4.254472"/></g><flowRoot id="flowRoot4156" xml:space="preserve" style="fill:#000;stroke:none;stroke-opacity:1;stroke-width:1px;stroke-linejoin:miter;stroke-linecap:butt;fill-opacity:1;font-family:sans-serif;font-style:normal;font-weight:400;font-size:40px;line-height:125%;letter-spacing:0;word-spacing:0"><flowRegion id="flowRegion4158"><rect id="rect4160" width="42.679" height="44.068" x="6.566" y="11.22"/></flowRegion><flowPara id="flowPara4162"/></flowRoot><flowRoot id="flowRoot4168" xml:space="preserve" style="fill:#000;stroke:none;stroke-opacity:1;stroke-width:1px;stroke-linejoin:miter;stroke-linecap:butt;fill-opacity:1;font-family:sans-serif;font-style:normal;font-weight:400;font-size:40px;line-height:125%;letter-spacing:0;word-spacing:0"><flowRegion id="flowRegion4170"><rect id="rect4172" width="63.766" height="63.64" x=".253" y="-.271"/></flowRegion><flowPara id="flowPara4174"/></flowRoot><path style="display:inline;opacity:1;fill:#f9f9f9;fill-opacity:1;fill-rule:evenodd;stroke:none;stroke-width:1px;stroke-linecap:butt;stroke-linejoin:miter;stroke-opacity:1" id="path4281-0" d="M 32.58813,6.8299461 C 43.141652,14.150158 45.68552,16.35403 56.6841,24.88989 47.793699,22.27626 34.541579,9.5048609 32.58813,6.8299461 Z"/><path style="display:inline;opacity:1;fill:#000;fill-opacity:.44859811;fill-rule:evenodd;stroke:none;stroke-width:1px;stroke-linecap:butt;stroke-linejoin:miter;stroke-opacity:1" id="path4283-0" d="M 48.528934,55.968492 C 36.350582,56.180178 24.675347,56.047986 16.557409,55.981412 13.168111,46.178694 9.9127758,35.093102 6.3878346,24.118699 11.878755,36.064798 12.7552,43.733966 21.138496,50.327266 c 6.025034,4.738571 15.106093,4.469879 27.390438,5.641226 z"/></g></svg>