<svg xmlns="http://www.w3.org/2000/svg" xmlns:svg="http://www.w3.org/2000/svg" id="svg4311" width="100%" height="100%" version="1.1" viewBox="0 0 64 64"><metadata id="metadata4316"/><g id="layer1" transform="translate(0,-988.36216)" style="display:inline"><path style="display:inline;fill:#999;fill-rule:evenodd;stroke:#000;stroke-width:1;stroke-linecap:butt;stroke-linejoin:miter;stroke-miterlimit:4;stroke-dasharray:none;stroke-opacity:1" id="path4140-2" d="m 16.80721,1007.3589 c -0.124417,2.9984 7.178165,3.7261 7.32722,0.4821 0.39836,-8.66985 3.822901,-10.228 8.55332,-10.19857 6.70298,0.0417 7.29777,3.93047 7.22403,8.28917 -0.15355,9.0753 -12.06204,10.9089 -10.51996,24.9061 0.35523,3.2243 7.25537,3.255 6.8774,0.4745 -0.58622,-4.3126 -1.42699,-7.8401 1.84357,-11.1262 3.42168,-3.4378 8.48331,-6.9516 8.84475,-14.7709 0.32679,-7.06975 -3.70265,-13.54367 -13.52844,-13.54816 -12.59432,-0.005 -16.332993,8.52936 -16.62189,15.49196 z"/><ellipse style="display:inline;opacity:1;fill:#999;fill-opacity:1;stroke:#000;stroke-width:1;stroke-linecap:round;stroke-linejoin:miter;stroke-miterlimit:4;stroke-dasharray:none;stroke-dashoffset:0;stroke-opacity:1" id="path4142-2" cx="33.245" cy="1043.449" rx="4.706" ry="4.993"/></g></svg>