<svg xmlns="http://www.w3.org/2000/svg" xmlns:svg="http://www.w3.org/2000/svg" id="svg4311" width="100%" height="100%" version="1.1" viewBox="0 0 64 64"><metadata id="metadata4316"/><g id="layer5" style="display:inline;opacity:1"><path style="fill:#ff8080;fill-opacity:1;stroke:#000;stroke-width:.73031849;stroke-linecap:round;stroke-miterlimit:4;stroke-dasharray:none;stroke-dashoffset:0;stroke-opacity:1" id="path4168" d="M 12.142857,4.1785731 -8.3375598,4.867448 -15.321516,-14.397712 0.8425794,-26.993111 17.816495,-15.512335 Z" transform="matrix(1.5645444,0.05692315,-0.03980006,1.6319874,29.685873,48.596329)"/><flowRoot id="flowRoot4156" xml:space="preserve" style="fill:#000;stroke:none;stroke-opacity:1;stroke-width:1px;stroke-linejoin:miter;stroke-linecap:butt;fill-opacity:1;font-family:sans-serif;font-style:normal;font-weight:400;font-size:40px;line-height:125%;letter-spacing:0;word-spacing:0"><flowRegion id="flowRegion4158"><rect id="rect4160" width="42.679" height="44.068" x="6.566" y="11.22"/></flowRegion><flowPara id="flowPara4162"/></flowRoot><flowRoot id="flowRoot4168" xml:space="preserve" style="fill:#000;stroke:none;stroke-opacity:1;stroke-width:1px;stroke-linejoin:miter;stroke-linecap:butt;fill-opacity:1;font-family:sans-serif;font-style:normal;font-weight:400;font-size:40px;line-height:125%;letter-spacing:0;word-spacing:0"><flowRegion id="flowRegion4170"><rect id="rect4172" width="63.766" height="63.64" x=".253" y="-.271"/></flowRegion><flowPara id="flowPara4174"/></flowRoot><path style="display:inline;opacity:1;fill:#f9f9f9;fill-opacity:1;fill-rule:evenodd;stroke:none;stroke-width:1px;stroke-linecap:butt;stroke-linejoin:miter;stroke-opacity:1" id="path4281-0" d="M 32.58813,6.8299461 C 43.141652,14.150158 45.68552,16.35403 56.6841,24.88989 47.793699,22.27626 34.541579,9.5048609 32.58813,6.8299461 Z"/><path style="display:inline;opacity:1;fill:#000;fill-opacity:.44859811;fill-rule:evenodd;stroke:none;stroke-width:1px;stroke-linecap:butt;stroke-linejoin:miter;stroke-opacity:1" id="path4283-0" d="M 48.528934,55.968492 C 36.350582,56.180178 24.675347,56.047986 16.557409,55.981412 13.168111,46.178694 9.9127758,35.093102 6.3878346,24.118699 11.878755,36.064798 12.7552,43.733966 21.138496,50.327266 c 6.025034,4.738571 15.106093,4.469879 27.390438,5.641226 z"/><g style="display:inline;opacity:1;fill:#ff2a2a;fill-opacity:1" id="g4211" transform="matrix(0.81,0,0,0.81,-40.230283,8.9126501)"><path id="path4271-6-6-5" d="m 73.541119,30.656097 c 2.568127,-2.34433 5.221411,-4.018641 8.12056,-3.758324 C 77.026719,20.63023 78.379409,15.29223 81.543974,8.9218634 73.525333,14.043893 69.308969,21.44098 73.541119,30.656097 Z" style="display:inline;opacity:1;fill:#ff2a2a;fill-opacity:1;fill-rule:evenodd;stroke:none;stroke-width:.75;stroke-linecap:butt;stroke-linejoin:miter;stroke-miterlimit:4;stroke-dasharray:none;stroke-opacity:1"/><path id="path4271-6-6-9-2" d="m 106.08194,31.121786 c -2.56813,-2.34433 -5.22141,-4.018641 -8.120562,-3.758324 4.634962,-6.267543 3.282272,-11.605543 0.117705,-17.9759092 8.018637,5.1220292 12.235007,12.5191162 8.002857,21.7342332 z" style="display:inline;opacity:1;fill:#ff2a2a;fill-opacity:1;fill-rule:evenodd;stroke:none;stroke-width:.75;stroke-linecap:butt;stroke-linejoin:miter;stroke-miterlimit:4;stroke-dasharray:none;stroke-opacity:1"/><path id="path4153" d="m 71.061162,38.192528 c 2.040924,6.071208 4.255717,11.929905 14.974516,7.394822 z" style="fill:#ff2a2a;fill-opacity:1;fill-rule:evenodd;stroke:none;stroke-width:.90750003;stroke-linecap:butt;stroke-linejoin:miter;stroke-miterlimit:4;stroke-dasharray:none;stroke-opacity:1"/><path id="path4153-8" d="m 108.99853,38.140375 c -2.04092,6.071208 -4.25572,11.929904 -14.974516,7.394822 z" style="display:inline;opacity:1;fill:#ff2a2a;fill-opacity:1;fill-rule:evenodd;stroke:none;stroke-width:.90750003;stroke-linecap:butt;stroke-linejoin:miter;stroke-miterlimit:4;stroke-dasharray:none;stroke-opacity:1"/></g></g></svg>