<svg xmlns="http://www.w3.org/2000/svg" xmlns:svg="http://www.w3.org/2000/svg" xmlns:xlink="http://www.w3.org/1999/xlink" id="svg4311" width="100%" height="100%" version="1.1" viewBox="0 0 64 64"><defs id="defs4313"><linearGradient id="linearGradient4147"><stop style="stop-color:#ff8080;stop-opacity:1" id="stop4149" offset="0"/><stop style="stop-color:#f55;stop-opacity:1" id="stop4151" offset="1"/></linearGradient><linearGradient id="linearGradient4153" x1="39.51" x2="25.279" y1="21.662" y2="22.634" gradientUnits="userSpaceOnUse" xlink:href="#linearGradient4147"/></defs><metadata id="metadata4316"/><g id="layer3" style="display:inline"><path style="fill:url(#linearGradient4153);fill-rule:evenodd;stroke:#000;stroke-width:.48924261;stroke-linecap:butt;stroke-linejoin:miter;stroke-miterlimit:4;stroke-dasharray:none;stroke-opacity:1;fill-opacity:1" id="path4151" d="m 43.588282,62.382389 -22.40446,0.07997 c -2.00329,0.0072 -2.10239,-4.885652 0.0352,-4.907278 2.02723,-0.0205 2.7279,-0.999128 2.72423,-2.166714 l -0.1307,-41.62944 c -0.0117,-3.712677 2.42434,-4.6929102 4.5346,-5.4625862 2.90634,-1.060028 0.70999,-5.955109 4.00195,-5.97297 3.80112,-0.02062 1.13169,4.93838 3.93789,5.836781 2.80958,0.89948 4.70769,2.4798482 4.72052,5.4295512 l 0.18213,41.898882 c 0.005,1.040735 0.94901,2.232947 2.28271,2.175805 2.87482,-0.123165 2.24354,4.710406 0.11596,4.718001 z"/><path style="fill:#ffd5d5;fill-rule:evenodd;stroke:none;stroke-width:1px;stroke-linecap:butt;stroke-linejoin:miter;stroke-opacity:1" id="path4134" d="m 34.825011,9.5527768 c 1.756594,-0.1340709 3.098389,0.4878312 4.089571,1.8425592 0.324665,0.635146 0.549814,1.353193 0.705614,2.123941 0.504934,2.497922 0.321441,5.792298 0.06617,9.114975 -0.0024,-3.380651 -0.09094,-6.589417 -0.821865,-8.92225 -0.22093,-0.705128 -0.494816,-1.309321 -0.826394,-1.801875 -0.513922,-1.215011 -1.454298,-2.1509528 -3.213099,-2.3573502 z"/></g></svg>