<svg xmlns="http://www.w3.org/2000/svg" xmlns:svg="http://www.w3.org/2000/svg" id="svg2" width="100%" height="100%" version="1.1" viewBox="0 0 64 64"><metadata id="metadata7"/><g id="layer2" transform="translate(0,-192)" style="display:inline"><path style="display:inline;fill:#999;fill-rule:evenodd;stroke:#000;stroke-width:.5;stroke-linecap:butt;stroke-linejoin:miter;stroke-miterlimit:4;stroke-dasharray:none;stroke-opacity:1" id="path4468-8" d="m 15.225409,194.94737 c -0.10969,1.11335 -0.10688,2.83557 -0.41577,3.30694 -0.43651,0.66605 -1.86931,1.56324 -2.24914,3.11425 -3.1164793,3.65922 -6.8780693,10.22781 -6.4627693,11.40398 0.52746,1.49379 5.9507193,6.53287 9.0940993,9.77371 -1.73244,2.88313 -3.29678,5.84345 0.21907,11.11216 0.19386,4.42633 0.24729,8.88225 0.98424,13.19181 -0.23997,1.56185 -1.49596,4.49827 -1.49596,4.49827 l 6.067801,0.51171 c 0.55022,-2.47213 1.2411,-4.5681 1.6079,-7.52937 1.26517,-5.83064 1.97306,-10.96047 1.7911,-15.82632 2.74921,-1.10727 4.92537,-4.08709 4.97766,-6.86094 0.0935,-4.95639 -3.56227,-6.67641 -4.5756,-10.56528 1.22588,-0.70369 1.30707,-1.68969 1.22571,-2.8328 -0.0818,-1.14964 -1.969,-2.79676 -3.22058,-4.12407 -1.27546,-1.35263 -1.83522,-2.38269 -2.23234,-2.8736 -0.24272,-0.30001 -1.01385,-0.55889 -1.01385,-0.55889 -0.13419,-1.13646 -0.28093,-2.13592 0.34302,-2.99671 z m -0.75478,14.47106 c 1.25847,3.72126 2.06997,7.41313 1.96368,10.64842 -1.64391,-2.43364 -2.78844,-4.65008 -4.96199,-7.3143 1.22606,-1.21483 2.01771,-2.15614 2.48099,-3.20539 z"/><path id="path4163" d="m 47.972408,240.7114 c -7.394936,14.46838 18.808905,13.98612 11.574676,0 l -5.867667,-11.25314 z" style="display:inline;fill:#fbfbf7;fill-opacity:1;fill-rule:evenodd;stroke:#000;stroke-width:.5;stroke-linecap:butt;stroke-linejoin:miter;stroke-miterlimit:4;stroke-dasharray:none;stroke-opacity:1"/><path id="path4165" d="m 37.694907,221.76541 c -6.671524,13.02154 16.960168,12.53925 10.449358,0 l -5.305057,-10.20818 z" style="display:inline;fill:#fbfbf7;fill-opacity:1;fill-rule:evenodd;stroke:#000;stroke-width:.5;stroke-linecap:butt;stroke-linejoin:miter;stroke-miterlimit:4;stroke-dasharray:none;stroke-opacity:1"/></g></svg>