<svg xmlns="http://www.w3.org/2000/svg" xmlns:svg="http://www.w3.org/2000/svg" id="svg2" width="100%" height="100%" version="1.1" viewBox="0 0 64 64"><metadata id="metadata7"/><g id="layer2" transform="translate(0,-192)" style="display:inline"><path style="fill:#999;fill-rule:evenodd;stroke:#000;stroke-width:.5;stroke-linecap:butt;stroke-linejoin:miter;stroke-miterlimit:4;stroke-dasharray:none;stroke-opacity:1" id="path4468" d="m 15.267067,194.96025 c -0.109684,1.11335 -0.106869,2.83557 -0.415762,3.30694 -0.436505,0.66607 -1.869323,1.56324 -2.249139,3.11426 -3.1164809,3.65922 -6.8780799,10.22781 -6.4627699,11.40399 0.527451,1.49377 5.9507159,6.53285 9.0940889,9.7737 -1.732445,2.88312 -3.296772,5.84346 0.219081,11.11217 0.193848,4.42631 0.247296,8.88223 0.984246,13.19179 -0.239984,1.56185 -1.49596,4.49827 -1.49596,4.49827 l 6.067787,0.51171 c 0.550217,-2.47212 1.241116,-4.5681 1.607906,-7.52937 1.26517,-5.83063 1.863414,-11.21631 1.681448,-16.08217 -0.09159,-5.61478 1.514053,-11.37451 0.693347,-16.26994 0.596484,5.95544 8.031097,4.65248 6.902517,-0.67211 -0.655752,-3.09381 -7.82744,-5.85788 -9.079032,-7.18519 -1.275447,-1.35263 -1.835203,-2.38268 -2.232339,-2.87359 -0.242708,-0.30002 -1.01384,-0.55889 -1.01384,-0.55889 -0.134205,-1.13647 -0.280915,-2.13593 0.343013,-2.99672 z m -0.754785,14.47107 c 1.258479,3.72125 2.06999,7.41313 1.963707,10.64841 -1.643917,-2.43364 -2.78844,-4.65005 -4.962012,-7.31429 1.226056,-1.21483 2.017716,-2.15615 2.481006,-3.2054 z"/><path id="path4163" d="m 48.036403,240.72499 c -7.394936,14.46838 18.808905,13.98612 11.574676,0 l -5.867667,-11.25314 z" style="display:inline;fill:#fbfbf7;fill-opacity:1;fill-rule:evenodd;stroke:#000;stroke-width:.5;stroke-linecap:butt;stroke-linejoin:miter;stroke-miterlimit:4;stroke-dasharray:none;stroke-opacity:1"/><path id="path4165" d="m 37.76956,221.74883 c -6.671524,13.02154 16.960168,12.53925 10.449358,0 l -5.305057,-10.20818 z" style="display:inline;fill:#fbfbf7;fill-opacity:1;fill-rule:evenodd;stroke:#000;stroke-width:.5;stroke-linecap:butt;stroke-linejoin:miter;stroke-miterlimit:4;stroke-dasharray:none;stroke-opacity:1"/></g></svg>