<svg xmlns="http://www.w3.org/2000/svg" xmlns:svg="http://www.w3.org/2000/svg" id="svg2" width="100%" height="100%" version="1.1" viewBox="0 0 64 64"><metadata id="metadata7"/><g id="layer2" transform="translate(0,-192)" style="display:inline"><path style="display:inline;fill:#999;fill-rule:evenodd;stroke:#000;stroke-width:.5;stroke-linecap:butt;stroke-linejoin:miter;stroke-miterlimit:4;stroke-dasharray:none;stroke-opacity:1" id="path4468-8-4" d="m 15.265896,194.94816 c -0.10968,1.11335 -0.10688,2.83556 -0.41577,3.30694 -0.4365,0.66606 -1.86932,1.56323 -2.24914,3.11425 -3.1164797,3.65923 -6.8780798,10.22781 -6.4627698,11.40398 0.52745,1.49378 5.9507098,6.53287 9.0940898,9.77371 -1.73245,2.88313 -3.29678,5.84346 0.21907,11.11216 0.19387,4.42633 0.2473,8.88225 0.98425,13.1918 -0.23997,1.56186 -1.49595,4.49827 -1.49595,4.49827 l 6.06778,0.51171 c 0.55022,-2.47211 1.24111,-4.56809 1.6079,-7.52936 0.95504,-5.93401 1.76004,-10.49265 1.78485,-15.28098 5.61804,-0.3319 6.7925,-4.81336 6.84479,-7.58721 0.0934,-4.95638 -3.56227,-6.88316 -6.43647,-10.38435 1.22586,-0.70369 1.30708,-1.68969 1.22572,-2.8328 -0.0818,-1.14964 -1.96902,-2.79676 -3.22059,-4.12408 -1.27547,-1.35262 -1.83521,-2.38268 -2.23235,-2.87359 -0.2427,-0.30001 -1.01383,-0.55888 -1.01383,-0.55888 -0.13422,-1.13647 -0.28093,-2.13594 0.343,-2.99673 z m -0.7548,14.47106 c 1.25848,3.72126 2.07,7.41314 1.96371,10.64841 -1.64392,-2.43364 -2.78844,-4.65006 -4.96202,-7.31429 1.22607,-1.21482 2.01772,-2.15615 2.48101,-3.20539 z"/><path id="path4163" d="m 47.99486,240.72339 c -7.394936,14.46838 18.808905,13.98612 11.574676,0 l -5.867667,-11.25314 z" style="fill:#fbfbf7;fill-opacity:1;fill-rule:evenodd;stroke:#000;stroke-width:.5;stroke-linecap:butt;stroke-linejoin:miter;stroke-miterlimit:4;stroke-dasharray:none;stroke-opacity:1"/><path id="path4165" d="m 37.717359,221.7774 c -6.671524,13.02154 16.960168,12.53925 10.449358,0 L 42.86166,211.56922 Z" style="fill:#fbfbf7;fill-opacity:1;fill-rule:evenodd;stroke:#000;stroke-width:.5;stroke-linecap:butt;stroke-linejoin:miter;stroke-miterlimit:4;stroke-dasharray:none;stroke-opacity:1"/><path id="path4167" d="m 49.195011,206.47665 c -5.948105,11.81582 15.352556,11.41399 9.484774,0 l -4.822708,-9.1633 z" style="fill:#fbfbf7;fill-opacity:1;fill-rule:evenodd;stroke:#000;stroke-width:.5;stroke-linecap:butt;stroke-linejoin:miter;stroke-miterlimit:4;stroke-dasharray:none;stroke-opacity:1"/></g></svg>