<svg xmlns="http://www.w3.org/2000/svg" xmlns:svg="http://www.w3.org/2000/svg" id="svg4311" width="100%" height="100%" version="1.1" viewBox="0 0 64 64"><metadata id="metadata4316"/><g id="layer5" style="display:inline"><g id="g4199" transform="matrix(0.7974063,0,0,0.82717333,6.6297757,4.9432701)"><path id="path4142" d="m 36.229063,31.03819 c 2.281268,6.381328 9.869521,5.263501 7.850635,13.872776 -1.882287,8.026769 -15.70783,14.094817 -15.316569,3.502107 0.231451,-6.266144 3.316719,-16.66516 -1.798777,-15.528937 -4.648277,1.032445 -4.324306,5.365359 -8.024753,5.055581 C 16.51902,37.737081 11.792251,35.267629 14.586763,31.162708 16.399759,28.499559 26.80436,30.075601 24.688011,27.708937 23.044973,25.399161 20.011801,25.21517 13.313517,24.893573 -0.97416495,24.207593 11.812602,3.5683 18.00706,9.5602096 c 3.840604,3.7150224 4.820205,9.8501764 10.308405,12.0925434 5.310771,1.429476 0.123601,-8.000233 0.75148,-10.863843 1.208199,-5.5103157 11.84829,-1.9114135 11.48925,0.828639 -0.378938,2.891897 -8.484762,10.111969 -4.504735,11.111097 6.542892,1.624681 4.636983,-3.705177 9.546031,-3.318782 3.811681,0.300019 9.695952,10.378675 3.227551,12.668357 C 42.249923,34.40568 34.704821,26.87328 36.229063,31.03819 Z" style="display:inline;fill:#fbfbf7;fill-opacity:1;fill-rule:evenodd;stroke:#000;stroke-width:1;stroke-linecap:butt;stroke-linejoin:miter;stroke-miterlimit:4;stroke-dasharray:none;stroke-opacity:1"/><path id="path4146" d="M 22.271952,42.833312 C 20.596116,42.296169 7.232823,50.550295 6.1973351,55.835953 5.6403362,58.678986 10.768299,60.17965 12.74778,59.109834 19.00038,55.730596 23.628379,43.268071 22.271952,42.833312 Z" style="display:inline;fill:#fbfbf7;fill-opacity:1;fill-rule:evenodd;stroke:#000;stroke-width:.99999994px;stroke-linecap:butt;stroke-linejoin:miter;stroke-opacity:1"/><path id="path4146-9" d="M 42.442487,16.11333 C 43.419056,17.059933 53.441655,15.359479 55.046644,11.800324 55.90993,9.885932 52.896212,7.0948576 51.438835,7.2339824 46.835407,7.6734442 41.652046,15.347145 42.442487,16.11333 Z" style="display:inline;fill:#fbfbf7;fill-opacity:1;fill-rule:evenodd;stroke:#000;stroke-width:.99999994px;stroke-linecap:butt;stroke-linejoin:miter;stroke-opacity:1"/><path id="path4146-9-4" d="m 47.165902,36.114771 c -0.400704,0.944428 6.977894,8.619944 11.468058,9.268251 2.415163,0.348711 3.520705,-2.542827 2.556644,-3.678023 -3.045201,-3.58576 -13.700374,-6.354657 -14.024702,-5.590228 z" style="display:inline;fill:#fbfbf7;fill-opacity:1;fill-rule:evenodd;stroke:#000;stroke-width:.99999994px;stroke-linecap:butt;stroke-linejoin:miter;stroke-opacity:1"/><path id="path4146-0" d="M 5.3393832,41.060552 C 8.3316305,44.772927 14.15773,41.982572 10.367967,37.229594 7.6181268,33.78085 2.5352338,37.581551 5.3393832,41.060552 Z" style="display:inline;fill:#fbfbf7;fill-opacity:1;fill-rule:evenodd;stroke:#000;stroke-width:.99999988px;stroke-linecap:butt;stroke-linejoin:miter;stroke-opacity:1"/></g></g></svg>