<svg xmlns="http://www.w3.org/2000/svg" xmlns:svg="http://www.w3.org/2000/svg" id="svg4311" width="100%" height="100%" version="1.1" viewBox="0 0 64 64"><metadata id="metadata4316"/><g id="layer1" transform="translate(0,-988.36216)" style="display:inline"><path style="fill:#ff8080;fill-rule:evenodd;stroke:#000;stroke-width:.6381408;stroke-linecap:butt;stroke-linejoin:miter;stroke-miterlimit:4;stroke-dasharray:none;stroke-opacity:1;fill-opacity:1" id="path4135" d="m 7.9766224,1024.2956 c 16.4155616,-7.6466 14.3300766,-5.0774 2.2356926,-19.7211 -1.7897206,-2.167 1.798099,-5.63468 4.46452,-2.9812 15.0049,14.9317 19.630383,20.9587 -4.576323,28.2689 -4.6206896,1.3954 -5.6091816,-3.9432 -2.1238896,-5.5666 z"/><path style="display:inline;fill:#ff8080;fill-rule:evenodd;stroke:#000;stroke-width:.6381408;stroke-linecap:butt;stroke-linejoin:miter;stroke-miterlimit:4;stroke-dasharray:none;stroke-opacity:1;fill-opacity:1" id="path4135-4" d="m 28.768106,995.20304 c 7.690674,16.39506 5.115924,14.31646 19.727054,2.18269 2.16218,-1.7956 5.639467,1.78284 2.993253,4.45657 -14.891363,15.045 -20.905896,19.6867 -28.281209,-4.50047 -1.407771,-4.61696 3.928112,-5.61974 5.560902,-2.13879 z"/><path style="display:inline;fill:#ff8080;fill-rule:evenodd;stroke:#000;stroke-width:.6381408;stroke-linecap:butt;stroke-linejoin:miter;stroke-miterlimit:4;stroke-dasharray:none;stroke-opacity:1;fill-opacity:1" id="path4135-3" d="m 56.852564,1015.9191 c -16.44803,7.5763 -14.351596,5.0161 -2.319834,19.7114 1.78045,2.1746 -1.822151,5.627 -4.47722,2.9622 -14.94103,-14.9957 -19.540732,-21.0424 4.696939,-28.2492 4.626632,-1.3757 5.592318,3.9671 2.100115,5.5756 z"/><path style="display:inline;fill:#ff8080;fill-rule:evenodd;stroke:#000;stroke-width:.6381408;stroke-linecap:butt;stroke-linejoin:miter;stroke-miterlimit:4;stroke-dasharray:none;stroke-opacity:1;fill-opacity:1" id="path4135-4-3" d="m 36.292536,1044.1349 c -7.620645,-16.4275 -5.05478,-14.338 -19.717568,-2.2667 -2.169818,1.7863 -5.631786,-1.8071 -2.974219,-4.4693 14.955467,-14.9813 20.989749,-19.5973 28.261755,4.6211 1.388073,4.6228 -3.95205,5.6028 -5.569968,2.1149 z"/></g></svg>