<svg xmlns="http://www.w3.org/2000/svg" xmlns:svg="http://www.w3.org/2000/svg" id="svg4311" width="100%" height="100%" version="1.1" viewBox="0 0 64 64"><metadata id="metadata4316"/><g id="layer5" style="display:inline"><path style="display:inline;fill:#f06;fill-opacity:1;fill-rule:evenodd;stroke:#000;stroke-width:1px;stroke-linecap:butt;stroke-linejoin:miter;stroke-opacity:1" id="path4285" d="M 5.6499846,24.726394 C -2.2763197,12.941561 15.13234,6.369024 21.564465,15.577917 19.690396,4.5237886 35.915785,-1.6633271 38.959328,12.570604 41.294108,23.489834 29.301686,27.708585 31.609232,44.373461 22.78603,30.233053 11.824765,33.907055 5.6499846,24.726394 Z"/><path style="display:inline;fill:#c0f;fill-opacity:1;fill-rule:evenodd;stroke:#000;stroke-width:1;stroke-linecap:butt;stroke-linejoin:miter;stroke-miterlimit:4;stroke-dasharray:none;stroke-opacity:1" id="path4293-3" d="m 10.419933,48.630908 c -2.9237858,-5.019428 4.634918,-7.259204 7.019961,-3.330817 -0.401615,-4.565648 6.645473,-6.678245 7.427982,-0.783098 0.600286,4.522329 -4.595907,5.939009 -4.208399,12.808774 -3.218815,-6.005095 -7.96184,-4.784606 -10.239544,-8.694859 z"/><path style="display:inline;fill:#fff;fill-opacity:.78504675;fill-rule:evenodd;stroke:none;stroke-width:1px;stroke-linecap:butt;stroke-linejoin:miter;stroke-opacity:1" id="path4295-0" d="m 23.646317,47.155471 c -0.493963,-3.284933 -2.354179,-4.085912 -5.106652,-3.075128 2.322184,-2.216921 5.832705,-1.306044 5.106652,3.075128 z"/><path style="display:inline;fill:#fff;fill-opacity:.78504675;fill-rule:evenodd;stroke:none;stroke-width:1px;stroke-linecap:butt;stroke-linejoin:miter;stroke-opacity:1" id="path4287" d="M 35.702107,12.338833 C 32.972215,6.9760354 28.748016,7.2366805 23.64716,11.504992 27.236529,5.4919962 34.893823,3.9380319 35.702107,12.338833 Z"/><path style="display:inline;fill:#95f;fill-opacity:1;fill-rule:evenodd;stroke:#000;stroke-width:1;stroke-linecap:butt;stroke-linejoin:miter;stroke-miterlimit:4;stroke-dasharray:none;stroke-opacity:1" id="path4289" d="m 39.127668,49.764649 c -0.218469,-4.353421 5.977848,-3.222491 6.217554,0.218215 1.404563,-3.176904 7.190515,-2.13877 5.564376,2.054766 -1.247456,3.216975 -5.461545,2.35766 -7.728875,7.062658 -0.06317,-5.111518 -3.88286,-5.944221 -4.053055,-9.335639 z"/><path style="display:inline;fill:#fff;fill-opacity:.78504675;fill-rule:evenodd;stroke:none;stroke-width:1px;stroke-linecap:butt;stroke-linejoin:miter;stroke-opacity:1" id="path4291" d="m 49.501331,53.115414 c 0.864994,-2.356836 -0.159489,-3.534808 -2.48809,-3.816776 2.469447,-0.669714 4.625126,1.153647 2.48809,3.816776 z"/><path style="display:inline;fill:#f0c;fill-opacity:1;fill-rule:evenodd;stroke:#000;stroke-width:1;stroke-linecap:butt;stroke-linejoin:miter;stroke-miterlimit:4;stroke-dasharray:none;stroke-opacity:1" id="path4297" d="m 39.54029,26.336037 c -0.327189,-7.283737 8.952726,-5.391571 9.311722,0.365097 2.103544,-5.315299 10.768876,-3.57839 8.333489,3.437842 C 55.317247,35.521318 49.006017,34.083593 45.61035,41.955555 45.51574,33.40344 39.795183,32.01024 39.54029,26.336037 Z"/><path style="display:inline;fill:#fff;fill-opacity:.78504675;fill-rule:evenodd;stroke:none;stroke-width:1px;stroke-linecap:butt;stroke-linejoin:miter;stroke-opacity:1" id="path4299" d="m 54.755182,32.054304 c 1.295458,-3.943238 -0.238859,-5.91411 -3.72629,-6.385872 3.698368,-1.120503 6.926822,1.930173 3.72629,6.385872 z"/></g></svg>