<svg xmlns="http://www.w3.org/2000/svg" xmlns:svg="http://www.w3.org/2000/svg" xmlns:xlink="http://www.w3.org/1999/xlink" id="svg2" version="1.1" viewBox="0 0 256 256"><defs id="defs4"><linearGradient id="linearGradient4353" x1="159.57" x2="75.049" y1="168.301" y2="167.229" gradientTransform="matrix(0,1.0946948,-1.5144894,0,375.34899,16.09885)" gradientUnits="userSpaceOnUse" xlink:href="#twinComets2"/><linearGradient id="twinComets2"><stop id="stop4365" offset="0" style="stop-color:#f46e16;stop-opacity:1"/><stop id="stop4367" offset="1" style="stop-color:#f4900c;stop-opacity:1"/></linearGradient><linearGradient id="linearGradient4337" x1="150" x2="129.286" y1="167.429" y2="166.357" gradientTransform="matrix(0,1.0946948,-1.5144894,0,374.61142,16.720839)" gradientUnits="userSpaceOnUse" xlink:href="#twinComets1"/><linearGradient id="twinComets1"><stop id="stop4371" offset="0" style="stop-color:#ffb14d;stop-opacity:1"/><stop id="stop4373" offset="1" style="stop-color:#ffcc4d;stop-opacity:1"/></linearGradient></defs><metadata id="metadata7"/><g id="layer2" style="display:inline"><g id="g4157" transform="matrix(0.729,0,0,0.729,33.983394,96.290821)"><path id="path4323-9-3" d="M 90.933844,99.277046 C 64.521203,120.03817 62.875643,181.7577 119.31505,188.54156 c 34.25909,4.11781 70.17881,-14.99491 62.47471,-63.53812 -3.11761,22.11152 -26.8651,18.36101 -25.19921,-1.11653 1.26514,-14.79185 17.49556,-36.452228 -20.61077,-82.116141 22.87966,43.948807 -19.58457,52.200499 -11.84927,21.622484 -11.68285,6.594262 -19.48081,22.705828 -15.35786,41.520787 4.00864,18.29317 -5.78858,21.58748 -11.89418,20.42897 -7.341053,-1.39294 -14.007044,-10.28574 -5.944626,-26.065964 z" style="display:inline;fill:url(#linearGradient4353);fill-opacity:1;fill-rule:evenodd;stroke:none;stroke-width:1.20000005;stroke-linecap:butt;stroke-linejoin:miter;stroke-miterlimit:4;stroke-dasharray:none;stroke-opacity:1"/><path id="path4325-94-4" d="m 83.848829,171.24191 c 0.421612,-11.93165 6.998551,-26.61675 17.383201,-33.39622 -2.280077,44.26491 36.03164,12.39371 25.7132,-35.05408 28.02271,40.95377 4.92888,62.1143 19.1528,65.63311 5.4504,1.34834 7.45271,-5.67796 3.19503,-20.42173 10.50272,9.53648 13.66782,19.44917 11.68403,32.17859 -13.32484,8.45039 -27.74052,10.21274 -42.81068,8.24474 -19.326917,-2.52393 -29.619986,-11.25243 -34.317581,-17.18441 z" style="display:inline;fill:url(#linearGradient4337);fill-opacity:1;fill-rule:evenodd;stroke:none;stroke-width:1px;stroke-linecap:butt;stroke-linejoin:miter;stroke-opacity:1"/></g><path style="display:inline;fill:#f47d12;fill-opacity:1;fill-rule:evenodd;stroke:none;stroke-width:2.4253366;stroke-linecap:butt;stroke-linejoin:miter;stroke-miterlimit:4;stroke-dasharray:none;stroke-opacity:1" id="path4194" d="m 76.382968,123.81989 0.11455,-16.4402 52.331562,-23.981962 54.22262,23.238042 -0.12304,17.64491 -54.18706,-24.559812 z"/><path style="display:inline;fill:#ffa121;fill-opacity:1;fill-rule:evenodd;stroke:none;stroke-width:2.4253366;stroke-linecap:butt;stroke-linejoin:miter;stroke-miterlimit:4;stroke-dasharray:none;stroke-opacity:1" id="path4194-6" d="m 76.807238,95.376578 0.11455,-16.44034 52.331552,-23.982012 54.22261,23.238082 -0.12303,17.64507 -54.18704,-24.55997 z"/><path style="display:inline;fill:#fec252;fill-opacity:1;fill-rule:evenodd;stroke:none;stroke-width:2.4253366;stroke-linecap:butt;stroke-linejoin:miter;stroke-miterlimit:4;stroke-dasharray:none;stroke-opacity:1" id="path4194-6-0" d="m 76.948318,67.427388 0.11454,-16.440352 52.331572,-23.982 54.2226,23.23807 -0.12303,17.645082 -54.18703,-24.559972 z"/></g></svg>