<svg xmlns="http://www.w3.org/2000/svg" xmlns:svg="http://www.w3.org/2000/svg" id="svg4311" width="100%" height="100%" version="1.1" viewBox="0 0 64 64"><metadata id="metadata4316"/><g id="layer5" style="display:inline"><g id="g4274" transform="matrix(1.25,0,0,1.25,-3.1176644,-6.8313653)"><path id="path4208" d="m 14.362733,12.977012 c 6.125257,9.9638 14.277125,12.7351 15.321236,18.0777 1.687677,8.6355 -6.142772,13.3114 -9.880049,14.283 -2.813449,0.7315 -2.851196,4.0533 -3.114364,6.3362 -15.721008,-6.4487 -17.633602,-29.7098 -2.326823,-38.6969 z" style="display:inline;fill:gray;fill-opacity:1;fill-rule:evenodd;stroke:#000;stroke-width:.405;stroke-linecap:butt;stroke-linejoin:round;stroke-miterlimit:4;stroke-dasharray:none;stroke-opacity:1"/><path id="path4210" d="m 28.037294,27.850812 c -1.177058,2.3682 0.0581,6.5946 1.682472,7.5711 0.182604,-1.4439 -3.85e-4,-2.834 0.08949,-4.2777 -0.99792,-1.7872 -0.913234,-2.543 -1.771966,-3.2934 z" style="display:inline;fill:#666;fill-opacity:1;fill-rule:evenodd;stroke:#000;stroke-width:.405;stroke-linecap:butt;stroke-linejoin:miter;stroke-miterlimit:4;stroke-dasharray:none;stroke-opacity:1"/><path id="path4212" d="m 29.053175,29.497412 c -0.22287,1.281 0.0426,2.468 0.769641,3.5977 2.162413,-1.0827 1.369309,-3.4876 -0.769641,-3.5977 z" style="display:inline;fill:#4d4d4d;fill-opacity:1;fill-rule:evenodd;stroke:#000;stroke-width:.405;stroke-linecap:butt;stroke-linejoin:miter;stroke-miterlimit:4;stroke-dasharray:none;stroke-opacity:1"/><path id="path4214" d="m 16.19645,44.966712 c -3.16508,-1.3701 -5.977753,-3.3745 -7.138125,-8.3531" style="display:inline;fill:none;fill-rule:evenodd;stroke:#000;stroke-width:.405;stroke-linecap:round;stroke-linejoin:miter;stroke-miterlimit:4;stroke-dasharray:none;stroke-opacity:1"/></g><path style="display:inline;fill:#f9f9f9;fill-rule:evenodd;stroke:#000;stroke-width:1;stroke-linecap:butt;stroke-linejoin:miter;stroke-miterlimit:4;stroke-dasharray:none;stroke-opacity:1" id="path4218" d="m 49.068588,12.772978 -9.931202,24.50788 c -10.151583,25.051464 30.262773,23.659911 20.342948,0.15822 z"/><path style="fill:#ff8080;fill-rule:evenodd;stroke:#000;stroke-width:1px;stroke-linecap:butt;stroke-linejoin:miter;stroke-opacity:1" id="path4282" d="m 45.863533,25.322653 0.919008,16.500136 c 0.13183,2.366915 4.712704,2.469423 4.821429,0.04464 l 0.737768,-16.45361 c 0.141624,-3.158494 -6.609373,-2.446179 -6.478205,-0.09117 z"/><ellipse style="opacity:1;fill:#ff8080;fill-opacity:1;stroke:#000;stroke-width:1.05068195;stroke-linecap:round;stroke-linejoin:round;stroke-miterlimit:4;stroke-dasharray:none;stroke-dashoffset:0;stroke-opacity:1" id="path4284" cx="49.283" cy="49.897" rx="3.591" ry="3.524"/></g></svg>