<svg xmlns="http://www.w3.org/2000/svg" xmlns:svg="http://www.w3.org/2000/svg" id="svg4311" width="100%" height="100%" version="1.1" viewBox="0 0 64 64"><metadata id="metadata4316"/><g id="layer1" transform="translate(0,-988.36216)" style="display:inline"><path style="fill:#ff2a2a;fill-rule:evenodd;stroke:#000;stroke-width:1px;stroke-linecap:butt;stroke-linejoin:miter;stroke-opacity:1" id="path4141" d="M 31.457965,1051.0264 C 18.21655,1038.4325 8.3534052,1022.0765 8.5114441,1001.5981 c 3.1620629,-0.046 14.5022089,-5.50344 22.8654759,-11.77063 1.742502,1.20192 3.555439,2.36544 5.366584,3.46123 l -1.167747,12.3998 -10.180088,13.7654 -1.925717,19.0887 11.404904,-15.5146 13.788389,-10.0162 2.747993,-12.3487 c 1.083142,0.3846 1.947728,0.6159 2.525204,0.6658 0.04103,20.6169 -9.25328,36.1747 -22.478477,49.6975 z"/><path style="display:inline;fill:#fff;fill-opacity:.78504675;fill-rule:evenodd;stroke:none;stroke-width:1px;stroke-linecap:butt;stroke-linejoin:miter;stroke-opacity:1" id="path4163-2-4" d="m 31.694648,990.95837 c 2.365107,1.36831 4.145194,2.81703 4.145194,2.81703 0,0 -0.391722,5.54122 -0.978067,11.2885 0.491932,-10.36042 -0.254417,-11.39725 -3.167127,-14.10553 z"/><path style="display:inline;fill:#000;fill-opacity:.14953272;fill-rule:evenodd;stroke:none;stroke-width:1px;stroke-linecap:butt;stroke-linejoin:miter;stroke-opacity:1" id="path4163-2-4-1" d="m 8.730249,1001.8539 c 3.70386,-0.9486 16.198599,-7.33585 22.592194,-11.80544 -0.02206,4.41125 0.07239,12.07314 0.165435,20.99054 l -6.147998,8.4211 -1.858231,18.671 8.144193,-10.6062 c 0.04383,8.2893 0.03646,16.6458 -0.09562,23.8256 -20.574621,-21.586 -22.8554191,-38.9526 -22.799977,-49.4966 z"/><path style="display:inline;fill:#fff;fill-opacity:.78504675;fill-rule:evenodd;stroke:none;stroke-width:1px;stroke-linecap:butt;stroke-linejoin:miter;stroke-opacity:1" id="path4163-2-4-2" d="m 51.804159,1001.538 1.377427,0.5734 c 0,0 0.08783,6.01 -1.529709,12.8416 0.625892,-8.5968 0.854082,-12.1476 0.152282,-13.415 z"/></g></svg>