<svg xmlns="http://www.w3.org/2000/svg" xmlns:svg="http://www.w3.org/2000/svg" id="svg4311" width="100%" height="100%" version="1.1" viewBox="0 0 64 64"><metadata id="metadata4316"/><g id="layer1" transform="translate(0,-988.36216)" style="display:inline"><path style="display:inline;fill:#ff2a2a;fill-rule:evenodd;stroke:#000;stroke-width:.92332578;stroke-linecap:butt;stroke-linejoin:miter;stroke-miterlimit:4;stroke-dasharray:none;stroke-opacity:1" id="path4161-0" d="m 34.379375,1034.2591 3.387145,-4.0768 -11.934762,0.2128 15.650161,-14.0835 -17.66096,0.2756 -3.148136,2.9293 12.669799,-0.205 -17.896474,15.2108 z"/><path style="display:inline;fill:#fff;fill-opacity:.78504675;fill-rule:evenodd;stroke:none;stroke-width:1;stroke-linecap:butt;stroke-linejoin:miter;stroke-miterlimit:4;stroke-dasharray:none;stroke-opacity:1" id="path4163-2-4-8-3" d="m 39.549149,1017.0921 c -2.667358,-0.089 -12.75682,0.1928 -15.30563,0.2098 6.057673,0.707 14.933213,0.1444 15.30563,-0.2098 z"/><path style="display:inline;fill:#ff2a2a;fill-rule:evenodd;stroke:#000;stroke-width:.82172948;stroke-linecap:butt;stroke-linejoin:miter;stroke-miterlimit:4;stroke-dasharray:none;stroke-opacity:1" id="path4161" d="m 16.029688,1049.0323 2.620875,-2.7392 -8.573918,0.1985 11.887775,-9.4812 -12.6857947,0.2673 -2.3958271,1.9718 9.1010338,-0.1968 -13.5523211,10.2448 z"/><path style="display:inline;fill:#fff;fill-opacity:.78504675;fill-rule:evenodd;stroke:none;stroke-width:1px;stroke-linecap:butt;stroke-linejoin:miter;stroke-opacity:1" id="path4163-2-4-8" d="m 20.54109,1037.5409 c -1.909869,-0.047 -9.1629,0.189 -10.9926302,0.2124 4.3137622,0.4436 10.7088302,0.026 10.9926302,-0.2124 z"/><path style="display:inline;fill:#ff2a2a;fill-rule:evenodd;stroke:#000;stroke-width:1;stroke-linecap:butt;stroke-linejoin:miter;stroke-miterlimit:4;stroke-dasharray:none;stroke-opacity:1" id="path4161-0-2" d="m 52.758448,1013.7868 3.756759,-5.1816 -13.117907,0.4197 17.318023,-17.95048 -19.411442,0.57151 -3.484459,3.73228 13.925658,-0.41906 -19.796208,19.39975 z"/><path style="display:inline;fill:#fff;fill-opacity:.78504675;fill-rule:evenodd;stroke:none;stroke-width:1;stroke-linecap:butt;stroke-linejoin:miter;stroke-miterlimit:4;stroke-dasharray:none;stroke-opacity:1" id="path4163-2-4-8-3-2" d="m 58.584654,992.08291 c -2.930634,-0.0786 -14.021153,0.40479 -16.822408,0.45865 6.651326,0.81412 16.410149,-0.007 16.822408,-0.45865 z"/></g></svg>