<svg xmlns="http://www.w3.org/2000/svg" xmlns:svg="http://www.w3.org/2000/svg" id="svg4311" width="100%" height="100%" version="1.1" viewBox="0 0 64 64"><metadata id="metadata4316"/><g id="layer1" transform="translate(0,-988.36216)" style="display:inline"><path style="fill:#ff8080;fill-rule:evenodd;stroke:#000;stroke-width:1px;stroke-linecap:butt;stroke-linejoin:miter;stroke-opacity:1" id="path4139" d="M 31.955527,1049.0141 C 13.918731,1048.7669 3.6338955,1033.8808 3.6239221,1020.6307 3.6138075,1007.1931 14.140285,992.2039 31.99658,991.99292 c 13.691127,-0.16177 27.515766,10.10628 28.28427,29.78688 0.03564,0.9126 2.740039,0 2.740039,0 l -4.065864,6.4302 -4.110058,-6.5628 c 0,0 2.833136,0.9085 2.740038,0 -1.7275,-16.8587 -12.834238,-26.28618 -25.544231,-26.25132 -14.434154,0.0396 -24.9122412,13.01032 -24.8813182,25.32322 0.030451,12.125 8.5475342,23.4063 24.9728472,24.9804 0.763098,0.073 0.589754,3.3251 -0.176776,3.3146 z"/><path style="display:inline;fill:#faa;fill-rule:evenodd;stroke:#000;stroke-width:.90727377;stroke-linecap:butt;stroke-linejoin:miter;stroke-miterlimit:4;stroke-dasharray:none;stroke-opacity:1" id="path4143-1" d="m 21.604319,1033.9756 c 0,0 12.877594,-8.9797 13.598059,-10.3841 0.879855,-1.715 0.238857,-25.22178 0.238857,-25.22178 0.01124,-1.00651 -5.518992,-1.13472 -5.517591,-0.2195 0,0 0.572021,22.34898 0.0658,22.97458 -0.862797,1.0664 -11.635336,9.0658 -11.635336,9.0658 -0.674637,0.5871 2.197156,4.6841 3.250169,3.785 z"/><path style="fill:#ff2a2a;fill-rule:evenodd;stroke:#000;stroke-width:1px;stroke-linecap:butt;stroke-linejoin:miter;stroke-opacity:1" id="path4160" d="m 43.35225,1023.2997 c 1.218924,-2.0388 6.063438,-1.9992 7.522747,-0.125 1.228743,1.5781 -0.59713,18.0931 -1.867743,18.8419 -1.197214,0.7056 -2.438216,0.5663 -3.20459,0.081 -1.3288,-0.8414 -3.344495,-17.3025 -2.450414,-18.7979 z"/><ellipse style="opacity:1;fill:#ff2a2a;fill-opacity:1;stroke:#000;stroke-width:1;stroke-linecap:round;stroke-linejoin:round;stroke-miterlimit:4;stroke-dasharray:none;stroke-dashoffset:0;stroke-opacity:1" id="path4162" cx="47.281" cy="1047.55" rx="3.281" ry="3.125"/></g></svg>