<svg xmlns="http://www.w3.org/2000/svg" xmlns:svg="http://www.w3.org/2000/svg" id="svg2" width="100%" height="100%" version="1.1" viewBox="0 0 64 64"><metadata id="metadata7"/><g id="layer2" transform="translate(0,-192)" style="display:inline"><path style="fill:#999;fill-rule:evenodd;stroke:#000;stroke-width:.5;stroke-linecap:butt;stroke-linejoin:miter;stroke-miterlimit:4;stroke-dasharray:none;stroke-opacity:1" id="path4468" d="m 15.267067,194.96025 c -0.109684,1.11335 -0.106869,2.83557 -0.415762,3.30694 -0.436505,0.66607 -1.869323,1.56324 -2.249139,3.11426 -3.1164809,3.65922 -6.8780799,10.22781 -6.4627699,11.40399 0.527451,1.49377 5.9507159,6.53285 9.0940889,9.7737 -1.732445,2.88312 -3.296772,5.84346 0.219081,11.11217 0.193848,4.42631 0.247296,8.88223 0.984246,13.19179 -0.239984,1.56185 -1.49596,4.49827 -1.49596,4.49827 l 6.067787,0.51171 c 0.550217,-2.47212 1.241116,-4.5681 1.607906,-7.52937 1.26517,-5.83063 1.863414,-11.21631 1.681448,-16.08217 1.689226,-1.87485 3.719183,-3.83124 3.771488,-6.60509 0.09344,-4.95638 -2.24645,-6.6764 -3.259775,-10.56527 1.225869,-0.7037 1.307069,-1.6897 1.225715,-2.8328 -0.08183,-1.14965 -1.969004,-2.79677 -3.220596,-4.12408 -1.275447,-1.35263 -1.835203,-2.38268 -2.232339,-2.87359 -0.242708,-0.30002 -1.01384,-0.55889 -1.01384,-0.55889 -0.134205,-1.13647 -0.280915,-2.13593 0.343013,-2.99672 z m -0.754785,14.47107 c 1.258479,3.72125 2.06999,7.41313 1.963707,10.64841 -1.643917,-2.43364 -2.78844,-4.65005 -4.962012,-7.31429 1.226056,-1.21483 2.017716,-2.15615 2.481006,-3.2054 z"/><g style="display:inline" id="g4180-1-3-8" transform="matrix(0.63181117,0.07804472,-0.07804472,0.63181117,37.179167,88.875254)"><path id="path4297-8-9-8-2" d="m 36.989313,240.94087 c -5.20016,-6.02157 4.13448,-10.21723 8.33159,-5.52101 -1.76104,-5.86152 6.93518,-9.80491 9.55611,-2.28147 2.01059,5.77143 -4.43969,8.49591 -2.07498,17.35242 -5.8543,-7.25153 -11.76166,-4.85901 -15.81272,-9.54994 z" style="display:inline;fill:#f06;fill-opacity:1;fill-rule:evenodd;stroke:#000;stroke-width:.7854063;stroke-linecap:butt;stroke-linejoin:miter;stroke-miterlimit:4;stroke-dasharray:none;stroke-opacity:1"/><path id="path4299-5-0-8-5" d="m 53.469913,235.16522 c -0.87032,-3.91278 -3.315,-4.58139 -6.7742,-2.90087 2.82023,-3.07634 7.39049,-2.54492 6.7742,2.90087 z" style="display:inline;fill:#fff;fill-opacity:.78504675;fill-rule:evenodd;stroke:none;stroke-width:1px;stroke-linecap:butt;stroke-linejoin:miter;stroke-opacity:1"/></g></g></svg>