<svg xmlns="http://www.w3.org/2000/svg" xmlns:svg="http://www.w3.org/2000/svg" id="svg4311" width="100%" height="100%" version="1.1" viewBox="0 0 64 64"><metadata id="metadata4316"/><g id="layer5" style="display:inline"><ellipse style="opacity:1;fill:#ff1d1d;fill-opacity:1;stroke:none;stroke-width:1;stroke-linecap:round;stroke-linejoin:round;stroke-miterlimit:4;stroke-dasharray:none;stroke-dashoffset:0;stroke-opacity:1" id="path4186" cx="32.072" cy="32.18" rx="29.277" ry="29.403"/><ellipse id="ellipse4199" cx="32.072" cy="32.18" rx="25.101" ry="25.21" style="opacity:1;fill:#ff7f2a;fill-opacity:1;stroke:#000;stroke-width:0;stroke-linecap:round;stroke-linejoin:round;stroke-miterlimit:4;stroke-dasharray:none;stroke-dashoffset:0;stroke-opacity:1"/><ellipse style="opacity:1;fill:#fbcf23;fill-opacity:1;stroke:#000;stroke-width:0;stroke-linecap:round;stroke-linejoin:round;stroke-miterlimit:4;stroke-dasharray:none;stroke-dashoffset:0;stroke-opacity:1" id="ellipse4201" cx="32.072" cy="32.18" rx="20.445" ry="20.533"/><ellipse id="ellipse4203" cx="32.072" cy="32.18" rx="15.82" ry="15.888" style="opacity:1;fill:#30ff39;fill-opacity:1;stroke:#000;stroke-width:0;stroke-linecap:round;stroke-linejoin:round;stroke-miterlimit:4;stroke-dasharray:none;stroke-dashoffset:0;stroke-opacity:1"/><ellipse style="opacity:1;fill:#1818ff;fill-opacity:1;stroke:#000;stroke-width:0;stroke-linecap:round;stroke-linejoin:round;stroke-miterlimit:4;stroke-dasharray:none;stroke-dashoffset:0;stroke-opacity:1" id="ellipse4205" cx="32.072" cy="32.18" rx="11.048" ry="11.095"/><path style="fill:none;fill-rule:evenodd;stroke:#d4ff2a;stroke-width:1px;stroke-linecap:butt;stroke-linejoin:miter;stroke-opacity:1" id="path4207" d="m 31.567266,31.80139 c 0.739829,1.474803 -1.623,1.724891 -2.45122,1.229644 -2.244426,-1.342087 -1.603963,-4.574868 -0.0081,-6.132086 2.854681,-2.785496 7.500566,-1.680964 9.812951,1.213508 3.393518,4.247755 1.774182,10.47099 -2.435085,13.493817 -5.610291,4.028953 -13.457948,1.875147 -17.174681,-3.656661 -4.677129,-6.961216 -1.980289,-16.452951 4.878237,-20.855547 8.306594,-5.332134 19.452515,-2.08788 24.536412,6.099814 5.991196,9.648913 2.197014,22.454928 -7.32139,28.217277 C 30.415047,58.064015 15.945178,53.718334 9.5062796,42.868189 2.1899942,30.539566 7.0882194,14.403296 19.270822,7.2891821 32.937862,-0.69177851 50.742338,4.7597193 58.530695,18.275301 c 3.895926,6.760823 5.016957,14.90988 3.214874,22.491205" transform="matrix(0.96921547,0.06215644,-0.06401729,0.99823177,2.281343,-2.2037233)"/><path id="path4209" d="m 31.567266,31.80139 c 0.739829,1.474803 -1.623,1.724891 -2.45122,1.229644 -2.244426,-1.342087 -1.603963,-4.574868 -0.0081,-6.132086 2.854681,-2.785496 7.500566,-1.680964 9.812951,1.213508 3.393518,4.247755 1.774182,10.47099 -2.435085,13.493817 -5.610291,4.028953 -13.457948,1.875147 -17.174681,-3.656661 -4.677129,-6.961216 -1.980289,-16.452951 4.878237,-20.855547 8.306594,-5.332134 19.452515,-2.08788 24.536412,6.099814 5.991196,9.648913 2.197014,22.454928 -7.32139,28.217277 C 30.415047,58.064015 15.945178,53.718334 9.5062796,42.868189 2.1899942,30.539566 7.0882194,14.403296 19.270822,7.2891821 32.937862,-0.69177851 50.742338,4.7597193 58.530695,18.275301 c 3.895926,6.760823 5.016957,14.90988 3.214874,22.491205" transform="matrix(-0.55820254,0.79476535,-0.81855898,-0.57491397,75.961259,23.55465)" style="fill:none;fill-rule:evenodd;stroke:#5df;stroke-width:1px;stroke-linecap:butt;stroke-linejoin:miter;stroke-opacity:1"/><path style="fill:none;fill-rule:evenodd;stroke:#ff2ad4;stroke-width:1px;stroke-linecap:butt;stroke-linejoin:miter;stroke-opacity:1" id="path4211" d="m 31.567266,31.80139 c 0.739829,1.474803 -1.623,1.724891 -2.45122,1.229644 -2.244426,-1.342087 -1.603963,-4.574868 -0.0081,-6.132086 2.854681,-2.785496 7.500566,-1.680964 9.812951,1.213508 3.393518,4.247755 1.774182,10.47099 -2.435085,13.493817 -5.610291,4.028953 -13.457948,1.875147 -17.174681,-3.656661 -4.677129,-6.961216 -1.980289,-16.452951 4.878237,-20.855547 8.306594,-5.332134 19.452515,-2.08788 24.536412,6.099814 5.991196,9.648913 2.197014,22.454928 -7.32139,28.217277 C 30.415047,58.064015 15.945178,53.718334 9.5062796,42.868189 2.1899942,30.539566 7.0882194,14.403296 19.270822,7.2891821 32.937862,-0.69177851 50.742338,4.7597193 58.530695,18.275301 c 3.895926,6.760823 5.016957,14.90988 3.214874,22.491205" transform="matrix(-0.79024763,-0.56458013,0.58148249,-0.81390601,40.515883,76.195212)"/><ellipse id="ellipse4213" cx="32.072" cy="32.18" rx="29.277" ry="29.403" style="opacity:1;fill:none;fill-opacity:1;stroke:#000;stroke-width:1;stroke-linecap:round;stroke-linejoin:round;stroke-miterlimit:4;stroke-dasharray:none;stroke-dashoffset:0;stroke-opacity:1"/><ellipse id="ellipse4215" cx="32.072" cy="32.18" rx="6.963" ry="6.993" style="opacity:1;fill:#ff2a7f;fill-opacity:1;stroke:#000;stroke-width:0;stroke-linecap:round;stroke-linejoin:round;stroke-miterlimit:4;stroke-dasharray:none;stroke-dashoffset:0;stroke-opacity:1"/></g></svg>