<svg xmlns="http://www.w3.org/2000/svg" xmlns:svg="http://www.w3.org/2000/svg" id="svg4311" width="100%" height="100%" version="1.1" viewBox="0 0 64 64"><metadata id="metadata4316"/><g id="layer5" style="display:inline;opacity:1"><flowRoot id="flowRoot4156" xml:space="preserve" style="fill:#000;stroke:none;stroke-opacity:1;stroke-width:1px;stroke-linejoin:miter;stroke-linecap:butt;fill-opacity:1;font-family:sans-serif;font-style:normal;font-weight:400;font-size:40px;line-height:125%;letter-spacing:0;word-spacing:0"><flowRegion id="flowRegion4158"><rect id="rect4160" width="42.679" height="44.068" x="6.566" y="11.22"/></flowRegion><flowPara id="flowPara4162"/></flowRoot><flowRoot id="flowRoot4168" xml:space="preserve" style="fill:#000;stroke:none;stroke-opacity:1;stroke-width:1px;stroke-linejoin:miter;stroke-linecap:butt;fill-opacity:1;font-family:sans-serif;font-style:normal;font-weight:400;font-size:40px;line-height:125%;letter-spacing:0;word-spacing:0"><flowRegion id="flowRegion4170"><rect id="rect4172" width="63.766" height="63.64" x=".253" y="-.271"/></flowRegion><flowPara id="flowPara4174"/></flowRoot><ellipse style="color:#000;clip-rule:nonzero;display:inline;overflow:visible;visibility:visible;opacity:1;isolation:auto;mix-blend-mode:normal;color-interpolation:sRGB;color-interpolation-filters:linearRGB;solid-color:#000;solid-opacity:1;fill:#ffd5d5;fill-opacity:1;fill-rule:evenodd;stroke:#000;stroke-width:2;stroke-linecap:butt;stroke-linejoin:miter;stroke-miterlimit:4;stroke-dasharray:none;stroke-dashoffset:0;stroke-opacity:1;color-rendering:auto;image-rendering:auto;shape-rendering:auto;text-rendering:auto;enable-background:accumulate" id="path4184" cx="31.978" cy="31.896" rx="29.831" ry="29.831"/><g id="g4268" transform="translate(0.25253814,1.5152288)"><path id="path4225-4" d="M 15.309635,34.896985 C 14.365188,32.000661 14.884615,28.72245 4.6217957,26.749939" style="display:inline;opacity:1;fill:none;fill-rule:evenodd;stroke:#000;stroke-width:.5;stroke-linecap:butt;stroke-linejoin:miter;stroke-miterlimit:4;stroke-dasharray:none;stroke-opacity:1"/><path id="path4227-9" d="m 14.62772,33.394455 c 2.804419,-4.133806 -0.0355,-7.859084 -4.156783,-11.251443" style="display:inline;opacity:1;fill:none;fill-rule:evenodd;stroke:#000;stroke-width:.5;stroke-linecap:butt;stroke-linejoin:miter;stroke-miterlimit:4;stroke-dasharray:none;stroke-opacity:1"/><path id="path4229-9" d="M 15.679071,35.311347 C 17.522359,30.986024 14.727898,28.00406 9.0278539,25.04194" style="display:inline;opacity:1;fill:none;fill-rule:evenodd;stroke:#000;stroke-width:.5;stroke-linecap:butt;stroke-linejoin:miter;stroke-miterlimit:4;stroke-dasharray:none;stroke-opacity:1"/><path id="path4158" d="m 53.987397,24.444682 c -0.826954,9.194627 -2.20683,18.709896 -20.613073,21.352549 -1.404426,-0.488006 -2.508107,-1.577502 -3.420105,-3.050365 -8.414899,-0.520355 -14.249789,-2.908992 -15.529124,-8.59648 -3.577794,-2.589224 -2.374984,-3.812562 0.924352,-4.436892 2.377342,-1.489699 3.811428,-3.552062 10.075444,-4.621764 2.769322,-2.270269 6.382453,-3.274825 10.630057,-3.327671 -1.097019,-2.422836 -1.194953,-6.872778 3.945831,-6.384332 3.624819,0.344409 2.841557,4.831822 0.306141,6.938945 0.961679,0.04384 1.939098,0.119163 3.142808,0.647047 -0.592507,-3.693456 1.062321,-8.040154 7.672118,-7.579693 4.532854,0.315774 4.597435,5.323652 1.478975,8.873786 z" style="fill:#ff8080;fill-rule:evenodd;stroke:#000;stroke-width:1;stroke-linecap:butt;stroke-linejoin:miter;stroke-miterlimit:4;stroke-dasharray:none;stroke-opacity:1"/><path id="path4225" d="m 16.088324,32.725569 c -0.225761,3.969897 0.694985,8.156883 -6.5824722,12.715856" style="fill:none;fill-rule:evenodd;stroke:#000;stroke-width:.5;stroke-linecap:butt;stroke-linejoin:miter;stroke-miterlimit:4;stroke-dasharray:none;stroke-opacity:1"/><path id="path4227" d="m 18.098107,34.494978 c 2.363027,5.440206 0.434356,10.38918 -2.482698,14.909151" style="fill:none;fill-rule:evenodd;stroke:#000;stroke-width:.5;stroke-linecap:butt;stroke-linejoin:miter;stroke-miterlimit:4;stroke-dasharray:none;stroke-opacity:1"/><path id="path4229" d="m 16.602782,31.519265 c 2.239937,5.100366 0.818177,9.713021 -2.727606,15.083605" style="fill:none;fill-rule:evenodd;stroke:#000;stroke-width:.5;stroke-linecap:butt;stroke-linejoin:miter;stroke-miterlimit:4;stroke-dasharray:none;stroke-opacity:1"/></g></g></svg>