<svg xmlns="http://www.w3.org/2000/svg" xmlns:svg="http://www.w3.org/2000/svg" id="svg4311" width="100%" height="100%" version="1.1" viewBox="0 0 64 64"><metadata id="metadata4316"/><g id="layer5" style="display:inline;opacity:1"><flowRoot id="flowRoot4156" xml:space="preserve" style="fill:#000;stroke:none;stroke-opacity:1;stroke-width:1px;stroke-linejoin:miter;stroke-linecap:butt;fill-opacity:1;font-family:sans-serif;font-style:normal;font-weight:400;font-size:40px;line-height:125%;letter-spacing:0;word-spacing:0"><flowRegion id="flowRegion4158"><rect id="rect4160" width="42.679" height="44.068" x="6.566" y="11.22"/></flowRegion><flowPara id="flowPara4162"/></flowRoot><flowRoot id="flowRoot4168" xml:space="preserve" style="fill:#000;stroke:none;stroke-opacity:1;stroke-width:1px;stroke-linejoin:miter;stroke-linecap:butt;fill-opacity:1;font-family:sans-serif;font-style:normal;font-weight:400;font-size:40px;line-height:125%;letter-spacing:0;word-spacing:0"><flowRegion id="flowRegion4170"><rect id="rect4172" width="63.766" height="63.64" x=".253" y="-.271"/></flowRegion><flowPara id="flowPara4174"/></flowRoot><ellipse style="color:#000;clip-rule:nonzero;display:inline;overflow:visible;visibility:visible;opacity:1;isolation:auto;mix-blend-mode:normal;color-interpolation:sRGB;color-interpolation-filters:linearRGB;solid-color:#000;solid-opacity:1;fill:#ffd5d5;fill-opacity:1;fill-rule:evenodd;stroke:#000;stroke-width:2;stroke-linecap:butt;stroke-linejoin:miter;stroke-miterlimit:4;stroke-dasharray:none;stroke-dashoffset:0;stroke-opacity:1;color-rendering:auto;image-rendering:auto;shape-rendering:auto;text-rendering:auto;enable-background:accumulate" id="path4184" cx="31.978" cy="31.896" rx="29.831" ry="29.831"/><path style="display:inline;fill:#f55;fill-opacity:1;fill-rule:evenodd;stroke:#000;stroke-width:1px;stroke-linecap:butt;stroke-linejoin:miter;stroke-opacity:1" id="path4142" d="m 36.220581,29.823035 c 2.621796,4.563066 8.145879,2.592793 7.865388,9.49611 -0.261518,6.436236 -9.74942,13.119992 -10.971886,4.933044 -0.723153,-4.84301 0.100053,-13.276224 -3.569167,-11.654318 -3.334096,1.473771 -2.471498,4.751663 -5.287655,5.056371 -1.842137,0.19932 -5.736058,-1.003007 -4.230125,-4.563066 0.977005,-2.309658 8.996109,-2.625319 7.07224,-4.131425 -1.561194,-1.53183 -3.859529,-1.228398 -8.922919,-0.493305 -10.8003965,1.567985 -4.175358,-16.146495 1.321914,-12.455937 3.408343,2.28817 5.019897,6.853119 9.451683,7.769545 4.182577,0.318566 -1.052041,-6.158062 -0.991434,-8.447839 0.116624,-4.406117 8.601541,-3.203813 8.72463,-1.048271 0.129911,2.274994 -4.908789,9.004432 -1.784583,9.187795 5.133431,0.287761 2.943237,-3.523356 6.675664,-3.946435 2.898081,-0.328505 8.747706,6.543982 4.230124,9.249459 -4.592123,2.750112 -11.321504,-1.924733 -9.583874,1.048272 z"/><path style="display:inline;fill:#f55;fill-opacity:1;fill-rule:evenodd;stroke:#000;stroke-width:.99999988px;stroke-linecap:butt;stroke-linejoin:miter;stroke-opacity:1" id="path4146" d="M 27.453519,40.921438 C 26.121376,40.754859 17.292496,49.048604 17.2731,53.256984 17.26263,55.52058 21.318468,55.92058 22.648144,54.809352 26.8482,51.299308 28.53176,41.056263 27.453519,40.921438 Z"/><path style="display:inline;fill:#f55;fill-opacity:1;fill-rule:evenodd;stroke:#000;stroke-width:1px;stroke-linecap:butt;stroke-linejoin:miter;stroke-opacity:1" id="path4146-9" d="m 38.739415,17.457809 c 0.866937,0.583333 8.131117,-2.190945 8.82412,-5.157769 0.37275,-1.595789 -2.284023,-3.2960706 -3.355773,-2.9756573 -3.385339,1.0120973 -6.170051,7.6612743 -5.468347,8.1334263 z"/><path style="display:inline;fill:#f55;fill-opacity:1;fill-rule:evenodd;stroke:#000;stroke-width:1px;stroke-linecap:butt;stroke-linejoin:miter;stroke-opacity:1" id="path4146-9-4" d="m 45.139195,32.115912 c -0.165028,0.783561 6.460106,5.592653 9.916242,5.43199 1.858977,-0.08642 2.273388,-2.467651 1.388838,-3.197558 -2.79405,-2.305563 -11.17151,-2.868652 -11.30508,-2.234432 z"/><path style="display:inline;fill:#f55;fill-opacity:1;fill-rule:evenodd;stroke:#000;stroke-width:.99999982px;stroke-linecap:butt;stroke-linejoin:miter;stroke-opacity:1" id="path4146-0" d="m 14.516471,42.043068 c 2.7725,2.4105 6.737337,-0.585072 3.218571,-3.677296 -2.553204,-2.243705 -5.816786,1.41833 -3.218571,3.677296 z"/></g></svg>