<svg xmlns="http://www.w3.org/2000/svg" xmlns:svg="http://www.w3.org/2000/svg" id="svg4311" width="100%" height="100%" version="1.1" viewBox="0 0 64 64"><metadata id="metadata4316"/><g id="layer5" style="display:inline;opacity:1"><flowRoot id="flowRoot4156" xml:space="preserve" style="fill:#000;stroke:none;stroke-opacity:1;stroke-width:1px;stroke-linejoin:miter;stroke-linecap:butt;fill-opacity:1;font-family:sans-serif;font-style:normal;font-weight:400;font-size:40px;line-height:125%;letter-spacing:0;word-spacing:0"><flowRegion id="flowRegion4158"><rect id="rect4160" width="42.679" height="44.068" x="6.566" y="11.22"/></flowRegion><flowPara id="flowPara4162"/></flowRoot><flowRoot id="flowRoot4168" xml:space="preserve" style="fill:#000;stroke:none;stroke-opacity:1;stroke-width:1px;stroke-linejoin:miter;stroke-linecap:butt;fill-opacity:1;font-family:sans-serif;font-style:normal;font-weight:400;font-size:40px;line-height:125%;letter-spacing:0;word-spacing:0"><flowRegion id="flowRegion4170"><rect id="rect4172" width="63.766" height="63.64" x=".253" y="-.271"/></flowRegion><flowPara id="flowPara4174"/></flowRoot><ellipse style="color:#000;clip-rule:nonzero;display:inline;overflow:visible;visibility:visible;opacity:1;isolation:auto;mix-blend-mode:normal;color-interpolation:sRGB;color-interpolation-filters:linearRGB;solid-color:#000;solid-opacity:1;fill:#ffd5d5;fill-opacity:1;fill-rule:evenodd;stroke:#000;stroke-width:2;stroke-linecap:butt;stroke-linejoin:miter;stroke-miterlimit:4;stroke-dasharray:none;stroke-dashoffset:0;stroke-opacity:1;color-rendering:auto;image-rendering:auto;shape-rendering:auto;text-rendering:auto;enable-background:accumulate" id="path4184" cx="31.978" cy="31.896" rx="29.831" ry="29.831"/><path style="fill:#ff8080;fill-opacity:1;fill-rule:evenodd;stroke:#000;stroke-width:1;stroke-linecap:butt;stroke-linejoin:miter;stroke-miterlimit:4;stroke-dasharray:none;stroke-opacity:1" id="path4201" d="m 21.107376,41.45065 c -1.828921,-2.377705 -4.234788,-4.627867 -3.449732,-5.53259 0.566121,-0.652417 3.973394,0.715775 7.138099,1.820295 1.29815,0.453071 2.008656,1.367218 3.146008,2.28033 1.549224,1.243779 2.435548,0.600538 1.692321,-0.520714 C 27.20092,35.82725 16.85529,29.47318 17.565593,28.17108 c 0.692735,-1.269893 2.470193,1.063375 2.714687,0.142702 0.871002,-3.279885 2.677546,-6.367132 3.625935,-9.83965 1.526833,-5.590489 -6.031887,-7.947569 -6.294597,-9.0237214 -0.275951,-1.1303932 4.840551,-2.7901673 8.052008,4.6627384 0.407782,0.946352 1.510171,0.864312 1.627231,-1.041428 0.160863,-2.618823 -0.474408,-7.3276805 0.455625,-7.6479915 1.548632,-0.5333597 1.460029,6.6905175 3.254465,6.2811155 2.18137,-0.497681 2.12056,-5.7120421 3.059197,-5.7278562 0.869497,-0.014646 1.735366,0.8740885 1.529598,1.9201335 -0.175259,0.8909182 -0.431392,0.9582749 -0.55326,1.4645092 -0.242487,1.0072735 1.57572,-0.6922343 2.863928,-1.334331 0.912723,-0.4549368 5.025609,2.3256615 1.8225,3.2870095 -9.597352,2.880452 -15.096895,8.812332 -15.198347,17.281205 -0.05228,4.364719 3.395741,7.395756 9.047412,7.745625 5.670656,0.351045 10.046653,-6.368756 10.837363,-9.958661 0.407438,-1.84979 4.656866,1.886476 3.384644,3.091742 0,0 -5.44372,4.152805 -4.91424,4.946786 0.708472,1.062398 2.832311,-0.644533 3.970448,-0.813616 2.283374,-0.339223 1.854875,3.173576 0.260355,3.319553 -3.247615,0.297314 -8.486522,0.257064 -8.689417,1.594688 -0.241751,1.593768 3.823714,2.420547 8.233792,0.683437 2.316587,-0.912493 1.38483,2.69433 -0.292905,3.22192 -4.296988,1.351255 -11.701252,-2.641991 -11.781158,-1.920134 -0.165141,1.491853 7.836714,5.934833 11.976428,9.437947 2.836897,2.40064 -2.266053,6.836597 -3.710085,6.574017 -3.20744,-0.583233 -3.101596,-2.242189 -7.87581,-2.375759 -2.000273,-0.05596 -2.800178,0.674237 -4.816603,1.88759 -5.960224,3.586471 -15.647992,-10.023795 -9.047411,-14.58 z"/></g></svg>