<svg xmlns="http://www.w3.org/2000/svg" xmlns:svg="http://www.w3.org/2000/svg" id="svg4311" width="100%" height="100%" version="1.1" viewBox="0 0 64 64"><metadata id="metadata4316"/><g id="layer5" style="display:inline;opacity:1"><flowRoot id="flowRoot4156" xml:space="preserve" style="fill:#000;stroke:none;stroke-opacity:1;stroke-width:1px;stroke-linejoin:miter;stroke-linecap:butt;fill-opacity:1;font-family:sans-serif;font-style:normal;font-weight:400;font-size:40px;line-height:125%;letter-spacing:0;word-spacing:0"><flowRegion id="flowRegion4158"><rect id="rect4160" width="42.679" height="44.068" x="6.566" y="11.22"/></flowRegion><flowPara id="flowPara4162"/></flowRoot><flowRoot id="flowRoot4168" xml:space="preserve" style="fill:#000;stroke:none;stroke-opacity:1;stroke-width:1px;stroke-linejoin:miter;stroke-linecap:butt;fill-opacity:1;font-family:sans-serif;font-style:normal;font-weight:400;font-size:40px;line-height:125%;letter-spacing:0;word-spacing:0"><flowRegion id="flowRegion4170"><rect id="rect4172" width="63.766" height="63.64" x=".253" y="-.271"/></flowRegion><flowPara id="flowPara4174"/></flowRoot><ellipse style="color:#000;clip-rule:nonzero;display:inline;overflow:visible;visibility:visible;opacity:1;isolation:auto;mix-blend-mode:normal;color-interpolation:sRGB;color-interpolation-filters:linearRGB;solid-color:#000;solid-opacity:1;fill:#ffd5d5;fill-opacity:1;fill-rule:evenodd;stroke:#000;stroke-width:2;stroke-linecap:butt;stroke-linejoin:miter;stroke-miterlimit:4;stroke-dasharray:none;stroke-dashoffset:0;stroke-opacity:1;color-rendering:auto;image-rendering:auto;shape-rendering:auto;text-rendering:auto;enable-background:accumulate" id="path4184" cx="31.978" cy="31.896" rx="29.831" ry="29.831"/><path style="fill:#ff8080;fill-rule:evenodd;stroke:#000;stroke-width:.59048998px;stroke-linecap:butt;stroke-linejoin:miter;stroke-opacity:1" id="path4288" d="M 32.594842,47.280191 C 29.446918,43.037597 27.681384,36.041211 16.716413,39.096147 16.380329,35.597769 15.148535,33.051249 9.7260284,30.529572 9.4453354,27.710227 9.0193395,26.899811 5.4143001,25.107252 c 7.1350849,-0.381801 10.1664299,0.02827 17.3015169,2.868489 0.685284,3.111883 6.805984,12.733524 6.975047,3.532397 -3.029335,-0.96785 -1.366567,-3.674629 0.158185,-5.746734 0.954236,1.206632 1.87259,2.126636 1.687108,3.901453 l 1.845277,0.05272 c -0.172019,-1.370781 0.444658,-2.583394 1.766205,-3.980535 1.080241,1.412617 3.163577,4.201428 0.184518,5.878538 -0.376998,9.41931 6.661096,0.03483 7.016702,-3.395715 3.166464,-1.778819 10.488046,-4.244487 16.296693,-3.073213 -2.925141,1.630808 -3.678072,4.089525 -3.516242,5.592812 -3.074239,0.686656 -6.219819,3.102545 -6.988093,8.574237 -10.27268,-2.721789 -12.260335,2.426921 -15.546375,7.96849 z"/></g></svg>