<svg xmlns="http://www.w3.org/2000/svg" xmlns:svg="http://www.w3.org/2000/svg" id="svg4311" width="100%" height="100%" version="1.1" viewBox="0 0 64 64"><metadata id="metadata4316"/><g id="layer5" style="display:inline;opacity:1"><flowRoot id="flowRoot4156" xml:space="preserve" style="fill:#000;stroke:none;stroke-opacity:1;stroke-width:1px;stroke-linejoin:miter;stroke-linecap:butt;fill-opacity:1;font-family:sans-serif;font-style:normal;font-weight:400;font-size:40px;line-height:125%;letter-spacing:0;word-spacing:0"><flowRegion id="flowRegion4158"><rect id="rect4160" width="42.679" height="44.068" x="6.566" y="11.22"/></flowRegion><flowPara id="flowPara4162"/></flowRoot><flowRoot id="flowRoot4168" xml:space="preserve" style="fill:#000;stroke:none;stroke-opacity:1;stroke-width:1px;stroke-linejoin:miter;stroke-linecap:butt;fill-opacity:1;font-family:sans-serif;font-style:normal;font-weight:400;font-size:40px;line-height:125%;letter-spacing:0;word-spacing:0"><flowRegion id="flowRegion4170"><rect id="rect4172" width="63.766" height="63.64" x=".253" y="-.271"/></flowRegion><flowPara id="flowPara4174"/></flowRoot><ellipse style="color:#000;clip-rule:nonzero;display:inline;overflow:visible;visibility:visible;opacity:1;isolation:auto;mix-blend-mode:normal;color-interpolation:sRGB;color-interpolation-filters:linearRGB;solid-color:#000;solid-opacity:1;fill:#ffd5d5;fill-opacity:1;fill-rule:evenodd;stroke:#000;stroke-width:2;stroke-linecap:butt;stroke-linejoin:miter;stroke-miterlimit:4;stroke-dasharray:none;stroke-dashoffset:0;stroke-opacity:1;color-rendering:auto;image-rendering:auto;shape-rendering:auto;text-rendering:auto;enable-background:accumulate" id="path4184" cx="31.978" cy="31.896" rx="29.831" ry="29.831"/><path id="path4156" d="m 21.29051,31.98183 0,4.489026 0.459253,-5.143055 c 0.96602,-1.694533 3.230596,-3.790344 5.701048,-5.752414 l 0.110863,2.274222 1.805286,-3.745789 c 2.517984,-1.872885 4.95678,-3.493076 6.144508,-4.280885 l -1.187728,3.775517 1.995383,-4.087669 c 2.280437,-1.397226 9.074242,-3.255266 13.508429,-8.76988 0.332564,6.332151 -7.617297,14.804756 -9.042571,18.104616 l -5.241837,1.367455 5.115147,-0.772943 c -0.601779,1.813448 -1.409433,3.463387 -2.422964,5.02414 l -1.837018,0.564844 0.839326,0.847268 c -1.266907,1.679669 -2.803037,3.240421 -4.592546,4.726853 l -5.716873,1.649939 5.194273,-1.055365 c -4.259922,3.40393 -8.234834,5.588985 -13.144066,5.291697 0,0 -0.174199,-0.178371 -0.3484,-0.297285 -1.076875,-6.956503 0.64929,-11.950915 2.660491,-14.210292 z" style="fill:#f55;fill-opacity:1;fill-rule:evenodd;stroke:#000;stroke-width:.27516463px;stroke-linecap:butt;stroke-linejoin:miter;stroke-miterlimit:4;stroke-dasharray:none;stroke-opacity:1"/><path id="path4160" d="M 45.239477,17.430422 C 41.388262,21.0541 34.005147,25.070434 30.237057,29.34413 24.87591,35.402094 23.587575,41.46006 14.555311,51.335188 23.72611,42.054792 25.582428,35.706376 30.68036,29.565425 34.212947,25.30556 42.08093,21.012606 45.239477,17.430422 Z" style="fill:#4d4d4d;fill-opacity:1;fill-rule:evenodd;stroke:#000;stroke-width:.27516463px;stroke-linecap:butt;stroke-linejoin:miter;stroke-miterlimit:4;stroke-dasharray:none;stroke-opacity:1"/></g></svg>