<svg xmlns="http://www.w3.org/2000/svg" xmlns:svg="http://www.w3.org/2000/svg" id="svg4311" width="100%" height="100%" version="1.1" viewBox="0 0 64 64"><metadata id="metadata4316"/><g id="layer5" style="display:inline;opacity:1"><flowRoot id="flowRoot4156" xml:space="preserve" style="fill:#000;stroke:none;stroke-opacity:1;stroke-width:1px;stroke-linejoin:miter;stroke-linecap:butt;fill-opacity:1;font-family:sans-serif;font-style:normal;font-weight:400;font-size:40px;line-height:125%;letter-spacing:0;word-spacing:0"><flowRegion id="flowRegion4158"><rect id="rect4160" width="42.679" height="44.068" x="6.566" y="11.22"/></flowRegion><flowPara id="flowPara4162"/></flowRoot><flowRoot id="flowRoot4168" xml:space="preserve" style="fill:#000;stroke:none;stroke-opacity:1;stroke-width:1px;stroke-linejoin:miter;stroke-linecap:butt;fill-opacity:1;font-family:sans-serif;font-style:normal;font-weight:400;font-size:40px;line-height:125%;letter-spacing:0;word-spacing:0"><flowRegion id="flowRegion4170"><rect id="rect4172" width="63.766" height="63.64" x=".253" y="-.271"/></flowRegion><flowPara id="flowPara4174"/></flowRoot><ellipse style="color:#000;clip-rule:nonzero;display:inline;overflow:visible;visibility:visible;opacity:1;isolation:auto;mix-blend-mode:normal;color-interpolation:sRGB;color-interpolation-filters:linearRGB;solid-color:#000;solid-opacity:1;fill:#ffd5d5;fill-opacity:1;fill-rule:evenodd;stroke:#000;stroke-width:2;stroke-linecap:butt;stroke-linejoin:miter;stroke-miterlimit:4;stroke-dasharray:none;stroke-dashoffset:0;stroke-opacity:1;color-rendering:auto;image-rendering:auto;shape-rendering:auto;text-rendering:auto;enable-background:accumulate" id="path4184" cx="31.978" cy="31.896" rx="29.831" ry="29.831"/><path id="path4156" d="m 15.406457,37.161439 22.360264,5.115019 c 3.580479,-1.972879 7.672578,-1.680589 11.910812,-1.242151 3.507412,0.292186 10.449353,-5.699702 9.864769,-7.307305 C 58.81157,32.046321 46.973831,31.315591 40.689543,23.789164 38.643505,21.45082 33.309265,21.523892 30.09405,20.793162 29.436393,16.628039 28.340294,12.535977 25.855811,9.1746365 25.052008,10.782231 24.832788,13.193623 24.613663,14.655078 23.371426,12.828273 21.544593,10.855303 19.571621,9.6130735 20.156206,19.112483 18.183235,27.808179 15.406457,37.161439 Z" style="fill:#ff8080;fill-opacity:1;fill-rule:evenodd;stroke:#000;stroke-width:.94994289px;stroke-linecap:butt;stroke-linejoin:miter;stroke-miterlimit:4;stroke-dasharray:none;stroke-opacity:1"/><path id="path4158" d="m 12.556646,43.810992 23.602468,5.042041 c 2.265168,0.438438 3.580486,-4.238236 0.803803,-4.822823 L 13.871955,38.915191 c -2.046026,-0.511514 -2.922903,4.530434 -1.315309,4.895801 z m 3.653615,-3.434341 c 0.876877,0 1.607607,0.730733 1.607607,1.607509 0,0.876884 -0.73073,1.607613 -1.607607,1.607613 -0.949948,0 -1.680648,-0.730729 -1.680648,-1.607613 0,-0.876776 0.7307,-1.607509 1.680648,-1.607509 z m 5.699698,1.315218 c 0.87688,0 1.680685,0.730727 1.680685,1.607612 0,0.949947 -0.803805,1.68068 -1.680685,1.68068 -0.949946,0 -1.68068,-0.730733 -1.68068,-1.68068 0,-0.876885 0.730734,-1.607612 1.68068,-1.607612 z m 6.064972,1.388393 c 0.94995,0 1.68068,0.657657 1.68068,1.607607 0,0.876875 -0.73073,1.607607 -1.68068,1.607607 -0.876875,0 -1.680683,-0.730732 -1.680683,-1.607607 0,-0.94995 0.803808,-1.680681 1.680683,-1.607607 z M 33.67463,44.3225 c 0.949948,0 1.680681,0.730733 1.680681,1.607609 0,0.876876 -0.730733,1.607607 -1.680681,1.607607 -0.876876,0 -1.68068,-0.730731 -1.607609,-1.607607 -0.0731,-0.876876 0.730733,-1.607609 1.607609,-1.607609 z" style="fill:#ff8080;fill-opacity:1;fill-rule:evenodd;stroke:#000;stroke-width:.94994289px;stroke-linecap:butt;stroke-linejoin:miter;stroke-miterlimit:4;stroke-dasharray:none;stroke-opacity:1"/><path id="path4160" d="m 10.072181,42.203379 c 0.07309,-1.315212 0.146135,-1.8998 0.876871,-3.142042 l -4.67664,0.584584 z" style="fill:#ff8080;fill-opacity:1;fill-rule:evenodd;stroke:#000;stroke-width:.94994289px;stroke-linecap:butt;stroke-linejoin:miter;stroke-miterlimit:4;stroke-dasharray:none;stroke-opacity:1"/><path id="path4162" d="m 40.104961,45.564744 c -0.07309,1.315315 -0.146131,1.972972 -0.803804,3.215217 l 4.676675,-0.803805 z" style="fill:#ff8080;fill-opacity:1;fill-rule:evenodd;stroke:#000;stroke-width:.94994289px;stroke-linecap:butt;stroke-linejoin:miter;stroke-miterlimit:4;stroke-dasharray:none;stroke-opacity:1"/></g></svg>