<svg xmlns="http://www.w3.org/2000/svg" xmlns:svg="http://www.w3.org/2000/svg" id="svg4311" width="100%" height="100%" version="1.1" viewBox="0 0 64 64"><metadata id="metadata4316"/><g id="layer5" style="display:inline;opacity:1"><flowRoot id="flowRoot4156" xml:space="preserve" style="fill:#000;stroke:none;stroke-opacity:1;stroke-width:1px;stroke-linejoin:miter;stroke-linecap:butt;fill-opacity:1;font-family:sans-serif;font-style:normal;font-weight:400;font-size:40px;line-height:125%;letter-spacing:0;word-spacing:0"><flowRegion id="flowRegion4158"><rect id="rect4160" width="42.679" height="44.068" x="6.566" y="11.22"/></flowRegion><flowPara id="flowPara4162"/></flowRoot><flowRoot id="flowRoot4168" xml:space="preserve" style="fill:#000;stroke:none;stroke-opacity:1;stroke-width:1px;stroke-linejoin:miter;stroke-linecap:butt;fill-opacity:1;font-family:sans-serif;font-style:normal;font-weight:400;font-size:40px;line-height:125%;letter-spacing:0;word-spacing:0"><flowRegion id="flowRegion4170"><rect id="rect4172" width="63.766" height="63.64" x=".253" y="-.271"/></flowRegion><flowPara id="flowPara4174"/></flowRoot><ellipse style="color:#000;clip-rule:nonzero;display:inline;overflow:visible;visibility:visible;opacity:1;isolation:auto;mix-blend-mode:normal;color-interpolation:sRGB;color-interpolation-filters:linearRGB;solid-color:#000;solid-opacity:1;fill:#ffd5d5;fill-opacity:1;fill-rule:evenodd;stroke:#000;stroke-width:2;stroke-linecap:butt;stroke-linejoin:miter;stroke-miterlimit:4;stroke-dasharray:none;stroke-dashoffset:0;stroke-opacity:1;color-rendering:auto;image-rendering:auto;shape-rendering:auto;text-rendering:auto;enable-background:accumulate" id="path4184" cx="31.978" cy="31.896" rx="29.831" ry="29.831"/><path style="fill:#ff8080;fill-rule:evenodd;stroke:#000;stroke-width:.99999994px;stroke-linecap:butt;stroke-linejoin:miter;stroke-opacity:1" id="path4170" d="M 14.549513,37.85183 C 6.2208071,37.75664 8.3034595,25.157821 12.351963,23.996573 c 1.138152,-1.926149 2.207777,-2.954766 2.207777,-2.954766 0,0 1.390359,1.398546 2.431613,2.953168 4.347012,0.976476 5.096525,13.943007 -2.44184,13.856855 z"/><path style="fill:#ff8080;fill-rule:evenodd;stroke:#000;stroke-width:.99999994px;stroke-linecap:butt;stroke-linejoin:miter;stroke-opacity:1" id="path4172" d="m 21.140322,51.863204 c -2.62631,-0.481115 -4.946645,-5.043035 -4.910691,-6.64157 0.08239,-3.662573 8.01597,-15.978452 15.610656,-15.765636 8.775016,0.245888 12.875455,12.527481 13.845224,16.719063 0.659868,2.852138 -2.660254,6.153333 -5.951839,6.449545 -2.6802,0.241192 -4.595755,-2.332561 -7.675879,-3.180428 -2.572206,-0.708053 -8.25807,2.906204 -10.917471,2.419026 z"/><path style="display:inline;opacity:1;fill:#ff8080;fill-rule:evenodd;stroke:#000;stroke-width:.99999994px;stroke-linecap:butt;stroke-linejoin:miter;stroke-opacity:1" id="path4170-8" d="m 27.532808,28.19332 c -8.310213,0.563741 -7.2269,-12.160458 -3.282542,-13.638238 0.982813,-2.01014 1.96804,-3.120133 1.96804,-3.120133 0,0 1.496232,1.284233 2.656746,2.751661 4.410398,0.629669 6.179388,13.496465 -1.342244,14.00671 z"/><path style="display:inline;opacity:1;fill:#ff8080;fill-rule:evenodd;stroke:#000;stroke-width:.99999994px;stroke-linecap:butt;stroke-linejoin:miter;stroke-opacity:1" id="path4170-6" d="m 40.307534,29.188123 c -8.243039,-1.197356 -4.515961,-13.409781 -0.349737,-14.024677 1.382362,-1.758509 2.578346,-2.636444 2.578346,-2.636444 0,0 1.193586,1.570401 2.020532,3.249276 4.179989,1.543597 3.211689,14.495578 -4.249141,13.411845 z"/><path style="display:inline;opacity:1;fill:#ff8080;fill-rule:evenodd;stroke:#000;stroke-width:.99999994px;stroke-linecap:butt;stroke-linejoin:miter;stroke-opacity:1" id="path4170-4" d="m 48.810589,40.919548 c -7.957427,-2.465137 -2.382379,-13.949615 1.828624,-13.908942 1.638199,-1.522134 2.955772,-2.203368 2.955772,-2.203368 0,0 0.935659,1.737028 1.492313,3.524177 3.889989,2.175123 0.925608,14.819346 -6.276709,12.588133 z"/></g></svg>