<svg xmlns="http://www.w3.org/2000/svg" xmlns:svg="http://www.w3.org/2000/svg" id="svg4311" width="100%" height="100%" version="1.1" viewBox="0 0 64 64"><metadata id="metadata4316"/><g id="layer5" style="display:inline;opacity:1"><flowRoot id="flowRoot4156" transform="matrix(0.99451474,-0.10459653,0.10459653,0.99451474,-3.1608147,3.5197087)" xml:space="preserve" style="font-style:normal;font-weight:400;font-size:40px;line-height:125%;font-family:sans-serif;letter-spacing:0;word-spacing:0;fill:#000;fill-opacity:1;stroke:none;stroke-width:1px;stroke-linecap:butt;stroke-linejoin:miter;stroke-opacity:1"><flowRegion id="flowRegion4158"><rect id="rect4160" width="42.679" height="44.068" x="6.566" y="11.22"/></flowRegion><flowPara id="flowPara4162"/></flowRoot><flowRoot id="flowRoot4168" transform="matrix(0.99451474,-0.10459653,0.10459653,0.99451474,-3.1608147,3.5197087)" xml:space="preserve" style="font-style:normal;font-weight:400;font-size:40px;line-height:125%;font-family:sans-serif;letter-spacing:0;word-spacing:0;fill:#000;fill-opacity:1;stroke:none;stroke-width:1px;stroke-linecap:butt;stroke-linejoin:miter;stroke-opacity:1"><flowRegion id="flowRegion4170"><rect id="rect4172" width="63.766" height="63.64" x=".253" y="-.271"/></flowRegion><flowPara id="flowPara4174"/></flowRoot><ellipse style="color:#000;clip-rule:nonzero;display:inline;overflow:visible;visibility:visible;opacity:1;isolation:auto;mix-blend-mode:normal;color-interpolation:sRGB;color-interpolation-filters:linearRGB;solid-color:#000;solid-opacity:1;fill:#ffd5d5;fill-opacity:1;fill-rule:evenodd;stroke:#000;stroke-width:2;stroke-linecap:butt;stroke-linejoin:miter;stroke-miterlimit:4;stroke-dasharray:none;stroke-dashoffset:0;stroke-opacity:1;color-rendering:auto;image-rendering:auto;shape-rendering:auto;text-rendering:auto;enable-background:accumulate" id="path4184" cx="28.466" cy="35.066" rx="29.831" ry="29.831" transform="matrix(0.99451474,-0.10459653,0.10459653,0.99451474,0,0)"/><path style="fill:#ff8080;fill-rule:evenodd;stroke:#000;stroke-width:.99999982px;stroke-linecap:butt;stroke-linejoin:miter;stroke-opacity:1" id="path4170" d="M 17.146113,36.774061 C 11.29946,38.915366 8.8888651,26.440265 11.360402,24.257214 c 0.204041,-2.126853 0.635576,-3.386378 0.635576,-3.386378 0,0 1.400211,0.950385 2.604462,2.141929 3.33589,-0.240966 7.837514,11.823184 2.545673,13.761296 z"/><path style="fill:#ff8080;fill-rule:evenodd;stroke:#000;stroke-width:.99999994px;stroke-linecap:butt;stroke-linejoin:miter;stroke-opacity:1" id="path4172" d="m 22.269553,51.737472 c -2.662227,-0.203774 -4.373922,-2.819894 -4.414904,-4.418308 -0.130697,-5.097497 2.970434,-5.752008 6.118089,-9.735504 2.482902,-3.142223 4.55293,-6.884867 7.893397,-7.141833 4.865405,-0.374271 6.362128,3.053286 8.454862,6.554854 1.671982,2.797565 4.393381,4.429734 5.016425,6.236035 0.954578,2.767471 -0.235616,7.828059 -3.478163,8.466935 -2.640271,0.520208 -4.875,-4.974942 -8.026913,-5.495988 -2.632157,-0.435125 -8.867022,5.74015 -11.562793,5.533809 z"/><path style="display:inline;opacity:1;fill:#ff8080;fill-rule:evenodd;stroke:#000;stroke-width:.99999988px;stroke-linecap:butt;stroke-linejoin:miter;stroke-opacity:1" id="path4170-8" d="m 27.381138,27.390409 c -5.856643,1.182814 -6.416395,-11.552694 -3.763183,-13.317673 0.489361,-2.072694 1.074591,-3.25036 1.074591,-3.25036 0,0 1.199416,1.165169 2.179012,2.537664 3.205394,0.296019 5.810469,12.959798 0.50958,14.030369 z"/><path style="display:inline;opacity:1;fill:#ff8080;fill-rule:evenodd;stroke:#000;stroke-width:1px;stroke-linecap:butt;stroke-linejoin:miter;stroke-opacity:1" id="path4170-6" d="m 39.721416,27.740968 c -5.284353,-1.724059 -1.643908,-13.63682 1.146615,-13.979623 1.078394,-1.660731 1.948269,-2.457173 1.948269,-2.457173 0,0 0.628123,1.639929 1.005341,3.364125 2.587798,1.806167 0.682681,14.633127 -4.100225,13.072671 z"/><path style="display:inline;opacity:1;fill:#ff8080;fill-rule:evenodd;stroke:#000;stroke-width:.99999988px;stroke-linecap:butt;stroke-linejoin:miter;stroke-opacity:1" id="path4170-4" d="M 47.778061,38.216802 C 43.257706,34.537147 49.649148,24.303094 52.34974,25.0247 c 1.425962,-1.210725 2.440314,-1.657918 2.440314,-1.657918 0,0 0.178315,1.836074 0.100491,3.659352 1.973025,2.739506 -3.021043,14.521149 -7.112443,11.190667 z"/></g></svg>