<svg xmlns="http://www.w3.org/2000/svg" xmlns:svg="http://www.w3.org/2000/svg" id="svg4311" width="100%" height="100%" version="1.1" viewBox="0 0 64 64"><metadata id="metadata4316"/><g id="layer5" style="display:inline;opacity:1"><flowRoot id="flowRoot4156" xml:space="preserve" style="fill:#000;stroke:none;stroke-opacity:1;stroke-width:1px;stroke-linejoin:miter;stroke-linecap:butt;fill-opacity:1;font-family:sans-serif;font-style:normal;font-weight:400;font-size:40px;line-height:125%;letter-spacing:0;word-spacing:0"><flowRegion id="flowRegion4158"><rect id="rect4160" width="42.679" height="44.068" x="6.566" y="11.22"/></flowRegion><flowPara id="flowPara4162"/></flowRoot><flowRoot id="flowRoot4168" xml:space="preserve" style="fill:#000;stroke:none;stroke-opacity:1;stroke-width:1px;stroke-linejoin:miter;stroke-linecap:butt;fill-opacity:1;font-family:sans-serif;font-style:normal;font-weight:400;font-size:40px;line-height:125%;letter-spacing:0;word-spacing:0"><flowRegion id="flowRegion4170"><rect id="rect4172" width="63.766" height="63.64" x=".253" y="-.271"/></flowRegion><flowPara id="flowPara4174"/></flowRoot><ellipse style="color:#000;clip-rule:nonzero;display:inline;overflow:visible;visibility:visible;opacity:1;isolation:auto;mix-blend-mode:normal;color-interpolation:sRGB;color-interpolation-filters:linearRGB;solid-color:#000;solid-opacity:1;fill:#ffd5d5;fill-opacity:1;fill-rule:evenodd;stroke:#000;stroke-width:2;stroke-linecap:butt;stroke-linejoin:miter;stroke-miterlimit:4;stroke-dasharray:none;stroke-dashoffset:0;stroke-opacity:1;color-rendering:auto;image-rendering:auto;shape-rendering:auto;text-rendering:auto;enable-background:accumulate" id="path4184-6" cx="32.046" cy="32.291" rx="29.831" ry="29.831"/><path style="display:inline;opacity:1;fill:#ff8080;fill-opacity:1;fill-rule:evenodd;stroke:#000;stroke-width:1;stroke-linecap:butt;stroke-linejoin:miter;stroke-miterlimit:4;stroke-dasharray:none;stroke-opacity:1" id="path4162-0-4" d="m 20.090383,39.245964 c -0.98243,2.876747 -0.95911,6.861357 -0.49532,9.918883 -6.64892,-1.722769 -10.4168601,-5.748411 -10.1740601,-12.55133 0.344222,-9.644653 8.2157101,-9.893486 8.9049701,-16.150635 0.25503,-2.315199 0.48047,-4.81417 -3.7743,-7.638107 5.5059,-0.216791 8.354,5.850627 8.08446,8.788789 -0.82247,8.965684 -8.23691,10.427717 -2.54575,17.6324 z"/><path style="display:inline;opacity:1;fill:#ff8080;fill-opacity:1;fill-rule:evenodd;stroke:#000;stroke-width:1;stroke-linecap:butt;stroke-linejoin:miter;stroke-miterlimit:4;stroke-dasharray:none;stroke-opacity:1" id="path4162-0-7-0" d="m 43.781053,39.175724 c 0.98243,2.876747 0.78054,6.906001 0.31674,9.963527 6.64893,-1.72277 10.41688,-5.748411 10.17407,-12.551331 -0.34422,-9.644653 -8.21571,-9.893486 -8.90496,-16.150634 -0.25503,-2.315199 -0.48048,-4.814171 3.77429,-7.638108 -5.50589,-0.21679 -8.35399,5.850627 -8.08446,8.78879 0.82247,8.965683 8.41548,10.383074 2.72432,17.587756 z"/></g></svg>