<svg xmlns="http://www.w3.org/2000/svg" xmlns:svg="http://www.w3.org/2000/svg" xmlns:xlink="http://www.w3.org/1999/xlink" id="svg4311" width="100%" height="100%" version="1.1" viewBox="0 0 64 64"><defs id="defs4313"><linearGradient id="demonRace"><stop style="stop-color:#faa;stop-opacity:1" id="stop4316" offset="0"/><stop style="stop-color:#f55;stop-opacity:1" id="stop4318" offset="1"/></linearGradient><linearGradient id="linearGradient4326-2" x1="24.439" x2="29.08" y1="1044.319" y2="1037.646" gradientTransform="matrix(2.1849017,0,0,2.7723419,-39.050568,-2846.0943)" gradientUnits="userSpaceOnUse" xlink:href="#demonRace"/></defs><metadata id="metadata4316"/><g id="layer5" style="display:inline;opacity:1"><flowRoot id="flowRoot4156" xml:space="preserve" style="fill:#000;stroke:none;stroke-opacity:1;stroke-width:1px;stroke-linejoin:miter;stroke-linecap:butt;fill-opacity:1;font-family:sans-serif;font-style:normal;font-weight:400;font-size:40px;line-height:125%;letter-spacing:0;word-spacing:0"><flowRegion id="flowRegion4158"><rect id="rect4160" width="42.679" height="44.068" x="6.566" y="11.22"/></flowRegion><flowPara id="flowPara4162"/></flowRoot><flowRoot id="flowRoot4168" xml:space="preserve" style="fill:#000;stroke:none;stroke-opacity:1;stroke-width:1px;stroke-linejoin:miter;stroke-linecap:butt;fill-opacity:1;font-family:sans-serif;font-style:normal;font-weight:400;font-size:40px;line-height:125%;letter-spacing:0;word-spacing:0"><flowRegion id="flowRegion4170"><rect id="rect4172" width="63.766" height="63.64" x=".253" y="-.271"/></flowRegion><flowPara id="flowPara4174"/></flowRoot><ellipse style="color:#000;clip-rule:nonzero;display:inline;overflow:visible;visibility:visible;opacity:1;isolation:auto;mix-blend-mode:normal;color-interpolation:sRGB;color-interpolation-filters:linearRGB;solid-color:#000;solid-opacity:1;fill:#ffd5d5;fill-opacity:1;fill-rule:evenodd;stroke:#000;stroke-width:2;stroke-linecap:butt;stroke-linejoin:miter;stroke-miterlimit:4;stroke-dasharray:none;stroke-dashoffset:0;stroke-opacity:1;color-rendering:auto;image-rendering:auto;shape-rendering:auto;text-rendering:auto;enable-background:accumulate" id="path4184" cx="31.978" cy="31.896" rx="29.831" ry="29.831"/><path style="display:inline;opacity:1;fill:#f55;fill-opacity:1;fill-rule:evenodd;stroke:#000;stroke-width:.75;stroke-linecap:butt;stroke-linejoin:miter;stroke-miterlimit:4;stroke-dasharray:none;stroke-opacity:1" id="path4271-6-6" d="m 15.700934,29.856178 c 2.568127,-2.34433 5.221411,-4.018641 8.12056,-3.758324 C 19.186534,19.830311 20.539224,14.492311 23.703789,8.1219446 15.685148,13.243974 11.468784,20.641061 15.700934,29.856178 Z"/><path style="display:inline;opacity:1;fill:#f55;fill-opacity:1;fill-rule:evenodd;stroke:#000;stroke-width:.75;stroke-linecap:butt;stroke-linejoin:miter;stroke-miterlimit:4;stroke-dasharray:none;stroke-opacity:1" id="path4271-6-6-9" d="M 48.241753,30.321867 C 45.673626,27.977537 43.020342,26.303226 40.121193,26.563543 44.756153,20.296 43.403463,14.958 40.238898,8.587634 48.257539,13.709663 52.473903,21.10675 48.241753,30.321867 Z"/><path style="display:inline;opacity:1;fill:url(#linearGradient4326-2);fill-opacity:1;fill-rule:evenodd;stroke:#000;stroke-width:.75;stroke-linecap:butt;stroke-linejoin:miter;stroke-miterlimit:4;stroke-dasharray:none;stroke-opacity:1" id="path4312-8" d="M 51.745125,43.130707 C 51.433598,45.715638 48.455065,47.002005 40.775499,45.41179 28.749883,42.921949 14.02289,30.439757 12.898037,39.530821 11.769885,37.784523 10.03842,37.791176 9.9619993,39.780332 c -0.07472,1.94452 1.5899067,5.250538 1.6011717,7.556017 1.027616,-1.711644 4.52723,-2.70331 5.589509,-4.030985 0.694402,-0.86802 0.02292,-3.54832 -2.80641,-2.956148 -0.398482,-8.206132 14.418361,4.288813 25.402589,6.762019 9.971232,2.245043 13.456432,-0.618786 13.667921,-3.887378 0.359854,-5.562149 -8.213906,-9.366079 -8.316642,-7.771428 -0.09935,1.541976 7.263863,2.543069 6.644987,7.678278 z"/></g></svg>