<svg xmlns="http://www.w3.org/2000/svg" xmlns:svg="http://www.w3.org/2000/svg" id="svg4311" width="100%" height="100%" version="1.1" viewBox="0 0 64 64"><metadata id="metadata4316"/><g id="layer5" style="display:inline;opacity:1"><flowRoot id="flowRoot4156" xml:space="preserve" style="fill:#000;stroke:none;stroke-opacity:1;stroke-width:1px;stroke-linejoin:miter;stroke-linecap:butt;fill-opacity:1;font-family:sans-serif;font-style:normal;font-weight:400;font-size:40px;line-height:125%;letter-spacing:0;word-spacing:0"><flowRegion id="flowRegion4158"><rect id="rect4160" width="42.679" height="44.068" x="6.566" y="11.22"/></flowRegion><flowPara id="flowPara4162"/></flowRoot><flowRoot id="flowRoot4168" xml:space="preserve" style="fill:#000;stroke:none;stroke-opacity:1;stroke-width:1px;stroke-linejoin:miter;stroke-linecap:butt;fill-opacity:1;font-family:sans-serif;font-style:normal;font-weight:400;font-size:40px;line-height:125%;letter-spacing:0;word-spacing:0"><flowRegion id="flowRegion4170"><rect id="rect4172" width="63.766" height="63.64" x=".253" y="-.271"/></flowRegion><flowPara id="flowPara4174"/></flowRoot><ellipse style="color:#000;clip-rule:nonzero;display:inline;overflow:visible;visibility:visible;opacity:1;isolation:auto;mix-blend-mode:normal;color-interpolation:sRGB;color-interpolation-filters:linearRGB;solid-color:#000;solid-opacity:1;fill:#ffd5d5;fill-opacity:1;fill-rule:evenodd;stroke:#000;stroke-width:2;stroke-linecap:butt;stroke-linejoin:miter;stroke-miterlimit:4;stroke-dasharray:none;stroke-dashoffset:0;stroke-opacity:1;color-rendering:auto;image-rendering:auto;shape-rendering:auto;text-rendering:auto;enable-background:accumulate" id="path4184" cx="31.978" cy="31.896" rx="29.831" ry="29.831"/><path style="display:inline;opacity:1;fill:#ff8080;fill-opacity:1;stroke:#000;stroke-width:2.72235918;stroke-linecap:round;stroke-linejoin:round;stroke-miterlimit:4;stroke-dasharray:none;stroke-opacity:1" id="path4152-3-4-01" d="m -26.249999,29.982145 -16.666493,9.760069 -16.785714,-9.553571 -0.119222,-19.313641 16.666493,-9.7600691 16.785715,9.5535711 z" transform="matrix(0.44756119,0.0020462,-9.5890258e-4,0.30147432,58.994475,37.998357)"/><path style="display:inline;opacity:1;fill:#ff8080;fill-opacity:1;stroke:#000;stroke-width:2.72235918;stroke-linecap:round;stroke-linejoin:round;stroke-miterlimit:4;stroke-dasharray:none;stroke-opacity:1" id="path4152-3-4-2-0" d="m -26.249999,29.982145 -16.666493,9.760069 -16.785714,-9.553571 -0.119222,-19.313641 16.666493,-9.7600691 16.785715,9.5535711 z" transform="matrix(0.44756119,0.0020462,-9.5890258e-4,0.30147432,43.789034,37.928839)"/><path style="display:inline;opacity:1;fill:#ff8080;fill-opacity:1;stroke:#000;stroke-width:2.72235918;stroke-linecap:round;stroke-linejoin:round;stroke-miterlimit:4;stroke-dasharray:none;stroke-opacity:1" id="path4152-3-4-4-9" d="m -26.249999,29.982145 -16.666493,9.760069 -16.785714,-9.553571 -0.119222,-19.313641 16.666493,-9.7600691 16.785715,9.5535711 z" transform="matrix(0.44756119,0.0020462,-9.5890258e-4,0.30147432,66.753188,29.050539)"/><path style="display:inline;opacity:1;fill:#ff8080;fill-opacity:1;stroke:#000;stroke-width:2.72235918;stroke-linecap:round;stroke-linejoin:round;stroke-miterlimit:4;stroke-dasharray:none;stroke-opacity:1" id="path4152-3-4-0-6" d="m -26.249999,29.982145 -16.666493,9.760069 -16.785714,-9.553571 -0.119222,-19.313641 16.666493,-9.7600691 16.785715,9.5535711 z" transform="matrix(0.44756119,0.0020462,-9.5890258e-4,0.30147432,36.596544,29.101789)"/><path style="display:inline;opacity:1;fill:#f55;fill-opacity:1;stroke:#000;stroke-width:2.72235918;stroke-linecap:round;stroke-linejoin:round;stroke-miterlimit:4;stroke-dasharray:none;stroke-opacity:1" id="path4152-3-4" d="m -26.249999,29.982145 -16.666493,9.760069 -16.785714,-9.553571 -0.119222,-19.313641 16.666493,-9.7600691 16.785715,9.5535711 z" transform="matrix(0.44756119,0.0020462,-9.5890258e-4,0.30147432,58.854353,31.999499)"/><path style="display:inline;opacity:1;fill:#f55;fill-opacity:1;stroke:#000;stroke-width:2.72235918;stroke-linecap:round;stroke-linejoin:round;stroke-miterlimit:4;stroke-dasharray:none;stroke-opacity:1" id="path4152-3-4-2" d="m -26.249999,29.982145 -16.666493,9.760069 -16.785714,-9.553571 -0.119222,-19.313641 16.666493,-9.7600691 16.785715,9.5535711 z" transform="matrix(0.44756119,0.0020462,-9.5890258e-4,0.30147432,43.648912,31.929982)"/><path style="display:inline;opacity:1;fill:#f55;fill-opacity:1;stroke:#000;stroke-width:2.72235918;stroke-linecap:round;stroke-linejoin:round;stroke-miterlimit:4;stroke-dasharray:none;stroke-opacity:1" id="path4152-3-4-3" d="m -26.249999,29.982145 -16.666493,9.760069 -16.785714,-9.553571 -0.119222,-19.313641 16.666493,-9.7600691 16.785715,9.5535711 z" transform="matrix(0.44756119,0.0020462,-9.5890258e-4,0.30147432,51.49167,23.266231)"/><path style="display:inline;opacity:1;fill:#f55;fill-opacity:1;stroke:#000;stroke-width:2.72235918;stroke-linecap:round;stroke-linejoin:round;stroke-miterlimit:4;stroke-dasharray:none;stroke-opacity:1" id="path4152-3-4-4" d="m -26.249999,29.982145 -16.666493,9.760069 -16.785714,-9.553571 -0.119222,-19.313641 16.666493,-9.7600691 16.785715,9.5535711 z" transform="matrix(0.44756119,0.0020462,-9.5890258e-4,0.30147432,66.613067,23.051682)"/><path style="display:inline;opacity:1;fill:#f55;fill-opacity:1;stroke:#000;stroke-width:2.72235918;stroke-linecap:round;stroke-linejoin:round;stroke-miterlimit:4;stroke-dasharray:none;stroke-opacity:1" id="path4152-3-4-0" d="m -26.249999,29.982145 -16.666493,9.760069 -16.785714,-9.553571 -0.119222,-19.313641 16.666493,-9.7600691 16.785715,9.5535711 z" transform="matrix(0.44756119,0.0020462,-9.5890258e-4,0.30147432,36.456422,23.102932)"/><path style="display:inline;opacity:1;fill:#f55;fill-opacity:1;stroke:#000;stroke-width:2.72235918;stroke-linecap:round;stroke-linejoin:round;stroke-miterlimit:4;stroke-dasharray:none;stroke-opacity:1" id="path4152-3-4-1" d="m -26.249999,29.982145 -16.666493,9.760069 -16.785714,-9.553571 -0.119222,-19.313641 16.666493,-9.7600691 16.785715,9.5535711 z" transform="matrix(0.44756119,0.0020462,-9.5890258e-4,0.30147432,43.990237,14.364933)"/><path style="display:inline;opacity:1;fill:#f55;fill-opacity:1;stroke:#000;stroke-width:2.72235918;stroke-linecap:round;stroke-linejoin:round;stroke-miterlimit:4;stroke-dasharray:none;stroke-opacity:1" id="path4152-3-4-7" d="m -26.249999,29.982145 -16.666493,9.760069 -16.785714,-9.553571 -0.119222,-19.313641 16.666493,-9.7600691 16.785715,9.5535711 z" transform="matrix(0.44756119,0.0020462,-9.5890258e-4,0.30147432,58.855892,14.432898)"/><path style="fill:none;fill-rule:evenodd;stroke:#000;stroke-width:1px;stroke-linecap:butt;stroke-linejoin:miter;stroke-opacity:1" id="path4255" d="m 24.429986,43.776438 -0.06164,5.839625"/><path style="fill:none;fill-rule:evenodd;stroke:#000;stroke-width:1px;stroke-linecap:butt;stroke-linejoin:miter;stroke-opacity:1" id="path4257" d="m 39.582398,43.928822 0.06423,6.009306"/></g></svg>