<svg xmlns="http://www.w3.org/2000/svg" xmlns:svg="http://www.w3.org/2000/svg" id="svg4311" width="100%" height="100%" version="1.1" viewBox="0 0 64 64"><metadata id="metadata4316"/><g id="layer5" style="display:inline;opacity:1"><flowRoot id="flowRoot4156" xml:space="preserve" style="fill:#000;stroke:none;stroke-opacity:1;stroke-width:1px;stroke-linejoin:miter;stroke-linecap:butt;fill-opacity:1;font-family:sans-serif;font-style:normal;font-weight:400;font-size:40px;line-height:125%;letter-spacing:0;word-spacing:0"><flowRegion id="flowRegion4158"><rect id="rect4160" width="42.679" height="44.068" x="6.566" y="11.22"/></flowRegion><flowPara id="flowPara4162"/></flowRoot><flowRoot id="flowRoot4168" xml:space="preserve" style="fill:#000;stroke:none;stroke-opacity:1;stroke-width:1px;stroke-linejoin:miter;stroke-linecap:butt;fill-opacity:1;font-family:sans-serif;font-style:normal;font-weight:400;font-size:40px;line-height:125%;letter-spacing:0;word-spacing:0"><flowRegion id="flowRegion4170"><rect id="rect4172" width="63.766" height="63.64" x=".253" y="-.271"/></flowRegion><flowPara id="flowPara4174"/></flowRoot><ellipse style="color:#000;clip-rule:nonzero;display:inline;overflow:visible;visibility:visible;opacity:1;isolation:auto;mix-blend-mode:normal;color-interpolation:sRGB;color-interpolation-filters:linearRGB;solid-color:#000;solid-opacity:1;fill:#ffd5d5;fill-opacity:1;fill-rule:evenodd;stroke:#000;stroke-width:2;stroke-linecap:butt;stroke-linejoin:miter;stroke-miterlimit:4;stroke-dasharray:none;stroke-dashoffset:0;stroke-opacity:1;color-rendering:auto;image-rendering:auto;shape-rendering:auto;text-rendering:auto;enable-background:accumulate" id="path4184" cx="31.978" cy="31.896" rx="29.831" ry="29.831"/><path style="fill:#ff8080;fill-rule:evenodd;stroke:#000;stroke-width:1;stroke-linecap:butt;stroke-linejoin:miter;stroke-opacity:1;stroke-miterlimit:4;stroke-dasharray:none" id="path4166" d="m 35.52688,6.4110039 c -2.973132,0.073138 -8.023048,4.6016981 -8.927932,21.6439451 -6.332884,1.825296 -14.205856,7.410566 -14.545898,12.534961 -0.142008,2.140057 3.312686,7.959524 9.260407,8.317216 10.649671,0.640463 8.486048,5.830241 8.86088,8.438253 C 41.274484,58.211036 46.603114,50.667921 49.218478,46.77741 43.088857,42.199754 45.232549,33.557788 38.249731,29.62116 46.82059,22.68941 47.616226,9.3636471 45.947185,9.0828789 38.524615,7.8342427 32.154067,18.430603 31.902265,27.45202 c 0,0 -1.762056,0.12016 -1.768356,-0.04043 C 29.816461,19.302845 34.192378,10.957569 37.594063,8.8051463 38.070559,7.5562272 37.084231,6.3726949 35.52688,6.4110039 Z M 24.691721,33.472527 c 1.412686,-3.7e-4 2.557987,1.144932 2.557617,2.557618 3.7e-4,1.412686 -1.144931,2.557987 -2.557617,2.557617 -1.411999,-6.01e-4 -2.556228,-1.145617 -2.555859,-2.557617 -3.69e-4,-1.412 1.14386,-2.557016 2.555859,-2.557618 z"/></g></svg>