<svg xmlns="http://www.w3.org/2000/svg" xmlns:svg="http://www.w3.org/2000/svg" id="svg4311" width="100%" height="100%" version="1.1" viewBox="0 0 64 64"><metadata id="metadata4316"/><g id="layer5" style="display:inline;opacity:1"><ellipse style="color:#000;clip-rule:nonzero;display:inline;overflow:visible;visibility:visible;opacity:1;isolation:auto;mix-blend-mode:normal;color-interpolation:sRGB;color-interpolation-filters:linearRGB;solid-color:#000;solid-opacity:1;fill:#ffd5d5;fill-opacity:1;fill-rule:evenodd;stroke:#000;stroke-width:2;stroke-linecap:butt;stroke-linejoin:miter;stroke-miterlimit:4;stroke-dasharray:none;stroke-dashoffset:0;stroke-opacity:1;color-rendering:auto;image-rendering:auto;shape-rendering:auto;text-rendering:auto;enable-background:accumulate" id="path4184" cx="31.978" cy="31.896" rx="29.831" ry="29.831"/><flowRoot id="flowRoot4156" xml:space="preserve" style="fill:#000;stroke:none;stroke-opacity:1;stroke-width:1px;stroke-linejoin:miter;stroke-linecap:butt;fill-opacity:1;font-family:sans-serif;font-style:normal;font-weight:400;font-size:40px;line-height:125%;letter-spacing:0;word-spacing:0"><flowRegion id="flowRegion4158"><rect id="rect4160" width="42.679" height="44.068" x="6.566" y="11.22"/></flowRegion><flowPara id="flowPara4162"/></flowRoot><flowRoot id="flowRoot4168" xml:space="preserve" style="fill:#000;stroke:none;stroke-opacity:1;stroke-width:1px;stroke-linejoin:miter;stroke-linecap:butt;fill-opacity:1;font-family:sans-serif;font-style:normal;font-weight:400;font-size:40px;line-height:125%;letter-spacing:0;word-spacing:0"><flowRegion id="flowRegion4170"><rect id="rect4172" width="63.766" height="63.64" x=".253" y="-.271"/></flowRegion><flowPara id="flowPara4174"/></flowRoot><path style="display:inline;opacity:1;fill:#ff8080;fill-rule:evenodd;stroke:#000;stroke-width:1;stroke-linecap:butt;stroke-linejoin:miter;stroke-miterlimit:4;stroke-dasharray:none;stroke-opacity:1" id="path4166-7" d="m 27.906584,16.750344 c -6.398513,1.579889 -14.272812,7.410566 -14.612854,12.534961 -0.142008,2.140057 3.312686,7.959524 9.260407,8.317216 10.649667,0.640463 8.486047,5.830241 8.860877,8.438253 11.10015,0.865657 16.42878,-6.677458 19.04414,-10.567969 -6.12962,-4.577656 -3.97766,-12.976397 -10.79017,-17.200893 -4.0195,-2.492526 -7.69999,-2.524637 -11.7624,-1.521568 z m -1.97418,5.417578 c 1.41268,-3.7e-4 2.55798,1.144932 2.55761,2.557618 3.7e-4,1.412686 -1.14493,2.557987 -2.55761,2.557617 -1.412,-6.01e-4 -2.55623,-1.145617 -2.55586,-2.557617 -3.7e-4,-1.412 1.14386,-2.557016 2.55586,-2.557618 z"/><path style="fill:#ff8080;fill-rule:evenodd;stroke:#000;stroke-width:1px;stroke-linecap:butt;stroke-linejoin:miter;stroke-opacity:1" id="path4186" d="m 33.125693,16.116608 c -0.02829,0.176327 0.473763,-0.266609 0.435042,-0.07907 -2.079273,10.070605 -18.744792,35.928867 -1.069698,36.920903 21.801996,1.223663 9.533145,-24.30443 8.846253,-33.001987 -0.02465,-0.312123 0.255795,0.5135 0.263086,0.24674 1.40756,-2.192813 -8.643928,-6.842676 -8.474683,-4.086586 z"/></g></svg>