<svg xmlns="http://www.w3.org/2000/svg" xmlns:svg="http://www.w3.org/2000/svg" id="svg4311" width="100%" height="100%" version="1.1" viewBox="0 0 64 64"><metadata id="metadata4316"/><g id="layer1" transform="translate(0,-988.36216)" style="display:inline"><path style="display:inline;fill:#f5d;fill-opacity:1;fill-rule:evenodd;stroke:#000;stroke-width:.5;stroke-linecap:butt;stroke-linejoin:miter;stroke-miterlimit:4;stroke-dasharray:none;stroke-opacity:1" id="path4859-0" d="m 5.331883,1018.6452 c -2.821048,-11.2763 13.348509,-11.2697 15.747915,-2.3892 1.902698,-8.967 17.212327,-8.9586 15.277975,2.7704 -1.483904,8.9976 -12.60519,8.74 -15.897167,22.1085 -2.822599,-13.331 -12.931059,-13.7052 -15.128723,-22.4897 z"/><path style="display:inline;fill:#fff;fill-opacity:.78504675;fill-rule:evenodd;stroke:none;stroke-width:1.15799999;stroke-linecap:butt;stroke-linejoin:miter;stroke-miterlimit:4;stroke-dasharray:none;stroke-opacity:1" id="path4861-7" d="m 34.338119,1022.3838 c 1.117087,-7.9326 -2.603875,-11.0671 -9.614305,-10.6302 6.84924,-3.5212 14.282885,1.0059 9.614305,10.6302 z"/><path style="display:inline;fill:#f0c;fill-rule:evenodd;stroke:#000;stroke-width:.25;stroke-linecap:butt;stroke-linejoin:miter;stroke-miterlimit:4;stroke-dasharray:none;stroke-opacity:1" id="path4144-4-6" d="m 53.331096,1012.7304 -5.57782,-0.021 0.04689,-6.9359 -6.940952,0.02 0.01611,-5.613 6.924851,0.02 0.0189,-7.22612 5.537206,0.0194 -0.02645,7.20362 7.025921,0.024 -0.0035,5.5802 -7.028627,-0.022 z"/><path style="display:inline;fill:#f5d;fill-rule:evenodd;stroke:#000;stroke-width:.25;stroke-linecap:butt;stroke-linejoin:miter;stroke-miterlimit:4;stroke-dasharray:none;stroke-opacity:1" id="path4144-4-6-7" d="m 52.485682,1031.7507 -4.066231,-0.015 0.03418,-5.0563 -5.059955,0.014 0.01174,-4.0919 5.048217,0.014 0.01378,-5.2679 4.036623,0.013 -0.01929,5.2515 5.121896,0.018 -0.0025,4.068 -5.123868,-0.016 z"/><path style="display:inline;fill:#fae;fill-rule:evenodd;stroke:#000;stroke-width:.25;stroke-linecap:butt;stroke-linejoin:miter;stroke-miterlimit:4;stroke-dasharray:none;stroke-opacity:1" id="path4144-4-6-7-6" d="m 51.69757,1048.4246 -2.964282,-0.012 0.02491,-3.686 -3.688708,0.011 0.0086,-2.983 3.680151,0.011 0.01004,-3.8403 2.942698,0.01 -0.01406,3.8283 3.733862,0.013 -0.0019,2.9656 -3.735299,-0.012 z"/></g></svg>