<svg xmlns="http://www.w3.org/2000/svg" xmlns:osb="http://www.openswatchbook.org/uri/2009/osb" xmlns:svg="http://www.w3.org/2000/svg" xmlns:xlink="http://www.w3.org/1999/xlink" id="svg4206" version="1.1" viewBox="0 0 256 256"><style id="style3">svg{cursor:default}</style><defs id="defs4208"><linearGradient id="linearGradient4584"><stop style="stop-color:#f55;stop-opacity:1" id="stop4586" offset="0"/><stop style="stop-color:#ff2a2a;stop-opacity:1" id="stop4588" offset="1"/></linearGradient><linearGradient id="linearGradient4509" osb:paint="solid"><stop style="stop-color:#faa;stop-opacity:1" id="stop4511" offset="0"/></linearGradient><linearGradient id="linearGradient4503" osb:paint="solid"><stop style="stop-color:#ff8080;stop-opacity:1" id="stop4505" offset="0"/></linearGradient><linearGradient id="linearGradient4497" osb:paint="solid"><stop style="stop-color:#f55;stop-opacity:1" id="stop4499" offset="0"/></linearGradient><linearGradient id="linearGradient4590" x1="157.857" x2="153.214" y1="193.857" y2="172.071" gradientTransform="matrix(1.2155063,0,0,1.2155062,-29.034987,-14.338144)" gradientUnits="userSpaceOnUse" xlink:href="#linearGradient4584"/></defs><metadata id="metadata4211"/><g id="layer4"><path style="fill:#ff8080;fill-rule:evenodd;stroke:#000;stroke-width:1.2155062px;stroke-linecap:butt;stroke-linejoin:miter;stroke-opacity:1" id="path4582" d="m 63.053522,213.03091 c 6.660065,-4.03834 6.469552,-10.41808 5.52531,-22.4082 -0.744629,-9.45541 3.803589,-16.21699 5.064869,-25.47782 0.587452,-4.31332 7.13789,-6.55441 8.441446,-13.81328 1.089578,-6.06733 2.019629,-9.55781 1.227847,-14.12023 -0.477575,-2.7519 -0.991085,-5.54271 -0.48375,-8.04789 0.491683,-2.42789 2.007464,-5.33626 1.404634,-8.06761 -1.020607,-4.62425 -1.032026,-6.87238 0.153482,-9.66929 1.924402,-4.54016 -1.429587,-9.27999 1.163348,-15.086317 4.700474,-10.525724 9.286496,-15.210191 15.259102,-21.749079 4.16446,-4.559302 8.68878,-10.572346 13.58033,-14.375916 3.39028,-2.636218 7.11648,-3.094525 10.36269,-5.883555 4.84052,-4.158799 12.61746,-6.46569 14.4272,-12.585427 2.66743,-9.020064 8.34416,-24.803793 9.82277,-26.705666 3.4188,-4.39745 4.87692,-3.520988 4.45096,0.920885 -1.38707,14.463758 1.57669,35.525937 -2.25549,49.485378 -2.72656,9.932013 -3.47939,17.947913 -5.57205,26.948078 -0.8878,3.818318 -3.32532,5.960331 -5.83228,7.367085 6.09211,3.479644 5.75134,8.077234 7.36709,15.348074 0,0 0.48042,11.90939 3.68354,16.57593 2.68086,3.90568 4.66188,13.15362 5.52531,13.50632 3.37917,1.38035 2.10314,4.66754 3.9905,6.44619 2.88236,2.71633 1.86127,6.17355 3.37658,8.9019 5.14296,9.26 20.07898,20.85828 11.81802,23.02212 z"/><path style="fill:url(#linearGradient4590);fill-opacity:1;fill-rule:evenodd;stroke:#000;stroke-width:1.2155062px;stroke-linecap:butt;stroke-linejoin:miter;stroke-opacity:1" id="path4578" d="M 4.1743822,232.80032 C 55.399519,218.98117 161.0418,186.92943 244.45394,165.94748 199.91725,230.21073 175.70658,229.228 117.87353,232.85287 84.861122,234.92203 41.278488,234.14662 4.1743822,232.80036 Z"/><path style="fill:#f55;fill-rule:evenodd;stroke:#000;stroke-width:1.2155062px;stroke-linecap:butt;stroke-linejoin:miter;stroke-opacity:1" id="path4580" d="m 135.18952,199.06415 c 37.55165,-10.64133 68.64681,-20.53791 111.42709,-32.07749 7.13921,-1.92574 5.44319,-7.96576 -5.37182,-7.52056 -8.63354,0.35541 -72.13599,25.22201 -106.05527,39.59805 z"/><path style="fill:#ff8080;fill-rule:evenodd;stroke:#000;stroke-width:1.2155062px;stroke-linecap:butt;stroke-linejoin:miter;stroke-opacity:1" id="path4576" d="m 4.1743822,232.90884 c 11.7148468,2.49843 25.7629188,-6.87588 54.3452488,-12.77918 39.113007,-8.07828 92.272409,-23.36023 139.050479,-45.93411 -53.09918,19.16815 -52.04248,8.80865 -98.219549,22.41459 -15.827857,4.66363 -38.723813,16.78277 -58.135124,23.93215 -21.840016,8.04389 -40.28270556,11.67519 -37.0410548,12.36655 z"/><path style="fill:#faa;fill-rule:evenodd;stroke:#000;stroke-width:1.2155062px;stroke-linecap:butt;stroke-linejoin:miter;stroke-opacity:1" id="path4592" d="m 67.999371,202.59248 c 16.650415,-6.98945 26.04384,-10.87729 42.283499,-14.21182 22.53316,-4.62677 50.08797,-6.22747 68.96928,-10.54332 -4.1375,-8.49448 -12.33389,-14.2263 -15.51622,-21.33945 0,0 -41.10837,6.16269 -59.10766,9.89359 -13.499997,2.79828 -35.390145,9.694 -35.390145,9.694 -3.49325,8.32228 -2.576743,17.37951 -1.238754,26.507 z"/><path style="fill:#d4aa00;fill-rule:evenodd;stroke:#000;stroke-width:1.2155062px;stroke-linecap:butt;stroke-linejoin:miter;stroke-opacity:1" id="path4594" d="m 119.06239,159.03428 c -9.80036,1.30199 -19.600717,3.18136 -29.401075,6.14638 -0.914353,13.64302 1.899984,21.93048 3.688426,31.72627 10.344139,-1.83337 20.382689,-4.09456 30.131599,-6.76125 -0.98246,-10.46857 -2.25342,-20.87944 -4.41895,-31.1114 z m -3.2002,3.52444 c 1.92031,8.12252 3.06921,16.50217 3.56115,25.10081 l -8.85378,2.06155 -0.31841,-1.32881 -5.032,1.13408 0.28645,1.19655 -8.836305,2.17234 c -2.265679,-8.44797 -2.965163,-16.89595 -3.597845,-25.34393 l 8.91969,-1.99491 0.19811,1.11433 4.35713,-0.79183 -0.12106,-1.25294 z"/><path style="fill:#000;fill-rule:evenodd;stroke:none;stroke-width:1px;stroke-linecap:butt;stroke-linejoin:miter;stroke-opacity:1" id="path4599" d="m 74.38728,164.29281 c 3.855772,-2.63987 8.339542,-4.8739 12.919051,-6.1593 -4.682093,0.89333 -9.388676,2.7674 -13.561625,5.12752 z"/><path style="fill:#000;fill-rule:evenodd;stroke:none;stroke-width:1px;stroke-linecap:butt;stroke-linejoin:miter;stroke-opacity:1" id="path4603" d="m 83.860333,140.17757 c 0.676798,-0.009 1.65311,-0.0526 2.571412,-0.20987 0.927009,-0.15879 1.81369,-0.4375 2.287699,-0.90321 -0.563995,0.28218 -1.449089,0.34301 -2.325065,0.2966 -0.883977,-0.0468 -1.790649,-0.20661 -2.370748,-0.388 z"/><path style="fill:#000;fill-rule:evenodd;stroke:none;stroke-width:1px;stroke-linecap:butt;stroke-linejoin:miter;stroke-opacity:1" id="path4607" d="m 84.804743,123.70432 c 0.92544,-0.69827 2.652414,-1.24646 4.51033,-1.63644 1.835231,-0.38522 3.730931,-0.60531 4.986482,-0.70652 -1.255696,-0.10122 -3.181433,-0.0841 -5.078991,0.10585 -1.860883,0.18627 -3.817635,0.5491 -5.058069,1.20389 z"/><path style="fill:#000;fill-rule:evenodd;stroke:none;stroke-width:1px;stroke-linecap:butt;stroke-linejoin:miter;stroke-opacity:1" id="path4611" d="m 84.961311,109.89786 c 3.481796,-0.0608 7.346895,0.11066 11.569847,-1.03578 -4.265499,0.73166 -8.06759,0.14768 -11.516957,-0.20476 z"/><path style="fill:#000;fill-rule:evenodd;stroke:none;stroke-width:1px;stroke-linecap:butt;stroke-linejoin:miter;stroke-opacity:1" id="path4615" d="m 140.15501,99.255604 c -2.79959,-0.28222 -5.7579,-0.294818 -8.56953,0.164603 2.83633,-0.05489 5.72235,0.367528 8.36075,1.032843 z"/><path style="fill:#000;fill-rule:evenodd;stroke:none;stroke-width:1px;stroke-linecap:butt;stroke-linejoin:miter;stroke-opacity:1" id="path4619" d="m 156.90223,144.78483 c -2.10564,-0.84743 -4.67305,-0.3002 -6.65003,-0.10871 2.20001,0.21309 4.44123,0.11356 6.10191,1.19361 z"/><path style="fill:#000;fill-rule:evenodd;stroke:none;stroke-width:1px;stroke-linecap:butt;stroke-linejoin:miter;stroke-opacity:1" id="path4623" d="m 159.91112,151.51334 -0.0928,-0.60063 c -1.66041,0.46484 -3.38552,0.61203 -5.22505,0.81768 1.78361,0.1994 3.59656,0.46193 5.41063,0.38358 l -0.0928,-0.60063 z"/><path style="fill:#000;fill-rule:evenodd;stroke:none;stroke-width:1px;stroke-linecap:butt;stroke-linejoin:miter;stroke-opacity:1" id="path4631" d="m 122.6052,56.532215 c 4.48988,-1.695399 11.24251,-2.105666 15.70899,-1.499684 -4.37839,-1.001448 -11.26042,-1.035445 -16.08953,0.345278 z"/><path style="fill:#000;fill-rule:evenodd;stroke:none;stroke-width:1px;stroke-linecap:butt;stroke-linejoin:miter;stroke-opacity:1" id="path4635" d="m 114.65522,133.38927 c 4.46448,0.0943 9.22635,0.13269 13.82091,-0.46678 4.18564,-0.8416 8.15974,-2.21085 11.57449,-4.52548 -3.5601,2.04551 -7.58473,3.09741 -11.72226,3.6219 -4.48444,0.89073 -9.18981,1.1592 -13.67314,1.37036 z"/><path style="fill:#000;fill-rule:evenodd;stroke:none;stroke-width:1px;stroke-linecap:butt;stroke-linejoin:miter;stroke-opacity:1" id="path4639" d="m 95.337349,150.9707 c 2.492112,-0.99476 5.010631,-1.96439 7.554411,-2.87516 8.47756,-2.23237 17.11568,-3.8149 25.87201,-3.63648 -8.73641,0.17802 -17.2702,2.10997 -25.57872,4.66479 -2.62755,0.56401 -5.243649,1.1905 -7.847701,1.84685 z"/><path style="fill:#000;fill-rule:evenodd;stroke:none;stroke-width:1px;stroke-linecap:butt;stroke-linejoin:miter;stroke-opacity:1" id="path4647" d="m 146.77931,115.15667 0.19782,-0.57466 c -7.06892,-2.22041 -14.17804,-0.97628 -21.03506,0.14056 7.03529,-0.73181 13.95343,-1.5085 20.63942,1.00876 l 0.19782,-0.57466 z"/><path style="fill:#fff6d5;fill-rule:evenodd;stroke:none;stroke-width:1px;stroke-linecap:butt;stroke-linejoin:miter;stroke-opacity:1" id="path4727" d="m 90.925747,166.10045 c 9.291943,-1.9919 14.694763,-3.32217 26.122873,-4.82958 0.14383,-0.0237 0.28864,-0.0475 0.43444,-0.0712 1.14949,5.16707 3.76003,17.94086 4.75965,27.86958 -0.66666,-10.33948 -3.06936,-23.76413 -3.78169,-28.60667 a 0.53640511,0.56631994 82.141084 0 0 -0.62898,-0.4501 c -0.32195,0.0418 -0.63925,0.0835 -0.95208,0.12507 -11.41598,1.89186 -16.77782,3.60573 -25.954213,5.96295 z"/></g></svg>