<svg xmlns="http://www.w3.org/2000/svg" xmlns:svg="http://www.w3.org/2000/svg" id="svg4164" version="1.1" viewBox="0 0 256 256"><defs id="defs4166"><marker id="Arrow1Lstart" orient="auto" refX="0" refY="0" style="overflow:visible"><path id="path4233" d="M 0.0,0.0 L 5.0,-5.0 L -12.5,0.0 L 5.0,5.0 L 0.0,0.0 z" transform="scale(0.8) translate(12.5,0)" style="fill-rule:evenodd;stroke:#000;stroke-width:1pt;stroke-opacity:1;fill:#000;fill-opacity:1"/></marker></defs><metadata id="metadata4169"/><g id="layer1" transform="translate(0,-796.36219)" style="display:inline"><g id="g4271" transform="translate(328.51176,-13.142136)"><path id="path4182-6" d="m -250.66909,1032.5752 109.57501,12.375 c 7.08061,0.7996 16.90633,1.9868 17.325,-10.35 l 3.375,-99.4501 c 0.16847,-4.96441 -2.08547,-9.0285 -9.225,-13.275 -18.1598,-10.80123 -35.61307,-28.91687 -35.88751,-70.20001 0.22436,-39.57594 -42.20193,-39.35655 -43.87499,0.7875 -0.75616,18.14358 -11.93025,48.45557 -32.51251,61.9875 -6.043,3.97301 -9.80032,6.85769 -10.0125,11.81251 l -4.1625,97.2 c -0.18628,4.3501 1.10491,8.6275 5.4,9.1126 z" style="display:inline;fill:#aca313;fill-opacity:1;fill-rule:evenodd;stroke:#000;stroke-width:.89999998px;stroke-linecap:butt;stroke-linejoin:miter;stroke-opacity:1"/><path id="path4182" d="m -267.34878,1032.4431 113.85,20.475 c 7.01311,1.2612 16.89403,1.9864 17.325,-10.35 l 3.6,-103.05011 c 0.17342,-4.96424 -2.08547,-9.0285 -9.225,-13.275 -18.1598,-10.80123 -40.11306,-33.41687 -40.3875,-74.70001 0.22436,-39.57594 -42.20194,-39.35655 -43.875,0.7875 -0.75616,18.14358 -11.93025,48.45557 -32.5125,61.9875 -6.04301,3.97301 -9.80032,6.85769 -10.0125,11.81251 l -4.16251,97.20001 c -0.18628,4.35 1.14587,8.3475 5.40001,9.1126 z" style="display:inline;fill:#e7dd26;fill-opacity:1;fill-rule:evenodd;stroke:#000;stroke-width:.89999998px;stroke-linecap:butt;stroke-linejoin:miter;stroke-opacity:1"/><path id="path4186" d="m -229.09878,834.10548 c 4.9763,-6.67112 12.7044,-5.0868 20.1375,-4.3875 21.98918,1.75852 22.06816,33.73098 3.0375,37.9125 -5.90587,-2.52553 -19.32172,-4.19025 -20.76825,-8.13529 z" style="display:inline;fill:#eae244;fill-opacity:1;fill-rule:evenodd;stroke:#000;stroke-width:.89999998px;stroke-linecap:butt;stroke-linejoin:miter;stroke-opacity:1"/><path id="path4188" d="m -202.31565,839.44027 7.07989,0.71595" style="display:inline;fill:none;fill-rule:evenodd;stroke:#000;stroke-width:.89999998px;stroke-linecap:butt;stroke-linejoin:miter;stroke-opacity:1"/><path id="path4190" d="m -202.55431,852.56594 c 0.3182,0.0796 7.8754,0.71595 7.8754,0.71595" style="display:inline;fill:none;fill-rule:evenodd;stroke:#000;stroke-width:.89999998px;stroke-linecap:butt;stroke-linejoin:miter;stroke-opacity:1"/><path id="path4192" d="m -209.87286,862.11188 7.47765,0.4773" style="display:inline;fill:none;fill-rule:evenodd;stroke:#000;stroke-width:.89999998px;stroke-linecap:butt;stroke-linejoin:miter;stroke-opacity:1"/><path id="path4194" d="m -210.42971,830.84893 4.29567,0.31818" style="display:inline;fill:none;fill-rule:evenodd;stroke:#000;stroke-width:.89999998px;stroke-linecap:butt;stroke-linejoin:miter;stroke-opacity:1"/><path id="path4352" d="m -206.81777,893.61015 -12.64848,31.32458 27.55809,-18.47671 -31.79201,-1.57374 25.21125,21.09986 z" style="display:inline;fill:none;fill-opacity:1;fill-rule:evenodd;stroke:#1a1a1a;stroke-width:1.64925241;stroke-linecap:round;stroke-linejoin:round;stroke-miterlimit:4;stroke-dasharray:none;stroke-opacity:1"/><path id="path4262" d="m -241.42137,1031.2282 11.25,-43.20011 c 4.7859,-18.37782 -13.79673,-28.95993 -14.5125,-5.175 -0.50596,16.81308 9.16747,21.04421 13.5,8.55" style="display:inline;fill:none;fill-rule:evenodd;stroke:#1a1a1a;stroke-width:3.5999999;stroke-linecap:round;stroke-linejoin:miter;stroke-miterlimit:4;stroke-dasharray:none;stroke-opacity:1"/><path id="path4262-4" d="m -254.24752,965.20805 -11.25,43.20005 c -4.78591,18.3779 13.79673,28.96 14.5125,5.175 0.50598,-16.81313 -9.16749,-21.04431 -13.5,-8.5501" style="display:inline;fill:none;fill-rule:evenodd;stroke:#1a1a1a;stroke-width:3.5999999;stroke-linecap:round;stroke-linejoin:miter;stroke-miterlimit:4;stroke-dasharray:none;stroke-opacity:1"/><path id="path4262-5" d="m -159.94621,1041.9705 11.25,-43.2001 c 4.78589,-18.37791 -13.79674,-28.96003 -14.5125,-5.175 -0.50596,16.8131 9.16746,21.0442 13.5,8.55" style="display:inline;fill:none;fill-rule:evenodd;stroke:#1a1a1a;stroke-width:3.5999999;stroke-linecap:round;stroke-linejoin:miter;stroke-miterlimit:4;stroke-dasharray:none;stroke-opacity:1"/><path id="path4262-4-5" d="m -172.77236,975.95026 -11.24999,43.20014 c -4.78591,18.3779 13.79672,28.9601 14.51249,5.175 0.50598,-16.8131 -9.16748,-21.0443 -13.49999,-8.5501" style="display:inline;fill:none;fill-rule:evenodd;stroke:#1a1a1a;stroke-width:3.5999999;stroke-linecap:round;stroke-linejoin:miter;stroke-miterlimit:4;stroke-dasharray:none;stroke-opacity:1"/><path id="path4305" d="m -225.06682,1023.9157 1.27279,-40.88855 c 0.52353,-16.81866 12.09696,-14.24268 11.45513,0.63639 l -1.7501,40.57026 c -0.58323,13.5206 -11.33384,11.1193 -10.97782,-0.3181 z" style="display:inline;fill:none;fill-rule:evenodd;stroke:#1a1a1a;stroke-width:3.5999999;stroke-linecap:butt;stroke-linejoin:miter;stroke-miterlimit:4;stroke-dasharray:none;stroke-opacity:1"/><path id="path4305-1" d="m -203.59717,1026.931 1.27279,-40.88859 c 0.52353,-16.81867 12.09697,-14.2427 11.45513,0.63639 l -1.75009,40.5704 c -0.58324,13.5205 -11.33385,11.1192 -10.97783,-0.3182 z" style="display:inline;fill:none;fill-rule:evenodd;stroke:#1a1a1a;stroke-width:3.5999999;stroke-linecap:butt;stroke-linejoin:miter;stroke-miterlimit:4;stroke-dasharray:none;stroke-opacity:1"/><path id="path4322" d="m -264.34415,930.32438 -0.51431,21.39197 c 0,0 8.90776,0.52734 8.63615,-10.07835 -0.28181,-11.00409 -8.12184,-11.31362 -8.12184,-11.31362 z" style="display:inline;fill:none;fill-rule:evenodd;stroke:#1a1a1a;stroke-width:1.89479065;stroke-linecap:round;stroke-linejoin:round;stroke-miterlimit:4;stroke-dasharray:none;stroke-opacity:1"/><path id="path4324" d="m -251.85061,952.47391 0.37706,-20.55569 10.40783,21.84357 0.44963,-20.78787" style="display:inline;fill:none;fill-rule:evenodd;stroke:#1a1a1a;stroke-width:1.89479065;stroke-linecap:round;stroke-linejoin:round;stroke-miterlimit:4;stroke-dasharray:none;stroke-opacity:1"/><path id="path4262-4-7" d="m -212.19293,935.73384 -6.3562,15.24029 c -2.70403,6.48335 7.79509,10.21659 8.1995,1.82566 0.28587,-5.93142 -5.1796,-7.42411 -7.62746,-3.01634" style="display:inline;fill:none;fill-rule:evenodd;stroke:#1a1a1a;stroke-width:1.91707647;stroke-linecap:round;stroke-linejoin:miter;stroke-miterlimit:4;stroke-dasharray:none;stroke-opacity:1"/><path id="path4262-4-7-6" d="m -229.91568,939.26391 c 0.45942,-3.47777 0.60479,-5.34962 4.10777,-5.14553 3.46847,0.2021 3.5002,2.08716 3.27011,5.24011 -0.24012,3.29053 -1.49605,5.81517 -4.26175,5.5055 -3.41862,-0.38277 -3.92443,1.61892 -4.36328,5.28479 -0.42942,3.58711 -0.0581,5.55969 3.13319,5.97532 4.00947,0.52217 3.95226,-1.81455 4.34044,-5.78356 0.2554,-2.61144 0.53428,-5.13772 -3.19229,-5.37205 -2.53469,-0.15938 -3.4084,-2.87178 -3.03419,-5.70458 z" style="display:inline;fill:none;fill-rule:evenodd;stroke:#1a1a1a;stroke-width:1.95200765;stroke-linecap:round;stroke-linejoin:miter;stroke-miterlimit:4;stroke-dasharray:none;stroke-opacity:1"/><path id="path4356" d="m -206.46548,937.04187 9.22774,0.95459 -5.17071,20.12604" style="display:inline;fill:none;fill-rule:evenodd;stroke:#1a1a1a;stroke-width:1.79999995;stroke-linecap:round;stroke-linejoin:round;stroke-miterlimit:4;stroke-dasharray:none;stroke-opacity:1"/><path id="path4358" d="m -181.56649,939.63406 -8.90954,-0.95459 -1.35234,7.5572 c 12.55091,-0.29709 9.05387,17.21732 -1.51144,12.88701" style="display:inline;fill:none;fill-rule:evenodd;stroke:#1a1a1a;stroke-width:1.79999995;stroke-linecap:round;stroke-linejoin:miter;stroke-miterlimit:4;stroke-dasharray:none;stroke-opacity:1"/><path id="path4362" d="m -175.65818,940.23751 8.75044,0.55684 -6.68215,6.92081 c 11.44609,-0.14364 2.7648,18.39118 -5.88666,12.56882" style="display:inline;fill:none;fill-rule:evenodd;stroke:#1a1a1a;stroke-width:1.79999995;stroke-linecap:round;stroke-linejoin:round;stroke-miterlimit:4;stroke-dasharray:none;stroke-opacity:1"/><path id="path4305-1-7" d="m -163.19273,960.89831 0.91953,-15.63747 c 0.37822,-6.43216 8.73937,-5.447 8.27568,0.24339 l -1.26434,15.51575 c -0.42137,5.1708 -8.18808,4.25245 -7.93087,-0.12167 z" style="display:inline;fill:none;fill-rule:evenodd;stroke:#1a1a1a;stroke-width:1.79999995;stroke-linecap:butt;stroke-linejoin:miter;stroke-miterlimit:4;stroke-dasharray:none;stroke-opacity:1"/><path id="path4262-5-9" d="m -147.15516,965.21663 7.32801,-16.35144 c 3.11744,-6.95617 -8.98691,-10.96156 -9.45314,-1.95878 -0.32957,6.36386 5.9715,7.96538 8.79363,3.23623" style="display:inline;fill:none;fill-rule:evenodd;stroke:#1a1a1a;stroke-width:1.78754091;stroke-linecap:round;stroke-linejoin:miter;stroke-miterlimit:4;stroke-dasharray:none;stroke-opacity:1"/><ellipse id="path4184" cx="-220.38" cy="846.087" rx="13.119" ry="15.819" style="display:inline;fill:#c83737;fill-opacity:1;stroke:#000;stroke-width:.87488776;stroke-linecap:round;stroke-linejoin:round;stroke-miterlimit:4;stroke-dasharray:none;stroke-dashoffset:0;stroke-opacity:1"/></g></g></svg>