<svg xmlns="http://www.w3.org/2000/svg" xmlns:svg="http://www.w3.org/2000/svg" id="svg4164" version="1.1" viewBox="0 0 256 256"><defs id="defs4166"><marker id="Arrow1Lstart" orient="auto" refX="0" refY="0" style="overflow:visible"><path id="path4233" d="M 0.0,0.0 L 5.0,-5.0 L -12.5,0.0 L 5.0,5.0 L 0.0,0.0 z" transform="scale(0.8) translate(12.5,0)" style="fill-rule:evenodd;stroke:#000;stroke-width:1pt;stroke-opacity:1;fill:#000;fill-opacity:1"/></marker></defs><metadata id="metadata4169"/><g id="layer1" transform="translate(0,-796.36219)" style="display:inline"><ellipse style="opacity:1;fill:#f06;fill-opacity:1;stroke:#000;stroke-width:5;stroke-linecap:round;stroke-linejoin:round;stroke-miterlimit:4;stroke-dasharray:none;stroke-dashoffset:0;stroke-opacity:1" id="path4197" cx="131.522" cy="932.508" rx="78.78" ry="78.208"/><path style="fill:#e6e6e6;stroke:#000;stroke-width:1;stroke-miterlimit:4;stroke-dasharray:none" id="path4195" d="m 211.43047,865.35417 c 0.6269,-0.61622 0.42445,-1.17312 -0.68641,-1.88085 -2.3296,-1.48454 -6.14512,-3.90681 -4.89101,-5.86483 5.20753,-8.13038 19.01731,-23.02999 33.40812,-42.39421 0.30213,-2.97375 -6.29926,-7.38271 -8.20901,-5.48274 -12.46769,15.33675 -20.56882,26.2393 -35.65377,43.22404 l -3.28523,-2.00158 c -2.1837,-1.33074 -3.59133,-1.69849 -4.20364,-1.09661 -0.72435,0.71202 -0.49595,1.15389 1.07299,2.06875 2.53974,1.48093 4.0599,3.08877 3.20891,4.11752 -46.77967,56.55129 -98.651106,111.03432 -162.649827,164.62034 -2.9626,3.5205 4.121782,12.2367 8.852549,6.9795 53.464701,-44.697 108.266658,-98.94444 162.391568,-163.82268 2.08343,-2.64076 2.09599,-2.6441 4.63194,-0.83957 4.09344,2.91282 5.07034,3.29935 6.01282,2.37292 z m -5.0539,-10.99997 c -0.79086,0.67654 -3.01316,0.77318 -4.54701,-0.45295 -1.6495,-1.31835 -1.97543,-3.60206 -1.28512,-4.4646 0.68985,-0.86224 2.89219,-0.79454 4.54081,0.52337 1.64951,1.31836 2.12045,3.38852 1.43015,4.25105 -0.0412,0.0519 -0.0878,0.0994 -0.13875,0.14321 z m 4.28246,-5.7425 c -0.8982,0.87611 -2.641,0.80053 -4.03145,-0.17443 -1.49498,-1.04751 -2.04273,-2.74931 -1.22367,-3.8018 0.82018,-1.05289 2.6983,-1.05632 4.1941,-0.007 1.49554,1.04802 2.0429,2.75067 1.22255,3.80291 -0.0494,0.0636 -0.10336,0.12396 -0.16154,0.18094 z m 3.85244,-5.04027 c -0.89794,0.87584 -2.63988,0.80091 -4.03033,-0.1733 -1.49555,-1.04802 -2.04291,-2.75067 -1.22256,-3.80291 0.82074,-1.05169 2.69788,-1.05462 4.19297,-0.006 1.49554,1.04802 2.04292,2.75067 1.22256,3.80291 -0.0499,0.0633 -0.10412,0.12323 -0.16263,0.17984 z m 4.17183,-4.97489 c -0.89797,0.87702 -2.64145,0.80209 -4.03257,-0.17333 -1.49453,-1.04806 -2.04129,-2.74986 -1.22144,-3.80178 0.8198,-1.05275 2.69717,-1.05668 4.19298,-0.009 1.49555,1.04802 2.04292,2.75067 1.22256,3.80291 -0.0494,0.0636 -0.10335,0.12397 -0.16154,0.18094 z m 3.73614,-4.91487 c -0.8982,0.87611 -2.64099,0.80053 -4.03144,-0.17443 -1.49554,-1.04801 -2.04292,-2.75066 -1.22256,-3.8029 0.82074,-1.0517 2.69788,-1.05461 4.19297,-0.006 1.49555,1.04801 2.04292,2.75067 1.22256,3.8029 -0.0494,0.0636 -0.10335,0.12397 -0.16154,0.18095 z m 3.99712,-4.95177 c -0.89798,0.87702 -2.64145,0.80211 -4.03257,-0.17332 -1.49453,-1.04807 -2.04129,-2.74986 -1.22145,-3.80177 0.8198,-1.05277 2.69718,-1.05669 4.19299,-0.009 1.49555,1.04801 2.04291,2.75067 1.22256,3.8029 -0.0494,0.0636 -0.10335,0.12398 -0.16155,0.18095 z m 3.62751,-4.64171 c -0.89793,0.87584 -2.63988,0.80091 -4.03032,-0.1733 -1.49554,-1.04801 -2.04292,-2.75067 -1.22256,-3.8029 0.82073,-1.0517 2.69787,-1.05462 4.19297,-0.006 1.49555,1.04801 2.04291,2.75067 1.22256,3.80291 -0.0499,0.0633 -0.10411,0.12323 -0.16263,0.17984 z m 4.02473,-5.30057 c -0.89794,0.87584 -2.63989,0.80091 -4.03033,-0.17331 -1.49554,-1.048 -2.04292,-2.75067 -1.22256,-3.8029 0.82073,-1.05171 2.69787,-1.05462 4.19296,-0.006 1.49556,1.048 2.04292,2.75067 1.22256,3.80289 -0.0499,0.0633 -0.10411,0.12324 -0.16262,0.17986 z"/></g></svg>