<svg xmlns="http://www.w3.org/2000/svg" xmlns:svg="http://www.w3.org/2000/svg" id="svg4164" version="1.1" viewBox="0 0 256 256"><defs id="defs4166"><marker id="Arrow1Lstart" orient="auto" refX="0" refY="0" style="overflow:visible"><path id="path4233" d="M 0.0,0.0 L 5.0,-5.0 L -12.5,0.0 L 5.0,5.0 L 0.0,0.0 z" transform="scale(0.8) translate(12.5,0)" style="fill-rule:evenodd;stroke:#000;stroke-width:1pt;stroke-opacity:1;fill:#000;fill-opacity:1"/></marker></defs><metadata id="metadata4169"/><g id="layer1" transform="translate(0,-796.36219)" style="display:inline"><path style="fill:#000;fill-rule:evenodd;stroke:#000;stroke-width:2.59374261px;stroke-linecap:butt;stroke-linejoin:miter;stroke-opacity:1" id="path4555" d="m 16.159966,809.10572 0.458514,15.13094 c 9.869372,9.44791 20.110816,9.40138 14.079613,35.94439 -1.825658,8.03466 15.265471,20.55686 28.236544,38.23804 12.807485,17.4582 21.468173,39.99481 24.168259,60.62043 -0.296309,-17.09107 4.204949,-32.52143 -6.419175,-53.18751 6.877697,2.675 13.755394,2.94215 20.633091,0 9.966738,33.7858 39.834728,52.00145 69.883928,50.94582 -45.49211,-11.08291 -50.52042,-38.472 -65.75731,-62.86718 -18.638062,4.41193 -39.444442,-10.89339 -42.183227,-21.09159 -3.123436,-11.63052 25.399354,-18.60173 40.349167,11.00431 17.36498,-4.05013 29.92115,8.896 35.76403,22.00864 -0.64048,-13.91595 -5.99477,-24.62557 -11.92134,-25.21824 35.08776,-6.01927 46.92228,12.97398 52.89113,17.93765 C 161.64285,873.28599 138.1446,866.7669 108.32113,876.04863 L 90.439115,858.16662 c 27.143725,-15.31493 64.036415,1.36478 74.737655,-7.33622 -16.97299,-9.91134 -49.79254,-14.04358 -101.590463,4.88155 -11.13058,4.06673 -17.738735,-6.97724 -19.591342,-14.42688 -1.135618,-4.56657 5.327911,-9.15675 3.965936,-13.54842 -1.568488,-5.05772 -10.622075,-10.47441 -11.464238,-18.55229 z"/><path style="fill:#ff0047;fill-opacity:1;fill-rule:evenodd;stroke:#000;stroke-width:2.59374261px;stroke-linecap:butt;stroke-linejoin:miter;stroke-opacity:1" id="path4557" d="M 86.259533,972.36187 C 70.812526,941.61044 33.980838,982.7259 65.99592,985.6548 c -32.894983,10.8363 -2.418898,59.4515 13.29293,29.6659 9.723552,40.1912 53.0839,6.9154 29.99015,-9.5644 38.76013,18.7661 29.57541,-40.01418 -0.64844,-20.1015 30.46255,-28.23766 -28.065562,-44.10467 -22.371027,-13.29293 z"/><path style="opacity:1;fill:#fff;fill-opacity:1;stroke:#000;stroke-width:1.2968713;stroke-linecap:round;stroke-linejoin:round;stroke-miterlimit:4;stroke-dasharray:none;stroke-dashoffset:0;stroke-opacity:1" id="path4559" d="m 104.90206,998.94774 -13.392451,-1.40372 4.439529,12.86188 -7.252583,-11.34586 -7.287809,11.49016 4.348627,-12.74427 -13.527277,1.46618 12.675233,-4.54605 -9.58043,-9.6619 11.457129,7.07547 1.580676,-13.51437 1.611574,13.36903 11.551502,-7.19026 -9.44753,9.59544 z"/><path style="display:inline;fill:#ff0047;fill-opacity:1;fill-rule:evenodd;stroke:#000;stroke-width:2.77015066px;stroke-linecap:butt;stroke-linejoin:miter;stroke-opacity:1" id="path4557-2" d="m 182.73436,973.3692 c -20.14684,-31.00067 -53.21729,18.19648 -19.41424,17.03209 -32.92121,16.09171 5.25062,64.28471 17.75627,30.12321 15.40683,41.9276 56.31777,0.2844 30.05525,-14.3319 42.91541,14.9643 25.63977,-47.03431 -3.30599,-21.53808 28.10611,-34.48453 -35.0656,-43.66542 -25.09129,-11.28532 z"/><path style="display:inline;opacity:1;fill:#fff;fill-opacity:1;stroke:#000;stroke-width:.5;stroke-linecap:round;stroke-linejoin:round;stroke-miterlimit:4;stroke-dasharray:none;stroke-dashoffset:0;stroke-opacity:1" id="path4559-7" d="m 167.78677,951.64349 -5.16337,-0.54119 1.71163,4.9588 -2.79618,-4.37431 -2.80977,4.42997 1.67659,-4.91349 -5.21535,0.56528 4.88685,-1.7527 -3.69367,-3.72508 4.41722,2.7279 0.60942,-5.21037 0.62133,5.15434 4.4536,-2.77216 -3.64243,3.69946 z" transform="matrix(2.7075619,-0.34961286,0.33923613,2.7903824,-571.45282,-1597.3312)"/><path style="display:inline;fill:#ff0047;fill-opacity:1;fill-rule:evenodd;stroke:#000;stroke-width:2.10982013px;stroke-linecap:butt;stroke-linejoin:miter;stroke-opacity:1" id="path4557-4" d="m 188.26569,901.71763 c -28.46061,-6.27343 -21.99073,36.24981 -2.49894,18.70981 -11.0344,24.97662 37.2863,31.29825 26.57206,7.0073 31.44745,14.41359 33.65654,-28.0487 10.26456,-22.61281 33.48431,-13.59046 -9.74124,-37.66114 -13.41269,-9.71173 -1.60469,-32.27272 -44.06664,-5.48748 -20.92499,6.60743 z"/><path style="display:inline;opacity:1;fill:#fff;fill-opacity:1;stroke:#000;stroke-width:.5;stroke-linecap:round;stroke-linejoin:round;stroke-miterlimit:4;stroke-dasharray:none;stroke-dashoffset:0;stroke-opacity:1" id="path4559-2" d="m 181.41177,918.89349 -5.16337,-0.54119 1.71163,4.9588 -2.79618,-4.37431 -2.80977,4.42997 1.67659,-4.91349 -5.21535,0.56528 4.88685,-1.7527 -3.69367,-3.72508 4.41722,2.7279 0.60942,-5.21037 0.62133,5.15434 4.4536,-2.77216 -3.64243,3.69946 z" transform="matrix(1.4250287,-1.5402124,1.6847025,1.3028098,-1590.8029,-13.729648)"/><path style="fill:#ff0047;fill-opacity:1;fill-rule:evenodd;stroke:#000;stroke-width:2.59374261px;stroke-linecap:butt;stroke-linejoin:miter;stroke-opacity:1" id="path4587" d="m 190.05247,868.39291 c -3.63111,1.3528 -19.47509,-12.8702 -18.48042,-19.77728 2.0122,-13.97299 16.92817,-26.76055 28.85539,-15.72457 2.13724,1.97755 1.06398,6.83654 -7.13279,10.53708 23.6722,5.57058 16.66853,18.00107 -1.94531,18.1562 5.35777,3.98018 2.99136,5.21096 -1.29687,6.80857 z"/><path style="fill:#ff0047;fill-opacity:1;fill-rule:evenodd;stroke:#000;stroke-width:2.59374261px;stroke-linecap:butt;stroke-linejoin:miter;stroke-opacity:1" id="path4589" d="m 137.23583,908.47858 c -18.82403,8.20912 3.21422,30.5206 12.48239,26.91008 11.23783,-4.37779 9.7553,-36.60787 -12.48239,-26.91008 z"/></g></svg>