<svg xmlns="http://www.w3.org/2000/svg" xmlns:svg="http://www.w3.org/2000/svg" id="svg4206" version="1.1" viewBox="0 0 256 256"><style id="style3">svg{cursor:pointer}</style><metadata id="metadata4211"/><g id="layer1" transform="translate(0,-796.36216)" style="display:inline"><path style="fill:#f9f9f9;fill-rule:evenodd;stroke:#000;stroke-width:.75;stroke-linecap:butt;stroke-linejoin:miter;stroke-opacity:1;stroke-miterlimit:4;stroke-dasharray:none" id="path4396" d="m 76.187213,1024.9593 c -12.295562,-2.166 -49.058939,0.7335 -43.003854,-13.7423 -43.444896,-6.1636 -3.491575,-19.45519 20.731888,-19.54718 l 93.589663,-0.3554 c 33.24573,-1.90438 122.04349,8.90178 89.32482,25.47058 26.6064,7.7621 -10.43,19.7636 -40.87143,11.4914 l -26.06295,-0.8292 c -21.95355,12.1901 -99.578187,9.9112 -93.708137,-2.4879 z"/><ellipse style="fill:#f9f9f9;fill-opacity:1;stroke:#000;stroke-width:.75;stroke-linecap:round;stroke-linejoin:bevel;stroke-miterlimit:4;stroke-dasharray:none;stroke-dashoffset:0;stroke-opacity:1" id="path4398" cx="61.888" cy="1030.412" rx="6.869" ry="2.429"/><ellipse style="display:inline;fill:#f9f9f9;fill-opacity:1;stroke:#000;stroke-width:.75;stroke-linecap:round;stroke-linejoin:bevel;stroke-miterlimit:4;stroke-dasharray:none;stroke-dashoffset:0;stroke-opacity:1" id="path4398-1" cx="160.736" cy="1044.066" rx="6.869" ry="2.429"/><ellipse style="display:inline;fill:#f9f9f9;fill-opacity:1;stroke:#000;stroke-width:.75;stroke-linecap:round;stroke-linejoin:bevel;stroke-miterlimit:4;stroke-dasharray:none;stroke-dashoffset:0;stroke-opacity:1" id="path4398-6" cx="179.5" cy="1042.223" rx="9.551" ry="3.938"/><ellipse style="display:inline;fill:#f9f9f9;fill-opacity:1;stroke:#000;stroke-width:.75;stroke-linecap:round;stroke-linejoin:bevel;stroke-miterlimit:4;stroke-dasharray:none;stroke-dashoffset:0;stroke-opacity:1" id="path4398-61" cx="157.553" cy="1037.365" rx="5.119" ry="1.685"/><g id="g4370" transform="matrix(0.9025,0,0,0.9025,321.43481,85.374982)"><path id="path4345" d="m -243.44676,803.73836 c -7.31341,4.42443 -17.64137,7.53996 -20.29869,15.12428 -1.93251,5.51565 4.04501,8.18818 9.18701,10.63461 0,0 0,0 0.37881,-0.63134 -2.7303,-3.36989 -8.621,-2.89776 -7.54551,-9.24566 1.08566,-6.40788 11.99597,-10.64599 19.03599,-14.36666 z" style="fill:#ccc;fill-rule:evenodd;stroke:#000;stroke-width:1px;stroke-linecap:butt;stroke-linejoin:miter;stroke-opacity:1"/><path id="path4341" d="m -246.60349,815.60765 -0.12627,-12.6269 c -0.0575,-5.74757 8.61326,-4.03977 9.47018,0 l 2.65165,12.50064 z" style="fill:#b3b3b3;fill-rule:evenodd;stroke:#000;stroke-width:1px;stroke-linecap:butt;stroke-linejoin:miter;stroke-opacity:1"/><path id="path4315" d="m -270.72088,1016.7543 c 19.60832,29.0589 115.2766,18.5348 120.96577,0.7576 l 1.76776,-136.62313 -124.43817,0.1894 z" style="fill:#ccc;fill-rule:evenodd;stroke:#000;stroke-width:1px;stroke-linecap:butt;stroke-linejoin:miter;stroke-opacity:1"/><path id="path4317" d="m -272.48865,880.88877 17.42513,-33.0825 89.3985,0.25254 17.58838,32.65007 c -25.88874,11.87121 -91.97565,16.79478 -124.41201,0.17989 z" style="fill:#e6e6e6;fill-rule:evenodd;stroke:#000;stroke-width:1px;stroke-linecap:butt;stroke-linejoin:miter;stroke-opacity:1"/><path id="path4321" d="m -251.25,816.4693 0,7.32143 81.07143,0.17857 1.51786,-7.32142 c -12.12827,-3.73658 -54.83506,-5.30838 -82.58929,-0.17858 z" style="fill:#666;fill-rule:evenodd;stroke:#000;stroke-width:1px;stroke-linecap:butt;stroke-linejoin:miter;stroke-opacity:1"/><path id="path4319" d="m -254.81098,849.57404 c 0.25254,-1.01016 -0.25254,-30.30458 -0.25254,-30.30458 29.63114,3.45461 59.26229,3.45015 88.89343,0 l 0.25253,29.7995 c -29.47949,5.63247 -65.5301,3.63481 -88.89342,0.50508 z" style="fill:#ccc;fill-rule:evenodd;stroke:#000;stroke-width:1px;stroke-linecap:butt;stroke-linejoin:miter;stroke-opacity:1"/><path id="path4323" d="m -210.625,16.376953 a 47.390411,4.9796982 0 0 0 -47.39062,4.980469 47.390411,4.9796982 0 0 0 47.39062,4.978516 47.390411,4.9796982 0 0 0 47.39062,-4.978516 47.390411,4.9796982 0 0 0 -47.39062,-4.980469 z m 0.26758,1.722656 A 40.690731,2.9002757 0 0 1 -169.66602,21 40.690731,2.9002757 0 0 1 -210.35742,23.900391 40.690731,2.9002757 0 0 1 -251.04883,21 a 40.690731,2.9002757 0 0 1 40.69141,-2.900391 z" transform="translate(0,796.36216)" style="fill:#e6e6e6;fill-opacity:1;stroke:#000;stroke-width:.79060388;stroke-linecap:round;stroke-linejoin:bevel;stroke-miterlimit:4;stroke-dasharray:none;stroke-dashoffset:0;stroke-opacity:1"/><path id="path4343" d="m -187.7621,827.60322 c 0.89711,6.71155 14.7399,2.61713 14.89975,0.37881 1.50244,-1.72568 2.00767,-3.45136 2.52538,-5.17704 l 0.12627,-12.2481 c 0.0547,-5.30177 -9.48428,-8.66497 -10.10153,-0.12627 l -0.75761,10.48034 c -1.55732,2.73583 -3.78807,4.96658 -6.69226,6.69226 z" style="fill:#ccc;fill-rule:evenodd;stroke:#000;stroke-width:1px;stroke-linecap:butt;stroke-linejoin:miter;stroke-opacity:1"/><path id="path4347" d="m -263.30357,822.80859 c -5.12797,2.58929 -3.28627,5.44643 -1.60714,8.03572 l 26.96428,4.73214 0.75531,-4.754 0.76255,-4.79958 z" style="fill:#e9c6af;fill-rule:evenodd;stroke:#000;stroke-width:1px;stroke-linecap:butt;stroke-linejoin:miter;stroke-opacity:1"/><ellipse id="path4349" cx="-236.563" cy="831.023" rx="3.973" ry="4.821" style="fill:#deaa87;fill-opacity:1;stroke:#000;stroke-width:.75;stroke-linecap:round;stroke-linejoin:bevel;stroke-miterlimit:4;stroke-dasharray:none;stroke-dashoffset:0;stroke-opacity:1"/><ellipse id="path4368" cx="-174.955" cy="811.96" rx="2.871" ry="2.826" style="fill:gray;fill-opacity:1;stroke:#000;stroke-width:1;stroke-linecap:round;stroke-linejoin:bevel;stroke-miterlimit:4;stroke-dasharray:none;stroke-dashoffset:0;stroke-opacity:1"/><path id="path4345-0" d="m -236.43194,831.86625 c 23.93126,0.73167 42.41294,-7.98518 63.03999,-18.33964 1.7625,-1.24992 1.23076,-3.69932 -0.72697,-3.71412 -19.36319,11.63084 -38.24862,18.34149 -61.89722,19.73496 -2.04439,0.77294 -1.14182,1.54587 -0.4158,2.3188 z" style="display:inline;fill:#ccc;fill-rule:evenodd;stroke:#000;stroke-width:1px;stroke-linecap:butt;stroke-linejoin:miter;stroke-opacity:1"/><ellipse id="path4366" cx="-242.054" cy="804.059" rx="2.054" ry="1.964" style="fill:#666;fill-opacity:1;stroke:#000;stroke-width:.75;stroke-linecap:round;stroke-linejoin:bevel;stroke-miterlimit:4;stroke-dasharray:none;stroke-dashoffset:0;stroke-opacity:1"/></g></g></svg>