<svg xmlns="http://www.w3.org/2000/svg" xmlns:svg="http://www.w3.org/2000/svg" id="svg4206" version="1.1" viewBox="0 0 256 256"><style id="style3">svg{cursor:pointer}</style><metadata id="metadata4211"/><g id="layer1" transform="translate(0,-796.36216)" style="display:inline"><g style="display:inline;opacity:1" id="g4336" transform="translate(-271.91526,801.91728)"><path id="path4326" d="m 277.28687,160.91939 c -2.64243,-13.49682 12.01771,-19.71676 17.29887,-30.05204 5.46537,-10.69579 -2.44318,-16.48883 21.2132,-33.208762 23.41697,-16.550718 56.00417,-19.954827 83.84266,-22.223355 2.41382,-0.196699 89.34071,-7.540641 118.49006,3.966307 -0.65832,3.492488 -1.42684,5.718716 -1.81744,8.408061 l -60.86169,-6.313453 c 0,0 -50.5052,4.906386 -54.54824,5.42957 -5.47709,0.708755 -68.1969,-2.668853 -97.10091,31.188462 -4.90936,5.47131 -3.58161,13.92982 -5.94705,19.61894 -5.34042,12.84424 -17.85955,21.06471 -14.76108,27.85823 z" style="fill:#f55;fill-rule:evenodd;stroke:#000;stroke-width:1px;stroke-linecap:butt;stroke-linejoin:miter;stroke-opacity:1"/><path id="path4328" d="m 490,77.428571 7.67857,-3.482143 7.23214,5.714286 0,12.857143 z" style="fill:#6f8a91;fill-rule:evenodd;stroke:#000;stroke-width:1px;stroke-linecap:butt;stroke-linejoin:miter;stroke-opacity:1"/><path id="path4330" d="m 518.33452,79.72838 c 0.78986,4.33647 0.85395,7.935019 0.31568,12.437504 -5.86735,3.920154 -9.3296,4.023928 -12.87945,2.841054 l -3.69878,-12.378856 c 1.1309,1.646016 13.32525,-1.759804 16.26255,-2.899702 z" style="fill:#ff8080;fill-rule:evenodd;stroke:#000;stroke-width:1px;stroke-linecap:butt;stroke-linejoin:miter;stroke-opacity:1"/><path id="path4320" d="m 428.94237,157.24753 c 6.61372,-7.07192 13.95927,-10.13075 24.52946,-7.04307 -6.06088,-6.31346 -5.94178,-15.93434 -19.61131,-20.72607 -7.52306,10.23751 -4.19579,19.65684 -4.91815,27.76914 z" style="fill:#dbe2e3;fill-rule:evenodd;stroke:#000;stroke-width:1px;stroke-linecap:butt;stroke-linejoin:miter;stroke-opacity:1"/><path id="path4314" d="m 328.80465,155.36355 c 9.47281,25.86126 43.97977,31.42691 51.89659,31.441 -10.51889,-7.24902 -38.82976,-13.80737 -47.85598,-32.07234 z" style="fill:#dbe2e3;fill-rule:evenodd;stroke:#000;stroke-width:1px;stroke-linecap:butt;stroke-linejoin:miter;stroke-opacity:1"/><path id="path4312" d="m 347.74501,100.94158 c 44.56553,-3.209128 98.43878,-25.76021 114.65232,-33.840106 14.32298,-7.137754 21.02732,-12.709622 27.1847,7.199533 C 443.18112,84.883196 355.67059,118.7823 327.73237,138.12938 l -5.17804,-7.56191 c -3.20212,-16.98961 4.83162,-28.15985 25.19068,-29.62589 z" style="fill:#dbe2e3;fill-rule:evenodd;stroke:#000;stroke-width:1px;stroke-linecap:butt;stroke-linejoin:miter;stroke-opacity:1"/><path id="path4316" d="m 325.26912,131.4987 c 1.17612,-13.74338 7.36997,-23.30978 19.82424,-24.62247 3.14311,-0.33129 35.74333,-6.6882 72.72135,-18.500298 41.92484,-13.392287 51.427,-21.610171 59.60863,-20.769381 7.92036,0.813939 23.86486,17.425131 23.86486,17.425131 -6.05019,-4.599065 -42.74353,5.981498 -76.18727,16.663098 -30.94755,9.88434 -62.14146,15.5046 -66.49678,26.52092 -14.49386,36.66065 15.15229,54.54824 15.15229,54.54824 -14.37946,-1.63566 -39.32065,-19.29804 -41.03745,-27.14785 z" style="fill:#b7c4c8;fill-rule:evenodd;stroke:#000;stroke-width:1px;stroke-linecap:butt;stroke-linejoin:miter;stroke-opacity:1"/><path id="path4306-9" d="m 322.23866,130.23601 -6.56599,4.04061 6.31345,22.47589 6.81853,0.75762 6.06092,-2.02031 -3.78807,-20.96066 z" style="fill:#b7c4c8;fill-rule:evenodd;stroke:#000;stroke-width:1px;stroke-linecap:butt;stroke-linejoin:miter;stroke-opacity:1"/><path id="path4334" d="m 316.33929,137.33929 c -0.625,1.96428 4.55356,19.82142 4.55356,19.82142 l 4.01786,-2.67857 L 320.89286,138.5 c -2.98468,1.06632 -3.93117,-0.3372 -4.55357,-1.16071 z" style="fill:#f55;fill-rule:evenodd;stroke:#000;stroke-width:1px;stroke-linecap:butt;stroke-linejoin:miter;stroke-opacity:1"/><path id="path4318" d="m 436.3859,136.29692 c -8.14469,2.09885 0.80523,37.07879 -29.54696,50.76017 -21.41347,9.65221 -43.37485,-3.4635 -49.62374,-20.20305 -3.78524,-10.1399 -12.10701,-39.32954 14.01586,-50.25509 18.72785,-7.83268 35.65905,-12.74176 57.12442,-19.51567 15.09944,-4.764986 32.76141,-11.473342 53.48728,-16.344746 15.98909,-3.758071 29.7858,7.754226 30.93593,31.946076 0.78129,16.43364 -4.90723,36.25845 -22.34963,44.57298 -35.7314,17.03261 -45.21045,-23.23681 -54.04316,-20.96067 z" style="fill:#93a7ac;fill-rule:evenodd;stroke:#000;stroke-width:1px;stroke-linecap:butt;stroke-linejoin:miter;stroke-opacity:1"/><path id="path4308" d="m 315.91952,134.32827 6.57168,3.48388 8.5863,-3.03046" style="fill:none;fill-rule:evenodd;stroke:#000;stroke-width:1px;stroke-linecap:butt;stroke-linejoin:miter;stroke-opacity:1"/><path id="path4310" d="m 322.54416,137.6559 5.75542,19.60169" style="fill:none;fill-rule:evenodd;stroke:#000;stroke-width:1px;stroke-linecap:butt;stroke-linejoin:miter;stroke-opacity:1"/><path style="fill:#dbe2e3;fill-rule:evenodd;stroke:#000;stroke-width:.90249997px;stroke-linecap:butt;stroke-linejoin:miter;stroke-opacity:1" id="path4322" d="m 434.02323,128.61305 c -7.35057,1.89421 -2.55627,38.7669 -29.94912,51.11436 -19.32565,8.71112 -33.8425,-0.85298 -39.48212,-15.96042 -3.41618,-9.15126 -10.80031,-33.8534 12.77559,-43.71372 16.90187,-7.06899 32.68736,-9.85794 52.05987,-15.97139 13.62723,-4.300404 33.4815,-11.996193 52.1866,-16.392635 14.43016,-3.391659 23.9775,4.472808 25.01549,26.305955 0.70511,14.83136 -0.76697,28.68264 -16.50874,36.1865 -32.24759,15.37194 -48.12604,-23.62287 -56.09757,-21.56865 z"/><path id="path4324" d="m 327.99102,139.60793 c -1.44747,6.27036 -7.3622,9.58409 -17.36912,14.99801 -20.24106,10.95078 -28.22591,11.77062 -33.42365,6.17318 l 8.42238,10.2418 c 11.86485,6.49051 19.05262,-2.02382 28.03174,-5.80838 12.38594,-5.22047 13.79374,-3.55548 18.05647,-10.35406 z" style="fill:#ff8080;fill-rule:evenodd;stroke:#000;stroke-width:1px;stroke-linecap:butt;stroke-linejoin:miter;stroke-opacity:1"/><path id="path4332" d="m 504.44493,79.917784 -5.55584,2.525382" style="fill:none;fill-rule:evenodd;stroke:#000;stroke-width:1px;stroke-linecap:butt;stroke-linejoin:miter;stroke-opacity:1"/></g></g></svg>