<svg xmlns="http://www.w3.org/2000/svg" xmlns:svg="http://www.w3.org/2000/svg" xmlns:xlink="http://www.w3.org/1999/xlink" id="svg4206" version="1.1" viewBox="0 0 256 256"><style id="style3">svg{cursor:pointer}</style><defs id="defs4208"><linearGradient id="linearGradient3" x1="123.996" x2="119.956" y1="1032.412" y2="838.967" gradientTransform="matrix(0.8558983,0,0,0.8558983,25.072504,130.84225)" gradientUnits="userSpaceOnUse" xlink:href="#enforcerSet1"/><linearGradient id="enforcerSet1"><stop style="stop-color:#f06;stop-opacity:1" id="stop4364" offset="0"/><stop style="stop-color:#f59;stop-opacity:1" id="stop4366" offset="1"/></linearGradient><linearGradient id="linearGradient1" x1="126.774" x2="127.212" y1="1011.703" y2="849.101" gradientTransform="matrix(0.8558983,0,0,0.8558983,25.072504,130.84225)" gradientUnits="userSpaceOnUse" xlink:href="#enforcerSet2"/><linearGradient id="enforcerSet2"><stop style="stop-color:#892ca0;stop-opacity:1" id="stop4356" offset="0"/><stop style="stop-color:#8d5fd3;stop-opacity:1" id="stop4358" offset="1"/></linearGradient><linearGradient id="linearGradient5" x1="100.714" x2="125.306" y1="962.362" y2="873.143" gradientTransform="matrix(0.91570512,0,0,0.91570512,19.622879,79.822246)" gradientUnits="userSpaceOnUse" xlink:href="#enforcerSet3"/><linearGradient id="enforcerSet3"><stop style="stop-color:#f06;stop-opacity:1" id="stop4372" offset="0"/><stop style="stop-color:#ff80b2;stop-opacity:1" id="stop4374" offset="1"/></linearGradient></defs><metadata id="metadata4211"/><g id="layer1" transform="translate(0,-796.36216)" style="display:inline"><g id="g4380" transform="translate(-8.9285714,-2.8571429)"><path id="path4304" d="M 132.80424,1018.4131 C 17.045183,975.8517 83.726228,921.79493 50.443775,861.60029 c 46.102081,0.67634 74.319575,-19.85146 83.211205,-30.40838 9.97326,10.98593 36.20699,28.77809 80.63218,29.49134 -27.71829,60.79638 41.6918,116.96688 -81.48292,157.72985 z" style="display:inline;fill:url(#linearGradient3);fill-opacity:1;fill-rule:evenodd;stroke:#000;stroke-width:.85589832px;stroke-linecap:butt;stroke-linejoin:miter;stroke-opacity:1"/><path style="display:inline;fill:url(#linearGradient1);fill-opacity:1;fill-rule:evenodd;stroke:#000;stroke-width:.77030843px;stroke-linecap:butt;stroke-linejoin:miter;stroke-opacity:1" id="path4306" d="M 133.23664,1009.08 C 29.053487,970.77482 88.765171,922.3023 60.59668,867.94855 c 41.49187,0.60871 65.3274,-16.67939 73.32986,-26.18061 8.97593,9.88734 32.18223,24.71335 72.16491,25.35528 -24.94647,54.71674 38.00243,105.27019 -72.85481,141.95678 z"/><path id="path4378" d="m 135.4207,835.46507 c 23.04907,18.95535 41.36635,23.85351 62.10697,25.17734 3.34659,0.65708 6.78227,1.21993 10.33914,1.73277 -3.57829,0.24786 -7.07907,0.44463 -10.52626,0.54256 -21.12632,-2.12038 -39.35189,-7.9074 -61.91985,-27.45267 z" style="display:inline;fill:#fff;fill-rule:evenodd;stroke:none;stroke-width:1px;stroke-linecap:butt;stroke-linejoin:miter;stroke-opacity:1"/><g id="g4375"><path style="display:inline;fill:url(#linearGradient5);fill-opacity:1;fill-rule:evenodd;stroke:#000;stroke-width:1;stroke-linecap:butt;stroke-linejoin:miter;stroke-miterlimit:4;stroke-dasharray:none;stroke-opacity:1" id="path4352" d="M 134.66182,859.76927 94.062555,976.35079 195.33257,904.10402 72.611146,903.86448 175.04073,976.54905 Z"/><path style="display:inline;fill:#fff;fill-rule:evenodd;stroke:none;stroke-width:1px;stroke-linecap:butt;stroke-linejoin:miter;stroke-opacity:1" id="path4383" d="m 189.19021,906.03248 -27.18129,-0.55279 -8.58502,1.02452 8.60906,0.79774 27.15725,-1.26947 z"/><path style="display:inline;fill:#fff;fill-rule:evenodd;stroke:none;stroke-width:1px;stroke-linecap:butt;stroke-linejoin:miter;stroke-opacity:1" id="path4387" d="m 134.85067,865.74134 8.14911,30.37946 3.04739,5.63904 -0.68657,-6.37291 -10.50993,-29.64559 z"/></g></g></g></svg>