<svg xmlns="http://www.w3.org/2000/svg" xmlns:svg="http://www.w3.org/2000/svg" id="svg4311" width="100%" height="100%" version="1.1" viewBox="0 0 64 64"><metadata id="metadata4316"/><g id="layer1" transform="translate(0,-988.36216)" style="display:inline"><path style="opacity:1;fill:#ffdf80;fill-opacity:1;stroke:#000;stroke-width:.4078387;stroke-linecap:round;stroke-linejoin:miter;stroke-miterlimit:4;stroke-dasharray:none;stroke-dashoffset:0;stroke-opacity:1" id="path4145" d="m 31.806439,997.37434 a 23.474304,5.2505216 0 0 0 -23.4740148,5.24996 23.474304,5.2505216 0 0 0 23.4740148,5.2501 23.474304,5.2505216 0 0 0 23.474017,-5.2501 23.474304,5.2505216 0 0 0 -23.474017,-5.24996 z m -0.274985,0.88552 a 19.785868,4.0558173 0 0 1 19.785983,4.05564 19.785868,4.0558173 0 0 1 -19.785983,4.0557 19.785868,4.0558173 0 0 1 -19.78598,-4.0557 19.785868,4.0558173 0 0 1 19.78598,-4.05564 z"/><path style="display:inline;fill:#ffdf80;fill-opacity:1;fill-rule:evenodd;stroke:#000;stroke-width:.5;stroke-linecap:butt;stroke-linejoin:miter;stroke-miterlimit:4;stroke-dasharray:none;stroke-opacity:1" id="path4859-0" d="m 12.688499,1021.7918 c -3.4827754,-13.9214 16.47964,-13.9132 19.44187,-2.9496 2.34901,-11.0704 21.249787,-11.06 18.861697,3.4202 -1.83198,11.1081 -15.561962,10.7901 -19.626132,27.2944 -3.48469,-16.458 -15.96427,-16.92 -18.677435,-27.765 z"/><path style="display:inline;fill:#fff;fill-opacity:.78504675;fill-rule:evenodd;stroke:none;stroke-width:1.15799999;stroke-linecap:butt;stroke-linejoin:miter;stroke-miterlimit:4;stroke-dasharray:none;stroke-opacity:1" id="path4861-7" d="m 48.498666,1026.4073 c 1.37912,-9.7933 -3.21466,-13.663 -11.869512,-13.1236 8.455852,-4.3472 17.633192,1.2418 11.869512,13.1236 z"/><path style="display:inline;fill:#ffc413;fill-opacity:1;fill-rule:evenodd;stroke:#000;stroke-width:.44951871;stroke-linecap:butt;stroke-linejoin:miter;stroke-miterlimit:4;stroke-dasharray:none;stroke-opacity:1" id="path4161" d="m 32.080571,1018.8426 c 4.35194,8.1087 1.420397,22.0666 -0.647603,29.7957 -1.881696,-7.6071 -4.108602,-21.8605 0.647603,-29.7957 z"/><path id="path4178" d="m 31.991082,1023.3951 c 3.039123,5.6627 0.991917,15.4101 -0.452246,20.8074 -1.314057,-5.3123 -2.869189,-15.2659 0.452246,-20.8074 z" style="display:inline;fill:#ffd862;fill-opacity:1;fill-rule:evenodd;stroke:#000;stroke-width:.3139157;stroke-linecap:butt;stroke-linejoin:miter;stroke-miterlimit:4;stroke-dasharray:none;stroke-opacity:1"/></g></svg>