<svg xmlns="http://www.w3.org/2000/svg" xmlns:svg="http://www.w3.org/2000/svg" id="svg4311" width="100%" height="100%" version="1.1" viewBox="0 0 64 64"><metadata id="metadata4316"/><g id="layer5" style="display:inline"><path style="opacity:1;fill:#ff80ee;fill-opacity:.44859812;stroke:#000;stroke-width:.5;stroke-linecap:round;stroke-linejoin:round;stroke-miterlimit:4;stroke-dasharray:none;stroke-dashoffset:0;stroke-opacity:1" id="ellipse4197" d="m 41.953125,4.4492188 c -9.403481,6.544e-4 -17.025992,7.6179192 -17.025391,17.0136722 0.0063,1.902023 0.331778,3.789525 0.962891,5.583984 0.602279,1.398986 3.274528,0.04296 2.96875,-0.625 -0.602636,-1.584072 -0.912349,-3.264329 -0.914063,-4.958984 1.12e-4,-7.729864 6.271591,-13.9960969 14.007813,-13.9960941 7.736222,-2.8e-6 14.007701,6.2662301 14.007813,13.9960941 -1.12e-4,7.729864 -6.271592,13.996096 -14.007813,13.996093 -2.047524,-0.0056 -4.068929,-0.4596 -5.921875,-1.330078 -0.964889,-0.303571 -2.043587,2.5625 -0.882812,2.90625 2.144934,0.942553 4.461492,1.432594 6.804687,1.439453 9.403479,4.23e-4 17.026865,-7.615966 17.027344,-17.011718 C 58.98107,12.066376 51.357368,4.4487955 41.953125,4.4492188 Z"/><path style="fill:#ebefef;fill-rule:evenodd;stroke:#000;stroke-width:.5;stroke-linecap:butt;stroke-linejoin:miter;stroke-miterlimit:4;stroke-dasharray:none;stroke-opacity:1;fill-opacity:1" id="path4177" d="m 26.20037,34.465255 c 0,0 -0.297911,-1.633308 1.449304,-3.461507 1.752116,-1.833328 5.941734,-2.690967 6.607161,-1.906493 0.687236,0.810186 -1.302861,4.446567 -3.325664,5.591964 -2.322214,1.314936 -3.93813,0.818257 -3.93813,0.818257 0,0 -2.930263,1.249856 -4.412238,3.552083 -1.268258,1.970217 0.208096,3.942236 -0.928799,5.991067 -1.185183,2.135859 -5.38887,1.897931 -7.238727,3.493107 -2.334865,2.013408 -0.994159,5.666532 -3.001228,10.714635 1.283099,-4.862191 -0.138286,-9.324035 2.269311,-11.202048 1.861149,-1.451766 5.8509,-1.366438 6.959656,-3.450222 1.060025,-1.992201 -0.43508,-3.850575 0.795662,-5.74208 1.647828,-2.532517 4.763692,-4.398763 4.763692,-4.398763 z"/><path style="fill:#ff56b9;fill-rule:evenodd;stroke:#000;stroke-width:.5;stroke-linecap:butt;stroke-linejoin:miter;stroke-miterlimit:4;stroke-dasharray:none;stroke-opacity:1;fill-opacity:1" id="path4181" d="M 39.169963,10.008244 C 40.940221,9.68986 42.762026,9.6464154 44.656899,9.992657 l 0.06235,8.47981 8.323932,-0.09353 c 0.369497,1.77864 0.402952,3.610089 0.109115,5.471348 l -8.308343,0.04676 0.109113,8.448635 c -1.816003,0.262324 -3.65643,0.402529 -5.59605,0.04677 l 0,-8.401871 -8.651276,0.07795 c -0.365447,-1.867087 -0.314221,-3.708128 -0.01559,-5.533704 l 8.63542,-0.08818 z"/></g></svg>