<svg xmlns="http://www.w3.org/2000/svg" xmlns:svg="http://www.w3.org/2000/svg" xmlns:xlink="http://www.w3.org/1999/xlink" id="svg4311" width="100%" height="100%" version="1.1" viewBox="0 0 64 64"><defs id="defs4313"><linearGradient id="linearGradient4857"><stop id="stop4859" offset="0" style="stop-color:#c0f;stop-opacity:1"/><stop id="stop4861" offset="1" style="stop-color:#939dac;stop-opacity:1"/></linearGradient><linearGradient id="linearGradient4851"><stop style="stop-color:#aa00d4;stop-opacity:1" id="stop4853" offset="0"/><stop style="stop-color:#535d6c;stop-opacity:1" id="stop4855" offset="1"/></linearGradient><linearGradient id="linearGradient4514-8-5" x1="479" x2="478.75" y1="45.5" y2="27.25" gradientTransform="matrix(0.9,0,0,0.9,102.46013,-73.001095)" gradientUnits="userSpaceOnUse" xlink:href="#linearGradient4857"/><linearGradient id="linearGradient4516-6-7" x1="492.75" x2="492.5" y1="28.5" y2="12.5" gradientTransform="matrix(0.9,0,0,0.9,102.46013,-73.001095)" gradientUnits="userSpaceOnUse" xlink:href="#linearGradient4851"/></defs><metadata id="metadata4316"/><g id="layer3" style="display:inline"><g id="g5061" transform="translate(-503.22351,70.175148)"><path id="path4200-9-26-3-3-5-6" d="m 523.96524,-68.697783 a 15.88587,15.715345 0 0 0 -13.24335,15.493358 15.88587,15.715345 0 0 0 15.88534,15.714845 15.88587,15.715345 0 0 0 11.7545,-5.171485 15.88587,15.715345 0 0 1 -2.642,0.221485 15.88587,15.715345 0 0 1 -15.88535,-15.714845 15.88587,15.715345 0 0 1 4.13086,-10.543358 z" style="display:inline;opacity:1;fill:#dbdbe3;fill-opacity:1;stroke:#000;stroke-width:.96461505;stroke-linecap:round;stroke-linejoin:round;stroke-miterlimit:4;stroke-dasharray:none;stroke-dashoffset:0;stroke-opacity:1"/><path id="path4563-3-8-8" d="m 545.28237,-34.123178 -2.75994,7.460687 5.97985,0 -4.59988,7.833721 10.11974,-10.444962 -4.59988,-0.186517 3.83323,-5.035963 z" style="display:inline;fill:#c0f;fill-rule:evenodd;stroke:#000;stroke-width:.47831854px;stroke-linecap:butt;stroke-linejoin:miter;stroke-opacity:1"/><path id="path4563-3-0" d="m 512.75332,-35.140431 -2.75993,7.460688 5.97985,0 -4.59989,7.833721 10.11975,-10.444962 -4.59988,-0.186517 3.83323,-5.035964 z" style="display:inline;fill:#c0f;fill-rule:evenodd;stroke:#000;stroke-width:.47831854px;stroke-linecap:butt;stroke-linejoin:miter;stroke-opacity:1"/><path id="path4220-1-6-1-1-8" d="m 558.84761,-45.25684 c 6.23086,-0.03564 6.0719,-11.060343 -2.28839,-10.826397 1.62727,-5.456772 -5.18903,-7.394787 -7.76577,-4.446693 -0.29681,-5.690691 -9.80794,-9.162063 -13.17914,-1.497816 -14.59414,-2.294244 -13.67508,16.981677 -3.88242,16.925751 z" style="display:inline;fill:url(#linearGradient4516-6-7);fill-opacity:1;fill-rule:evenodd;stroke:#000;stroke-width:.65269744;stroke-linecap:butt;stroke-linejoin:miter;stroke-miterlimit:4;stroke-dasharray:none;stroke-opacity:1"/><path id="path4563-8" d="m 524.6666,-33.691193 -5.72757,12.727924 12.40973,0 -9.54594,13.3643184 21.00106,-17.8190924 -9.54594,-0.318197 7.95495,-8.591348 z" style="display:inline;fill:#c0f;fill-rule:evenodd;stroke:#000;stroke-width:.89999998px;stroke-linecap:butt;stroke-linejoin:miter;stroke-opacity:1"/><path id="path4220-6-0-4-5" d="m 513.31254,-32.286516 c -8.14671,-0.04593 -7.93888,-14.256658 2.99201,-13.955113 -2.12761,-7.033716 6.78455,-9.531801 10.15356,-5.73174 0.3881,-7.335234 12.82368,-11.8098 17.23144,-1.930662 19.0815,-2.957256 17.87986,21.889201 5.07619,21.817118 z" style="display:inline;fill:url(#linearGradient4514-8-5);fill-opacity:1;fill-rule:evenodd;stroke:#000;stroke-width:.84733212;stroke-linecap:butt;stroke-linejoin:miter;stroke-miterlimit:4;stroke-dasharray:none;stroke-opacity:1"/></g></g></svg>