<svg xmlns="http://www.w3.org/2000/svg" xmlns:svg="http://www.w3.org/2000/svg" xmlns:xlink="http://www.w3.org/1999/xlink" id="svg4311" width="100%" height="100%" version="1.1" viewBox="0 0 64 64"><defs id="defs4313"><linearGradient id="linearGradient4845"><stop style="stop-color:#aa00d4;stop-opacity:1" id="stop4847" offset="0"/><stop style="stop-color:#535d6c;stop-opacity:1" id="stop4849" offset="1"/></linearGradient><linearGradient id="linearGradient4839"><stop id="stop4841" offset="0" style="stop-color:#c0f;stop-opacity:1"/><stop id="stop4843" offset="1" style="stop-color:#939dac;stop-opacity:1"/></linearGradient><linearGradient id="linearGradient4514-2" x1="479" x2="478.75" y1="45.5" y2="27.25" gradientTransform="matrix(0.9,0,0,0.9,16.6973,-73.735702)" gradientUnits="userSpaceOnUse" xlink:href="#linearGradient4839"/><linearGradient id="linearGradient4516-2" x1="492.75" x2="492.5" y1="28.5" y2="12.5" gradientTransform="matrix(0.9,0,0,0.9,16.6973,-73.735702)" gradientUnits="userSpaceOnUse" xlink:href="#linearGradient4845"/></defs><metadata id="metadata4316"/><g id="layer3" style="display:inline"><g id="g5043" transform="translate(-418.00002,83.000004)"><path id="path4200-9-26-3-3-5" d="m 438.36996,-69.334179 a 15.88587,15.715345 0 0 0 -13.24335,15.493359 15.88587,15.715345 0 0 0 15.88534,15.714844 15.88587,15.715345 0 0 0 11.75449,-5.171485 15.88587,15.715345 0 0 1 -2.64199,0.221485 15.88587,15.715345 0 0 1 -15.88535,-15.714844 15.88587,15.715345 0 0 1 4.13086,-10.543359 z" style="display:inline;opacity:1;fill:#dbdbe3;fill-opacity:1;stroke:#000;stroke-width:.96461505;stroke-linecap:round;stroke-linejoin:round;stroke-miterlimit:4;stroke-dasharray:none;stroke-dashoffset:0;stroke-opacity:1"/><path id="path4220-1-6-1-9" d="m 473.08478,-45.991456 c 6.23086,-0.03564 6.0719,-11.060334 -2.28839,-10.826397 1.62727,-5.456763 -5.18903,-7.394778 -7.76576,-4.446693 -0.29682,-5.690682 -9.80795,-9.162063 -13.17914,-1.497807 -14.59414,-2.294244 -13.67509,16.981677 -3.88243,16.925751 z" style="display:inline;fill:url(#linearGradient4516-2);fill-opacity:1;fill-rule:evenodd;stroke:#000;stroke-width:.65269744;stroke-linecap:butt;stroke-linejoin:miter;stroke-miterlimit:4;stroke-dasharray:none;stroke-opacity:1"/><path id="path4220-6-0-7" d="m 427.54971,-33.021126 c -8.14671,-0.04593 -7.93888,-14.256664 2.99202,-13.95511 -2.12761,-7.033716 6.78454,-9.531801 10.15355,-5.73174 0.3881,-7.335243 12.82368,-11.809809 17.23144,-1.930671 19.0815,-2.957247 17.87986,21.889206 5.07619,21.817123 z" style="display:inline;fill:url(#linearGradient4514-2);fill-opacity:1;fill-rule:evenodd;stroke:#000;stroke-width:.84733212;stroke-linecap:butt;stroke-linejoin:miter;stroke-miterlimit:4;stroke-dasharray:none;stroke-opacity:1"/></g></g></svg>