<svg xmlns="http://www.w3.org/2000/svg" xmlns:svg="http://www.w3.org/2000/svg" id="svg4311" width="100%" height="100%" version="1.1" viewBox="0 0 64 64"><metadata id="metadata4316"/><g id="layer3" style="display:inline"><path style="display:inline;fill:#535d6c;fill-rule:evenodd;stroke:#000;stroke-width:.65269744;stroke-linecap:butt;stroke-linejoin:miter;stroke-miterlimit:4;stroke-dasharray:none;stroke-opacity:1" id="path4220-1-6-7-7-6" d="M 56.76486,27.644157 C 62.99572,27.608517 62.83676,16.583823 54.47647,16.81776 56.10374,11.360988 49.28744,9.422973 46.71071,12.371067 46.41389,6.680376 36.90276,3.209004 33.53157,10.873251 18.93743,8.579016 19.85648,27.854928 29.64914,27.799011 Z"/><path style="display:inline;opacity:1;fill:#dbdbe3;fill-opacity:1;stroke:#000;stroke-width:.96461505;stroke-linecap:round;stroke-linejoin:round;stroke-miterlimit:4;stroke-dasharray:none;stroke-dashoffset:0;stroke-opacity:1" id="path4200-9-26-3-3" d="M 21.81644,4.683029 A 15.88587,15.715345 0 0 0 8.57308,20.176387 15.88587,15.715345 0 0 0 24.45842,35.891232 15.88587,15.715345 0 0 0 36.21292,30.719747 15.88587,15.715345 0 0 1 33.57092,30.941232 15.88587,15.715345 0 0 1 17.68557,15.226388 15.88587,15.715345 0 0 1 21.81644,4.683029 Z"/><path style="display:inline;fill:#939dac;fill-rule:evenodd;stroke:#000;stroke-width:.84733212;stroke-linecap:butt;stroke-linejoin:miter;stroke-miterlimit:4;stroke-dasharray:none;stroke-opacity:1" id="path4220-6-6-0-0" d="M 11.22979,40.614484 C 3.08309,40.568554 3.29092,26.357823 14.22181,26.659377 12.0942,19.625652 21.00635,17.127576 24.37536,20.927628 24.76346,13.592394 37.19904,9.117828 41.6068,18.996966 60.6883,16.03971 59.48666,40.88617 46.68299,40.814087 Z"/><path style="opacity:1;fill:#aef;fill-opacity:1;stroke:#000;stroke-width:.5;stroke-linecap:round;stroke-linejoin:round;stroke-miterlimit:4;stroke-dasharray:none;stroke-dashoffset:0;stroke-opacity:1" id="path4452" d="m 379.18601,72.838833 -9.74361,-3.796391 -1.97226,10.300298 -1.58404,-10.33641 -9.90645,3.442119 8.15958,-6.540019 -7.93419,-6.85818 9.74361,3.796392 1.97226,-10.300298 1.58404,10.33641 9.90645,-3.442119 -8.15958,6.540019 z" transform="matrix(0.18430664,0.28685123,-0.32857811,0.18958676,-30.527429,-71.360886)"/><path style="display:inline;opacity:1;fill:#aef;fill-opacity:1;stroke:#000;stroke-width:.5;stroke-linecap:round;stroke-linejoin:round;stroke-miterlimit:4;stroke-dasharray:none;stroke-dashoffset:0;stroke-opacity:1" id="path4452-0" d="m 379.18601,72.838833 -9.74361,-3.796391 -1.97226,10.300298 -1.58404,-10.33641 -9.90645,3.442119 8.15958,-6.540019 -7.93419,-6.85818 9.74361,3.796392 1.97226,-10.300298 1.58404,10.33641 9.90645,-3.442119 -8.15958,6.540019 z" transform="matrix(0.18430664,0.28685123,-0.32857811,0.18958676,-1.8189139,-70.955864)"/><path style="display:inline;opacity:1;fill:#aef;fill-opacity:1;stroke:#000;stroke-width:.5;stroke-linecap:round;stroke-linejoin:round;stroke-miterlimit:4;stroke-dasharray:none;stroke-dashoffset:0;stroke-opacity:1" id="path4452-3" d="m 379.18601,72.838833 -9.74361,-3.796391 -1.97226,10.300298 -1.58404,-10.33641 -9.90645,3.442119 8.15958,-6.540019 -7.93419,-6.85818 9.74361,3.796392 1.97226,-10.300298 1.58404,10.33641 9.90645,-3.442119 -8.15958,6.540019 z" transform="matrix(0.18430664,0.28685123,-0.32857811,0.18958676,-16.478224,-69.455987)"/><path style="display:inline;opacity:1;fill:#aef;fill-opacity:1;stroke:#000;stroke-width:.5;stroke-linecap:round;stroke-linejoin:round;stroke-miterlimit:4;stroke-dasharray:none;stroke-dashoffset:0;stroke-opacity:1" id="path4452-5" d="m 379.18601,72.838833 -9.74361,-3.796391 -1.97226,10.300298 -1.58404,-10.33641 -9.90645,3.442119 8.15958,-6.540019 -7.93419,-6.85818 9.74361,3.796392 1.97226,-10.300298 1.58404,10.33641 9.90645,-3.442119 -8.15958,6.540019 z" transform="matrix(0.18430664,0.28685123,-0.32857811,0.18958676,-25.695621,-60.397945)"/><path style="display:inline;opacity:1;fill:#aef;fill-opacity:1;stroke:#000;stroke-width:.5;stroke-linecap:round;stroke-linejoin:round;stroke-miterlimit:4;stroke-dasharray:none;stroke-dashoffset:0;stroke-opacity:1" id="path4452-1" d="m 379.18601,72.838833 -9.74361,-3.796391 -1.97226,10.300298 -1.58404,-10.33641 -9.90645,3.442119 8.15958,-6.540019 -7.93419,-6.85818 9.74361,3.796392 1.97226,-10.300298 1.58404,10.33641 9.90645,-3.442119 -8.15958,6.540019 z" transform="matrix(0.18430664,0.28685123,-0.32857811,0.18958676,-8.0573388,-59.94714)"/></g></svg>