<svg xmlns="http://www.w3.org/2000/svg" xmlns:svg="http://www.w3.org/2000/svg" xmlns:xlink="http://www.w3.org/1999/xlink" id="svg4311" width="100%" height="100%" version="1.1" viewBox="0 0 64 64"><defs id="defs4313"><linearGradient id="linearGradient4518"><stop id="stop4520" offset="0" style="stop-color:#aa00d4;stop-opacity:1"/><stop id="stop4522" offset="1" style="stop-color:#6f7c91;stop-opacity:1"/></linearGradient><linearGradient id="linearGradient4508"><stop style="stop-color:#c0f;stop-opacity:1" id="stop4510" offset="0"/><stop style="stop-color:#b7bec8;stop-opacity:1" id="stop4512" offset="1"/></linearGradient><linearGradient id="linearGradient4514-8" x1="479" x2="478.75" y1="45.5" y2="27.25" gradientTransform="matrix(0.9,0,0,0.9,99.755787,3.7967484)" gradientUnits="userSpaceOnUse" xlink:href="#linearGradient4508"/><linearGradient id="linearGradient4516-6" x1="492.75" x2="492.5" y1="28.5" y2="12.5" gradientTransform="matrix(0.9,0,0,0.9,99.755787,3.7967484)" gradientUnits="userSpaceOnUse" xlink:href="#linearGradient4518"/></defs><metadata id="metadata4316"/><g id="layer3" style="display:inline"><g id="g5053" transform="translate(-500.1664,-6.6516508)"><path id="path4563-3-8" d="m 542.57803,42.674665 -2.75993,7.460687 5.97984,0 -4.59988,7.833721 10.11974,-10.444961 -4.59988,-0.186517 3.83323,-5.035964 z" style="display:inline;fill:#c0f;fill-rule:evenodd;stroke:#000;stroke-width:.47831854px;stroke-linecap:butt;stroke-linejoin:miter;stroke-opacity:1"/><path id="path4563-3" d="m 510.04899,41.657412 -2.75994,7.460688 5.97985,0 -4.59988,7.833721 10.11974,-10.444961 -4.59988,-0.186517 3.83323,-5.035965 z" style="display:inline;fill:#c0f;fill-rule:evenodd;stroke:#000;stroke-width:.47831854px;stroke-linecap:butt;stroke-linejoin:miter;stroke-opacity:1"/><ellipse id="path4200-9-3-5" cx="523.8" cy="23.656" rx="15.886" ry="15.715" style="display:inline;opacity:1;fill:#ffc100;fill-opacity:1;stroke:#000;stroke-width:.96461505;stroke-linecap:round;stroke-linejoin:round;stroke-miterlimit:4;stroke-dasharray:none;stroke-dashoffset:0;stroke-opacity:1"/><path id="path4220-1-6-1-1" d="m 556.14327,31.541001 c 6.23086,-0.03563 6.0719,-11.060338 -2.28839,-10.826396 1.62727,-5.45677 -5.18903,-7.394785 -7.76576,-4.446694 -0.29682,-5.690687 -9.80795,-9.1620633 -13.17914,-1.497813 -14.59414,-2.294242 -13.67509,16.981677 -3.88243,16.925754 z" style="display:inline;fill:url(#linearGradient4516-6);fill-opacity:1;fill-rule:evenodd;stroke:#000;stroke-width:.65269744;stroke-linecap:butt;stroke-linejoin:miter;stroke-miterlimit:4;stroke-dasharray:none;stroke-opacity:1"/><path id="path4563" d="m 521.96226,43.106651 -5.72757,12.727923 12.40973,0 -9.54594,13.364319 21.00107,-17.819092 -9.54594,-0.318198 7.95494,-8.591348 z" style="fill:#c0f;fill-rule:evenodd;stroke:#000;stroke-width:.89999998px;stroke-linecap:butt;stroke-linejoin:miter;stroke-opacity:1"/><path id="path4220-6-0-4" d="m 510.6082,44.511327 c -8.14671,-0.04593 -7.93888,-14.256658 2.99202,-13.95511 -2.12761,-7.033717 6.78454,-9.531799 10.15355,-5.731741 0.3881,-7.335236 12.82368,-11.809804 17.23144,-1.930665 19.0815,-2.957254 17.87986,21.889202 5.07619,21.817119 z" style="display:inline;fill:url(#linearGradient4514-8);fill-opacity:1;fill-rule:evenodd;stroke:#000;stroke-width:.84733212;stroke-linecap:butt;stroke-linejoin:miter;stroke-miterlimit:4;stroke-dasharray:none;stroke-opacity:1"/></g></g></svg>