<svg xmlns="http://www.w3.org/2000/svg" xmlns:svg="http://www.w3.org/2000/svg" id="svg4311" width="100%" height="100%" version="1.1" viewBox="0 0 64 64"><metadata id="metadata4316"/><g id="layer3" style="display:inline"><g id="g5011" transform="translate(-233.34525,-1.767767)"><ellipse id="path4200-9-2" cx="258.105" cy="21.747" rx="15.886" ry="15.715" style="display:inline;opacity:1;fill:#ffc100;fill-opacity:1;stroke:#000;stroke-width:.96461505;stroke-linecap:round;stroke-linejoin:round;stroke-miterlimit:4;stroke-dasharray:none;stroke-dashoffset:0;stroke-opacity:1"/><path id="path4220-1-6-7" d="m 290.44788,29.631813 c 6.23086,-0.03563 6.0719,-11.060338 -2.28839,-10.826396 1.62727,-5.456769 -5.18903,-7.394785 -7.76576,-4.446694 -0.29682,-5.6906882 -9.80795,-9.1620647 -13.17914,-1.497813 -14.59414,-2.294242 -13.67509,16.981677 -3.88243,16.925754 z" style="display:inline;fill:#939dac;fill-rule:evenodd;stroke:#000;stroke-width:.65269744;stroke-linecap:butt;stroke-linejoin:miter;stroke-miterlimit:4;stroke-dasharray:none;stroke-opacity:1"/><path id="path4220-6-6" d="m 244.91281,42.602139 c -8.1467,-0.04593 -7.93887,-14.256658 2.99201,-13.95511 -2.1276,-7.033717 6.78455,-9.531799 10.15356,-5.731741 0.3881,-7.335236 12.82368,-11.809804 17.23144,-1.930665 19.0815,-2.957254 17.87986,21.889202 5.07619,21.817119 z" style="display:inline;fill:#dbdee3;fill-rule:evenodd;stroke:#000;stroke-width:.84733212;stroke-linecap:butt;stroke-linejoin:miter;stroke-miterlimit:4;stroke-dasharray:none;stroke-opacity:1"/><path id="path4361" d="m 248.85712,51.176782 c 2.97314,2.274817 3.58901,-3.484928 4.5993,-6.0089 -2.18644,1.645641 -7.1035,4.092873 -4.5993,6.0089 z" style="fill:#59f;fill-rule:evenodd;stroke:#000;stroke-width:.44999999;stroke-linecap:butt;stroke-linejoin:miter;stroke-miterlimit:4;stroke-dasharray:none;stroke-opacity:1"/><path id="path4361-6" d="m 268.84656,51.590993 c 2.97314,2.274817 3.58901,-3.484929 4.59929,-6.0089 -2.18644,1.645641 -7.1035,4.092873 -4.59929,6.0089 z" style="display:inline;fill:#59f;fill-rule:evenodd;stroke:#000;stroke-width:.44999999;stroke-linecap:butt;stroke-linejoin:miter;stroke-miterlimit:4;stroke-dasharray:none;stroke-opacity:1"/><path id="path4361-9" d="m 257.37156,56.765993 c 2.97314,2.274817 3.58901,-3.484929 4.59929,-6.0089 -2.18644,1.645641 -7.1035,4.092873 -4.59929,6.0089 z" style="display:inline;fill:#59f;fill-rule:evenodd;stroke:#000;stroke-width:.44999999;stroke-linecap:butt;stroke-linejoin:miter;stroke-miterlimit:4;stroke-dasharray:none;stroke-opacity:1"/><path id="path4361-2" d="m 237.79656,56.090993 c 2.97314,2.274817 3.58901,-3.484929 4.59929,-6.0089 -2.18644,1.645641 -7.1035,4.092873 -4.59929,6.0089 z" style="display:inline;fill:#59f;fill-rule:evenodd;stroke:#000;stroke-width:.44999999;stroke-linecap:butt;stroke-linejoin:miter;stroke-miterlimit:4;stroke-dasharray:none;stroke-opacity:1"/><path id="path4361-98" d="m 275.93406,57.778493 c 2.97314,2.274817 3.58901,-3.484929 4.59929,-6.0089 -2.18644,1.645641 -7.1035,4.092873 -4.59929,6.0089 z" style="display:inline;fill:#59f;fill-rule:evenodd;stroke:#000;stroke-width:.44999999;stroke-linecap:butt;stroke-linejoin:miter;stroke-miterlimit:4;stroke-dasharray:none;stroke-opacity:1"/><path id="path4361-1" d="m 244.77156,62.053493 c 2.97314,2.274817 3.58901,-3.484929 4.59929,-6.0089 -2.18644,1.645641 -7.1035,4.092873 -4.59929,6.0089 z" style="display:inline;fill:#59f;fill-rule:evenodd;stroke:#000;stroke-width:.44999999;stroke-linecap:butt;stroke-linejoin:miter;stroke-miterlimit:4;stroke-dasharray:none;stroke-opacity:1"/><path id="path4361-69" d="m 266.14656,62.615993 c 2.97314,2.274817 3.58901,-3.484929 4.59929,-6.0089 -2.18644,1.645641 -7.1035,4.092873 -4.59929,6.0089 z" style="display:inline;fill:#59f;fill-rule:evenodd;stroke:#000;stroke-width:.44999999;stroke-linecap:butt;stroke-linejoin:miter;stroke-miterlimit:4;stroke-dasharray:none;stroke-opacity:1"/></g></g></svg>