<svg xmlns="http://www.w3.org/2000/svg" xmlns:svg="http://www.w3.org/2000/svg" id="svg4311" width="100%" height="100%" version="1.1" viewBox="0 0 64 64"><metadata id="metadata4316"/><g id="layer3" style="display:inline"><g id="g4999" transform="translate(-236.35045,75.130099)"><path id="path4220-1-6-7-9" d="m 293.15222,-47.166028 c 6.23086,-0.03564 6.0719,-11.060343 -2.28839,-10.826397 1.62726,-5.456772 -5.18903,-7.394787 -7.76576,-4.446693 -0.29683,-5.690691 -9.80795,-9.162063 -13.17915,-1.497816 -14.59413,-2.294244 -13.67508,16.981677 -3.88243,16.925751 z" style="display:inline;fill:#535d6c;fill-rule:evenodd;stroke:#000;stroke-width:.65269744;stroke-linecap:butt;stroke-linejoin:miter;stroke-miterlimit:4;stroke-dasharray:none;stroke-opacity:1"/><path id="path4200-9-26-3-5" d="m 258.44146,-70.81698 a 15.88587,15.715345 0 0 0 -13.24337,15.493359 15.88587,15.715345 0 0 0 15.88535,15.714845 15.88587,15.715345 0 0 0 11.7545,-5.171485 15.88587,15.715345 0 0 1 -2.642,0.221485 15.88587,15.715345 0 0 1 -15.88535,-15.714844 15.88587,15.715345 0 0 1 4.13087,-10.54336 z" style="display:inline;opacity:1;fill:#dbdbe3;fill-opacity:1;stroke:#000;stroke-width:.96461505;stroke-linecap:round;stroke-linejoin:round;stroke-miterlimit:4;stroke-dasharray:none;stroke-dashoffset:0;stroke-opacity:1"/><path id="path4220-6-6-04" d="m 247.61715,-34.195704 c -8.1467,-0.04593 -7.93887,-14.256658 2.99201,-13.955113 -2.12761,-7.033716 6.78454,-9.531801 10.15356,-5.73174 0.3881,-7.335234 12.82368,-11.8098 17.23144,-1.930662 19.0815,-2.957256 17.87985,21.889201 5.07618,21.817118 z" style="display:inline;fill:#939dac;fill-rule:evenodd;stroke:#000;stroke-width:.84733212;stroke-linecap:butt;stroke-linejoin:miter;stroke-miterlimit:4;stroke-dasharray:none;stroke-opacity:1"/><path id="path4361-0" d="m 251.56146,-25.621061 c 2.97314,2.274817 3.58901,-3.484929 4.5993,-6.0089 -2.18644,1.645641 -7.1035,4.092873 -4.5993,6.0089 z" style="display:inline;fill:#59f;fill-rule:evenodd;stroke:#000;stroke-width:.44999999;stroke-linecap:butt;stroke-linejoin:miter;stroke-miterlimit:4;stroke-dasharray:none;stroke-opacity:1"/><path id="path4361-6-9" d="m 271.55089,-25.20685 c 2.97314,2.274816 3.58901,-3.484929 4.5993,-6.008901 -2.18644,1.645641 -7.1035,4.092874 -4.5993,6.008901 z" style="display:inline;fill:#59f;fill-rule:evenodd;stroke:#000;stroke-width:.44999999;stroke-linecap:butt;stroke-linejoin:miter;stroke-miterlimit:4;stroke-dasharray:none;stroke-opacity:1"/><path id="path4361-9-2" d="m 260.07589,-20.03185 c 2.97314,2.274816 3.58902,-3.484929 4.5993,-6.008901 -2.18644,1.645641 -7.1035,4.092874 -4.5993,6.008901 z" style="display:inline;fill:#59f;fill-rule:evenodd;stroke:#000;stroke-width:.44999999;stroke-linecap:butt;stroke-linejoin:miter;stroke-miterlimit:4;stroke-dasharray:none;stroke-opacity:1"/><path id="path4361-2-3" d="m 240.50089,-20.70685 c 2.97315,2.274816 3.58901,-3.484929 4.5993,-6.008901 -2.18644,1.645641 -7.1035,4.092874 -4.5993,6.008901 z" style="display:inline;fill:#59f;fill-rule:evenodd;stroke:#000;stroke-width:.44999999;stroke-linecap:butt;stroke-linejoin:miter;stroke-miterlimit:4;stroke-dasharray:none;stroke-opacity:1"/><path id="path4361-98-2" d="m 278.63839,-19.01935 c 2.97314,2.274816 3.58901,-3.484929 4.5993,-6.008901 -2.18644,1.645641 -7.1035,4.092874 -4.5993,6.008901 z" style="display:inline;fill:#59f;fill-rule:evenodd;stroke:#000;stroke-width:.44999999;stroke-linecap:butt;stroke-linejoin:miter;stroke-miterlimit:4;stroke-dasharray:none;stroke-opacity:1"/><path id="path4361-1-3" d="m 247.47589,-14.74435 c 2.97314,2.274816 3.58901,-3.484929 4.5993,-6.008901 -2.18644,1.645641 -7.1035,4.092874 -4.5993,6.008901 z" style="display:inline;fill:#59f;fill-rule:evenodd;stroke:#000;stroke-width:.44999999;stroke-linecap:butt;stroke-linejoin:miter;stroke-miterlimit:4;stroke-dasharray:none;stroke-opacity:1"/><path id="path4361-69-5" d="m 268.85089,-14.18185 c 2.97314,2.274816 3.58901,-3.484929 4.5993,-6.008901 -2.18644,1.645641 -7.1035,4.092874 -4.5993,6.008901 z" style="display:inline;fill:#59f;fill-rule:evenodd;stroke:#000;stroke-width:.44999999;stroke-linecap:butt;stroke-linejoin:miter;stroke-miterlimit:4;stroke-dasharray:none;stroke-opacity:1"/></g></g></svg>