<svg xmlns="http://www.w3.org/2000/svg" xmlns:svg="http://www.w3.org/2000/svg" xmlns:xlink="http://www.w3.org/1999/xlink" id="svg4311" width="100%" height="100%" version="1.1" viewBox="0 0 64 64"><defs id="defs4313"><linearGradient id="linearGradient4518"><stop id="stop4520" offset="0" style="stop-color:#aa00d4;stop-opacity:1"/><stop id="stop4522" offset="1" style="stop-color:#6f7c91;stop-opacity:1"/></linearGradient><linearGradient id="linearGradient4508"><stop style="stop-color:#c0f;stop-opacity:1" id="stop4510" offset="0"/><stop style="stop-color:#b7bec8;stop-opacity:1" id="stop4512" offset="1"/></linearGradient><linearGradient id="linearGradient4514" x1="479" x2="478.75" y1="45.5" y2="27.25" gradientTransform="matrix(0.9,0,0,0.9,13.992962,3.062138)" gradientUnits="userSpaceOnUse" xlink:href="#linearGradient4508"/><linearGradient id="linearGradient4516" x1="492.75" x2="492.5" y1="28.5" y2="12.5" gradientTransform="matrix(0.9,0,0,0.9,13.992962,3.062138)" gradientUnits="userSpaceOnUse" xlink:href="#linearGradient4518"/></defs><metadata id="metadata4316"/><g id="layer3" style="display:inline"><g id="g5048" transform="translate(-415.12915,6.2728948)"><ellipse id="path4200-9-3" cx="438.037" cy="22.922" rx="15.886" ry="15.715" style="display:inline;opacity:1;fill:#ffc100;fill-opacity:1;stroke:#000;stroke-width:.96461505;stroke-linecap:round;stroke-linejoin:round;stroke-miterlimit:4;stroke-dasharray:none;stroke-dashoffset:0;stroke-opacity:1"/><path id="path4220-1-6-1" d="m 470.38044,30.80639 c 6.23086,-0.03563 6.07191,-11.060337 -2.28838,-10.826396 1.62726,-5.456769 -5.18903,-7.394785 -7.76577,-4.446694 -0.29682,-5.6906868 -9.80795,-9.1620633 -13.17914,-1.497813 -14.59414,-2.294242 -13.67509,16.981677 -3.88243,16.925755 z" style="display:inline;fill:url(#linearGradient4516);fill-opacity:1;fill-rule:evenodd;stroke:#000;stroke-width:.65269744;stroke-linecap:butt;stroke-linejoin:miter;stroke-miterlimit:4;stroke-dasharray:none;stroke-opacity:1"/><path id="path4220-6-0" d="m 424.84537,43.776717 c -8.14671,-0.04593 -7.93888,-14.256659 2.99202,-13.95511 -2.12761,-7.033717 6.78454,-9.531799 10.15355,-5.731741 0.3881,-7.335237 12.82368,-11.809805 17.23144,-1.930666 19.0815,-2.957254 17.87986,21.889203 5.07619,21.81712 z" style="display:inline;fill:url(#linearGradient4514);fill-opacity:1;fill-rule:evenodd;stroke:#000;stroke-width:.84733212;stroke-linecap:butt;stroke-linejoin:miter;stroke-miterlimit:4;stroke-dasharray:none;stroke-opacity:1"/></g></g></svg>