<svg xmlns="http://www.w3.org/2000/svg" xmlns:svg="http://www.w3.org/2000/svg" xmlns:xlink="http://www.w3.org/1999/xlink" id="svg4311" width="100%" height="100%" version="1.1" viewBox="0 0 64 64"><defs id="defs4313"><linearGradient id="linearGradient4228"><stop style="stop-color:#f7f7ef;stop-opacity:1" id="stop4230" offset="0"/><stop id="stop4238" offset=".812" style="stop-color:#faf7ef;stop-opacity:1"/><stop style="stop-color:#efe7c1;stop-opacity:1" id="stop4232" offset="1"/></linearGradient><radialGradient id="radialGradient4236" cx="109.704" cy="-5.149" r="38.243" fx="109.704" fy="-5.149" gradientTransform="matrix(0.00232145,0.95713089,-1.255814,0.0030459,102.98263,-99.142062)" gradientUnits="userSpaceOnUse" xlink:href="#linearGradient4228"/></defs><metadata id="metadata4316"/><g id="layer5" style="display:inline"><path style="display:inline;fill:#ff24d3;fill-opacity:1;fill-rule:evenodd;stroke:#000;stroke-width:.5;stroke-linecap:butt;stroke-linejoin:miter;stroke-miterlimit:4;stroke-dasharray:none;stroke-opacity:1" id="path4285" d="m 4.1697228,16.929376 c -4.21557064,-6.23104 5.0431494,-9.7061633 8.4640472,-4.83711 -0.996715,-5.8446917 7.632688,-9.1160294 9.251383,-1.590068 1.241742,5.773367 -5.136375,8.003964 -3.909117,16.815248 C 13.283454,19.840933 7.453753,21.783502 4.1697228,16.929376 Z"/><path style="display:inline;fill:#fff;fill-opacity:.78504675;fill-rule:evenodd;stroke:none;stroke-width:1px;stroke-linecap:butt;stroke-linejoin:miter;stroke-opacity:1" id="path4287" d="M 21.170094,13.004117 C 21.129497,9.5648576 18.186597,6.2931513 13.66977,9.7440008 16.890933,4.5615796 22.454757,8.1838284 21.170094,13.004117 Z"/><path style="display:inline;fill:#d42aff;fill-opacity:1;fill-rule:evenodd;stroke:#000;stroke-width:.5;stroke-linecap:butt;stroke-linejoin:miter;stroke-miterlimit:4;stroke-dasharray:none;stroke-opacity:1" id="path4297" d="m 20.053883,20.006236 c 0.708418,-4.062818 5.75275,-1.916364 5.249946,1.30658 1.848839,-2.686913 6.562777,-0.699155 4.316368,2.888086 -1.723283,2.751869 -5.135384,1.208724 -8.032907,5.154782 0.996426,-4.735954 -2.085278,-6.184415 -1.533407,-9.349448 z"/><path style="display:inline;fill:#fff;fill-opacity:.78504675;fill-rule:evenodd;stroke:none;stroke-width:1px;stroke-linecap:butt;stroke-linejoin:miter;stroke-opacity:1" id="path4299" d="m 29.031746,24.108584 c 0.62113,-2.120806 -0.298284,-3.120387 -2.277168,-3.273247 2.05373,-0.694868 3.957993,0.828714 2.277168,3.273247 z"/><path style="display:inline;fill:#f06;fill-opacity:1;fill-rule:evenodd;stroke:#000;stroke-width:.5;stroke-linecap:butt;stroke-linejoin:miter;stroke-miterlimit:4;stroke-dasharray:none;stroke-opacity:1" id="path4297-8" d="m 6.474523,28.126631 c -2.2862639,-2.565071 1.8177331,-4.352343 3.663,-2.351843 -0.7742449,-2.496894 3.04907,-4.176704 4.201369,-0.971862 0.883959,2.458521 -1.951921,3.619097 -0.912273,7.3918 C 10.852764,29.10571 8.2555799,30.124881 6.474523,28.126631 Z"/><path style="display:inline;fill:#fff;fill-opacity:.78504675;fill-rule:evenodd;stroke:none;stroke-width:1px;stroke-linecap:butt;stroke-linejoin:miter;stroke-opacity:1" id="path4299-5" d="m 13.720256,25.666316 c -0.382636,-1.666768 -1.457446,-1.951584 -2.978293,-1.235712 1.239923,-1.310465 3.249244,-1.084087 2.978293,1.235712 z"/><g id="g4256" transform="matrix(0.38742049,0,0,0.38742049,-26.487605,36.693762)"><path id="path4152" d="m 77.142857,29.178572 2.5,11.696429 c 20.579433,22.147937 56.837883,7.264732 64.642853,-2.053571 l 2.85715,-11.339286 z" style="fill:#c1c4c5;fill-opacity:1;fill-rule:evenodd;stroke:#000;stroke-width:1px;stroke-linecap:butt;stroke-linejoin:miter;stroke-opacity:1"/><path id="path4154" d="m 76.517857,33.910715 c -1.249899,3.503834 6.01449,9.006243 11.339286,7.589286 10.900934,3.897553 17.863957,5.110166 18.303567,1.875 4.89733,-1.187788 14.19881,4.793603 24.82143,-2.767857 4.62241,-2.763035 12.60401,-0.398895 13.21429,-9.285714 3.6756,-1.894838 6.22953,-4.537458 2.14286,-11.607143 2.83442,-1.206926 -2.9706,-4.14174 -6.875,-6.696429 -0.67386,-1.631851 2.49544,-2.783307 -10.71429,-5.9821427 1.26789,-2.0228964 -5.64017,-3.4168739 -10.08929,-5 -3.77764,-2.68907282 -18.03348,-2.65512598 -17.14285,-0.089286 C 96.907865,3.6372158 87.026365,4.8008517 88.75,7.125001 84.28195,9.3232988 76.079069,11.28064 78.303571,13.910715 c -3.980505,3.671855 -4.614975,7.536871 -4.732142,11.428572 -1.60861,5.038829 0.05312,7.323687 2.946428,8.571428 z" style="fill:url(#radialGradient4236);fill-opacity:1;fill-rule:evenodd;stroke:#000;stroke-width:1px;stroke-linecap:butt;stroke-linejoin:miter;stroke-opacity:1"/><path id="path4160" d="m 77.910903,14.229981 c 1.16794,0.841662 2.500474,1.239593 3.406062,1.32694 -0.831998,-0.412673 -1.917576,-1.094784 -2.732332,-2.065918 z" style="fill:#000;fill-rule:evenodd;stroke:none;stroke-width:1px;stroke-linecap:butt;stroke-linejoin:miter;stroke-opacity:1"/><path id="path4164" d="M 88.544163,7.6928554 C 89.762435,8.518537 90.650178,8.5245657 91.40536,8.5254101 90.664394,8.1799937 90.043521,7.8857427 89.196613,6.9350244 Z" style="fill:#000;fill-rule:evenodd;stroke:none;stroke-width:1px;stroke-linecap:butt;stroke-linejoin:miter;stroke-opacity:1"/><path id="path4168" d="m 76.127615,34.27744 c 1.715826,0.473113 2.690756,0.07899 3.693814,-0.310921 -1.143909,0.07628 -1.965646,0.07765 -3.337436,-0.623421 z" style="fill:#000;fill-rule:evenodd;stroke:none;stroke-width:1px;stroke-linecap:butt;stroke-linejoin:miter;stroke-opacity:1"/><path id="path4172" d="m 146.48506,19.151013 c -1.40889,0.564176 -3.08297,1.027993 -4.45517,1.447774 1.41111,-0.08878 3.18156,-0.228732 4.72193,-0.484014 z" style="fill:#000;fill-rule:evenodd;stroke:none;stroke-width:1px;stroke-linecap:butt;stroke-linejoin:miter;stroke-opacity:1"/><path id="path4176" d="m 106.25542,42.894005 c -0.45242,0.06047 -1.02397,0.157193 -1.66456,0.151594 -0.60587,-0.0053 -1.24455,-0.10628 -1.66423,-0.483607 0.313,0.509381 0.93562,0.798002 1.59254,0.97844 0.50332,0.13825 1.46065,0.287831 1.68169,0.352083 z" style="fill:#000;fill-rule:evenodd;stroke:none;stroke-width:1px;stroke-linecap:butt;stroke-linejoin:miter;stroke-opacity:1"/><path id="path4180" d="m 144.28044,30.823753 c -0.32051,0.114861 -1.02137,0.265512 -1.70717,0.38375 -0.34192,0.05895 -0.67896,0.109626 -0.96005,0.143233 -0.27211,0.03253 -0.51491,0.05172 -0.63835,0.03971 0.10642,0.092 0.34299,0.160506 0.6312,0.210184 0.28982,0.04996 0.63863,0.08239 0.99239,0.106234 0.70457,0.04749 1.4433,0.06149 1.77826,0.112239 z" style="fill:#000;fill-rule:evenodd;stroke:none;stroke-width:1px;stroke-linecap:butt;stroke-linejoin:miter;stroke-opacity:1"/><path id="path4184" d="m 87.931109,41.53857 0.285075,-0.41077 c -0.888799,-0.420498 -2.323983,-0.897989 -3.075685,-1.55696 0.527578,0.918201 1.888603,1.733964 2.505535,2.3785 l 0.285075,-0.41077 z" style="fill:#000;fill-rule:evenodd;stroke:none;stroke-width:1px;stroke-linecap:butt;stroke-linejoin:miter;stroke-opacity:1"/><path id="path4216" d="m 108.7808,34.453039 c 0.94702,1.894034 4.33523,2.483294 10.16466,1.767767 4.12239,0.820999 6.23132,-0.505695 6.56599,-3.724938 5.62335,0.564208 7.84071,0.161051 7.57615,-0.947018" style="fill:none;fill-rule:evenodd;stroke:#000;stroke-width:.5;stroke-linecap:butt;stroke-linejoin:miter;stroke-miterlimit:4;stroke-dasharray:none;stroke-opacity:1"/><path id="path4218" d="m 79.959888,24.604052 c -0.466132,1.452261 0.296268,2.566927 2.593162,3.935461 0.478774,3.760925 6.119799,5.846342 9.465533,5.28218" style="fill:none;fill-rule:evenodd;stroke:#000;stroke-width:.5;stroke-linecap:butt;stroke-linejoin:miter;stroke-miterlimit:4;stroke-dasharray:none;stroke-opacity:1"/><path id="path4220" d="m 89.966711,13.555508 c -0.404026,3.657047 -0.582343,7.180079 4.293148,7.702413 1.690295,1.894495 3.791082,3.173253 8.144351,1.073288" style="fill:none;fill-rule:evenodd;stroke:#000;stroke-width:.5;stroke-linecap:butt;stroke-linejoin:miter;stroke-miterlimit:4;stroke-dasharray:none;stroke-opacity:1"/><path id="path4222" d="m 119.70308,21.699863 c 3.53012,1.27813 7.25928,3.020676 8.83883,-0.252538 3.88957,-0.45216 4.92328,-1.822274 4.10375,-3.788072" style="fill:none;fill-rule:evenodd;stroke:#000;stroke-width:.5;stroke-linecap:butt;stroke-linejoin:miter;stroke-miterlimit:4;stroke-dasharray:none;stroke-opacity:1"/><path id="path4224" d="m 100.51018,11.282665 c -0.870347,1.550945 5.62982,3.769029 6.62912,2.462247" style="fill:none;fill-rule:evenodd;stroke:#000;stroke-width:.5;stroke-linecap:butt;stroke-linejoin:miter;stroke-miterlimit:4;stroke-dasharray:none;stroke-opacity:1"/><path id="path4226" d="m 119.26113,13.871181 c 7.76914,0.220668 6.76348,-1.154084 7.51301,-2.209709" style="fill:none;fill-rule:evenodd;stroke:#000;stroke-width:.5;stroke-linecap:butt;stroke-linejoin:miter;stroke-miterlimit:4;stroke-dasharray:none;stroke-opacity:1"/><path id="path4240" d="m 85.073784,45.249044 -0.03157,-3.598668" style="fill:none;fill-rule:evenodd;stroke:#000;stroke-width:.5;stroke-linecap:butt;stroke-linejoin:miter;stroke-miterlimit:4;stroke-dasharray:none;stroke-opacity:1"/><path id="path4242" d="m 93.754783,43.355008 -0.378807,6.376588" style="fill:none;fill-rule:evenodd;stroke:#000;stroke-width:.5;stroke-linecap:butt;stroke-linejoin:miter;stroke-miterlimit:4;stroke-dasharray:none;stroke-opacity:1"/><path id="path4244" d="m 129.29953,41.776645 c 0.0631,0.252538 0.25253,6.187184 0.25253,6.187184" style="fill:none;fill-rule:evenodd;stroke:#000;stroke-width:.5;stroke-linecap:butt;stroke-linejoin:miter;stroke-miterlimit:4;stroke-dasharray:none;stroke-opacity:1"/><path id="path4246" d="m 132.26685,39.882609 c 0,0.315673 -0.12627,6.692261 -0.12627,6.692261" style="fill:none;fill-rule:evenodd;stroke:#000;stroke-width:.5;stroke-linecap:butt;stroke-linejoin:miter;stroke-miterlimit:4;stroke-dasharray:none;stroke-opacity:1"/><path id="path4248" d="m 140.85315,37.420362 0.12626,4.230014" style="fill:none;fill-rule:evenodd;stroke:#000;stroke-width:.5;stroke-linecap:butt;stroke-linejoin:miter;stroke-miterlimit:4;stroke-dasharray:none;stroke-opacity:1"/><path id="path4250" d="m 118.37725,44.428295 -0.0631,6.629127" style="fill:none;fill-rule:evenodd;stroke:#000;stroke-width:.5;stroke-linecap:butt;stroke-linejoin:miter;stroke-miterlimit:4;stroke-dasharray:none;stroke-opacity:1"/><path id="path4252" d="M 88.388348,41.776645 88.13581,47.395619" style="fill:none;fill-rule:evenodd;stroke:#000;stroke-width:.5;stroke-linecap:butt;stroke-linejoin:miter;stroke-miterlimit:4;stroke-dasharray:none;stroke-opacity:1"/><path id="path4254" d="m 105.05586,45.059641 -0.3788,7.134202" style="fill:none;fill-rule:evenodd;stroke:#000;stroke-width:.5;stroke-linecap:butt;stroke-linejoin:miter;stroke-miterlimit:4;stroke-dasharray:none;stroke-opacity:1"/></g><path style="display:inline;fill:none;fill-opacity:1;fill-rule:evenodd;stroke:#000;stroke-width:.71973801;stroke-linecap:butt;stroke-linejoin:miter;stroke-miterlimit:4;stroke-dasharray:none;stroke-opacity:1" id="path4194" d="m 61.923234,35.087225 0,6.565331 -13.995735,9.642768 -14.59145,-9.21171 0,-7.046514 14.584378,9.739607 z"/><path style="display:inline;fill:none;fill-opacity:1;fill-rule:evenodd;stroke:#000;stroke-width:.71973801;stroke-linecap:butt;stroke-linejoin:miter;stroke-miterlimit:4;stroke-dasharray:none;stroke-opacity:1" id="path4194-6" d="m 61.862617,46.44635 0,6.565331 -13.995737,9.642702 -14.591451,-9.21171 0,-7.046448 14.58438,9.739607 z"/><path style="display:inline;fill:none;fill-opacity:1;fill-rule:evenodd;stroke:#000;stroke-width:.71973801;stroke-linecap:butt;stroke-linejoin:miter;stroke-miterlimit:4;stroke-dasharray:none;stroke-opacity:1" id="path4194-4" d="m 62.139912,24.251582 0,6.565351 -13.995736,9.642768 -14.591451,-9.21171 0,-7.046502 14.584379,9.739595 z"/><path style="display:inline;fill:#ff80e5;fill-opacity:1;fill-rule:evenodd;stroke:#000;stroke-width:.71973801;stroke-linecap:butt;stroke-linejoin:miter;stroke-miterlimit:4;stroke-dasharray:none;stroke-opacity:1" id="path4194-3" d="m 62.359851,13.120437 0,6.565331 -13.995735,9.642768 -14.59145,-9.21171 0,-7.046514 14.584378,9.739607 z"/><path style="display:inline;fill:#fae;fill-opacity:1;fill-rule:evenodd;stroke:#000;stroke-width:.71973801;stroke-linecap:butt;stroke-linejoin:miter;stroke-miterlimit:4;stroke-dasharray:none;stroke-opacity:1" id="path4194-4-8" d="m 62.576529,2.2847947 0,6.5653509 -13.995736,9.6427674 -14.591451,-9.2117094 0,-7.0465019 14.584379,9.7395943 z"/></g></svg>