<svg xmlns="http://www.w3.org/2000/svg" xmlns:svg="http://www.w3.org/2000/svg" xmlns:xlink="http://www.w3.org/1999/xlink" id="svg4311" width="100%" height="100%" version="1.1" viewBox="0 0 64 64"><defs id="defs4313"><linearGradient id="scarlettsStallGradient"><stop style="stop-color:#f55;stop-opacity:1" id="stop4184" offset="0"/><stop style="stop-color:#ff8080;stop-opacity:1" id="stop4186" offset="1"/></linearGradient><linearGradient id="linearGradient15" x1="29.5" x2="44.125" y1="1025.487" y2="1003.362" gradientTransform="matrix(1.2884366,0,0,1.290513,-9.2250812,-296.31254)" gradientUnits="userSpaceOnUse" xlink:href="#scarlettsStallGradient"/></defs><metadata id="metadata4316"/><g id="layer1" transform="translate(0,-988.36216)" style="display:inline"><ellipse id="ellipse4146" cx="32" cy="1020.368" rx="30.383" ry="30.381" style="display:inline;fill:url(#linearGradient15);fill-opacity:1;fill-rule:evenodd;stroke:none;stroke-width:5.4000001;stroke-linecap:butt;stroke-linejoin:miter;stroke-miterlimit:4;stroke-dasharray:none;stroke-opacity:1"/><ellipse style="display:inline;fill:none;fill-opacity:1;stroke:#fff;stroke-width:3.22902727;stroke-linecap:round;stroke-linejoin:round;stroke-miterlimit:4;stroke-dasharray:none;stroke-dashoffset:0" id="path4143" cx="22.741" cy="1035.89" rx="9.033" ry="4.717" transform="matrix(0.99999999,1.4133237e-4,-1.4133237e-4,0.99999999,0,0)"/><ellipse style="display:inline;fill:none;fill-opacity:1;stroke:#fff;stroke-width:3.0559814;stroke-linecap:round;stroke-linejoin:round;stroke-miterlimit:4;stroke-dasharray:none;stroke-dashoffset:0" id="path4143-0" cx="60.641" cy="1032.638" rx="8.701" ry="4.387" transform="matrix(0.99988303,0.01529479,-0.01529479,0.99988303,0,0)"/><ellipse style="display:inline;fill:none;fill-opacity:1;stroke:#fff;stroke-width:.65193999;stroke-linecap:round;stroke-linejoin:round;stroke-miterlimit:4;stroke-dasharray:none;stroke-dashoffset:0" id="path4143-4-8-0-9-4" cx="159.16" cy="1033.98" rx="3.339" ry="1.107" transform="matrix(0.99961086,0.02789488,-0.12867393,0.99168696,0,0)"/><ellipse style="display:inline;fill:none;fill-opacity:1;stroke:#fff;stroke-width:.65193999;stroke-linecap:round;stroke-linejoin:round;stroke-miterlimit:4;stroke-dasharray:none;stroke-dashoffset:0" id="path4143-4-8-0-9-4-5" cx="162.807" cy="1033.12" rx="3.339" ry="1.107" transform="matrix(0.99961086,0.02789488,-0.12867393,0.99168696,0,0)"/><ellipse style="display:inline;fill:none;fill-opacity:1;stroke:#fff;stroke-width:.65193999;stroke-linecap:round;stroke-linejoin:round;stroke-miterlimit:4;stroke-dasharray:none;stroke-dashoffset:0" id="path4143-4-8-0-9-4-52" cx="166.686" cy="1032.342" rx="3.339" ry="1.107" transform="matrix(0.99961086,0.02789488,-0.12867393,0.99168696,0,0)"/><ellipse style="display:inline;fill:none;fill-opacity:1;stroke:#fff;stroke-width:.65193999;stroke-linecap:round;stroke-linejoin:round;stroke-miterlimit:4;stroke-dasharray:none;stroke-dashoffset:0" id="path4143-4-8-0-9-4-4" cx="170.976" cy="1032.355" rx="3.339" ry="1.107" transform="matrix(0.99961086,0.02789488,-0.12867393,0.99168696,0,0)"/><g id="g4342" transform="matrix(0.729,0,0,0.729,7.8132,273.3136)"><path style="display:inline;opacity:1;fill:#fff;fill-opacity:1;fill-rule:evenodd;stroke:#fff;stroke-width:.27516463px;stroke-linecap:butt;stroke-linejoin:miter;stroke-miterlimit:4;stroke-dasharray:none;stroke-opacity:1" id="path4156" d="m 22.700934,1011.191 0,4.489 0.459253,-5.143 c 0.96602,-1.6945 3.230595,-3.7904 5.701047,-5.7524 l 0.110863,2.2742 1.805286,-3.7458 c 2.517984,-1.8729 4.95678,-3.493 6.144508,-4.2809 l -1.187728,3.7755 1.995383,-4.0876 c 2.280437,-1.3973 9.074242,-3.2553 13.508429,-8.7699 0.332564,6.3321 -7.617297,14.8047 -9.042571,18.1046 l -5.241837,1.3675 5.115147,-0.773 c -0.601779,1.8135 -1.409433,3.4634 -2.422964,5.0242 l -1.837018,0.5648 0.839326,0.8473 c -1.266907,1.6796 -2.803037,3.2404 -4.592546,4.7268 l -5.716873,1.65 5.194273,-1.0554 c -4.259922,3.4039 -8.234833,5.589 -13.144065,5.2917 0,0 -0.174199,-0.1784 -0.3484,-0.2973 -1.076875,-6.9565 0.64929,-11.9509 2.660491,-14.2103 z"/><path style="display:inline;opacity:1;fill:#fff;fill-opacity:1;fill-rule:evenodd;stroke:#fff;stroke-width:.27516463px;stroke-linecap:butt;stroke-linejoin:miter;stroke-miterlimit:4;stroke-dasharray:none;stroke-opacity:1" id="path4160" d="m 46.6499,996.6396 c -3.851215,3.6237 -11.23433,7.64 -15.00242,11.9137 -5.361147,6.058 -6.649481,12.116 -15.681745,21.9911 9.170799,-9.2804 11.027116,-15.6288 16.125048,-21.7698 3.532587,-4.2598 11.40057,-8.5528 14.559117,-12.135 z"/></g></g></svg>