<svg xmlns="http://www.w3.org/2000/svg" xmlns:svg="http://www.w3.org/2000/svg" xmlns:xlink="http://www.w3.org/1999/xlink" id="svg4311" width="100%" height="100%" version="1.1" viewBox="0 0 64 64"><defs id="defs4313"><linearGradient id="slaveryAdministrationGradient"><stop style="stop-color:#f55;stop-opacity:1" id="stop4184" offset="0"/><stop style="stop-color:#ff8080;stop-opacity:1" id="stop4186" offset="1"/></linearGradient><linearGradient id="linearGradient15" x1="29.5" x2="44.125" y1="1025.487" y2="1003.362" gradientTransform="matrix(1.2884366,0,0,1.290513,-9.2250812,-296.31254)" gradientUnits="userSpaceOnUse" xlink:href="#slaveryAdministrationGradient"/></defs><metadata id="metadata4316"/><g id="layer1" transform="translate(0,-988.36216)" style="display:inline"><ellipse id="ellipse4146" cx="32" cy="1020.368" rx="30.383" ry="30.381" style="display:inline;fill:url(#linearGradient15);fill-opacity:1;fill-rule:evenodd;stroke:none;stroke-width:5.4000001;stroke-linecap:butt;stroke-linejoin:miter;stroke-miterlimit:4;stroke-dasharray:none;stroke-opacity:1"/><ellipse style="display:inline;fill:none;fill-opacity:1;stroke:#fff;stroke-width:3.22902727;stroke-linecap:round;stroke-linejoin:round;stroke-miterlimit:4;stroke-dasharray:none;stroke-dashoffset:0" id="path4143" cx="22.741" cy="1035.89" rx="9.033" ry="4.717" transform="matrix(0.99999999,1.4133237e-4,-1.4133237e-4,0.99999999,0,0)"/><ellipse style="display:inline;fill:none;fill-opacity:1;stroke:#fff;stroke-width:3.0559814;stroke-linecap:round;stroke-linejoin:round;stroke-miterlimit:4;stroke-dasharray:none;stroke-dashoffset:0" id="path4143-0" cx="60.641" cy="1032.638" rx="8.701" ry="4.387" transform="matrix(0.99988303,0.01529479,-0.01529479,0.99988303,0,0)"/><ellipse style="display:inline;fill:none;fill-opacity:1;stroke:#fff;stroke-width:.65193999;stroke-linecap:round;stroke-linejoin:round;stroke-miterlimit:4;stroke-dasharray:none;stroke-dashoffset:0" id="path4143-4-8-0-9-4" cx="159.16" cy="1033.98" rx="3.339" ry="1.107" transform="matrix(0.99961086,0.02789488,-0.12867393,0.99168696,0,0)"/><ellipse style="display:inline;fill:none;fill-opacity:1;stroke:#fff;stroke-width:.65193999;stroke-linecap:round;stroke-linejoin:round;stroke-miterlimit:4;stroke-dasharray:none;stroke-dashoffset:0" id="path4143-4-8-0-9-4-5" cx="162.807" cy="1033.12" rx="3.339" ry="1.107" transform="matrix(0.99961086,0.02789488,-0.12867393,0.99168696,0,0)"/><ellipse style="display:inline;fill:none;fill-opacity:1;stroke:#fff;stroke-width:.65193999;stroke-linecap:round;stroke-linejoin:round;stroke-miterlimit:4;stroke-dasharray:none;stroke-dashoffset:0" id="path4143-4-8-0-9-4-52" cx="166.686" cy="1032.342" rx="3.339" ry="1.107" transform="matrix(0.99961086,0.02789488,-0.12867393,0.99168696,0,0)"/><ellipse style="display:inline;fill:none;fill-opacity:1;stroke:#fff;stroke-width:.65193999;stroke-linecap:round;stroke-linejoin:round;stroke-miterlimit:4;stroke-dasharray:none;stroke-dashoffset:0" id="path4143-4-8-0-9-4-4" cx="170.976" cy="1032.355" rx="3.339" ry="1.107" transform="matrix(0.99961086,0.02789488,-0.12867393,0.99168696,0,0)"/><g id="g4183" transform="matrix(1.0694239,0,0,1.1081375,-1.9657847,-109.87797)"><path id="path4146" d="m 25.812499,1003.7684 c -1.2303,-1.9999 -3.066982,-4.44203 -3.71875,-5.71874 -0.411154,-0.80538 3.066776,-1.59151 3.78125,-0.46875 l 2.625,4.12499 z" style="fill:#fff;fill-rule:evenodd;stroke:none;stroke-width:1px;stroke-linecap:butt;stroke-linejoin:miter;stroke-opacity:1"/><ellipse id="path4148" cx="32.219" cy="1009.643" rx="6.767" ry="7.08" style="fill:none;fill-opacity:1;stroke:#fff;stroke-width:4.11355114;stroke-linecap:round;stroke-linejoin:round;stroke-miterlimit:4;stroke-dasharray:none;stroke-dashoffset:0;stroke-opacity:1"/><path id="path4146-6" d="m 38.967545,1003.8602 c 1.2303,-1.9999 3.066982,-4.44205 3.71875,-5.71876 0.411154,-0.80538 -3.066776,-1.59151 -3.78125,-0.46875 l -2.625,4.12501 z" style="display:inline;fill:#fff;fill-rule:evenodd;stroke:none;stroke-width:1px;stroke-linecap:butt;stroke-linejoin:miter;stroke-opacity:1"/><path id="path4146-5" d="m 25.766226,1015.7068 c -1.2303,1.9999 -3.066982,4.442 -3.71875,5.7188 -0.411154,0.8053 3.066776,1.5915 3.78125,0.4687 l 2.625,-4.125 z" style="display:inline;fill:#fff;fill-rule:evenodd;stroke:none;stroke-width:1px;stroke-linecap:butt;stroke-linejoin:miter;stroke-opacity:1"/><path id="path4146-6-6" d="m 38.858771,1015.6463 c 1.2303,1.9999 3.066982,4.442 3.71875,5.7187 0.411154,0.8054 -3.066776,1.5915 -3.78125,0.4688 l -2.625,-4.125 z" style="display:inline;fill:#fff;fill-rule:evenodd;stroke:none;stroke-width:1px;stroke-linecap:butt;stroke-linejoin:miter;stroke-opacity:1"/></g></g></svg>