<svg xmlns="http://www.w3.org/2000/svg" xmlns:svg="http://www.w3.org/2000/svg" xmlns:xlink="http://www.w3.org/1999/xlink" id="svg4311" width="100%" height="100%" version="1.1" viewBox="0 0 64 64"><defs id="defs4313"><linearGradient id="stocksGradient"><stop style="stop-color:#f55;stop-opacity:1" id="stop4184" offset="0"/><stop style="stop-color:#ff8080;stop-opacity:1" id="stop4186" offset="1"/></linearGradient><linearGradient id="linearGradient15" x1="29.5" x2="44.125" y1="1025.487" y2="1003.362" gradientTransform="matrix(1.2884366,0,0,1.290513,-9.2250812,-296.31254)" gradientUnits="userSpaceOnUse" xlink:href="#stocksGradient"/></defs><metadata id="metadata4316"/><g id="layer1" transform="translate(0,-988.36216)" style="display:inline"><ellipse id="ellipse4146" cx="32" cy="1020.368" rx="30.383" ry="30.381" style="display:inline;fill:url(#linearGradient15);fill-opacity:1;fill-rule:evenodd;stroke:none;stroke-width:5.4000001;stroke-linecap:butt;stroke-linejoin:miter;stroke-miterlimit:4;stroke-dasharray:none;stroke-opacity:1"/><path style="fill:none;fill-rule:evenodd;stroke:#fff;stroke-width:4.84000015;stroke-linecap:round;stroke-linejoin:miter;stroke-miterlimit:4;stroke-dasharray:none;stroke-opacity:1" id="path4142" d="M 15.943112,1033.1933 15.763229,1006.514"/><path style="fill:#fff;fill-rule:evenodd;stroke:none;stroke-width:1px;stroke-linecap:butt;stroke-linejoin:miter;stroke-opacity:1" id="path4145" d="m 15.964466,1004.0356 0.0625,12.9375 33.75,-0.065 0.09375,-12.8086 -33.90625,-0.064 z m 16.015625,1.5879 a 5.0532198,4.6625948 0 0 1 5.052734,4.6621 5.0532198,4.6625948 0 0 1 -5.052734,4.6621 5.0532198,4.6625948 0 0 1 -5.052734,-4.6621 5.0532198,4.6625948 0 0 1 5.052734,-4.6621 z m -9.984375,2.4433 a 2.4375,2.25 0 0 1 2.4375,2.25 2.4375,2.25 0 0 1 -2.4375,2.25 2.4375,2.25 0 0 1 -2.4375,-2.25 2.4375,2.25 0 0 1 2.4375,-2.25 z m 20,0.094 a 2.4375,2.25 0 0 1 2.4375,2.25 2.4375,2.25 0 0 1 -2.4375,2.25 2.4375,2.25 0 0 1 -2.4375,-2.25 2.4375,2.25 0 0 1 2.4375,-2.25 z"/><path style="display:inline;fill:none;fill-rule:evenodd;stroke:#fff;stroke-width:4.84000015;stroke-linecap:round;stroke-linejoin:miter;stroke-miterlimit:4;stroke-dasharray:none;stroke-opacity:1" id="path4142-0" d="M 50.059609,1033.2413 49.879726,1006.562"/><path style="fill:none;fill-rule:evenodd;stroke:#fff;stroke-width:3;stroke-linecap:butt;stroke-linejoin:miter;stroke-miterlimit:4;stroke-dasharray:none;stroke-opacity:1" id="path4184" d="m 10.304825,1034.4586 44.724501,0"/></g></svg>