<svg xmlns="http://www.w3.org/2000/svg" xmlns:svg="http://www.w3.org/2000/svg" xmlns:xlink="http://www.w3.org/1999/xlink" id="svg4311" width="100%" height="100%" version="1.1" viewBox="0 0 64 64"><defs id="defs4313"><linearGradient id="braxsOfficeGradient"><stop style="stop-color:#f55;stop-opacity:1" id="stop4184" offset="0"/><stop style="stop-color:#ff8080;stop-opacity:1" id="stop4186" offset="1"/></linearGradient><linearGradient id="linearGradient15" x1="29.5" x2="44.125" y1="1025.487" y2="1003.362" gradientTransform="matrix(1.2884366,0,0,1.290513,-9.2250812,-296.31254)" gradientUnits="userSpaceOnUse" xlink:href="#braxsOfficeGradient"/></defs><metadata id="metadata4316"/><g id="layer1" transform="translate(0,-988.36216)" style="display:inline"><ellipse id="ellipse4146" cx="32" cy="1020.368" rx="30.383" ry="30.381" style="display:inline;fill:url(#linearGradient15);fill-opacity:1;fill-rule:evenodd;stroke:none;stroke-width:5.4000001;stroke-linecap:butt;stroke-linejoin:miter;stroke-miterlimit:4;stroke-dasharray:none;stroke-opacity:1"/><g style="display:inline" id="g4140" transform="matrix(1.4774554,0,0,1.4774554,-15.767822,-487.88606)"><path id="path4163-4" d="m 44.269695,1025.4442 c -0.831388,6.2864 -6.181821,7.7218 -11.223938,11.0896 -5.067121,-3.1434 -11.633911,-3.8735 -12.458642,-11.1195 -0.615399,-5.4067 2.822473,-8.4461 0.329401,-16.0125 -0.795228,-2.4135 6.635776,2.9672 11.821376,-2.5723 5.126959,5.3199 12.277632,-0.2215 11.395455,2.9302 -2.064578,7.3761 0.849946,10.2887 0.136348,15.6845 z" style="display:inline;fill:#fff;fill-rule:evenodd;stroke:none;stroke-width:3.08985496px;stroke-linecap:butt;stroke-linejoin:miter;stroke-opacity:1"/><path id="path4155" d="m 32.707081,1012.5214 -5.660758,15.7722 13.666689,-9.9034 -16.335333,-0.081 13.86886,10.3518 z" style="fill:#f0f;fill-rule:evenodd;stroke:none;stroke-width:1.11163425px;stroke-linecap:butt;stroke-linejoin:miter;stroke-opacity:1"/></g></g></svg>