<svg xmlns="http://www.w3.org/2000/svg" xmlns:svg="http://www.w3.org/2000/svg" id="svg4311" width="100%" height="100%" version="1.1" viewBox="0 0 64 64"><metadata id="metadata4316"/><g id="layer5" style="display:inline"><path style="display:inline;fill:#ff8080;fill-opacity:1;fill-rule:evenodd;stroke:#000;stroke-width:.5;stroke-linecap:butt;stroke-linejoin:miter;stroke-miterlimit:4;stroke-dasharray:none;stroke-opacity:1" id="path4297-8" d="m 12.962418,49.579886 c -4.5255441,-6.543733 5.204666,-9.71582 8.874821,-4.597212 -1.123325,-6.016375 7.945128,-9.005999 9.74546,-1.245188 1.381082,5.953532 -5.323826,7.971722 -3.920976,17.030508 C 22.617498,52.931327 16.48793,54.677603 12.962418,49.579886 Z"/><path style="display:inline;fill:#fff;fill-opacity:.78504675;fill-rule:evenodd;stroke:none;stroke-width:1px;stroke-linecap:butt;stroke-linejoin:miter;stroke-opacity:1" id="path4299-5" d="m 29.966673,45.60201 c -0.446375,-3.983468 -2.805412,-4.90999 -6.424665,-3.609499 3.133407,-2.756702 7.620486,-1.738995 6.424665,3.609499 z"/><path style="display:inline;fill:#ff8080;fill-opacity:1;fill-rule:evenodd;stroke:#000;stroke-width:.5;stroke-linecap:butt;stroke-linejoin:miter;stroke-miterlimit:4;stroke-dasharray:none;stroke-opacity:1" id="path4297-8-6" d="m 34.738604,27.933569 c 0.753263,-10.341508 13.588587,-5.636046 13.135542,2.559363 3.869201,-7.032397 15.859493,-2.680782 11.235812,6.676967 -3.54695,7.178586 -12.250993,3.765702 -18.378552,14.119137 1.294787,-12.078777 -6.579599,-15.299189 -5.992802,-23.355467 z"/><path style="display:inline;fill:#fff;fill-opacity:.78504675;fill-rule:evenodd;stroke:none;stroke-width:1px;stroke-linecap:butt;stroke-linejoin:miter;stroke-opacity:1" id="path4299-5-5" d="m 55.856737,37.74843 c 2.872825,-4.413799 1.1825,-7.278504 -3.692849,-8.906136 5.588103,-0.248881 9.427494,4.442973 3.692849,8.906136 z"/><path style="display:inline;fill:#ff8080;fill-opacity:1;fill-rule:evenodd;stroke:#000;stroke-width:.5;stroke-linecap:butt;stroke-linejoin:miter;stroke-miterlimit:4;stroke-dasharray:none;stroke-opacity:1" id="path4297-8-6-4" d="M 6.3273208,20.16399 C -1.2713037,11.202192 12.807156,4.7891965 18.944871,11.776664 16.483273,3.0101045 29.599901,-3.0163065 33.298525,8.2311532 36.135841,16.859386 26.412668,21.028766 29.689272,34.278532 21.148617,23.480885 12.246838,27.145433 6.3273208,20.16399 Z"/><path style="display:inline;fill:#fff;fill-opacity:.78504675;fill-rule:evenodd;stroke:none;stroke-width:1px;stroke-linecap:butt;stroke-linejoin:miter;stroke-opacity:1" id="path4299-5-5-4" d="M 31.135599,11.288749 C 29.948751,5.4327764 26.31334,4.4619941 21.092504,7.0270154 25.398828,2.3772419 32.216103,3.1146475 31.135599,11.288749 Z"/></g></svg>