<svg xmlns="http://www.w3.org/2000/svg" xmlns:svg="http://www.w3.org/2000/svg" id="svg2" version="1.1" viewBox="0 0 256 256"><metadata id="metadata7"/><g id="layer2" style="display:inline"><path id="path4154" d="m 64.42517,170.84764 c -5.488344,15.96623 -5.488344,37.42105 -2.993685,53.88632 C 25.507506,215.75291 5.5497641,193.79929 6.5475802,156.87773 8.0444234,104.48824 50.953588,102.99141 54.945325,69.063298 56.442166,56.58977 57.439983,43.118187 34.488558,27.650975 64.42517,26.653866 79.892146,59.583456 78.395304,75.050665 73.904776,123.9472 33.490507,131.93044 64.42517,170.84764 Z" style="fill:#f55;fill-opacity:1;fill-rule:evenodd;stroke:#000;stroke-width:1.15762496"/><path id="path4156" d="m 193.15267,170.34859 c 4.98955,15.96648 3.9915,37.9201 1.49683,54.38537 35.92421,-9.48007 56.38051,-30.93467 55.38248,-67.85623 -1.99659,-52.88827 -44.90458,-53.88632 -48.39729,-87.814432 -1.49684,-12.473528 -2.49466,-26.443899 19.95796,-41.412323 -29.43781,-0.997109 -44.90525,31.932481 -43.40841,47.39969 4.49052,48.397755 45.4043,56.380745 14.96843,95.297925 z" style="fill:#f55;fill-opacity:1;fill-rule:evenodd;stroke:#000;stroke-width:1.15762496"/><path style="fill:#f55;fill-rule:evenodd;stroke:#000;stroke-width:1px;stroke-linecap:butt;stroke-linejoin:miter;stroke-opacity:1;fill-opacity:1" id="path4165" d="m 68.185296,230.49365 c -4.995165,-23.06303 -2.138776,-42.85458 0.757615,-62.62946 39.756479,4.32638 79.104079,3.74613 118.187849,0 6.72824,23.20526 3.68026,42.65043 2.0203,62.62946 -38.308,-3.74013 -77.96384,-4.97715 -120.965764,0 z"/></g></svg>