<svg xmlns="http://www.w3.org/2000/svg" xmlns:svg="http://www.w3.org/2000/svg" id="svg2" version="1.1" viewBox="0 0 256 256"><metadata id="metadata7"/><g id="layer2" style="display:inline"><path style="fill:#f55;fill-rule:evenodd;stroke:#000;stroke-width:1.327;stroke-linecap:butt;stroke-linejoin:miter;stroke-miterlimit:4;stroke-dasharray:none;stroke-opacity:1" id="path4469" d="M 180.25054,229.2415 C 267.58599,186.53795 229.28711,45.435262 150.39005,10.093126 140.98199,5.878769 128.11599,34.196535 132.85318,37.4148 181.02551,70.141274 203.51962,161.08822 159.29598,182.72059 114.99801,204.38935 55.931471,136.12208 60.122614,73.270173 60.498951,67.626652 30.516092,57.03852 28.293933,67.712027 8.6949678,161.85008 95.851672,270.50921 180.25054,229.2415 Z m -35.40697,-0.3403 a 14.476805,14.559526 64.438736 0 1 -19.38135,-6.77761 14.476805,14.559526 64.438736 0 1 6.88858,-19.34216 14.476805,14.559526 64.438736 0 1 19.38134,6.77755 14.476805,14.559526 64.438736 0 1 -6.88857,19.34222 z m 55.61458,-27.51655 a 14.476805,14.559526 64.438736 0 1 -19.3814,-6.77754 14.476805,14.559526 64.438736 0 1 6.88859,-19.34221 14.476805,14.559526 64.438736 0 1 19.38137,6.77754 14.476805,14.559526 64.438736 0 1 -6.88856,19.34221 z m -110.833925,-5.4944 a 14.476805,14.559526 64.438736 0 1 -19.381357,-6.77756 14.476805,14.559526 64.438736 0 1 6.888549,-19.34223 14.476805,14.559526 64.438736 0 1 19.381377,6.7776 14.476805,14.559526 64.438736 0 1 -6.888569,19.34219 z M 210.74885,137.77517 a 14.476805,14.559526 64.438736 0 1 -19.38138,-6.77757 14.476805,14.559526 64.438736 0 1 6.88855,-19.34217 14.476805,14.559526 64.438736 0 1 19.38139,6.77753 14.476805,14.559526 64.438736 0 1 -6.88856,19.34221 z m -154.475462,4.8176 a 14.476805,14.559526 64.438736 0 1 -19.381373,-6.77756 14.476805,14.559526 64.438736 0 1 6.888589,-19.34219 14.476805,14.559526 64.438736 0 1 19.379724,6.77834 14.476805,14.559526 64.438736 0 1 -6.88694,19.34141 z M 190.89351,77.854491 a 14.476805,14.559526 64.438736 0 1 -19.38136,-6.777555 14.476805,14.559526 64.438736 0 1 6.88856,-19.3422 14.476805,14.559526 64.438736 0 1 19.37974,6.778363 14.476805,14.559526 64.438736 0 1 -6.88694,19.341392 z"/></g></svg>