<svg xmlns="http://www.w3.org/2000/svg" xmlns:svg="http://www.w3.org/2000/svg" id="svg2" version="1.1" viewBox="0 0 256 256"><metadata id="metadata7"/><g id="layer2" style="display:inline"><path style="display:inline;fill:#ff2a2a;fill-rule:evenodd;stroke:#000;stroke-width:2;stroke-linecap:butt;stroke-linejoin:miter;stroke-opacity:1;stroke-miterlimit:4;stroke-dasharray:none" id="path4144-8-3-0" d="M 188.21379,247.4435 C 183.23693,222.74935 174.07911,198.24912 162.26517,174.63396 138.38691,145.46916 110.44566,120.38462 83.762253,100.59164 57.048227,80.775948 31.347003,66.080042 11.967981,57.939762 29.258084,69.858965 52.05642,87.884131 75.332657,110.46411 c 23.31169,22.61437 46.957893,49.6536 65.948683,79.41205 17.66036,16.93998 33.98525,36.21064 46.93245,57.56734 z"/><path style="display:inline;fill:#ff2a2a;fill-rule:evenodd;stroke:#000;stroke-width:2;stroke-linecap:butt;stroke-linejoin:miter;stroke-opacity:1;stroke-miterlimit:4;stroke-dasharray:none" id="path4144-8-3-0-6" d="m 250.16258,192.99562 c -2.7065,-27.77927 -10.64824,-53.93913 -22.2899,-78.47835 C 204.18606,83.939841 175.04398,60.20913 147.5037,42.24824 119.89187,24.240695 93.223236,11.601677 73.916774,3.4918772 91.333032,15.498047 115.33014,31.612287 139.77188,52.649144 c 24.47447,21.065038 48.64594,46.444747 66.78369,76.605246 17.1283,17.287 32.5739,38.29753 43.60701,63.74123 z"/><path style="display:inline;fill:#ff2a2a;fill-rule:evenodd;stroke:#000;stroke-width:2;stroke-linecap:butt;stroke-linejoin:miter;stroke-opacity:1;stroke-miterlimit:4;stroke-dasharray:none" id="path4144-8-3-0-7" d="M 243.73401,248.7099 C 242.49907,223.14694 232.24494,194.45513 216.74611,165.37583 195.27703,140.50468 169.48437,116.64408 143.39902,95.384805 117.52401,74.296965 91.013751,55.485529 67.773582,40.728848 44.50132,25.951788 24.252765,15.073125 11.059632,9.920448 c 11.433383,8.31681 29.388588,22.071383 50.249196,39.57559 20.93022,17.56262 44.587932,38.725632 67.455472,61.979872 23.06059,23.45055 45.00453,48.71283 62.06743,73.84786 22.14054,19.91482 41.4126,41.51232 52.90228,63.38613 z"/></g></svg>