<svg xmlns="http://www.w3.org/2000/svg" xmlns:svg="http://www.w3.org/2000/svg" id="svg2" version="1.1" viewBox="0 0 256 256"><metadata id="metadata7"/><g id="layer2" style="display:inline"><path style="fill:#ff8080;fill-rule:evenodd;stroke:#000;stroke-width:2;stroke-linecap:butt;stroke-linejoin:miter;stroke-miterlimit:4;stroke-dasharray:none;stroke-opacity:1" id="path3357" d="M 192.85714,235.28571 C 94.515424,222.38418 24.748029,117.71457 128.57143,58.857143 L 73.571429,12.428571 C 18.478832,73.325664 18.483215,229.66535 192.85714,235.28571 Z"/><path style="fill:#f55;fill-rule:evenodd;stroke:none;stroke-width:1px;stroke-linecap:butt;stroke-linejoin:miter;stroke-opacity:1;fill-opacity:.70588237" id="path4161" d="m 182.86979,224.27545 c -26.72863,-11.77495 -54.88509,-32.45539 -71.37164,-55.73141 -0.69249,-0.97766 -1.36381,-1.95912 -2.01306,-2.94385 -8.0069,-10.71137 -13.36688,-22.1093 -14.632409,-33.61737 -1.266422,-11.51617 1.54907,-23.3589 10.277529,-34.809452 -9.355212,10.916002 -13.232864,22.767782 -12.74567,34.975072 0.487333,12.21076 5.339119,24.55642 13.0546,36.28653 0.7358,0.99208 1.49234,1.97737 2.26852,2.95549 18.32117,23.08779 47.93093,42.61133 75.16213,52.88499 z"/><path style="display:inline;fill:#f55;fill-rule:evenodd;stroke:none;stroke-width:1px;stroke-linecap:butt;stroke-linejoin:miter;stroke-opacity:1;fill-opacity:.70588237" id="path4161-9" d="m 198.3503,203.82626 c -22.84305,-9.67428 -46.91142,-26.65633 -61.009,-45.76392 -0.59198,-0.80235 -1.16584,-1.60775 -1.72083,-2.41579 -6.52704,-8.38797 -10.98486,-17.28567 -12.30024,-26.28003 -1.4352,-9.81369 0.84369,-19.9679 8.63833,-29.785215 -8.33009,9.335825 -11.57075,19.519495 -10.78428,30.020165 0.71915,9.60181 4.79609,19.27515 11.10539,28.48246 0.62788,0.81328 1.27346,1.62094 1.93576,2.42265 15.62876,18.91853 40.89516,34.91039 64.13487,43.31968 z"/><path style="display:inline;fill:#f55;fill-rule:evenodd;stroke:none;stroke-width:1px;stroke-linecap:butt;stroke-linejoin:miter;stroke-opacity:1;fill-opacity:.70588237" id="path4161-8" d="m 215.98772,185.3953 c -18.61421,-8.07476 -38.22432,-22.2536 -49.70819,-38.21002 -0.4823,-0.67015 -0.94986,-1.34287 -1.40205,-2.01781 -5.57025,-7.33568 -9.29741,-15.14023 -10.17584,-23.02048 -0.87915,-7.88664 1.08169,-16.00299 7.16228,-23.85376 -6.50962,7.47693 -9.20865,15.59808 -8.86691,23.96904 0.34187,8.374 3.72449,16.84088 9.10039,24.88411 0.51211,0.67975 1.03866,1.35482 1.57887,2.02495 12.74981,15.81636 33.35792,29.18898 52.31145,36.22397 z"/><path id="path4201" d="M 174.52572,232.73462 C 78.824679,213.90729 24.740849,115.12109 120.72505,56.775613 L 76.175042,19.16847 C 25.741662,81.37456 31.099726,212.32298 174.52572,232.73462 Z" style="fill:#f55;fill-rule:evenodd;stroke:none;stroke-width:1.62;stroke-linecap:butt;stroke-linejoin:miter;stroke-miterlimit:4;stroke-dasharray:none;stroke-opacity:1"/><path style="fill:#ff2a2a;fill-rule:evenodd;stroke:#000;stroke-width:1.5;stroke-linecap:round;stroke-linejoin:miter;stroke-miterlimit:4;stroke-dasharray:none;stroke-opacity:1" id="path4203" d="M 75.714286,30.821428 79.642857,55.464286 110,58.5"/><path style="display:inline;fill:#ff2a2a;fill-rule:evenodd;stroke:#000;stroke-width:1.31738949;stroke-linecap:round;stroke-linejoin:miter;stroke-miterlimit:4;stroke-dasharray:none;stroke-opacity:1" id="path4203-1" d="m 60.285555,54.914525 5.764223,21.217577 26.693556,-0.252895"/><path style="display:inline;fill:#ff2a2a;fill-rule:evenodd;stroke:#000;stroke-width:.97878009;stroke-linecap:round;stroke-linejoin:miter;stroke-miterlimit:4;stroke-dasharray:none;stroke-opacity:1" id="path4203-1-3" d="M 52.333418,83.251138 60.030763,98.22492 78.134064,92.720506"/><path style="display:inline;fill:#ff2a2a;fill-rule:evenodd;stroke:#000;stroke-width:.71431208;stroke-linecap:round;stroke-linejoin:miter;stroke-miterlimit:4;stroke-dasharray:none;stroke-opacity:1" id="path4203-1-3-6" d="m 50.779638,111.15772 8.10292,9.28571 11.341002,-7.60624"/><path style="display:inline;fill:#ff2a2a;fill-rule:evenodd;stroke:#000;stroke-width:.53051013;stroke-linecap:round;stroke-linejoin:miter;stroke-miterlimit:4;stroke-dasharray:none;stroke-opacity:1" id="path4203-1-3-6-7" d="m 53.490702,138.8903 7.235616,5.55052 7.750388,-6.78087"/><path style="display:inline;fill:#ff2a2a;fill-rule:evenodd;stroke:#000;stroke-width:.44877568;stroke-linecap:round;stroke-linejoin:miter;stroke-miterlimit:4;stroke-dasharray:none;stroke-opacity:1" id="path4203-1-3-6-7-4" d="m 61.862094,161.7065 7.138489,3.03296 5.199353,-7.0218"/><path style="display:inline;fill:#ff2a2a;fill-rule:evenodd;stroke:#000;stroke-width:.32932249;stroke-linecap:round;stroke-linejoin:miter;stroke-miterlimit:4;stroke-dasharray:none;stroke-opacity:1" id="path4203-1-3-6-7-4-0" d="m 73.149233,179.91421 6.632442,0.40962 2.357682,-5.20447"/><path style="display:inline;fill:#ff2a2a;fill-rule:evenodd;stroke:#000;stroke-width:.25318024;stroke-linecap:round;stroke-linejoin:miter;stroke-miterlimit:4;stroke-dasharray:none;stroke-opacity:1" id="path4203-1-3-6-7-4-0-6" d="m 87.003803,194.51687 4.80044,-0.73286 0.762584,-4.48529"/><path style="display:inline;fill:#ff2a2a;fill-rule:evenodd;stroke:#000;stroke-width:.25318024;stroke-linecap:round;stroke-linejoin:miter;stroke-miterlimit:4;stroke-dasharray:none;stroke-opacity:1" id="path4203-1-3-6-7-4-0-6-8" d="m 100.61208,205.39553 4.80044,-0.73286 0.76258,-4.48529"/><path style="display:inline;fill:#ff2a2a;fill-rule:evenodd;stroke:#000;stroke-width:.18711542;stroke-linecap:round;stroke-linejoin:miter;stroke-miterlimit:4;stroke-dasharray:none;stroke-opacity:1" id="path4203-1-3-6-7-4-0-6-2" d="m 116.40585,215.38407 3.34459,-1.30241 -0.17286,-3.35774"/><path style="display:inline;fill:#ff2a2a;fill-rule:evenodd;stroke:#000;stroke-width:.11676775;stroke-linecap:round;stroke-linejoin:miter;stroke-miterlimit:4;stroke-dasharray:none;stroke-opacity:1" id="path4203-1-3-6-7-4-0-6-2-6" d="m 134.71955,223.00864 2.34513,-0.72335 -0.1212,-1.86488"/></g></svg>