<svg xmlns="http://www.w3.org/2000/svg" xmlns:svg="http://www.w3.org/2000/svg" id="svg4311" version="1.1" viewBox="0 0 64 64"><metadata id="metadata4316"/><g id="layer5" style="display:inline"><flowRoot id="flowRoot4142" xml:space="preserve" style="fill:#000;stroke:none;stroke-opacity:1;stroke-width:1px;stroke-linejoin:miter;stroke-linecap:butt;fill-opacity:1;font-family:sans-serif;font-style:normal;font-weight:400;font-size:40px;line-height:125%;letter-spacing:0;word-spacing:0"><flowRegion id="flowRegion4144"><rect id="rect4146" width="41.858" height="40.848" x="15.405" y="13.177"/></flowRegion><flowPara id="flowPara4148"/></flowRoot><path style="fill:#f9f9f9;fill-rule:evenodd;stroke:#000;stroke-width:.99999994px;stroke-linecap:butt;stroke-linejoin:miter;stroke-opacity:1" id="path4142" d="m 34.68588,28.408517 c 3.437988,5.840014 10.681774,3.318372 10.313962,12.153542 -0.342926,8.23738 -12.784513,16.791546 -14.387544,6.313528 -0.948278,-6.198299 0.131199,-16.991498 -4.680287,-14.915711 -4.372035,1.886196 -3.2409,6.081388 -6.933756,6.471367 -2.415614,0.255098 -7.521752,-1.283693 -5.547006,-5.840013 1.281157,-2.956003 11.796689,-3.36 9.273901,-5.287581 -2.04721,-1.960504 -5.061041,-1.57216 -11.700716,-0.631353 -14.1626725,2.006776 -5.475191,-20.6650008 1.733439,-15.94166 4.469396,2.928501 6.582645,8.770924 12.39409,9.943808 5.484657,0.407715 -1.379552,-7.881361 -1.300077,-10.8119191 0.15293,-5.6391435 11.279289,-4.1003817 11.440698,-1.3416242 0.170352,2.9116383 -6.436947,11.5242713 -2.340143,11.7589473 6.731522,0.36829 3.859498,-4.509347 8.753869,-5.050822 3.800284,-0.420434 11.470967,8.375278 5.547004,11.837867 -6.021698,3.519716 -14.846006,-2.463359 -12.567434,1.341624 z"/><path style="fill:#f9f9f9;fill-rule:evenodd;stroke:#000;stroke-width:.99999994px;stroke-linecap:butt;stroke-linejoin:miter;stroke-opacity:1" id="path4146" d="M 23.189543,42.612744 C 21.442689,42.39955 9.8652858,53.014251 9.8398508,58.400323 c -0.01373,2.897049 5.3047352,3.408986 7.0483522,1.986789 5.507578,-4.49231 7.715248,-17.601814 6.30134,-17.774368 z"/><path style="display:inline;fill:#f9f9f9;fill-rule:evenodd;stroke:#000;stroke-width:.99999994px;stroke-linecap:butt;stroke-linejoin:miter;stroke-opacity:1" id="path4146-9" d="M 37.988853,12.582954 C 39.125677,13.329529 48.651273,9.7788869 49.560013,5.9818134 50.048802,3.9394517 46.564954,1.7633558 45.159558,2.1734349 40.720323,3.4687624 37.068701,11.978672 37.988853,12.582954 Z"/><path style="display:inline;fill:#f9f9f9;fill-rule:evenodd;stroke:#000;stroke-width:.99999994px;stroke-linecap:butt;stroke-linejoin:miter;stroke-opacity:1" id="path4146-9-4" d="m 46.380951,31.343044 c -0.2164,1.002835 8.47121,7.157724 13.003274,6.9521 2.4377,-0.110601 2.981116,-3.158209 1.821194,-4.092375 C 57.541554,31.252006 46.556101,30.53134 46.380951,31.343044 Z"/><path style="display:inline;fill:#f9f9f9;fill-rule:evenodd;stroke:#000;stroke-width:.99999988px;stroke-linecap:butt;stroke-linejoin:miter;stroke-opacity:1" id="path4146-0" d="m 6.2250556,44.048256 c 3.6356082,3.085065 8.8347404,-0.7488 4.2205474,-4.706365 -3.3480445,-2.871594 -7.6276138,1.815241 -4.2205474,4.706365 z"/></g></svg>