<svg xmlns="http://www.w3.org/2000/svg" xmlns:svg="http://www.w3.org/2000/svg" id="svg4311" width="100%" height="100%" version="1.1" viewBox="0 0 64 64"><metadata id="metadata4316"/><g id="layer1" transform="translate(0,-988.36216)" style="display:inline"><path style="fill:#ff8080;fill-rule:evenodd;stroke:#000;stroke-width:.86231315px;stroke-linecap:butt;stroke-linejoin:miter;stroke-opacity:1" id="path4291" d="m 43.500651,1010.4081 -8.951639,-4.2103 -0.398157,-3.6286 8.006199,-4.97122 -8.277025,2.27407 -1.739559,-8.96149 -1.141455,8.9616 -8.531633,-1.38538 8.232251,4.05632 -0.121026,3.621 -9.555944,5.7462 -4.323665,-1.7574 -0.0398,-9.2908 -2.914821,8.2578 -8.5111461,-2.466 7.4123291,5.2206 -4.8824964,6.8605 7.5864734,-5.3407 3.88338,2.0444 0.829202,9.4251 -3.96294,2.2834 -8.1654888,-4.4501 6.2162848,5.7224 -8.1100183,6.4964 9.7118873,-4.0732 2.400904,7.5342 0.03004,-8.4501 3.953444,-2.2649 8.078226,4.6667 -0.01171,3.6075 -9.286365,4.5831 9.644571,-1.8751 1.048113,10.7886 1.850374,-10.6776 9.344965,2.5975 -9.03834,-5.1839 0.207469,-3.6097 10.323236,-5.6439 3.025999,1.6379 -0.0029,9.6596 2.781253,-8.6619 9.276948,3.1673 -8.111155,-5.4272 5.308001,-6.4606 -7.628556,4.4275 -3.124749,-1.6643 -0.316608,-10.2781 3.20971,-2.0505 8.079108,3.9397 -5.876969,-5.6057 7.300375,-6.3727 -8.626997,4.2804 -3.684258,-7.77551 0.744213,8.89931 z m -5.012849,16.933 c -4.898584,2.9697 -11.396912,1.766 -14.515171,-2.6886 -3.117628,-4.4551 -1.674248,-10.4743 3.223801,-13.4448 4.8987,-2.9697 11.396972,-1.7661 14.515224,2.6886 3.117612,4.4551 1.674247,10.4742 -3.223854,13.4448 z"/><path style="fill:#ff8080;fill-rule:evenodd;stroke:#000;stroke-width:.89293784px;stroke-linecap:butt;stroke-linejoin:miter;stroke-opacity:1" id="path4300" d="m 28.114192,1025.7268 11.980685,-8.9373 -14.937967,0.2695 12.487672,8.751 -4.993335,-14.4238 z"/><path style="display:inline;fill:#fc0;fill-rule:evenodd;stroke:#000;stroke-width:1;stroke-linecap:butt;stroke-linejoin:miter;stroke-miterlimit:4;stroke-dasharray:none;stroke-opacity:1" id="path4207" d="m 50.815956,989.96499 -0.0218,6.8179 -6.189042,0.066 -0.04359,5.38271 6.080082,-0.1089 -0.0436,6.7805 6.05828,-0.021 0.0218,-6.8023 5.79678,0 -0.0436,-5.27371 -5.92753,0.022 0.13075,-6.9052 z"/></g></svg>