<svg xmlns="http://www.w3.org/2000/svg" xmlns:svg="http://www.w3.org/2000/svg" id="svg4311" width="100%" height="100%" version="1.1" viewBox="0 0 64 64"><metadata id="metadata4316"/><g id="layer1" transform="translate(0,-988.36216)" style="display:inline"><path style="fill:#ff8080;fill-rule:evenodd;stroke:#000;stroke-width:1px;stroke-linecap:butt;stroke-linejoin:miter;stroke-opacity:1" id="path4291" d="m 31.475605,994.16612 c 0,0 -0.560393,5.45632 -2.384766,9.52538 -1.154989,2.576 -2.728565,3.635 -3.357421,5.7363 -0.793778,2.6523 -0.63086,9.0821 -0.63086,9.0821 0,0 -2.29646,-3.3768 -2.857422,-5.459 -0.615033,-2.2829 -0.501953,-7.4453 -0.501953,-7.4453 0,0 -2.614334,3.1194 -3.490234,7.7129 -0.507134,2.6596 0.960589,6.3125 0.544922,9.2441 -0.624177,4.4022 -0.999011,7.6393 -0.855469,10.9727 0.313123,7.2715 4.305043,13.708 14.054687,13.789 8.672238,0.072 13.605448,-5.9124 13.523438,-12.375 -0.05647,-4.4496 -0.728256,-9.0961 -1.267578,-14.6719 -0.344645,-3.5631 2.199857,-8.5326 1.82422,-11.289 -0.457038,-3.3538 -1.228516,-6.3731 -1.228516,-6.3731 0,0 -2.06883,4.8618 -3.009766,5.9805 -0.88489,1.0521 -4.867187,4.9961 -4.867187,4.9961 0,0 -1.229858,-11.2477 -2.451172,-13.73242 -1.014897,-2.06476 -3.044922,-5.69336 -3.044923,-5.69336 z m 0.576172,28.19138 c 6.587299,5e-4 11.927249,5.1446 11.927734,11.4903 -4.85e-4,6.3457 -5.340435,11.4897 -11.927734,11.4902 -6.587299,-5e-4 -11.927249,-5.1445 -11.927734,-11.4902 4.85e-4,-6.3457 5.340435,-11.4898 11.927734,-11.4903 z"/><path style="fill:#ff8080;fill-rule:evenodd;stroke:#000;stroke-width:1px;stroke-linecap:butt;stroke-linejoin:miter;stroke-opacity:1" id="path4300" d="m 26.917894,1040.9568 13.279793,-10.1124 -16.557744,0.305 13.841754,9.9016 -5.534774,-16.3203 z"/><path style="fill:#ff8080;fill-rule:evenodd;stroke:#000;stroke-width:1px;stroke-linecap:butt;stroke-linejoin:miter;stroke-opacity:1" id="path4302" d="m 24.978554,1003.3345 c 3.25349,0 0.145833,-4.8334 0.75,-11.81257 -2.562876,2.17119 -3.258798,11.81557 -0.75,11.81257 z"/></g></svg>