<svg xmlns="http://www.w3.org/2000/svg" xmlns:svg="http://www.w3.org/2000/svg" id="svg4311" width="100%" height="100%" version="1.1" viewBox="0 0 64 64"><metadata id="metadata4316"/><g id="layer1" transform="translate(0,-988.36216)" style="display:inline"><path style="display:inline;fill:#c6e9af;fill-rule:evenodd;stroke:#000;stroke-width:1px;stroke-linecap:butt;stroke-linejoin:miter;stroke-opacity:1" id="path4160-34" d="m 29.318557,993.57857 c 7.281979,-2.30309 24.04382,9.26193 25.860493,19.25973 -5.808041,-2.9673 -9.672514,-2.7665 -18.551256,1.7108 z"/><ellipse style="display:inline;opacity:1;fill:#71c837;fill-opacity:1;stroke:#000;stroke-width:1;stroke-linecap:round;stroke-linejoin:round;stroke-miterlimit:4;stroke-dasharray:none;stroke-dashoffset:0;stroke-opacity:1" id="path4135-9" cx="910.166" cy="-426.802" rx="11.688" ry="11.25" transform="matrix(-0.39657806,0.918001,-0.918001,-0.39657806,0,0)"/><path style="display:inline;fill:#d5f6ff;fill-rule:evenodd;stroke:#000;stroke-width:1px;stroke-linecap:butt;stroke-linejoin:miter;stroke-opacity:1" id="path4160-3" d="m 60.2146,1033.9589 c -1.833485,7.4141 -20.443684,15.6823 -29.921169,12.0172 5.561288,-3.4074 7.405683,-6.8093 8.217386,-16.7196 z"/><ellipse style="display:inline;opacity:1;fill:#5df;fill-opacity:1;stroke:#000;stroke-width:1;stroke-linecap:round;stroke-linejoin:round;stroke-miterlimit:4;stroke-dasharray:none;stroke-dashoffset:0;stroke-opacity:1" id="path4135-2" cx="-869.969" cy="-552.575" rx="11.688" ry="11.25" transform="matrix(-0.5763535,-0.81720049,0.81720049,-0.5763535,0,0)"/><path style="fill:#ffe6d5;fill-rule:evenodd;stroke:#000;stroke-width:1px;stroke-linecap:butt;stroke-linejoin:miter;stroke-opacity:1" id="path4160" d="m 8.8989148,1039.353 c -5.5345046,-5.2632 -3.5065812,-25.5263 4.3694062,-31.9469 0.207871,6.5188 2.250703,9.8053 10.459937,15.4164 z"/><ellipse style="opacity:1;fill:#e96a30;fill-opacity:1;stroke:#000;stroke-width:1;stroke-linecap:round;stroke-linejoin:round;stroke-miterlimit:4;stroke-dasharray:none;stroke-dashoffset:0;stroke-opacity:1" id="path4135" cx="-81.513" cy="1029.525" rx="11.688" ry="11.25" transform="matrix(0.99535532,-0.09626936,0.09626936,0.99535532,0,0)"/><path style="display:inline;fill:#c0f;fill-rule:evenodd;stroke:#000;stroke-width:1px;stroke-linecap:butt;stroke-linejoin:miter;stroke-opacity:1" id="path4300" d="m 12.588652,1039.9 13.279793,-10.1124 -16.5577441,0.305 13.8417541,9.9016 -5.534774,-16.3203 z"/><path style="display:inline;fill:#c0f;fill-rule:evenodd;stroke:#000;stroke-width:1px;stroke-linecap:butt;stroke-linejoin:miter;stroke-opacity:1" id="path4300-4" d="m 44.762012,1036.5413 13.279793,-10.1125 -16.557744,0.305 13.841754,9.9017 -5.534774,-16.3204 z"/><path style="display:inline;fill:#c0f;fill-rule:evenodd;stroke:#000;stroke-width:1px;stroke-linecap:butt;stroke-linejoin:miter;stroke-opacity:1" id="path4300-1" d="m 25.670128,1011.9693 13.279793,-10.1124 -16.557744,0.305 13.841754,9.9016 -5.534774,-16.3203 z"/></g></svg>