<svg xmlns="http://www.w3.org/2000/svg" xmlns:svg="http://www.w3.org/2000/svg" id="svg4311" width="100%" height="100%" version="1.1" viewBox="0 0 64 64"><metadata id="metadata4316"/><g id="layer5" style="display:inline"><path style="display:inline;fill:#f06;fill-opacity:1;fill-rule:evenodd;stroke:#000;stroke-width:.5;stroke-linecap:butt;stroke-linejoin:miter;stroke-miterlimit:4;stroke-dasharray:none;stroke-opacity:1" id="path4297-8" d="m 3.8833584,53.193462 c -3.68608398,-5.329911 4.239233,-7.913596 7.2285976,-3.744458 -0.914956,-4.900375 6.471356,-7.335442 7.937738,-1.014213 1.1249,4.849189 -4.33629,6.493017 -3.19366,13.871455 C 11.747481,55.923232 6.7549099,57.345584 3.8833584,53.193462 Z"/><path style="display:inline;fill:#fff;fill-opacity:.78504675;fill-rule:evenodd;stroke:none;stroke-width:1px;stroke-linecap:butt;stroke-linejoin:miter;stroke-opacity:1" id="path4299-5" d="m 17.73343,49.953457 c -0.363575,-3.244559 -2.285025,-3.999217 -5.232929,-2.939959 2.552179,-2.245351 6.206933,-1.416423 5.232929,2.939959 z"/><path style="display:inline;fill:#f06;fill-opacity:1;fill-rule:evenodd;stroke:#000;stroke-width:.5;stroke-linecap:butt;stroke-linejoin:miter;stroke-miterlimit:4;stroke-dasharray:none;stroke-opacity:1" id="path4297-8-6" d="m 43.420922,43.259828 c 2.25981,-8.13759 11.755134,-2.321799 10.079198,4.150129 4.217471,-4.995399 13.094721,0.402319 7.901874,7.133683 -3.983574,5.163815 -10.387065,1.042692 -16.940518,8.328028 2.970828,-9.43808 -2.80099,-13.272464 -1.040554,-19.61184 z"/><path style="display:inline;fill:#fff;fill-opacity:.78504675;fill-rule:evenodd;stroke:none;stroke-width:.5;stroke-linecap:butt;stroke-linejoin:miter;stroke-miterlimit:4;stroke-dasharray:none;stroke-opacity:1" id="path4299-5-5" d="m 58.711313,54.483975 c 3.001902,-3.064047 2.111427,-5.62275 -1.520868,-7.704293 4.502378,0.697315 6.816038,5.059724 1.520868,7.704293 z"/><path style="display:inline;fill:#f06;fill-opacity:1;fill-rule:evenodd;stroke:#000;stroke-width:.5;stroke-linecap:butt;stroke-linejoin:miter;stroke-miterlimit:4;stroke-dasharray:none;stroke-opacity:1" id="path4297-8-6-4" d="M 48.727152,9.5808828 C 45.475386,5.8983477 51.306827,3.0992432 53.931299,5.9687069 52.828634,2.3246439 58.261243,-0.30477624 59.901865,4.3660029 61.160432,7.9490848 57.130813,9.7736983 58.611833,15.285058 54.950845,10.842984 51.260359,12.449661 48.727152,9.5808828 Z"/><path style="display:inline;fill:#fff;fill-opacity:.78504675;fill-rule:evenodd;stroke:none;stroke-width:1px;stroke-linecap:butt;stroke-linejoin:miter;stroke-opacity:1" id="path4299-5-5-4" d="M 59.023364,5.6623538 C 58.478036,3.2243146 56.95015,2.8490256 54.789196,3.9651454 56.550342,1.9852049 59.406402,2.2362103 59.023364,5.6623538 Z"/><path style="display:inline;fill:#f06;fill-opacity:1;fill-rule:evenodd;stroke:#000;stroke-width:.5;stroke-linecap:butt;stroke-linejoin:miter;stroke-miterlimit:4;stroke-dasharray:none;stroke-opacity:1" id="path4297-8-4" d="M 5.2208453,7.2371114 C 5.4431601,0.76055769 13.344667,3.4161669 13.255874,8.5455068 15.445645,4.0671453 22.825937,6.5203975 20.230863,12.467986 18.240109,17.030543 12.876799,15.091042 9.391099,21.693832 9.9027685,14.12011 5.0476636,12.282499 5.2208453,7.2371114 Z"/><path style="display:inline;fill:#fff;fill-opacity:.78504675;fill-rule:evenodd;stroke:none;stroke-width:1px;stroke-linecap:butt;stroke-linejoin:miter;stroke-opacity:1" id="path4299-5-1" d="m 18.268427,12.901275 c 1.644232,-2.820612 0.552616,-4.5727123 -2.445044,-5.4816672 3.38783,-0.2789769 5.826058,2.5669659 2.445044,5.4816672 z"/><g style="display:inline" id="g4143" transform="translate(-16.081334,10.466286)"><path id="path4200-0" d="M 48.939358,1.2087415 A 13.8004,13.828189 0 0 0 35.137453,15.037086 13.8004,13.828189 0 0 0 48.939358,28.865431 13.8004,13.828189 0 0 0 62.7395,15.037086 13.8004,13.828189 0 0 0 48.939358,1.2087415 Z m 0,3.6628809 A 10.144562,10.164989 0 0 1 59.08367,15.037086 10.144562,10.164989 0 0 1 48.939358,25.200788 10.144562,10.164989 0 0 1 38.793284,15.037086 10.144562,10.164989 0 0 1 48.939358,4.8716224 Z" style="fill:#ff8080;fill-opacity:1;stroke:#000;stroke-width:.5;stroke-linecap:butt;stroke-linejoin:round;stroke-miterlimit:4;stroke-dasharray:none;stroke-dashoffset:0;stroke-opacity:1"/><path id="path4207-5" d="m 46.935041,28.477142 0.01007,3.605971 -4.98591,0.02014 0,3.424665 4.895256,0 0.02259,5.33077 4.049163,0 -0.04273,-5.29048 4.975837,-0.04029 -0.01007,-3.464955 -4.965764,0 0.01259,-3.580792" style="fill:#ff8080;fill-rule:evenodd;stroke:#000;stroke-width:.5;stroke-linecap:butt;stroke-linejoin:miter;stroke-miterlimit:4;stroke-dasharray:none;stroke-opacity:1"/></g></g></svg>