<svg xmlns="http://www.w3.org/2000/svg" xmlns:svg="http://www.w3.org/2000/svg" id="svg4311" width="100%" height="100%" version="1.1" viewBox="0 0 64 64"><metadata id="metadata4316"/><g id="layer5" style="display:inline"><ellipse style="opacity:1;fill:#ececec;fill-opacity:1;stroke:#ececec;stroke-width:1;stroke-linecap:round;stroke-linejoin:round;stroke-miterlimit:4;stroke-dasharray:none;stroke-dashoffset:0;stroke-opacity:1" id="path4144" cx="32.783" cy="38.067" rx="4.214" ry="4.056"/><path style="fill:#6f7c91;fill-rule:evenodd;stroke:#000;stroke-width:.4864558;stroke-linecap:butt;stroke-linejoin:miter;stroke-miterlimit:4;stroke-dasharray:none;stroke-opacity:1" id="path4165" d="M 48.027344,19.966797 C 44.012453,20.007147 39.500485,21.682381 36.783203,25.625 35.298247,24.160024 30.950747,23.274161 28.357422,25.753906 27.554313,22.791136 17.556232,16.551582 10.072266,22.453125 6.0037736,28.878688 2.2285431,35.457642 2.5136719,39.914062 3.5209813,55.657804 26.487603,56.042012 28.357422,41 c 2.708679,3.725307 6.468279,3.4072 8.6875,0.173828 C 43.274266,58.47118 62.49099,51.370582 62.712891,40.261719 62.835177,34.139844 59.542217,29.444543 55.416016,22.541016 53.97159,20.893027 51.150037,19.935414 48.027344,19.966797 Z M 30.097968,37.049628 c -0.0045,0.900292 0.140081,2.064977 0.778874,2.768282 l 1.941917,-1.901844 1.966709,1.77422 c 0.50484,-0.57594 0.61987,-1.54277 0.488178,-2.581349 l 1.440525,0.04034 c 0.147111,1.884831 -0.09305,3.439714 -1.937944,4.907917 l -1.928888,-2.044417 -1.821112,2.15742 C 29.308199,41.025123 28.51117,39.406287 28.568162,37.19766 Z"/><path style="fill:#6f7c91;fill-rule:evenodd;stroke:#000;stroke-width:.4864558px;stroke-linecap:butt;stroke-linejoin:miter;stroke-opacity:1" id="path4169" d="m 12.329793,19.521948 c 3.564522,-2.435129 13.210497,-0.564047 14.55024,2.62773 0.06233,-2.579504 0.108586,-4.799407 0.108586,-4.799407 -1.901507,-3.108349 -6.564064,-5.004764 -11.466459,-1.997944 z"/><path style="fill:#6f7c91;fill-rule:evenodd;stroke:#000;stroke-width:.4864558px;stroke-linecap:butt;stroke-linejoin:miter;stroke-opacity:1" id="path4171" d="m 38.085892,21.975944 0.184275,-4.560523 c 4.157377,-5.420699 9.872285,-3.952108 11.97712,-1.650475 l 2.128245,3.30095 c -7.02003,-2.358788 -11.979286,0.663096 -14.28964,2.910048 z"/><ellipse style="fill:#dfeef2;fill-opacity:1;stroke:#000;stroke-width:.4864558;stroke-linecap:butt;stroke-linejoin:round;stroke-miterlimit:4;stroke-dasharray:none;stroke-dashoffset:0;stroke-opacity:1" id="path4148" cx="15.479" cy="39.284" rx="9.577" ry="9.36"/><ellipse style="display:inline;fill:#dfeef2;fill-opacity:1;stroke:#000;stroke-width:.4864558;stroke-linecap:butt;stroke-linejoin:round;stroke-miterlimit:4;stroke-dasharray:none;stroke-dashoffset:0;stroke-opacity:1" id="path4148-0" cx="49.987" cy="39.176" rx="9.577" ry="9.36"/><path style="fill:none;fill-rule:evenodd;stroke:#fff;stroke-width:1.94582319;stroke-linecap:round;stroke-linejoin:miter;stroke-miterlimit:4;stroke-dasharray:none;stroke-opacity:1" id="path4173" d="m 9.8975146,39.957435 c 0.4336364,3.146547 2.0453094,5.161078 5.4291944,5.472628"/><path style="fill:none;fill-rule:evenodd;stroke:#fff;stroke-width:1.94582319;stroke-linecap:round;stroke-linejoin:miter;stroke-miterlimit:4;stroke-dasharray:none;stroke-opacity:1" id="path4175" d="m 44.340323,40.044302 c -0.366199,2.852511 2.919805,5.580093 5.342325,5.255461"/></g></svg>