<svg xmlns="http://www.w3.org/2000/svg" xmlns:svg="http://www.w3.org/2000/svg" id="svg4311" width="100%" height="100%" version="1.1" viewBox="0 0 64 64"><metadata id="metadata4316"/><g id="layer5" style="display:inline"><path style="fill:#483737;fill-rule:evenodd;stroke:#000;stroke-width:1px;stroke-linecap:butt;stroke-linejoin:miter;stroke-opacity:1" id="path4145" d="m 40.685494,52.283721 c 0,0 14.845189,-13.864109 13.468556,-24.107933 -1.020519,-7.593908 -7.488496,-12.082255 -15.080198,-11.04545 -7.734905,1.056363 -14.127158,9.504708 -19.04997,7.614722 -5.342302,-2.05104 0.51267,-21.5903451 0.51267,-21.5903451 0,0 -6.755897,20.2932211 -1.616468,23.4155211 4.622474,2.808239 13.327794,-7.068814 20.495183,-7.54317 6.295819,-0.416673 11.974204,2.129993 12.749886,9.825264 0.997286,9.893725 -12.987334,22.925436 -12.987334,22.925436 z"/><path style="fill:#6c5353;fill-rule:evenodd;stroke:#000;stroke-width:1px;stroke-linecap:butt;stroke-linejoin:miter;stroke-opacity:1" id="path4143" d="m 30.287768,57.786777 c -1.646149,1.247405 2.484071,3.865794 3.846829,3.236194 l 9.425557,-9.778343 -3.397637,-2.464559 z"/><path style="fill:none;fill-rule:evenodd;stroke:#000;stroke-width:1.06679416px;stroke-linecap:butt;stroke-linejoin:miter;stroke-opacity:1" id="path4147" d="m 39.222696,49.880885 c 0.161905,0.28016 2.914484,2.689533 2.914484,2.689533"/></g></svg>