<svg xmlns="http://www.w3.org/2000/svg" xmlns:svg="http://www.w3.org/2000/svg" id="svg4311" width="100%" height="100%" version="1.1" viewBox="0 0 64 64"><metadata id="metadata4316"/><g id="layer5" style="display:inline"><path style="fill:#ff1a4e;fill-rule:evenodd;stroke:#000;stroke-width:1px;stroke-linecap:butt;stroke-linejoin:miter;stroke-opacity:1;fill-opacity:1" id="path4202" d="M 4.9107143,30.964287 56.785714,9.8035724 51.247372,13.82143 c 0,0 3.484891,6.686208 -0.800943,6.964285 -5.075765,0.329329 -1.905639,-5.871193 -1.905639,-5.871193 l -9.076504,3.728336 c 0,0 4.67492,10.599329 -0.635833,10.946248 -6.174823,0.403363 -2.84631,-9.339105 -2.84631,-9.339105 l -7.053572,3.125 c 0,0 2.697622,5.964843 -1.31948,6.266408 -3.979524,0.298743 -2.073377,-4.659265 -2.073377,-4.659265 l -7.946428,3.214286 c 0,0 2.634645,8.30858 -1.31948,8.389459 -4.501378,0.09207 -1.598939,-7.450645 -1.598939,-7.450645 z"/><path style="fill:#ff1a4e;fill-rule:evenodd;stroke:#000;stroke-width:1px;stroke-linecap:butt;stroke-linejoin:miter;stroke-opacity:1;fill-opacity:1" id="path4204" d="m 10.625,57.035716 c 0.162184,2.661721 15.118923,1.572494 20.714286,1.160714 4.22794,-0.311148 12.504173,-3.445813 8.303571,-4.017857 C 34.236806,53.44237 34.142438,55.444886 27.678571,56.053572 22.728007,56.519754 10.469847,54.489369 10.625,57.035716 Z"/><path style="fill:#ff1a4e;fill-rule:evenodd;stroke:#000;stroke-width:1px;stroke-linecap:butt;stroke-linejoin:miter;stroke-opacity:1;fill-opacity:1" id="path4206" d="m 46.160714,53.642858 c 5.065423,-0.793373 9.051169,-1.99 11.964286,-0.714285 2.057,0.900803 -1.421765,2.416649 -3.660714,2.589286 -2.375575,0.183171 -10.6575,-1.506316 -8.303572,-1.875001 z"/><path style="fill:#ff1a4e;fill-rule:evenodd;stroke:#000;stroke-width:.90760225px;stroke-linecap:butt;stroke-linejoin:miter;stroke-opacity:1;fill-opacity:1" id="path4208" d="m 51.748234,33.417979 c -0.39886,2.991789 -4.340521,8.916129 0.09973,8.734209 3.89527,-0.159592 0.188798,-5.7889 -0.09973,-8.734209 z"/><path style="fill:#fff;fill-opacity:1;fill-rule:evenodd;stroke:none;stroke-width:1px;stroke-linecap:butt;stroke-linejoin:miter;stroke-opacity:1" id="path4234" d="m 17.420735,31.498356 c 0.335891,1.220096 0.479596,2.120003 -0.05361,3.5 -0.377544,-1.233674 -0.261578,-2.351929 0.05361,-3.5 z"/><path style="display:inline;fill:#fff;fill-opacity:1;fill-rule:evenodd;stroke:none;stroke-width:1px;stroke-linecap:butt;stroke-linejoin:miter;stroke-opacity:1" id="path4234-2" d="m 28.81562,25.663538 c 0.371811,0.92298 0.530884,1.603742 -0.05934,2.647684 -0.417918,-0.933251 -0.289551,-1.77919 0.05934,-2.647684 z"/><path style="display:inline;fill:#fff;fill-opacity:1;fill-rule:evenodd;stroke:none;stroke-width:1px;stroke-linecap:butt;stroke-linejoin:miter;stroke-opacity:1" id="path4234-0" d="m 40.147245,23.516964 c 0.443651,1.627256 0.633459,2.827472 -0.07081,4.667989 -0.498667,-1.645365 -0.345497,-3.136794 0.07081,-4.667989 z"/><path style="display:inline;fill:#fff;fill-opacity:1;fill-rule:evenodd;stroke:none;stroke-width:1px;stroke-linecap:butt;stroke-linejoin:miter;stroke-opacity:1" id="path4234-7" d="m 51.497468,16.761569 c 0.317932,0.955993 0.453953,1.661105 -0.05074,2.742386 -0.357357,-0.966631 -0.247592,-1.842827 0.05074,-2.742386 z"/><path style="display:inline;fill:#fff;fill-opacity:1;fill-rule:evenodd;stroke:none;stroke-width:1px;stroke-linecap:butt;stroke-linejoin:miter;stroke-opacity:1" id="path4234-03" d="m 52.601812,38.763955 c 0.35385,0.856953 0.505239,1.489017 -0.05648,2.45828 -0.397731,-0.86649 -0.275564,-1.651914 0.05648,-2.45828 z"/><path style="display:inline;fill:#fff;fill-opacity:1;fill-rule:evenodd;stroke:none;stroke-width:1px;stroke-linecap:butt;stroke-linejoin:miter;stroke-opacity:1" id="path4234-6" d="m 39.738408,54.809357 c -1.76225,0.455878 -3.084221,0.69894 -5.272159,0.396752 1.773776,-0.494909 3.479316,-0.53315 5.272159,-0.396752 z"/><path style="display:inline;fill:#fff;fill-opacity:1;fill-rule:evenodd;stroke:none;stroke-width:1px;stroke-linecap:butt;stroke-linejoin:miter;stroke-opacity:1" id="path4234-6-6" d="m 57.417222,53.319586 c -1.22435,0.253359 -2.131498,0.355656 -3.552318,-0.100035 1.23648,-0.286998 2.375349,-0.174693 3.552318,0.100035 z"/></g></svg>