<svg xmlns="http://www.w3.org/2000/svg" xmlns:svg="http://www.w3.org/2000/svg" id="svg4311" width="100%" height="100%" version="1.1" viewBox="0 0 64 64"><metadata id="metadata4316"/><g id="layer5" style="display:inline"><g id="g4169" transform="matrix(0.93957837,0.25231277,-0.26449987,0.98496148,11.853014,-5.0973052)"><path id="path4159" d="m 23.233509,20.752845 c 3.213017,-0.05253 6.936329,0.511732 8.7757,1.894036 -0.742451,4.300751 -10.524187,5.639384 -8.7757,-1.894036 z" style="fill:#666;fill-rule:evenodd;stroke:#000;stroke-width:1px;stroke-linecap:butt;stroke-linejoin:miter;stroke-opacity:1"/><path id="path4161" d="m 35.22907,23.025688 c 0.674156,-1.086321 10.030202,-0.552965 9.722719,0.378808 -0.02909,4.442098 -9.454114,6.927595 -9.722719,-0.378808 z" style="fill:#666;fill-rule:evenodd;stroke:#000;stroke-width:1px;stroke-linecap:butt;stroke-linejoin:miter;stroke-opacity:1"/><path id="path4163" d="m 32.261747,23.025688 2.841054,0.378808" style="fill:none;fill-rule:evenodd;stroke:#000;stroke-width:1px;stroke-linecap:butt;stroke-linejoin:miter;stroke-opacity:1"/><path id="path4165" d="m 23.170374,20.879114 c -4.66146,-3.167222 0.878745,-2.97527 1.641498,-4.482552 0.829804,-1.639783 -3.900621,-2.564597 -3.156727,-4.166879" style="fill:none;fill-rule:evenodd;stroke:#000;stroke-width:1px;stroke-linecap:butt;stroke-linejoin:miter;stroke-opacity:1"/><path id="path4167" d="m 45.014923,23.530765 c 1.590508,-2.541018 -2.257367,-3.091108 -1.578364,-4.86136 0.741596,-1.578363 2.917493,-1.136422 3.030458,-3.914341" style="fill:none;fill-rule:evenodd;stroke:#000;stroke-width:1px;stroke-linecap:butt;stroke-linejoin:miter;stroke-opacity:1"/></g><path style="fill:#666;fill-rule:evenodd;stroke:#000;stroke-width:.98126429px;stroke-linecap:butt;stroke-linejoin:miter;stroke-opacity:1" id="path4176" d="m 11.894645,32.716563 -0.670693,9.45441 c 0,0 8.44214,-1.167704 8.339095,-1.603529 -0.103046,-0.435826 -0.320109,-5.078438 -0.320109,-5.078438 l 2.903599,5.203905 5.61134,-2.339152 -4.895575,-8.414445 z"/><path style="fill:#666;fill-rule:evenodd;stroke:#000;stroke-width:1.01594174px;stroke-linecap:butt;stroke-linejoin:miter;stroke-opacity:1" id="path4157" d="m 25.808262,47.567353 c 6.97529,-0.242573 12.886288,-2.296554 18.440142,-4.958387 -2.474583,3.19494 -4.807871,6.451386 -6.072049,10.173219 -1.104672,0.8161 -2.145893,1.752992 -4.035887,1.074063 -1.925994,-2.616055 -4.742929,-4.68822 -8.332206,-6.288895 z"/><path id="path4206" d="M 7.4331089,19.150583 49.342673,54.056065 55.638649,46.549864 13.190721,12.256124 Z" style="fill:#000;fill-opacity:1;fill-rule:evenodd;stroke:none;stroke-width:1px;stroke-linecap:butt;stroke-linejoin:miter;stroke-opacity:1"/><ellipse id="ellipse4180" cx="31.946" cy="31.928" rx="27.6" ry="27.722" style="fill:none;fill-opacity:1;stroke:#000;stroke-width:6.7920928;stroke-linecap:round;stroke-linejoin:round;stroke-miterlimit:4;stroke-dasharray:none;stroke-dashoffset:0;stroke-opacity:1"/><ellipse style="fill:none;fill-opacity:1;stroke:#f06;stroke-width:4.54030275;stroke-linecap:round;stroke-linejoin:round;stroke-miterlimit:4;stroke-dasharray:none;stroke-dashoffset:0;stroke-opacity:1" id="path4155" cx="31.946" cy="31.928" rx="27.6" ry="27.722"/><path style="fill:#f06;fill-opacity:1;fill-rule:evenodd;stroke:none;stroke-width:1px;stroke-linecap:butt;stroke-linejoin:miter;stroke-opacity:1" id="path4178" d="M 7.8795375,18.257726 50.503387,53.431065 54.835078,47.799864 12.297864,13.059695 Z"/></g></svg>