<svg xmlns="http://www.w3.org/2000/svg" xmlns:svg="http://www.w3.org/2000/svg" id="svg4311" width="100%" height="100%" version="1.1" viewBox="0 0 64 64"><metadata id="metadata4316"/><g id="layer1" transform="translate(0,-988.36216)" style="display:inline"><path style="fill:#ff8080;fill-opacity:.25098039;fill-rule:evenodd;stroke:#000;stroke-width:1.40509307;stroke-linecap:butt;stroke-linejoin:miter;stroke-miterlimit:4;stroke-dasharray:none;stroke-opacity:.25098039" id="path4277" d="M 30.841084,1048.15 C 17.624187,1033.3909 7.4618049,1022.5751 5.5612573,1014.5415 2.0741235,999.8017 24.677706,991.20663 30.972808,999.83584 c 5.871318,-9.43587 28.877357,-0.0648 25.547172,14.19056 -1.841364,7.8827 -12.248844,19.5798 -25.678896,34.1236 z"/><path id="path4275" d="m 30.983507,1041.0337 c -9.666602,-10.4102 -17.899325,-19.1876 -19.388972,-25.3325 -2.7332115,-11.2743 14.092282,-19.26828 19.580605,-9.0169 5.086884,-10.12469 21.523077,-3.3592 18.912883,7.5447 -1.443259,6.0295 -8.578056,15.6802 -19.104516,26.8047 z" style="fill:#ff8080;fill-opacity:.50196078;fill-rule:evenodd;stroke:#000;stroke-width:1.08794832;stroke-linecap:butt;stroke-linejoin:miter;stroke-miterlimit:4;stroke-dasharray:none;stroke-opacity:.50196078"/><path style="fill:#ff8080;fill-rule:evenodd;stroke:#000;stroke-width:1.10249996px;stroke-linecap:butt;stroke-linejoin:miter;stroke-opacity:1" id="path4232" d="m 30.687731,1035.1875 c -6.844687,-7.6256 -13.237352,-15.1558 -14.292136,-19.6568 -1.935321,-8.2586 10.479092,-12.9111 14.503752,-3.3243 3.740408,-9.0785 16.228006,-5.2882 14.379791,2.6991 -1.021938,4.4165 -7.137872,12.1333 -14.591407,20.282 z"/></g></svg>