<svg xmlns="http://www.w3.org/2000/svg" xmlns:svg="http://www.w3.org/2000/svg" xmlns:xlink="http://www.w3.org/1999/xlink" id="svg2" version="1.1" viewBox="0 0 256 256"><defs id="defs4"><linearGradient id="arcaneCloud2"><stop style="stop-color:#93a7ac;stop-opacity:1" id="stop4167" offset="0"/><stop style="stop-color:#d058e7;stop-opacity:.98039216" id="stop4169" offset="1"/></linearGradient><linearGradient id="arcaneCloud1"><stop style="stop-color:#f38cec;stop-opacity:1" id="stop4155" offset="0"/><stop style="stop-color:#b7c4c8;stop-opacity:1" id="stop4157" offset="1"/></linearGradient><linearGradient id="linearGradient4159" x1="121.071" x2="121.786" y1="164.929" y2="104.571" gradientTransform="translate(2.1428572,2.1428572)" gradientUnits="userSpaceOnUse" xlink:href="#arcaneCloud1"/><linearGradient id="linearGradient4171" x1="178.214" x2="182.143" y1="74.214" y2="122.071" gradientTransform="translate(2.1428572,2.1428572)" gradientUnits="userSpaceOnUse" xlink:href="#arcaneCloud2"/></defs><metadata id="metadata7"/><g id="layer2" style="display:inline"><path style="display:inline;fill:url(#linearGradient4171);fill-opacity:1;fill-rule:evenodd;stroke:none;stroke-width:3.64645147;stroke-linecap:round;stroke-linejoin:round;stroke-miterlimit:4;stroke-dasharray:none;stroke-opacity:1" id="path4166-0" d="m 181.20449,136.67287 c 44.74044,28.58696 78.29658,-43.595711 19.05251,-48.975999 -10.00812,-27.575815 -48.0136,-41.1137 -86.07656,-13.060257 -79.594458,-4.679018 -50.84545,96.851316 15.65028,63.817216 16.65985,8.32664 33.80678,7.30389 51.37377,-1.78096 z"/><path style="fill:url(#linearGradient4159);fill-opacity:1;fill-rule:evenodd;stroke:none;stroke-width:4.29362679;stroke-linecap:round;stroke-linejoin:round;stroke-miterlimit:4;stroke-dasharray:none;stroke-opacity:1" id="path4166" d="M 81.312893,167.84777 C 27.743585,200.95022 -12.434352,117.36587 58.500641,111.13573 70.483732,79.204168 115.98901,63.527896 161.56314,96.012539 c 95.30124,-5.4181 60.87904,112.149531 -18.73864,73.897471 -19.94741,9.6419 -40.47804,8.45763 -61.511607,-2.06224 z"/></g></svg>