<svg xmlns="http://www.w3.org/2000/svg" xmlns:svg="http://www.w3.org/2000/svg" id="svg2" version="1.1" viewBox="0 0 256 256"><metadata id="metadata7"/><g id="layer2" style="display:inline"><ellipse style="display:inline;opacity:1;fill:#fae;fill-opacity:1;stroke:none;stroke-width:8.05607319;stroke-linecap:round;stroke-linejoin:round;stroke-miterlimit:4;stroke-dasharray:none;stroke-dashoffset:0;stroke-opacity:1" id="path4205-6" cx="129.805" cy="128.966" rx="98.378" ry="95.389"/><path style="display:inline;opacity:1;fill:none;fill-rule:evenodd;stroke:#f0c;stroke-width:13.51391125;stroke-linecap:round;stroke-linejoin:miter;stroke-miterlimit:4;stroke-dasharray:none;stroke-opacity:1" id="path4279-7" d="M 87.96654,185.52364 129.43083,60.385162 172.4313,184.87222 61.580195,108.58724 198.53798,108.82503 Z"/><path style="display:inline;fill:#fff1fc;fill-opacity:.78431373;fill-rule:evenodd;stroke:none;stroke-width:1px;stroke-linecap:butt;stroke-linejoin:miter;stroke-opacity:1" id="path4216-8" d="m 133.80946,44.638316 c 23.59843,1.280612 47.87816,12.257174 67.0043,30.637204 12.94454,22.982441 17.41439,48.80204 11.67215,72.37077 -1.93939,-23.86387 -14.14761,-44.21248 -29.83897,-58.24173 -9.9072,-19.011051 -27.0823,-36.034974 -48.83748,-44.766244 z"/><path style="display:inline;fill:#ff83e5;fill-opacity:.78431373;fill-rule:evenodd;stroke:none;stroke-width:1px;stroke-linecap:butt;stroke-linejoin:miter;stroke-opacity:1" id="path4216-2-0" d="m 54.281297,81.135759 c -6.809876,32.792551 3.405406,61.048591 20.184186,80.234961 11.104364,23.95322 33.438637,44.45903 63.036527,51.72575 -30.421,0.0572 -60.80182,-14.27148 -81.668669,-39.7051 -14.153463,-28.73631 -15.353383,-61.8094 -1.552044,-92.255611 z"/></g></svg>