<svg xmlns="http://www.w3.org/2000/svg" xmlns:svg="http://www.w3.org/2000/svg" xmlns:xlink="http://www.w3.org/1999/xlink" id="svg2" version="1.1" viewBox="0 0 256 256"><defs id="defs4"><linearGradient id="cloackOfFlames2"><stop id="stop4371" offset="0" style="stop-color:#ffb14d;stop-opacity:1"/><stop id="stop4373" offset="1" style="stop-color:#ffcc4d;stop-opacity:1"/></linearGradient><linearGradient id="cloakOfFlames1"><stop id="stop4365" offset="0" style="stop-color:#f46e16;stop-opacity:1"/><stop id="stop4367" offset="1" style="stop-color:#f4900c;stop-opacity:1"/></linearGradient><linearGradient id="linearGradient4205" x1="127.658" x2="142.268" y1="220.043" y2="141.829" gradientUnits="userSpaceOnUse" xlink:href="#cloackOfFlames2"/><linearGradient id="linearGradient4213" x1="132.143" x2="154.643" y1="194.929" y2="59.571" gradientUnits="userSpaceOnUse" xlink:href="#cloakOfFlames1"/></defs><metadata id="metadata7"/><g id="layer2" style="display:inline"><path style="fill:url(#linearGradient4213);fill-opacity:1;fill-rule:evenodd;stroke:none;stroke-width:1.03714824px;stroke-linecap:butt;stroke-linejoin:miter;stroke-opacity:1" id="path4171" d="M 133.1442,40.141456 C 83.529041,53.655052 65.140005,124.5769 48.97042,197.86433 c 53.61838,0.57194 49.418203,28.50107 74.05991,29.18961 31.07951,0.86842 26.79488,-17.37022 43.62937,-16.46594 21.1121,1.13405 30.21878,9.88453 45.09589,14.96904 -14.06011,-37.63913 -33.75607,-94.83495 -37.77794,-134.964526 -2.69076,-26.847854 12.50563,-44.852218 5.6845,-46.909212 -1.69403,-0.510854 -19.19228,-1.781923 -17.63895,-1.4136 16.24568,3.852119 -9.98279,15.320733 -22.49437,14.137278 -6.6603,-0.62999 -10.40649,-13.499236 4.8005,-15.869203 0.98451,-0.153433 -9.86899,-0.754796 -11.18513,-0.396321 z"/><path id="path4173" d="m 91.042219,132.79934 c -21.875568,8.22111 -3.606811,29.61787 -42.071799,65.06499 53.61838,0.57194 49.418203,28.50107 74.05991,29.18961 31.07951,0.86842 26.79488,-17.37022 43.62937,-16.46594 21.1121,1.13405 30.21878,9.88453 45.09589,14.96904 -14.06011,-37.63913 -21.81172,-17.04738 -33.03217,-56.90895 -14.13385,42.1764 -7.12792,-3.87889 -27.97549,-25.14986 4.90846,18.61647 0.70566,34.39372 -2.69278,34.04538 -14.63982,-1.5006 -21.33586,-35.23754 -14.07748,-53.11249 -22.7222,22.40605 -17.65875,56.8545 -31.73918,55.52264 -8.384012,-0.79303 -18.935911,-21.58935 -11.196271,-47.15442 z" style="fill:url(#linearGradient4205);fill-opacity:1;fill-rule:evenodd;stroke:none;stroke-width:1.03714824px;stroke-linecap:butt;stroke-linejoin:miter;stroke-opacity:1"/></g></svg>