<svg xmlns="http://www.w3.org/2000/svg" xmlns:svg="http://www.w3.org/2000/svg" xmlns:xlink="http://www.w3.org/1999/xlink" id="svg2" version="1.1" viewBox="0 0 256 256"><defs id="defs4"><linearGradient id="elementalWater3"><stop id="stop4219" offset="0" style="stop-color:#80e5ff;stop-opacity:1"/><stop id="stop4221" offset="1" style="stop-color:#18d0ff;stop-opacity:1"/></linearGradient><linearGradient id="elementalWater2"><stop style="stop-color:#fc0;stop-opacity:1" id="stop4571" offset="0"/><stop style="stop-color:#ffdf5f;stop-opacity:1" id="stop4573" offset="1"/></linearGradient><linearGradient id="linearGradient4589" x1="22.793" x2="23.371" y1="43.283" y2="40.971" gradientUnits="userSpaceOnUse" xlink:href="#elementalWater2"/><linearGradient id="linearGradient4597" x1="22.793" x2="23.371" y1="43.283" y2="40.971" gradientUnits="userSpaceOnUse" xlink:href="#elementalWater2"/><linearGradient id="linearGradient4213" x1="138.318" x2="143.08" y1="102.406" y2="207.565" gradientTransform="matrix(0.9,0,0,0.9,13.013637,27.614791)" gradientUnits="userSpaceOnUse" xlink:href="#elementalWater3"/></defs><metadata id="metadata7"/><g id="layer2" style="display:inline"><path style="display:inline;fill:#80e5ff;fill-opacity:1;fill-rule:evenodd;stroke:#000;stroke-width:1.22029626px;stroke-linecap:butt;stroke-linejoin:miter;stroke-opacity:0" id="path4284" d="M 38.700887,166.8575 C 36.827716,112.751 103.28886,55.702189 125.97396,1.9170781 153.37471,60.815569 222.06806,104.16722 221.60848,166.28367 Z"/><ellipse style="display:inline;opacity:1;fill:url(#linearGradient4213);fill-opacity:1;stroke:none;stroke-width:8.05607319;stroke-linecap:round;stroke-linejoin:round;stroke-miterlimit:4;stroke-dasharray:none;stroke-dashoffset:0;stroke-opacity:1" id="path4205" cx="130.172" cy="165.987" rx="91.306" ry="86.417"/><path style="fill:#d5f6ff;fill-rule:evenodd;stroke:none;stroke-width:1px;stroke-linecap:butt;stroke-linejoin:miter;stroke-opacity:1" id="path4267" d="m 137.85714,35.137782 c 9.43559,19.760659 24.8157,36.632768 38.56781,54.005128 1.92172,2.427612 3.80583,4.857824 5.63443,7.302721 12.6736,13.562629 23.80529,28.202659 28.6549,46.549289 -2.61773,-19.07678 -11.88432,-35.34777 -23.25728,-50.996932 -2.09924,-2.322102 -4.24175,-4.612738 -6.40477,-6.88061 -15.3454,-16.08923 -32.06258,-31.380157 -43.19509,-49.979596 z"/><path style="fill:none;fill-rule:evenodd;stroke:#ecfbff;stroke-width:5.58758974px;stroke-linecap:butt;stroke-linejoin:miter;stroke-opacity:1" id="path4182" d="m 149.07423,232.91825 c -0.0429,-4.53052 -1.59064,-4.64155 -1.59064,-4.64155 -2.92457,-7.89504 -4.90364,-20.3491 -6.93347,-26.84178 -3.27377,-7.15579 -5.03938,-13.99914 -5.88535,-21.76346"/><path style="fill:none;fill-rule:evenodd;stroke:#ecfbff;stroke-width:5.58758974px;stroke-linecap:butt;stroke-linejoin:miter;stroke-opacity:1" id="path4184" d="m 121.24772,177.54446 -0.12422,22.23031 c -0.81648,6.4121 -1.31425,20.86782 -1.56639,25.94357 -0.45633,4.00145 -1.23781,1.1195 -1.46624,6.0347"/><path style="fill:none;fill-rule:evenodd;stroke:#ecfbff;stroke-width:4.64627981;stroke-linecap:butt;stroke-linejoin:miter;stroke-miterlimit:4;stroke-dasharray:none;stroke-opacity:1" id="path4188" d="m 122.5726,145.2066 c -6.41415,0.14785 -8.26695,8.24812 -7.9814,9.9795 0.3357,2.03541 6.68198,6.96395 6.76081,12.72184"/><path style="fill:none;fill-rule:evenodd;stroke:#ecfbff;stroke-width:4.64627981;stroke-linecap:butt;stroke-linejoin:miter;stroke-miterlimit:4;stroke-dasharray:none;stroke-opacity:1" id="path4190" d="m 135.80488,144.99411 c 8.19944,0.0988 10.50212,7.49544 10.40042,10.56711 -0.0534,1.61158 -9.65978,4.74594 -11.07226,13.25635"/><g id="g4519" transform="matrix(0.76927849,0,0,0.77951525,29.761818,65.327284)" style="fill:#ecfbff;fill-opacity:1;stroke:#ecfbff;stroke-opacity:1"><path id="path4186" d="m 115.46203,148.48201 24.5841,-1.24628 c -1.17045,-8.24284 -0.28546,-15.85485 -5.08332,-24.93615 -3.60229,-6.81835 7.16307,-7.2606 4.72538,-21.5058 -0.3387,-1.979253 -18.29535,-1.397664 -19.14237,0.23247 -7.482,14.39948 8.91974,15.19481 1.73538,21.36304 -5.0238,4.31325 -8.07495,15.92714 -6.81917,26.09272 z" style="fill:#ecfbff;fill-opacity:1;fill-rule:evenodd;stroke:#ecfbff;stroke-width:3.60778332;stroke-linecap:butt;stroke-linejoin:miter;stroke-miterlimit:4;stroke-dasharray:none;stroke-opacity:1"/><ellipse id="path4194" cx="131.009" cy="83.903" rx="7.206" ry="8.121" transform="matrix(0.99979578,0.02020871,-0.02020871,0.99979578,0,0)" style="opacity:1;fill:#ecfbff;fill-opacity:1;stroke:#ecfbff;stroke-width:3.60778332;stroke-linecap:round;stroke-linejoin:round;stroke-miterlimit:4;stroke-dasharray:none;stroke-dashoffset:0;stroke-opacity:1"/><path id="path4198" d="M 134.9454,113.70106 C 111.94474,95.968769 93.332761,83.614925 88.694596,59.213392 63.252753,65.710227 47.757837,79.222839 38.331155,97.013736 l 26.68597,-3.398809 13.849106,12.448113 26.921899,-2.55149 z" style="fill:#ecfbff;fill-opacity:1;fill-rule:evenodd;stroke:#ecfbff;stroke-width:3.60778332;stroke-linecap:butt;stroke-linejoin:miter;stroke-miterlimit:4;stroke-dasharray:none;stroke-opacity:1"/><path id="path4198-0" d="m 128.20177,109.71721 c 23.69842,-16.788752 42.79441,-28.381155 48.41484,-52.575355 25.15853,7.519579 40.09471,21.64727 48.79483,39.804642 l -26.52685,-4.473651 -14.3408,11.877474 -26.79682,-3.63642 z" style="display:inline;fill:#ecfbff;fill-opacity:1;fill-rule:evenodd;stroke:#ecfbff;stroke-width:3.60778332;stroke-linecap:butt;stroke-linejoin:miter;stroke-miterlimit:4;stroke-dasharray:none;stroke-opacity:1"/><path id="path4488" d="m 121.51731,101.01904 c 1.303,-4.83708 -0.66059,-8.595615 -0.72322,-13.637738 l 16.93438,-0.937501 c -0.19309,4.982216 -0.77989,11.265083 -0.18492,14.558599 z" style="fill:#ecfbff;fill-opacity:1;fill-rule:evenodd;stroke:#ecfbff;stroke-width:1px;stroke-linecap:butt;stroke-linejoin:miter;stroke-opacity:1"/><path id="path4490" d="m 124.1124,83.586659 c -8.51343,-7.049407 -8.09503,-13.588423 -8.57143,-20.178571 1.96365,6.215687 2.30851,12.68431 11.51786,17.767857 z" style="fill:#ecfbff;fill-opacity:1;fill-rule:evenodd;stroke:#ecfbff;stroke-width:1px;stroke-linecap:butt;stroke-linejoin:miter;stroke-opacity:1"/><path id="path4490-2" d="m 133.98885,83.318802 c 6.99553,-7.049407 6.65173,-13.588423 7.04319,-20.178571 -1.61354,6.215687 -1.89691,12.68431 -9.46428,17.767857 z" style="display:inline;fill:#ecfbff;fill-opacity:1;fill-rule:evenodd;stroke:#ecfbff;stroke-width:1px;stroke-linecap:butt;stroke-linejoin:miter;stroke-opacity:1"/></g></g></svg>