<svg xmlns="http://www.w3.org/2000/svg" xmlns:svg="http://www.w3.org/2000/svg" xmlns:xlink="http://www.w3.org/1999/xlink" id="svg2" version="1.1" viewBox="0 0 256 256"><defs id="defs4"><linearGradient id="linearGradient4353" x1="159.57" x2="75.049" y1="168.301" y2="167.229" gradientTransform="matrix(1.7976402,0,0,1.4454078,-35.493204,-107.17524)" gradientUnits="userSpaceOnUse" xlink:href="#twinComets2"/><linearGradient id="twinComets2"><stop id="stop4365" offset="0" style="stop-color:#f46e16;stop-opacity:1"/><stop id="stop4367" offset="1" style="stop-color:#f4900c;stop-opacity:1"/></linearGradient><linearGradient id="linearGradient4337" x1="150" x2="129.286" y1="167.429" y2="166.357" gradientTransform="matrix(1.7976402,0,0,1.4454078,-34.471818,-106.47131)" gradientUnits="userSpaceOnUse" xlink:href="#twinComets1"/><linearGradient id="twinComets1"><stop id="stop4371" offset="0" style="stop-color:#ffb14d;stop-opacity:1"/><stop id="stop4373" offset="1" style="stop-color:#ffcc4d;stop-opacity:1"/></linearGradient></defs><metadata id="metadata7"/><g id="layer2" style="display:inline"><path style="display:inline;fill:url(#linearGradient4353);fill-opacity:1;fill-rule:evenodd;stroke:none;stroke-width:1.20000005;stroke-linecap:butt;stroke-linejoin:miter;stroke-miterlimit:4;stroke-dasharray:none;stroke-opacity:1" id="path4323-9-3" d="m 101.09688,164.26666 c 34.09263,25.20786 135.44465,26.77836 146.58469,-27.08663 6.76202,-32.69641 -24.62371,-66.97769 -104.33839,-59.62501 36.31019,2.97541 30.15133,25.63969 -1.83349,24.04978 C 117.21943,100.39737 81.650092,84.90728 6.6636351,121.27544 78.833653,99.43941 92.384076,139.96668 42.170743,132.58422 c 10.82869,11.14995 37.286112,18.59222 68.182867,14.65733 30.03992,-3.82579 35.44963,5.52454 33.5472,11.35164 -2.28741,7.0062 -16.89061,13.36813 -42.80393,5.67347 z"/><path style="display:inline;fill:url(#linearGradient4337);fill-opacity:1;fill-rule:evenodd;stroke:none;stroke-width:1px;stroke-linecap:butt;stroke-linejoin:miter;stroke-opacity:1" id="path4325-94-4" d="m 219.27315,171.0285 c -19.59342,-0.40238 -43.70837,-6.67932 -54.84122,-16.59028 72.68911,2.17607 20.35219,-34.38811 -57.56365,-24.54033 67.25177,-26.74449 102.00029,-4.70406 107.77865,-18.27917 2.21417,-5.20179 -9.32399,-7.11276 -33.5353,-3.04929 15.66023,-10.02365 31.93824,-13.04438 52.84169,-11.15108 13.8767,12.71704 16.77074,26.47517 13.53901,40.85792 -4.14464,18.44535 -18.47806,28.26891 -28.21918,32.75223 z"/></g></svg>