<svg xmlns="http://www.w3.org/2000/svg" xmlns:svg="http://www.w3.org/2000/svg" xmlns:xlink="http://www.w3.org/1999/xlink" id="svg2" version="1.1" viewBox="0 0 256 256"><defs id="defs4"><linearGradient id="linearGradient4335" x1="141.964" x2="143.036" y1="225.464" y2="220.107" gradientTransform="matrix(1.788647,0,0,2.5293867,-113.59244,-385.60893)" gradientUnits="userSpaceOnUse" xlink:href="#poisonVapours3"/><linearGradient id="poisonVapours3"><stop style="stop-color:#165016;stop-opacity:1" id="stop4331" offset="0"/><stop style="stop-color:#217821;stop-opacity:1" id="stop4333" offset="1"/></linearGradient><linearGradient id="linearGradient4327" x1="138.393" x2="139.643" y1="214.929" y2="209.393" gradientTransform="matrix(1.788647,0,0,2.5293867,-113.59244,-385.60893)" gradientUnits="userSpaceOnUse" xlink:href="#poisonVapours2"/><linearGradient id="poisonVapours2"><stop style="stop-color:#37c837;stop-opacity:1" id="stop4323" offset="0"/><stop style="stop-color:#5fd35f;stop-opacity:1" id="stop4325" offset="1"/></linearGradient><linearGradient id="linearGradient4319" x1="139.286" x2="140.536" y1="203.321" y2="196.179" gradientTransform="matrix(1.788647,0,0,2.5293867,-113.59244,-385.60893)" gradientUnits="userSpaceOnUse" xlink:href="#poisonVapours1"/><linearGradient id="poisonVapours1"><stop style="stop-color:#80ff80;stop-opacity:1" id="stop4315" offset="0"/><stop style="stop-color:#afa;stop-opacity:1" id="stop4317" offset="1"/></linearGradient></defs><metadata id="metadata7"/><g id="layer2" style="display:inline"><path style="display:inline;fill:url(#linearGradient4319);fill-opacity:1;fill-rule:evenodd;stroke:none;stroke-width:1px;stroke-linecap:butt;stroke-linejoin:miter;stroke-opacity:1" id="path4281" d="M 23.016873,123.44988 C 33.395565,106.45865 52.393788,90.724471 78.97392,90.553401 c 36.11939,-0.232449 63.4271,25.348629 94.7273,26.828199 22.52461,1.06474 39.44524,-1.57578 59.15463,-19.801764 -1.09789,18.967084 -26.72521,40.807794 -60.35369,40.561684 -34.44465,-0.25218 -67.28835,-27.8714 -96.725769,-29.06389 -19.773406,-0.80102 -36.388928,0.86401 -52.759518,14.37225 z"/><path style="display:inline;fill:url(#linearGradient4327);fill-opacity:1;fill-rule:evenodd;stroke:none;stroke-width:.85674423px;stroke-linecap:butt;stroke-linejoin:miter;stroke-opacity:1" id="path4281-3" d="m 22.403172,138.58011 c 10.401295,-12.44463 19.448553,-19.17784 46.086575,-19.30312 36.198043,-0.17022 57.969473,30.06351 104.126523,31.46656 22.57836,0.68632 39.53108,-11.69379 59.2834,-25.04277 -1.1003,13.8918 -26.78295,40.35937 -60.48512,40.24766 -55.70339,-0.18465 -72.630851,-35.10509 -102.132378,-35.97849 -19.816458,-0.58667 -30.472759,-0.96409 -46.879,8.61016 z"/><path style="display:inline;fill:url(#linearGradient4335);fill-opacity:1;fill-rule:evenodd;stroke:none;stroke-width:.85674423px;stroke-linecap:butt;stroke-linejoin:miter;stroke-opacity:1" id="path4281-3-7" d="m 21.975539,151.0364 c 11.200679,-7.65387 22.246404,-10.71418 41.689945,-10.36037 36.189297,0.65851 64.364586,35.49302 110.521616,36.89608 22.57836,0.68632 39.53108,-11.69379 59.2834,-25.04279 -1.10029,13.8918 -26.78294,40.35938 -60.48508,40.24766 -55.70341,-0.18465 -79.164269,-40.77761 -108.327663,-44.44213 -11.023204,-1.38513 -29.073832,-1.76256 -42.682218,2.70155 z"/></g></svg>