<svg xmlns="http://www.w3.org/2000/svg" xmlns:svg="http://www.w3.org/2000/svg" id="svg2" version="1.1" viewBox="0 0 256 256"><metadata id="metadata7"/><g id="layer2" style="display:inline"><path style="display:inline;fill:#759fdf;fill-opacity:1;fill-rule:evenodd;stroke:none;stroke-width:1px;stroke-linecap:butt;stroke-linejoin:miter;stroke-opacity:1" id="path4239-5-6" d="m 71.822816,127.73471 c -41.401329,52.2808 84.889704,51.0925 106.129904,23.20508 C 144.2296,175.83035 44.502801,166.8755 71.822816,127.73471 Z"/><g id="g4167" transform="matrix(0.88209,0,0,0.88209,14.296305,-32.279466)"><path id="path4141" d="M 128.52731,218.53777 C 90.748011,182.60591 62.607307,135.94033 63.05821,77.513066 c 9.021735,-0.131244 41.3765,-15.701957 65.23787,-33.582981 25.31048,17.458335 55.8296,32.07682 64.36495,32.814922 0.11707,58.822423 -26.40068,103.210643 -64.13372,141.792763 z" style="fill:#a0b9df;fill-opacity:1;fill-rule:evenodd;stroke:none;stroke-width:2.85311675px;stroke-linecap:butt;stroke-linejoin:miter;stroke-opacity:1"/><path id="path4163-2-4" d="m 130.96787,48.291502 c 27.39433,15.932802 32.42856,21.99499 59.47264,30.787925 C 164.00137,76.31761 149.74374,67.99718 130.96787,48.291502 Z" style="display:inline;fill:#c0d0e9;fill-opacity:1;fill-rule:evenodd;stroke:none;stroke-width:1px;stroke-linecap:butt;stroke-linejoin:miter;stroke-opacity:1"/><path id="path4163-2-4-1" d="M 63.682486,78.242893 C 74.250031,75.536427 109.89898,57.312857 128.14065,44.560595 127.98727,75.237705 129.80869,161.01495 128.73348,219.46247 70.031687,157.87509 63.524303,108.32616 63.682486,78.242893 Z" style="display:inline;fill:#759fdf;fill-opacity:1;fill-rule:evenodd;stroke:none;stroke-width:1px;stroke-linecap:butt;stroke-linejoin:miter;stroke-opacity:1"/></g><path style="display:inline;fill:#a0b9df;fill-opacity:1;fill-rule:evenodd;stroke:none;stroke-width:1px;stroke-linecap:butt;stroke-linejoin:miter;stroke-opacity:1" id="path4239-5" d="m 183.89934,133.46713 c 49.62435,43.49491 -74.79308,66.50519 -100.433463,43.14272 37.407713,18.02496 133.970193,-9.8759 100.433463,-43.14272 z"/><path style="display:inline;fill:#a0b9df;fill-opacity:1;fill-rule:evenodd;stroke:none;stroke-width:1px;stroke-linecap:butt;stroke-linejoin:miter;stroke-opacity:1" id="path4239-5-6-3" d="M 72.346564,179.54438 C 59.011295,211.09917 159.47115,211.47731 177.19515,192.07467 149.05473,209.39224 74.928208,200.75216 72.346564,179.54438 Z"/><path style="display:inline;fill:#759fdf;fill-opacity:1;fill-rule:evenodd;stroke:none;stroke-width:1px;stroke-linecap:butt;stroke-linejoin:miter;stroke-opacity:1" id="path4239-5-6-3-2" d="m 181.03404,197.86389 c 11.85888,29.58106 -77.47887,29.93555 -93.240584,11.74652 25.024924,16.23436 90.944754,8.13472 93.240584,-11.74652 z"/><path style="display:inline;fill:#a0b9df;fill-opacity:1;fill-rule:evenodd;stroke:none;stroke-width:1px;stroke-linecap:butt;stroke-linejoin:miter;stroke-opacity:1" id="path4239-5-6-3-9" d="m 88.710951,220.0309 c -7.964613,20.19586 52.035989,20.43787 62.621809,8.01968 -16.80713,11.08369 -61.079889,5.55384 -62.621809,-8.01968 z"/><path style="display:inline;fill:#c0d0e9;fill-opacity:1;fill-rule:evenodd;stroke:none;stroke-width:1px;stroke-linecap:butt;stroke-linejoin:miter;stroke-opacity:1" id="path4239-5-6-3-2-0" d="m 153.62558,231.75583 c 7.08283,18.93262 -46.275,19.15949 -55.688817,7.51808 14.946367,10.3904 54.317617,5.20641 55.688817,-7.51808 z"/></g></svg>