<svg xmlns="http://www.w3.org/2000/svg" xmlns:svg="http://www.w3.org/2000/svg" id="svg2" version="1.1" viewBox="0 0 256 256"><metadata id="metadata7"/><g id="layer2" style="display:inline"><path style="display:inline;fill:#93a7ac;fill-opacity:1;fill-rule:evenodd;stroke:none;stroke-width:3.64645147;stroke-linecap:round;stroke-linejoin:round;stroke-miterlimit:4;stroke-dasharray:none;stroke-opacity:1" id="path4166-0" d="M 184.06163,90.244298 C 228.80207,118.83126 262.35821,46.648588 203.11414,41.2683 193.10602,13.692485 155.10054,0.15459952 117.03758,28.208043 37.443125,23.529025 66.192133,125.05936 132.68786,92.025258 c 16.65985,8.326642 33.80678,7.30389 51.37377,-1.78096 z"/><path style="fill:#b7c4c8;fill-opacity:1;fill-rule:evenodd;stroke:none;stroke-width:4.29362679;stroke-linecap:round;stroke-linejoin:round;stroke-miterlimit:4;stroke-dasharray:none;stroke-opacity:1" id="path4166" d="M 84.170036,121.4192 C 30.600728,154.52165 -9.5772094,70.937298 61.357784,64.707158 73.340875,32.775597 118.84615,17.099325 164.42028,49.583968 c 95.30124,-5.4181 60.87904,112.149532 -18.73864,73.897472 -19.94741,9.6419 -40.47804,8.45763 -61.511604,-2.06224 z"/><path style="fill:none;fill-rule:evenodd;stroke:#5fbcd3;stroke-width:14.28060913;stroke-linecap:round;stroke-linejoin:round;stroke-miterlimit:4;stroke-dasharray:14.28060916,28.56121833;stroke-dashoffset:0;stroke-opacity:1" id="path4248" d="m 179.48063,143.68142 -38.78265,89.70454"/><path style="display:inline;fill:none;fill-rule:evenodd;stroke:#5fbcd3;stroke-width:14.28060913;stroke-linecap:round;stroke-linejoin:round;stroke-miterlimit:4;stroke-dasharray:14.28060916,28.56121833;stroke-dashoffset:0;stroke-opacity:1" id="path4248-2" d="M 132.21554,142.06914 90.654956,230.51101"/><path style="display:inline;fill:none;fill-rule:evenodd;stroke:#5fbcd3;stroke-width:14.28060913;stroke-linecap:round;stroke-linejoin:round;stroke-miterlimit:4;stroke-dasharray:14.28060916,28.56121833;stroke-dashoffset:0;stroke-opacity:1" id="path4248-7" d="M 79.262743,140.34941 35.9344,227.27604"/></g></svg>