<svg xmlns="http://www.w3.org/2000/svg" xmlns:svg="http://www.w3.org/2000/svg" id="svg2" version="1.1" viewBox="0 0 256 256"><metadata id="metadata7"/><g id="layer2" style="display:inline"><path style="fill:#ff80b2;fill-opacity:1;fill-rule:evenodd;stroke:none;stroke-width:1px;stroke-linecap:butt;stroke-linejoin:miter;stroke-opacity:1" id="path4161" d="m 51.737502,114.10511 c 33.142722,43.90012 142.072338,27.98692 162.029228,0 -15.39056,64.2833 -149.922382,61.37798 -162.029228,0 z"/><path style="display:inline;fill:#ff80b2;fill-opacity:1;fill-rule:evenodd;stroke:none;stroke-width:1px;stroke-linecap:butt;stroke-linejoin:miter;stroke-opacity:1" id="path4161-1" d="m 65.68466,75.956709 c 27.102002,31.059641 116.17767,19.800933 132.49713,0 -12.58542,45.480881 -122.596926,43.425351 -132.49713,0 z"/><path style="display:inline;fill:#ff80b2;fill-opacity:1;fill-rule:evenodd;stroke:none;stroke-width:1px;stroke-linecap:butt;stroke-linejoin:miter;stroke-opacity:1" id="path4161-8" d="m 80.523135,36.019789 c 21.354115,23.434682 91.538325,14.939924 104.396705,0 -9.91627,34.31559 -96.596171,32.764679 -104.396705,0 z"/><path style="display:inline;fill:#ff80b2;fill-opacity:1;fill-rule:evenodd;stroke:none;stroke-width:1px;stroke-linecap:butt;stroke-linejoin:miter;stroke-opacity:1" id="path4161-17" d="m 26.390236,147.10068 c 43.597774,67.04367 186.889794,42.74124 213.142184,0 -20.24559,98.17258 -197.216171,93.73562 -213.142184,0 z"/><path id="path4199" d="m 31.738993,158.73654 c 56.022325,55.8206 181.685317,31.8425 202.949747,-2.77791 -23.21746,78.25709 -175.402464,78.70377 -202.949747,2.77791 z" style="display:inline;fill:#d40055;fill-opacity:1;fill-rule:evenodd;stroke:none;stroke-width:1px;stroke-linecap:butt;stroke-linejoin:miter;stroke-opacity:1"/></g></svg>