<svg xmlns="http://www.w3.org/2000/svg" xmlns:svg="http://www.w3.org/2000/svg" id="svg2" version="1.1" viewBox="0 0 256 256"><defs id="defs4"><marker id="Arrow1Lstart" orient="auto" refX="0" refY="0" style="overflow:visible"><path id="path4473" d="M 0.0,0.0 L 5.0,-5.0 L -12.5,0.0 L 5.0,5.0 L 0.0,0.0 z" transform="scale(0.8) translate(12.5,0)" style="fill-rule:evenodd;stroke:#000;stroke-width:1pt"/></marker></defs><metadata id="metadata7"/><g id="layer2" style="display:inline"><path style="fill:#80e5ff;fill-opacity:1;fill-rule:evenodd;stroke:#000;stroke-width:1px;stroke-linecap:butt;stroke-linejoin:miter;stroke-opacity:0" id="path4284" d="M 54.081762,155.85424 C 52.567286,110.91417 106.30175,63.530266 124.64286,18.857143 c 22.15377,48.920221 77.69299,84.927467 77.32142,136.520487 z"/><flowRoot id="flowRoot4226" xml:space="preserve" style="fill:#000;stroke:none;stroke-opacity:1;stroke-width:1px;stroke-linejoin:miter;stroke-linecap:butt;fill-opacity:1;font-family:sans-serif;font-style:normal;font-weight:400;font-size:40px;line-height:125%;letter-spacing:0;word-spacing:0"><flowRegion id="flowRegion4228"><rect id="rect4230" width="153.038" height="73.741" x="11.617" y="103.972"/></flowRegion><flowPara id="flowPara4232"/></flowRoot><ellipse style="opacity:1;fill:#80e5ff;fill-opacity:1;stroke:none;stroke-width:8.05607319;stroke-linecap:round;stroke-linejoin:round;stroke-miterlimit:4;stroke-dasharray:none;stroke-dashoffset:0;stroke-opacity:1" id="path4205" cx="128.037" cy="155.131" rx="73.822" ry="71.776"/><path style="fill:#d5f6ff;fill-rule:evenodd;stroke:none;stroke-width:1px;stroke-linecap:butt;stroke-linejoin:miter;stroke-opacity:1" id="path4216" d="m 131.04202,42.749424 c 30.83515,47.037333 46.80263,66.211096 57.50492,82.059366 0.64679,0.95779 1.26571,1.89312 1.85672,2.80926 3.37922,7.28387 5.12373,13.29249 5.76543,19.80199 0.63461,6.4376 0.17925,13.31061 -0.73204,22.48201 -0.26012,-9.29146 -1.00474,-15.95703 -2.71705,-21.8143 -1.69167,-5.78666 -4.34883,-10.82918 -8.47546,-17.03975 -0.43666,-0.92934 -0.90425,-1.88537 -1.405,-2.8738 -7.87521,-15.54482 -23.51017,-38.248365 -51.79752,-85.424776 z"/><g id="g4245" transform="matrix(0.81,0,0,0.81,24.326983,49.435697)" style="stroke:#00e75d;stroke-width:25;stroke-miterlimit:4;stroke-dasharray:none;stroke-opacity:1"><path id="path4241" d="M 74.195598,131.49491 184.65599,131.27899" style="fill:none;fill-rule:evenodd;stroke:#00e75d;stroke-width:25;stroke-linecap:round;stroke-linejoin:round;stroke-miterlimit:4;stroke-dasharray:none;stroke-opacity:1"/><path id="path4243" d="m 129.32019,78.162539 0,103.641861" style="fill:none;fill-rule:evenodd;stroke:#00e75d;stroke-width:25;stroke-linecap:round;stroke-linejoin:round;stroke-miterlimit:4;stroke-dasharray:none;stroke-opacity:1"/></g><path style="display:inline;fill:#2ad4ff;fill-rule:evenodd;stroke:none;stroke-width:1px;stroke-linecap:butt;stroke-linejoin:miter;stroke-opacity:1" id="path4216-2" d="m 63.50787,125.92671 c -8.067466,20.8345 -5.767867,42.88774 3.57438,61.7526 7.167593,11.32451 16.843458,20.71111 27.689117,27.16825 10.872923,6.47337 22.877383,9.98054 34.755783,9.66051 -11.80506,-0.90593 -23.06684,-5.59085 -32.71954,-12.72633 C 87.129752,204.62765 79.02247,194.9802 73.483327,184.02304 62.988991,168.08518 57.800215,147.44401 63.50787,125.92671 Z"/></g></svg>