<svg xmlns="http://www.w3.org/2000/svg" xmlns:svg="http://www.w3.org/2000/svg" id="svg2" version="1.1" viewBox="0 0 256 256"><metadata id="metadata7"/><g id="layer2" style="display:inline"><path style="fill:#e1dfdd;fill-opacity:1;fill-rule:evenodd;stroke:#958274;stroke-width:8;stroke-linecap:butt;stroke-linejoin:miter;stroke-miterlimit:4;stroke-dasharray:none;stroke-opacity:1" id="path4141" d="M 132.15034,230.84579 C 87.795114,188.65956 54.756189,133.87129 55.285577,65.274066 65.877651,65.119977 103.86415,46.838998 131.87886,25.845571 c 29.71607,20.497164 65.5474,37.660169 75.56843,38.526746 0.13745,69.061163 -30.99603,121.175673 -75.29695,166.473473 z"/><path style="display:inline;fill:#c0bfbf;fill-opacity:1;fill-rule:evenodd;stroke:none;stroke-width:1px;stroke-linecap:butt;stroke-linejoin:miter;stroke-opacity:1" id="path4163-2-4-1" d="M 59.232801,68.988071 C 71.639752,65.810512 110.27953,45.307772 131.69638,30.335828 131.5163,66.352651 133.29762,156.88187 132.03526,225.50287 68.852565,163.16165 58.879361,104.55927 59.232801,68.988071 Z"/><path style="fill:none;fill-rule:evenodd;stroke:#958274;stroke-width:3;stroke-linecap:butt;stroke-linejoin:miter;stroke-miterlimit:4;stroke-dasharray:none;stroke-opacity:1" id="path4158" d="m 160.60682,198.29132 -25.00128,-27.77919 -31.06219,1.01015 -14.39467,8.33376"/><path style="fill:none;fill-rule:evenodd;stroke:#958274;stroke-width:3;stroke-linecap:butt;stroke-linejoin:miter;stroke-miterlimit:4;stroke-dasharray:none;stroke-opacity:1" id="path4160" d="M 104.03828,171.52228 98.987515,130.10602 71.713396,91.720225 57.066184,90.457535"/><path style="fill:none;fill-rule:evenodd;stroke:#958274;stroke-width:3;stroke-linecap:butt;stroke-linejoin:miter;stroke-miterlimit:4;stroke-dasharray:none;stroke-opacity:1" id="path4162" d="m 71.20832,91.720225 35.1028,-33.082496 -5.80838,-13.131983"/><path style="fill:none;fill-rule:evenodd;stroke:#958274;stroke-width:3;stroke-linecap:butt;stroke-linejoin:miter;stroke-miterlimit:4;stroke-dasharray:none;stroke-opacity:1" id="path4164" d="m 106.31112,58.637729 35.60787,1.767767 27.27412,33.082496 -27.52665,28.284278 -42.426407,7.82868"/><path style="fill:none;fill-rule:evenodd;stroke:#958274;stroke-width:3;stroke-linecap:butt;stroke-linejoin:miter;stroke-miterlimit:4;stroke-dasharray:none;stroke-opacity:1" id="path4166" d="m 141.41392,121.26719 35.1028,10.35406 -40.65864,38.3858"/><path style="fill:none;fill-rule:evenodd;stroke:#958274;stroke-width:3;stroke-linecap:butt;stroke-linejoin:miter;stroke-miterlimit:4;stroke-dasharray:none;stroke-opacity:1" id="path4168" d="m 176.51672,132.00006 19.44544,-0.12627"/><path style="fill:none;fill-rule:evenodd;stroke:#958274;stroke-width:3;stroke-linecap:butt;stroke-linejoin:miter;stroke-miterlimit:4;stroke-dasharray:none;stroke-opacity:1" id="path4170" d="m 168.68804,93.235454 37.1231,-3.788072"/><path style="fill:none;fill-rule:evenodd;stroke:#958274;stroke-width:3;stroke-linecap:butt;stroke-linejoin:miter;stroke-miterlimit:4;stroke-dasharray:none;stroke-opacity:1" id="path4172" d="m 142.17153,59.90042 13.8896,-18.435284"/></g></svg>