<svg xmlns="http://www.w3.org/2000/svg" xmlns:svg="http://www.w3.org/2000/svg" xmlns:xlink="http://www.w3.org/1999/xlink" id="svg2" version="1.1" viewBox="0 0 256 256"><defs id="defs4"><linearGradient id="elementalEarth1"><stop style="stop-color:#c78c38;stop-opacity:1" id="stop4295" offset="0"/><stop style="stop-color:#e3a347;stop-opacity:1" id="stop4297" offset="1"/></linearGradient><linearGradient id="linearGradient4313" x1="24.856" x2="25.582" y1="43.393" y2="41.167" gradientUnits="userSpaceOnUse" xlink:href="#elementalEarth1"/><linearGradient id="linearGradient4321" x1="24.856" x2="25.582" y1="43.393" y2="41.167" gradientUnits="userSpaceOnUse" xlink:href="#elementalEarth1"/></defs><metadata id="metadata7"/><g id="layer2" style="display:inline"><ellipse style="display:inline;opacity:1;fill:#fae;fill-opacity:1;stroke:none;stroke-width:8.05607319;stroke-linecap:round;stroke-linejoin:round;stroke-miterlimit:4;stroke-dasharray:none;stroke-dashoffset:0;stroke-opacity:1" id="path4205-6" cx="77.277" cy="151.702" rx="48.881" ry="18.364"/><path style="display:inline;opacity:1;fill:none;fill-rule:evenodd;stroke:#f0c;stroke-width:4.1796627;stroke-linecap:round;stroke-linejoin:round;stroke-miterlimit:4;stroke-dasharray:none;stroke-opacity:1" id="path4279-7" d="m 56.488753,162.59039 20.602203,-24.09195 21.365479,23.96653 -55.078165,-14.68655 68.04969,0.0458 z"/><path style="display:inline;fill:#ff6bda;fill-opacity:1;fill-rule:evenodd;stroke:none;stroke-width:1px;stroke-linecap:butt;stroke-linejoin:miter;stroke-opacity:1" id="path4221" d="M 100.25132,63.338722 C 144.3682,9.6788624 302.28455,34.384085 209.96052,152.86552 249.18754,51.676611 164.56959,30.38002 100.25132,63.338722 Z"/><path id="path4343" d="M 110.9712,56.377637 C 151.77668,18.661144 280.71002,40.325592 218.05646,138.54246 248.17551,49.541468 164.1508,28.086686 110.9712,56.377637 Z" style="display:inline;fill:#f300b7;fill-opacity:1;fill-rule:evenodd;stroke:none;stroke-width:1px;stroke-linecap:butt;stroke-linejoin:miter;stroke-opacity:1"/><g id="g4165" transform="matrix(1.9487171,0,0,1.9487171,-109.38648,-43.820783)"><path id="path4153" d="m 141.79047,137.19811 1.89403,-19.44543" style="fill:none;fill-rule:evenodd;stroke:#f300b7;stroke-width:5;stroke-linecap:round;stroke-linejoin:miter;stroke-miterlimit:4;stroke-dasharray:none;stroke-opacity:1"/><path id="path4155" d="m 151.63945,117.87895 c 0.12627,0.63134 2.27285,18.94036 2.27285,18.94036" style="fill:none;fill-rule:evenodd;stroke:#f300b7;stroke-width:5;stroke-linecap:round;stroke-linejoin:miter;stroke-miterlimit:4;stroke-dasharray:none;stroke-opacity:1"/><path id="path4157" d="m 153.98626,120.5282 c -3.80368,-1.9362 -8.28076,-1.9552 -12.5606,0.037 0.71131,-7.45809 0.20906,-14.51153 0.49107,-21.752858 0.0618,-1.587362 11.7652,-1.383548 11.74303,-0.126269 -0.12836,7.280357 -0.11418,14.561427 0.3265,21.842147 z" style="fill:#f300b7;fill-opacity:1;fill-rule:evenodd;stroke:#f300b7;stroke-width:1px;stroke-linecap:butt;stroke-linejoin:miter;stroke-opacity:1"/><path id="path4159" d="m 142.29447,114.7456 -6.87833,-9.06846 7.1529,-6.115304" style="fill:none;fill-rule:evenodd;stroke:#f300b7;stroke-width:3.5;stroke-linecap:round;stroke-linejoin:round;stroke-miterlimit:4;stroke-dasharray:none;stroke-opacity:1"/><path id="path4161" d="m 152.93766,99.443271 7.19507,7.119759 -8.15246,9.58551" style="fill:none;fill-rule:evenodd;stroke:#f300b7;stroke-width:3.5;stroke-linecap:round;stroke-linejoin:round;stroke-miterlimit:4;stroke-dasharray:none;stroke-opacity:1"/><ellipse id="path4163" cx="148.041" cy="90.605" rx="5.872" ry="5.43" style="opacity:1;fill:#f300b7;fill-opacity:1;stroke:#f300b7;stroke-width:1;stroke-linecap:round;stroke-linejoin:round;stroke-miterlimit:4;stroke-dasharray:none;stroke-dashoffset:0;stroke-opacity:1"/></g><ellipse style="opacity:1;fill:none;fill-opacity:1;stroke:#ff6bda;stroke-width:1;stroke-linecap:round;stroke-linejoin:round;stroke-miterlimit:4;stroke-dasharray:4,2;stroke-dashoffset:0;stroke-opacity:.94901961" id="path4163-4" cx="78.301" cy="59.86" rx="11.442" ry="10.581"/><path style="fill:none;fill-rule:evenodd;stroke:#ff6bda;stroke-width:1;stroke-linecap:butt;stroke-linejoin:miter;stroke-miterlimit:4;stroke-dasharray:4,2;stroke-dashoffset:0;stroke-opacity:.94901961" id="path4226" d="m 65.786183,74.425083 c -5.926851,4.985131 -15.090701,11.468044 -15.152288,14.647211 -0.08202,4.234075 14.394674,20.960666 14.394674,20.960666 l -3.661803,40.65864 c -0.605523,6.72339 8.842392,4.8913 9.217642,1.38896 l 3.788072,-35.35534 c 2.104484,-1.93426 4.208969,-1.31253 6.313453,-0.25254 l 4.293148,34.85026 c 0.505018,4.09956 10.16532,3.49395 9.722719,-0.37881 L 90.661189,115.5888 90.53492,110.03296 C 90.029722,109.65406 105.2526,94.293794 105.56094,90.713792 105.79457,88.00123 92.040675,76.560745 89.019692,74.298814 86.627225,72.507479 68.62619,72.036326 65.786183,74.425083 Z"/><path style="fill:none;fill-rule:evenodd;stroke:#ff6bda;stroke-width:1;stroke-linecap:butt;stroke-linejoin:miter;stroke-miterlimit:4;stroke-dasharray:4,2;stroke-dashoffset:0;stroke-opacity:.94901961" id="path4228" d="m 58.336308,89.70364 6.755395,9.217642 0.12627,-14.962885 z"/><path style="display:inline;fill:none;fill-rule:evenodd;stroke:#ff6bda;stroke-width:1;stroke-linecap:butt;stroke-linejoin:miter;stroke-miterlimit:4;stroke-dasharray:4,2;stroke-dashoffset:0;stroke-opacity:.94901961" id="path4228-8" d="M 96.756094,90.710488 90.458636,99.961646 90.340925,84.944355 Z"/></g></svg>