<svg xmlns="http://www.w3.org/2000/svg" xmlns:svg="http://www.w3.org/2000/svg" xmlns:xlink="http://www.w3.org/1999/xlink" id="svg2" version="1.1" viewBox="0 0 256 256"><defs id="defs4"><linearGradient id="lustfulDisttraction2"><stop style="stop-color:#f5d;stop-opacity:1" id="stop4283" offset="0"/><stop style="stop-color:#ff0ecf;stop-opacity:1" id="stop4285" offset="1"/></linearGradient><linearGradient id="linearGradient4792" x1="11.984" x2="10.376" y1="41.34" y2="34.175" gradientTransform="matrix(11.669756,2.4206911,-2.4206911,11.669756,92.700911,-354.51604)" gradientUnits="userSpaceOnUse" xlink:href="#lustfulDistraction1"/><linearGradient id="lustfulDistraction1"><stop id="stop4365" offset="0" style="stop-color:#f5d;stop-opacity:1"/><stop id="stop4367" offset="1" style="stop-color:#fae;stop-opacity:1"/></linearGradient><linearGradient id="linearGradient4326-2" x1="35.145" x2="32.843" y1="1039.399" y2="1044.747" gradientTransform="matrix(6.0526049,-1.2052668,1.5293189,7.6799291,-1658.9982,-7762.1131)" gradientUnits="userSpaceOnUse" xlink:href="#lustfulDisttraction2"/></defs><metadata id="metadata7"/><g id="layer2" style="display:inline"><path style="display:inline;opacity:1;fill:url(#linearGradient4326-2);fill-opacity:1;fill-rule:evenodd;stroke:none;stroke-width:2.35382104;stroke-linecap:butt;stroke-linejoin:miter;stroke-miterlimit:4;stroke-dasharray:none;stroke-opacity:1" id="path4312-8" d="m 186.31924,191.51914 c 0.56293,7.3326 -6.97858,12.53913 -29.1297,12.37024 -34.68677,-0.26359 -82.369041,-26.71783 -80.470157,-0.91327 -4.088521,-4.21527 -8.881344,-3.24169 -7.995763,2.3108 0.865681,5.42793 7.300733,13.66799 8.603725,20.04841 1.902492,-5.30846 11.050073,-9.98607 13.2604,-14.24999 1.444798,-2.78767 -1.893894,-9.84214 -9.405013,-6.64099 -5.63066,-22.51278 42.307548,3.92722 74.100288,4.71919 28.8607,0.7187 36.93564,-9.13723 35.71843,-18.30851 -2.07143,-15.60673 -52.4675,-21.41479 -51.87242,-16.94061 0.57537,4.32638 46.07184,3.0378 47.19021,17.60473 z"/><path style="fill:#e005a5;fill-opacity:1;fill-rule:evenodd;stroke:none;stroke-width:1px;stroke-linecap:butt;stroke-linejoin:miter;stroke-opacity:1" id="path4250" d="m 58.26425,39.843 c -14.815733,39.075402 3.101726,59.638957 21.87,82.66339 L 87.814787,88.920322 C 69.48777,80.936036 60.133239,65.054252 58.26425,39.843 Z"/><path style="display:inline;fill:#e005a5;fill-opacity:1;fill-rule:evenodd;stroke:none;stroke-width:1px;stroke-linecap:butt;stroke-linejoin:miter;stroke-opacity:1" id="path4250-4" d="m 201.68146,41.000307 c 14.81573,39.075401 -3.10173,59.638963 -21.87,82.663383 l -7.68054,-33.586067 c 18.32702,-7.984278 27.68155,-23.866065 29.55054,-49.077316 z"/><g id="g4283" transform="matrix(0.63939461,0.02017571,-0.02017571,0.63939461,47.181106,50.716721)"><path id="path4859" d="m 45.669759,86.851816 c -0.410745,-13.928829 4.615402,-24.225875 12.464453,-31.208153 3.533534,-3.143324 7.623905,-5.652389 12.078447,-7.443517 8.918834,-3.586173 18.96155,-4.699942 28.417995,-3.559455 4.183816,0.504531 8.252856,1.45046 12.059046,2.818641 3.45982,1.24375 6.70247,2.836394 9.61667,4.763893 4.55373,3.011916 8.3055,6.841343 10.83086,11.434115 12.09675,-30.502658 85.44246,-30.878561 86.78442,24.690267 C 218.88546,128.25477 176.6379,166.77652 135.0812,211.92888 91.25909,167.74111 46.89222,128.30687 45.669759,86.851816 Z" style="display:inline;fill:url(#linearGradient4792);fill-opacity:1;fill-rule:evenodd;stroke:none;stroke-width:.5;stroke-linecap:butt;stroke-linejoin:miter;stroke-miterlimit:4;stroke-dasharray:none;stroke-opacity:1"/><path id="path4152" d="m 165.47735,51.548691 c 11.39578,-3.938481 24.97502,-0.810014 35.68037,8.442374 7.27131,9.308633 11.10709,21.426886 9.92845,34.385023 -1.31025,-12.97028 -7.57977,-23.001349 -15.32318,-29.202171 -7.20125,-9.203573 -18.44613,-15.110589 -30.28564,-13.625226 z" style="display:inline;fill:#f6d5ff;fill-opacity:1;fill-rule:evenodd;stroke:none;stroke-width:.85589993;stroke-linecap:butt;stroke-linejoin:miter;stroke-miterlimit:4;stroke-dasharray:none;stroke-opacity:1"/></g></g></svg>