<svg xmlns="http://www.w3.org/2000/svg" xmlns:svg="http://www.w3.org/2000/svg" xmlns:xlink="http://www.w3.org/1999/xlink" id="svg2" version="1.1" viewBox="0 0 256 256"><defs id="defs4"><linearGradient id="localisedStorm2"><stop id="stop4336" offset="0" style="stop-color:#ff02cc;stop-opacity:1"/><stop id="stop4338" offset="1" style="stop-color:#c8009f;stop-opacity:1"/></linearGradient><linearGradient id="localisedStorm1"><stop id="stop4330" offset="0" style="stop-color:#ff81e6;stop-opacity:1"/><stop id="stop4332" offset="1" style="stop-color:#ff3cd7;stop-opacity:1"/></linearGradient><linearGradient id="localisedStorm3"><stop id="stop4262" offset="0" style="stop-color:#eb3adf;stop-opacity:1"/><stop id="stop4264" offset="1" style="stop-color:#789098;stop-opacity:1"/></linearGradient><linearGradient id="linearGradient4159-2" x1="121.071" x2="121.786" y1="164.929" y2="104.571" gradientTransform="matrix(0.81,0,0,0.81,36.267553,-5.642201)" gradientUnits="userSpaceOnUse" xlink:href="#localisedStorm3"/><linearGradient id="linearGradient4171" x1="178.214" x2="177.5" y1="74.214" y2="122.071" gradientTransform="matrix(0.81,0,0,0.81,36.267553,-5.642201)" gradientUnits="userSpaceOnUse" xlink:href="#localisedStorm4"/><linearGradient id="localisedStorm4"><stop style="stop-color:#45565a;stop-opacity:1" id="stop4167" offset="0"/><stop style="stop-color:#ae1dca;stop-opacity:.98039216" id="stop4169" offset="1"/></linearGradient><linearGradient id="linearGradient4211" x1="130.562" x2="137.633" y1="177.966" y2="118.114" gradientTransform="matrix(0.78626151,0,0,0.71118214,12.658649,54.877831)" gradientUnits="userSpaceOnUse" xlink:href="#localisedStorm2"/><linearGradient id="linearGradient4211-3" x1="130.562" x2="137.633" y1="177.966" y2="118.114" gradientTransform="matrix(0.60102148,0,0,0.45178094,92.801045,79.940863)" gradientUnits="userSpaceOnUse" xlink:href="#localisedStorm1"/><linearGradient id="linearGradient4211-3-7" x1="130.562" x2="137.633" y1="177.966" y2="118.114" gradientTransform="matrix(0.60102148,0,0,0.45178094,-5.5918126,80.476558)" gradientUnits="userSpaceOnUse" xlink:href="#localisedStorm1"/></defs><metadata id="metadata7"/><g id="layer2" style="display:inline"><path style="display:inline;fill:url(#linearGradient4211-3-7);fill-opacity:1;fill-rule:evenodd;stroke:none;stroke-width:1px;stroke-linecap:butt;stroke-linejoin:miter;stroke-opacity:1" id="path4173-5-2" d="m 72.183197,122.26104 27.55567,0.0196 -24.33571,26.65557 16.46622,0 -37.32253,33.6599 14.65542,-25.63769 -11.80975,-0.15427 z"/><path style="display:inline;fill:url(#linearGradient4211-3);fill-opacity:1;fill-rule:evenodd;stroke:none;stroke-width:1px;stroke-linecap:butt;stroke-linejoin:miter;stroke-opacity:1" id="path4173-5" d="m 170.57605,121.72534 27.55567,0.0196 -24.33571,26.65557 16.46622,0 -37.32253,33.6599 14.65542,-25.63769 -11.80975,-0.15427 z"/><path style="display:inline;fill:url(#linearGradient4211);fill-opacity:1;fill-rule:evenodd;stroke:none;stroke-width:1px;stroke-linecap:butt;stroke-linejoin:miter;stroke-opacity:1" id="path4173" d="m 114.40459,120.65389 36.04856,0.0308 -31.83618,41.96053 21.54125,0 -48.825655,52.98657 19.172345,-40.35821 -15.449623,-0.24284 z"/><path style="display:inline;fill:url(#linearGradient4171);fill-opacity:1;fill-rule:evenodd;stroke:none;stroke-width:3.64645147;stroke-linecap:round;stroke-linejoin:round;stroke-miterlimit:4;stroke-dasharray:none;stroke-opacity:1" id="path4166-0" d="m 181.30748,103.3271 c 36.23975,23.15545 63.42023,-35.312517 15.43253,-39.670551 -8.10658,-22.33641 -38.89101,-33.302097 -69.72202,-10.578808 -64.471507,-3.790004 -41.184807,78.449569 12.67673,51.691949 13.49448,6.74457 27.3835,5.91615 41.61276,-1.44259 z"/><path style="display:inline;fill:url(#linearGradient4159-2);fill-opacity:1;fill-rule:evenodd;stroke:none;stroke-width:4.29362679;stroke-linecap:round;stroke-linejoin:round;stroke-miterlimit:4;stroke-dasharray:none;stroke-opacity:1" id="path4166-2" d="M 100.39528,128.57877 C 57.004143,155.39176 24.460003,87.68844 81.917353,82.64202 91.623663,56.77746 128.48293,44.07968 165.39798,70.392241 c 77.19401,-4.388661 49.31203,90.841119 -15.17829,59.856949 -16.15741,7.80994 -32.78722,6.85068 -49.82441,-1.67042 z"/></g></svg>