<svg xmlns="http://www.w3.org/2000/svg" xmlns:svg="http://www.w3.org/2000/svg" xmlns:xlink="http://www.w3.org/1999/xlink" id="svg2" version="1.1" viewBox="0 0 256 256"><defs id="defs4"><linearGradient id="arcaneThunder"><stop style="stop-color:#f38cec;stop-opacity:1" id="stop4155" offset="0"/><stop style="stop-color:#b7c4c8;stop-opacity:1" id="stop4157" offset="1"/></linearGradient><linearGradient id="linearGradient4159" x1="121.071" x2="121.786" y1="164.929" y2="104.571" gradientTransform="matrix(0.76277144,0,0,0.7728617,42.741818,-20.271885)" gradientUnits="userSpaceOnUse" xlink:href="#arcaneThunder"/></defs><metadata id="metadata7"/><g id="layer2" style="display:inline"><path style="fill:url(#linearGradient4159);fill-opacity:1;fill-rule:evenodd;stroke:none;stroke-width:4.29362679;stroke-linecap:round;stroke-linejoin:round;stroke-miterlimit:4;stroke-dasharray:none;stroke-opacity:1" id="path4166" d="M 103.13046,107.79509 C 62.269321,133.37871 31.622738,68.779567 85.729924,63.964532 94.870289,39.28585 129.58041,27.170261 164.34306,52.276396 c 72.69307,-4.187441 46.4368,86.676084 -14.2933,57.112524 -15.21531,7.45187 -30.8755,6.53658 -46.9193,-1.59383 z"/><path style="display:inline;fill:#d400aa;fill-opacity:1;fill-rule:evenodd;stroke:none;stroke-width:1px;stroke-linecap:butt;stroke-linejoin:miter;stroke-opacity:1" id="path4161" d="m 85.886528,162.82425 c 18.156252,23.4516 77.830112,14.95072 88.762912,0 -8.43127,34.34037 -82.130538,32.78833 -88.762912,0 z"/><path style="display:inline;fill:#a08;fill-opacity:1;fill-rule:evenodd;stroke:none;stroke-width:1px;stroke-linecap:butt;stroke-linejoin:miter;stroke-opacity:1" id="path4161-1" d="m 93.527061,142.44524 c 14.847029,16.59217 63.644489,10.57773 72.584629,0 -6.89455,24.29605 -67.161093,23.19798 -72.584629,0 z"/><path style="display:inline;fill:#800066;fill-opacity:1;fill-rule:evenodd;stroke:none;stroke-width:1px;stroke-linecap:butt;stroke-linejoin:miter;stroke-opacity:1" id="path4161-8" d="m 101.65588,121.1108 c 11.69822,12.51889 50.14656,7.98096 57.19064,0 -5.43233,18.33151 -52.91735,17.50301 -57.19064,0 z"/><path style="display:inline;fill:#ff2ad4;fill-opacity:1;fill-rule:evenodd;stroke:none;stroke-width:1px;stroke-linecap:butt;stroke-linejoin:miter;stroke-opacity:1" id="path4161-17" d="m 72.000778,180.4506 c 23.883745,35.81496 102.382032,22.83252 116.763622,0 -11.09094,52.44414 -108.03903,50.0739 -116.763622,0 z"/></g></svg>