<svg xmlns="http://www.w3.org/2000/svg" xmlns:svg="http://www.w3.org/2000/svg" id="svg2" version="1.1" viewBox="0 0 256 256"><metadata id="metadata7"/><g id="layer2" style="display:inline"><g id="g4172"><path id="path4141" d="M 129.209,204.89304 C 94.696952,172.06866 68.989952,129.43886 69.401862,76.064532 77.643369,75.944622 107.2,61.72052 128.99776,45.385894 135.28358,48.70079 147.06879,185.31156 129.209,204.89304 Z" style="display:inline;fill:#fae;fill-opacity:1;fill-rule:evenodd;stroke:#f0c;stroke-width:6.22466183;stroke-linecap:butt;stroke-linejoin:miter;stroke-miterlimit:4;stroke-dasharray:none;stroke-opacity:1"/><path style="display:inline;fill:#fae;fill-opacity:1;fill-rule:evenodd;stroke:#f0c;stroke-width:6.22466183;stroke-linecap:butt;stroke-linejoin:miter;stroke-miterlimit:4;stroke-dasharray:none;stroke-opacity:1" id="path4157" d="M 129.209,204.89304 C 94.653147,167.77744 98.10955,65.949111 128.99776,45.385894 c 3.47158,2.394582 7.05043,4.730681 10.65246,6.974159 4.22379,2.630723 7.3281,22.354813 7.3281,22.354813 0,0 13.25692,-10.570628 16.96396,-8.713418 10.92557,5.473655 19.93128,9.022226 23.85399,9.361444 0.0346,17.350716 -2.46774,33.326668 -7.03255,48.193208 -0.52506,1.70997 -9.72309,1.83633 -9.72309,1.83633 l -7.97079,-4.31257 0.18031,12.8043 c 0,0 9.66705,10.363 7.02534,15.58073 -3.68231,7.27304 -7.87087,14.27555 -12.49344,21.04796 -2.03848,2.98653 -19.24191,6.55598 -19.24191,6.55598 0,0 7.93856,8.60883 5.3342,11.70643 -4.63046,5.50745 -9.53439,10.87137 -14.66534,16.11778 z"/><path style="display:inline;fill:#ff8ce7;fill-opacity:1;fill-rule:evenodd;stroke:none;stroke-width:1px;stroke-linecap:butt;stroke-linejoin:miter;stroke-opacity:1" id="path4159" d="m 72.473119,78.954329 c 9.653632,-2.472397 39.718571,-18.425235 56.382661,-30.074639 -0.14011,28.024064 1.24589,98.4633 0.26367,151.85611 C 79.958096,152.22917 72.198117,106.63168 72.473119,78.954329 Z"/><path style="display:inline;opacity:1;fill:none;fill-rule:evenodd;stroke:#f0c;stroke-width:8.38825703;stroke-linecap:round;stroke-linejoin:miter;stroke-miterlimit:4;stroke-dasharray:none;stroke-opacity:1" id="path4161" d="m 102.87449,148.7943 25.7374,-77.675035 26.69094,77.270725 -68.806697,-47.35108 85.011457,0.14761 z"/></g></g></svg>