<svg xmlns="http://www.w3.org/2000/svg" xmlns:svg="http://www.w3.org/2000/svg" id="svg2" version="1.1" viewBox="0 0 256 256"><metadata id="metadata7"/><g id="layer2" style="display:inline"><ellipse style="display:inline;opacity:1;fill:#fae;fill-opacity:1;stroke:none;stroke-width:8.05607319;stroke-linecap:round;stroke-linejoin:round;stroke-miterlimit:4;stroke-dasharray:none;stroke-dashoffset:0;stroke-opacity:1" id="path4205-6" cx="126.947" cy="73.252" rx="47.054" ry="45.624"/><path style="display:inline;opacity:1;fill:none;fill-rule:evenodd;stroke:#f0c;stroke-width:6.46366262;stroke-linecap:round;stroke-linejoin:miter;stroke-miterlimit:4;stroke-dasharray:none;stroke-opacity:1" id="path4279-7" d="m 106.93644,100.30301 19.83223,-59.853351 20.567,59.541787 -53.019737,-36.486881 65.506487,0.11374 z"/><path style="display:inline;fill:#fff1fc;fill-opacity:.78431373;fill-rule:evenodd;stroke:none;stroke-width:1px;stroke-linecap:butt;stroke-linejoin:miter;stroke-opacity:1" id="path4216-8" d="m 128.86296,32.917991 c 11.28706,0.612513 22.89998,5.862571 32.04795,14.653684 6.19133,10.992431 8.32925,23.341864 5.58275,34.61471 C 165.56606,70.772374 159.7269,61.039697 152.22177,54.32955 147.48319,45.236622 139.2684,37.09413 128.86296,32.917991 Z"/><path style="display:inline;fill:#ff83e5;fill-opacity:.78431373;fill-rule:evenodd;stroke:none;stroke-width:1px;stroke-linecap:butt;stroke-linejoin:miter;stroke-opacity:1" id="path4216-2-0" d="m 90.824893,50.374605 c -3.257143,15.684576 1.628794,29.199358 9.654037,38.376136 5.31118,11.456749 15.99359,21.264619 30.15017,24.740259 -14.55027,0.0274 -29.08132,-6.82599 -39.061871,-18.990817 -6.769557,-13.74449 -7.343474,-29.563247 -0.742336,-44.125578 z"/><path style="fill:#ff83e5;fill-opacity:.78431373;fill-rule:evenodd;stroke:none;stroke-width:1px;stroke-linecap:butt;stroke-linejoin:miter;stroke-opacity:1" id="path4177" d="M 74.521954,69.781819 C 51.373813,77.917216 30.505712,94.009256 62.329667,133.37124 20.396279,97.789086 35.187489,77.193211 74.521954,69.781819 Z"/><ellipse style="opacity:1;fill:#f06;fill-opacity:.78431373;stroke:none;stroke-width:8;stroke-linecap:round;stroke-linejoin:round;stroke-miterlimit:4;stroke-dasharray:none;stroke-dashoffset:0;stroke-opacity:1" id="path4179" cx="83.203" cy="173.83" rx="28.177" ry="27.353"/><ellipse id="ellipse4181" cx="83.203" cy="173.83" rx="36.948" ry="35.868" style="opacity:1;fill:none;fill-opacity:.78431373;stroke:#ff56dd;stroke-width:8;stroke-linecap:round;stroke-linejoin:round;stroke-miterlimit:4;stroke-dasharray:none;stroke-dashoffset:0;stroke-opacity:1"/><path style="fill:none;fill-rule:evenodd;stroke:#ffd5e5;stroke-width:8;stroke-linecap:round;stroke-linejoin:miter;stroke-miterlimit:4;stroke-dasharray:none;stroke-opacity:1" id="path4183" d="M 63.738585,174.00905 101.7743,173.83048"/><ellipse style="display:inline;opacity:1;fill:#5fd35f;fill-opacity:.78431373;stroke:none;stroke-width:8;stroke-linecap:round;stroke-linejoin:round;stroke-miterlimit:4;stroke-dasharray:none;stroke-dashoffset:0;stroke-opacity:1" id="path4179-2" cx="179.154" cy="173.629" rx="28.177" ry="27.353"/><path style="display:inline;fill:none;fill-rule:evenodd;stroke:#d7f4d7;stroke-width:8;stroke-linecap:round;stroke-linejoin:miter;stroke-miterlimit:4;stroke-dasharray:none;stroke-opacity:1" id="path4183-2" d="m 159.68985,173.80782 38.03571,-0.17857"/><path style="display:inline;fill:none;fill-rule:evenodd;stroke:#d7f4d7;stroke-width:8;stroke-linecap:round;stroke-linejoin:miter;stroke-miterlimit:4;stroke-dasharray:none;stroke-opacity:1" id="path4183-2-0" d="m 179.57972,154.86451 -0.34607,38.03455"/></g></svg>