<svg xmlns="http://www.w3.org/2000/svg" xmlns:svg="http://www.w3.org/2000/svg" id="svg2" version="1.1" viewBox="0 0 256 256"><metadata id="metadata7"/><g id="layer2" style="display:inline"><path style="display:inline;fill:#ff64e0;fill-opacity:1;fill-rule:evenodd;stroke:#660052;stroke-width:8.12015247;stroke-linecap:butt;stroke-linejoin:miter;stroke-miterlimit:4;stroke-dasharray:none;stroke-opacity:1" id="path4246" d="M 129.39541,229.09719 C 84.373996,186.27735 50.838879,130.66622 51.37622,61.038713 c 10.751155,-0.156423 49.30817,-18.71195 77.74363,-40.020684 9.05913,6.248686 18.67818,12.192091 27.97921,17.473749 6.91953,3.929312 7.01189,16.970961 7.01189,16.970961 0,0 21.57066,-2.479716 27.65971,0.296398 6.16594,2.811169 11.19576,4.11723 14.05262,4.364277 0.039,19.600863 -2.40372,37.856816 -6.92637,54.992656 -1.46189,5.53894 -11.09549,15.38045 -11.09549,15.38045 l -13.24851,0.68065 8.71488,13.25391 c 0,0 0.28543,11.36035 -2.46238,16.52237 -5.5258,10.38074 -11.84262,20.33922 -18.82291,29.9468 -2.15569,2.96706 -16.29599,3.44574 -16.29599,3.44574 0,0 4.94304,11.23251 2.50461,14.12368 -5.94175,7.04491 -12.22608,13.91006 -18.79571,20.62752 z"/><path style="display:inline;fill:#941079;fill-opacity:1;fill-rule:evenodd;stroke:none;stroke-width:1px;stroke-linecap:butt;stroke-linejoin:miter;stroke-opacity:1" id="path4248" d="M 55.382716,64.808492 C 67.976003,61.583219 107.19611,40.772532 128.93463,25.575732 128.75184,62.133491 130.55991,154.02238 129.2786,223.67401 65.146967,160.39649 55.023973,100.91397 55.382716,64.808492 Z"/><g style="display:inline" id="g4172" transform="matrix(0.9,0,0,0.9,13.548584,9.8234225)"><path id="path4141-9" d="M 129.209,204.89304 C 94.696952,172.06866 68.989952,129.43886 69.401862,76.064532 77.643369,75.944622 107.2,61.72052 128.99776,45.385894 135.28358,48.70079 147.06879,185.31156 129.209,204.89304 Z" style="display:inline;fill:#fae;fill-opacity:1;fill-rule:evenodd;stroke:#f0c;stroke-width:6.22466183;stroke-linecap:butt;stroke-linejoin:miter;stroke-miterlimit:4;stroke-dasharray:none;stroke-opacity:1"/><path style="display:inline;fill:#fae;fill-opacity:1;fill-rule:evenodd;stroke:#f0c;stroke-width:6.22466183;stroke-linecap:butt;stroke-linejoin:miter;stroke-miterlimit:4;stroke-dasharray:none;stroke-opacity:1" id="path4157" d="M 129.209,204.89304 C 94.653147,167.77744 98.10955,65.949111 128.99776,45.385894 c 3.47158,2.394582 7.05043,4.730681 10.65246,6.974159 4.22379,2.630723 7.3281,22.354813 7.3281,22.354813 0,0 13.25692,-10.570628 16.96396,-8.713418 10.92557,5.473655 19.93128,9.022226 23.85399,9.361444 0.0346,17.350716 -2.46774,33.326668 -7.03255,48.193208 -0.52506,1.70997 -9.72309,1.83633 -9.72309,1.83633 l -7.97079,-4.31257 0.18031,12.8043 c 0,0 9.66705,10.363 7.02534,15.58073 -3.68231,7.27304 -7.87087,14.27555 -12.49344,21.04796 -2.03848,2.98653 -19.24191,6.55598 -19.24191,6.55598 0,0 7.93856,8.60883 5.3342,11.70643 -4.63046,5.50745 -9.53439,10.87137 -14.66534,16.11778 z"/><path style="display:inline;fill:#ff8ce7;fill-opacity:1;fill-rule:evenodd;stroke:none;stroke-width:1px;stroke-linecap:butt;stroke-linejoin:miter;stroke-opacity:1" id="path4159" d="m 72.473119,78.954329 c 9.653632,-2.472397 39.718571,-18.425235 56.382661,-30.074639 -0.14011,28.024064 1.24589,98.4633 0.26367,151.85611 C 79.958096,152.22917 72.198117,106.63168 72.473119,78.954329 Z"/><path style="display:inline;opacity:1;fill:none;fill-rule:evenodd;stroke:#f0c;stroke-width:8.38825703;stroke-linecap:round;stroke-linejoin:miter;stroke-miterlimit:4;stroke-dasharray:none;stroke-opacity:1" id="path4161" d="m 102.87449,148.7943 25.7374,-77.675035 26.69094,77.270725 -68.806697,-47.35108 85.011457,0.14761 z"/></g></g></svg>