<svg xmlns="http://www.w3.org/2000/svg" xmlns:svg="http://www.w3.org/2000/svg" id="svg2" version="1.1" viewBox="0 0 256 256"><metadata id="metadata7"/><g id="layer2" style="display:inline"><path style="display:inline;fill:#ff64e0;fill-opacity:1;fill-rule:evenodd;stroke:#660052;stroke-width:8.12015247;stroke-linecap:butt;stroke-linejoin:miter;stroke-miterlimit:4;stroke-dasharray:none;stroke-opacity:1" id="path4246" d="M 129.39541,229.09719 C 84.373996,186.27735 50.838879,130.66622 51.37622,61.038713 c 10.751155,-0.156423 49.30817,-18.71195 77.74363,-40.020684 30.16238,20.805008 66.53188,38.225802 76.70343,39.105385 0.13942,70.098426 -31.46159,122.995626 -76.42787,168.973776 z"/><path style="display:inline;fill:#941079;fill-opacity:1;fill-rule:evenodd;stroke:none;stroke-width:1px;stroke-linecap:butt;stroke-linejoin:miter;stroke-opacity:1" id="path4248" d="M 55.382716,64.808492 C 67.976003,61.583219 107.19611,40.772532 128.93463,25.575732 128.75184,62.133491 130.55991,154.02238 129.2786,223.67401 65.146967,160.39649 55.023973,100.91397 55.382716,64.808492 Z"/><g id="g4230" transform="matrix(1.185921,0,0,1.185921,-20.913945,-25.711951)"><path id="path4141" d="M 126.48956,181.71774 C 102.91737,159.29825 85.359143,130.18152 85.640483,93.726137 c 5.62906,-0.0819 25.816637,-9.797153 40.704797,-20.953923 15.79234,10.89303 34.83459,20.014163 40.16018,20.474693 0.073,36.701943 -16.47257,64.397723 -40.0159,88.470833 z" style="display:inline;fill:#fae;fill-opacity:1;fill-rule:evenodd;stroke:#f0c;stroke-width:4.25152779;stroke-linecap:butt;stroke-linejoin:miter;stroke-miterlimit:4;stroke-dasharray:none;stroke-opacity:1"/><path id="path4163-2-4-1" d="m 87.738193,95.699907 c 6.59356,-1.68868 27.128317,-12.584683 38.510117,-20.541383 -0.0957,19.140813 0.85096,67.251756 0.18009,103.719766 C 92.850533,145.74761 87.550363,114.60391 87.738193,95.699907 Z" style="display:inline;fill:#ff8ce7;fill-opacity:1;fill-rule:evenodd;stroke:none;stroke-width:1px;stroke-linecap:butt;stroke-linejoin:miter;stroke-opacity:1"/><path id="path4279-7" d="M 108.50274,143.40155 126.08173,90.348453 144.312,143.1254 97.3161,110.78397 l 58.06397,0.10082 z" style="display:inline;opacity:1;fill:none;fill-rule:evenodd;stroke:#f0c;stroke-width:5.72929239;stroke-linecap:round;stroke-linejoin:miter;stroke-miterlimit:4;stroke-dasharray:none;stroke-opacity:1"/></g></g></svg>