<svg xmlns="http://www.w3.org/2000/svg" xmlns:svg="http://www.w3.org/2000/svg" xmlns:xlink="http://www.w3.org/1999/xlink" id="svg2" version="1.1" viewBox="0 0 256 256"><defs id="defs4"><linearGradient id="elementalFire2"><stop style="stop-color:#fc0;stop-opacity:1" id="stop4571" offset="0"/><stop style="stop-color:#ffdf5f;stop-opacity:1" id="stop4573" offset="1"/></linearGradient><linearGradient id="linearGradient4589" x1="22.793" x2="23.371" y1="43.283" y2="40.971" gradientUnits="userSpaceOnUse" xlink:href="#elementalFire2"/><linearGradient id="linearGradient4597" x1="22.793" x2="23.371" y1="43.283" y2="40.971" gradientUnits="userSpaceOnUse" xlink:href="#elementalFire2"/><linearGradient id="wildFire1"><stop id="stop4365" offset="0" style="stop-color:#f46e16;stop-opacity:1"/><stop id="stop4367" offset="1" style="stop-color:#f4900c;stop-opacity:1"/></linearGradient><linearGradient id="linearGradient4337" x1="150" x2="129.286" y1="167.429" y2="166.357" gradientTransform="matrix(0.02335621,1.4825315,-2.0489153,0.0109259,466.5489,-8.1938987)" gradientUnits="userSpaceOnUse" xlink:href="#wildFire2"/><linearGradient id="wildFire2"><stop id="stop4371" offset="0" style="stop-color:#ffb14d;stop-opacity:1"/><stop id="stop4373" offset="1" style="stop-color:#ffcc4d;stop-opacity:1"/></linearGradient><linearGradient id="linearGradient4792" x1="11.984" x2="10.376" y1="41.34" y2="34.175" gradientTransform="matrix(11.669756,2.4206911,-2.4206911,11.669756,87.360024,-341.86486)" gradientUnits="userSpaceOnUse" xlink:href="#wildFire1"/></defs><metadata id="metadata7"/><g id="layer2" style="display:inline"><path style="fill:url(#linearGradient4792);fill-opacity:1;fill-rule:evenodd;stroke:none;stroke-width:.5;stroke-linecap:butt;stroke-linejoin:miter;stroke-miterlimit:4;stroke-dasharray:none;stroke-opacity:1" id="path4859" d="M 40.328872,99.502999 C 39.918127,85.57417 44.944274,75.277124 52.793325,68.294846 c 3.533534,-3.143324 7.623905,-5.652389 12.078447,-7.443517 8.918834,-3.586173 18.96155,-4.699942 28.417995,-3.559455 4.183819,0.504531 8.252853,1.45046 12.059043,2.818641 3.45982,1.24375 6.70247,2.836394 9.61667,4.763893 4.55373,3.011916 8.3055,6.841343 10.83086,11.434115 12.09675,-30.502658 85.44247,-30.878561 86.78443,24.690267 0.96381,39.90716 -41.28375,78.42891 -82.84046,123.58127 C 85.918203,180.39229 41.551333,140.95805 40.328872,99.502999 Z"/><path style="fill:#fff6d5;fill-opacity:1;fill-rule:evenodd;stroke:none;stroke-width:.85589993;stroke-linecap:butt;stroke-linejoin:miter;stroke-miterlimit:4;stroke-dasharray:none;stroke-opacity:1" id="path4152" d="m 160.13647,64.199874 c 11.39578,-3.938481 24.97502,-0.810014 35.68037,8.442374 7.27131,9.308633 11.10709,21.426885 9.92845,34.385022 C 204.43504,94.056991 198.16552,84.025921 190.42211,77.8251 183.22086,68.621527 171.97598,62.714511 160.13647,64.199874 Z"/><path style="display:inline;fill:url(#linearGradient4337);fill-opacity:1;fill-rule:evenodd;stroke:none;stroke-width:1px;stroke-linecap:butt;stroke-linejoin:miter;stroke-opacity:1" id="path4325-94-4" d="m 133.32387,110.15663 c 14.9719,64.18352 -36.179286,107.62403 -34.039056,47.66016 -6.7548,4.49671 -12.24081,11.52012 -16.14648,19.40039 14.14189,15.37846 30.411006,31.06491 46.611316,47.40039 8.86752,-9.63477 17.74027,-18.95366 26.24415,-28.0625 -8.85159,-8.82525 11.94115,-37.08443 -22.66993,-86.39844 z m 31.19922,61.06836 c 1.49935,4.92072 2.46824,9.20269 2.97266,12.8418 1.52192,-1.68648 3.01548,-3.3655 4.49219,-5.03906 -2.11354,-2.64012 -4.5814,-5.23398 -7.46485,-7.80274 z"/></g></svg>