<svg xmlns="http://www.w3.org/2000/svg" xmlns:svg="http://www.w3.org/2000/svg" xmlns:xlink="http://www.w3.org/1999/xlink" id="svg2" version="1.1" viewBox="0 0 256 256"><defs id="defs4"><linearGradient id="calmWaters3"><stop style="stop-color:#0aceff;stop-opacity:1" id="stop4331" offset="0"/><stop style="stop-color:#5df;stop-opacity:1" id="stop4333" offset="1"/></linearGradient><linearGradient id="calmWaters2"><stop style="stop-color:#5fdfff;stop-opacity:1" id="stop4323" offset="0"/><stop style="stop-color:#7ce5ff;stop-opacity:1" id="stop4325" offset="1"/></linearGradient><linearGradient id="calmWaters1"><stop style="stop-color:#85e7ff;stop-opacity:1" id="stop4315" offset="0"/><stop style="stop-color:#9becff;stop-opacity:1" id="stop4317" offset="1"/></linearGradient><linearGradient id="linearGradient4319" x1="139.286" x2="140.536" y1="203.321" y2="196.179" gradientTransform="matrix(1.788647,0,0,1.7340694,-113.97653,-231.56275)" gradientUnits="userSpaceOnUse" xlink:href="#calmWaters1"/><linearGradient id="linearGradient4327" x1="138.393" x2="139.643" y1="214.929" y2="209.393" gradientTransform="matrix(1.788647,0,0,1.7340694,-113.97653,-231.56275)" gradientUnits="userSpaceOnUse" xlink:href="#calmWaters2"/><linearGradient id="linearGradient4335" x1="141.964" x2="143.036" y1="225.464" y2="220.107" gradientTransform="matrix(1.788647,0,0,1.7340694,-113.97653,-231.56275)" gradientUnits="userSpaceOnUse" xlink:href="#calmWaters3"/></defs><metadata id="metadata7"/><g id="layer2" style="display:inline"><path style="fill:url(#linearGradient4319);fill-opacity:1;fill-rule:evenodd;stroke:none;stroke-width:1px;stroke-linecap:butt;stroke-linejoin:miter;stroke-opacity:1" id="path4281" d="m 22.632789,117.43223 c 10.378692,-11.64866 29.376915,-22.435528 55.957047,-22.552803 36.119394,-0.159361 63.427094,17.378233 94.727294,18.392583 22.52461,0.72995 39.44525,-1.08031 59.15463,-13.575477 -1.09789,13.003247 -26.72521,27.976557 -60.35369,27.807837 -34.44465,-0.17289 -67.28834,-19.10777 -96.725763,-19.92531 -19.773406,-0.54915 -36.388928,0.59234 -52.759518,9.85317 z"/><path style="display:inline;fill:url(#linearGradient4327);fill-opacity:1;fill-rule:evenodd;stroke:none;stroke-width:.85674423px;stroke-linecap:butt;stroke-linejoin:miter;stroke-opacity:1" id="path4281-3" d="m 22.019088,127.80505 c 10.401295,-8.53165 19.448553,-13.14773 46.086575,-13.23362 36.198047,-0.1167 57.969467,20.61061 104.126527,21.5725 22.57836,0.47052 39.53108,-8.0169 59.2834,-17.16855 -1.1003,9.52379 -26.78295,27.66914 -60.48512,27.59255 -55.70339,-0.12659 -72.630855,-24.06696 -102.132382,-24.66574 -19.816458,-0.4022 -30.472759,-0.66095 -46.879,5.90286 z"/><path style="display:inline;fill:url(#linearGradient4335);fill-opacity:1;fill-rule:evenodd;stroke:none;stroke-width:.85674423px;stroke-linecap:butt;stroke-linejoin:miter;stroke-opacity:1" id="path4281-3-7" d="m 21.591455,136.3447 c 11.200679,-5.24726 22.246404,-7.34531 41.689945,-7.10275 36.189292,0.45145 64.36458,24.33292 110.52162,25.29481 22.57836,0.47052 39.53108,-8.0169 59.2834,-17.16856 -1.10029,9.52379 -26.78294,27.66914 -60.48509,27.59255 -55.7034,-0.12659 -79.164263,-27.95587 -108.327657,-30.46815 -11.023204,-0.9496 -29.073832,-1.20836 -42.682218,1.8521 z"/></g></svg>