<svg xmlns="http://www.w3.org/2000/svg" xmlns:svg="http://www.w3.org/2000/svg" id="svg2" version="1.1" viewBox="0 0 256 256"><metadata id="metadata7"/><g id="layer2" style="display:inline"><path style="fill:none;fill-rule:evenodd;stroke:#535d6c;stroke-width:15;stroke-linecap:butt;stroke-linejoin:miter;stroke-miterlimit:4;stroke-dasharray:none;stroke-opacity:1" id="path4181" d="M 66.611268,94.513996 C 95.558166,59.0462 167.20648,56.466997 197.48271,84.283557"/><path style="fill:none;fill-rule:evenodd;stroke:#535d6c;stroke-width:15;stroke-linecap:butt;stroke-linejoin:miter;stroke-miterlimit:4;stroke-dasharray:none;stroke-opacity:1" id="path4183" d="M 83.394779,108.95698 C 105.79062,82.055007 166.6654,89.012512 182.69723,99.12773"/><path style="fill:#6f7c91;fill-opacity:1;fill-rule:evenodd;stroke:none;stroke-width:1px;stroke-linecap:butt;stroke-linejoin:miter;stroke-opacity:1" id="path4176" d="M 120.1626,36.530458 C 75.607985,42.1434 34.323336,59.452783 40.1481,86.209784 c 9.69556,44.538076 134.0202,44.051396 168.17416,-1.736031 -7.86291,16.574167 -38.86089,40.307797 -87.3113,43.119957 21.43049,4.01318 102.26481,-9.76874 98.33222,-45.95749 C 213.54505,28.280172 79.065152,36.73617 51.216924,78.51633 57.465999,66.358313 61.844948,52.071366 120.1626,36.530458 Z m 22.83458,16.119174 a 26.589778,62.013525 85.0793 0 1 51.63856,21.74925 26.589778,62.013525 85.0793 0 1 -59.62148,31.772928 26.589778,62.013525 85.0793 0 1 -63.957512,-21.231082 26.589778,62.013525 85.0793 0 1 59.621472,-31.772925 26.589778,62.013525 85.0793 0 1 12.31896,-0.518171 z"/><path style="fill:#535d6c;fill-opacity:1;fill-rule:evenodd;stroke:none;stroke-width:1px;stroke-linecap:butt;stroke-linejoin:miter;stroke-opacity:1" id="path4185" d="m 64.013816,119.18741 c 25.559496,15.49946 89.372764,20.02277 134.025834,-1.30116 -21.45528,42.30267 -96.3304,69.73556 -130.225759,13.07575 17.598203,10.13223 29.170415,21.48851 72.125339,13.90182 -50.879743,0.0175 -65.45735,-16.59547 -75.925414,-25.67641 z"/><path style="fill:#6f7c91;fill-opacity:1;fill-rule:evenodd;stroke:none;stroke-width:1px;stroke-linecap:butt;stroke-linejoin:miter;stroke-opacity:1" id="path4187" d="m 79.526101,151.42052 c 7.798684,40.56691 59.245169,35.84107 84.075999,5.78747 -25.03113,12.15658 -59.91701,18.11543 -84.075999,-5.78747 z"/><path style="display:inline;fill:#535d6c;fill-opacity:1;fill-rule:evenodd;stroke:none;stroke-width:1px;stroke-linecap:butt;stroke-linejoin:miter;stroke-opacity:1" id="path4187-7" d="m 152.50256,171.50128 c -4.79359,23.02729 -44.05299,29.48876 -58.072044,7.81378 10.958464,9.27286 39.979484,7.33167 58.072044,-7.81378 z"/><path style="fill:#6f7c91;fill-opacity:1;fill-rule:evenodd;stroke:none;stroke-width:1px;stroke-linecap:butt;stroke-linejoin:miter;stroke-opacity:1" id="path4204" d="m 91.928416,182.52493 c 1.36922,14.73865 6.2936,28.7477 15.180074,41.94369 l 16.04752,-0.28927 c 3.29106,-10.58164 9.7964,-19.253 12.37317,-29.03421 -20.59273,2.07334 -33.32516,0.48315 -43.600764,-12.62021 z"/></g></svg>