<svg xmlns="http://www.w3.org/2000/svg" xmlns:svg="http://www.w3.org/2000/svg" xmlns:xlink="http://www.w3.org/1999/xlink" id="svg2" version="1.1" viewBox="0 0 256 256"><defs id="defs4"><linearGradient id="elementalFire2"><stop style="stop-color:#fc0;stop-opacity:1" id="stop4571" offset="0"/><stop style="stop-color:#ffdf5f;stop-opacity:1" id="stop4573" offset="1"/></linearGradient><linearGradient id="linearGradient4589" x1="22.793" x2="23.371" y1="43.283" y2="40.971" gradientUnits="userSpaceOnUse" xlink:href="#elementalFire2"/><linearGradient id="linearGradient4597" x1="22.793" x2="23.371" y1="43.283" y2="40.971" gradientUnits="userSpaceOnUse" xlink:href="#elementalFire2"/><linearGradient id="linearGradient4337" x1="150" x2="129.286" y1="167.429" y2="166.357" gradientTransform="matrix(0.02335621,1.4825315,-2.0489153,0.0109259,456.94395,-9.8834557)" gradientUnits="userSpaceOnUse" xlink:href="#wildFire2"/><linearGradient id="wildFire2"><stop id="stop4371" offset="0" style="stop-color:#ffb14d;stop-opacity:1"/><stop id="stop4373" offset="1" style="stop-color:#ffcc4d;stop-opacity:1"/></linearGradient><linearGradient id="linearGradient4353" x1="159.57" x2="75.049" y1="168.301" y2="167.229" gradientTransform="matrix(0.02335621,1.4825315,-2.0489153,0.0109259,457.92853,-10.731119)" gradientUnits="userSpaceOnUse" xlink:href="#wildFire1"/><linearGradient id="wildFire1"><stop id="stop4365" offset="0" style="stop-color:#f46e16;stop-opacity:1"/><stop id="stop4367" offset="1" style="stop-color:#f4900c;stop-opacity:1"/></linearGradient></defs><metadata id="metadata7"/><g id="layer2" style="display:inline"><path style="display:inline;fill:url(#linearGradient4353);fill-opacity:1;fill-rule:evenodd;stroke:none;stroke-width:1.20000005;stroke-linecap:butt;stroke-linejoin:miter;stroke-miterlimit:4;stroke-dasharray:none;stroke-opacity:1" id="path4323-9-3" d="m 74.924958,103.9679 c -35.290053,28.30707 -36.199455,111.90495 40.300772,120.68508 46.43613,5.32955 94.62326,-20.81371 83.16486,-86.4996 -3.74597,29.96786 -35.95339,25.05991 -34.11521,-1.33031 1.39598,-20.04153 22.89157,-49.493013 -29.63583,-111.060161 31.89101,59.354258 -25.38173,70.835778 -15.56925,29.368537 -15.66474,9.014811 -25.870666,30.890771 -19.891394,56.341884 5.813494,24.74529 -7.370638,29.27741 -15.65547,27.75251 -9.96125,-1.83349 -19.16924,-13.82881 -8.598478,-35.25794 z"/><path style="display:inline;fill:url(#linearGradient4337);fill-opacity:1;fill-rule:evenodd;stroke:none;stroke-width:1px;stroke-linecap:butt;stroke-linejoin:miter;stroke-opacity:1" id="path4325-94-4" d="m 66.875245,201.48014 c 0.315818,-16.16193 8.900277,-36.09721 22.804757,-45.3535 -2.140225,59.96387 49.010758,16.52471 34.038858,-47.65881 38.78501,55.26104 7.99342,84.08508 27.31169,88.74794 7.40249,1.78672 9.96144,-7.74335 3.88675,-27.67994 14.41234,12.83937 18.90582,26.24117 16.49361,43.49477 -17.84655,11.54037 -37.31158,14.03112 -57.74161,11.4746 -26.200767,-3.2787 -40.31223,-15.02535 -46.794055,-23.02506 z"/><path style="fill:#28170b;fill-rule:evenodd;stroke:none;stroke-width:1px;stroke-linecap:butt;stroke-linejoin:miter;stroke-opacity:1" id="path4707" d="m 110.35714,224.23819 10.35715,-85.38105 c 0,0 -31.908516,-23.23397 -43.928576,-38.57143 C 68.344661,89.515025 57.857143,63.857143 57.857143,63.857143 c 0,0 12.223702,23.980859 21.071428,33.928571 11.935994,13.419926 42.142859,33.571426 42.142859,33.571426 L 122.5,92.785714 c 0,0 -11.44242,-19.776539 -19.64286,-27.5 -5.217743,-4.914251 -18.214283,-11.428571 -18.214283,-11.428571 0,0 13.909901,4.309055 19.642853,8.571428 8.26924,6.14807 20,23.571429 20,23.571429 0,0 10.13645,-26.992878 20.35715,-36.428572 6.92794,-6.395836 25.71428,-11.785714 25.71428,-11.785714 0,0 -16.14412,6.865303 -21.78571,13.214286 -8.77598,9.876379 -16.42857,36.071428 -16.42857,36.071428 l -0.35715,29.285712 c 9.0915,-14.61777 21.82505,-24.682979 34.64286,-34.642854 C 154.2329,94.875759 142.34567,108.34567 132.5,123.85714 l 1.78571,32.5 c 4.56566,-4.51544 5.8161,-9.69392 8.21429,-14.64285 -0.54218,6.95329 -3.41497,13.51814 -6.78571,20 l 6.07329,62.90084 c -10.31779,1.60364 -22.27817,1.21572 -31.43044,-0.37694 z"/></g></svg>