<svg xmlns="http://www.w3.org/2000/svg" xmlns:svg="http://www.w3.org/2000/svg" id="svg2" version="1.1" viewBox="0 0 256 256"><metadata id="metadata7"/><g id="layer2" style="display:inline"><path style="display:inline;fill:#afe;fill-opacity:1;fill-rule:evenodd;stroke:none;stroke-width:1px;stroke-linecap:butt;stroke-linejoin:miter;stroke-opacity:1" id="path4174" d="m 115.93201,223.66346 c 26.3543,-46.36062 8.20015,-100.32995 -30.088203,-93.5815 -44.975966,7.92717 -26.964965,69.15233 12.470133,45.76997 -29.162743,6.9955 -39.987507,-25.68818 -8.429639,-29.96933 35.691279,-4.8419 30.493579,59.25275 26.047709,77.78086 z"/><path style="display:inline;fill:#f59;fill-opacity:1;fill-rule:evenodd;stroke:none;stroke-width:.62741786px;stroke-linecap:butt;stroke-linejoin:miter;stroke-opacity:1" id="path4174-6" d="M 119.03287,136.03537 C 112.4659,110.11891 125.60341,63.468534 86.477504,71.659971 58.082698,77.604732 69.775146,119.62524 99.570387,104.31241 79.06228,108.02126 70.046289,86.449068 89.849967,82.453202 119.10665,76.549996 103.17078,120.01781 119.03287,136.03537 Z"/><path style="display:inline;fill:#ff2a7f;fill-opacity:1;fill-rule:evenodd;stroke:none;stroke-width:.46137092px;stroke-linecap:butt;stroke-linejoin:miter;stroke-opacity:1" id="path4174-6-7" d="m 152.25864,195.45447 c 4.5918,-33.3464 1.71493,-68.034 25.15111,-63.03493 29.06692,6.20014 6.91743,36.13754 -8.96618,23.16715 12.78409,3.24545 24.15355,-10.85953 6.67515,-13.81159 -21.25838,-3.59049 -10.10218,37.58817 -22.86008,53.67937 z"/><path style="display:inline;fill:#afe9c6;fill-opacity:1;fill-rule:evenodd;stroke:none;stroke-width:.90186828px;stroke-linecap:butt;stroke-linejoin:miter;stroke-opacity:1" id="path4174-8" d="M 127.67883,210.27003 C 149.97156,123.4988 99.273321,44.679349 151.75585,36.39659 c 49.75522,-7.852336 35.91093,74.44533 -6.15567,42.74818 31.6095,11.462579 31.34246,-32.614111 7.99801,-28.471492 -42.03971,7.460127 8.91409,75.143412 -25.91936,159.596752 z"/><path style="fill:#80b3ff;fill-opacity:1;fill-rule:evenodd;stroke:none;stroke-width:1px;stroke-linecap:butt;stroke-linejoin:miter;stroke-opacity:1" id="path4239" d="m 188.64819,68.753063 c 7.03237,26.703304 -24.5962,31.651837 -37.33353,18.445738 25.018,9.072107 36.22817,-8.371908 37.33353,-18.445738 z"/><path style="display:inline;fill:#80b3ff;fill-opacity:1;fill-rule:evenodd;stroke:none;stroke-width:1px;stroke-linecap:butt;stroke-linejoin:miter;stroke-opacity:1" id="path4239-2" d="m 75.474162,153.89727 c -5.832759,20.48066 18.376768,25.83527 28.372298,16.14497 -19.359751,5.88664 -27.686454,-8.24068 -28.372298,-16.14497 z"/></g></svg>