<svg xmlns="http://www.w3.org/2000/svg" xmlns:svg="http://www.w3.org/2000/svg" xmlns:xlink="http://www.w3.org/1999/xlink" id="svg2" version="1.1" viewBox="0 0 256 256"><defs id="defs4"><linearGradient id="efficientBurn"><stop style="stop-color:#d4fffe;stop-opacity:1" id="stop4209" offset="0"/><stop id="stop4217" offset=".455" style="stop-color:#b4fdff;stop-opacity:.77254903"/><stop style="stop-color:#298dff;stop-opacity:.08878504" id="stop4211" offset="1"/></linearGradient><radialGradient id="radialGradient4215-4" cx="130.89" cy="135.363" r="74.165" fx="130.89" fy="135.363" gradientTransform="matrix(0.76493633,0.27930684,-0.30681594,0.73653168,67.269776,-5.1627329)" gradientUnits="userSpaceOnUse" xlink:href="#efficientBurn"/></defs><metadata id="metadata7"/><g id="layer2" style="display:inline"><path id="path4205-5" d="m 135.34455,99.132287 69.82999,-43.080792 -48.81343,63.402895 69.30767,-1.49424 -69.83535,18.7478 51.48038,48.26721 -65.76214,-34.60205 12.24383,64.40397 -31.80157,-57.26457 -24.130256,45.77072 10.366546,-47.17652 -47.162282,21.78844 34.594876,-38.5002 -63.116095,5.16035 64.075075,-17.84164 c 0,0 -46.974268,-20.77191 -44.716655,-20.82769 2.257609,-0.0558 50.733551,12.93169 50.733551,12.93169 L 65.53221,61.575042 117.25474,106.12629 c 0,0 8.31199,-67.530685 8.75772,-66.232292 0.44574,1.298394 9.33209,59.238289 9.33209,59.238289 z" style="fill:#59f;fill-opacity:1;fill-rule:evenodd;stroke:#59f;stroke-width:3.93073797;stroke-linecap:butt;stroke-linejoin:miter;stroke-miterlimit:4;stroke-dasharray:none;stroke-opacity:1"/><path style="fill:url(#radialGradient4215-4);fill-opacity:1;fill-rule:evenodd;stroke:none;stroke-width:3.24000001;stroke-linecap:butt;stroke-linejoin:miter;stroke-miterlimit:4;stroke-dasharray:none;stroke-opacity:1" id="path4193-3" d="m 133.3863,109.37417 46.74571,-28.839205 -32.67675,42.443255 46.39603,-1.00028 -46.74928,12.55019 34.46207,32.31111 -44.0226,-23.16337 8.19629,43.11341 -21.28865,-38.33413 -16.15332,30.63991 6.9396,-31.58099 -31.571444,14.58566 23.158544,-25.77287 -42.251266,3.45445 42.893236,-11.94356 c 0,0 -31.445585,-13.90517 -29.934286,-13.94252 1.51129,-0.0374 33.962116,8.65675 33.962116,8.65675 L 86.652438,84.232546 121.2766,114.0561 c 0,0 5.56423,-45.20648 5.86261,-44.337308 0.29839,0.869171 6.24709,39.655378 6.24709,39.655378 z"/></g></svg>