<svg xmlns="http://www.w3.org/2000/svg" xmlns:svg="http://www.w3.org/2000/svg" xmlns:xlink="http://www.w3.org/1999/xlink" id="svg2" version="1.1" viewBox="0 0 256 256"><defs id="defs4"><linearGradient id="linearGradient4604"><stop style="stop-color:#fae;stop-opacity:1" id="stop4606" offset="0"/><stop style="stop-color:#e005a5;stop-opacity:1" id="stop4608" offset="1"/></linearGradient><linearGradient id="linearGradient4610" x1="118.945" x2="158.215" y1="206.124" y2="192.865" gradientTransform="matrix(0.9,0,0,0.9,11.605069,14.585365)" gradientUnits="userSpaceOnUse" xlink:href="#linearGradient4604"/><linearGradient id="linearGradient4618" x1="94.828" x2="124.501" y1="203.472" y2="190.971" gradientTransform="matrix(0.9,0,0,0.9,11.605069,14.585365)" gradientUnits="userSpaceOnUse" xlink:href="#linearGradient4604"/></defs><metadata id="metadata7"/><g id="layer2" style="display:inline"><path style="fill:url(#linearGradient4610);fill-opacity:1;fill-rule:evenodd;stroke:none;stroke-width:1px;stroke-linecap:butt;stroke-linejoin:miter;stroke-opacity:1" id="path4600" d="m 106.60991,202.71049 51.70719,-17.15997 6.13668,-0.11364 -54.66189,17.72817 z"/><path style="fill:url(#linearGradient4618);fill-opacity:1;fill-rule:evenodd;stroke:none;stroke-width:1px;stroke-linecap:butt;stroke-linejoin:miter;stroke-opacity:1" id="path4602" d="m 86.267969,201.80134 2.954696,0.34093 41.252095,-17.38725 -5.56846,-0.45456 z"/><g id="g4568" transform="matrix(0.793881,0,0,0.793881,-104.01434,-135.69173)"><path style="fill:none;fill-rule:evenodd;stroke:#e005a5;stroke-width:7.66473246px;stroke-linecap:butt;stroke-linejoin:miter;stroke-opacity:1" id="path4544" d="m 334.40376,405.06155 c -0.0588,-6.21471 -2.18195,-6.36702 -2.18195,-6.36702 -4.01176,-10.82995 -6.72653,-27.91371 -9.51093,-36.82 -4.49078,-9.81589 -6.91273,-19.2032 -8.07319,-29.85385"/><path style="fill:none;fill-rule:evenodd;stroke:#e005a5;stroke-width:7.66473246px;stroke-linecap:butt;stroke-linejoin:miter;stroke-opacity:1" id="path4546" d="m 296.23296,329.10298 -0.1704,30.49426 c -1.12,8.79575 -1.80281,28.62527 -2.14868,35.58788 -0.62597,5.48896 -1.69796,1.53567 -2.0113,8.27806"/><path style="fill:none;fill-rule:evenodd;stroke:#e005a5;stroke-width:6.37349749;stroke-linecap:butt;stroke-linejoin:miter;stroke-miterlimit:4;stroke-dasharray:none;stroke-opacity:1" id="path4548" d="m 298.05035,284.74379 c -8.79855,0.20281 -11.34012,11.31429 -10.94842,13.68929 0.4605,2.79206 9.16595,9.55275 9.27409,17.45108"/><path style="fill:none;fill-rule:evenodd;stroke:#e005a5;stroke-width:6.37349749;stroke-linecap:butt;stroke-linejoin:miter;stroke-miterlimit:4;stroke-dasharray:none;stroke-opacity:1" id="path4550" d="m 316.20163,284.4523 c 11.24751,0.13559 14.4062,10.28181 14.26669,14.49535 -0.0732,2.21067 -13.25073,6.5102 -15.18828,18.1843"/><g id="g4552" transform="matrix(1.0552517,0,0,1.0692939,170.73789,175.16996)" style="fill:#e005a5;fill-opacity:1"><path id="path4554" d="m 115.46203,148.48201 24.5841,-1.24628 c -1.17045,-8.24284 -0.28546,-15.85485 -5.08332,-24.93615 -3.60229,-6.81835 7.16307,-7.2606 4.72538,-21.5058 -0.3387,-1.979253 -18.29535,-1.397664 -19.14237,0.23247 -7.482,14.39948 8.91974,15.19481 1.73538,21.36304 -5.0238,4.31325 -8.07495,15.92714 -6.81917,26.09272 z" style="fill:#e005a5;fill-opacity:1;fill-rule:evenodd;stroke:#e005a5;stroke-width:3.60778332;stroke-linecap:butt;stroke-linejoin:miter;stroke-miterlimit:4;stroke-dasharray:none;stroke-opacity:1"/><ellipse id="ellipse4556" cx="131.009" cy="83.903" rx="7.206" ry="8.121" transform="matrix(0.99979578,0.02020871,-0.02020871,0.99979578,0,0)" style="opacity:1;fill:#e005a5;fill-opacity:1;stroke:#e005a5;stroke-width:3.60778332;stroke-linecap:round;stroke-linejoin:round;stroke-miterlimit:4;stroke-dasharray:none;stroke-dashoffset:0;stroke-opacity:1"/><path id="path4558" d="M 134.9454,113.70106 C 111.94474,95.968769 93.332761,83.614925 88.694596,59.213392 63.252753,65.710227 47.757837,79.222839 38.331155,97.013736 l 26.68597,-3.398809 13.849106,12.448113 26.921899,-2.55149 z" style="fill:#e005a5;fill-opacity:1;fill-rule:evenodd;stroke:#e005a5;stroke-width:3.60778332;stroke-linecap:butt;stroke-linejoin:miter;stroke-miterlimit:4;stroke-dasharray:none;stroke-opacity:1"/><path id="path4560" d="m 128.20177,109.71721 c 23.69842,-16.788752 42.79441,-28.381155 48.41484,-52.575355 25.15853,7.519579 40.09471,21.64727 48.79483,39.804642 l -26.52685,-4.473651 -14.3408,11.877474 -26.79682,-3.63642 z" style="display:inline;fill:#e005a5;fill-opacity:1;fill-rule:evenodd;stroke:#e005a5;stroke-width:3.60778332;stroke-linecap:butt;stroke-linejoin:miter;stroke-miterlimit:4;stroke-dasharray:none;stroke-opacity:1"/><path id="path4562" d="m 121.51731,101.01904 c 1.303,-4.83708 -0.66059,-8.595615 -0.72322,-13.637738 l 16.93438,-0.937501 c -0.19309,4.982216 -0.77989,11.265083 -0.18492,14.558599 z" style="fill:#e005a5;fill-opacity:1;fill-rule:evenodd;stroke:#e005a5;stroke-width:1px;stroke-linecap:butt;stroke-linejoin:miter;stroke-opacity:1"/><path id="path4564" d="m 124.1124,83.586659 c -8.51343,-7.049407 -8.09503,-13.588423 -8.57143,-20.178571 1.96365,6.215687 2.30851,12.68431 11.51786,17.767857 z" style="fill:#e005a5;fill-opacity:1;fill-rule:evenodd;stroke:none;stroke-width:1px;stroke-linecap:butt;stroke-linejoin:miter;stroke-opacity:1"/><path id="path4566" d="m 133.98885,83.318802 c 6.99553,-7.049407 6.65173,-13.588423 7.04319,-20.178571 -1.61354,6.215687 -1.89691,12.68431 -9.46428,17.767857 z" style="display:inline;fill:#e005a5;fill-opacity:1;fill-rule:evenodd;stroke:none;stroke-width:1px;stroke-linecap:butt;stroke-linejoin:miter;stroke-opacity:1"/></g></g><g id="g4582" transform="matrix(0.4782969,0,0,0.4782969,34.300152,100.50736)"><path id="path4182" d="m 154.59661,214.6478 c -0.0588,-6.21471 -2.18195,-6.36702 -2.18195,-6.36702 -4.01176,-10.82995 -6.72653,-27.91371 -9.51093,-36.82 -4.49078,-9.81589 -6.91273,-19.2032 -8.07319,-29.85385" style="fill:none;fill-rule:evenodd;stroke:#fae;stroke-width:7.66473246px;stroke-linecap:butt;stroke-linejoin:miter;stroke-opacity:1"/><path id="path4184" d="m 116.42581,138.68923 -0.1704,30.49426 c -1.12,8.79575 -1.80281,28.62527 -2.14868,35.58788 -0.62597,5.48896 -1.69796,1.53567 -2.0113,8.27806" style="fill:none;fill-rule:evenodd;stroke:#fae;stroke-width:7.66473246px;stroke-linecap:butt;stroke-linejoin:miter;stroke-opacity:1"/><path id="path4188" d="m 118.2432,94.330036 c -8.79855,0.202813 -11.34012,11.314294 -10.94842,13.689294 0.4605,2.79206 9.16595,9.55275 9.27409,17.45108" style="fill:none;fill-rule:evenodd;stroke:#fae;stroke-width:6.37349749;stroke-linecap:butt;stroke-linejoin:miter;stroke-miterlimit:4;stroke-dasharray:none;stroke-opacity:1"/><path id="path4190" d="m 136.39448,94.038546 c 11.24751,0.135587 14.4062,10.281814 14.26669,14.495354 -0.0732,2.21067 -13.25073,6.5102 -15.18828,18.1843" style="fill:none;fill-rule:evenodd;stroke:#fae;stroke-width:6.37349749;stroke-linecap:butt;stroke-linejoin:miter;stroke-miterlimit:4;stroke-dasharray:none;stroke-opacity:1"/><g style="fill:#fae;fill-opacity:1;stroke:#fae;stroke-opacity:1" id="g4519" transform="matrix(1.0552517,0,0,1.0692939,-9.0692593,-15.243794)"><path style="fill:#fae;fill-opacity:1;fill-rule:evenodd;stroke:#fae;stroke-width:3.60778332;stroke-linecap:butt;stroke-linejoin:miter;stroke-miterlimit:4;stroke-dasharray:none;stroke-opacity:1" id="path4186" d="m 115.46203,148.48201 24.5841,-1.24628 c -1.17045,-8.24284 -0.28546,-15.85485 -5.08332,-24.93615 -3.60229,-6.81835 7.16307,-7.2606 4.72538,-21.5058 -0.3387,-1.979253 -18.29535,-1.397664 -19.14237,0.23247 -7.482,14.39948 8.91974,15.19481 1.73538,21.36304 -5.0238,4.31325 -8.07495,15.92714 -6.81917,26.09272 z"/><ellipse style="opacity:1;fill:#fae;fill-opacity:1;stroke:#fae;stroke-width:3.60778332;stroke-linecap:round;stroke-linejoin:round;stroke-miterlimit:4;stroke-dasharray:none;stroke-dashoffset:0;stroke-opacity:1" id="path4194" cx="131.009" cy="83.903" rx="7.206" ry="8.121" transform="matrix(0.99979578,0.02020871,-0.02020871,0.99979578,0,0)"/><path style="fill:#fae;fill-opacity:1;fill-rule:evenodd;stroke:#fae;stroke-width:3.60778332;stroke-linecap:butt;stroke-linejoin:miter;stroke-miterlimit:4;stroke-dasharray:none;stroke-opacity:1" id="path4198" d="M 134.9454,113.70106 C 111.94474,95.968769 93.332761,83.614925 88.694596,59.213392 63.252753,65.710227 47.757837,79.222839 38.331155,97.013736 l 26.68597,-3.398809 13.849106,12.448113 26.921899,-2.55149 z"/><path style="display:inline;fill:#fae;fill-opacity:1;fill-rule:evenodd;stroke:#fae;stroke-width:3.60778332;stroke-linecap:butt;stroke-linejoin:miter;stroke-miterlimit:4;stroke-dasharray:none;stroke-opacity:1" id="path4198-0" d="m 128.20177,109.71721 c 23.69842,-16.788752 42.79441,-28.381155 48.41484,-52.575355 25.15853,7.519579 40.09471,21.64727 48.79483,39.804642 l -26.52685,-4.473651 -14.3408,11.877474 -26.79682,-3.63642 z"/><path style="fill:#fae;fill-opacity:1;fill-rule:evenodd;stroke:#fae;stroke-width:1px;stroke-linecap:butt;stroke-linejoin:miter;stroke-opacity:1" id="path4488" d="m 121.51731,101.01904 c 1.303,-4.83708 -0.66059,-8.595615 -0.72322,-13.637738 l 16.93438,-0.937501 c -0.19309,4.982216 -0.77989,11.265083 -0.18492,14.558599 z"/><path style="fill:#fae;fill-opacity:1;fill-rule:evenodd;stroke:#fae;stroke-width:1px;stroke-linecap:butt;stroke-linejoin:miter;stroke-opacity:1" id="path4490" d="m 124.1124,83.586659 c -8.51343,-7.049407 -8.09503,-13.588423 -8.57143,-20.178571 1.96365,6.215687 2.30851,12.68431 11.51786,17.767857 z"/><path style="display:inline;fill:#fae;fill-opacity:1;fill-rule:evenodd;stroke:#fae;stroke-width:1px;stroke-linecap:butt;stroke-linejoin:miter;stroke-opacity:1" id="path4490-2" d="m 133.98885,83.318802 c 6.99553,-7.049407 6.65173,-13.588423 7.04319,-20.178571 -1.61354,6.215687 -1.89691,12.68431 -9.46428,17.767857 z"/></g></g></g></svg>