<svg xmlns="http://www.w3.org/2000/svg" xmlns:svg="http://www.w3.org/2000/svg" xmlns:xlink="http://www.w3.org/1999/xlink" id="svg2" version="1.1" viewBox="0 0 256 256"><defs id="defs4"><linearGradient id="weakeningCloud2"><stop id="stop4200" offset="0" style="stop-color:#5aa02c;stop-opacity:1"/><stop id="stop4202" offset="1" style="stop-color:#17280b;stop-opacity:1"/></linearGradient><linearGradient id="weakeningCloud1"><stop style="stop-color:#85b068;stop-opacity:1" id="stop4186" offset="0"/><stop style="stop-color:#250;stop-opacity:1" id="stop4188" offset="1"/></linearGradient><radialGradient id="radialGradient4192" cx="126.517" cy="87.302" r="70.921" fx="126.517" fy="87.302" gradientTransform="matrix(1.0001054,0.01396126,-0.01007632,0.72180973,0.85658526,21.54551)" gradientUnits="userSpaceOnUse" xlink:href="#weakeningCloud1"/><radialGradient id="radialGradient4196" cx="149.139" cy="76.041" r="59.24" fx="149.139" fy="76.041" gradientTransform="matrix(1.3254735,0.01267232,-0.00909637,0.9514434,-47.885304,0.16804733)" gradientUnits="userSpaceOnUse" xlink:href="#weakeningCloud2"/></defs><metadata id="metadata7"/><g id="layer2" style="display:inline"><path style="display:inline;fill:#71c837;fill-opacity:1;fill-rule:evenodd;stroke:none;stroke-width:2.4253366;stroke-linecap:butt;stroke-linejoin:miter;stroke-miterlimit:4;stroke-dasharray:none;stroke-opacity:1" id="path4194" d="m 181.60746,127.44242 -0.11454,16.4402 -52.33157,23.98196 -54.222618,-23.23804 0.123037,-17.64491 54.187061,24.55981 z"/><path style="display:inline;fill:#5aa02c;fill-opacity:1;fill-rule:evenodd;stroke:none;stroke-width:2.4253366;stroke-linecap:butt;stroke-linejoin:miter;stroke-miterlimit:4;stroke-dasharray:none;stroke-opacity:1" id="path4194-6" d="m 181.1832,155.88573 -0.11455,16.44034 -52.33156,23.98201 L 74.514475,173.07 74.637512,155.42493 128.82455,179.9849 Z"/><path style="display:inline;fill:#447821;fill-opacity:1;fill-rule:evenodd;stroke:none;stroke-width:2.4253366;stroke-linecap:butt;stroke-linejoin:miter;stroke-miterlimit:4;stroke-dasharray:none;stroke-opacity:1" id="path4194-6-0" d="m 181.04211,183.83492 -0.11454,16.44035 -52.33157,23.982 -54.222605,-23.23807 0.123037,-17.64508 54.187028,24.55997 z"/><path id="path4157" d="M 171.34489,91.251717 C 203.2972,111.61968 227.17836,60.123209 184.90542,56.28016 177.8232,36.62577 150.7021,26.908399 123.52646,46.947088 66.759364,43.598117 87.237248,116.06666 134.72597,92.459537 c 11.85863,5.9293 24.10154,5.21558 36.61892,-1.20782 z" style="fill:url(#radialGradient4196);fill-opacity:1;fill-rule:evenodd;stroke:none"/><path id="path4159" d="M 100.08397,113.43142 C 61.928124,137.09367 33.215148,77.416837 83.833396,72.969877 92.397857,50.186231 124.78913,39.041394 157.34519,62.209333 c 67.96655,-3.89785 43.42655,79.990127 -13.39584,52.704397 -14.21914,6.86257 -28.82267,5.98416 -43.86538,-1.48231 z" style="fill:url(#radialGradient4192);fill-opacity:1;fill-rule:evenodd;stroke:none"/></g></svg>