<svg xmlns="http://www.w3.org/2000/svg" xmlns:svg="http://www.w3.org/2000/svg" id="svg2" version="1.1" viewBox="0 0 256 256"><metadata id="metadata7"/><g id="layer2" style="display:inline"><path style="fill:#759fdf;fill-opacity:1;fill-rule:evenodd;stroke:none;stroke-width:1px;stroke-linecap:butt;stroke-linejoin:miter;stroke-opacity:1" id="path4275" d="m 122.98145,128.53291 c 103.29757,19.87558 -3.77351,83.61227 -71.966267,29.10398 -0.584476,25.19589 37.310703,84.66232 113.744427,29.84391 -26.87403,29.48701 -61.35479,38.09198 -104.041107,24.17109 23.702719,51.93682 182.927457,-6.56227 133.420587,-63.63411 10.92794,48.63146 -38.40652,70.87822 -73.31394,72.02001 54.36268,-3.59439 111.45681,-89.71551 2.1563,-91.50488 z"/><path style="fill:#a0b9df;fill-opacity:1;fill-rule:evenodd;stroke:none;stroke-width:1px;stroke-linecap:butt;stroke-linejoin:miter;stroke-opacity:1" id="path4277" d="m 170.41988,144.31811 c 7.95024,49.95444 -83.621686,47.58515 -103.502037,34.03686 12.094852,10.46239 41.374167,32.10089 94.876857,-0.73994 -11.55244,13.94135 -27.35877,16.98346 -42.31723,22.19796 35.03863,-1.8242 71.76145,-27.85843 50.94241,-55.49488 z"/><path style="display:inline;fill:#c0d0e9;fill-opacity:1;fill-rule:evenodd;stroke:none;stroke-width:1px;stroke-linecap:butt;stroke-linejoin:miter;stroke-opacity:1" id="path4239-5" d="m 148.42227,142.82703 c 31.61858,37.6572 -64.83104,36.8013 -81.052378,16.71433 25.754656,17.92836 101.916928,11.47829 81.052378,-16.71433 z"/><path style="display:inline;fill:#c0d0e9;fill-opacity:1;fill-rule:evenodd;stroke:none;stroke-width:1px;stroke-linecap:butt;stroke-linejoin:miter;stroke-opacity:1" id="path4239-5-4" d="m 207.6196,156.65242 c 27.62178,45.84603 -53.50685,93.09944 -113.359677,80.1777 46.737747,1.89192 127.229867,-28.78341 113.359677,-80.1777 z"/><g style="display:inline" id="g4167" transform="matrix(0.793881,0,0,0.793881,26.710929,-20.694026)"><path id="path4141" d="M 128.52731,218.53777 C 90.748011,182.60591 62.607307,135.94033 63.05821,77.513066 c 9.021735,-0.131244 41.3765,-15.701957 65.23787,-33.582981 25.31048,17.458335 55.8296,32.07682 64.36495,32.814922 0.11707,58.822423 -26.40068,103.210643 -64.13372,141.792763 z" style="fill:#a0b9df;fill-opacity:1;fill-rule:evenodd;stroke:none;stroke-width:2.85311675px;stroke-linecap:butt;stroke-linejoin:miter;stroke-opacity:1"/><path id="path4163-2-4" d="m 130.96787,48.291502 c 27.39433,15.932802 32.42856,21.99499 59.47264,30.787925 C 164.00137,76.31761 149.74374,67.99718 130.96787,48.291502 Z" style="display:inline;fill:#c0d0e9;fill-opacity:1;fill-rule:evenodd;stroke:none;stroke-width:1px;stroke-linecap:butt;stroke-linejoin:miter;stroke-opacity:1"/><path id="path4163-2-4-1" d="M 63.682486,78.242893 C 74.250031,75.536427 109.89898,57.312857 128.14065,44.560595 127.98727,75.237705 129.80869,161.01495 128.73348,219.46247 70.031687,157.87509 63.524303,108.32616 63.682486,78.242893 Z" style="display:inline;fill:#759fdf;fill-opacity:1;fill-rule:evenodd;stroke:none;stroke-width:1px;stroke-linecap:butt;stroke-linejoin:miter;stroke-opacity:1"/></g></g></svg>