<svg xmlns="http://www.w3.org/2000/svg" xmlns:svg="http://www.w3.org/2000/svg" id="svg2" version="1.1" viewBox="0 0 256 256"><metadata id="metadata7"/><g id="layer2" style="display:inline"><path style="display:inline;fill:#a0b9df;fill-opacity:1;fill-rule:evenodd;stroke:none;stroke-width:1px;stroke-linecap:butt;stroke-linejoin:miter;stroke-opacity:1" id="path4174" d="M 27.011342,130.8568 C 66.942521,153.06935 185.00269,138.97946 172.2776,85.137294 157.32989,21.890807 78.101738,63.186738 116.05749,104.48997 93.626973,63.86388 152.56442,39.931384 160.94661,84.372344 170.4267,134.63412 60.650039,137.91102 27.011342,130.8568 Z"/><path style="display:inline;fill:#759fdf;fill-opacity:1;fill-rule:evenodd;stroke:none;stroke-width:.62741786px;stroke-linecap:butt;stroke-linejoin:miter;stroke-opacity:1" id="path4174-6" d="m 147.25287,135.89181 c 25.86426,-8.10567 86.6652,6.04536 75.02731,-35.00811 -8.44595,-29.793694 -56.45338,-10.117641 -35.39817,13.21982 -8.97182,-21.05408 21.72459,-31.896794 27.4245,-11.11173 8.42066,30.70651 -45.54791,18.86861 -67.05364,32.90002 z"/><path style="display:inline;fill:#759fdf;fill-opacity:1;fill-rule:evenodd;stroke:none;stroke-width:.46137092px;stroke-linecap:butt;stroke-linejoin:miter;stroke-opacity:1" id="path4174-6-7" d="m 65.733452,158.35659 c 21.506276,4.40081 70.543378,-7.78179 62.911558,20.5646 -5.53864,20.5718 -45.668959,9.26158 -29.531051,-7.46556 -6.368223,14.66487 19.211961,20.71738 22.918791,6.37397 5.47619,-21.19002 -38.083548,-10.86687 -56.299298,-19.47301 z"/><path style="display:inline;fill:#a0b9df;fill-opacity:1;fill-rule:evenodd;stroke:none;stroke-width:.90186828px;stroke-linecap:butt;stroke-linejoin:miter;stroke-opacity:1" id="path4174-8" d="m 18.170337,140.37449 c 113.495303,20.17465 202.331623,-34.94928 216.583873,19.90495 9.1894,35.36823 -72.63835,32.62913 -45.57593,-6.08716 -13.89331,33.86791 43.38941,31.86126 37.26197,7.34215 -11.03448,-44.15508 -97.38836,12.3642 -208.269913,-21.15994 z"/><path style="fill:#c0d0e9;fill-opacity:1;fill-rule:evenodd;stroke:none;stroke-width:1px;stroke-linecap:butt;stroke-linejoin:miter;stroke-opacity:1" id="path4239" d="m 200.65917,189.53433 c -25.28011,-4.83611 -22.34189,-17.41908 -19.78517,-29.65213 -2.59153,19.37174 8.63573,24.47173 19.78517,29.65213 z"/><path style="display:inline;fill:#c0d0e9;fill-opacity:1;fill-rule:evenodd;stroke:none;stroke-width:1px;stroke-linecap:butt;stroke-linejoin:miter;stroke-opacity:1" id="path4239-9" d="m 119.56973,98.418165 c -11.08144,-23.952186 1.18975,-25.477541 10.7514,-32.306092 -15.70117,11.454782 -13.78306,18.240295 -10.7514,32.306092 z"/></g></svg>