<svg xmlns="http://www.w3.org/2000/svg" xmlns:svg="http://www.w3.org/2000/svg" id="svg2" version="1.1" viewBox="0 0 256 256"><defs id="defs4"><marker id="Arrow1Lstart" orient="auto" refX="0" refY="0" style="overflow:visible"><path id="path4473" d="M 0.0,0.0 L 5.0,-5.0 L -12.5,0.0 L 5.0,5.0 L 0.0,0.0 z" transform="scale(0.8) translate(12.5,0)" style="fill-rule:evenodd;stroke:#000;stroke-width:1pt"/></marker></defs><metadata id="metadata7"/><g id="layer2" style="display:inline"><path style="display:inline;fill:#374548;fill-opacity:1;fill-rule:evenodd;stroke:none;stroke-width:4.29362679;stroke-linecap:round;stroke-linejoin:round;stroke-miterlimit:4;stroke-dasharray:none;stroke-opacity:1" id="path4166-7" d="m 183.15636,106.74077 c 34.66245,22.17935 60.6599,-33.823952 14.76084,-37.998279 -7.75374,-21.394824 -37.1983,-31.89826 -66.6874,-10.132859 -61.665434,-3.630242 -39.392269,75.142578 12.12498,49.512888 12.90713,6.46027 26.19164,5.66679 39.80158,-1.38175 z"/><path style="fill:none;fill-rule:evenodd;stroke:#00aad4;stroke-width:8.49197102;stroke-linecap:round;stroke-linejoin:round;stroke-miterlimit:4;stroke-dasharray:8.49197125,8.49197125;stroke-dashoffset:0;stroke-opacity:1" id="path4467" d="M 89.995021,136.07735 64.674575,202.60201"/><path style="display:inline;fill:none;fill-rule:evenodd;stroke:#08a;stroke-width:8.49197102;stroke-linecap:round;stroke-linejoin:round;stroke-miterlimit:4;stroke-dasharray:8.49197125,8.49197125;stroke-dashoffset:0;stroke-opacity:1" id="path4467-5" d="M 114.96166,143.74145 89.641221,210.26611"/><path style="display:inline;fill:none;fill-rule:evenodd;stroke:#00aad4;stroke-width:8.49197102;stroke-linecap:round;stroke-linejoin:round;stroke-miterlimit:4;stroke-dasharray:8.49197125,8.49197125;stroke-dashoffset:0;stroke-opacity:1" id="path4467-3" d="M 143.96015,134.21172 118.6397,200.73639"/><path style="display:inline;fill:none;fill-rule:evenodd;stroke:#08a;stroke-width:8.49197102;stroke-linecap:round;stroke-linejoin:round;stroke-miterlimit:4;stroke-dasharray:8.49197125,8.49197125;stroke-dashoffset:0;stroke-opacity:1" id="path4467-7" d="m 164.77511,144.01699 -25.32047,66.52465"/><path style="display:inline;fill:none;fill-rule:evenodd;stroke:#00aad4;stroke-width:8.49197102;stroke-linecap:round;stroke-linejoin:round;stroke-miterlimit:4;stroke-dasharray:8.49197125,8.49197125;stroke-dashoffset:0;stroke-opacity:1" id="path4467-6" d="m 192.32859,132.0029 -25.32046,66.52467"/><path style="display:inline;fill:#53676c;fill-opacity:1;fill-rule:evenodd;stroke:none;stroke-width:4.29362679;stroke-linecap:round;stroke-linejoin:round;stroke-miterlimit:4;stroke-dasharray:none;stroke-opacity:1" id="path4166" d="M 93.065701,122.90321 C 54.598516,145.08256 25.747437,89.079262 76.684626,84.904935 85.289468,63.510111 117.96602,53.006675 150.69201,74.772076 c 68.43416,-3.630242 43.71618,75.142574 -13.4559,49.512884 -14.32388,6.46027 -29.06657,5.66679 -44.170409,-1.38175 z"/></g></svg>