<svg xmlns="http://www.w3.org/2000/svg" xmlns:svg="http://www.w3.org/2000/svg" id="svg2" version="1.1" viewBox="0 0 256 256"><defs id="defs4"><marker id="Arrow1Lstart" orient="auto" refX="0" refY="0" style="overflow:visible"><path id="path4473" d="M 0.0,0.0 L 5.0,-5.0 L -12.5,0.0 L 5.0,5.0 L 0.0,0.0 z" transform="scale(0.8) translate(12.5,0)" style="fill-rule:evenodd;stroke:#000;stroke-width:1pt"/></marker></defs><metadata id="metadata7"/><g id="layer2" style="display:inline"><path style="fill:#08a;fill-rule:evenodd;stroke:none;stroke-width:1px;stroke-linecap:butt;stroke-linejoin:miter;stroke-opacity:1" id="path4164" d="m 77.500001,100.13035 0.357143,95.71428 -12.142858,-7.5 11.071429,18.21429 105.714295,0.71429 12.85714,-15.71429 -13.21429,6.07143 0.35714,-97.5 z"/><path style="display:inline;fill:#53676c;fill-opacity:1;fill-rule:evenodd;stroke:none;stroke-width:4.29362679;stroke-linecap:round;stroke-linejoin:round;stroke-miterlimit:4;stroke-dasharray:none;stroke-opacity:1" id="path4166" d="M 100.36483,103.25077 C 58.904429,126.7745 27.808387,67.376595 82.709106,62.949245 91.983508,40.257592 127.2027,29.1175 162.47517,52.202192 c 73.75916,-3.850286 47.11782,79.697288 -14.50294,52.514078 -15.43845,6.85185 -31.3283,6.01028 -47.6074,-1.4655 z"/><path style="fill:none;fill-rule:evenodd;stroke:#87cdde;stroke-width:7.97679806;stroke-linecap:round;stroke-linejoin:round;stroke-miterlimit:4;stroke-dasharray:none;stroke-opacity:1" id="path4167" d="m 100.52521,120.37219 -0.2826,58.11344"/><path style="fill:none;fill-rule:evenodd;stroke:#87cdde;stroke-width:7.96184635;stroke-linecap:round;stroke-linejoin:round;stroke-miterlimit:4;stroke-dasharray:none;stroke-opacity:1" id="path4169" d="m 130.28498,125.41372 0.30194,48.53545"/><path style="display:inline;fill:none;fill-rule:evenodd;stroke:#87cdde;stroke-width:7.97589922;stroke-linecap:round;stroke-linejoin:round;stroke-miterlimit:4;stroke-dasharray:none;stroke-opacity:1" id="path4167-5" d="m 160.25105,121.25551 -0.28376,57.86202"/><path style="fill:#d7eef4;fill-rule:evenodd;stroke:none;stroke-width:1px;stroke-linecap:butt;stroke-linejoin:miter;stroke-opacity:1" id="path4188" d="m 75.927321,215.40264 108.843939,1.51523 c 16.74358,-7.09866 -0.68557,-22.78978 -8.5863,-16.66752 2.92321,-10.86306 -22.45193,-14.21499 -25.00128,0.50508 -4.4635,-17.71164 -35.18227,-17.59762 -31.56727,6.06092 -3.74824,-18.93354 -26.362482,-23.83228 -29.799491,-6.566 -7.445835,-12.75456 -29.67455,9.19568 -13.889598,15.15229 z"/></g></svg>