<svg xmlns="http://www.w3.org/2000/svg" xmlns:svg="http://www.w3.org/2000/svg" id="svg2" version="1.1" viewBox="0 0 256 256"><metadata id="metadata7"/><g id="layer2" style="display:inline"><path style="fill:#e3dbdb;fill-rule:evenodd;stroke:none;stroke-width:1px;stroke-linecap:butt;stroke-linejoin:miter;stroke-opacity:1" id="path4197" d="M 55.714285,104.57143 C 57.857142,104.21428 178.92857,84.571429 178.92857,84.571429 l 37.85715,69.285711 -137.500006,23.57143 z"/><path style="fill:none;fill-rule:evenodd;stroke:#f06;stroke-width:3.70045257;stroke-linecap:round;stroke-linejoin:round;stroke-miterlimit:4;stroke-dasharray:none;stroke-opacity:1" id="path4201" d="m 194.98034,116.76563 -30.34046,5.59239 -8.63347,-7.69671 2.46671,21.38652 -26.64041,-35.45829 8.3868,56.60553 -17.76028,-34.84997 0.98668,15.67956 -16.52691,-26.92262 3.20672,39.50775 -8.63347,-14.33486"/><path style="fill:#6c5d53;fill-rule:evenodd;stroke:none;stroke-width:1px;stroke-linecap:butt;stroke-linejoin:miter;stroke-opacity:1" id="path4199" d="m 25,139.57142 2.5,12.5 69.642856,-23.92857 3.928574,8.21429 -0.35714,-13.92857 z"/><path style="fill:none;fill-rule:evenodd;stroke:gray;stroke-width:3;stroke-linecap:round;stroke-linejoin:round;stroke-miterlimit:4;stroke-dasharray:none;stroke-opacity:1" id="path4203" d="M 44.642857,108.85714 C 46.831468,101.41171 51.624479,95.769328 60,92.607143"/><path style="fill:none;fill-rule:evenodd;stroke:gray;stroke-width:3;stroke-linecap:round;stroke-linejoin:round;stroke-miterlimit:4;stroke-dasharray:none;stroke-opacity:1" id="path4205" d="M 60.714285,85.107144 C 43.603951,89.324479 36.917842,100.2431 33.035714,112.96428"/><path style="display:inline;fill:none;fill-rule:evenodd;stroke:gray;stroke-width:3;stroke-linecap:round;stroke-linejoin:round;stroke-miterlimit:4;stroke-dasharray:none;stroke-opacity:1" id="path4203-0" d="m 224.28715,147.58061 c 0.2104,7.75759 -2.61228,14.60172 -9.60711,20.18931"/><path style="display:inline;fill:none;fill-rule:evenodd;stroke:gray;stroke-width:3;stroke-linecap:round;stroke-linejoin:round;stroke-miterlimit:4;stroke-dasharray:none;stroke-opacity:1" id="path4205-6" d="m 216.30993,175.12544 c 14.9803,-9.28117 17.97938,-21.72809 17.75566,-35.02656"/></g></svg>