<svg xmlns="http://www.w3.org/2000/svg" xmlns:svg="http://www.w3.org/2000/svg" id="svg2" version="1.1" viewBox="0 0 256 256"><metadata id="metadata7"/><g id="layer2" style="display:inline"><circle style="opacity:1;fill:#d40055;fill-opacity:1;stroke:none;stroke-width:1;stroke-linecap:butt;stroke-linejoin:round;stroke-miterlimit:4;stroke-dasharray:none;stroke-dashoffset:0;stroke-opacity:1" id="path4151" cx="126.522" cy="128.295" r="25.506"/><path style="fill:#f06;fill-opacity:1;fill-rule:evenodd;stroke:none;stroke-width:1px;stroke-linecap:butt;stroke-linejoin:miter;stroke-opacity:1" id="path4153" d="M 103.2881,169.45865 C 62.971605,146.29489 67.499613,114.3335 102.53048,89.151516 83.477684,110.98343 69.988531,140.99985 103.2881,169.45865 Z"/><path style="display:inline;fill:#f59;fill-opacity:1;fill-rule:evenodd;stroke:none;stroke-width:1px;stroke-linecap:butt;stroke-linejoin:miter;stroke-opacity:1" id="path4153-1" d="M 88.067,184.3584 C 39.577407,152.52644 45.023348,108.60466 87.155793,73.999224 64.240549,104.00095 48.016828,145.24993 88.067,184.3584 Z"/><path style="display:inline;fill:#ffd5e5;fill-opacity:1;fill-rule:evenodd;stroke:none;stroke-width:1px;stroke-linecap:butt;stroke-linejoin:miter;stroke-opacity:1" id="path4153-2" d="M 73.924866,195.47007 C 13.353301,156.13539 20.156188,101.86134 72.786616,59.099473 44.161666,96.172538 23.895542,147.14381 73.924866,195.47007 Z"/><path style="display:inline;fill:#f06;fill-opacity:1;fill-rule:evenodd;stroke:none;stroke-width:1px;stroke-linecap:butt;stroke-linejoin:miter;stroke-opacity:1" id="path4153-7" d="m 151.17848,169.45865 c 40.3165,-23.16376 35.78849,-55.12515 0.75762,-80.307132 19.0528,21.831912 32.54195,51.848332 -0.75762,80.307132 z"/><path style="display:inline;fill:#f59;fill-opacity:1;fill-rule:evenodd;stroke:none;stroke-width:1px;stroke-linecap:butt;stroke-linejoin:miter;stroke-opacity:1" id="path4153-1-5" d="m 166.39958,184.3584 c 48.4896,-31.83196 43.04365,-75.75374 0.91121,-110.359174 22.91524,30.001724 39.13896,71.250704 -0.91121,110.359174 z"/><path style="display:inline;fill:#ffd5e5;fill-opacity:1;fill-rule:evenodd;stroke:none;stroke-width:1px;stroke-linecap:butt;stroke-linejoin:miter;stroke-opacity:1" id="path4153-2-5" d="m 180.54172,195.47007 c 60.57156,-39.33468 53.76867,-93.60873 1.13825,-136.370595 28.62495,37.073065 48.89107,88.044335 -1.13825,136.370595 z"/></g></svg>