<svg xmlns="http://www.w3.org/2000/svg" xmlns:svg="http://www.w3.org/2000/svg" id="svg2" version="1.1" viewBox="0 0 256 256"><metadata id="metadata7"/><g id="layer2" style="display:inline"><path style="display:inline;fill:#b3ffe1;fill-opacity:1;fill-rule:evenodd;stroke:#000;stroke-width:.81px;stroke-linecap:butt;stroke-linejoin:miter;stroke-opacity:0" id="path4284" d="M 69.704451,149.93489 C 68.477726,113.53343 112.00263,75.152476 126.85893,38.967244 c 17.94455,39.625375 62.93132,68.791246 62.63035,110.581596 z"/><ellipse style="display:inline;opacity:1;fill:#b3ffe1;fill-opacity:1;stroke:none;stroke-width:8.05607319;stroke-linecap:round;stroke-linejoin:round;stroke-miterlimit:4;stroke-dasharray:none;stroke-dashoffset:0;stroke-opacity:1" id="path4205" cx="129.608" cy="149.349" rx="59.796" ry="58.139"/><path style="fill:#5fd35f;fill-opacity:1;fill-rule:evenodd;stroke:none;stroke-width:1px;stroke-linecap:butt;stroke-linejoin:miter;stroke-opacity:1" id="path4536" d="m 127.58285,207.26128 0.39859,-96.18142 c -4.42299,16.06265 -19.7062,22.20824 -19.06879,37.59865 0.58343,14.08695 5.70469,16.13041 15.08259,19.11388 2.17989,0.69353 1.85912,8.1533 -0.79723,7.66384 -19.69711,-3.6292 -23.799285,-14.10245 -23.971805,-27.07942 -0.25771,-19.3867 19.891375,-28.83912 29.552505,-56.073423 9.65471,25.631713 29.29794,36.307433 29.50368,55.973633 0.23202,22.17615 -23.12575,28.32883 -23.12575,28.32883 -0.55087,10.09073 -0.34827,20.18148 2.79036,30.27224 z"/><path style="display:inline;fill:#eafff7;fill-opacity:1;fill-rule:evenodd;stroke:none;stroke-width:1px;stroke-linecap:butt;stroke-linejoin:miter;stroke-opacity:1" id="path4216" d="m 134.29237,58.319988 c 22.62106,28.141847 35.6509,45.976892 43.26092,60.620072 2.36567,4.55203 4.22527,8.8265 5.69721,13.04338 1.88481,9.83746 1.66305,18.81444 0.95172,29.33018 -1.21331,-10.61673 -2.92223,-19.01494 -6.4764,-27.70981 -0.95053,-4.0456 -2.2908,-8.24527 -4.16264,-12.80896 -6.09912,-14.87013 -17.70878,-33.305347 -39.27081,-62.474862 z"/><path style="display:inline;fill:#51ffba;fill-opacity:1;fill-rule:evenodd;stroke:none;stroke-width:1px;stroke-linecap:butt;stroke-linejoin:miter;stroke-opacity:1" id="path4216-2" d="m 77.339599,125.69359 c -6.534648,16.87594 -4.671973,34.73907 2.895246,50.01961 11.639005,18.38915 31.309365,30.3505 50.580365,29.83129 -19.09486,-1.46535 -36.447506,-15.09257 -45.395492,-32.79287 -8.500411,-12.90967 -12.70332,-29.62901 -8.080119,-47.05803 z"/></g></svg>