<svg xmlns="http://www.w3.org/2000/svg" xmlns:svg="http://www.w3.org/2000/svg" id="svg2" version="1.1" viewBox="0 0 256 256"><metadata id="metadata7"/><g id="layer2" style="display:inline"><g id="g4576" transform="matrix(0.51379166,0,0,0.51237463,141.83279,105.95568)"><ellipse id="path4205-6" cx="-85.834" cy="136.347" rx="73.822" ry="71.776" style="display:inline;opacity:1;fill:#80e5ff;fill-opacity:1;stroke:none;stroke-width:8.05607319;stroke-linecap:round;stroke-linejoin:round;stroke-miterlimit:4;stroke-dasharray:none;stroke-dashoffset:0;stroke-opacity:1"/><path id="path4216-8" d="m -82.82916,72.893322 c 17.712463,0.967995 35.938197,9.23459 50.295798,23.070205 9.705718,17.284623 13.054688,36.705443 8.74209,54.439553 -1.459361,-17.9567 -10.624666,-33.27678 -22.407373,-43.84161 C -53.62771,92.262157 -66.508423,79.458402 -82.82916,72.893322 Z" style="display:inline;fill:#d5f6ff;fill-rule:evenodd;stroke:none;stroke-width:1px;stroke-linecap:butt;stroke-linejoin:miter;stroke-opacity:1"/><path id="path4216-2-0" d="m -142.50617,100.35632 c -5.10563,24.67143 2.56146,45.94191 15.16087,60.38931 8.32862,18.01941 25.08103,33.44294 47.286984,38.90633 -22.832034,0.0392 -45.635384,-10.75032 -61.298104,-29.89207 -10.61206,-21.61184 -11.51027,-46.49094 -1.14975,-69.40357 z" style="display:inline;fill:#2ad4ff;fill-rule:evenodd;stroke:none;stroke-width:1px;stroke-linecap:butt;stroke-linejoin:miter;stroke-opacity:1"/></g><ellipse style="display:inline;opacity:1;fill:#a0ebff;fill-opacity:1;stroke:none;stroke-width:8.05607319;stroke-linecap:round;stroke-linejoin:round;stroke-miterlimit:4;stroke-dasharray:none;stroke-dashoffset:0;stroke-opacity:1" id="path4205-6-4" cx="181.066" cy="118.148" rx="26.322" ry="25.169"/><path style="display:inline;fill:#def8ff;fill-opacity:1;fill-rule:evenodd;stroke:none;stroke-width:1px;stroke-linecap:butt;stroke-linejoin:miter;stroke-opacity:1" id="path4216-8-0" d="m 182.13772,95.897397 c 6.30601,0.330115 12.79064,3.213779 17.89796,8.053973 3.47722,6.07982 4.68242,12.90596 3.15259,19.12576 -0.51165,-6.29669 -3.77019,-11.65071 -7.95406,-15.33771 -2.66008,-5.02671 -7.26848,-9.529526 -13.09649,-11.842023 z"/><path style="display:inline;fill:#5ddeff;fill-opacity:1;fill-rule:evenodd;stroke:none;stroke-width:1px;stroke-linecap:butt;stroke-linejoin:miter;stroke-opacity:1" id="path4216-2-0-1" d="m 160.85927,105.52763 c -1.82995,8.65944 0.90035,16.09921 5.37391,21.14334 2.97819,6.32849 8.96631,11.75038 16.89251,13.67588 -8.13142,0.022 -16.24956,-3.74521 -21.8246,-10.44911 -3.80216,-7.60224 -4.12705,-16.34187 -0.44182,-24.37011 z"/><ellipse style="display:inline;opacity:1;fill:#c3f2ff;fill-opacity:1;stroke:none;stroke-width:8.05607319;stroke-linecap:round;stroke-linejoin:round;stroke-miterlimit:4;stroke-dasharray:none;stroke-dashoffset:0;stroke-opacity:1" id="path4205-6-5" cx="107.495" cy="64.934" rx="19.536" ry="18.026"/><path style="display:inline;fill:#eafaff;fill-opacity:1;fill-rule:evenodd;stroke:none;stroke-width:1px;stroke-linecap:butt;stroke-linejoin:miter;stroke-opacity:1" id="path4216-8-8" d="m 108.29005,48.997705 c 4.6658,0.221883 9.45705,2.263948 13.22841,5.711931 2.60665,4.383448 3.51876,9.297782 2.39538,13.754393 -0.36627,-4.509488 -2.76997,-8.315283 -5.84801,-10.928602 -1.99214,-3.620276 -5.43714,-6.865434 -9.77578,-8.537722 z"/><path style="display:inline;fill:#6ee2ff;fill-opacity:1;fill-rule:evenodd;stroke:none;stroke-width:1px;stroke-linecap:butt;stroke-linejoin:miter;stroke-opacity:1" id="path4216-2-0-8" d="m 92.497118,55.894948 c -1.371451,6.207818 0.645406,11.519402 3.928977,15.094905 0.03451,0.07043 0.06955,0.140707 0.105123,0.210821 2.259328,4.452948 6.696452,8.261554 12.492112,9.632051 -5.93598,0.02839 -11.83182,-2.562793 -15.946183,-7.214842 -0.06464,-0.07309 -0.128831,-0.146681 -0.192562,-0.220778 -2.855852,-5.484936 -3.112242,-11.755121 -0.387467,-17.502157 z"/><path style="fill:#baf1ff;fill-opacity:1;fill-rule:evenodd;stroke:none;stroke-width:1px;stroke-linecap:butt;stroke-linejoin:miter;stroke-opacity:1" id="path4627" d="m 131.24474,59.755257 c 26.33005,-1.992323 39.09031,11.113153 47.5,28.928572 0.59374,-28.329584 -29.52231,-37.027559 -47.5,-28.928572 z"/><path style="fill:#85e7ff;fill-opacity:1;fill-rule:evenodd;stroke:none;stroke-width:1px;stroke-linecap:butt;stroke-linejoin:miter;stroke-opacity:1" id="path4629" d="m 148.74474,111.18383 c -20.78877,-7.69839 -53.918966,-20.322374 -59.642854,26.07142 5.80584,-25.58513 33.844304,-33.80486 59.642854,-26.07142 z"/></g></svg>