<svg xmlns="http://www.w3.org/2000/svg" xmlns:svg="http://www.w3.org/2000/svg" id="svg2" version="1.1" viewBox="0 0 256 256"><metadata id="metadata7"/><g id="layer2" style="display:inline"><path style="fill:#ff6bda;fill-opacity:1;fill-rule:evenodd;stroke:none;stroke-width:1px;stroke-linecap:butt;stroke-linejoin:miter;stroke-opacity:1" id="path4221" d="M 82.74534,144.87662 C 31.44716,98.082374 46.02381,19.413856 158.40099,85.742548 58.60348,56.322197 52.98968,82.339 82.74534,144.87662 Z"/><path id="path4343" d="M 75.76824,134.67404 C 38.58739,95.750075 55.93389,32.188964 145.93681,80.564697 60.37292,55.340423 50.25648,81.055845 75.76824,134.67404 Z" style="fill:#f300b7;fill-opacity:1;fill-rule:evenodd;stroke:none;stroke-width:1px;stroke-linecap:butt;stroke-linejoin:miter;stroke-opacity:1"/><path style="fill:#ffc3f0;fill-opacity:1;fill-rule:evenodd;stroke:none;stroke-width:1px;stroke-linecap:butt;stroke-linejoin:miter;stroke-opacity:1" id="path4347" d="M 133.72334,83.576144 C 104.55514,81.196239 62.5475,71.39699 79.25907,126.25472 63.20217,83.027544 72.61122,72.101635 133.72334,83.576144 Z"/><path style="display:inline;fill:#ffc3f0;fill-opacity:1;fill-rule:evenodd;stroke:none;stroke-width:1px;stroke-linecap:butt;stroke-linejoin:miter;stroke-opacity:1" id="path4347-6" d="M 129.23881,67.757059 C 82.74918,48.591439 35.3844,49.685048 56.56026,114.72135 27.646209,62.744173 68.30526,33.961121 129.23881,67.757059 Z"/><g id="g4353" transform="matrix(-0.53141292,-0.00546331,-0.00546331,0.53141292,386.23341,18.853104)"><path id="path4389" d="m 377.80639,165.22556 c 0,0 54.76696,-60.65564 86.61511,-92.831003 14.3412,-14.488542 36.14422,-16.068054 46.11348,-26.702479 8.91126,-9.505833 -2.3338,-34.037519 -19.2777,-16.166158 L 371.83739,157.83324 Z" style="fill:#784421;fill-rule:evenodd;stroke:none;stroke-width:1px;stroke-linecap:butt;stroke-linejoin:miter;stroke-opacity:1"/><path id="path4391" d="m 373.8002,146.00809 c -2.15386,2.59467 -1.89671,4.73728 -2.27232,6.99853 2.09302,-3.00859 4.07944,-6.08451 8.3693,-7.70563 -4.82743,5.51409 -1.90934,5.88261 -4.59922,10.80219 2.94529,-3.04693 3.52585,-4.09714 8.23007,-4.83548 0.59533,4.94906 -1.63413,4.85976 -3.88828,8.96454 4.90809,-2.81073 6.39364,-3.30041 10.95049,-4.00372 -1.65641,4.12606 -3.54132,5.32484 -7.29267,7.43952 2.15673,0.64348 4.80765,0.29859 7.67612,-0.48143 -7.62823,7.65213 -14.9592,9.32183 -24.9408,19.40881 5.70591,31.38431 -10.77777,49.82359 -27.09056,63.3062 l 4.10715,-10.71429 c -8.59862,5.68804 -16.60339,12.18587 -28.75,13.03572 l 2.5,-3.03572 c -5.34584,2.24227 -10.5266,3.32902 -15.53572,3.21429 l 2.5,-3.39286 c -3.7579,1.63507 -9.28793,2.17938 -13.37491,2.49815 3.57196,-2.0841 5.58213,-3.06403 9.29501,-5.48342 -2.84282,0.63327 -7.2626,1.68801 -9.84867,2.31563 1.78905,-3.55819 2.37835,-4.57733 5,-7.72321 -1.73478,0.5443 -2.74226,0.94166 -3.75,1.60714 -1.5615,-12.76908 3.74483,-25.15688 9.10714,-36.60714 l -5.89285,4.82142 c 6.03009,-31.96833 49.50963,-39.09197 59.46428,-34.28571 10.45401,-11.14926 9.95885,-18.70356 20.03644,-26.14353 z" style="fill:#483e37;fill-rule:evenodd;stroke:none;stroke-width:1px;stroke-linecap:butt;stroke-linejoin:miter;stroke-opacity:1"/><path id="path4445" d="m 352.78162,170.90162 14.19643,12.5 c 2.25605,-0.25371 3.25078,-1.53941 3.66071,-3.30357 -4.97866,-4.29002 -10.1421,-8.45686 -15.625,-12.41072 -1.46271,0.4965 -2.02662,1.71204 -2.23214,3.21429 z" style="fill:#8d5fd3;fill-rule:evenodd;stroke:none;stroke-width:1px;stroke-linecap:butt;stroke-linejoin:miter;stroke-opacity:1"/><path id="path4447" d="m 354.97788,167.24498 c 4.88701,4.59869 10.21299,8.92367 16.03031,12.94227 2.80137,0.0607 3.42143,-1.63308 4.18414,-3.21219 l -17.66642,-13.03772 c -1.48241,0.38784 -2.63123,1.15229 -2.54803,3.30764 z" style="fill:#8d5fd3;fill-rule:evenodd;stroke:none;stroke-width:1px;stroke-linecap:butt;stroke-linejoin:miter;stroke-opacity:1"/><path id="path4449" d="m 357.51376,164.16586 c 0.64277,-1.37123 0.85837,-2.91316 3.16031,-3.62139 6.08456,4.14537 11.81234,8.82535 17.19582,14.02127 0.19021,1.59017 -0.68441,2.3016 -2.50965,2.22853 -6.3771,-3.66494 -12.43095,-7.74089 -17.84648,-12.62841 z" style="fill:#8d5fd3;fill-rule:evenodd;stroke:none;stroke-width:1px;stroke-linecap:butt;stroke-linejoin:miter;stroke-opacity:1"/><ellipse id="path4488" cx="501.169" cy="36.881" rx="10.083" ry="9.862" style="opacity:1;fill:#502d16;fill-opacity:1;stroke:none;stroke-width:.5;stroke-linecap:round;stroke-linejoin:round;stroke-miterlimit:4;stroke-dasharray:none;stroke-dashoffset:0;stroke-opacity:1"/><path id="path4490" d="m 502.37273,46.295007 -7.99597,-16.552667 16.48756,7.910672 -18.64806,3.334348 13.59928,-12.807892 z" style="fill:#784421;fill-rule:evenodd;stroke:none;stroke-width:.5;stroke-linecap:butt;stroke-linejoin:bevel;stroke-miterlimit:4;stroke-dasharray:none;stroke-opacity:1"/></g><path style="display:inline;fill:none;fill-rule:evenodd;stroke:#ff6bda;stroke-width:1.33100009;stroke-linecap:butt;stroke-linejoin:miter;stroke-miterlimit:4;stroke-dasharray:5.324,2.662;stroke-dashoffset:0;stroke-opacity:1" id="path4391-3" d="m 82.301574,175.44118 c -1.110639,1.33796 -0.978045,2.44281 -1.171732,3.60885 1.079281,-1.55138 2.103578,-3.13752 4.315674,-3.97345 -1.495006,1.70765 -1.549391,2.45829 -1.654819,3.33501 -1.163534,3.98667 57.552503,-61.55352 59.543783,-63.74638 6.58052,-7.24672 15.35907,0.75705 9.35381,9.28745 -2.78684,3.95869 -16.08675,6.39687 -22.21916,12.78098 -20.76326,21.61551 -45.955434,46.00668 -42.369148,44.64086 0.839103,-0.31471 1.633843,-0.47392 2.859494,-0.66308 -0.854142,2.12764 -1.826091,2.74579 -3.760514,3.83624 1.112131,0.33182 2.479081,0.15397 3.958235,-0.24825 -2.800225,2.80901 -5.522745,4.05464 -8.716027,6.41576 0.391979,0.74193 -0.01198,1.23151 -1.673786,1.31546 0.369565,0.89493 -0.202392,1.1941 -1.323307,1.16562 0.409908,1.00194 -0.495412,0.93554 -1.147761,1.11145 2.942282,16.18352 -5.55763,25.69187 -13.969444,32.64426 l 2.117901,-5.52488 c -4.433947,2.93305 -8.561671,6.2837 -14.825132,6.72192 l 1.289141,-1.56536 c -2.756621,1.15624 -5.428111,1.71661 -8.011116,1.65747 3.316702,-3.24786 -3.718844,-0.61132 -5.607702,-0.46136 4.843195,-2.82857 5.83456,-3.11713 -0.285514,-1.6335 0.927513,-2.28302 3.90022,-4.73746 0.644577,-3.15383 -0.805201,-6.58443 1.931055,-12.97227 4.696154,-18.87668 l -3.038673,2.48618 c 3.109456,-16.48467 25.52995,-20.15802 30.663139,-17.67964 0.0953,-0.96623 0.539747,-1.69034 1.716604,-1.99362 -0.159094,-1.3646 0.427982,-1.67981 1.219143,-1.66732 -0.21179,-1.16724 0.03528,-1.96365 1.293425,-2.05392 1.719866,-2.91096 2.830292,-5.35028 6.102755,-7.76624 z"/></g></svg>