<svg xmlns="http://www.w3.org/2000/svg" xmlns:svg="http://www.w3.org/2000/svg" id="svg2" version="1.1" viewBox="0 0 256 256"><metadata id="metadata7"/><g id="layer2" style="display:inline"><path style="display:inline;fill:#ffc54f;fill-opacity:1;fill-rule:evenodd;stroke:none;stroke-width:1px;stroke-linecap:butt;stroke-linejoin:miter;stroke-opacity:1" id="path4202" d="m 46.842971,208.34007 c 4.832646,4.70553 9.560637,7.87166 21.908425,7.51742 25.218118,-0.72351 34.839224,-58.28878 70.795014,-58.62808 15.78713,-0.14898 22.70396,19.03023 20.25549,20.12751 -3.91979,1.75667 -7.08366,-0.51754 -20.32094,-2.00912 -15.00168,-1.69041 -26.37297,37.29245 -4.61219,40.70735 9.62945,1.51114 15.22599,-5.46427 20.55357,-5.80232 7.62845,-0.48403 17.52377,3.99212 22.13044,4.1399 6.77603,0.21738 10.9244,-2.80125 14.99401,-2.85409 11.74875,-0.15256 10.85305,4.12884 18.83175,1.59673 -2.64504,6.21137 -8.58911,10.67411 -16.74594,10.74741 -9.55197,0.0859 -10.63888,-4.55215 -16.33205,-4.75613 -3.82289,-0.13698 -3.55683,5.35111 -13.70315,5.29082 -11.36805,-0.0675 -10.2306,-5.15342 -14.19278,-5.12562 -3.94905,0.0277 -5.17181,4.62877 -14.39131,4.8824 -8.66126,0.23827 -8.09852,-4.43235 -14.99688,-5.06359 -6.50096,-0.59488 -9.89243,6.0156 -17.74691,5.89217 -7.595563,-0.11938 -12.229497,-6.27354 -16.374765,-3.93882 -22.058431,12.42382 -41.898122,-8.35213 -40.051784,-12.72394 z"/><path style="display:inline;fill:#e56e00;fill-opacity:1;fill-rule:evenodd;stroke:none;stroke-width:1px;stroke-linecap:butt;stroke-linejoin:miter;stroke-opacity:1" id="path4204" d="m 141.28355,211.37147 c -17.76077,12.74121 -24.88576,-24.52686 -3.66718,-34.93225 -5.16342,3.91769 -9.99494,24.20088 3.66718,34.93225 z"/><path style="display:inline;fill:#fffdd5;fill-opacity:1;fill-rule:evenodd;stroke:none;stroke-width:1px;stroke-linecap:butt;stroke-linejoin:miter;stroke-opacity:1" id="path4206" d="m 158.78163,175.35137 c -0.54913,-2.19931 -1.18744,-4.24535 -1.9214,-6.14126 -6.12761,-8.28941 -13.46509,-10.67193 -20.03032,-10.0703 -7.75075,0.71028 -14.46139,5.54238 -17.37194,9.58324 3.3546,-3.73458 10.18071,-7.82715 17.46389,-7.97169 6.03538,-0.11978 12.33995,2.44467 17.51462,10.169 1.45168,1.19912 2.90885,2.66799 4.34515,4.43101 z"/><path style="display:inline;fill:#ffad45;fill-opacity:1;fill-rule:evenodd;stroke:none;stroke-width:1px;stroke-linecap:butt;stroke-linejoin:miter;stroke-opacity:1" id="path4210" d="m 132.58709,182.10702 c -4.77859,5.56107 -6.49944,12.13042 -6.07115,18.00446 0.053,0.72703 0.13901,1.443 0.25631,2.14435 1.38956,4.84928 4.25828,8.56069 7.59607,10.04098 -2.96795,-2.00688 -5.05584,-5.92289 -5.72042,-10.45127 -0.17331,-0.62708 -0.31965,-1.275 -0.43631,-1.94064 -0.9389,-5.35697 0.0461,-11.88676 4.3755,-17.79788 z"/><path style="display:inline;fill:#fffdd5;fill-opacity:1;fill-rule:evenodd;stroke:none;stroke-width:1px;stroke-linecap:butt;stroke-linejoin:miter;stroke-opacity:1" id="path4214" d="m 209.82587,213.9945 c -3.71996,1.16603 -6.51278,0.78112 -8.94969,0.0416 -1.18056,-0.18311 -2.30951,-0.45386 -3.48262,-0.71802 -3.76988,-0.84888 -7.43973,-1.47347 -12.66678,1.46099 5.34368,-2.58602 8.89001,-1.55973 12.37724,-0.41251 1.1143,0.36658 2.27078,0.76445 3.48635,1.07131 2.772,0.32041 5.66364,0.17728 9.2355,-1.44339 z"/><path style="display:inline;fill:#fffdd5;fill-opacity:1;fill-rule:evenodd;stroke:none;stroke-width:1px;stroke-linecap:butt;stroke-linejoin:miter;stroke-opacity:1" id="path4214-5" d="m 177.74893,215.3148 c -3.90302,-0.15886 -7.54511,-1.12609 -10.94737,-2.11498 -1.60773,-0.29414 -3.1896,-0.59941 -4.71862,-0.83437 -4.90953,-0.75445 -9.25398,-0.77451 -12.9497,2.30403 3.84531,-2.73599 8.09154,-2.31021 12.74496,-1.23575 1.48731,0.34341 3.01699,0.75411 4.61691,1.16361 3.56277,0.53575 7.32497,1.03626 11.25382,0.71746 z"/><path style="display:inline;fill:#fffdd5;fill-opacity:1;fill-rule:evenodd;stroke:none;stroke-width:1px;stroke-linecap:butt;stroke-linejoin:miter;stroke-opacity:1" id="path4214-58" d="m 122.77322,209.84396 c 0.89867,3.09668 2.98094,5.60406 5.71867,7.38648 1.33363,0.66964 2.75872,1.16084 4.20917,1.4777 4.60555,1.00609 9.49957,0.2647 12.72635,-2.15537 -3.40646,2.1038 -8.20881,2.38948 -12.45349,1.10242 -1.34087,-0.40657 -2.62348,-0.96893 -3.79139,-1.67805 -2.69252,-1.21347 -5.07209,-3.22585 -6.40931,-6.13318 z"/><path style="display:inline;fill:#fffdd5;fill-opacity:1;fill-rule:evenodd;stroke:none;stroke-width:1px;stroke-linecap:butt;stroke-linejoin:miter;stroke-opacity:1" id="path4214-2" d="m 48.916907,210.9297 c 2.021817,4.19864 6.377626,6.43172 11.201837,7.38187 1.4e-5,0 0.0512,0.006 0.05121,0.006 4.853154,0.5486 9.938237,-0.2044 13.335048,-1.36952 -3.512087,0.79185 -8.539019,1.11876 -13.157094,0.21106 1.1e-5,0 -0.04839,-0.01 -0.04838,-0.01 -4.609101,-0.52006 -9.049829,-2.27097 -11.382629,-6.21969 z"/><g id="g4186" transform="matrix(0.59049,0,0,0.59049,48.706712,107.61165)"><path id="path4141" d="M 137.1574,57.129181 C 92.802178,14.942951 59.76325,-39.84532 60.292638,-108.44254 c 10.592074,-0.15409 48.578572,-18.43507 76.593282,-39.4285 29.71607,20.49717 65.5474,37.66017 75.56843,38.52675 0.13745,69.06116 -30.99603,121.175671 -75.29695,166.473471 z" style="display:inline;fill:#e1dfdd;fill-opacity:1;fill-rule:evenodd;stroke:#958274;stroke-width:8;stroke-linecap:butt;stroke-linejoin:miter;stroke-miterlimit:4;stroke-dasharray:none;stroke-opacity:1"/><path id="path4163-2-4-1" d="m 64.239862,-104.72853 c 12.406946,-3.17756 51.046728,-23.6803 72.463578,-38.65225 -0.18008,36.01683 1.60124,126.546041 0.33888,195.167041 C 73.859628,-10.554959 63.886422,-69.157335 64.239862,-104.72853 Z" style="display:inline;fill:#c0bfbf;fill-opacity:1;fill-rule:evenodd;stroke:none;stroke-width:1px;stroke-linecap:butt;stroke-linejoin:miter;stroke-opacity:1"/><path id="path4158" d="m 165.61388,24.574711 -25.00128,-27.7791903 -31.06219,1.01015 -14.394672,8.33376" style="display:inline;fill:none;fill-rule:evenodd;stroke:#958274;stroke-width:3;stroke-linecap:butt;stroke-linejoin:miter;stroke-miterlimit:4;stroke-dasharray:none;stroke-opacity:1"/><path id="path4160" d="M 109.04534,-2.1943293 103.99458,-43.61059 76.720458,-81.99638 62.073245,-83.25907" style="display:inline;fill:none;fill-rule:evenodd;stroke:#958274;stroke-width:3;stroke-linecap:butt;stroke-linejoin:miter;stroke-miterlimit:4;stroke-dasharray:none;stroke-opacity:1"/><path id="path4162" d="m 76.215378,-81.99638 35.102802,-33.0825 -5.80838,-13.13198" style="display:inline;fill:none;fill-rule:evenodd;stroke:#958274;stroke-width:3;stroke-linecap:butt;stroke-linejoin:miter;stroke-miterlimit:4;stroke-dasharray:none;stroke-opacity:1"/><path id="path4164" d="m 111.31818,-115.07888 35.60787,1.76777 27.27412,33.082497 -27.52665,28.284274 -42.4264,7.828679" style="display:inline;fill:none;fill-rule:evenodd;stroke:#958274;stroke-width:3;stroke-linecap:butt;stroke-linejoin:miter;stroke-miterlimit:4;stroke-dasharray:none;stroke-opacity:1"/><path id="path4166" d="m 146.42098,-52.449419 35.1028,10.354059 -40.65864,38.3858007" style="display:inline;fill:none;fill-rule:evenodd;stroke:#958274;stroke-width:3;stroke-linecap:butt;stroke-linejoin:miter;stroke-miterlimit:4;stroke-dasharray:none;stroke-opacity:1"/><path id="path4168" d="m 181.52378,-41.71655 19.44544,-0.12627" style="display:inline;fill:none;fill-rule:evenodd;stroke:#958274;stroke-width:3;stroke-linecap:butt;stroke-linejoin:miter;stroke-miterlimit:4;stroke-dasharray:none;stroke-opacity:1"/><path id="path4170" d="m 173.6951,-80.481151 37.1231,-3.788072" style="display:inline;fill:none;fill-rule:evenodd;stroke:#958274;stroke-width:3;stroke-linecap:butt;stroke-linejoin:miter;stroke-miterlimit:4;stroke-dasharray:none;stroke-opacity:1"/><path id="path4172" d="m 147.17859,-113.81619 13.8896,-18.43528" style="display:inline;fill:none;fill-rule:evenodd;stroke:#958274;stroke-width:3;stroke-linecap:butt;stroke-linejoin:miter;stroke-miterlimit:4;stroke-dasharray:none;stroke-opacity:1"/></g></g></svg>