<svg xmlns="http://www.w3.org/2000/svg" xmlns:svg="http://www.w3.org/2000/svg" id="svg2" version="1.1" viewBox="0 0 256 256"><metadata id="metadata7"/><g id="layer2" style="display:inline"><path id="path4183" d="M 128.63512,217.55296 C 90.671881,181.44615 62.394161,134.55336 62.84726,75.841608 c 9.065661,-0.131884 41.57797,-15.77841 65.55551,-33.746496 25.43371,17.543339 56.10143,32.233001 64.67834,32.974697 0.11764,59.108831 -26.52923,103.713171 -64.44599,142.483151 z" style="fill:#9e9791;fill-opacity:1;fill-rule:evenodd;stroke:#6b5c51;stroke-width:6.84712839;stroke-linecap:butt;stroke-linejoin:miter;stroke-miterlimit:4;stroke-dasharray:none;stroke-opacity:1"/><path id="path4185" d="M 66.225653,79.020392 C 76.844652,76.300747 109.91609,58.752636 128.24658,45.938283 128.09245,76.764759 129.61707,154.24791 128.53663,212.98001 74.459123,159.62271 65.923147,109.46546 66.225653,79.020392 Z" style="display:inline;fill:#777575;fill-opacity:1;fill-rule:evenodd;stroke:none;stroke-width:1px;stroke-linecap:butt;stroke-linejoin:miter;stroke-opacity:1"/><g id="g4177" transform="matrix(0.531441,0,0,0.531441,58.149733,61.727968)"><path id="path4141" d="M 132.15034,230.84579 C 87.795114,188.65956 54.756189,133.87129 55.285577,65.274066 65.877651,65.119977 103.86415,46.838998 131.87886,25.845571 c 29.71607,20.497164 65.5474,37.660169 75.56843,38.526746 0.13745,69.061163 -30.99603,121.175673 -75.29695,166.473473 z" style="fill:#e1dfdd;fill-opacity:1;fill-rule:evenodd;stroke:#958274;stroke-width:8;stroke-linecap:butt;stroke-linejoin:miter;stroke-miterlimit:4;stroke-dasharray:none;stroke-opacity:1"/><path id="path4163-2-4-1" d="M 59.232801,68.988071 C 71.639752,65.810512 110.27953,45.307772 131.69638,30.335828 131.5163,66.352651 133.29762,156.88187 132.03526,225.50287 68.852565,163.16165 58.879361,104.55927 59.232801,68.988071 Z" style="display:inline;fill:#c0bfbf;fill-opacity:1;fill-rule:evenodd;stroke:none;stroke-width:1px;stroke-linecap:butt;stroke-linejoin:miter;stroke-opacity:1"/></g></g></svg>