<svg xmlns="http://www.w3.org/2000/svg" xmlns:svg="http://www.w3.org/2000/svg" xmlns:xlink="http://www.w3.org/1999/xlink" id="svg2" version="1.1" viewBox="0 0 256 256"><defs id="defs4"><radialGradient id="radialGradient4215-4" cx="130.89" cy="135.363" r="74.165" fx="130.89" fy="135.363" gradientTransform="matrix(0.45168726,0.1649279,-0.18117175,0.43491459,93.800178,112.32023)" gradientUnits="userSpaceOnUse" xlink:href="#explosiveFinish"/><linearGradient id="explosiveFinish"><stop style="stop-color:#fff6d5;stop-opacity:1" id="stop4209" offset="0"/><stop id="stop4217" offset=".455" style="stop-color:#fd5;stop-opacity:1"/><stop style="stop-color:#f95;stop-opacity:1" id="stop4211" offset="1"/></linearGradient></defs><metadata id="metadata7"/><g id="layer2" style="display:inline"><path id="path4205-5" d="m 133.99765,173.9054 41.23391,-25.43878 -28.82385,37.43878 40.92548,-0.88234 -41.23706,11.0704 30.39864,28.50129 -38.83188,-20.43216 7.22985,38.0299 -18.7785,-33.81416 -14.24867,27.02714 6.12134,-27.85725 -27.848857,12.86586 20.427917,-22.73399 -37.269412,3.04714 37.835682,-10.53531 c 0,0 -27.737825,-12.2656 -26.404729,-12.29853 1.333097,-0.0329 29.957649,7.63602 29.957649,7.63602 l -21.910999,-33.80119 30.541629,26.30707 c 0,0 4.90815,-39.8762 5.17134,-39.10951 0.26321,0.76668 5.51052,34.97962 5.51052,34.97962 z" style="display:inline;fill:#ff7255;fill-opacity:1;fill-rule:evenodd;stroke:red;stroke-width:2.32106161;stroke-linecap:butt;stroke-linejoin:miter;stroke-miterlimit:4;stroke-dasharray:none;stroke-opacity:1"/><path style="display:inline;fill:url(#radialGradient4215-4);fill-opacity:1;fill-rule:evenodd;stroke:none;stroke-width:3.24000001;stroke-linecap:butt;stroke-linejoin:miter;stroke-miterlimit:4;stroke-dasharray:none;stroke-opacity:1" id="path4193-3" d="m 132.84131,179.95313 27.60287,-17.02927 -19.29529,25.06232 27.3964,-0.59065 -27.60499,7.41076 20.34951,19.07937 -25.9949,-13.67772 4.83983,25.45803 -12.57074,-22.63592 -9.53838,18.09256 4.09777,-18.64826 -18.64262,8.61268 13.67488,-15.2186 -24.948939,2.0398 25.328019,-7.05254 c 0,0 -18.568297,-8.21087 -17.675887,-8.23292 0.892397,-0.0221 20.054277,5.11173 20.054277,5.11173 l -14.66768,-22.62725 20.44521,17.61051 c 0,0 3.28563,-26.69398 3.46182,-26.18074 0.17619,0.51324 3.68884,23.41611 3.68884,23.41611 z"/><path id="path4183" d="M 129.34352,127.89493 C 104.43584,104.20526 85.882834,73.438898 86.180113,34.918118 c 5.947975,-0.08653 27.279297,-10.352214 43.010967,-22.141076 16.68705,11.510186 36.80814,21.148072 42.43546,21.634699 0.0772,38.781304 -17.40583,68.046209 -42.28302,93.483189 z" style="display:inline;fill:#9e9791;fill-opacity:1;fill-rule:evenodd;stroke:#6b5c51;stroke-width:4.49240112;stroke-linecap:butt;stroke-linejoin:miter;stroke-miterlimit:4;stroke-dasharray:none;stroke-opacity:1"/><path id="path4185" d="m 88.396669,37.003719 c 6.967126,-1.78436 28.665301,-13.297675 40.691931,-21.705172 -0.10113,20.22525 0.89918,71.061943 0.19031,109.596073 C 93.798657,89.886896 88.198195,56.978727 88.396669,37.003719 Z" style="display:inline;fill:#777575;fill-opacity:1;fill-rule:evenodd;stroke:none;stroke-width:1px;stroke-linecap:butt;stroke-linejoin:miter;stroke-opacity:1"/><g style="display:inline" id="g4177" transform="matrix(0.34867844,0,0,0.34867844,83.098063,25.65816)"><path id="path4141" d="M 132.15034,230.84579 C 87.795114,188.65956 54.756189,133.87129 55.285577,65.274066 65.877651,65.119977 103.86415,46.838998 131.87886,25.845571 c 29.71607,20.497164 65.5474,37.660169 75.56843,38.526746 0.13745,69.061163 -30.99603,121.175673 -75.29695,166.473473 z" style="fill:#e1dfdd;fill-opacity:1;fill-rule:evenodd;stroke:#958274;stroke-width:8;stroke-linecap:butt;stroke-linejoin:miter;stroke-miterlimit:4;stroke-dasharray:none;stroke-opacity:1"/><path id="path4163-2-4-1" d="M 59.232801,68.988071 C 71.639752,65.810512 110.27953,45.307772 131.69638,30.335828 131.5163,66.352651 133.29762,156.88187 132.03526,225.50287 68.852565,163.16165 58.879361,104.55927 59.232801,68.988071 Z" style="display:inline;fill:#c0bfbf;fill-opacity:1;fill-rule:evenodd;stroke:none;stroke-width:1px;stroke-linecap:butt;stroke-linejoin:miter;stroke-opacity:1"/></g></g></svg>