<svg xmlns="http://www.w3.org/2000/svg" xmlns:svg="http://www.w3.org/2000/svg" xmlns:xlink="http://www.w3.org/1999/xlink" id="svg2" version="1.1" viewBox="0 0 256 256"><defs id="defs4"><linearGradient id="elementalEarth1"><stop style="stop-color:#c78c38;stop-opacity:1" id="stop4295" offset="0"/><stop style="stop-color:#e3a347;stop-opacity:1" id="stop4297" offset="1"/></linearGradient><linearGradient id="linearGradient4313" x1="24.856" x2="25.582" y1="43.393" y2="41.167" gradientUnits="userSpaceOnUse" xlink:href="#elementalEarth1"/><linearGradient id="linearGradient4321" x1="24.856" x2="25.582" y1="43.393" y2="41.167" gradientUnits="userSpaceOnUse" xlink:href="#elementalEarth1"/><linearGradient id="linearGradient4182"><stop style="stop-color:#f06;stop-opacity:1" id="stop4184" offset="0"/><stop style="stop-color:#e5005c;stop-opacity:1" id="stop4186" offset="1"/></linearGradient><linearGradient id="linearGradient4271" x1="135.357" x2="138.214" y1="59.571" y2="46.714" gradientTransform="matrix(1,0,0,1.098186,2.1428571,6.3735355)" gradientUnits="userSpaceOnUse" xlink:href="#linearGradient4182"/></defs><metadata id="metadata7"/><g id="layer2" style="display:inline"><path style="fill:#800033;fill-opacity:1;fill-rule:evenodd;stroke:#800033;stroke-width:1px;stroke-linecap:butt;stroke-linejoin:miter;stroke-opacity:1" id="path4249" d="m 71.780248,110.34242 c 28.788532,38.02586 79.723372,36.54505 110.287062,-6.3721 -9.34436,-52.327907 -93.628528,-26.705061 -110.287062,6.3721 z"/><path style="fill:#f2f2f2;fill-rule:evenodd;stroke:none;stroke-width:1px;stroke-linecap:butt;stroke-linejoin:miter;stroke-opacity:1;fill-opacity:1" id="path4275" d="m 73.362329,113.18968 c 14.46746,19.5578 71.689781,38.73127 108.465131,-7.82868 -53.34836,26.51439 -83.796288,18.00164 -108.465131,7.82868 z"/><path style="fill:#f06;fill-opacity:1;fill-rule:evenodd;stroke:none;stroke-width:1px;stroke-linecap:butt;stroke-linejoin:miter;stroke-opacity:1" id="path4273" d="M 70.99932,110.28571 C 88.45299,165.74984 183.86483,157.8047 182.67857,103.5 154.63979,135.66251 93.69982,134.90171 70.99932,110.28571 Z"/><path style="display:inline;fill:#f9a6c7;fill-rule:evenodd;stroke:none;stroke-width:1px;stroke-linecap:butt;stroke-linejoin:miter;stroke-opacity:1;fill-opacity:1" id="path4198-1" d="m -66.733206,1015.9368 c 0.914944,-1.6348 2.834404,-4.2349 5.311763,-6.639 2.481737,-2.4085 5.506505,-4.6038 8.625798,-5.4523 1.402879,-0.3654 2.525491,-0.3048 3.842614,-0.037 1.390416,0.2828 2.801913,0.7417 5.087721,1.2395 a 0.32532025,0.35903015 38.382993 0 0 0.242956,-0.04 c 1.878055,-1.0717 3.279002,-2.1706 4.377304,-2.8325 -6e-6,0 0.01123,-0.01 0.01123,-0.01 1.111686,-0.756 2.209491,-1.2691 3.993662,-1.3819 3.415333,-0.2218 7.875903,1.2753 13.882414,4.4442 -5.871923,-3.3133 -10.344619,-5.0532 -13.903448,-5.0174 -1.907402,0.022 -3.15967,0.484 -4.430871,1.2278 -8e-6,0 -0.01164,0.01 -0.01165,0.01 -1.237542,0.8159 -2.300138,1.764 -4.157957,2.9 -2.103494,-0.4077 -3.680104,-0.8361 -4.999362,-1.0476 -1.386426,-0.2222 -2.575225,-0.2255 -4.027741,0.2133 -3.17854,0.9247 -6.209081,3.2089 -8.653343,5.6608 -2.44854,2.4562 -4.325831,5.098 -5.191094,6.7613 z"/><path style="fill:#f2f2f2;fill-rule:evenodd;stroke:none;stroke-width:1px;stroke-linecap:butt;stroke-linejoin:miter;stroke-opacity:1" id="path4211" d="M 73.484881,105.67046 C 91.583029,80.453777 153.84435,48.171012 176.52044,87.992792 124.87177,83.548199 99.997249,95.098559 73.484881,105.67046 Z"/><path style="fill:#d81471;fill-opacity:1;fill-rule:evenodd;stroke:none;stroke-width:1px;stroke-linecap:butt;stroke-linejoin:miter;stroke-opacity:1" id="path4251" d="m 85.960137,122.17364 32.868033,62.16245 c 7.93214,15.00184 -3.37498,40.89062 30.29188,41.16372 12.79786,0.10382 6.70509,-13.39121 9.09138,-20.70813 27.21608,-31.54769 30.50535,-98.71354 7.33629,-104.48951 -20.64657,-5.147128 -27.46416,1.50244 -22.45925,7.76239 0.80599,1.00811 0.49851,5.81935 -5.87886,3.36198 C 89.435814,93.018015 77.712979,106.576 85.960137,122.17364 Z"/><path style="fill:#9e064e;fill-opacity:1;fill-rule:evenodd;stroke:none;stroke-width:1px;stroke-linecap:butt;stroke-linejoin:miter;stroke-opacity:1" id="path4253" d="m 142.55406,118.92871 c 3.09662,4.21394 5.84459,8.69296 8.16002,13.39324 4.47679,12.60957 5.84451,25.96248 3.2042,39.1347 1.77141,-13.29341 -0.52479,-26.30375 -5.6533,-38.17359 -1.44118,-4.87325 -3.35991,-9.67874 -5.71092,-14.35435 z"/><path style="fill:#9e064e;fill-opacity:1;fill-rule:evenodd;stroke:none;stroke-width:1px;stroke-linecap:butt;stroke-linejoin:miter;stroke-opacity:1" id="path4257" d="m 159.14151,202.15043 c -3.46712,3.77898 -5.15029,6.74638 -5.81781,12.18346 0.99461,-5.37006 2.9548,-8.06858 6.53209,-11.4836 z"/><path style="fill:#9e064e;fill-opacity:1;fill-rule:evenodd;stroke:none;stroke-width:1px;stroke-linecap:butt;stroke-linejoin:miter;stroke-opacity:1" id="path4261" d="m 112.37575,159.71362 c 7.819,7.54321 7.92817,19.16155 8.75038,29.2813 0.23776,0.51563 0.47731,1.02576 0.7198,1.52836 0.12609,-0.54288 0.25608,-1.09017 0.38765,-1.63863 -1.19518,-10.12208 -1.69286,-21.81245 -9.85783,-29.17103 z"/><path style="fill:url(#linearGradient4271);fill-opacity:1;fill-rule:evenodd;stroke:none;stroke-width:1px;stroke-linecap:butt;stroke-linejoin:miter;stroke-opacity:1" id="path4209" d="M 71.085768,110.84749 C 70.7961,93.725749 75.793927,81.01413 94.698084,69.247415 98.586689,66.82699 103.2878,59.497903 110.20861,58.205441 c 5.38911,-1.006416 14.01698,2.369249 19.46601,1.889958 4.78971,-0.4213 9.84083,-5.953851 14.6192,-5.398533 35.93022,4.175623 38.63516,48.922264 38.41381,48.939944 0,0 -8.18201,-25.538607 -21.88153,-27.58324 -9.5792,-1.429681 -18.57798,7.51362 -28.23831,7.915489 -7.37782,0.306917 -13.75912,-5.115061 -20.96067,-3.328007 C 95.403697,84.666868 77.346632,99.20719 71.085768,110.84749 Z"/></g></svg>