<svg xmlns="http://www.w3.org/2000/svg" xmlns:svg="http://www.w3.org/2000/svg" xmlns:xlink="http://www.w3.org/1999/xlink" id="svg2" version="1.1" viewBox="0 0 256 256"><defs id="defs4"><linearGradient id="powerSuggestion1"><stop style="stop-color:#f06;stop-opacity:1" id="stop4192" offset="0"/><stop style="stop-color:#ff2b80;stop-opacity:1" id="stop4194" offset="1"/></linearGradient><linearGradient id="linearGradient4188" x1="130.31" x2="128.289" y1="178.471" y2="151.197" gradientTransform="translate(-3.0304576,-19.611317)" gradientUnits="userSpaceOnUse" xlink:href="#powerSuggestion1"/><linearGradient id="linearGradient4196" x1="132.33" x2="133.34" y1="136.549" y2="116.851" gradientTransform="translate(-3.0304576,-19.611317)" gradientUnits="userSpaceOnUse" xlink:href="#powerSuggestion1"/></defs><metadata id="metadata7"/><g id="layer2" style="display:inline"><path style="fill:#800033;fill-rule:evenodd;stroke:none;stroke-width:1px;stroke-linecap:butt;stroke-linejoin:miter;stroke-opacity:1" id="path4180" d="m 46.344542,119.24582 c -7.370716,12.59352 47.23198,7.70989 84.986488,37.33732 24.99208,19.61225 63.18082,-8.72588 76.12905,-39.89754 C 179.5759,97.675833 80.401428,105.82233 46.344542,119.24582 Z"/><path style="fill:#f2f2f2;fill-rule:evenodd;stroke:none;stroke-width:1px;stroke-linecap:butt;stroke-linejoin:miter;stroke-opacity:1" id="path4178" d="m 140.00526,138.71011 c 1.01817,-0.70908 17.10811,-1.52608 16.07142,0.89286 0,0 0.0893,-2.94643 3.21429,-3.75 0.69178,-0.17788 5.31878,-1.89004 8.03571,-1.60715 1.80353,0.18779 5,2.14286 5,2.14286 0,0 -0.87802,-4.76851 3.57143,-6.60714 2.57677,-1.06479 5.2676,-1.98823 8.03572,-2.32143 1.41956,-0.17087 4.28571,0.17857 4.28571,0.17857 0,0 0.95027,-2.35211 2.58928,-3.21428 2.89309,-1.52185 10.98215,-2.50001 10.98215,-2.50001 l -30.35714,35.35715 c -18.25071,-1.43057 -24.49353,-10.2129 -31.42857,-18.57143 z"/><path style="display:inline;fill:#f9a6c7;fill-rule:evenodd;stroke:none;stroke-width:1px;stroke-linecap:butt;stroke-linejoin:miter;stroke-opacity:1;fill-opacity:1" id="path4198-1" d="m -66.733206,1015.9368 c 0.914944,-1.6348 2.834404,-4.2349 5.311763,-6.639 2.481737,-2.4085 5.506505,-4.6038 8.625798,-5.4523 1.402879,-0.3654 2.525491,-0.3048 3.842614,-0.037 1.390416,0.2828 2.801913,0.7417 5.087721,1.2395 a 0.32532025,0.35903015 38.382993 0 0 0.242956,-0.04 c 1.878055,-1.0717 3.279002,-2.1706 4.377304,-2.8325 -6e-6,0 0.01123,-0.01 0.01123,-0.01 1.111686,-0.756 2.209491,-1.2691 3.993662,-1.3819 3.415333,-0.2218 7.875903,1.2753 13.882414,4.4442 -5.871923,-3.3133 -10.344619,-5.0532 -13.903448,-5.0174 -1.907402,0.022 -3.15967,0.484 -4.430871,1.2278 -8e-6,0 -0.01164,0.01 -0.01165,0.01 -1.237542,0.8159 -2.300138,1.764 -4.157957,2.9 -2.103494,-0.4077 -3.680104,-0.8361 -4.999362,-1.0476 -1.386426,-0.2222 -2.575225,-0.2255 -4.027741,0.2133 -3.17854,0.9247 -6.209081,3.2089 -8.653343,5.6608 -2.44854,2.4562 -4.325831,5.098 -5.191094,6.7613 z"/><path style="fill:url(#linearGradient4188);fill-opacity:1;fill-rule:evenodd;stroke:none;stroke-width:1px;stroke-linecap:round;stroke-linejoin:round;stroke-opacity:1" id="path4166" d="m 207.14811,116.92439 c -20.22215,13.40778 -29.6874,33.46406 -41.78635,33.91122 -13.83453,0.5113 -21.78631,-19.23451 -42.32079,-25.33979 -24.869498,-7.39416 -44.120625,12.23649 -78.035714,-5.35714 0.880248,10.30603 13.089145,8.72614 26.607144,15.53572 28.39003,14.30122 38.33479,48.11232 76.60714,46.60714 37.20699,-1.46329 51.38295,-41.39159 58.92857,-65.35715 z"/><path style="fill:#f2f2f2;fill-rule:evenodd;stroke:none;stroke-width:1px;stroke-linecap:butt;stroke-linejoin:miter;stroke-opacity:1" id="path4170" d="m 86.790971,116.74582 c 0,0 0.742773,4.93981 2.678571,5.89286 3.976386,1.95769 9.94837,3.23265 13.214288,2.5 4.23508,-0.95006 5.53571,-11.78571 5.53571,-11.78571 z"/><path style="fill:#f2f2f2;fill-rule:evenodd;stroke:none;stroke-width:1px;stroke-linecap:butt;stroke-linejoin:miter;stroke-opacity:1" id="path4172" d="m 106.79097,112.99582 c -0.12337,0.0441 -3.43777,12.42367 3.21428,14.64286 4.24086,1.41479 8.97356,1.38983 13.39286,0.71429 4.94623,-0.75609 5.55729,-14.39238 5.53572,-14.46429 z"/><path style="fill:#f2f2f2;fill-rule:evenodd;stroke:none;stroke-width:1px;stroke-linecap:butt;stroke-linejoin:miter;stroke-opacity:1" id="path4174" d="m 127.8624,113.53154 c 1.0119,5.11513 -2.56949,13.31885 3.03571,15.17857 4.45468,1.47799 9.26352,1.02308 13.92857,0.17857 6.21612,-1.12529 2.70398,-10.28698 3.92857,-15.53571 z"/><path style="fill:#f2f2f2;fill-rule:evenodd;stroke:none;stroke-width:1px;stroke-linecap:butt;stroke-linejoin:miter;stroke-opacity:1" id="path4176" d="m 148.57668,112.46011 c 0,0 -1.07755,13.952 3.92857,14.64286 3.67833,0.50762 8.43203,-1.00918 11.60715,-1.42858 6.0914,-0.8046 5.89285,-11.78571 5.17857,-11.78571 -0.71429,0 -20.71429,-1.42857 -20.71429,-1.42857 z"/><path style="fill:url(#linearGradient4196);fill-opacity:1;fill-rule:evenodd;stroke:none;stroke-width:1px;stroke-linecap:butt;stroke-linejoin:miter;stroke-opacity:1" id="path4168" d="m 44.826685,120.31725 c -0.846991,-2.93384 12.898007,-7.4846 24.642857,-11.96428 15.208893,-5.80093 8.869911,-16.051067 62.321428,-16.428577 38.66602,-0.27309 83.77947,18.626627 79.46428,22.499997 -7.31448,6.56557 -73.60049,-2.41066 -113.392848,1.25 -5.691087,0.52355 -12.16637,4.75045 -21.428574,5.17858 -14.554579,0.67275 -31.607143,-0.53572 -31.607143,-0.53572 z"/></g></svg>