<svg xmlns="http://www.w3.org/2000/svg" xmlns:svg="http://www.w3.org/2000/svg" xmlns:xlink="http://www.w3.org/1999/xlink" id="svg2" version="1.1" viewBox="0 0 256 256"><defs id="defs4"><linearGradient id="unseenForce1"><stop style="stop-color:#846450;stop-opacity:1" id="stop4316" offset="0"/><stop style="stop-color:#aa8974;stop-opacity:1" id="stop4318" offset="1"/></linearGradient><linearGradient id="linearGradient4320" x1="168.948" x2="179.681" y1="190.34" y2="172.662" gradientUnits="userSpaceOnUse" xlink:href="#unseenForce1"/></defs><metadata id="metadata7"/><g id="layer2" style="display:inline"><path style="display:inline;fill:url(#linearGradient4320);fill-opacity:1;fill-rule:evenodd;stroke:none;stroke-width:1px;stroke-linecap:butt;stroke-linejoin:miter;stroke-opacity:1" id="path4150-2" d="m 164.0415,201.27581 c -8.08602,-2.91555 -16.23647,-15.4809 -9.08979,-20.60804 6.3945,-4.58752 10.17931,-13.89331 17.90594,-15.38804 9.52761,-1.84313 19.66884,-11.21167 24.14996,-5.04555 5.92643,8.1549 -9.7536,20.26087 -12.4855,30.5541 -1.96752,7.41323 -13.26542,13.08908 -20.48061,10.48753 z"/><path style="display:inline;fill:#ffd5e5;fill-opacity:1;fill-rule:evenodd;stroke:none;stroke-width:1px;stroke-linecap:butt;stroke-linejoin:miter;stroke-opacity:1" id="path4161-8" d="M 43.430718,88.960403 C 68.202214,93.513559 108.98179,55.571587 110.09327,40.340261 120.0675,66.188487 63.981047,105.59797 43.430718,88.960403 Z"/><path style="display:inline;fill:#ff80b2;fill-opacity:1;fill-rule:evenodd;stroke:none;stroke-width:1px;stroke-linecap:butt;stroke-linejoin:miter;stroke-opacity:1" id="path4161-8-7" d="M 62.862842,116.21514 C 88.87291,120.99596 131.69147,81.156877 132.85853,65.163984 143.33148,92.304621 84.44069,133.68459 62.862842,116.21514 Z"/><path style="display:inline;fill:#f59;fill-opacity:1;fill-rule:evenodd;stroke:none;stroke-width:1px;stroke-linecap:butt;stroke-linejoin:miter;stroke-opacity:1" id="path4161-8-3" d="m 82.075974,144.73733 c 27.310576,5.01985 72.270056,-36.81117 73.495466,-53.603707 10.99659,28.497657 -50.83871,71.946627 -73.495466,53.603707 z"/><path style="display:inline;fill:#f06;fill-opacity:1;fill-rule:evenodd;stroke:none;stroke-width:1px;stroke-linecap:butt;stroke-linejoin:miter;stroke-opacity:1" id="path4161-8-4" d="m 102.10524,172.21291 c 28.6761,5.27084 75.88355,-38.65172 77.17023,-56.28389 11.54642,29.92255 -53.38065,75.54396 -77.17023,56.28389 z"/></g></svg>