<svg xmlns="http://www.w3.org/2000/svg" xmlns:svg="http://www.w3.org/2000/svg" id="svg2" version="1.1" viewBox="0 0 256 256"><metadata id="metadata7"/><g id="layer2" style="display:inline"><path id="path4173-4" d="m 96.988994,108.13649 c -2.740882,-2.34597 -10.234939,32.16628 15.209286,44.21898 -7.13414,-0.25216 -13.588576,-2.39502 -19.723926,-5.42551 7.44407,16.47866 32.952096,18.99952 45.118806,9.74167 -1.86421,5.2742 -7.53359,9.87044 -14.05045,14.3157 11.66182,-0.82203 31.88725,-9.81066 30.34107,-35.02593 4.88555,6.34723 4.67946,13.30396 5.59353,20.1266 2.66399,-4.06121 10.59757,-31.20709 -14.74981,-44.51937 7.00181,0.16979 13.28038,2.79155 19.58811,5.31444 -7.58087,-7.55105 -21.36115,-22.406758 -44.95506,-9.38237 2.82443,-4.69854 4.52932,-9.27726 13.8867,-14.674997 -7.0652,0.06697 -33.829406,8.971017 -30.1913,35.261117 -3.880336,-6.2357 -5.011796,-13.0845 -6.066956,-19.95033 z" style="display:inline;fill:#373e48;fill-rule:evenodd;stroke:none;stroke-width:1px;stroke-linecap:butt;stroke-linejoin:miter;stroke-opacity:1"/><ellipse style="display:inline;opacity:1;fill:#1c1f24;fill-opacity:1;stroke:none;stroke-width:6;stroke-linecap:round;stroke-linejoin:round;stroke-miterlimit:4;stroke-dasharray:none;stroke-dashoffset:0;stroke-opacity:1" id="path4171-2" cx="113.262" cy="145.469" rx="16.81" ry="16.921" transform="matrix(0.99432165,-0.10641644,0.11178631,0.99373227,0,0)"/><path style="fill:#287c92;fill-rule:evenodd;stroke:none;stroke-width:1px;stroke-linecap:butt;stroke-linejoin:miter;stroke-opacity:1;fill-opacity:1" id="path4201" d="m 101.07143,109.21429 c 8.9591,-29.006564 18.63566,-61.821819 82.14286,-64.285719 -65.89804,-10.510208 -82.35857,27.430062 -82.14286,64.285719 z"/><path style="display:inline;fill:#287c92;fill-rule:evenodd;stroke:none;stroke-width:1px;stroke-linecap:butt;stroke-linejoin:miter;stroke-opacity:1;fill-opacity:1" id="path4201-9" d="m 129.27025,99.411697 c 29.37202,-7.676617 62.35882,-16.75118 97.9286,35.917843 -25.80476,-61.539659 -66.72273,-55.528545 -97.9286,-35.917843 z"/><path style="display:inline;fill:#287c92;fill-rule:evenodd;stroke:none;stroke-width:1px;stroke-linecap:butt;stroke-linejoin:miter;stroke-opacity:1;fill-opacity:1" id="path4201-5" d="m 157.20356,117.66303 c 19.7893,23.02238 42.42125,48.67917 10.70829,103.75661 43.96945,-50.19665 20.60905,-84.32442 -10.70829,-103.75661 z"/><path style="display:inline;fill:#287c92;fill-rule:evenodd;stroke:none;stroke-width:1px;stroke-linecap:butt;stroke-linejoin:miter;stroke-opacity:1;fill-opacity:1" id="path4201-0" d="m 155.15082,146.99827 c -6.71889,29.6058 -13.86244,63.06392 -76.996292,70.36814 66.508032,5.44956 80.024562,-33.63646 76.996292,-70.36814 z"/><path style="display:inline;fill:#287c92;fill-rule:evenodd;stroke:none;stroke-width:1px;stroke-linecap:butt;stroke-linejoin:miter;stroke-opacity:1;fill-opacity:1" id="path4201-9-0" d="m 127.7825,163.21042 c -28.70037,9.89617 -60.898283,21.46215 -100.384523,-28.33818 30.426798,59.39046 70.76658,50.2736 100.384523,28.33818 z"/><path style="display:inline;fill:#287c92;fill-rule:evenodd;stroke:none;stroke-width:1px;stroke-linecap:butt;stroke-linejoin:miter;stroke-opacity:1;fill-opacity:1" id="path4201-5-9" d="M 98.894699,145.71589 C 77.405831,124.27119 52.881527,100.41676 80.297908,43.079349 40.288239,96.485742 66.185463,128.73084 98.894699,145.71589 Z"/><path style="display:inline;fill:#37abc8;fill-rule:evenodd;stroke:none;stroke-width:1px;stroke-linecap:butt;stroke-linejoin:miter;stroke-opacity:1" id="path4201-9-1" d="m 138.71091,90.230415 c 22.07481,-9.216766 46.81186,-19.83225 80.99289,5.160767 -27.60151,-31.743821 -58.9167,-21.636441 -80.99289,-5.160767 z"/><path style="display:inline;fill:#37abc8;fill-rule:evenodd;stroke:none;stroke-width:1px;stroke-linecap:butt;stroke-linejoin:miter;stroke-opacity:1" id="path4201-9-1-4" d="m 162.15322,117.93794 c 21.24198,11.0011 45.26587,23.14453 48.06093,65.39593 6.60509,-41.54379 -21.25407,-59.05571 -48.06093,-65.39593 z"/><path style="display:inline;fill:#37abc8;fill-rule:evenodd;stroke:none;stroke-width:1px;stroke-linecap:butt;stroke-linejoin:miter;stroke-opacity:1" id="path4201-9-1-4-5" d="m 156.6495,153.17408 c 2.28402,23.81237 5.11784,50.58138 -28.85748,75.85332 38.48108,-16.99175 38.07601,-49.89519 28.85748,-75.85332 z"/><path style="display:inline;fill:#37abc8;fill-rule:evenodd;stroke:none;stroke-width:1px;stroke-linecap:butt;stroke-linejoin:miter;stroke-opacity:1" id="path4201-9-1-4-3" d="m 123.29205,168.71996 c -19.59313,13.72426 -41.487806,29.38419 -80.222863,12.27897 33.751411,25.10689 62.180703,8.53657 80.222863,-12.27897 z"/><path style="display:inline;fill:#37abc8;fill-rule:evenodd;stroke:none;stroke-width:1px;stroke-linecap:butt;stroke-linejoin:miter;stroke-opacity:1" id="path4201-9-1-4-3-5" d="M 95.058824,145.63648 C 73.356446,135.57404 48.824907,124.49189 44.186393,82.402976 39.402821,124.19569 68.000533,140.47362 95.058824,145.63648 Z"/><path style="display:inline;fill:#37abc8;fill-rule:evenodd;stroke:none;stroke-width:1px;stroke-linecap:butt;stroke-linejoin:miter;stroke-opacity:1" id="path4201-9-1-4-3-6" d="M 99.362717,109.77643 C 96.799041,85.992542 93.650873,59.258678 127.32688,33.589256 89.04812,51.032003 89.839792,83.928415 99.362717,109.77643 Z"/></g></svg>