<svg xmlns="http://www.w3.org/2000/svg" xmlns:svg="http://www.w3.org/2000/svg" id="svg2" version="1.1" viewBox="0 0 256 256"><style id="style3">svg{cursor:default}</style><metadata id="metadata7"/><g id="layer3" style="display:inline"><path style="display:inline;fill:#ff8080;fill-rule:evenodd;stroke:none;stroke-width:1px;stroke-linecap:butt;stroke-linejoin:miter;stroke-opacity:1" id="path4681" d="m 233.5213,45.942649 c -2.24928,46.402953 -13.742,91.441011 -36.36234,128.348591 -16.75752,30.9647 -41.37779,57.42402 -75.5293,75.26613 35.10138,-15.98467 61.78858,-41.17987 80.94933,-72.12086 21.40046,-38.96332 30.78216,-85.194903 30.94231,-131.493861 z"/><path style="display:inline;fill:#ff8080;fill-rule:evenodd;stroke:none;stroke-width:1px;stroke-linecap:butt;stroke-linejoin:miter;stroke-opacity:1" id="path4685" d="m 240.72307,100.44275 c -4.10044,31.91101 -13.18567,62.58421 -27.92445,87.18906 -10.95528,20.57278 -25.90596,37.60963 -45.5359,48.27335 20.28044,-9.54171 36.50094,-25.83382 48.91879,-46.35838 13.90664,-25.76404 21.73794,-57.14231 24.54156,-89.10403 z"/><path style="display:inline;fill:#ff8080;fill-rule:evenodd;stroke:none;stroke-width:1px;stroke-linecap:butt;stroke-linejoin:miter;stroke-opacity:1" id="path4645" d="M 29.642856,214.92857 C 31.462037,168.50677 42.536905,123.36414 64.81426,86.248531 81.284117,55.129868 105.65814,28.443532 139.64285,10.285716 104.6911,26.594976 78.238521,52.036398 59.365315,83.153623 38.326839,122.31358 29.373956,168.63012 29.642856,214.92857 Z"/><path style="display:inline;fill:#ff8080;fill-rule:evenodd;stroke:none;stroke-width:1px;stroke-linecap:butt;stroke-linejoin:miter;stroke-opacity:1" id="path4649" d="M 21.936363,160.49755 C 25.740912,128.5499 34.541511,97.79383 49.051651,73.053457 59.815812,52.380036 74.607979,35.205373 94.138259,24.36021 73.947108,34.089445 57.878281,50.531165 45.651158,71.169914 31.983871,97.061716 24.44368,128.51122 21.936363,160.49755 Z"/><path style="display:inline;fill:#faa;fill-rule:evenodd;stroke:#000;stroke-width:1.61699998;stroke-linecap:butt;stroke-linejoin:miter;stroke-miterlimit:4;stroke-dasharray:none;stroke-opacity:1" id="path4653" d="M 217.82627,76.775749 225.03153,31.659269 206.25259,8.8479025 162.34788,9.3595745 125.44321,29.248275 82.943665,120.42174 78.152004,80.52377 60.65216,75.672842 42.138365,85.62693 l -3.341015,18.43451 4.096419,61.72913 -2.123651,45.10527 3.912402,19.63971 24.880614,15.47031 21.05185,1.98201 26.496476,-35.66128 58.42095,-54.28614 55.25734,-35.55933 3.90964,-12.23287 -16.18931,-4.09802 -16.67201,0.88353 -8.81772,3.12798 z"/><path style="display:inline;fill:#f9f9f9;fill-opacity:.25882353;fill-rule:evenodd;stroke:none;stroke-width:1px;stroke-linecap:butt;stroke-linejoin:miter;stroke-opacity:1" id="path4655" d="m 74.008799,142.75909 9.312197,-22.37309 42.642344,-90.569853 25.89468,7.780647 -8.78641,26.785851 z"/><path style="display:inline;fill:#f9f9f9;fill-opacity:.25882353;fill-rule:evenodd;stroke:none;stroke-width:1px;stroke-linecap:butt;stroke-linejoin:miter;stroke-opacity:1" id="path4657" d="M 162.61488,10.008626 204.38316,9.6268952 193.91287,20.905547 152.68562,36.942342 127.39833,29.17776 Z"/><path style="display:inline;fill:none;fill-rule:evenodd;stroke:#000;stroke-width:1.0611043px;stroke-linecap:butt;stroke-linejoin:miter;stroke-opacity:1" id="path4659" d="M 205.91045,8.6535194 194.21153,21.196418 224.2245,31.603462"/><path style="display:inline;fill:none;fill-rule:evenodd;stroke:#000;stroke-width:1.0611043px;stroke-linecap:butt;stroke-linejoin:miter;stroke-opacity:1" id="path4661" d="M 194.21153,21.196419 152.68547,37.311774 125.63162,29.256288"/><path style="display:inline;fill:none;fill-rule:evenodd;stroke:#000;stroke-width:1.0611043px;stroke-linecap:butt;stroke-linejoin:miter;stroke-opacity:1" id="path4663" d="m 152.52655,37.143024 -8.83317,26.99588 22.61421,21.077103 51.54356,-8.549025"/><path style="display:inline;fill:none;fill-rule:evenodd;stroke:#000;stroke-width:1.0611043px;stroke-linecap:butt;stroke-linejoin:miter;stroke-opacity:1" id="path4665" d="M 166.21754,85.205122 117.06219,211.49328"/><path style="display:inline;fill:none;fill-rule:evenodd;stroke:#000;stroke-width:1.0611043px;stroke-linecap:butt;stroke-linejoin:miter;stroke-opacity:1" id="path4667" d="m 143.76929,64.247775 -70.403691,79.767005 -21.080557,2.12986 -9.612615,19.69109"/><path style="display:inline;fill:none;fill-rule:evenodd;stroke:#000;stroke-width:1.0611043px;stroke-linecap:butt;stroke-linejoin:miter;stroke-opacity:1" id="path4669" d="m 73.394954,144.11454 -3.219355,69.51659"/><path style="display:inline;fill:none;fill-rule:evenodd;stroke:#000;stroke-width:1.0611043px;stroke-linecap:butt;stroke-linejoin:miter;stroke-opacity:1" id="path4671" d="M 97.521236,216.87042 138.08308,157.38747"/><path style="display:inline;fill:none;fill-rule:evenodd;stroke:#000;stroke-width:1.0611043px;stroke-linecap:butt;stroke-linejoin:miter;stroke-opacity:1" id="path4673" d="m 90.519704,247.72751 c 0.07983,-0.55431 7.222759,-31.27205 7.222759,-31.27205 l -56.758194,-6.0757"/><path style="display:inline;fill:#000;fill-opacity:.25882353;fill-rule:evenodd;stroke:none;stroke-width:1px;stroke-linecap:butt;stroke-linejoin:miter;stroke-opacity:1" id="path4675" d="m 69.651697,246.0866 -24.782706,-15.63703 -3.5573,-19.57771 56.569431,5.59064 -7.572239,31.32637 z"/><path style="display:inline;fill:#000;fill-opacity:.25882353;fill-rule:evenodd;stroke:none;stroke-width:1px;stroke-linecap:butt;stroke-linejoin:miter;stroke-opacity:1" id="path4677" d="m 90.676733,247.63464 7.212494,-30.73696 38.444483,-56.06684 -18.36742,50.31006 z"/><path style="display:inline;fill:#000;fill-opacity:.25882353;fill-rule:evenodd;stroke:none;stroke-width:1px;stroke-linecap:butt;stroke-linejoin:miter;stroke-opacity:1" id="path4679" d="m 150.92848,125.51441 15.54055,-40.180755 51.08781,-8.275661 -23.97175,32.892926 z"/><path id="path4689" d="m 42.142857,85.821426 10,4.285724 L 52.321428,146" style="display:inline;fill:none;fill-rule:evenodd;stroke:#000;stroke-width:1px;stroke-linecap:butt;stroke-linejoin:miter;stroke-opacity:1"/><path id="path4691" d="M 51.785714,90.375013 70.17857,87.607145 77.492566,80.933469" style="display:inline;fill:none;fill-rule:evenodd;stroke:#000;stroke-width:1px;stroke-linecap:butt;stroke-linejoin:miter;stroke-opacity:1"/><path id="path4693" d="M 83.035713,120.10715 72.857142,144.21429" style="display:inline;fill:none;fill-rule:evenodd;stroke:#000;stroke-width:1.61699998;stroke-linecap:butt;stroke-linejoin:miter;stroke-miterlimit:4;stroke-dasharray:none;stroke-opacity:1"/><path id="path4695" d="M 70.299054,87.869341 82.832508,116.59895" style="display:inline;fill:none;fill-rule:evenodd;stroke:#000;stroke-width:1px;stroke-linecap:butt;stroke-linejoin:miter;stroke-opacity:1"/><path style="display:inline;fill:#000;fill-opacity:.25882353;fill-rule:evenodd;stroke:none;stroke-width:1px;stroke-linecap:butt;stroke-linejoin:miter;stroke-opacity:1" id="path4697" d="m 81.877646,113.59407 -11.46132,-26.117356 7.554378,-6.698265 0.442828,0.981819 3.476303,30.631882 z"/><path style="display:inline;fill:#f9f9f9;fill-opacity:.25882353;fill-rule:evenodd;stroke:none;stroke-width:1px;stroke-linecap:butt;stroke-linejoin:miter;stroke-opacity:1" id="path4699" d="m 60.714542,76.059353 16.143281,4.796841 -6.898862,6.546509 -17.298679,2.733224 -9.66229,-4.282439 z"/><path style="display:inline;fill:#f9f9f9;fill-opacity:.25882353;fill-rule:evenodd;stroke:none;stroke-width:1px;stroke-linecap:butt;stroke-linejoin:miter;stroke-opacity:1" id="path4701" d="m 70.176109,213.38254 -29.326138,-3.30646 2.236243,-45.36553 9.353429,-18.35705 20.886824,-2.25603 z"/><path style="display:inline;fill:#f9f9f9;fill-opacity:.25882353;fill-rule:evenodd;stroke:none;stroke-width:1px;stroke-linecap:butt;stroke-linejoin:miter;stroke-opacity:1" id="path4703" d="m 52.284318,146.26754 -9.236853,17.94354 -3.835185,-60.00839 3.103429,-17.553479 9.547538,3.547541 z"/><path style="fill:none;fill-rule:evenodd;stroke:#000;stroke-width:1.61699998;stroke-linecap:butt;stroke-linejoin:miter;stroke-miterlimit:4;stroke-dasharray:none;stroke-opacity:1" id="path4731" d="m 193.21428,110.10714 -42.85714,15.66964"/><path style="fill:none;fill-rule:evenodd;stroke:#000;stroke-width:1px;stroke-linecap:butt;stroke-linejoin:miter;stroke-opacity:1" id="path4733" d="m 202.14286,140.46429 -40.52489,4.54908 -16.79654,41.1652"/><path style="fill:none;fill-rule:evenodd;stroke:#000;stroke-width:1px;stroke-linecap:butt;stroke-linejoin:miter;stroke-opacity:1" id="path4737" d="m 233.92857,111 -12.5,1.07143 -20.35714,-4.64286"/><path style="fill:none;fill-rule:evenodd;stroke:#000;stroke-width:1px;stroke-linecap:butt;stroke-linejoin:miter;stroke-opacity:1" id="path4739" d="m 221.42857,112.25 -83.38388,45.34817"/><path style="display:inline;fill:#000;fill-opacity:.25882353;fill-rule:evenodd;stroke:none;stroke-width:1px;stroke-linecap:butt;stroke-linejoin:miter;stroke-opacity:1" id="path4679-4" d="m 117.65136,211.49372 20.21251,-53.56528 83.56134,-45.71433 12.62187,-1.23892 -3.42661,11.52974 -55.03394,35.54458 z"/><path style="display:inline;fill:#f9f9f9;fill-opacity:.25882353;fill-rule:evenodd;stroke:none;stroke-width:1px;stroke-linecap:butt;stroke-linejoin:miter;stroke-opacity:1" id="path4657-8" d="m 201.43697,107.19355 10.32728,2.64873 8.84888,2.56608 -81.88589,44.44734 12.08835,-31.50316 z"/><path id="path4198-1" d="m 252.39861,132.37484 c -3.72909,24.32601 -10.46776,47.64053 -20.45906,66.15105 -7.4005,15.40873 -17.09639,27.94864 -29.39922,35.46823 12.81904,-6.78656 23.39103,-18.86743 31.78001,-34.25517 9.35994,-19.23506 15.23931,-42.96134 18.07827,-67.36411 z" style="display:inline;fill:#ff8080;fill-rule:evenodd;stroke:none;stroke-width:1px;stroke-linecap:butt;stroke-linejoin:miter;stroke-opacity:1"/><path id="path4432-6" d="M 15.201775,122.51063 C 15.953477,101.49633 20.992195,80.850088 31.2362,63.575859 38.803413,49.090781 50.039216,36.438217 65.728191,27.433173 49.566196,35.591876 37.370986,47.678469 28.697233,62.151392 19.036512,80.367953 14.983347,101.54867 15.201775,122.51063 Z" style="display:inline;fill:#ff8080;fill-rule:evenodd;stroke:none;stroke-width:1px;stroke-linecap:butt;stroke-linejoin:miter;stroke-opacity:1"/><path style="display:inline;fill:#fff;fill-opacity:1;fill-rule:evenodd;stroke:none;stroke-width:1px;stroke-linecap:butt;stroke-linejoin:miter;stroke-opacity:1" id="path4903" d="m 163.4516,10.937331 13.81686,-0.198129 -39.55668,20.196019 -8.13372,-2.045491 z"/><path style="display:inline;fill:#fff;fill-opacity:1;fill-rule:evenodd;stroke:none;stroke-width:1px;stroke-linecap:butt;stroke-linejoin:miter;stroke-opacity:1" id="path4905" d="m 126.75627,31.322531 8.43479,2.50451 -51.64679,96.374569 -7.104531,8.65038 z"/><path style="display:inline;fill:#fff;fill-opacity:1;fill-rule:evenodd;stroke:none;stroke-width:1px;stroke-linecap:butt;stroke-linejoin:miter;stroke-opacity:1" id="path4945" d="m 60.831383,77.37292 6.138288,1.409014 -16.699537,9.12459 -5.187292,-2.045491 z"/><path style="display:inline;fill:#fff;fill-opacity:1;fill-rule:evenodd;stroke:none;stroke-width:1px;stroke-linecap:butt;stroke-linejoin:miter;stroke-opacity:1" id="path4947" d="m 43.48234,88.339196 3.256219,0.897367 -0.954169,3.352448 -5.380092,11.071799 z"/><path style="display:inline;fill:#fff;fill-opacity:1;fill-rule:evenodd;stroke:none;stroke-width:1px;stroke-linecap:butt;stroke-linejoin:miter;stroke-opacity:1" id="path4945-9" d="m 201.47105,108.46975 4.70972,1.40901 -56.16382,21.26745 1.59842,-3.47406 z"/></g></svg>