<svg xmlns="http://www.w3.org/2000/svg" xmlns:svg="http://www.w3.org/2000/svg" id="svg2" version="1.1" viewBox="0 0 256 256"><style id="style3">svg{cursor:default}</style><metadata id="metadata7"/><g id="layer2" style="display:inline"><path style="fill:#faa;fill-rule:evenodd;stroke:#000;stroke-width:1.61661077px;stroke-linecap:butt;stroke-linejoin:miter;stroke-opacity:1" id="path4140" d="m 217.82627,76.775749 7.20526,-45.11648 -18.77894,-22.8113665 -43.90471,0.511672 -36.90467,19.8887005 -84.673092,181.647565 3.912402,19.63971 24.880614,15.47031 21.05185,1.98201 z"/><path style="display:inline;fill:#f9f9f9;fill-opacity:.25882353;fill-rule:evenodd;stroke:none;stroke-width:1px;stroke-linecap:butt;stroke-linejoin:miter;stroke-opacity:1" id="path4148-1" d="m 83.478979,143.64297 -27.55837,36.21576 70.042731,-150.042583 25.89468,7.780647 -8.78641,26.785851 z"/><path style="display:inline;fill:#f9f9f9;fill-opacity:.25882353;fill-rule:evenodd;stroke:none;stroke-width:1px;stroke-linecap:butt;stroke-linejoin:miter;stroke-opacity:1" id="path4148-4" d="M 162.61488,10.008626 204.38316,9.6268952 193.91287,20.905547 152.68562,36.942342 127.39833,29.17776 Z"/><path style="fill:none;fill-rule:evenodd;stroke:#000;stroke-width:1.0611043px;stroke-linecap:butt;stroke-linejoin:miter;stroke-opacity:1" id="path4141" d="M 205.91045,8.6535194 194.21153,21.196418 224.2245,31.603462"/><path style="fill:none;fill-rule:evenodd;stroke:#000;stroke-width:1.0611043px;stroke-linecap:butt;stroke-linejoin:miter;stroke-opacity:1" id="path4143" d="M 194.21153,21.196419 152.68547,37.311774 125.63162,29.256288"/><path style="fill:none;fill-rule:evenodd;stroke:#000;stroke-width:1.0611043px;stroke-linecap:butt;stroke-linejoin:miter;stroke-opacity:1" id="path4147" d="m 152.52655,37.143024 -8.83317,26.99588 22.61421,21.077103 51.54356,-8.549025"/><path style="fill:none;fill-rule:evenodd;stroke:#000;stroke-width:1.0611043px;stroke-linecap:butt;stroke-linejoin:miter;stroke-opacity:1" id="path4149" d="M 166.21754,85.205122 144.38362,175.77899"/><path style="fill:none;fill-rule:evenodd;stroke:#000;stroke-width:1.0611043px;stroke-linecap:butt;stroke-linejoin:miter;stroke-opacity:1" id="path4151" d="M 143.76929,64.247775 53.565284,183.69287"/><path style="fill:none;fill-rule:evenodd;stroke:#000;stroke-width:1.0611043px;stroke-linecap:butt;stroke-linejoin:miter;stroke-opacity:1" id="path4153" d="M 84.287811,143.04311 44.639885,230.41684"/><path style="fill:none;fill-rule:evenodd;stroke:#000;stroke-width:1.0611043px;stroke-linecap:butt;stroke-linejoin:miter;stroke-opacity:1" id="path4155" d="M 97.521236,216.87042 154.69022,133.4589"/><path style="fill:none;fill-rule:evenodd;stroke:#000;stroke-width:1.0611043px;stroke-linecap:butt;stroke-linejoin:miter;stroke-opacity:1" id="path4157" d="m 90.519704,247.72751 c 0.07983,-0.55431 7.222759,-31.27205 7.222759,-31.27205 l -46.22248,-1.0757"/><path style="display:inline;fill:#000;fill-opacity:.25882353;fill-rule:evenodd;stroke:none;stroke-width:1px;stroke-linecap:butt;stroke-linejoin:miter;stroke-opacity:1" id="path4148-1-2" d="m 69.651697,246.0866 -24.782706,-15.63703 6.978414,-15.11342 46.033717,1.12635 -7.572239,31.32637 z"/><path style="display:inline;fill:#000;fill-opacity:.25882353;fill-rule:evenodd;stroke:none;stroke-width:1px;stroke-linecap:butt;stroke-linejoin:miter;stroke-opacity:1" id="path4148-1-2-4" d="m 90.676733,247.63464 7.212494,-30.73696 55.869613,-81.82573 -9.52858,40.46107 c -19.89897,27.01555 -31.49572,42.27574 -53.553527,72.10162 z"/><path style="display:inline;fill:#000;fill-opacity:.25882353;fill-rule:evenodd;stroke:none;stroke-width:1px;stroke-linecap:butt;stroke-linejoin:miter;stroke-opacity:1" id="path4148-1-2-4-4" d="m 144.7413,175.39069 21.72773,-90.057035 51.08781,-8.275661 -19.6786,26.579476 c -20.2645,26.37323 -31.07915,41.92735 -53.13694,71.75322 z"/><path style="fill:#ff8080;fill-rule:evenodd;stroke:none;stroke-width:1px;stroke-linecap:butt;stroke-linejoin:miter;stroke-opacity:1" id="path4204" d="M 29.642856,214.92857 C 31.462037,168.50677 42.536905,123.36414 64.81426,86.248531 81.284117,55.129868 105.65814,28.443532 139.64285,10.285716 104.6911,26.594976 78.238521,52.036398 59.365315,83.153623 38.326839,122.31358 29.373956,168.63012 29.642856,214.92857 Z"/><path style="display:inline;fill:#ff8080;fill-rule:evenodd;stroke:none;stroke-width:1px;stroke-linecap:butt;stroke-linejoin:miter;stroke-opacity:1" id="path4204-4" d="m 233.5213,45.942649 c -2.24928,46.402953 -13.742,91.441011 -36.36234,128.348591 -16.75752,30.9647 -41.37779,57.42402 -75.5293,75.26613 35.10138,-15.98467 61.78858,-41.17987 80.94933,-72.12086 21.40046,-38.96332 30.78216,-85.194903 30.94231,-131.493861 z"/><path style="display:inline;fill:#fff;fill-opacity:1;fill-rule:evenodd;stroke:none;stroke-width:1px;stroke-linecap:butt;stroke-linejoin:miter;stroke-opacity:1" id="path4148-4-2" d="m 163.4516,10.937331 13.81686,-0.198129 -39.55668,20.196019 -8.13372,-2.045491 z"/><path style="display:inline;fill:#fff;fill-opacity:1;fill-rule:evenodd;stroke:none;stroke-width:1px;stroke-linecap:butt;stroke-linejoin:miter;stroke-opacity:1" id="path4148-4-2-8" d="m 126.75627,31.322531 8.43479,2.50451 -67.430423,128.446909 -6.978262,9.408 z"/></g></svg>