<svg xmlns="http://www.w3.org/2000/svg" xmlns:svg="http://www.w3.org/2000/svg" id="svg2" version="1.1" viewBox="0 0 256 256"><style id="style3">svg{cursor:default}</style><metadata id="metadata7"/><g id="layer1" style="display:inline"><path id="path4428" d="M 29.642856,214.92857 C 31.462037,168.50677 42.536905,123.36414 64.81426,86.248531 81.284117,55.129868 105.65814,28.443532 139.64285,10.285716 104.6911,26.594976 78.238521,52.036398 59.365315,83.153623 38.326839,122.31358 29.373956,168.63012 29.642856,214.92857 Z" style="display:inline;fill:#ff8080;fill-rule:evenodd;stroke:none;stroke-width:1px;stroke-linecap:butt;stroke-linejoin:miter;stroke-opacity:1"/><path id="path4432" d="M 21.936363,160.49755 C 25.740912,128.5499 34.541511,97.79383 49.051651,73.053457 59.815812,52.380036 74.607979,35.205373 94.138259,24.36021 73.947108,34.089445 57.878281,50.531165 45.651158,71.169914 31.983871,97.061716 24.44368,128.51122 21.936363,160.49755 Z" style="display:inline;fill:#ff8080;fill-rule:evenodd;stroke:none;stroke-width:1px;stroke-linecap:butt;stroke-linejoin:miter;stroke-opacity:1"/><path id="path4158" d="M 217.82627,76.775749 225.03153,31.659269 206.25259,8.8479025 162.34788,9.3595745 125.44321,29.248275 82.943665,120.42174 78.152004,80.52377 60.65216,75.672842 42.138365,85.62693 l -3.341015,18.43451 4.096419,61.72913 -2.123651,45.10527 3.912402,19.63971 24.880614,15.47031 21.05185,1.98201 z" style="display:inline;fill:#faa;fill-rule:evenodd;stroke:#000;stroke-width:1.61699998;stroke-linecap:butt;stroke-linejoin:miter;stroke-miterlimit:4;stroke-dasharray:none;stroke-opacity:1"/><path id="path4160" d="m 74.008799,142.75909 9.312197,-22.37309 42.642344,-90.569853 25.89468,7.780647 -8.78641,26.785851 z" style="display:inline;fill:#f9f9f9;fill-opacity:.25882353;fill-rule:evenodd;stroke:none;stroke-width:1px;stroke-linecap:butt;stroke-linejoin:miter;stroke-opacity:1"/><path id="path4162" d="M 162.61488,10.008626 204.38316,9.6268952 193.91287,20.905547 152.68562,36.942342 127.39833,29.17776 Z" style="display:inline;fill:#f9f9f9;fill-opacity:.25882353;fill-rule:evenodd;stroke:none;stroke-width:1px;stroke-linecap:butt;stroke-linejoin:miter;stroke-opacity:1"/><path id="path4164" d="M 205.91045,8.6535194 194.21153,21.196418 224.2245,31.603462" style="display:inline;fill:none;fill-rule:evenodd;stroke:#000;stroke-width:1.0611043px;stroke-linecap:butt;stroke-linejoin:miter;stroke-opacity:1"/><path id="path4166" d="M 194.21153,21.196419 152.68547,37.311774 125.63162,29.256288" style="display:inline;fill:none;fill-rule:evenodd;stroke:#000;stroke-width:1.0611043px;stroke-linecap:butt;stroke-linejoin:miter;stroke-opacity:1"/><path id="path4168" d="m 152.52655,37.143024 -8.83317,26.99588 22.61421,21.077103 51.54356,-8.549025" style="display:inline;fill:none;fill-rule:evenodd;stroke:#000;stroke-width:1.0611043px;stroke-linecap:butt;stroke-linejoin:miter;stroke-opacity:1"/><path id="path4170" d="M 166.21754,85.205122 144.38362,175.77899" style="display:inline;fill:none;fill-rule:evenodd;stroke:#000;stroke-width:1.0611043px;stroke-linecap:butt;stroke-linejoin:miter;stroke-opacity:1"/><path id="path4172" d="m 143.76929,64.247775 -70.403691,79.767005 -21.080557,2.12986 -9.612615,19.69109" style="display:inline;fill:none;fill-rule:evenodd;stroke:#000;stroke-width:1.0611043px;stroke-linecap:butt;stroke-linejoin:miter;stroke-opacity:1"/><path id="path4174" d="m 73.394954,144.11454 -3.219355,69.51659" style="display:inline;fill:none;fill-rule:evenodd;stroke:#000;stroke-width:1.0611043px;stroke-linecap:butt;stroke-linejoin:miter;stroke-opacity:1"/><path id="path4176" d="M 97.521236,216.87042 154.69022,133.4589" style="display:inline;fill:none;fill-rule:evenodd;stroke:#000;stroke-width:1.0611043px;stroke-linecap:butt;stroke-linejoin:miter;stroke-opacity:1"/><path id="path4178" d="m 90.519704,247.72751 c 0.07983,-0.55431 7.222759,-31.27205 7.222759,-31.27205 l -56.758194,-6.0757" style="display:inline;fill:none;fill-rule:evenodd;stroke:#000;stroke-width:1.0611043px;stroke-linecap:butt;stroke-linejoin:miter;stroke-opacity:1"/><path id="path4180" d="m 69.651697,246.0866 -24.782706,-15.63703 -3.5573,-19.57771 56.569431,5.59064 -7.572239,31.32637 z" style="display:inline;fill:#000;fill-opacity:.25882353;fill-rule:evenodd;stroke:none;stroke-width:1px;stroke-linecap:butt;stroke-linejoin:miter;stroke-opacity:1"/><path id="path4182" d="m 90.676733,247.63464 7.212494,-30.73696 55.869613,-81.82573 -9.52858,40.46107 c -19.89897,27.01555 -31.49572,42.27574 -53.553527,72.10162 z" style="display:inline;fill:#000;fill-opacity:.25882353;fill-rule:evenodd;stroke:none;stroke-width:1px;stroke-linecap:butt;stroke-linejoin:miter;stroke-opacity:1"/><path id="path4184" d="m 144.7413,175.39069 21.72773,-90.057035 51.08781,-8.275661 -19.6786,26.579476 c -20.2645,26.37323 -31.07915,41.92735 -53.13694,71.75322 z" style="display:inline;fill:#000;fill-opacity:.25882353;fill-rule:evenodd;stroke:none;stroke-width:1px;stroke-linecap:butt;stroke-linejoin:miter;stroke-opacity:1"/><path id="path4194" d="m 233.5213,45.942649 c -2.24928,46.402953 -13.742,91.441011 -36.36234,128.348591 -16.75752,30.9647 -41.37779,57.42402 -75.5293,75.26613 35.10138,-15.98467 61.78858,-41.17987 80.94933,-72.12086 21.40046,-38.96332 30.78216,-85.194903 30.94231,-131.493861 z" style="display:inline;fill:#ff8080;fill-rule:evenodd;stroke:none;stroke-width:1px;stroke-linecap:butt;stroke-linejoin:miter;stroke-opacity:1"/><path id="path4198" d="m 240.72307,100.44275 c -4.10044,31.91101 -13.18567,62.58421 -27.92445,87.18906 -10.95528,20.57278 -25.90596,37.60963 -45.5359,48.27335 20.28044,-9.54171 36.50094,-25.83382 48.91879,-46.35838 13.90664,-25.76404 21.73794,-57.14231 24.54156,-89.10403 z" style="display:inline;fill:#ff8080;fill-rule:evenodd;stroke:none;stroke-width:1px;stroke-linecap:butt;stroke-linejoin:miter;stroke-opacity:1"/><path style="fill:none;fill-rule:evenodd;stroke:#000;stroke-width:1px;stroke-linecap:butt;stroke-linejoin:miter;stroke-opacity:1" id="path4306" d="m 42.142857,85.821426 10,4.285724 L 52.321428,146"/><path style="fill:none;fill-rule:evenodd;stroke:#000;stroke-width:1px;stroke-linecap:butt;stroke-linejoin:miter;stroke-opacity:1" id="path4308" d="M 51.785714,90.375013 70.17857,87.607145 77.492566,80.933469"/><path style="fill:none;fill-rule:evenodd;stroke:#000;stroke-width:1.61699998;stroke-linecap:butt;stroke-linejoin:miter;stroke-miterlimit:4;stroke-dasharray:none;stroke-opacity:1" id="path4310" d="M 83.035713,120.10715 72.857142,144.21429"/><path style="fill:none;fill-rule:evenodd;stroke:#000;stroke-width:1px;stroke-linecap:butt;stroke-linejoin:miter;stroke-opacity:1" id="path4312" d="M 70.299054,87.869341 82.832508,116.59895"/><path id="path4180-5" d="m 81.877646,113.59407 -11.46132,-26.117356 7.554378,-6.698265 0.442828,0.981819 3.476303,30.631882 z" style="display:inline;fill:#000;fill-opacity:.25882353;fill-rule:evenodd;stroke:none;stroke-width:1px;stroke-linecap:butt;stroke-linejoin:miter;stroke-opacity:1"/><path id="path4162-6" d="m 60.714542,76.059353 16.143281,4.796841 -6.898862,6.546509 -17.298679,2.733224 -9.66229,-4.282439 z" style="display:inline;fill:#f9f9f9;fill-opacity:.25882353;fill-rule:evenodd;stroke:none;stroke-width:1px;stroke-linecap:butt;stroke-linejoin:miter;stroke-opacity:1"/><path id="path4160-7" d="m 70.176109,213.38254 -29.326138,-3.30646 2.236243,-45.36553 9.353429,-18.35705 20.886824,-2.25603 z" style="display:inline;fill:#f9f9f9;fill-opacity:.25882353;fill-rule:evenodd;stroke:none;stroke-width:1px;stroke-linecap:butt;stroke-linejoin:miter;stroke-opacity:1"/><path id="path4160-7-8" d="m 52.284318,146.26754 -9.236853,17.94354 -3.835185,-60.00839 3.103429,-17.553479 9.547538,3.547541 z" style="display:inline;fill:#f9f9f9;fill-opacity:.25882353;fill-rule:evenodd;stroke:none;stroke-width:1px;stroke-linecap:butt;stroke-linejoin:miter;stroke-opacity:1"/><path id="path4897" d="m 163.4516,10.937331 13.81686,-0.198129 -39.55668,20.196019 -8.13372,-2.045491 z" style="display:inline;fill:#fff;fill-opacity:1;fill-rule:evenodd;stroke:none;stroke-width:1px;stroke-linecap:butt;stroke-linejoin:miter;stroke-opacity:1"/><path id="path4899" d="m 126.75627,31.322531 8.43479,2.50451 -51.899328,95.995759 -6.220647,7.89277 z" style="display:inline;fill:#fff;fill-opacity:1;fill-rule:evenodd;stroke:none;stroke-width:1px;stroke-linecap:butt;stroke-linejoin:miter;stroke-opacity:1"/><path id="path4897-3" d="m 60.831383,77.37292 6.138288,1.409014 -16.699537,9.12459 -5.187292,-2.045491 z" style="display:inline;fill:#fff;fill-opacity:1;fill-rule:evenodd;stroke:none;stroke-width:1px;stroke-linecap:butt;stroke-linejoin:miter;stroke-opacity:1"/><path id="path4899-1" d="m 43.48234,88.339196 3.256219,0.897367 -0.954169,3.352448 -5.380092,11.071799 z" style="display:inline;fill:#fff;fill-opacity:1;fill-rule:evenodd;stroke:none;stroke-width:1px;stroke-linecap:butt;stroke-linejoin:miter;stroke-opacity:1"/></g></svg>