<svg xmlns="http://www.w3.org/2000/svg" xmlns:osb="http://www.openswatchbook.org/uri/2009/osb" xmlns:svg="http://www.w3.org/2000/svg" id="svg4206" version="1.1" viewBox="0 0 256 256"><style id="style3">svg{cursor:default}</style><defs id="defs4208"><linearGradient id="linearGradient4509" osb:paint="solid"><stop style="stop-color:#faa;stop-opacity:1" id="stop4511" offset="0"/></linearGradient><linearGradient id="linearGradient4503" osb:paint="solid"><stop style="stop-color:#ff8080;stop-opacity:1" id="stop4505" offset="0"/></linearGradient><linearGradient id="linearGradient4497" osb:paint="solid"><stop style="stop-color:#f55;stop-opacity:1" id="stop4499" offset="0"/></linearGradient></defs><metadata id="metadata4211"/><g id="layer4"><path style="fill:#784421;fill-rule:evenodd;stroke:#000;stroke-width:1px;stroke-linecap:butt;stroke-linejoin:miter;stroke-opacity:1" id="path4389" d="m 113.32834,155.32394 c 0,0 54.76697,-60.655638 86.61512,-92.830997 14.3412,-14.488542 36.14422,-16.068054 46.11348,-26.702479 8.91126,-9.505833 -2.3338,-34.0375186 -19.2777,-16.166158 L 107.35934,147.93162 Z"/><path style="fill:#483e37;fill-rule:evenodd;stroke:#000;stroke-width:1px;stroke-linecap:butt;stroke-linejoin:miter;stroke-opacity:1" id="path4391" d="m 109.32215,136.10647 c -2.15386,2.59467 -1.89671,4.73728 -2.27232,6.99853 2.09302,-3.00859 4.07944,-6.08451 8.3693,-7.70563 -4.82743,5.51409 -1.90934,5.88261 -4.59922,10.80219 2.94529,-3.04693 3.52585,-4.09714 8.23007,-4.83548 0.59533,4.94906 -1.63413,4.85976 -3.88828,8.96454 4.90809,-2.81073 6.39364,-3.30041 10.9505,-4.00372 -1.65641,4.12606 -3.54133,5.32484 -7.29268,7.43952 2.15673,0.64348 4.80765,0.29859 7.67613,-0.48143 -7.62824,7.65213 -14.95921,9.32183 -24.94081,19.40881 5.70591,31.38431 -10.777772,49.82359 -27.090555,63.3062 l 4.107143,-10.71429 c -8.598611,5.68804 -16.603384,12.18587 -28.75,13.03572 l 2.5,-3.03572 c -5.345834,2.24227 -10.526594,3.32902 -15.535714,3.21429 l 2.5,-3.39286 c -3.7579,1.63507 -9.287936,2.17938 -13.37491,2.49815 3.571959,-2.0841 5.582131,-3.06403 9.295007,-5.48342 -2.842816,0.63327 -7.262594,1.68801 -9.848668,2.31563 1.789051,-3.55819 2.378347,-4.57733 5,-7.72321 -1.734782,0.5443 -2.742258,0.94166 -3.75,1.60714 -1.561503,-12.76908 3.744834,-25.15688 9.107143,-36.60714 l -5.892858,4.82142 C 35.851522,164.56738 79.331061,157.44374 89.285714,162.25 99.73972,151.10074 99.244565,143.54644 109.32215,136.10647 Z"/><path style="fill:#000;fill-rule:evenodd;stroke:none;stroke-width:1px;stroke-linecap:butt;stroke-linejoin:miter;stroke-opacity:1" id="path4393" d="m 30.03101,227.81405 c 9.294976,-10.22088 10.672317,-12.24886 25.817204,-24.26941 -15.348529,11.75661 -16.985937,13.56832 -26.548868,23.58775 z"/><path style="fill:#000;fill-rule:evenodd;stroke:none;stroke-width:1px;stroke-linecap:butt;stroke-linejoin:miter;stroke-opacity:1" id="path4401" d="m 35.09022,232.79955 c 10.76722,-6.64205 16.486364,-8.71853 25.138954,-17.32536 -8.854533,8.33839 -14.690787,10.09731 -25.652696,16.46742 z"/><path style="fill:#000;fill-rule:evenodd;stroke:none;stroke-width:1px;stroke-linecap:butt;stroke-linejoin:miter;stroke-opacity:1" id="path4405" d="m 38.623419,235.96594 c 17.035728,-8.06011 29.507397,-13.39644 41.733723,-25.8588 -12.42774,12.19236 -25.010159,17.20855 -42.153377,24.95112 z"/><path style="fill:#000;fill-rule:evenodd;stroke:none;stroke-width:1px;stroke-linecap:butt;stroke-linejoin:miter;stroke-opacity:1" id="path4409" d="m 51.533641,235.71365 0.242883,0.43704 C 63.919396,229.21131 73.990803,223.96817 83.214285,212.69643 73.76679,223.71648 63.5611,228.64774 51.290758,235.27661 l 0.242883,0.43704 z"/><path style="fill:#000;fill-rule:evenodd;stroke:none;stroke-width:1px;stroke-linecap:butt;stroke-linejoin:miter;stroke-opacity:1" id="path4413" d="m 78.076047,226.21515 c 5.715555,-4.68583 10.289789,-9.9279 13.620381,-16.46515 -3.61807,6.36802 -8.413322,11.33074 -14.236761,15.67771 z"/><path style="fill:#000;fill-rule:evenodd;stroke:none;stroke-width:1px;stroke-linecap:butt;stroke-linejoin:miter;stroke-opacity:1" id="path4417" d="m 35.089286,192.69643 0.425952,0.26185 c 1.976411,-3.53254 4.655855,-7.29499 7.966905,-9.81542 -3.526802,2.26461 -6.507396,5.85062 -8.818809,9.29172 l 0.425952,0.26185 z"/><path style="fill:#000;fill-rule:evenodd;stroke:none;stroke-width:1px;stroke-linecap:butt;stroke-linejoin:miter;stroke-opacity:1" id="path4421" d="m 91.141346,162.19681 c -9.693264,0.5423 -29.083235,4.13645 -42.302061,14.3389 13.386248,-9.91117 32.791072,-13.13648 42.340797,-13.33966 z"/><path style="fill:#000;fill-rule:evenodd;stroke:none;stroke-width:1px;stroke-linecap:butt;stroke-linejoin:miter;stroke-opacity:1" id="path4425" d="m 93.780681,163.29023 c -18.506625,5.90516 -36.89163,13.51694 -45.387824,31.9062 8.756369,-18.15956 27.215612,-25.40669 45.683604,-30.95094 z"/><path style="fill:#000;fill-rule:evenodd;stroke:none;stroke-width:1px;stroke-linecap:butt;stroke-linejoin:miter;stroke-opacity:1" id="path4429" d="M 95.48607,164.98398 C 82.027915,169.04984 72.076314,179.24421 61.339286,191.80358 72.393749,179.38741 82.463946,169.6177 95.76393,165.9446 Z"/><path style="fill:#000;fill-rule:evenodd;stroke:none;stroke-width:1px;stroke-linecap:butt;stroke-linejoin:miter;stroke-opacity:1" id="path4433" d="m 96.964286,166.44643 -0.34836,-0.35867 c -12.589615,12.46049 -18.145692,27.18981 -32.776641,37.14438 14.771094,-9.6474 20.880063,-24.42763 33.473361,-36.42704 l -0.34836,-0.35867 z"/><path style="fill:#000;fill-rule:evenodd;stroke:none;stroke-width:1px;stroke-linecap:butt;stroke-linejoin:miter;stroke-opacity:1" id="path4437" d="m 98.682072,168.326 c -7.153533,11.86582 -7.549061,16.56664 -17.967786,28.299 10.686156,-11.53104 11.413871,-16.13521 18.817928,-27.77244 z"/><path style="fill:#000;fill-rule:evenodd;stroke:none;stroke-width:1px;stroke-linecap:butt;stroke-linejoin:miter;stroke-opacity:1" id="path4441" d="m 99.857615,170.35321 c -0.151192,7.23924 0.468155,15.6494 -10.661187,33.6825 11.427172,-17.88046 11.170112,-26.28322 11.660232,-33.63892 z"/><path style="fill:#f55;fill-rule:evenodd;stroke:#000;stroke-width:1px;stroke-linecap:butt;stroke-linejoin:miter;stroke-opacity:1" id="path4445" d="M 88.303571,161 102.5,173.5 c 2.25605,-0.25371 3.25078,-1.53941 3.66071,-3.30357 -4.97866,-4.29002 -10.142098,-8.45686 -15.624996,-12.41072 -1.462716,0.4965 -2.02662,1.71204 -2.232143,3.21429 z"/><path style="fill:#f55;fill-rule:evenodd;stroke:#000;stroke-width:1px;stroke-linecap:butt;stroke-linejoin:miter;stroke-opacity:1" id="path4447" d="m 90.946088,157.51878 c 4.69278,4.34604 9.807092,8.4334 15.393202,12.23122 2.69004,0.0574 3.28545,-1.54336 4.01785,-3.03571 L 93.392857,154.39286 c -1.42349,0.36653 -2.526653,1.08898 -2.446769,3.12592 z"/><path style="fill:#f55;fill-rule:evenodd;stroke:#000;stroke-width:1px;stroke-linecap:butt;stroke-linejoin:miter;stroke-opacity:1" id="path4449" d="m 93.482142,154.39286 c 0.617433,-1.31851 0.82453,-2.80115 3.035715,-3.48215 5.844663,3.98598 11.346623,8.48602 16.517853,13.48215 0.18271,1.52903 -0.65743,2.21311 -2.41071,2.14285 -6.12567,-3.52403 -11.940834,-7.44326 -17.142858,-12.14285 z"/><path style="fill:#000;fill-rule:evenodd;stroke:none;stroke-width:1px;stroke-linecap:butt;stroke-linejoin:miter;stroke-opacity:1" id="path4451" d="m 27.008928,216 0.473962,0.15925 c 2.842428,-8.98376 8.915335,-15.45172 13.068462,-18.0978 -4.320521,2.35784 -10.778757,8.66591 -14.016386,17.7793 L 27.008928,216 Z"/><path style="fill:#000;fill-rule:evenodd;stroke:none;stroke-width:1px;stroke-linecap:butt;stroke-linejoin:miter;stroke-opacity:1" id="path4456" d="m 106.81239,142.42184 c -1.07062,3.13112 -2.70817,5.46594 -5.20525,7.41745 2.68742,-1.6777 4.68139,-3.85792 6.13405,-7.04685 z"/><path style="fill:#000;fill-rule:evenodd;stroke:none;stroke-width:1px;stroke-linecap:butt;stroke-linejoin:miter;stroke-opacity:1" id="path4460" d="m 110.87712,145.14455 c -2.13664,3.54567 -2.53553,5.05162 -4.18069,7.37331 1.91572,-2.12778 2.63641,-3.51382 5.01573,-6.82313 z"/><path style="fill:#000;fill-rule:evenodd;stroke:none;stroke-width:1px;stroke-linecap:butt;stroke-linejoin:miter;stroke-opacity:1" id="path4464" d="m 115.6981,149.42781 c -3.75717,2.79492 -6.8847,3.86262 -9.4481,6.66148 2.79825,-2.56284 5.91134,-3.20824 10.01618,-5.83852 z"/><path style="fill:#000;fill-rule:evenodd;stroke:none;stroke-width:1px;stroke-linecap:butt;stroke-linejoin:miter;stroke-opacity:1" id="path4468" d="m 119.3756,152.8489 c -3.34309,1.97486 -5.71758,3.58714 -9.01846,4.49039 3.41235,-0.58659 5.97475,-1.91958 9.48984,-3.60847 z"/><path style="fill:#000;fill-rule:evenodd;stroke:none;stroke-width:1px;stroke-linecap:butt;stroke-linejoin:miter;stroke-opacity:1" id="path4472" d="m 110.98214,162.33929 0.35869,0.34834 c 1.39446,-1.69369 3.54805,-2.21608 5.44488,-3.56263 -1.79985,0.89961 -4.45698,1.3344 -6.16226,2.86595 l 0.35869,0.34834 z"/><path style="fill:#000;fill-rule:evenodd;stroke:none;stroke-width:1px;stroke-linecap:butt;stroke-linejoin:miter;stroke-opacity:1" id="path4476" d="m 106.68098,158.66419 c 0.16351,-0.45397 0.64306,-0.93304 1.26048,-1.38918 0.60612,-0.44779 1.2722,-0.82474 1.77088,-1.13884 -0.55441,0.15604 -1.31011,0.39048 -2.02111,0.70596 -0.68681,0.30475 -1.43504,0.72831 -1.87221,1.3151 z"/><path style="fill:#000;fill-rule:evenodd;stroke:none;stroke-width:1px;stroke-linecap:butt;stroke-linejoin:miter;stroke-opacity:1" id="path4480" d="m 101.79246,154.98928 c 1.38671,-1.1084 2.45447,-2.67729 3.20754,-4.16785 -1.05171,1.33946 -2.32891,2.59579 -3.75674,3.33215 z"/><path style="fill:#000;fill-rule:evenodd;stroke:none;stroke-width:1px;stroke-linecap:butt;stroke-linejoin:miter;stroke-opacity:1" id="path4484" d="m 98.035714,152.07143 0.404269,0.29422 c 0.524919,-1.00945 1.506347,-2.44544 1.765667,-3.5933 -0.552894,0.98345 -1.767653,2.17424 -2.574205,3.00486 l 0.404269,0.29422 z"/><ellipse style="opacity:1;fill:#502d16;fill-opacity:1;stroke:#000;stroke-width:.5;stroke-linecap:round;stroke-linejoin:round;stroke-miterlimit:4;stroke-dasharray:none;stroke-dashoffset:0;stroke-opacity:1" id="path4488" cx="236.691" cy="26.979" rx="10.083" ry="9.862"/><path style="fill:#784421;fill-rule:evenodd;stroke:#000;stroke-width:.5;stroke-linecap:butt;stroke-linejoin:bevel;stroke-miterlimit:4;stroke-dasharray:none;stroke-opacity:1" id="path4490" d="m 237.89469,36.393393 -7.99597,-16.552667 16.48756,7.910672 -18.64806,3.334348 13.59928,-12.807892 z"/><path style="fill:#28170b;fill-rule:evenodd;stroke:none;stroke-width:1px;stroke-linecap:butt;stroke-linejoin:miter;stroke-opacity:1" id="path4492" d="M 113.8947,143.49426 178.98067,74.043286 225.26402,23.917454 178.55018,73.64234 113.8947,143.49426 Z"/><path style="fill:#28170b;fill-rule:evenodd;stroke:none;stroke-width:1px;stroke-linecap:butt;stroke-linejoin:miter;stroke-opacity:1" id="path4492-8" d="m 120.83949,139.76933 30.86246,-32.70298 23.68578,-26.51722 -24.48588,25.78025 -30.06236,33.43995 z"/><path style="fill:#28170b;fill-rule:evenodd;stroke:none;stroke-width:1px;stroke-linecap:butt;stroke-linejoin:miter;stroke-opacity:1" id="path4492-8-9" d="m 192.69488,67.170883 c 10.8332,-12.202239 21.97363,-17.63876 31.54788,-21.425241 1.6236,-0.642109 3.20422,-1.237516 4.73486,-1.81156 7.43674,-3.080434 13.61543,-5.627558 17.38289,-10.517672 -3.97066,4.635684 -10.21554,6.859355 -17.73046,9.628667 -1.51442,0.617118 -3.08395,1.257608 -4.69753,1.945376 -9.56083,4.075191 -20.59391,9.7814 -31.23764,22.18043 z"/><path style="fill:#28170b;fill-rule:evenodd;stroke:none;stroke-width:1px;stroke-linecap:butt;stroke-linejoin:miter;stroke-opacity:1" id="path4492-8-7" d="m 158.90962,101.38353 c 17.63523,-17.404701 32.44777,-38.168443 51.77554,-53.119055 5.74788,-4.773865 11.94628,-9.023834 18.81067,-12.468252 -7.03983,3.088338 -13.48905,7.019739 -19.54706,11.532697 -19.11994,15.292313 -33.81785,36.502962 -51.03915,54.05461 z"/><path style="fill:#28170b;fill-rule:evenodd;stroke:none;stroke-width:1px;stroke-linecap:butt;stroke-linejoin:miter;stroke-opacity:1" id="path4540" d="m 120.53571,144.75 c 3.62442,-3.65642 7.24883,-7.31284 10.87325,-10.96926 9.26249,-10.30191 18.52498,-20.60383 27.78747,-30.90574 -9.53097,10.05405 -19.06194,20.10809 -28.5929,30.16214 -3.35594,3.90428 -6.71188,7.80857 -10.06782,11.71286 z"/><path style="fill:#28170b;fill-rule:evenodd;stroke:none;stroke-width:1px;stroke-linecap:butt;stroke-linejoin:miter;stroke-opacity:1" id="path4544" d="m 202.09364,51.380976 15.75981,-15.052711 7.4737,-8.370201 -8.30925,7.541408 -14.92426,15.881504 z"/><path style="fill:#6c5d53;fill-rule:evenodd;stroke:none;stroke-width:1px;stroke-linecap:butt;stroke-linejoin:miter;stroke-opacity:1" id="path4548" d="m 80.433396,166.2227 c -7.77858,1.42722 -15.141292,4.10131 -21.324773,7.31761 -0.69048,0.42854 -1.363188,0.86346 -2.016955,1.30354 -6.267592,4.21904 -10.785963,8.91047 -12.518687,12.97086 2.175846,-3.76561 6.985841,-7.96409 13.357424,-11.62548 0.666556,-0.38303 1.350457,-0.76031 2.050509,-1.13071 5.74238,-3.63595 12.803994,-6.83965 20.452482,-8.83582 z"/><path style="fill:#6c5d53;fill-rule:evenodd;stroke:none;stroke-width:1px;stroke-linecap:butt;stroke-linejoin:miter;stroke-opacity:1" id="path4548-2" d="m 52.59691,195.50451 c -6.503726,2.38267 -11.974598,6.35933 -16.289656,10.95231 -4.813654,6.07439 -7.651352,12.82414 -8.470768,18.24105 1.388991,-5.28959 4.72867,-11.62109 9.80297,-17.10259 3.704636,-4.77873 8.693038,-9.17548 14.957454,-12.09077 z"/><path style="fill:#6c5d53;fill-rule:evenodd;stroke:none;stroke-width:1px;stroke-linecap:butt;stroke-linejoin:miter;stroke-opacity:1" id="path4548-4" d="m 34.61283,234.37495 c 7.668575,-2.87197 16.061766,-6.73207 23.454491,-10.75428 0.831161,-0.52231 1.648029,-1.04643 2.447874,-1.57101 7.664063,-5.02649 13.768028,-10.09921 15.862486,-13.99887 -2.494106,3.54217 -8.85407,8.13442 -16.693361,12.64863 -0.819992,0.47218 -1.656432,0.94366 -2.506606,1.41313 -7.026305,4.48361 -15.120435,8.85161 -22.564884,12.2624 z"/><path style="fill:#6c5d53;fill-rule:evenodd;stroke:none;stroke-width:1px;stroke-linecap:butt;stroke-linejoin:miter;stroke-opacity:1" id="path4548-4-6" d="m 59.954944,232.62348 c 6.685592,-1.852 13.53451,-5.99674 19.434144,-10.74079 0.646604,-0.59895 1.278666,-1.20458 1.894515,-1.81411 5.896826,-5.83633 10.324475,-12.04672 11.799561,-16.20095 -1.939619,3.8972 -6.743965,9.70308 -12.878376,15.03919 -0.641005,0.55758 -1.296508,1.11005 -1.964781,1.65472 -5.376782,5.06268 -11.818161,9.66733 -18.285063,12.06194 z"/><path style="fill:#6c5d53;fill-rule:evenodd;stroke:none;stroke-width:1px;stroke-linecap:butt;stroke-linejoin:miter;stroke-opacity:1" id="path4548-4-0" d="m 77.435914,213.29624 c 5.55295,-4.15834 10.423533,-10.51161 14.191812,-17.07756 0.384252,-0.79322 0.752528,-1.58736 1.104284,-2.37923 3.368106,-7.58229 5.231657,-14.97825 5.09354,-19.38444 -0.388108,4.33586 -2.749747,11.49216 -6.521207,18.69502 -0.394092,0.75265 -0.803552,1.50581 -1.227744,2.25635 -3.165317,6.67243 -7.488919,13.30572 -12.640685,17.88986 z"/><path style="fill:#6c5d53;fill-rule:evenodd;stroke:none;stroke-width:1px;stroke-linecap:butt;stroke-linejoin:miter;stroke-opacity:1" id="path4548-4-0-4" d="m 63.140559,208.75472 c 5.893678,-3.43243 11.908735,-8.71617 17.032289,-14.23708 0.55033,-0.68351 1.087519,-1.36904 1.610027,-2.054 5.004543,-6.56046 8.670678,-13.07889 9.622904,-17.25673 -1.440599,3.96733 -5.526483,10.13705 -10.851984,16.25528 -0.556757,0.63964 -1.127147,1.27883 -1.709583,1.91503 -4.590788,5.79615 -10.147776,11.46848 -15.703653,15.3775 z"/><path style="fill:#ffd5d5;fill-rule:evenodd;stroke:none;stroke-width:1px;stroke-linecap:butt;stroke-linejoin:miter;stroke-opacity:1" id="path4622" d="m 99.732142,155.15179 c 1.473558,1.07896 4.487868,3.40311 6.461398,4.84873 0.73976,0.54187 1.47676,1.06988 2.19461,1.56448 1.3721,1.24599 2.68229,2.36295 3.75471,3.14036 -1.24275,-0.49746 -2.75468,-1.35156 -4.34997,-2.35571 -0.67797,-0.56418 -1.37285,-1.16027 -2.06608,-1.76672 -2.16854,-1.89708 -4.34049,-3.91248 -5.994668,-5.43114 z"/><path style="fill:#ffd5d5;fill-rule:evenodd;stroke:none;stroke-width:1px;stroke-linecap:butt;stroke-linejoin:miter;stroke-opacity:1" id="path4622-1" d="m 95.98214,157.91965 c 1.473088,1.07862 4.48834,3.40346 6.4614,4.84873 0.73975,0.54187 1.47676,1.06988 2.19461,1.56448 1.3721,1.24599 2.68229,2.36295 3.75471,3.14036 -1.24275,-0.49746 -2.75468,-1.35156 -4.34997,-2.35571 -0.67798,-0.56418 -1.37285,-1.16027 -2.06608,-1.76672 -2.168546,-1.89707 -4.340497,-3.91248 -5.99467,-5.43114 z"/><path style="fill:#ffd5d5;fill-rule:evenodd;stroke:none;stroke-width:1px;stroke-linecap:butt;stroke-linejoin:miter;stroke-opacity:1" id="path4622-7" d="m 92.366069,160.86607 c 1.474424,1.07959 4.487008,3.40248 6.4614,4.84873 0.739757,0.54187 1.476761,1.06988 2.194611,1.56448 1.3721,1.24599 2.68229,2.36295 3.75471,3.14036 -1.24275,-0.49746 -2.75468,-1.35156 -4.34997,-2.35571 -0.677975,-0.56418 -1.372848,-1.16027 -2.066083,-1.76672 -2.168541,-1.89707 -4.340493,-3.91248 -5.994668,-5.43114 z"/></g></svg>