<svg xmlns="http://www.w3.org/2000/svg" xmlns:svg="http://www.w3.org/2000/svg" id="svg2" version="1.1" viewBox="0 0 256 256"><style id="style3">svg{cursor:default}</style><metadata id="metadata7"/><g id="layer1" style="display:inline"><path id="path4140" d="m 94.772125,129.39526 -0.01571,22.63838 2.170488,-25.95229 c 4.528757,-8.54401 15.288707,-19.11028 26.989267,-29.022342 l 0.5574,11.452932 8.49319,-18.866774 c 11.94331,-9.489231 23.47008,-17.617152 29.14473,-21.633948 l -5.61216,19.075565 9.40645,-20.624647 c 10.80686,-7.087786 42.97374,-16.468135 63.96513,-44.262922 1.60022,31.918409 -36.06852,74.668418 -42.78418,91.347976 l -24.86732,6.91109 24.23307,-3.94985 c -2.84766,9.15645 -6.66687,17.54436 -11.43899,25.37308 l -8.6966,2.85377 3.96572,4.29803 c -6.05364,8.46643 -13.3139,16.30344 -21.75399,23.81204 l -27.09916,8.36983 24.62957,-5.33611 c -20.18063,17.18451 -39.00652,28.18484 -62.270105,26.65163 0,0 -0.853052,-0.87236 -1.630569,-1.46306 -5.153143,-35.12664 3.022797,-60.30605 12.613769,-71.67238 z" style="display:inline;fill:#faa;fill-rule:evenodd;stroke:#000;stroke-width:1px;stroke-linecap:butt;stroke-linejoin:miter;stroke-opacity:1"/><path id="path4142" d="M 84.107143,202.25 134.10714,125.10714 C 166.20535,91.256604 215.45194,58.660826 229.64286,23.5 c 0.92355,33.465235 -28.15861,59.656358 -42.32143,89.46429 l -24.82143,7.5 23.75,-3.75 c -2.49822,8.8178 -6.09241,16.99808 -10.96821,24.91929 l -8.95667,2.92821 4.00629,4.43106 c -5.75949,7.885 -12.88926,15.62593 -21.58141,23.61429 L 122.23214,181 145.53571,176.35714 C 124.68478,193.91538 105.83333,203.17262 84.107143,202.25 Z" style="display:inline;fill:#000;fill-opacity:.17757012;fill-rule:evenodd;stroke:none;stroke-width:1px;stroke-linecap:butt;stroke-linejoin:miter;stroke-opacity:1"/><path id="path4144" d="M 203.8544,60.562225 C 183.02655,80.230876 154.68354,100.00425 134.23774,123.15403 105.20371,156.02786 98.278673,188.85841 49.373973,242.42481 99.022425,192.09753 109.07831,157.61541 136.68401,124.31197 155.78218,101.27201 186.75325,80.026463 203.8544,60.562225 Z" style="display:inline;fill:#4d4d4d;fill-rule:evenodd;stroke:#000;stroke-width:1px;stroke-linecap:butt;stroke-linejoin:miter;stroke-opacity:1"/><path id="path4225" d="m 233.29672,50.949679 c -2.24928,46.402948 -13.742,91.441001 -36.36234,128.348581 -16.75752,30.9647 -41.37779,57.42402 -75.52931,75.26613 35.10138,-15.98467 61.78859,-41.17987 80.94934,-72.12086 21.40046,-38.96332 30.78216,-85.194899 30.94231,-131.493851 z" style="display:inline;fill:#ff8080;fill-rule:evenodd;stroke:none;stroke-width:1px;stroke-linecap:butt;stroke-linejoin:miter;stroke-opacity:1"/><path id="path4229" d="M 29.41827,219.93559 C 31.237451,173.51379 42.312319,128.37117 64.589674,91.255557 81.059533,60.136896 105.43356,33.450562 139.41827,15.292746 104.46652,31.602006 78.013937,57.043426 59.140729,88.160649 38.102253,127.3206 29.14937,173.63714 29.41827,219.93559 Z" style="display:inline;fill:#ff8080;fill-rule:evenodd;stroke:none;stroke-width:1px;stroke-linecap:butt;stroke-linejoin:miter;stroke-opacity:1"/></g></svg>