<svg xmlns="http://www.w3.org/2000/svg" xmlns:svg="http://www.w3.org/2000/svg" id="svg2" version="1.1" viewBox="0 0 256 256"><metadata id="metadata7"/><g id="layer3" style="display:inline"><path id="path4168" d="M 94.772125,129.39526 C 115.91525,97.859253 140.43837,80.174386 165.90578,66.462136 177.285,60.335295 208.87952,49.994001 229.87091,22.199214 c -0.18007,41.841758 -25.00567,54.858008 -43.41843,94.309216 -17.22385,36.90385 -27.68447,48.27648 -38.78631,58.12064 -19.83219,17.58548 -40.61366,29.43484 -63.877245,27.90163 0,0 -0.853052,-0.87236 -1.630569,-1.46306 -5.153143,-35.12664 4.331925,-59.3196 12.613769,-71.67238 z" style="display:inline;fill:#faa;fill-rule:evenodd;stroke:#000;stroke-width:1px;stroke-linecap:butt;stroke-linejoin:miter;stroke-opacity:1"/><path id="path4170" d="M 84.107143,202.25 134.10714,125.10714 C 166.20535,91.256604 215.98765,58.303683 229.64286,23.5 c -1.75888,23.084924 -3.57187,29.960419 -12.64252,43.51129 -30.10415,44.97333 -34.72907,60.64628 -46.85831,80.54511 -19.38769,31.80682 -55.98531,57.13655 -86.034887,54.6936 z" style="display:inline;fill:#000;fill-opacity:.17757012;fill-rule:evenodd;stroke:none;stroke-width:1px;stroke-linecap:butt;stroke-linejoin:miter;stroke-opacity:1"/><path id="path4172" d="M 203.8544,60.562225 C 183.02655,80.230876 154.68354,100.00425 134.23774,123.15403 105.20371,156.02786 98.278673,188.85841 49.373973,242.42481 99.022425,192.09753 109.07831,157.61541 136.68401,124.31197 155.78218,101.27201 186.75325,80.026463 203.8544,60.562225 Z" style="display:inline;fill:#4d4d4d;fill-rule:evenodd;stroke:#000;stroke-width:1px;stroke-linecap:butt;stroke-linejoin:miter;stroke-opacity:1"/><path style="display:inline;fill:#ff8080;fill-rule:evenodd;stroke:none;stroke-width:1px;stroke-linecap:butt;stroke-linejoin:miter;stroke-opacity:1" id="path4681" d="m 233.29672,50.949679 c -2.24928,46.402948 -13.742,91.441001 -36.36234,128.348581 -16.75752,30.9647 -41.37779,57.42402 -75.52931,75.26613 35.10138,-15.98467 61.78859,-41.17987 80.94934,-72.12086 21.40046,-38.96332 30.78216,-85.194899 30.94231,-131.493851 z"/><path style="display:inline;fill:#ff8080;fill-rule:evenodd;stroke:none;stroke-width:1px;stroke-linecap:butt;stroke-linejoin:miter;stroke-opacity:1" id="path4685" d="m 240.49849,105.44978 c -4.10044,31.911 -13.18567,62.5842 -27.92445,87.18905 -10.95528,20.57278 -25.90596,37.60963 -45.5359,48.27335 20.28044,-9.54171 36.50094,-25.83382 48.91879,-46.35838 13.90664,-25.76403 21.73794,-57.14231 24.54156,-89.10402 z"/><path style="display:inline;fill:#ff8080;fill-rule:evenodd;stroke:none;stroke-width:1px;stroke-linecap:butt;stroke-linejoin:miter;stroke-opacity:1" id="path4645" d="M 29.41827,219.93559 C 31.237451,173.51379 42.312319,128.37117 64.589674,91.255557 81.059533,60.136896 105.43356,33.450562 139.41827,15.292746 104.46652,31.602006 78.013937,57.043426 59.140729,88.160649 38.102253,127.3206 29.14937,173.63714 29.41827,219.93559 Z"/><path style="display:inline;fill:#ff8080;fill-rule:evenodd;stroke:none;stroke-width:1px;stroke-linecap:butt;stroke-linejoin:miter;stroke-opacity:1" id="path4649" d="M 21.711776,165.50457 C 25.516326,133.55693 34.316924,102.80086 48.827064,78.060486 59.591225,57.387066 74.383392,40.212403 93.913672,29.36724 73.722521,39.096475 57.653694,55.538195 45.426572,76.176943 31.759285,102.06874 24.219093,133.51824 21.711776,165.50457 Z"/><path id="path4198-1" d="m 252.17403,137.38186 c -3.72909,24.32601 -10.46776,47.64053 -20.45906,66.15105 -7.4005,15.40873 -17.09639,27.94864 -29.39922,35.46823 12.81904,-6.78656 23.39103,-18.86743 31.78001,-34.25517 9.35994,-19.23506 15.23931,-42.96134 18.07827,-67.36411 z" style="display:inline;fill:#ff8080;fill-rule:evenodd;stroke:none;stroke-width:1px;stroke-linecap:butt;stroke-linejoin:miter;stroke-opacity:1"/><path id="path4432-6" d="M 14.977188,127.51766 C 15.72889,106.50336 20.767608,85.857118 31.011613,68.582889 38.578827,54.097811 49.814629,41.445247 65.503604,32.440203 49.341609,40.598906 37.146399,52.685499 28.472647,67.158422 18.811925,85.374983 14.75876,106.5557 14.977188,127.51766 Z" style="display:inline;fill:#ff8080;fill-rule:evenodd;stroke:none;stroke-width:1px;stroke-linecap:butt;stroke-linejoin:miter;stroke-opacity:1"/></g></svg>