<svg xmlns="http://www.w3.org/2000/svg" xmlns:svg="http://www.w3.org/2000/svg" id="svg2" version="1.1" viewBox="0 0 256 256"><metadata id="metadata7"/><g id="layer2" style="display:inline"><path style="fill:#faa;fill-rule:evenodd;stroke:#000;stroke-width:1px;stroke-linecap:butt;stroke-linejoin:miter;stroke-opacity:1" id="path5354" d="m 94.772125,129.39526 -0.01571,22.63838 2.170488,-25.95229 C 107.18074,106.73632 149.37844,77.024303 162.11149,68.011218 l -5.61216,19.075565 9.40645,-20.624647 c 10.80686,-7.087786 42.97374,-16.468135 63.96513,-44.262922 1.60022,31.918409 -36.06852,74.668418 -42.78418,91.347976 l -24.86732,6.91109 24.23307,-3.94985 c -6.94792,22.34052 -19.67939,40.106 -37.92386,56.33692 l -27.09916,8.36983 24.62957,-5.33611 c -20.18063,17.18451 -39.00652,28.18484 -62.270105,26.65163 0,0 -0.853052,-0.87236 -1.630569,-1.46306 -5.153143,-35.12664 3.022797,-60.30605 12.613769,-71.67238 z"/><path style="fill:#000;fill-opacity:.17757012;fill-rule:evenodd;stroke:none;stroke-width:1px;stroke-linecap:butt;stroke-linejoin:miter;stroke-opacity:1" id="path4137" d="M 84.107143,202.25 134.10714,125.10714 C 166.20535,91.256604 215.45194,58.660826 229.64286,23.5 c 0.92355,33.465235 -28.15861,59.656358 -42.32143,89.46429 l -24.82143,7.5 23.75,-3.75 c -5.80531,20.49059 -17.52872,37.53861 -37.5,55.89285 L 122.23214,181 145.53571,176.35714 C 124.68478,193.91538 105.83333,203.17262 84.107143,202.25 Z"/><path style="fill:#4d4d4d;fill-rule:evenodd;stroke:#000;stroke-width:1px;stroke-linecap:butt;stroke-linejoin:miter;stroke-opacity:1" id="path5356" d="M 203.8544,60.562225 C 183.02655,80.230876 154.68354,100.00425 134.23774,123.15403 105.20371,156.02786 98.278673,188.85841 49.373973,242.42481 99.022425,192.09753 109.07831,157.61541 136.68401,124.31197 155.78218,101.27201 186.75325,80.026463 203.8544,60.562225 Z"/><path id="path4205" d="m 233.29672,50.949679 c -2.24928,46.402948 -13.742,91.441001 -36.36234,128.348581 -16.75752,30.9647 -41.37779,57.42402 -75.52931,75.26613 35.10138,-15.98467 61.78859,-41.17987 80.94934,-72.12086 21.40046,-38.96332 30.78216,-85.194899 30.94231,-131.493851 z" style="display:inline;fill:#ff8080;fill-rule:evenodd;stroke:none;stroke-width:1px;stroke-linecap:butt;stroke-linejoin:miter;stroke-opacity:1"/><path id="path4209" d="m 240.49849,105.44978 c -4.10044,31.911 -13.18567,62.5842 -27.92445,87.18905 -10.95528,20.57278 -25.90596,37.60963 -45.5359,48.27335 20.28044,-9.54171 36.50094,-25.83382 48.91879,-46.35838 13.90664,-25.76403 21.73794,-57.14231 24.54156,-89.10402 z" style="display:inline;fill:#ff8080;fill-rule:evenodd;stroke:none;stroke-width:1px;stroke-linecap:butt;stroke-linejoin:miter;stroke-opacity:1"/><path id="path4213" d="M 29.41827,219.93559 C 31.237451,173.51379 42.312319,128.37117 64.589674,91.255557 81.059533,60.136896 105.43356,33.450562 139.41827,15.292746 104.46652,31.602006 78.013937,57.043426 59.140729,88.160649 38.102253,127.3206 29.14937,173.63714 29.41827,219.93559 Z" style="display:inline;fill:#ff8080;fill-rule:evenodd;stroke:none;stroke-width:1px;stroke-linecap:butt;stroke-linejoin:miter;stroke-opacity:1"/><path id="path4217" d="M 21.711776,165.50457 C 25.516326,133.55693 34.316924,102.80086 48.827064,78.060486 59.591225,57.387066 74.383392,40.212403 93.913672,29.36724 73.722521,39.096475 57.653694,55.538195 45.426572,76.176943 31.759285,102.06874 24.219093,133.51824 21.711776,165.50457 Z" style="display:inline;fill:#ff8080;fill-rule:evenodd;stroke:none;stroke-width:1px;stroke-linecap:butt;stroke-linejoin:miter;stroke-opacity:1"/></g></svg>