<svg xmlns="http://www.w3.org/2000/svg" xmlns:svg="http://www.w3.org/2000/svg" xmlns:xlink="http://www.w3.org/1999/xlink" id="svg4311" width="100%" height="100%" version="1.1" viewBox="0 0 64 64"><defs id="defs4313"><linearGradient id="gardenGradient"><stop style="stop-color:#f55;stop-opacity:1" id="stop4184" offset="0"/><stop style="stop-color:#ff8080;stop-opacity:1" id="stop4186" offset="1"/></linearGradient><linearGradient id="linearGradient15" x1="29.5" x2="44.125" y1="1025.487" y2="1003.362" gradientTransform="matrix(1.2884366,0,0,1.290513,-9.2250812,-296.31254)" gradientUnits="userSpaceOnUse" xlink:href="#gardenGradient"/></defs><metadata id="metadata4316"/><g id="layer1" transform="translate(0,-988.36216)" style="display:inline"><ellipse id="ellipse4146" cx="32" cy="1020.368" rx="30.383" ry="30.381" style="display:inline;fill:url(#linearGradient15);fill-opacity:1;fill-rule:evenodd;stroke:none;stroke-width:5.4000001;stroke-linecap:butt;stroke-linejoin:miter;stroke-miterlimit:4;stroke-dasharray:none;stroke-opacity:1"/><path style="fill:none;fill-rule:evenodd;stroke:#fff;stroke-width:3.89602208;stroke-linecap:butt;stroke-linejoin:miter;stroke-miterlimit:4;stroke-dasharray:none;stroke-opacity:1" id="path4210" d="m 30.139846,1010.3558 c -12.801347,-14.49387 9.763343,-13.12392 4.239276,-0.044 8.423736,-11.08609 21.194412,9.5948 2.068519,4.2879 21.808302,8.522 -1.880846,19.2266 -3.175152,2.2056 -0.600721,14.5356 -19.900146,-0.1227 -3.844455,-2.5805 -17.011919,0.6305 -13.91075,-17.292 0.711812,-3.8686 z"/><ellipse style="fill:#fff;fill-opacity:1;stroke:#fff;stroke-width:3.89602208;stroke-linecap:round;stroke-linejoin:round;stroke-miterlimit:4;stroke-dasharray:none;stroke-dashoffset:0;stroke-opacity:1" id="path4212" cx="533.207" cy="861.906" rx="4.343" ry="2.822" transform="matrix(0.86710681,0.49812225,-0.49812225,0.86710681,0,0)"/><path style="fill:none;fill-rule:evenodd;stroke:#fff;stroke-width:4.4000001;stroke-linecap:round;stroke-linejoin:miter;stroke-miterlimit:4;stroke-dasharray:none;stroke-opacity:1" id="path4216" d="m 30.892464,1023.4304 c -0.02819,6.554 0.629891,13.5096 5.187501,20.4312"/></g></svg>