<svg xmlns="http://www.w3.org/2000/svg" xmlns:svg="http://www.w3.org/2000/svg" xmlns:xlink="http://www.w3.org/1999/xlink" id="svg4311" width="100%" height="100%" version="1.1" viewBox="0 0 64 64"><defs id="defs4313"><linearGradient id="kitchenGradient"><stop style="stop-color:#f55;stop-opacity:1" id="stop4184" offset="0"/><stop style="stop-color:#ff8080;stop-opacity:1" id="stop4186" offset="1"/></linearGradient><linearGradient id="linearGradient15" x1="29.5" x2="44.125" y1="1025.487" y2="1003.362" gradientTransform="matrix(1.2884366,0,0,1.290513,-9.2250812,-296.31254)" gradientUnits="userSpaceOnUse" xlink:href="#kitchenGradient"/></defs><metadata id="metadata4316"/><g id="layer1" transform="translate(0,-988.36216)" style="display:inline"><ellipse id="ellipse4146" cx="32" cy="1020.368" rx="30.383" ry="30.381" style="display:inline;fill:url(#linearGradient15);fill-opacity:1;fill-rule:evenodd;stroke:none;stroke-width:5.4000001;stroke-linecap:butt;stroke-linejoin:miter;stroke-miterlimit:4;stroke-dasharray:none;stroke-opacity:1"/><g id="g4232" transform="matrix(0.95,0,0,0.95,1.3557395,51.435987)"><path id="path4143" d="m 14.113333,1018.6751 -0.02412,16.3582" style="fill:none;fill-rule:evenodd;stroke:#fff;stroke-width:13.69979477;stroke-linecap:butt;stroke-linejoin:miter;stroke-miterlimit:4;stroke-dasharray:none;stroke-opacity:1"/><path id="path4148" d="m 22.159837,1019.7669 c 1.1,0 20.487499,0 20.487499,0" style="fill:none;fill-rule:evenodd;stroke:#fff;stroke-width:2.20000005;stroke-linecap:butt;stroke-linejoin:miter;stroke-miterlimit:4;stroke-dasharray:none;stroke-opacity:1"/><path id="path4154" d="m 19.144739,1006.6508 26.229844,0 -7.700863,-4.8708 -0.07818,-3.57354 -10.632662,-0.0523 0.07818,3.54704 z" style="fill:#fff;fill-rule:evenodd;stroke:#fff;stroke-width:1.0293808;stroke-linecap:butt;stroke-linejoin:round;stroke-miterlimit:4;stroke-dasharray:none;stroke-opacity:1"/><path id="path4172" d="m 22.206491,1021.9962 0,12.9887 20.453125,0 0,-12.9381 -20.453125,-0.05 z m 4.773829,3.2693 10.871093,0.028 0,6.8764 -10.871093,0 0,-6.9049 z" style="fill:#fff;fill-rule:evenodd;stroke:none;stroke-width:1px;stroke-linecap:butt;stroke-linejoin:miter;stroke-opacity:1"/><path id="path4143-8" d="m 50.746969,1018.683 -0.02412,16.3582" style="display:inline;fill:none;fill-rule:evenodd;stroke:#fff;stroke-width:13.69979477;stroke-linecap:butt;stroke-linejoin:miter;stroke-miterlimit:4;stroke-dasharray:none;stroke-opacity:1"/></g></g></svg>