<svg xmlns="http://www.w3.org/2000/svg" xmlns:svg="http://www.w3.org/2000/svg" id="svg4311" width="100%" height="100%" version="1.1" viewBox="0 0 64 64"><metadata id="metadata4316"/><g id="layer5" style="display:inline;opacity:1"><path style="fill:#ff8080;fill-opacity:1;stroke:#000;stroke-width:.73031849;stroke-linecap:round;stroke-miterlimit:4;stroke-dasharray:none;stroke-dashoffset:0;stroke-opacity:1" id="path4168" d="M 12.142857,4.1785731 -8.3375598,4.867448 -15.321516,-14.397712 0.8425794,-26.993111 17.816495,-15.512335 Z" transform="matrix(1.5645444,0.05692315,-0.03980006,1.6319874,29.685873,48.596329)"/><flowRoot id="flowRoot4156" xml:space="preserve" style="fill:#000;stroke:none;stroke-opacity:1;stroke-width:1px;stroke-linejoin:miter;stroke-linecap:butt;fill-opacity:1;font-family:sans-serif;font-style:normal;font-weight:400;font-size:40px;line-height:125%;letter-spacing:0;word-spacing:0"><flowRegion id="flowRegion4158"><rect id="rect4160" width="42.679" height="44.068" x="6.566" y="11.22"/></flowRegion><flowPara id="flowPara4162"/></flowRoot><flowRoot id="flowRoot4168" xml:space="preserve" style="fill:#000;stroke:none;stroke-opacity:1;stroke-width:1px;stroke-linejoin:miter;stroke-linecap:butt;fill-opacity:1;font-family:sans-serif;font-style:normal;font-weight:400;font-size:40px;line-height:125%;letter-spacing:0;word-spacing:0"><flowRegion id="flowRegion4170"><rect id="rect4172" width="63.766" height="63.64" x=".253" y="-.271"/></flowRegion><flowPara id="flowPara4174"/></flowRoot><path style="display:inline;opacity:1;fill:#f9f9f9;fill-opacity:1;fill-rule:evenodd;stroke:none;stroke-width:1px;stroke-linecap:butt;stroke-linejoin:miter;stroke-opacity:1" id="path4281-0" d="M 32.58813,6.8299461 C 43.141652,14.150158 45.68552,16.35403 56.6841,24.88989 47.793699,22.27626 34.541579,9.5048609 32.58813,6.8299461 Z"/><path style="display:inline;opacity:1;fill:#000;fill-opacity:.44859811;fill-rule:evenodd;stroke:none;stroke-width:1px;stroke-linecap:butt;stroke-linejoin:miter;stroke-opacity:1" id="path4283-0" d="M 48.528934,55.968492 C 36.350582,56.180178 24.675347,56.047986 16.557409,55.981412 13.168111,46.178694 9.9127758,35.093102 6.3878346,24.118699 11.878755,36.064798 12.7552,43.733966 21.138496,50.327266 c 6.025034,4.738571 15.106093,4.469879 27.390438,5.641226 z"/><path style="display:inline;opacity:1;fill:#ff2a2a;fill-rule:evenodd;stroke:none;stroke-width:.917126px;stroke-linecap:butt;stroke-linejoin:miter;stroke-opacity:1" id="path4163" d="m 31.959992,51.094479 c -1.958915,1.39178 -8.308599,-0.752991 -10.946527,-3.435914 -1.834744,-1.86604 -1.951936,-5.220396 -1.803714,-7.442176 0.162625,-2.437421 0.9775,-5.307821 1.36907,-7.565823 0.06064,-1.038146 -2.007633,-13.813369 1.275434,-13.588328 1.741569,0.119378 1.104459,10.911784 2.397021,12.140124 0.202336,0.192297 0.757983,0.05063 1.036772,0.10395 0.547081,0.104626 0.921385,-2.71005 1.643195,-5.917131 1.083196,-4.812758 2.647664,-10.607164 4.34381,-9.528788 1.179101,0.749651 0.221457,4.723227 -0.578072,8.284449 -0.706014,3.144687 -1.257158,5.959498 -0.557369,6.066882 1.588138,0.243696 3.487406,-8.406917 5.456199,-12.678031 0.781496,-1.69539 1.45743,-2.47453 2.306619,-2.077825 1.787495,0.83504 0.394814,5.733485 -1.1326,10.046419 -1.007367,2.84444 -2.410005,5.722252 -1.800821,5.987749 0.925613,0.40341 3.041423,-3.640758 5.255696,-7.317833 1.277136,-2.120825 1.899349,-5.237073 3.544492,-4.561732 1.984301,0.814563 -0.536099,6.760575 -4.966922,13.739646 -0.630166,0.992582 -1.218394,2.738284 -1.071283,3.910927 0.157428,1.254859 -0.313915,3.633026 0.779378,3.091446 1.821812,-0.902469 3.888631,-3.115929 5.688081,-4.287372 2.712503,-1.765849 5.191217,-2.1187 4.777508,-0.03693 -0.15468,0.778359 -4.187008,3.90991 -8.741416,8.795234 -2.176376,2.334514 -5.341242,4.186997 -8.27454,6.271065 z"/></g></svg>