<svg xmlns="http://www.w3.org/2000/svg" xmlns:svg="http://www.w3.org/2000/svg" id="svg4311" width="100%" height="100%" version="1.1" viewBox="0 0 64 64"><metadata id="metadata4316"/><g id="layer5" style="display:inline;opacity:1"><path style="fill:#ff8080;fill-opacity:1;stroke:#000;stroke-width:.73031849;stroke-linecap:round;stroke-miterlimit:4;stroke-dasharray:none;stroke-dashoffset:0;stroke-opacity:1" id="path4168" d="M 12.142857,4.1785731 -8.3375598,4.867448 -15.321516,-14.397712 0.8425794,-26.993111 17.816495,-15.512335 Z" transform="matrix(1.5645444,0.05692315,-0.03980006,1.6319874,29.685873,48.596329)"/><flowRoot id="flowRoot4156" xml:space="preserve" style="fill:#000;stroke:none;stroke-opacity:1;stroke-width:1px;stroke-linejoin:miter;stroke-linecap:butt;fill-opacity:1;font-family:sans-serif;font-style:normal;font-weight:400;font-size:40px;line-height:125%;letter-spacing:0;word-spacing:0"><flowRegion id="flowRegion4158"><rect id="rect4160" width="42.679" height="44.068" x="6.566" y="11.22"/></flowRegion><flowPara id="flowPara4162"/></flowRoot><flowRoot id="flowRoot4168" xml:space="preserve" style="fill:#000;stroke:none;stroke-opacity:1;stroke-width:1px;stroke-linejoin:miter;stroke-linecap:butt;fill-opacity:1;font-family:sans-serif;font-style:normal;font-weight:400;font-size:40px;line-height:125%;letter-spacing:0;word-spacing:0"><flowRegion id="flowRegion4170"><rect id="rect4172" width="63.766" height="63.64" x=".253" y="-.271"/></flowRegion><flowPara id="flowPara4174"/></flowRoot><path style="display:inline;opacity:1;fill:#f9f9f9;fill-opacity:1;fill-rule:evenodd;stroke:none;stroke-width:1px;stroke-linecap:butt;stroke-linejoin:miter;stroke-opacity:1" id="path4281-0" d="M 32.58813,6.8299461 C 43.141652,14.150158 45.68552,16.35403 56.6841,24.88989 47.793699,22.27626 34.541579,9.5048609 32.58813,6.8299461 Z"/><path style="display:inline;opacity:1;fill:#000;fill-opacity:.44859811;fill-rule:evenodd;stroke:none;stroke-width:1px;stroke-linecap:butt;stroke-linejoin:miter;stroke-opacity:1" id="path4283-0" d="M 48.528934,55.968492 C 36.350582,56.180178 24.675347,56.047986 16.557409,55.981412 13.168111,46.178694 9.9127758,35.093102 6.3878346,24.118699 11.878755,36.064798 12.7552,43.733966 21.138496,50.327266 c 6.025034,4.738571 15.106093,4.469879 27.390438,5.641226 z"/><g id="g4170" transform="matrix(0.9025,0,0,0.9025,56.496254,2.4383544)" style="fill:#ff2a2a"><path id="path4170" d="m -43.391676,39.40743 c -7.639798,-0.08731 -5.729412,-11.644024 -2.015781,-12.709219 1.04401,-1.766828 2.025162,-2.710362 2.025162,-2.710362 0,0 1.275355,1.282865 2.230482,2.708897 3.987448,0.895705 4.674964,12.789711 -2.239863,12.710684 z" style="display:inline;opacity:1;fill:#ff2a2a;fill-rule:evenodd;stroke:none;stroke-width:.5;stroke-linecap:butt;stroke-linejoin:miter;stroke-miterlimit:4;stroke-dasharray:none;stroke-opacity:1"/><path id="path4172" d="m -37.346028,52.259853 c -2.409072,-0.441319 -4.537481,-4.625901 -4.504501,-6.092212 0.07557,-3.359623 7.352928,-14.656794 14.319418,-14.461581 8.049191,0.22555 11.810463,11.49127 12.700016,15.336144 0.605287,2.616224 -2.44021,5.644362 -5.459532,5.916072 -2.458507,0.221241 -4.215617,-2.139623 -7.040968,-2.917358 -2.359447,-0.649487 -7.575004,2.665815 -10.014433,2.218935 z" style="display:inline;opacity:1;fill:#ff2a2a;fill-rule:evenodd;stroke:none;stroke-width:.5;stroke-linecap:butt;stroke-linejoin:miter;stroke-miterlimit:4;stroke-dasharray:none;stroke-opacity:1"/><path id="path4170-8" d="m -31.482296,30.547824 c -7.622832,0.51711 -6.629128,-11.154604 -3.011026,-12.510151 0.901518,-1.84387 1.805252,-2.86205 1.805252,-2.86205 0,0 1.372473,1.178008 2.436995,2.524056 4.04559,0.577586 5.668259,12.380105 -1.231221,12.848145 z" style="display:inline;opacity:1;fill:#ff2a2a;fill-rule:evenodd;stroke:none;stroke-width:.5;stroke-linecap:butt;stroke-linejoin:miter;stroke-miterlimit:4;stroke-dasharray:none;stroke-opacity:1"/><path id="path4170-6" d="m -19.764233,31.460343 c -7.561214,-1.098318 -4.142423,-12.300591 -0.320808,-12.864626 1.268021,-1.613054 2.365078,-2.418371 2.365078,-2.418371 0,0 1.094858,1.440505 1.853404,2.980511 3.83424,1.415919 2.946035,13.296578 -3.897674,12.302486 z" style="display:inline;opacity:1;fill:#ff2a2a;fill-rule:evenodd;stroke:none;stroke-width:.5;stroke-linecap:butt;stroke-linejoin:miter;stroke-miterlimit:4;stroke-dasharray:none;stroke-opacity:1"/><path id="path4170-4" d="m -11.964508,42.221401 c -7.299228,-2.261232 -2.18532,-12.795771 1.67737,-12.758463 1.502695,-1.39623 2.711285,-2.021116 2.711285,-2.021116 0,0 0.858266,1.59335 1.368877,3.232674 3.568227,1.995209 0.849046,13.593565 -5.757532,11.546905 z" style="display:inline;opacity:1;fill:#ff2a2a;fill-rule:evenodd;stroke:none;stroke-width:.5;stroke-linecap:butt;stroke-linejoin:miter;stroke-miterlimit:4;stroke-dasharray:none;stroke-opacity:1"/></g></g></svg>