<svg xmlns="http://www.w3.org/2000/svg" xmlns:svg="http://www.w3.org/2000/svg" id="svg4311" width="100%" height="100%" version="1.1" viewBox="0 0 64 64"><metadata id="metadata4316"/><g id="layer1" transform="translate(0,-988.36216)" style="display:inline"><ellipse style="fill:#ff8080;fill-opacity:1;stroke:#000;stroke-width:1;stroke-linecap:round;stroke-linejoin:round;stroke-miterlimit:4;stroke-dasharray:none;stroke-dashoffset:0;stroke-opacity:1" id="path4279" cx="31.861" cy="1021.172" rx="23.947" ry="23.608"/><path style="fill:#ff2a2a;fill-rule:evenodd;stroke:#000;stroke-width:.2104937px;stroke-linecap:butt;stroke-linejoin:miter;stroke-opacity:1" id="path4213" d="m 46.586943,1026.9889 c 4.888486,2.1799 4.128048,6.4726 0.854209,8.6689 -2.587553,1.7358 -6.302354,1.5437 -7.712436,0.039 -8.632336,2.5569 -8.90887,-4.7683 -7.762603,-6.614 -8.714648,-4.8751 -12.297195,-11.8837 -16.354225,-18.0045 -1.007518,-1.9225 -1.233001,-4.7127 1.507304,-5.3649 1.789057,-0.4255 5.993222,1.4774 9.119176,4.4093 0.292252,0.2742 0.171124,0.9639 -0.452192,1.1759 5.143927,6.6992 12.083539,11.8025 20.800767,15.6898 z"/><path style="fill:#000;fill-rule:evenodd;stroke:none;stroke-width:1px;stroke-linecap:butt;stroke-linejoin:miter;stroke-opacity:1" id="path4226" d="m 25.822004,1011.41 c -0.571939,0.1574 -1.084606,0.052 -1.797186,-0.083 -0.718342,-0.1354 -1.668552,-0.3081 -3.130584,-0.3074 1.463185,-0.038 2.419841,0.098 3.148482,0.1971 0.734549,0.1001 1.205595,0.156 1.713302,-0.02 z"/><path style="fill:#000;fill-rule:evenodd;stroke:none;stroke-width:1px;stroke-linecap:butt;stroke-linejoin:miter;stroke-opacity:1" id="path4230" d="m 39.812106,1035.764 c 0.0082,-0.034 0.01619,-0.069 0.0239,-0.1037 -0.473634,-0.5289 -1.162039,-1.2734 -1.382354,-1.9447 0.169024,0.6967 0.820414,1.4857 1.252209,2.0523 0.03561,-0 0.07098,-0 0.106249,-0 z"/><path style="fill:#000;fill-rule:evenodd;stroke:none;stroke-width:1px;stroke-linecap:butt;stroke-linejoin:miter;stroke-opacity:1" id="path4242-5" d="m 15.671476,1011.1765 c 0.01615,0.017 0.03225,0.034 0.04828,0.05 0.03612,-0.043 0.122056,-0.087 0.245183,-0.1262 0.120739,-0.039 0.267787,-0.071 0.419712,-0.098 0.300855,-0.054 0.623994,-0.089 0.778327,-0.1195 -0.158864,0.01 -0.478582,0.018 -0.788077,0.05 -0.154321,0.016 -0.307836,0.037 -0.437473,0.066 -0.125037,0.028 -0.242636,0.067 -0.313144,0.1254 0.01567,0.017 0.0314,0.034 0.04719,0.052 z"/><path style="fill:#f9f9f9;fill-opacity:1;fill-rule:evenodd;stroke:none;stroke-width:1px;stroke-linecap:butt;stroke-linejoin:miter;stroke-opacity:1" id="path4281" d="m 33.182662,1000.6875 c 8.461942,1.1166 16.42753,3.7425 20.24587,18.9804 -11.689625,-16.7044 -13.195655,-13.7536 -20.24587,-18.9804 z"/><path style="fill:#000;fill-opacity:.44859811;fill-rule:evenodd;stroke:none;stroke-width:1px;stroke-linecap:butt;stroke-linejoin:miter;stroke-opacity:1" id="path4283" d="m 42.086563,1042.0758 c -21.987729,9.2736 -40.5847709,-11.5345 -31.665685,-30.3782 0.167726,16.1371 12.615755,31.9922 31.665685,30.3782 z"/></g></svg>