<svg xmlns="http://www.w3.org/2000/svg" xmlns:svg="http://www.w3.org/2000/svg" id="svg4311" width="100%" height="100%" version="1.1" viewBox="0 0 64 64"><metadata id="metadata4316"/><g id="layer1" transform="translate(0,-988.36216)" style="display:inline"><ellipse style="fill:#ff8080;fill-opacity:1;stroke:#000;stroke-width:1;stroke-linecap:round;stroke-linejoin:round;stroke-miterlimit:4;stroke-dasharray:none;stroke-dashoffset:0;stroke-opacity:1" id="path4279" cx="31.861" cy="1021.172" rx="23.947" ry="23.608"/><g id="g4174" transform="matrix(1.1025,0,0,1.1025,-3.8112082,-104.99585)"><path id="path4146" d="m 18.738331,1030.3977 c -2.247361,1.7027 0.529932,3.9878 3.071495,2.055 l 18.649942,-13.6339 -2.938912,-2.6517 z" style="fill:#f55;fill-rule:evenodd;stroke:#000;stroke-width:.5;stroke-linecap:butt;stroke-linejoin:miter;stroke-miterlimit:4;stroke-dasharray:none;stroke-opacity:1"/><path id="path4170" d="m 41.546877,1014.7372 c 0.125,-0.062 3.363817,-2.1087 3.363817,-2.1087 l 0.4375,0.3593 -2.900889,2.6783 z" style="fill:#ff2a2a;fill-rule:evenodd;stroke:#000;stroke-width:.5;stroke-linecap:butt;stroke-linejoin:miter;stroke-miterlimit:4;stroke-dasharray:none;stroke-opacity:1"/><path id="path4167" d="m 38.187502,1012.7371 7.28125,5.8438 c 0.666068,0.5346 1.610584,-0.3626 1.068512,-0.7797 l -7.399778,-5.694 c -0.39806,-0.3063 -1.495322,0.1918 -0.949984,0.6299 z" style="fill:#ff2a2a;fill-rule:evenodd;stroke:#000;stroke-width:.5;stroke-linecap:butt;stroke-linejoin:miter;stroke-miterlimit:4;stroke-dasharray:none;stroke-opacity:1"/><path id="path4148" d="m 37.211496,1016.1671 c 0.525038,0.9211 1.394033,2.3244 1.575062,2.7633 0.159199,0.3861 -0.04631,0.981 0.01593,1.3468 l 4.132156,-3.0494 c 0,0 -0.02317,-0.7125 -0.16964,-0.9909 -0.336065,-0.6389 -2.771684,-2.2492 -2.771684,-2.2492 z" style="fill:#f55;fill-rule:evenodd;stroke:#000;stroke-width:.5;stroke-linecap:butt;stroke-linejoin:miter;stroke-miterlimit:4;stroke-dasharray:none;stroke-opacity:1"/><path id="path4150" d="m 28.593632,1025.7794 0.950174,-0.685 0.83969,0.6187 0.220971,0.7292 -0.883883,0.685 -0.265166,-0.7071 z" style="fill:#faa;fill-rule:evenodd;stroke:#000;stroke-width:.5;stroke-linecap:butt;stroke-linejoin:miter;stroke-miterlimit:4;stroke-dasharray:none;stroke-opacity:1"/><path id="path4150-7" d="m 33.738088,1021.9551 0.950174,-0.685 0.83969,0.6187 0.243068,0.6187 -0.883883,0.685 -0.287263,-0.5966 z" style="display:inline;fill:#faa;fill-rule:evenodd;stroke:#000;stroke-width:.5;stroke-linecap:butt;stroke-linejoin:miter;stroke-miterlimit:4;stroke-dasharray:none;stroke-opacity:1"/><ellipse id="path4172" cx="45.492" cy="1012.506" rx=".969" ry=".656" style="fill:#ff2a2a;fill-opacity:1;stroke:#000;stroke-width:.5;stroke-linecap:round;stroke-linejoin:bevel;stroke-miterlimit:4;stroke-dasharray:none;stroke-dashoffset:0;stroke-opacity:1"/></g><path style="fill:#f9f9f9;fill-opacity:1;fill-rule:evenodd;stroke:none;stroke-width:1px;stroke-linecap:butt;stroke-linejoin:miter;stroke-opacity:1" id="path4281" d="m 33.182662,1000.6875 c 8.461942,1.1166 16.42753,3.7425 20.24587,18.9804 -11.689625,-16.7044 -13.195655,-13.7536 -20.24587,-18.9804 z"/><path style="fill:#000;fill-opacity:.44859811;fill-rule:evenodd;stroke:none;stroke-width:1px;stroke-linecap:butt;stroke-linejoin:miter;stroke-opacity:1" id="path4283" d="m 42.086563,1042.0758 c -21.987729,9.2736 -40.5847709,-11.5345 -31.665685,-30.3782 0.167726,16.1371 12.615755,31.9922 31.665685,30.3782 z"/></g></svg>