<svg xmlns="http://www.w3.org/2000/svg" xmlns:svg="http://www.w3.org/2000/svg" id="svg4311" width="100%" height="100%" version="1.1" viewBox="0 0 64 64"><metadata id="metadata4316"/><g id="layer1" transform="translate(0,-988.36216)" style="display:inline"><ellipse style="fill:#ff8080;fill-opacity:1;stroke:#000;stroke-width:1;stroke-linecap:round;stroke-linejoin:round;stroke-miterlimit:4;stroke-dasharray:none;stroke-dashoffset:0;stroke-opacity:1" id="path4279" cx="31.861" cy="1021.172" rx="23.947" ry="23.608"/><path style="display:inline;opacity:1;fill:#ff2a2a;fill-opacity:1;stroke:#000;stroke-width:.5;stroke-linecap:round;stroke-linejoin:round;stroke-miterlimit:4;stroke-dasharray:none;stroke-dashoffset:0;stroke-opacity:1" id="path4156-9" d="m 23.477618,1017.5968 a 1.8859085,3.2901043 78.341845 0 0 -2.841501,2.5121 1.8859085,3.2901043 78.341845 0 0 3.603637,1.1816 1.8859085,3.2901043 78.341845 0 0 2.841163,-2.5113 1.8859085,3.2901043 78.341845 0 0 -3.603299,-1.1824 z m 0.136753,0.6627 a 1.1811055,2.401913 78.341845 0 1 2.590959,0.6713 1.1811055,2.401913 78.341845 0 1 -2.113673,1.642 1.1811055,2.401913 78.341845 0 1 -2.591443,-0.6712 1.1811055,2.401913 78.341845 0 1 2.114157,-1.6421 z"/><path style="opacity:1;fill:#ff2a2a;fill-opacity:1;stroke:#000;stroke-width:.5;stroke-linecap:round;stroke-linejoin:round;stroke-miterlimit:4;stroke-dasharray:none;stroke-dashoffset:0;stroke-opacity:1" id="path4156" d="m 21.704299,1019.6794 a 10.484363,6.009703 0 0 0 -10.485703,6.0101 10.484363,6.009703 0 0 0 10.485703,6.0086 10.484363,6.009703 0 0 0 10.484121,-6.0086 10.484363,6.009703 0 0 0 -10.484121,-6.0101 z m 0,2.1563 a 7.6540217,3.7637528 0 0 1 7.653867,3.7636 7.6540217,3.7637528 0 0 1 -7.653867,3.7637 7.6540217,3.7637528 0 0 1 -7.655449,-3.7637 7.6540217,3.7637528 0 0 1 7.655449,-3.7636 z"/><path style="display:inline;opacity:1;fill:#ff2a2a;fill-opacity:1;stroke:#000;stroke-width:.5;stroke-linecap:round;stroke-linejoin:round;stroke-miterlimit:4;stroke-dasharray:none;stroke-dashoffset:0;stroke-opacity:1" id="path4156-9-1" d="m 28.214938,1016.3947 a 1.8859085,3.2901043 82.026173 0 0 -2.997059,2.3244 1.8859085,3.2901043 82.026173 0 0 3.520259,1.4107 1.8859085,3.2901043 82.026173 0 0 2.99667,-2.3236 1.8859085,3.2901043 82.026173 0 0 -3.51987,-1.4115 z m 0.09388,0.6702 a 1.1811055,2.401913 82.026173 0 1 2.542468,0.8363 1.1811055,2.401913 82.026173 0 1 -2.214816,1.5028 1.1811055,2.401913 82.026173 0 1 -2.542959,-0.8363 1.1811055,2.401913 82.026173 0 1 2.215307,-1.5028 z"/><path style="display:inline;opacity:1;fill:#ff2a2a;fill-opacity:1;stroke:#000;stroke-width:.5;stroke-linecap:round;stroke-linejoin:round;stroke-miterlimit:4;stroke-dasharray:none;stroke-dashoffset:0;stroke-opacity:1" id="path4156-9-1-6" d="m 33.293676,1015.9389 a 1.8859085,3.2901043 87.62954 0 0 -3.209695,2.0206 1.8859085,3.2901043 87.62954 0 0 3.36569,1.7477 1.8859085,3.2901043 87.62954 0 0 3.209232,-2.0199 1.8859085,3.2901043 87.62954 0 0 -3.365227,-1.7484 z m 0.02799,0.6761 a 1.1811055,2.401913 87.62954 0 1 2.448655,1.0807 1.1811055,2.401913 87.62954 0 1 -2.350963,1.2793 1.1811055,2.401913 87.62954 0 1 -2.449149,-1.0806 1.1811055,2.401913 87.62954 0 1 2.351457,-1.2794 z"/><path style="display:inline;opacity:1;fill:#ff2a2a;fill-opacity:1;stroke:#000;stroke-width:.5;stroke-linecap:round;stroke-linejoin:round;stroke-miterlimit:4;stroke-dasharray:none;stroke-dashoffset:0;stroke-opacity:1" id="path4156-9-1-8" d="m 38.941791,1016.1975 a 3.2901043,1.8859085 4.4567265 0 0 -3.427141,1.6248 3.2901043,1.8859085 4.4567265 0 0 3.134064,2.1354 3.2901043,1.8859085 4.4567265 0 0 3.426595,-1.624 3.2901043,1.8859085 4.4567265 0 0 -3.133518,-2.1362 z m -0.05259,0.6747 a 2.401913,1.1811056 4.4567265 0 1 2.302838,1.3641 2.401913,1.1811056 4.4567265 0 1 -2.486369,0.9909 2.401913,1.1811056 4.4567265 0 1 -2.303333,-1.3642 2.401913,1.1811056 4.4567265 0 1 2.486864,-0.9908 z"/><path style="display:inline;opacity:1;fill:#ff2a2a;fill-opacity:1;stroke:#000;stroke-width:.5;stroke-linecap:round;stroke-linejoin:round;stroke-miterlimit:4;stroke-dasharray:none;stroke-dashoffset:0;stroke-opacity:1" id="path4156-5" d="m 43.218493,1018.2837 a 10.484363,6.009703 0 0 0 -10.485703,6.0102 10.484363,6.009703 0 0 0 10.485703,6.0085 10.484363,6.009703 0 0 0 10.484121,-6.0085 10.484363,6.009703 0 0 0 -10.484121,-6.0102 z m 0,2.1563 a 7.6540217,3.7637528 0 0 1 7.653867,3.7637 7.6540217,3.7637528 0 0 1 -7.653867,3.7637 7.6540217,3.7637528 0 0 1 -7.655449,-3.7637 7.6540217,3.7637528 0 0 1 7.655449,-3.7637 z"/><path style="fill:#f9f9f9;fill-opacity:1;fill-rule:evenodd;stroke:none;stroke-width:1px;stroke-linecap:butt;stroke-linejoin:miter;stroke-opacity:1" id="path4281" d="m 33.182662,1000.6875 c 8.461942,1.1166 16.42753,3.7425 20.24587,18.9804 -11.689625,-16.7044 -13.195655,-13.7536 -20.24587,-18.9804 z"/><path style="fill:#000;fill-opacity:.44859811;fill-rule:evenodd;stroke:none;stroke-width:1px;stroke-linecap:butt;stroke-linejoin:miter;stroke-opacity:1" id="path4283" d="m 42.086563,1042.0758 c -21.987729,9.2736 -40.5847709,-11.5345 -31.665685,-30.3782 0.167726,16.1371 12.615755,31.9922 31.665685,30.3782 z"/></g></svg>