<svg xmlns="http://www.w3.org/2000/svg" xmlns:svg="http://www.w3.org/2000/svg" id="svg4311" width="100%" height="100%" version="1.1" viewBox="0 0 64 64"><metadata id="metadata4316"/><g id="layer1" transform="translate(0,-988.36216)" style="display:inline"><ellipse style="fill:#ff8080;fill-opacity:1;stroke:#000;stroke-width:1;stroke-linecap:round;stroke-linejoin:round;stroke-miterlimit:4;stroke-dasharray:none;stroke-dashoffset:0;stroke-opacity:1" id="path4279" cx="31.861" cy="1021.172" rx="23.947" ry="23.608"/><path id="path4243" d="m 22.996364,1033.2822 8.356432,-27.3484 8.964175,27.7029 -22.638332,-17.1686 27.601543,0.051 z" style="display:inline;opacity:1;fill:none;fill-rule:evenodd;stroke:#000;stroke-width:4.62982512;stroke-linecap:round;stroke-linejoin:miter;stroke-miterlimit:4;stroke-dasharray:none;stroke-opacity:1"/><path style="display:inline;opacity:1;fill:none;fill-rule:evenodd;stroke:#f55;stroke-width:2.83612227;stroke-linecap:round;stroke-linejoin:miter;stroke-miterlimit:4;stroke-dasharray:none;stroke-opacity:1" id="path4279-4" d="m 22.996364,1033.2822 8.356432,-27.3484 8.964175,27.7029 -22.638332,-17.1686 27.601543,0.051 z"/><path id="path4859-9-1-0" d="m 26.134262,1018.716 c -0.05026,-3.207 4.40412,-3.3141 5.433828,-1.3944 0.792891,-1.9215 5.438961,-1.8811 5.475348,1.6398 0.0261,2.5286 -2.68353,4.9316 -5.355234,7.7552 -2.737057,-2.8372 -5.512773,-5.3737 -5.553942,-8.0006 z" style="fill:#ff2a2a;fill-opacity:1;fill-rule:evenodd;stroke:#000;stroke-width:.67500001;stroke-linecap:butt;stroke-linejoin:miter;stroke-miterlimit:4;stroke-dasharray:none;stroke-opacity:1"/><path style="fill:#f9f9f9;fill-opacity:1;fill-rule:evenodd;stroke:none;stroke-width:1px;stroke-linecap:butt;stroke-linejoin:miter;stroke-opacity:1" id="path4281" d="m 33.182662,1000.6875 c 8.461942,1.1166 16.42753,3.7425 20.24587,18.9804 -11.689625,-16.7044 -13.195655,-13.7536 -20.24587,-18.9804 z"/><path style="fill:#000;fill-opacity:.44859811;fill-rule:evenodd;stroke:none;stroke-width:1px;stroke-linecap:butt;stroke-linejoin:miter;stroke-opacity:1" id="path4283" d="m 42.086563,1042.0758 c -21.987729,9.2736 -40.5847709,-11.5345 -31.665685,-30.3782 0.167726,16.1371 12.615755,31.9922 31.665685,30.3782 z"/></g></svg>