<svg xmlns="http://www.w3.org/2000/svg" xmlns:svg="http://www.w3.org/2000/svg" id="svg4311" width="100%" height="100%" version="1.1" viewBox="0 0 64 64"><metadata id="metadata4316"/><g id="layer1" transform="translate(0,-988.36216)" style="display:inline"><ellipse style="fill:#ff8080;fill-opacity:1;stroke:#000;stroke-width:1;stroke-linecap:round;stroke-linejoin:round;stroke-miterlimit:4;stroke-dasharray:none;stroke-dashoffset:0;stroke-opacity:1" id="path4279" cx="31.861" cy="1021.172" rx="23.947" ry="23.608"/><path style="fill:#f9f9f9;fill-opacity:1;fill-rule:evenodd;stroke:none;stroke-width:1px;stroke-linecap:butt;stroke-linejoin:miter;stroke-opacity:1" id="path4281" d="m 33.182662,1000.6875 c 8.461942,1.1166 16.42753,3.7425 20.24587,18.9804 -11.689625,-16.7044 -13.195655,-13.7536 -20.24587,-18.9804 z"/><path style="fill:#000;fill-opacity:.44859811;fill-rule:evenodd;stroke:none;stroke-width:1px;stroke-linecap:butt;stroke-linejoin:miter;stroke-opacity:1" id="path4283" d="m 42.086563,1042.0758 c -21.987729,9.2736 -40.5847709,-11.5345 -31.665685,-30.3782 0.167726,16.1371 12.615755,31.9922 31.665685,30.3782 z"/><path style="display:inline;fill:#ff2a2a;fill-opacity:1;fill-rule:evenodd;stroke:#000;stroke-width:.5;stroke-linecap:butt;stroke-linejoin:miter;stroke-miterlimit:4;stroke-dasharray:none;stroke-opacity:1" id="path4177" d="m 35.462661,1013.9709 c 0,0 -0.297911,-1.6334 1.449304,-3.4615 1.752116,-1.8334 5.941734,-2.691 6.607161,-1.9065 0.687236,0.8101 -1.302861,4.4465 -3.325664,5.5919 -2.322214,1.315 -3.93813,0.8183 -3.93813,0.8183 0,0 -2.930263,1.2498 -4.412238,3.5521 -1.268258,1.9702 0.208096,3.9422 -0.928799,5.991 -1.185183,2.1359 -5.38887,1.8979 -7.238727,3.4931 -2.334865,2.0134 -0.994159,5.6666 -3.001228,10.7147 1.283099,-4.8622 -0.138286,-9.3241 2.269311,-11.2021 1.861149,-1.4518 5.8509,-1.3664 6.959656,-3.4502 1.060025,-1.9922 -0.43508,-3.8506 0.795662,-5.7421 1.647828,-2.5325 4.763692,-4.3987 4.763692,-4.3987 z"/></g></svg>