<svg xmlns="http://www.w3.org/2000/svg" xmlns:svg="http://www.w3.org/2000/svg" id="svg4311" width="100%" height="100%" version="1.1" viewBox="0 0 64 64"><metadata id="metadata4316"/><g id="layer1" transform="translate(0,-988.36216)" style="display:inline"><ellipse style="fill:#ff8080;fill-opacity:1;stroke:#000;stroke-width:1;stroke-linecap:round;stroke-linejoin:round;stroke-miterlimit:4;stroke-dasharray:none;stroke-dashoffset:0;stroke-opacity:1" id="path4279" cx="31.861" cy="1021.172" rx="23.947" ry="23.608"/><path style="display:inline;opacity:1;fill:#ff2a2a;fill-opacity:1;fill-rule:evenodd;stroke:#000;stroke-width:.54675001;stroke-linecap:butt;stroke-linejoin:miter;stroke-miterlimit:4;stroke-dasharray:none;stroke-opacity:1" id="path4271-6-6" d="m 19.984323,1022.3376 c 1.872165,-1.709 3.806409,-2.9296 5.919888,-2.7397 -3.378886,-4.5692 -2.392775,-8.4605 -0.08581,-13.1044 -5.845589,3.7339 -8.919318,9.1263 -5.834081,15.8441 z"/><path style="fill:#f9f9f9;fill-opacity:1;fill-rule:evenodd;stroke:none;stroke-width:1px;stroke-linecap:butt;stroke-linejoin:miter;stroke-opacity:1" id="path4281" d="m 33.182662,1000.6875 c 8.461942,1.1166 16.42753,3.7425 20.24587,18.9804 -11.689625,-16.7044 -13.195655,-13.7536 -20.24587,-18.9804 z"/><path style="display:inline;opacity:1;fill:#ff2a2a;fill-opacity:1;fill-rule:evenodd;stroke:#000;stroke-width:.54675001;stroke-linecap:butt;stroke-linejoin:miter;stroke-miterlimit:4;stroke-dasharray:none;stroke-opacity:1" id="path4271-6-6-9" d="m 43.70658,1022.6772 c -1.872164,-1.7091 -3.806408,-2.9297 -5.919888,-2.7399 3.378886,-4.569 2.392775,-8.4604 0.08581,-13.1044 5.845588,3.734 8.919318,9.1265 5.834081,15.8443 z"/><path style="display:inline;opacity:1;fill:#ff2a2a;fill-opacity:1;fill-rule:evenodd;stroke:#000;stroke-width:.54675001;stroke-linecap:butt;stroke-linejoin:miter;stroke-miterlimit:4;stroke-dasharray:none;stroke-opacity:1" id="path4312-8" d="m 46.260538,1032.0148 c -0.227102,1.8844 -2.398453,2.8222 -7.996857,1.6629 -8.766674,-1.815 -19.502653,-10.9146 -20.32267,-4.2872 -0.822422,-1.2731 -2.084661,-1.2682 -2.140371,0.1818 -0.05448,1.4176 1.159042,3.8278 1.167254,5.5084 0.749133,-1.2478 3.30035,-1.9707 4.074751,-2.9386 0.50622,-0.6329 0.01671,-2.5868 -2.045872,-2.1551 -0.290492,-5.9822 10.510985,3.1266 18.518487,4.9296 7.269028,1.6366 9.809739,-0.4511 9.963914,-2.8339 0.262334,-4.0548 -5.987936,-6.8278 -6.062831,-5.6654 -0.07242,1.1241 5.295355,1.8539 4.844195,5.5975 z"/><path style="fill:#000;fill-opacity:.44859811;fill-rule:evenodd;stroke:none;stroke-width:1px;stroke-linecap:butt;stroke-linejoin:miter;stroke-opacity:1" id="path4283" d="m 42.086563,1042.0758 c -21.987729,9.2736 -40.5847709,-11.5345 -31.665685,-30.3782 0.167726,16.1371 12.615755,31.9922 31.665685,30.3782 z"/></g></svg>