<svg xmlns="http://www.w3.org/2000/svg" xmlns:svg="http://www.w3.org/2000/svg" id="svg4311" width="100%" height="100%" version="1.1" viewBox="0 0 64 64"><metadata id="metadata4316"/><g id="layer1" transform="translate(0,-988.36216)" style="display:inline"><ellipse style="fill:#ff8080;fill-opacity:1;stroke:#000;stroke-width:1;stroke-linecap:round;stroke-linejoin:round;stroke-miterlimit:4;stroke-dasharray:none;stroke-dashoffset:0;stroke-opacity:1" id="path4279" cx="31.861" cy="1021.172" rx="23.947" ry="23.608"/><g id="g4163" transform="matrix(0.99915135,-0.04118952,0.04118952,0.99915135,-42.062406,1.3353525)"><path id="path4145" d="m 20.559466,1021.6076 c -6.083212,-2.9916 -6.189977,6.758 -3.649634,11.7857 2.028764,4.0152 8.344396,8.3171 10.736014,3.5372 3.814823,-7.6243 3.07751,-18.7324 17.072598,-16.2236 6.542351,1.1728 4.779106,-6.4147 1.504176,-10.1794 -2.90546,-3.3401 -8.737172,-4.9392 -9.283955,-1.1134 -1.251241,8.755 -9.945555,15.3574 -16.379199,12.1935 z" style="fill:#ff2a2a;fill-opacity:1;fill-rule:evenodd;stroke:#000;stroke-width:.5;stroke-linecap:butt;stroke-linejoin:miter;stroke-miterlimit:4;stroke-dasharray:none;stroke-opacity:1"/><path id="path4147" d="m 27.261592,1023.7722 c 2.486524,-1.0819 4.504039,-2.4244 6.291794,-3.9308 1.526314,-1.5437 2.822669,-3.2011 4.088985,-4.8797 -1.430686,1.5564 -2.865235,3.0587 -4.504412,4.4283 -1.608075,1.619 -3.482167,3.1178 -5.876367,4.3822 z" style="fill:#000;fill-rule:evenodd;stroke:none;stroke-width:1px;stroke-linecap:butt;stroke-linejoin:miter;stroke-opacity:1"/><path id="path4151" d="m 28.794235,1026.4998 c 1.52948,-2.0793 3.322546,-3.9216 5.336931,-5.5955 2.003129,-1.3892 4.166356,-2.608 6.447569,-3.7209 -2.180247,1.308 -4.208108,2.7039 -6.048078,4.2449 -2.108278,1.4693 -4.037985,3.1325 -5.736422,5.0715 z" style="fill:#000;fill-rule:evenodd;stroke:none;stroke-width:1px;stroke-linecap:butt;stroke-linejoin:miter;stroke-opacity:1"/></g><path style="fill:#f9f9f9;fill-opacity:1;fill-rule:evenodd;stroke:none;stroke-width:1px;stroke-linecap:butt;stroke-linejoin:miter;stroke-opacity:1" id="path4281" d="m 33.182662,1000.6875 c 8.461942,1.1166 16.42753,3.7425 20.24587,18.9804 -11.689625,-16.7044 -13.195655,-13.7536 -20.24587,-18.9804 z"/><path style="fill:#000;fill-opacity:.44859811;fill-rule:evenodd;stroke:none;stroke-width:1px;stroke-linecap:butt;stroke-linejoin:miter;stroke-opacity:1" id="path4283" d="m 42.086563,1042.0758 c -21.987729,9.2736 -40.5847709,-11.5345 -31.665685,-30.3782 0.167726,16.1371 12.615755,31.9922 31.665685,30.3782 z"/></g></svg>