<svg xmlns="http://www.w3.org/2000/svg" xmlns:svg="http://www.w3.org/2000/svg" id="svg4311" width="100%" height="100%" version="1.1" viewBox="0 0 64 64"><metadata id="metadata4316"/><g id="layer1" transform="translate(0,-988.36216)" style="display:inline"><ellipse style="fill:#ff8080;fill-opacity:1;stroke:#000;stroke-width:1;stroke-linecap:round;stroke-linejoin:round;stroke-miterlimit:4;stroke-dasharray:none;stroke-dashoffset:0;stroke-opacity:1" id="path4279" cx="31.861" cy="1021.172" rx="23.947" ry="23.608"/><path style="fill:#ff2a2a;fill-rule:evenodd;stroke:none;stroke-width:1px;stroke-linecap:butt;stroke-linejoin:miter;stroke-opacity:1" id="path4263" d="m 25.859376,1024.0184 6.265626,2.3125 6.6875,-2.3594 -5.859375,-1.375 z"/><path style="fill:#f9f9f9;fill-opacity:1;fill-rule:evenodd;stroke:none;stroke-width:1px;stroke-linecap:butt;stroke-linejoin:miter;stroke-opacity:1" id="path4281" d="m 33.182662,1000.6875 c 8.461942,1.1166 16.42753,3.7425 20.24587,18.9804 -11.689625,-16.7044 -13.195655,-13.7536 -20.24587,-18.9804 z"/><path style="fill:#000;fill-opacity:.44859811;fill-rule:evenodd;stroke:none;stroke-width:1px;stroke-linecap:butt;stroke-linejoin:miter;stroke-opacity:1" id="path4283" d="m 42.086563,1042.0758 c -21.987729,9.2736 -40.5847709,-11.5345 -31.665685,-30.3782 0.167726,16.1371 12.615755,31.9922 31.665685,30.3782 z"/><path style="fill:none;fill-rule:evenodd;stroke:#000;stroke-width:1px;stroke-linecap:round;stroke-linejoin:miter;stroke-opacity:1" id="path4176" d="m 19.926778,1023.7631 c -0.435484,13.2277 24.453205,15.8547 24.375001,0.125 -0.02776,-5.5841 -3.68272,-9.4709 -5.4375,-14.75"/><path style="fill:#faa;fill-rule:evenodd;stroke:#000;stroke-width:.5;stroke-linecap:butt;stroke-linejoin:miter;stroke-miterlimit:4;stroke-dasharray:none;stroke-opacity:1" id="path4259" d="m 26.18544,1024.4112 c 3.120509,4.0892 9.241007,4.0957 12.359376,-0.079 -3.25388,0.8915 -7.860687,1.0878 -12.359376,0.079 z"/><path style="fill:#faa;fill-rule:evenodd;stroke:#000;stroke-width:.5;stroke-linecap:butt;stroke-linejoin:miter;stroke-miterlimit:4;stroke-dasharray:none;stroke-opacity:1" id="path4261" d="m 25.326065,1023.7081 c 2.024835,-0.3222 4.012837,-4.0327 7.000001,-2.2344 3.161505,-1.7762 4.66881,1.8946 6.96875,2.2188 -1.459524,0.4384 -3.014506,-0.1648 -4.5625,-0.1563 -0.871868,0 -1.467769,0.3564 -2.453125,0.375 -0.97587,0.018 -1.015841,-0.4125 -2.093751,-0.3906 -1.612496,0.033 -3.150488,0.7487 -4.859375,0.1875 z"/></g></svg>