<svg xmlns="http://www.w3.org/2000/svg" xmlns:svg="http://www.w3.org/2000/svg" id="svg4311" width="100%" height="100%" version="1.1" viewBox="0 0 64 64"><metadata id="metadata4316"/><g id="layer1" transform="translate(0,-988.36216)" style="display:inline"><ellipse style="fill:#ff8080;fill-opacity:1;stroke:#000;stroke-width:1;stroke-linecap:round;stroke-linejoin:round;stroke-miterlimit:4;stroke-dasharray:none;stroke-dashoffset:0;stroke-opacity:1" id="path4279" cx="31.861" cy="1021.172" rx="23.947" ry="23.608"/><path style="fill:#000;fill-opacity:.44859811;fill-rule:evenodd;stroke:none;stroke-width:1px;stroke-linecap:butt;stroke-linejoin:miter;stroke-opacity:1" id="path4283" d="m 42.086563,1042.0758 c -21.987729,9.2736 -40.5847709,-11.5345 -31.665685,-30.3782 0.167726,16.1371 12.615755,31.9922 31.665685,30.3782 z"/><path style="fill:#f9f9f9;fill-opacity:1;fill-rule:evenodd;stroke:none;stroke-width:1px;stroke-linecap:butt;stroke-linejoin:miter;stroke-opacity:1" id="path4281" d="m 33.182662,1000.6875 c 8.461942,1.1166 16.42753,3.7425 20.24587,18.9804 -11.689625,-16.7044 -13.195655,-13.7536 -20.24587,-18.9804 z"/><g id="g4164" transform="translate(54.093671,6.8059031)"><path id="path4218-4" d="m -19.561545,1008.8806 c -1.965859,-0.3622 -5.923219,-4.446 -10.412555,0.038 -0.782616,0.7817 -1.541561,1.5313 -2.019876,2.4242 -1.654243,3.0883 -3.88515,11.7315 -0.04956,14.1665 3.182433,2.0201 9.079908,-1.4446 13.896743,-4.5506 4.684471,-3.0206 8.7553581,-5.9384 8.2464841,-8.3121 -1.6663331,-7.7728 -7.0164441,-3.279 -9.6612361,-3.766 z" style="display:inline;fill:#ff2a2a;fill-rule:evenodd;stroke:#000;stroke-width:.23368797;stroke-linecap:butt;stroke-linejoin:miter;stroke-miterlimit:4;stroke-dasharray:none;stroke-opacity:1"/><path id="path4294" d="m -19.419628,1008.9056 -0.240421,-0.02 c 0.0045,-0.023 0.02534,-0.023 -0.02777,0.053 -0.04113,0.059 -0.10972,0.1358 -0.204989,0.2284 -0.190221,0.1848 -0.468763,0.4162 -0.81091,0.6899 -0.682212,0.5456 -1.603688,1.2484 -2.54534,2.0657 -1.886558,1.6375 -3.849167,3.7316 -4.178279,5.9558 0.405352,-2.1924 2.415942,-4.2126 4.333471,-5.771 0.961002,-0.781 1.898897,-1.446 2.609626,-1.9628 0.352751,-0.2565 0.656258,-0.4813 0.873866,-0.6638 0.108481,-0.091 0.203641,-0.178 0.274539,-0.258 0.06229,-0.07 0.141798,-0.1741 0.156632,-0.2968 l -0.240421,-0.02 z" style="display:inline;fill:#000;fill-rule:evenodd;stroke:none;stroke-width:1px;stroke-linecap:butt;stroke-linejoin:miter;stroke-opacity:1"/></g></g></svg>