<svg xmlns="http://www.w3.org/2000/svg" xmlns:svg="http://www.w3.org/2000/svg" id="svg4311" width="100%" height="100%" version="1.1" viewBox="0 0 64 64"><metadata id="metadata4316"/><g id="layer1" transform="translate(0,-988.36216)" style="display:inline"><ellipse style="fill:#ff8080;fill-opacity:1;stroke:#000;stroke-width:1;stroke-linecap:round;stroke-linejoin:round;stroke-miterlimit:4;stroke-dasharray:none;stroke-dashoffset:0;stroke-opacity:1" id="path4279" cx="31.861" cy="1021.172" rx="23.947" ry="23.608"/><path style="fill:#f9f9f9;fill-opacity:1;fill-rule:evenodd;stroke:none;stroke-width:1px;stroke-linecap:butt;stroke-linejoin:miter;stroke-opacity:1" id="path4281" d="m 33.182662,1000.6875 c 8.461942,1.1166 16.42753,3.7425 20.24587,18.9804 -11.689625,-16.7044 -13.195655,-13.7536 -20.24587,-18.9804 z"/><path style="fill:#000;fill-opacity:.44859811;fill-rule:evenodd;stroke:none;stroke-width:1px;stroke-linecap:butt;stroke-linejoin:miter;stroke-opacity:1" id="path4283" d="m 42.086563,1042.0758 c -21.987729,9.2736 -40.5847709,-11.5345 -31.665685,-30.3782 0.167726,16.1371 12.615755,31.9922 31.665685,30.3782 z"/><path style="fill:#f55;fill-rule:evenodd;stroke:#000;stroke-width:.5;stroke-linecap:butt;stroke-linejoin:miter;stroke-miterlimit:4;stroke-dasharray:none;stroke-opacity:1" id="path4146" d="m 23.820661,1019.0398 c 0,0 -0.872057,-7.8657 1.952905,-11.1819 1.991014,-2.3372 9.321202,-2.3517 11.461892,0.073 2.505272,2.8371 2.053164,11.0214 2.053164,11.0214 l -2.607456,0 c 0,0 0.420707,-7.2412 -1.486979,-9.5715 -1.350065,-1.6492 -6.255602,-1.3508 -7.619001,0.08 -2.034637,2.1357 -1.323846,9.5791 -1.323846,9.5791 z"/><path style="fill:#ff2a2a;fill-rule:evenodd;stroke:#000;stroke-width:.5;stroke-linecap:round;stroke-linejoin:round;stroke-miterlimit:4;stroke-dasharray:none;stroke-opacity:1" id="path4144" d="m 22.318059,1033.9774 18.561554,0.044 c 0.513826,-6.28 0.165453,-11.9515 -0.265165,-15.9541 l -18.473166,0.1322 c -0.606309,5.24 -0.16174,10.9829 0.176777,15.7779 z"/></g></svg>