<svg xmlns="http://www.w3.org/2000/svg" xmlns:svg="http://www.w3.org/2000/svg" id="svg4311" width="100%" height="100%" version="1.1" viewBox="0 0 64 64"><metadata id="metadata4316"/><g id="layer1" transform="translate(0,-988.36216)" style="display:inline"><ellipse style="fill:#ff8080;fill-opacity:1;stroke:#000;stroke-width:1;stroke-linecap:round;stroke-linejoin:round;stroke-miterlimit:4;stroke-dasharray:none;stroke-dashoffset:0;stroke-opacity:1" id="path4279" cx="31.861" cy="1021.172" rx="23.947" ry="23.608"/><g id="g4174" style="opacity:.5"><path id="path4290" d="m 25.437798,1033.1212 c 2.689993,-0.8697 4.628528,-3.5949 5.716001,-5.6691 l -5.093462,-1.9986 z" style="display:inline;fill:#f55;fill-opacity:1;fill-rule:evenodd;stroke:#ff2a2a;stroke-width:.37610561;stroke-linecap:butt;stroke-linejoin:miter;stroke-miterlimit:4;stroke-dasharray:none;stroke-opacity:1"/><path id="path4292" d="m 32.342263,1027.7402 c 0.827158,2.561 4.336946,4.6808 6.659209,4.7854 l -0.415022,-6.9953 z" style="display:inline;fill:#f55;fill-opacity:1;fill-rule:evenodd;stroke:#ff2a2a;stroke-width:.37610561;stroke-linecap:butt;stroke-linejoin:miter;stroke-miterlimit:4;stroke-dasharray:none;stroke-opacity:1"/><path id="path4280" d="m 26.565191,1035.0068 c 0.06601,-2.6056 0.06974,-5.2376 0.06662,-7.8726 1.331318,0.9901 2.484349,2.4437 4.802156,0.8696 4.023786,1.5389 5.043226,-0.6572 5.922649,-1.5219 0.0234,2.8522 0.293795,5.6204 0.695859,8.3441 4.154676,-0.1458 7.252925,0.7239 10.247821,-2.7961 3.966374,-4.6619 3.836016,-17.4529 -1.436153,-22.9027 -2.784189,-2.8781 -8.174073,-1.9832 -15.615664,-1.8754 -6.362359,0.092 -12.106411,-0.5742 -14.635839,2.5266 -5.369855,6.5831 -3.884075,20.513 -0.106771,23.7935 2.716412,2.3592 6.063899,1.6027 10.059325,1.4349 z" style="display:inline;fill:#f55;fill-opacity:1;fill-rule:evenodd;stroke:#ff2a2a;stroke-width:.3007592;stroke-linecap:butt;stroke-linejoin:miter;stroke-miterlimit:4;stroke-dasharray:none;stroke-opacity:1"/><path id="path4282" d="m 26.691108,1027.4632 c 0.06718,-0.031 0.133352,-0.067 0.198231,-0.1068 -0.05808,-0.7953 -0.647517,-1.9358 -1.500763,-3.1944 -0.901,-1.3289 -2.129152,-2.8367 -3.451792,-4.2959 -1.323291,-1.4599 -2.743789,-2.8741 -4.0308,-4.0156 -1.287345,-1.1418 -2.440986,-2.0105 -3.228602,-2.3783 0.769805,0.3967 1.899813,1.2903 3.160529,2.4535 1.261178,1.1637 2.653741,2.5979 3.947346,4.0754 1.294169,1.4781 2.486991,2.9969 3.349578,4.3291 0.834236,1.2884 1.333984,2.3644 1.353505,3.0476 0.06832,0.025 0.136133,0.054 0.202768,0.085 z" style="display:inline;fill:#ff2a2a;fill-rule:evenodd;stroke:none;stroke-width:1px;stroke-linecap:butt;stroke-linejoin:miter;stroke-opacity:1"/><path id="path4286" d="m 37.33917,1026.8075 c 0.05253,0 0.105069,-0.01 0.157606,-0.01 -0.05047,-1.7926 0.762367,-3.9416 2.525582,-6.3247 1.76227,-2.3819 4.459491,-4.9783 8.141128,-7.6656 -3.710149,2.643 -6.451912,5.2059 -8.267136,7.5706 -1.810283,2.3583 -2.714119,4.539 -2.714954,6.424 0.05259,0 0.105182,0 0.157774,0 z" style="display:inline;fill:#ff2a2a;fill-rule:evenodd;stroke:none;stroke-width:1px;stroke-linecap:butt;stroke-linejoin:miter;stroke-opacity:1"/><path id="path4294" d="m 31.045234,1028.1424 c -0.194489,-0.6423 -0.698734,-1.978 -0.910138,-3.3039 0.786037,1.2811 1.461626,2.5675 1.504438,3.1805 -0.198872,0.019 -0.34589,0.089 -0.5943,0.1224 z" style="display:inline;fill:#f55;fill-rule:evenodd;stroke:#ff2a2a;stroke-width:.30464554;stroke-linecap:butt;stroke-linejoin:miter;stroke-miterlimit:4;stroke-dasharray:none;stroke-opacity:1"/></g><path style="fill:#f9f9f9;fill-opacity:1;fill-rule:evenodd;stroke:none;stroke-width:1px;stroke-linecap:butt;stroke-linejoin:miter;stroke-opacity:1" id="path4281" d="m 33.182662,1000.6875 c 8.461942,1.1166 16.42753,3.7425 20.24587,18.9804 -11.689625,-16.7044 -13.195655,-13.7536 -20.24587,-18.9804 z"/><path style="fill:#000;fill-opacity:.44859811;fill-rule:evenodd;stroke:none;stroke-width:1px;stroke-linecap:butt;stroke-linejoin:miter;stroke-opacity:1" id="path4283" d="m 42.086563,1042.0758 c -21.987729,9.2736 -40.5847709,-11.5345 -31.665685,-30.3782 0.167726,16.1371 12.615755,31.9922 31.665685,30.3782 z"/><g style="display:inline" id="g4221" transform="translate(0.31249634,0.68218388)"><path id="path4158" d="m 31.475883,1034.7774 c -5.193908,0.096 -8.888715,-3.6268 -8.740657,-8.0721 0.174464,-5.2379 6.605802,-10.0961 9.11741,-18.6337 2.436516,8.7003 7.846667,13.1796 8.213207,18.4074 0.324716,4.6312 -3.953672,8.2131 -8.58996,8.2984 z" style="display:inline;fill:#ff2a2a;fill-rule:evenodd;stroke:#000;stroke-width:.5;stroke-linecap:butt;stroke-linejoin:miter;stroke-miterlimit:4;stroke-dasharray:none;stroke-opacity:1"/><path id="path4219" d="m 37.436528,1030.4347 c 1.878283,-1.7762 1.562023,-5.7376 -0.293275,-8.2994" style="fill:none;fill-rule:evenodd;stroke:#fff;stroke-width:1;stroke-linecap:round;stroke-linejoin:miter;stroke-miterlimit:4;stroke-dasharray:none;stroke-opacity:1"/></g></g></svg>