<svg xmlns="http://www.w3.org/2000/svg" xmlns:svg="http://www.w3.org/2000/svg" id="svg4311" width="100%" height="100%" version="1.1" viewBox="0 0 64 64"><metadata id="metadata4316"/><g id="layer1" transform="translate(0,-988.36216)" style="display:inline"><ellipse style="fill:#ff8080;fill-opacity:1;stroke:#000;stroke-width:1;stroke-linecap:round;stroke-linejoin:round;stroke-miterlimit:4;stroke-dasharray:none;stroke-dashoffset:0;stroke-opacity:1" id="path4279" cx="31.861" cy="1021.172" rx="23.947" ry="23.608"/><g id="g4350"><ellipse id="path4200" cx="-317.633" cy="963.717" rx="1.197" ry="1.557" transform="matrix(0.93234631,-0.36156653,0.33179364,0.94335199,0,0)" style="fill:#f55;fill-opacity:.50196078;stroke:none;stroke-width:.1;stroke-linecap:round;stroke-linejoin:round;stroke-miterlimit:4;stroke-dasharray:none;stroke-dashoffset:0;stroke-opacity:1"/><path id="path4249" d="m 24.062502,1022.6747 c -1.304145,-0.9315 -2.087429,0.9328 -1.375001,2.0156 0.639317,0.9717 2.278066,1.2451 2.093751,-0.8281" style="fill:none;fill-rule:evenodd;stroke:#000;stroke-width:.30000001;stroke-linecap:round;stroke-linejoin:miter;stroke-miterlimit:4;stroke-dasharray:none;stroke-opacity:1"/><path id="path4249-0" d="m 23.583301,1023.6504 c -0.4382,-0.2624 -0.701388,0.2628 -0.462009,0.568 0.214815,0.2738 0.765444,0.3507 0.703514,-0.2334" style="display:inline;fill:none;fill-rule:evenodd;stroke:#000;stroke-width:.18303351;stroke-linecap:round;stroke-linejoin:miter;stroke-miterlimit:4;stroke-dasharray:none;stroke-opacity:1"/><path id="path4224" d="m 28.652461,1007.1899 c 0,0 0.0099,2.3431 -1.912099,3.9389 -1.385015,1.1499 -4.778369,0.5705 -6.396611,2.0771 -1.717146,1.5987 -0.712214,7.1129 -0.754165,11.0332 -0.04809,4.4946 -0.933335,8.3731 -0.933335,8.3731" style="fill:none;fill-rule:evenodd;stroke:#000;stroke-width:.5;stroke-linecap:round;stroke-linejoin:miter;stroke-miterlimit:4;stroke-dasharray:none;stroke-opacity:1"/><path id="path4226" d="m 33.875002,1007.2997 c 0.05193,1.2632 -0.228893,2.5351 1.724593,3.8669 1.668231,1.1373 5.095857,0.7147 6.681658,2.4768 1.730892,1.9233 0.657876,7.1737 0.608298,11.1533 -0.05478,4.3976 0.547952,8.253 0.547952,8.253" style="fill:none;fill-rule:evenodd;stroke:#000;stroke-width:.5;stroke-linecap:round;stroke-linejoin:miter;stroke-miterlimit:4;stroke-dasharray:none;stroke-opacity:1"/><path id="path4228" d="m 30.449788,1012.8526 c 0.54222,0.612 1.133846,0.8287 1.82301,0.2651" style="fill:none;fill-rule:evenodd;stroke:#000;stroke-width:.5;stroke-linecap:round;stroke-linejoin:miter;stroke-miterlimit:4;stroke-dasharray:none;stroke-opacity:1"/><path id="path4243" d="m 22.737904,1033.9553 c 0.520859,-2.2665 0.798536,-4.4846 0.612246,-6.9175" style="fill:none;fill-rule:evenodd;stroke:#000;stroke-width:.5;stroke-linecap:round;stroke-linejoin:miter;stroke-miterlimit:4;stroke-dasharray:none;stroke-opacity:1"/><path id="path4245" d="m 23.733614,1027.1639 c 0.6405,3.3264 -0.09569,5.1347 -0.841031,7.0345" style="fill:none;fill-rule:evenodd;stroke:#000;stroke-width:.5;stroke-linecap:round;stroke-linejoin:miter;stroke-miterlimit:4;stroke-dasharray:none;stroke-opacity:1"/><path id="path4247" d="m 22.718751,1019.1747 c -2.548147,2.7895 -1.584594,6.9951 0.788004,7.7803 4.08542,1.3522 6.923891,-2.0013 6.758872,-5.3428" style="fill:none;fill-rule:evenodd;stroke:#000;stroke-width:.5;stroke-linecap:round;stroke-linejoin:miter;stroke-miterlimit:4;stroke-dasharray:none;stroke-opacity:1"/><g id="g4290" transform="matrix(-1,0,0,1,88.211572,-3.6239225)"><ellipse style="display:inline;fill:#f55;fill-opacity:.50196078;stroke:none;stroke-width:.1;stroke-linecap:round;stroke-linejoin:round;stroke-miterlimit:4;stroke-dasharray:none;stroke-dashoffset:0;stroke-opacity:1" id="path4200-1" cx="-293.989" cy="976.668" rx="1.197" ry="1.557" transform="matrix(0.93234631,-0.36156653,0.33179364,0.94335199,0,0)"/><path style="display:inline;fill:none;fill-rule:evenodd;stroke:#000;stroke-width:.5;stroke-linecap:round;stroke-linejoin:miter;stroke-miterlimit:4;stroke-dasharray:none;stroke-opacity:1" id="path4247-9" d="m 49.060096,1022.8432 c -2.548147,2.7895 -1.584594,6.9951 0.788004,7.7803 4.08542,1.3522 6.923891,-2.0013 6.758872,-5.3428"/><path style="display:inline;fill:none;fill-rule:evenodd;stroke:#000;stroke-width:.30000001;stroke-linecap:round;stroke-linejoin:miter;stroke-miterlimit:4;stroke-dasharray:none;stroke-opacity:1" id="path4249-2" d="m 50.403847,1026.3432 c -1.304145,-0.9315 -2.087429,0.9328 -1.375001,2.0156 0.639317,0.9717 2.278066,1.2451 2.093751,-0.8281"/><path style="display:inline;fill:none;fill-rule:evenodd;stroke:#000;stroke-width:.18303351;stroke-linecap:round;stroke-linejoin:miter;stroke-miterlimit:4;stroke-dasharray:none;stroke-opacity:1" id="path4249-0-3" d="m 49.924646,1027.3189 c -0.4382,-0.2624 -0.701388,0.2628 -0.462009,0.568 0.214815,0.2738 0.765444,0.3507 0.703514,-0.2334"/></g><path id="path4296" d="m 39.785808,1034.2867 c -0.669868,-1.1818 -0.991419,-2.9279 -0.696059,-7.6345" style="fill:none;fill-rule:evenodd;stroke:#000;stroke-width:.5;stroke-linecap:round;stroke-linejoin:miter;stroke-miterlimit:4;stroke-dasharray:none;stroke-opacity:1"/></g><path style="fill:#f9f9f9;fill-opacity:1;fill-rule:evenodd;stroke:none;stroke-width:1px;stroke-linecap:butt;stroke-linejoin:miter;stroke-opacity:1" id="path4281" d="m 33.182662,1000.6875 c 8.461942,1.1166 16.42753,3.7425 20.24587,18.9804 -11.689625,-16.7044 -13.195655,-13.7536 -20.24587,-18.9804 z"/><path style="fill:#000;fill-opacity:.44859811;fill-rule:evenodd;stroke:none;stroke-width:1px;stroke-linecap:butt;stroke-linejoin:miter;stroke-opacity:1" id="path4283" d="m 42.086563,1042.0758 c -21.987729,9.2736 -40.5847709,-11.5345 -31.665685,-30.3782 0.167726,16.1371 12.615755,31.9922 31.665685,30.3782 z"/></g></svg>