<svg xmlns="http://www.w3.org/2000/svg" xmlns:svg="http://www.w3.org/2000/svg" id="svg4311" width="100%" height="100%" version="1.1" viewBox="0 0 64 64"><metadata id="metadata4316"/><g id="layer1" transform="translate(0,-988.36216)" style="display:inline"><ellipse style="fill:#ff8080;fill-opacity:1;stroke:#000;stroke-width:1;stroke-linecap:round;stroke-linejoin:round;stroke-miterlimit:4;stroke-dasharray:none;stroke-dashoffset:0;stroke-opacity:1" id="path4279" cx="31.861" cy="1021.172" rx="23.947" ry="23.608"/><path style="fill:#f9f9f9;fill-opacity:1;fill-rule:evenodd;stroke:none;stroke-width:1px;stroke-linecap:butt;stroke-linejoin:miter;stroke-opacity:1" id="path4281" d="m 33.182662,1000.6875 c 8.461942,1.1166 16.42753,3.7425 20.24587,18.9804 -11.689625,-16.7044 -13.195655,-13.7536 -20.24587,-18.9804 z"/><path style="display:inline;fill:#ffd5d5;fill-rule:evenodd;stroke:#000;stroke-width:.5;stroke-linecap:butt;stroke-linejoin:miter;stroke-miterlimit:4;stroke-dasharray:none;stroke-opacity:1" id="path4468-8-4" d="m 28.889887,999.92111 c -0.07996,0.81159 -0.07792,2.06709 -0.303096,2.41079 -0.318209,0.4855 -1.362734,1.1396 -1.639623,2.2703 -2.271914,2.6675 -5.01412,7.456 -4.711359,8.3134 0.384511,1.089 4.338068,4.7625 6.629591,7.1251 -1.262955,2.1018 -2.403352,4.2599 0.159702,8.1007 0.141331,3.2268 0.180282,6.4752 0.717518,9.6169 -0.174938,1.1386 -1.090547,3.2792 -1.090547,3.2792 l 4.423411,0.3731 c 0.401111,-1.8022 0.904769,-3.3302 1.172159,-5.489 0.696225,-4.3259 1.28307,-7.6491 1.301156,-11.1398 4.095551,-0.242 4.951733,-3.5089 4.989852,-5.5311 0.06809,-3.6131 -2.596895,-5.0178 -4.692187,-7.5701 0.893652,-0.513 0.952862,-1.2318 0.89355,-2.0652 -0.05963,-0.8381 -1.435415,-2.0388 -2.34781,-3.0064 -0.929818,-0.9861 -1.337868,-1.737 -1.627383,-2.0949 -0.176928,-0.2187 -0.739082,-0.4074 -0.739082,-0.4074 -0.09785,-0.8285 -0.204798,-1.5571 0.250047,-2.1846 z m -0.550249,10.54939 c 0.917432,2.7128 1.50903,5.4042 1.431544,7.7627 -1.198417,-1.7741 -2.032772,-3.3899 -3.617311,-5.3322 0.893805,-0.8855 1.470917,-1.5718 1.808656,-2.3366 z"/><path style="fill:#000;fill-opacity:.44859811;fill-rule:evenodd;stroke:none;stroke-width:1px;stroke-linecap:butt;stroke-linejoin:miter;stroke-opacity:1" id="path4283" d="m 42.086563,1042.0758 c -21.987729,9.2736 -40.5847709,-11.5345 -31.665685,-30.3782 0.167726,16.1371 12.615755,31.9922 31.665685,30.3782 z"/><path style="display:inline;fill:#ff2a2a;fill-opacity:1;fill-rule:evenodd;stroke:#000;stroke-width:.5;stroke-linecap:butt;stroke-linejoin:miter;stroke-miterlimit:4;stroke-dasharray:none;stroke-opacity:1" id="path4181-0" d="m 34.50657,1014.9245 c 0.628587,-0.1154 1.275487,-0.1311 1.948325,-0.01 l 0.02216,3.0725 2.955701,-0.034 c 0.131205,0.6443 0.143081,1.308 0.03878,1.9823 l -2.950168,0.017 0.03878,3.0612 c -0.644829,0.095 -1.298341,0.1458 -1.987071,0.017 l 0,-3.0443 -3.071934,0.029 c -0.129762,-0.6765 -0.111573,-1.3436 -0.0058,-2.0051 l 3.066306,-0.032 z"/></g></svg>