<svg xmlns="http://www.w3.org/2000/svg" xmlns:svg="http://www.w3.org/2000/svg" id="svg4311" width="100%" height="100%" version="1.1" viewBox="0 0 64 64"><metadata id="metadata4316"/><g id="layer1" transform="translate(0,-988.36216)" style="display:inline"><ellipse style="fill:#ff8080;fill-opacity:1;stroke:#000;stroke-width:1;stroke-linecap:round;stroke-linejoin:round;stroke-miterlimit:4;stroke-dasharray:none;stroke-dashoffset:0;stroke-opacity:1" id="path4279" cx="31.861" cy="1021.172" rx="23.947" ry="23.608"/><path style="fill:#f9f9f9;fill-opacity:1;fill-rule:evenodd;stroke:none;stroke-width:1px;stroke-linecap:butt;stroke-linejoin:miter;stroke-opacity:1" id="path4281" d="m 33.182662,1000.6875 c 8.461942,1.1166 16.42753,3.7425 20.24587,18.9804 -11.689625,-16.7044 -13.195655,-13.7536 -20.24587,-18.9804 z"/><g id="g4221" transform="matrix(0.51782,-0.02824068,0.02482199,0.45513505,28.179581,553.85314)" style="fill:#ff2a2a"><g id="g4229" transform="translate(365.57422,-51.618797)" style="fill:#ff2a2a"><path style="display:inline;fill:#ff2a2a;fill-rule:evenodd;stroke:#000;stroke-width:1px;stroke-linecap:butt;stroke-linejoin:miter;stroke-opacity:1" id="path4156-5-9-7-0" d="m -430.11428,1084.9725 c -2.20222,-1.1124 -4.79071,-2.371 -7.5861,-1.0602 -5.47005,2.5651 -5.78552,7.5691 -3.30136,13.1938 2.12817,4.8187 6.54823,-0.709 5.59944,-2.4492 -1.30508,-2.3937 -1.77918,-3.6912 0.63942,-4.8697 4.13219,1.2892 8.78318,-2.3135 4.6486,-4.8147 z"/><path style="display:inline;fill:#ff2a2a;fill-rule:evenodd;stroke:#000;stroke-width:1px;stroke-linecap:butt;stroke-linejoin:miter;stroke-opacity:1" id="path4156-5-9-7" d="m -421.43111,1077.0042 c -2.20222,-1.1124 -4.79074,-2.3711 -7.5861,-1.0602 -8.54409,4.0066 -7.43595,15.6715 -0.1875,23.9999 3.88597,4.4649 10.77806,13.6044 17.6875,7.875 1.20771,-1.0014 4.9849,-5.5718 -5.375,-15.125 -3.43333,-3.166 -6.80053,-5.3989 -11.5651,-8.0076 -1.01224,1.827 -0.11088,5.3136 0.76164,6.8241 4.14213,2.7727 14.61917,10.58 11.92846,10.9335 -4.06766,0.5344 -9.45327,-6.6753 -11.375,-9.875 -2.13722,-3.5585 -3.02357,-8.759 1.0625,-10.75 4.13219,1.2892 8.78318,-2.3135 4.6486,-4.8147 z"/><path style="display:inline;fill:#ff2a2a;fill-rule:evenodd;stroke:#000;stroke-width:1px;stroke-linecap:butt;stroke-linejoin:miter;stroke-opacity:1" id="path4156-5-3" d="m -412.23494,1070.3158 c -2.20222,-1.1124 -4.79074,-2.3711 -7.5861,-1.0602 -8.54409,4.0067 -7.43595,15.6715 -0.1875,23.9999 3.88597,4.4649 10.77806,13.6044 17.6875,7.875 1.20771,-1.0014 4.9849,-5.5718 -5.375,-15.125 -3.43333,-3.166 -6.80053,-5.3989 -11.5651,-8.0075 -1.01224,1.827 -0.11088,5.3135 0.76164,6.824 4.14213,2.7727 14.61917,10.58 11.92846,10.9335 -4.06766,0.5344 -9.45327,-6.6753 -11.375,-9.875 -2.13722,-3.5585 -3.02357,-8.7589 1.0625,-10.7499 4.13219,1.2892 8.78318,-2.3135 4.6486,-4.8148 z"/><path style="display:inline;fill:#ff2a2a;fill-rule:evenodd;stroke:#000;stroke-width:1px;stroke-linecap:butt;stroke-linejoin:miter;stroke-opacity:1" id="path4156-5-9" d="m -404.19278,1062.199 c -2.20222,-1.1124 -4.79074,-2.3711 -7.5861,-1.0602 -8.54409,4.0067 -7.43595,15.6716 -0.1875,24 3.88597,4.4649 10.77806,13.6044 17.6875,7.875 1.20771,-1.0014 4.9849,-5.5718 -5.375,-15.125 -3.43333,-3.166 -6.80053,-5.3989 -11.5651,-8.0076 -1.01224,1.827 -0.11088,5.3136 0.76164,6.8241 4.14213,2.7727 14.61917,10.58 11.92846,10.9335 -4.06766,0.5344 -9.45327,-6.6753 -11.375,-9.875 -2.13722,-3.5585 -3.02357,-8.759 1.0625,-10.75 4.13219,1.2892 8.78318,-2.3135 4.6486,-4.8148 z"/><path style="display:inline;fill:#ff2a2a;fill-rule:evenodd;stroke:#000;stroke-width:1px;stroke-linecap:butt;stroke-linejoin:miter;stroke-opacity:1" id="path4156-5" d="m -395.43411,1054.3856 c -2.20222,-1.1124 -4.79074,-2.3711 -7.5861,-1.0602 -8.54409,4.0067 -7.43595,15.6716 -0.1875,24 3.88597,4.4649 10.77806,13.6044 17.6875,7.875 1.20771,-1.0014 4.9849,-5.5718 -5.375,-15.125 -3.43333,-3.166 -6.80053,-5.3989 -11.5651,-8.0076 -1.01224,1.827 -0.11088,5.3136 0.76164,6.8241 4.14213,2.7727 14.61917,10.58 11.92846,10.9335 -4.06766,0.5344 -9.45327,-6.6753 -11.375,-9.875 -2.13722,-3.5585 -3.02357,-8.759 1.0625,-10.75 4.13219,1.2892 8.78318,-2.3135 4.6486,-4.8148 z"/><path style="fill:#ff2a2a;fill-rule:evenodd;stroke:#000;stroke-width:1px;stroke-linecap:butt;stroke-linejoin:miter;stroke-opacity:1" id="path4156" d="m -383.79132,1055.6717 c 1.46926,0.073 1.64177,-0.7693 1.82414,-2.656 0.31685,-3.2779 -9.08192,-7.755 -12.93018,-5.9882 -8.50014,3.9026 -6.53861,14.7563 0.70984,23.0847 3.88597,4.4649 10.77806,13.6044 17.6875,7.875 1.20771,-1.0014 4.9849,-5.5718 -5.375,-15.125 -3.43333,-3.166 -6.84473,-5.3105 -11.6093,-7.9192 -0.57029,2.1363 -0.33184,4.032 0.89423,6.6915 3.5676,3.303 14.53078,10.6242 11.84007,10.9777 -4.06766,0.5344 -9.45327,-6.6753 -11.375,-9.875 -2.13722,-3.5585 -3.12723,-8.377 0.95884,-10.368 1.70408,-0.8304 4.57336,3.163 7.37486,3.3025 z"/></g></g><path style="fill:#000;fill-opacity:.44859811;fill-rule:evenodd;stroke:none;stroke-width:1px;stroke-linecap:butt;stroke-linejoin:miter;stroke-opacity:1" id="path4283" d="m 42.086563,1042.0758 c -21.987729,9.2736 -40.5847709,-11.5345 -31.665685,-30.3782 0.167726,16.1371 12.615755,31.9922 31.665685,30.3782 z"/></g></svg>