<svg xmlns="http://www.w3.org/2000/svg" xmlns:svg="http://www.w3.org/2000/svg" id="svg4311" width="100%" height="100%" version="1.1" viewBox="0 0 64 64"><metadata id="metadata4316"/><g id="layer1" transform="translate(0,-988.36216)" style="display:inline"><ellipse style="fill:#ff8080;fill-opacity:1;stroke:#000;stroke-width:1;stroke-linecap:round;stroke-linejoin:round;stroke-miterlimit:4;stroke-dasharray:none;stroke-dashoffset:0;stroke-opacity:1" id="path4279" cx="31.861" cy="1021.172" rx="23.947" ry="23.608"/><path style="fill:#f9f9f9;fill-opacity:1;fill-rule:evenodd;stroke:none;stroke-width:1px;stroke-linecap:butt;stroke-linejoin:miter;stroke-opacity:1" id="path4281" d="m 33.182662,1000.6875 c 8.461942,1.1166 16.42753,3.7425 20.24587,18.9804 -11.689625,-16.7044 -13.195655,-13.7536 -20.24587,-18.9804 z"/><path style="fill:#ff2a2a;fill-rule:evenodd;stroke:#000;stroke-width:.5;stroke-linecap:butt;stroke-linejoin:miter;stroke-miterlimit:4;stroke-dasharray:none;stroke-opacity:1" id="path4162" d="m 33.263887,1041.7949 c -9.591988,-1.3367 -3.518837,-7.3595 -1.521569,-12.4727 1.339443,-3.4292 3.443316,-8.66 -3.926811,-8.9272 -7.462028,-0.2706 -9.530905,-6.3705 -2.738372,-9.7729 5.399361,-2.7045 13.513655,-2.0098 14.887629,4.8954 0.685272,3.444 -1.103458,7.3841 -1.07097,10.9951 0.03149,3.5041 1.892857,6.6815 1.227484,10.2565 -0.506456,2.7212 -3.924941,5.4344 -6.857391,5.0258 z"/><path style="fill:#000;fill-opacity:.44859811;fill-rule:evenodd;stroke:none;stroke-width:1px;stroke-linecap:butt;stroke-linejoin:miter;stroke-opacity:1" id="path4283" d="m 42.086563,1042.0758 c -21.987729,9.2736 -40.5847709,-11.5345 -31.665685,-30.3782 0.167726,16.1371 12.615755,31.9922 31.665685,30.3782 z"/><path style="fill:#ff2a2a;fill-rule:evenodd;stroke:#000;stroke-width:.5;stroke-linecap:butt;stroke-linejoin:miter;stroke-miterlimit:4;stroke-dasharray:none;stroke-opacity:1" id="path4164" d="m 21.39686,1004.398 c -2.703452,1.2292 -2.255894,5.9284 -0.418177,6.7699 0.809966,0.3714 2.790739,-0.3181 3.603224,-0.9688 2.4602,-1.9704 1.390396,-7.8815 -3.185047,-5.8011 z"/><path style="display:inline;fill:#ff2a2a;fill-rule:evenodd;stroke:#000;stroke-width:.5;stroke-linecap:butt;stroke-linejoin:miter;stroke-miterlimit:4;stroke-dasharray:none;stroke-opacity:1" id="path4164-8" d="m 29.137937,1003.187 c -1.481283,0.3574 -2.101078,2.7451 -1.390036,3.3391 0.313268,0.2624 1.361277,0.1058 1.856115,-0.142 1.498208,-0.7501 2.040836,-3.8017 -0.466079,-3.1971 z"/><path style="display:inline;fill:#ff2a2a;fill-rule:evenodd;stroke:#000;stroke-width:.5;stroke-linecap:butt;stroke-linejoin:miter;stroke-miterlimit:4;stroke-dasharray:none;stroke-opacity:1" id="path4164-8-7" d="m 34.049321,1004.1928 c -1.22518,-0.5398 -3.348575,1.4653 -3.103645,2.3584 0.107993,0.3937 1.389506,0.879 1.910247,0.8573 1.576146,-0.065 2.453089,-2.6607 1.193573,-3.216 z"/><path style="display:inline;fill:#ff2a2a;fill-rule:evenodd;stroke:#000;stroke-width:.5;stroke-linecap:butt;stroke-linejoin:miter;stroke-miterlimit:4;stroke-dasharray:none;stroke-opacity:1" id="path4164-8-7-8" d="m 37.588117,1005.6427 c -1.081205,-0.7257 -3.374541,1.1152 -3.29286,2.0596 0.03598,0.4164 1.180673,1.0944 1.683091,1.1473 1.521193,0.1604 2.721407,-2.4608 1.609767,-3.2069 z"/><path style="display:inline;fill:#ff2a2a;fill-rule:evenodd;stroke:#000;stroke-width:.5;stroke-linecap:butt;stroke-linejoin:miter;stroke-miterlimit:4;stroke-dasharray:none;stroke-opacity:1" id="path4164-8-7-8-7" d="m 40.50273,1007.9913 c -1.02497,-0.7864 -3.374553,1.1152 -3.292895,2.0597 0.03602,0.4163 1.18923,1.0703 1.683087,1.1474 1.714421,0.2671 2.36726,-2.6259 1.609811,-3.2071 z"/></g></svg>