<svg xmlns="http://www.w3.org/2000/svg" xmlns:svg="http://www.w3.org/2000/svg" id="svg4311" width="100%" height="100%" version="1.1" viewBox="0 0 64 64"><metadata id="metadata4316"/><g id="layer1" transform="translate(0,-988.36216)" style="display:inline"><ellipse style="fill:#ff8080;fill-opacity:1;stroke:#000;stroke-width:1;stroke-linecap:round;stroke-linejoin:round;stroke-miterlimit:4;stroke-dasharray:none;stroke-dashoffset:0;stroke-opacity:1" id="path4279" cx="31.861" cy="1021.172" rx="23.947" ry="23.608"/><path style="fill:#f9f9f9;fill-opacity:1;fill-rule:evenodd;stroke:none;stroke-width:1px;stroke-linecap:butt;stroke-linejoin:miter;stroke-opacity:1" id="path4281" d="m 33.182662,1000.6875 c 8.461942,1.1166 16.42753,3.7425 20.24587,18.9804 -11.689625,-16.7044 -13.195655,-13.7536 -20.24587,-18.9804 z"/><path style="fill:#000;fill-opacity:.44859811;fill-rule:evenodd;stroke:none;stroke-width:1px;stroke-linecap:butt;stroke-linejoin:miter;stroke-opacity:1" id="path4283" d="m 42.086563,1042.0758 c -21.987729,9.2736 -40.5847709,-11.5345 -31.665685,-30.3782 0.167726,16.1371 12.615755,31.9922 31.665685,30.3782 z"/><path style="fill:#faa;fill-rule:evenodd;stroke:#000;stroke-width:.6381408;stroke-linecap:butt;stroke-linejoin:miter;stroke-miterlimit:4;stroke-dasharray:none;stroke-opacity:1" id="path4149" d="m 24.040159,1034.3102 0.03988,-24.8875 14.637356,-0.079 0,25.0071 z"/><path style="fill:#f55;fill-rule:evenodd;stroke:#000;stroke-width:.6381408;stroke-linecap:butt;stroke-linejoin:miter;stroke-miterlimit:4;stroke-dasharray:none;stroke-opacity:1" id="path4151" d="m 24.040159,1013.0122 14.597472,-0.079 c 2.27093,-0.013 2.328508,3.2705 0,3.2705 l -14.557589,0 c -2.333669,0 -2.065834,-3.1804 -0.03988,-3.1914 z"/><path style="display:inline;fill:#f55;fill-rule:evenodd;stroke:#000;stroke-width:.6381408;stroke-linecap:butt;stroke-linejoin:miter;stroke-miterlimit:4;stroke-dasharray:none;stroke-opacity:1" id="path4151-2" d="m 24.077431,1020.6262 14.597471,-0.079 c 2.27093,-0.013 2.328508,3.2705 0,3.2705 l -14.557587,0 c -2.33367,0 -2.065834,-3.1804 -0.03988,-3.1914 z"/><path style="display:inline;fill:#f55;fill-rule:evenodd;stroke:#000;stroke-width:.6381408;stroke-linecap:butt;stroke-linejoin:miter;stroke-miterlimit:4;stroke-dasharray:none;stroke-opacity:1" id="path4151-6" d="m 24.14528,1027.8883 14.59747,-0.079 c 2.27093,-0.013 2.328509,3.2704 0,3.2704 l -14.557587,0 c -2.333669,0 -2.065834,-3.1803 -0.03988,-3.1913 z"/></g></svg>