<svg xmlns="http://www.w3.org/2000/svg" xmlns:svg="http://www.w3.org/2000/svg" id="svg4311" width="100%" height="100%" version="1.1" viewBox="0 0 64 64"><metadata id="metadata4316"/><g id="layer1" transform="translate(0,-988.36216)" style="display:inline"><ellipse style="fill:#ff8080;fill-opacity:1;stroke:#000;stroke-width:1;stroke-linecap:round;stroke-linejoin:round;stroke-miterlimit:4;stroke-dasharray:none;stroke-dashoffset:0;stroke-opacity:1" id="path4279" cx="31.861" cy="1021.172" rx="23.947" ry="23.608"/><path style="fill:#f9f9f9;fill-opacity:1;fill-rule:evenodd;stroke:none;stroke-width:1px;stroke-linecap:butt;stroke-linejoin:miter;stroke-opacity:1" id="path4281" d="m 33.182662,1000.6875 c 8.461942,1.1166 16.42753,3.7425 20.24587,18.9804 -11.689625,-16.7044 -13.195655,-13.7536 -20.24587,-18.9804 z"/><path style="fill:#000;fill-opacity:.44859811;fill-rule:evenodd;stroke:none;stroke-width:1px;stroke-linecap:butt;stroke-linejoin:miter;stroke-opacity:1" id="path4283" d="m 42.086563,1042.0758 c -21.987729,9.2736 -40.5847709,-11.5345 -31.665685,-30.3782 0.167726,16.1371 12.615755,31.9922 31.665685,30.3782 z"/><path style="fill:#faa;fill-opacity:1;stroke:#000;stroke-width:.5;stroke-linecap:round;stroke-linejoin:bevel;stroke-miterlimit:4;stroke-dasharray:none;stroke-dashoffset:0;stroke-opacity:1" id="path4146" d="m 37.47666,1021.3378 -2.730818,2.6896 0.667455,3.7743 -3.401795,-1.766 -3.383352,1.8011 0.628393,-3.781 -2.758481,-2.6612 3.790163,-0.5708 1.678517,-3.4458 1.714056,3.4283 z"/><ellipse style="fill:#f55;fill-opacity:1;stroke:#000;stroke-width:.5;stroke-linecap:round;stroke-linejoin:bevel;stroke-miterlimit:4;stroke-dasharray:none;stroke-dashoffset:0;stroke-opacity:1" id="path4174" cx="32.052" cy="1023.107" rx="2.313" ry="2.219"/><path style="fill:none;fill-rule:evenodd;stroke:#000;stroke-width:1px;stroke-linecap:round;stroke-linejoin:miter;stroke-opacity:1" id="path4176" d="m 19.926778,1023.7631 c -0.435484,13.2277 24.453205,15.8547 24.375001,0.125 -0.02776,-5.5841 -3.68272,-9.4709 -5.4375,-14.75"/></g></svg>