<svg xmlns="http://www.w3.org/2000/svg" xmlns:svg="http://www.w3.org/2000/svg" id="svg4311" width="100%" height="100%" version="1.1" viewBox="0 0 64 64"><metadata id="metadata4316"/><g id="layer1" transform="translate(0,-988.36216)" style="display:inline"><ellipse style="fill:#ff8080;fill-opacity:1;stroke:#000;stroke-width:1;stroke-linecap:round;stroke-linejoin:round;stroke-miterlimit:4;stroke-dasharray:none;stroke-dashoffset:0;stroke-opacity:1" id="path4279" cx="31.861" cy="1021.172" rx="23.947" ry="23.608"/><path style="fill:#000;fill-opacity:.44859811;fill-rule:evenodd;stroke:none;stroke-width:1px;stroke-linecap:butt;stroke-linejoin:miter;stroke-opacity:1" id="path4283" d="m 42.086563,1042.0758 c -21.987729,9.2736 -40.5847709,-11.5345 -31.665685,-30.3782 0.167726,16.1371 12.615755,31.9922 31.665685,30.3782 z"/><path style="fill:#f9f9f9;fill-opacity:1;fill-rule:evenodd;stroke:none;stroke-width:1px;stroke-linecap:butt;stroke-linejoin:miter;stroke-opacity:1" id="path4281" d="m 33.182662,1000.6875 c 8.461942,1.1166 16.42753,3.7425 20.24587,18.9804 -11.689625,-16.7044 -13.195655,-13.7536 -20.24587,-18.9804 z"/><path style="display:inline;fill:#ff2a2a;fill-rule:evenodd;stroke:#000;stroke-width:.44999999;stroke-linecap:butt;stroke-linejoin:miter;stroke-miterlimit:4;stroke-dasharray:none;stroke-opacity:1" id="path4158" d="m 45.508244,1016.5844 c -0.291049,4.6662 -3.898952,7.7104 -7.875927,7.2547 -4.68607,-0.5368 -8.577168,-6.659 -16.053569,-9.532 7.981673,-1.5539 12.392769,-6.0819 17.109066,-6.0311 4.178071,0.045 7.080585,4.1431 6.82043,8.3084 z"/><path style="fill:none;fill-rule:evenodd;stroke:#fff;stroke-width:.5;stroke-linecap:round;stroke-linejoin:miter;stroke-miterlimit:4;stroke-dasharray:none;stroke-opacity:1" id="path4219" d="m 44.014665,1015.5541 c 0.561055,-2.2579 -1.601814,-5.1065 -4.251544,-6.1471"/><path id="path4146" d="m 26.025206,1032.8278 c -2.879165,1.3871 -5.900608,0.2544 -6.959097,-2.2688 -1.247202,-2.9732 1.101115,-7.3405 0.313402,-12.7585 3.595891,4.2386 7.770595,5.3539 9.317655,8.1825 1.37054,2.5058 -0.1018,5.6069 -2.67196,6.8448 z" style="display:inline;fill:#ff2a2a;fill-rule:evenodd;stroke:#000;stroke-width:.5;stroke-linecap:butt;stroke-linejoin:miter;stroke-miterlimit:4;stroke-dasharray:none;stroke-opacity:1"/><path id="path4148" d="m 27.867736,1029.0571 c 0.59412,-1.4752 -0.59971,-3.6087 -2.2947,-4.5647" style="fill:none;fill-rule:evenodd;stroke:#fff;stroke-width:.5;stroke-linecap:round;stroke-linejoin:miter;stroke-miterlimit:4;stroke-dasharray:none;stroke-opacity:1"/><path id="path4146-7" d="m 40.395528,1035.9407 c -2.234023,1.622 -4.976576,1.1239 -6.264447,-0.8581 -1.517483,-2.3355 -0.193106,-6.409 -1.696064,-10.8933 3.708596,3.0498 7.428788,3.3557 9.178923,5.5221 1.550439,1.9193 0.775893,4.7817 -1.218412,6.2293 z" style="display:inline;fill:#ff2a2a;fill-rule:evenodd;stroke:#000;stroke-width:.5;stroke-linecap:butt;stroke-linejoin:miter;stroke-miterlimit:4;stroke-dasharray:none;stroke-opacity:1"/><path id="path4148-7" d="m 41.234161,1032.61 c 0.278104,-1.3453 -1.064853,-2.9752 -2.652697,-3.5271" style="fill:none;fill-rule:evenodd;stroke:#fff;stroke-width:.53144097;stroke-linecap:round;stroke-linejoin:miter;stroke-miterlimit:4;stroke-dasharray:none;stroke-opacity:1"/></g></svg>