<svg xmlns="http://www.w3.org/2000/svg" xmlns:svg="http://www.w3.org/2000/svg" id="svg4311" width="100%" height="100%" version="1.1" viewBox="0 0 64 64"><metadata id="metadata4316"/><g id="layer1" transform="translate(0,-988.36216)" style="display:inline"><ellipse style="fill:#ff8080;fill-opacity:1;stroke:#000;stroke-width:1;stroke-linecap:round;stroke-linejoin:round;stroke-miterlimit:4;stroke-dasharray:none;stroke-dashoffset:0;stroke-opacity:1" id="path4279" cx="31.861" cy="1021.172" rx="23.947" ry="23.608"/><path style="fill:#f9f9f9;fill-opacity:1;fill-rule:evenodd;stroke:none;stroke-width:1px;stroke-linecap:butt;stroke-linejoin:miter;stroke-opacity:1" id="path4281" d="m 33.182662,1000.6875 c 8.461942,1.1166 16.42753,3.7425 20.24587,18.9804 -11.689625,-16.7044 -13.195655,-13.7536 -20.24587,-18.9804 z"/><path style="fill:#000;fill-opacity:.44859811;fill-rule:evenodd;stroke:none;stroke-width:1px;stroke-linecap:butt;stroke-linejoin:miter;stroke-opacity:1" id="path4283" d="m 42.086563,1042.0758 c -21.987729,9.2736 -40.5847709,-11.5345 -31.665685,-30.3782 0.167726,16.1371 12.615755,31.9922 31.665685,30.3782 z"/><path style="display:inline;fill:none;fill-rule:evenodd;stroke:#000;stroke-width:.54697782;stroke-linecap:butt;stroke-linejoin:miter;stroke-miterlimit:4;stroke-dasharray:.54697781,4.37582249;stroke-dashoffset:0;stroke-opacity:1" id="path4175-7-2-1-1" d="m 18.850683,1027.8277 21.327629,5.1328"/><path style="display:inline;fill:none;fill-rule:evenodd;stroke:#000;stroke-width:.54697782;stroke-linecap:butt;stroke-linejoin:miter;stroke-miterlimit:4;stroke-dasharray:.54697782,4.37582254;stroke-dashoffset:2.62549353;stroke-opacity:1" id="path4173-2-7-4-1" d="m 39.499586,1011.359 -21.256446,7.5899"/><ellipse style="display:inline;fill:#faa;fill-opacity:1;stroke:#000;stroke-width:.54697782;stroke-linecap:round;stroke-miterlimit:4;stroke-dasharray:none" id="path4156-2-1-1-7" cx="569.984" cy="850.162" rx="4.494" ry="4.289" transform="matrix(0.84056282,0.54171409,-0.54171409,0.84056282,0,0)"/><ellipse style="display:inline;fill:#f55;fill-opacity:1;stroke:#000;stroke-width:.54697782;stroke-linecap:round;stroke-miterlimit:4;stroke-dasharray:none" id="path4156-6-9-3-8-3" cx="587.221" cy="837.631" rx="11.066" ry="10.793" transform="matrix(0.84056282,0.54171409,-0.54171409,0.84056282,0,0)"/><path style="display:inline;fill:#ffd5d5;fill-opacity:1;fill-rule:evenodd;stroke:#000;stroke-width:.5;stroke-linecap:butt;stroke-linejoin:miter;stroke-miterlimit:4;stroke-dasharray:none;stroke-opacity:1" id="path4181-1-4" d="m 21.506366,1022.5906 c 0.09797,0.5683 0.105338,1.1528 0.02444,1.7464 l -6.050165,0.046 c -0.0968,-0.5962 -0.08132,-1.1837 7.97e-4,-1.766 z"/><path style="display:inline;fill:#ff2a2a;fill-opacity:1;fill-rule:evenodd;stroke:#000;stroke-width:.5;stroke-linecap:butt;stroke-linejoin:miter;stroke-miterlimit:4;stroke-dasharray:none;stroke-opacity:1" id="path4181-5" d="m 37.843881,1013.3524 c 1.378196,-0.2433 2.795788,-0.2723 4.269274,0 l 0.02635,6.598 6.476831,-0.05 c 0.28281,1.385 0.30409,2.8102 0.07056,4.2575 l -6.464656,0.014 0.06271,6.5739 c -1.413662,0.1994 -2.845946,0.3038 -4.354211,0.022 l 0.02201,-6.5373 -6.731586,0.038 c -0.279447,-1.4537 -0.234761,-2.886 0.0023,-4.3057 l 6.719286,-0.046 z"/></g></svg>