<svg xmlns="http://www.w3.org/2000/svg" xmlns:svg="http://www.w3.org/2000/svg" id="svg4311" width="100%" height="100%" version="1.1" viewBox="0 0 64 64"><metadata id="metadata4316"/><g id="layer1" transform="translate(0,-988.36216)" style="display:inline"><ellipse style="fill:#ff8080;fill-opacity:1;stroke:#000;stroke-width:1;stroke-linecap:round;stroke-linejoin:round;stroke-miterlimit:4;stroke-dasharray:none;stroke-dashoffset:0;stroke-opacity:1" id="path4279" cx="31.861" cy="1021.172" rx="23.947" ry="23.608"/><g id="g5198" transform="matrix(1.0951633,0,0,1.1177175,-1.5710414,-120.34999)"><path id="path4417" d="m 18.672336,1034.9315 c -0.0885,-2.4891 -0.47149,-3.7053 -0.96167,-6.1943 -2.94679,-0.7479 -6.42483,-4.216 -0.11314,-11.8794 0.19045,-1.8412 -0.10872,-3.6209 0.35255,-5.4037 0.28641,-1.1069 0.70416,-2.2824 0.98861,-2.582 0,0 16.714741,-0.6515 25.288034,0.624 0.589229,0.088 1.660877,0.5264 1.984205,0.8807 0.151398,0.1661 0.223136,1.6652 0.240697,1.885 1.042695,13.051 -7.217632,19.7543 -7.188339,22.6979 z" style="display:inline;fill:#f55;fill-opacity:1;fill-rule:evenodd;stroke:#000;stroke-width:.31999999;stroke-linecap:butt;stroke-linejoin:miter;stroke-miterlimit:4;stroke-dasharray:none;stroke-opacity:1"/><path id="path4419" d="m 17.555106,1016.9426 c 0.06227,-0 0.124679,-0 0.187217,-0 0.467067,-0.7264 0.870724,-1.5045 1.170423,-2.3006 -0.389506,0.7549 -0.874687,1.4738 -1.410169,2.1262 0.01787,0.059 0.03538,0.1191 0.05253,0.179 z" style="display:inline;fill:#000;fill-rule:evenodd;stroke:none;stroke-width:1px;stroke-linecap:butt;stroke-linejoin:miter;stroke-opacity:1"/><path id="path4423" d="m 17.503616,1028.6861 c 0.02897,0.059 0.0591,0.1171 0.09038,0.1758 0.725205,0.1248 1.671189,0.2439 2.62774,0.2094 1.013794,-0.037 2.032134,-0.2455 2.807178,-0.7937 -0.798903,0.501 -1.816873,0.6523 -2.808759,0.6361 -0.939583,-0.015 -1.862821,-0.1816 -2.563973,-0.3521 -0.05121,0.042 -0.102089,0.083 -0.152563,0.1245 z" style="display:inline;fill:#000;fill-rule:evenodd;stroke:none;stroke-width:1px;stroke-linecap:butt;stroke-linejoin:miter;stroke-opacity:1"/><path id="path4427" d="m 28.232416,1026.5593 c 2.529907,6.9519 15.92855,4.2255 12.075379,-5.686" style="display:inline;fill:none;fill-rule:evenodd;stroke:#000;stroke-width:.31999999;stroke-linecap:butt;stroke-linejoin:miter;stroke-miterlimit:4;stroke-dasharray:none;stroke-opacity:1"/><path id="path4429" d="m 28.277721,1026.6815 c 0.03261,-0.057 0.06644,-0.1121 0.101291,-0.1664 -0.439852,-0.9956 -0.491657,-2.3153 -0.501291,-3.3936 -0.09342,1.0506 -0.153636,2.4189 0.209752,3.5058 0.06348,0.02 0.126922,0.038 0.190248,0.054 z" style="display:inline;fill:#000;fill-rule:evenodd;stroke:none;stroke-width:1px;stroke-linecap:butt;stroke-linejoin:miter;stroke-opacity:1"/><path id="path4433" d="m 40.34272,1020.9516 c 0.04287,-0.038 0.08657,-0.074 0.131079,-0.1091 -0.382398,-0.8516 -0.0701,-1.7704 -0.362145,-3.5061 0.166809,1.6111 -0.224826,2.7245 0.05911,3.6201 0.0576,-10e-5 0.114918,-0 0.171958,-0 z" style="display:inline;fill:#000;fill-rule:evenodd;stroke:none;stroke-width:1px;stroke-linecap:butt;stroke-linejoin:miter;stroke-opacity:1"/><path id="path4437" d="m 40.567725,1021.5916 c 0.0326,-0.01 0.0652,-0.015 0.09781,-0.022 -0.224672,-1.2645 0.01986,-2.1914 0.578085,-2.9072 0.562656,-0.7214 1.443963,-1.228 2.4841,-1.6359 -1.046246,0.3746 -1.959202,0.855 -2.561927,1.5729 -0.605645,0.7214 -0.897788,1.6825 -0.697751,3.0027 0.03323,-0 0.06646,-0.01 0.09968,-0.011 z" style="display:inline;fill:#000;fill-rule:evenodd;stroke:none;stroke-width:1px;stroke-linecap:butt;stroke-linejoin:miter;stroke-opacity:1"/><path id="path4441" d="m 26.047456,1035.0021 c -2.2e-5,0 0.142942,-0.01 0.142921,-0.01 -0.09285,-1.246 -0.117226,-2.7026 0.161136,-3.7686 -0.372593,1.048 -0.445271,2.5132 -0.447132,3.779 2e-5,0 0.143055,-0 0.143075,-0 z" style="display:inline;fill:#000;fill-rule:evenodd;stroke:none;stroke-width:1px;stroke-linecap:butt;stroke-linejoin:miter;stroke-opacity:1"/><ellipse id="path4445" cx="-502.457" cy="894.159" rx="1.304" ry="1.615" transform="matrix(0.86369875,-0.50400841,0.50400841,0.86369875,0,0)" style="display:inline;opacity:1;fill:#ff2a2a;fill-opacity:1;stroke:#000;stroke-width:.064;stroke-linecap:butt;stroke-linejoin:miter;stroke-miterlimit:4;stroke-dasharray:none;stroke-dashoffset:0;stroke-opacity:1"/><ellipse id="path4445-0" cx="763.844" cy="687.661" rx="1.304" ry="1.615" transform="matrix(0.69488219,0.71912359,-0.71912359,0.69488219,0,0)" style="display:inline;opacity:1;fill:#ff2a2a;fill-opacity:1;stroke:#000;stroke-width:.05750851;stroke-linecap:butt;stroke-linejoin:miter;stroke-miterlimit:4;stroke-dasharray:none;stroke-dashoffset:0;stroke-opacity:1"/><path id="path4506" d="m 28.517721,1010.5966 c -0.732839,-0.1425 -1.317079,-0.9353 -1.726339,-1.6046 -0.03789,0 -0.07577,0.01 -0.113661,0.014 -0.01897,0.033 -0.03779,0.066 -0.05643,0.1 0.477535,0.6485 1.132917,1.4123 1.89643,1.4902 z" style="display:inline;fill:#000;fill-rule:evenodd;stroke:none;stroke-width:1px;stroke-linecap:butt;stroke-linejoin:miter;stroke-opacity:1"/><path id="path4510" d="m 21.177722,1009.2566 c 0.725607,-0.01 1.824541,0.089 2.901178,0.113 0.996052,0.022 1.988113,-0.016 2.635832,-0.2661 0.0381,-0.045 0.07256,-0.091 0.102989,-0.1366 -0.05481,-0 -0.109973,-0.01 -0.165093,-0.016 -0.606723,0.2618 -1.569131,0.3291 -2.572948,0.3332 -1.072354,0 -2.177335,-0.063 -2.901958,-0.028 z" style="display:inline;fill:#000;fill-rule:evenodd;stroke:none;stroke-width:1px;stroke-linecap:butt;stroke-linejoin:miter;stroke-opacity:1"/><path id="path4514" d="m 32.060217,1009.8341 c 0.02831,0.029 0.05666,0.058 0.08505,0.087 2.902077,0.013 5.736366,-0.2163 8.592451,-0.7648 -2.865702,0.492 -5.699176,0.6631 -8.589973,0.5928 -0.02912,0.028 -0.0583,0.056 -0.08753,0.085 z" style="display:inline;fill:#000;fill-rule:evenodd;stroke:none;stroke-width:1px;stroke-linecap:butt;stroke-linejoin:miter;stroke-opacity:1"/><path id="path4518" d="m 32.187725,1009.8341 -0.05199,-0.08 c -0.266901,0.2128 -0.526775,0.3401 -0.818014,0.5222 0.305428,-0.118 0.611146,-0.1973 0.921994,-0.3628 l -0.05199,-0.08 z" style="display:inline;fill:#000;fill-rule:evenodd;stroke:none;stroke-width:1px;stroke-linecap:butt;stroke-linejoin:miter;stroke-opacity:1"/><ellipse style="display:inline;opacity:1;fill:#ff2a2a;fill-opacity:1;stroke:#000;stroke-width:.03136;stroke-linecap:butt;stroke-linejoin:miter;stroke-miterlimit:4;stroke-dasharray:none;stroke-dashoffset:0;stroke-opacity:1" id="ellipse4556" cx="-502.852" cy="894.309" rx=".639" ry=".792" transform="matrix(0.86369875,-0.50400841,0.50400841,0.86369875,0,0)"/><ellipse style="display:inline;opacity:1;fill:#ff2a2a;fill-opacity:1;stroke:#000;stroke-width:.028;stroke-linecap:butt;stroke-linejoin:miter;stroke-miterlimit:4;stroke-dasharray:none;stroke-dashoffset:0;stroke-opacity:1" id="ellipse4558" cx="764.27" cy="687.857" rx=".639" ry=".792" transform="matrix(0.69488219,0.71912359,-0.71912359,0.69488219,0,0)"/></g><path style="fill:#f9f9f9;fill-opacity:1;fill-rule:evenodd;stroke:none;stroke-width:1px;stroke-linecap:butt;stroke-linejoin:miter;stroke-opacity:1" id="path4281" d="m 33.182662,1000.6875 c 8.461942,1.1166 16.42753,3.7425 20.24587,18.9804 -11.689625,-16.7044 -13.195655,-13.7536 -20.24587,-18.9804 z"/><path style="fill:#000;fill-opacity:.44859811;fill-rule:evenodd;stroke:none;stroke-width:1px;stroke-linecap:butt;stroke-linejoin:miter;stroke-opacity:1" id="path4283" d="m 42.086563,1042.0758 c -21.987729,9.2736 -40.5847709,-11.5345 -31.665685,-30.3782 0.167726,16.1371 12.615755,31.9922 31.665685,30.3782 z"/></g></svg>