<svg xmlns="http://www.w3.org/2000/svg" xmlns:svg="http://www.w3.org/2000/svg" id="svg4311" width="100%" height="100%" version="1.1" viewBox="0 0 64 64"><metadata id="metadata4316"/><g id="layer1" transform="translate(0,-988.36216)" style="display:inline"><ellipse style="fill:#ff8080;fill-opacity:1;stroke:#000;stroke-width:1;stroke-linecap:round;stroke-linejoin:round;stroke-miterlimit:4;stroke-dasharray:none;stroke-dashoffset:0;stroke-opacity:1" id="path4279" cx="31.861" cy="1021.172" rx="23.947" ry="23.608"/><path style="fill:#f9f9f9;fill-opacity:1;fill-rule:evenodd;stroke:none;stroke-width:1px;stroke-linecap:butt;stroke-linejoin:miter;stroke-opacity:1" id="path4281" d="m 33.182662,1000.6875 c 8.461942,1.1166 16.42753,3.7425 20.24587,18.9804 -11.689625,-16.7044 -13.195655,-13.7536 -20.24587,-18.9804 z"/><path style="fill:#000;fill-opacity:.44859811;fill-rule:evenodd;stroke:none;stroke-width:1px;stroke-linecap:butt;stroke-linejoin:miter;stroke-opacity:1" id="path4283" d="m 42.086563,1042.0758 c -21.987729,9.2736 -40.5847709,-11.5345 -31.665685,-30.3782 0.167726,16.1371 12.615755,31.9922 31.665685,30.3782 z"/><g id="g4245" transform="translate(-0.44194176,-0.88388349)"><path id="path4191" d="m 32.1875,1027.1454 a 14.279525,4.1857743 0 0 0 -14.279297,4.1855 14.279525,4.1857743 0 0 0 14.279297,4.1856 14.279525,4.1857743 0 0 0 14.279297,-4.1856 14.279525,4.1857743 0 0 0 -14.279297,-4.1855 z m -0.0625,1.6191 a 11.42362,2.5973184 0 0 1 11.423828,2.5977 11.42362,2.5973184 0 0 1 -11.423828,2.5976 11.42362,2.5973184 0 0 1 -11.423828,-2.5976 11.42362,2.5973184 0 0 1 11.423828,-2.5977 z" style="fill:#f55;fill-opacity:1;stroke:#000;stroke-width:1;stroke-linecap:round;stroke-linejoin:bevel;stroke-miterlimit:4;stroke-dasharray:none;stroke-dashoffset:0;stroke-opacity:1"/><path id="path4191-8" d="m 32.467555,1021.7679 a 14.279525,4.1857743 0 0 0 -14.279297,4.1855 14.279525,4.1857743 0 0 0 14.279297,4.1856 14.279525,4.1857743 0 0 0 14.279297,-4.1856 14.279525,4.1857743 0 0 0 -14.279297,-4.1855 z m -0.0625,1.6191 a 11.42362,2.5973184 0 0 1 11.423828,2.5977 11.42362,2.5973184 0 0 1 -11.423828,2.5976 11.42362,2.5973184 0 0 1 -11.423828,-2.5976 11.42362,2.5973184 0 0 1 11.423828,-2.5977 z" style="display:inline;fill:#f55;fill-opacity:1;stroke:#000;stroke-width:1;stroke-linecap:round;stroke-linejoin:bevel;stroke-miterlimit:4;stroke-dasharray:none;stroke-dashoffset:0;stroke-opacity:1"/><path id="path4191-6" d="m 32.386748,1016.2417 a 14.279525,4.1857743 0 0 0 -14.279297,4.1856 14.279525,4.1857743 0 0 0 14.279297,4.1855 14.279525,4.1857743 0 0 0 14.279297,-4.1855 14.279525,4.1857743 0 0 0 -14.279297,-4.1856 z m -0.0625,1.6192 a 11.42362,2.5973184 0 0 1 11.423828,2.5976 11.42362,2.5973184 0 0 1 -11.423828,2.5977 11.42362,2.5973184 0 0 1 -11.423828,-2.5977 11.42362,2.5973184 0 0 1 11.423828,-2.5976 z" style="display:inline;fill:#f55;fill-opacity:1;stroke:#000;stroke-width:1;stroke-linecap:round;stroke-linejoin:bevel;stroke-miterlimit:4;stroke-dasharray:none;stroke-dashoffset:0;stroke-opacity:1"/><path id="path4191-6-5" d="m 32.625002,1010.9266 a 14.279525,4.1857743 0 0 0 -14.279297,4.1856 14.279525,4.1857743 0 0 0 14.279297,4.1855 14.279525,4.1857743 0 0 0 14.279297,-4.1855 14.279525,4.1857743 0 0 0 -14.279297,-4.1856 z m -0.0625,1.6192 a 11.42362,2.5973184 0 0 1 11.423828,2.5976 11.42362,2.5973184 0 0 1 -11.423828,2.5977 11.42362,2.5973184 0 0 1 -11.423828,-2.5977 11.42362,2.5973184 0 0 1 11.423828,-2.5976 z" style="display:inline;fill:#f55;fill-opacity:1;stroke:#000;stroke-width:1;stroke-linecap:round;stroke-linejoin:bevel;stroke-miterlimit:4;stroke-dasharray:none;stroke-dashoffset:0;stroke-opacity:1"/></g></g></svg>