<svg xmlns="http://www.w3.org/2000/svg" xmlns:svg="http://www.w3.org/2000/svg" id="svg4311" width="100%" height="100%" version="1.1" viewBox="0 0 64 64"><metadata id="metadata4316"/><g id="layer1" transform="translate(0,-988.36216)" style="display:inline"><ellipse style="fill:#ff8080;fill-opacity:1;stroke:#000;stroke-width:1;stroke-linecap:round;stroke-linejoin:round;stroke-miterlimit:4;stroke-dasharray:none;stroke-dashoffset:0;stroke-opacity:1" id="path4279" cx="31.861" cy="1021.172" rx="23.947" ry="23.608"/><path style="fill:#f55;fill-rule:evenodd;stroke:#000;stroke-width:1px;stroke-linecap:butt;stroke-linejoin:miter;stroke-opacity:1" id="path4318" d="m 42.90389,1006.8255 -14.970323,0.099 c 0,0 9.699772,6.5799 9.907828,15.357 0.111572,4.7069 -2.011782,7.9142 -7.58544,8.208 -4.737157,0.2497 -6.41473,-3.3363 -6.46848,-5.3517 -0.0898,-3.3674 1.607869,-5.7577 4.848052,-5.8678 3.400882,-0.1155 4.323501,1.5571 4.312803,3.6585 -0.01714,3.367 3.317235,2.1186 3.383239,-0.1261 0.177723,-6.044 -4.60438,-8.3014 -7.980779,-8.5377 -6.719579,-0.4704 -11.442366,5.5803 -11.082809,11.2318 0.459379,7.2206 5.31062,12.6235 13.86384,12.6291 9.812293,0.01 15.775804,-7.6032 15.884802,-16.2334 0.06824,-5.8255 -1.185558,-9.8028 -4.112733,-15.0667 z"/><path style="fill:#f9f9f9;fill-opacity:1;fill-rule:evenodd;stroke:none;stroke-width:1px;stroke-linecap:butt;stroke-linejoin:miter;stroke-opacity:1" id="path4281" d="m 33.182662,1000.6875 c 8.461942,1.1166 16.42753,3.7425 20.24587,18.9804 -11.689625,-16.7044 -13.195655,-13.7536 -20.24587,-18.9804 z"/><path style="fill:#000;fill-opacity:.44859811;fill-rule:evenodd;stroke:none;stroke-width:1px;stroke-linecap:butt;stroke-linejoin:miter;stroke-opacity:1" id="path4283" d="m 42.086563,1042.0758 c -21.987729,9.2736 -40.5847709,-11.5345 -31.665685,-30.3782 0.167726,16.1371 12.615755,31.9922 31.665685,30.3782 z"/></g></svg>