<svg xmlns="http://www.w3.org/2000/svg" xmlns:svg="http://www.w3.org/2000/svg" id="svg4311" width="100%" height="100%" version="1.1" viewBox="0 0 64 64"><metadata id="metadata4316"/><g id="layer1" transform="translate(0,-988.36216)" style="display:inline"><ellipse style="fill:#ff8080;fill-opacity:1;stroke:#000;stroke-width:1;stroke-linecap:round;stroke-linejoin:round;stroke-miterlimit:4;stroke-dasharray:none;stroke-dashoffset:0;stroke-opacity:1" id="path4279" cx="31.861" cy="1021.172" rx="23.947" ry="23.608"/><path style="fill:#f9f9f9;fill-opacity:1;fill-rule:evenodd;stroke:none;stroke-width:1px;stroke-linecap:butt;stroke-linejoin:miter;stroke-opacity:1" id="path4281" d="m 33.182662,1000.6875 c 8.461942,1.1166 16.42753,3.7425 20.24587,18.9804 -11.689625,-16.7044 -13.195655,-13.7536 -20.24587,-18.9804 z"/><path style="fill:#000;fill-opacity:.44859811;fill-rule:evenodd;stroke:none;stroke-width:1px;stroke-linecap:butt;stroke-linejoin:miter;stroke-opacity:1" id="path4283" d="m 42.086563,1042.0758 c -21.987729,9.2736 -40.5847709,-11.5345 -31.665685,-30.3782 0.167726,16.1371 12.615755,31.9922 31.665685,30.3782 z"/><path style="fill:#ff2a2a;fill-opacity:1;fill-rule:evenodd;stroke:#000;stroke-width:.20277847;stroke-linecap:butt;stroke-linejoin:miter;stroke-miterlimit:4;stroke-dasharray:none;stroke-opacity:1" id="path4168" d="m 16.511092,1005.2933 c 1.554431,-1.234 9.201004,3.1157 10.281248,8.2286 1.204397,5.7005 -1.493463,6.2163 -1.030771,9.298 0.489366,3.2592 4.748367,5.3196 6.48016,5.7724 2.50151,0.6544 4.023307,-0.1303 8.113603,2.2571 -0.780395,-0.5078 -0.631667,-1.0935 -2.450113,-1.5145 4.835071,-0.905 8.395292,4.2237 9.979666,6.8142 -4.929515,-1.5845 -9.467201,-1.4863 -11.723932,-3.9262 1.495879,-0.031 1.872125,0.036 2.848906,-0.222 -2.12354,-1.8385 -4.932828,-1.1459 -7.351908,-1.8584 -2.596631,-0.7647 -7.245082,-2.9341 -8.260032,-7.0889 -0.84934,-3.4771 1.951565,-5.7117 1.033081,-9.2229 -1.08614,-4.1521 -9.521475,-7.2659 -7.919908,-8.5374 z"/><path style="fill:#000;fill-rule:evenodd;stroke:none;stroke-width:1px;stroke-linecap:butt;stroke-linejoin:miter;stroke-opacity:1" id="path4170" d="m 40.200547,1030.7505 c -0.01167,0.037 -0.02221,0.074 -0.0318,0.1118 0.262696,0.1531 0.475351,0.2208 0.825504,0.4331 0.318211,0.1929 0.641004,0.4553 0.839296,0.8528 -0.165661,-0.4165 -0.465809,-0.7131 -0.776125,-0.9461 -0.303076,-0.2275 -0.580551,-0.3725 -0.764961,-0.5213 -0.03018,0.024 -0.06086,0.047 -0.09192,0.07 z"/><path style="fill:#000;fill-rule:evenodd;stroke:none;stroke-width:1px;stroke-linecap:butt;stroke-linejoin:miter;stroke-opacity:1" id="path4174" d="m 38.790343,1031.856 c 0.04207,0.072 0.08906,0.1393 0.141656,0.2029 0.425192,0.2466 0.902569,0.2274 1.362769,0.1698 0.536541,-0.067 1.077558,-0.1923 1.551097,-0.062 -0.470338,-0.1595 -1.022069,-0.062 -1.55951,-0.024 -0.467343,0.034 -0.903074,0.02 -1.270715,-0.2206 -0.073,-0.014 -0.148269,-0.035 -0.225297,-0.067 z"/></g></svg>