<svg xmlns="http://www.w3.org/2000/svg" xmlns:svg="http://www.w3.org/2000/svg" id="svg4311" width="100%" height="100%" version="1.1" viewBox="0 0 64 64"><metadata id="metadata4316"/><g id="layer1" transform="translate(0,-988.36216)" style="display:inline"><ellipse style="fill:#ff8080;fill-opacity:1;stroke:#000;stroke-width:1;stroke-linecap:round;stroke-linejoin:round;stroke-miterlimit:4;stroke-dasharray:none;stroke-dashoffset:0;stroke-opacity:1" id="path4279" cx="31.861" cy="1021.172" rx="23.947" ry="23.608"/><g id="g4189" transform="matrix(0.95,0,0,0.95,1.8115275,51.073203)"><path id="path4138-8" d="m 20.731352,1007.7443 6.940747,7.5401 1.181548,-2.6648 1.161051,7.3639 -7.278164,-1.4802 2.785149,-1.0451 -6.786328,-7.7499 -1.191603,2.8125 -1.221978,-7.2659 7.257478,1.4706 z" style="display:inline;fill:#ff2a2a;fill-opacity:1;fill-rule:evenodd;stroke:#000;stroke-width:.57031864;stroke-linecap:butt;stroke-linejoin:miter;stroke-miterlimit:4;stroke-dasharray:none;stroke-opacity:1"/><path id="path4138-8-8" d="m 36.005058,1015.4199 7.5401,-6.9408 -2.6648,-1.1815 7.3638,-1.1611 -1.4802,7.2782 -1.0451,-2.7852 -7.7498,6.7863 2.8125,1.1917 -7.2659,1.2219 1.4706,-7.2574 z" style="display:inline;fill:#ff2a2a;fill-opacity:1;fill-rule:evenodd;stroke:#000;stroke-width:.57031864;stroke-linecap:butt;stroke-linejoin:miter;stroke-miterlimit:4;stroke-dasharray:none;stroke-opacity:1"/><path id="path4138-8-84" d="m 42.890904,1035.1838 -6.9407,-7.5401 -1.1816,2.6648 -1.161,-7.3638 7.2781,1.4802 -2.7851,1.0451 6.7863,7.7498 1.1916,-2.8125 1.222,7.2659 -7.2575,-1.4706 z" style="display:inline;fill:#ff2a2a;fill-opacity:1;fill-rule:evenodd;stroke:#000;stroke-width:.57031864;stroke-linecap:butt;stroke-linejoin:miter;stroke-miterlimit:4;stroke-dasharray:none;stroke-opacity:1"/><path id="path4138-8-8-1" d="m 27.617204,1027.5082 -7.5401,6.9408 2.6648,1.1815 -7.3638,1.1611 1.4802,-7.2782 1.0451,2.7852 7.7498,-6.7862 -2.8125,-1.1917 7.2659,-1.2219 -1.4706,7.2573 z" style="display:inline;fill:#ff2a2a;fill-opacity:1;fill-rule:evenodd;stroke:#000;stroke-width:.57031864;stroke-linecap:butt;stroke-linejoin:miter;stroke-miterlimit:4;stroke-dasharray:none;stroke-opacity:1"/></g><path style="fill:#f9f9f9;fill-opacity:1;fill-rule:evenodd;stroke:none;stroke-width:1px;stroke-linecap:butt;stroke-linejoin:miter;stroke-opacity:1" id="path4281" d="m 33.182662,1000.6875 c 8.461942,1.1166 16.42753,3.7425 20.24587,18.9804 -11.689625,-16.7044 -13.195655,-13.7536 -20.24587,-18.9804 z"/><path style="fill:#000;fill-opacity:.44859811;fill-rule:evenodd;stroke:none;stroke-width:1px;stroke-linecap:butt;stroke-linejoin:miter;stroke-opacity:1" id="path4283" d="m 42.086563,1042.0758 c -21.987729,9.2736 -40.5847709,-11.5345 -31.665685,-30.3782 0.167726,16.1371 12.615755,31.9922 31.665685,30.3782 z"/></g></svg>