<svg xmlns="http://www.w3.org/2000/svg" xmlns:svg="http://www.w3.org/2000/svg" id="svg4311" width="100%" height="100%" version="1.1" viewBox="0 0 64 64"><metadata id="metadata4316"/><g id="layer1" transform="translate(0,-988.36216)" style="display:inline"><ellipse style="fill:#ff8080;fill-opacity:1;stroke:#000;stroke-width:1;stroke-linecap:round;stroke-linejoin:round;stroke-miterlimit:4;stroke-dasharray:none;stroke-dashoffset:0;stroke-opacity:1" id="path4279" cx="31.861" cy="1021.172" rx="23.947" ry="23.608"/><path style="fill:#f9f9f9;fill-opacity:1;fill-rule:evenodd;stroke:none;stroke-width:1px;stroke-linecap:butt;stroke-linejoin:miter;stroke-opacity:1" id="path4281" d="m 33.182662,1000.6875 c 8.461942,1.1166 16.42753,3.7425 20.24587,18.9804 -11.689625,-16.7044 -13.195655,-13.7536 -20.24587,-18.9804 z"/><path style="fill:#000;fill-opacity:.44859811;fill-rule:evenodd;stroke:none;stroke-width:1px;stroke-linecap:butt;stroke-linejoin:miter;stroke-opacity:1" id="path4283" d="m 42.086563,1042.0758 c -21.987729,9.2736 -40.5847709,-11.5345 -31.665685,-30.3782 0.167726,16.1371 12.615755,31.9922 31.665685,30.3782 z"/><g id="g4181" transform="matrix(0.531441,0,0,0.531441,71.570245,457.93526)"><path id="path4141" d="m -74.89521,1093.525 c -13.241415,-12.5939 -23.104559,-28.9499 -22.94652,-49.4283 3.162063,-0.046 14.502208,-5.5034 22.865475,-11.7706 8.871167,6.1191 19.567934,11.2427 22.559522,11.5014 0.04103,20.6169 -9.25328,36.1747 -22.478477,49.6975 z" style="display:inline;fill:#ff2a2a;fill-rule:evenodd;stroke:#000;stroke-width:1px;stroke-linecap:butt;stroke-linejoin:miter;stroke-opacity:1"/><path id="path4163-2-4" d="m -74.039809,1033.8548 c 9.601544,5.5843 11.366012,7.7091 20.844796,10.7909 -9.266759,-0.968 -14.263969,-3.8842 -20.844796,-10.7909 z" style="display:inline;fill:#fff;fill-opacity:.78504675;fill-rule:evenodd;stroke:none;stroke-width:1px;stroke-linecap:butt;stroke-linejoin:miter;stroke-opacity:1"/><path id="path4163-2-4-1" d="m -97.622925,1044.3525 c 3.70386,-0.9486 16.198598,-7.3358 22.592193,-11.8054 -0.05376,10.7522 0.584636,40.8165 0.207783,61.302 -20.57462,-21.586 -22.855419,-38.9526 -22.799976,-49.4966 z" style="display:inline;fill:#000;fill-opacity:.14953272;fill-rule:evenodd;stroke:none;stroke-width:1px;stroke-linecap:butt;stroke-linejoin:miter;stroke-opacity:1"/></g></g></svg>