<svg xmlns="http://www.w3.org/2000/svg" xmlns:svg="http://www.w3.org/2000/svg" id="svg4311" width="100%" height="100%" version="1.1" viewBox="0 0 64 64"><metadata id="metadata4316"/><g id="layer1" transform="translate(0,-988.36216)" style="display:inline"><ellipse style="fill:#ff8080;fill-opacity:1;stroke:#000;stroke-width:1;stroke-linecap:round;stroke-linejoin:round;stroke-miterlimit:4;stroke-dasharray:none;stroke-dashoffset:0;stroke-opacity:1" id="path4279" cx="31.861" cy="1021.172" rx="23.947" ry="23.608"/><ellipse style="display:inline;fill:#faa;fill-opacity:1;stroke:#000;stroke-width:.44570759;stroke-linecap:round;stroke-miterlimit:4;stroke-dasharray:none" id="path4156-2-1-1-7" cx="553.011" cy="887.55" rx="3.51" ry="3.646" transform="matrix(0.87325111,0.48727046,-0.50826,0.86120368,0,0)"/><path style="fill:#f9f9f9;fill-opacity:1;fill-rule:evenodd;stroke:none;stroke-width:1px;stroke-linecap:butt;stroke-linejoin:miter;stroke-opacity:1" id="path4281" d="m 33.182662,1000.6875 c 8.461942,1.1166 16.42753,3.7425 20.24587,18.9804 -11.689625,-16.7044 -13.195655,-13.7536 -20.24587,-18.9804 z"/><path style="fill:#000;fill-opacity:.44859811;fill-rule:evenodd;stroke:none;stroke-width:1px;stroke-linecap:butt;stroke-linejoin:miter;stroke-opacity:1" id="path4283" d="m 42.086563,1042.0758 c -21.987729,9.2736 -40.5847709,-11.5345 -31.665685,-30.3782 0.167726,16.1371 12.615755,31.9922 31.665685,30.3782 z"/><ellipse style="display:inline;fill:#f55;fill-opacity:1;stroke:#000;stroke-width:.50005388;stroke-linecap:round;stroke-miterlimit:4;stroke-dasharray:none" id="path4156-2-1-1-7-9" cx="545.141" cy="875.378" rx="4.704" ry="4.828" transform="matrix(0.87234437,0.4888919,-0.50689298,0.86200899,0,0)"/><ellipse style="display:inline;fill:#faa;fill-opacity:1;stroke:#000;stroke-width:.44057348;stroke-linecap:round;stroke-miterlimit:4;stroke-dasharray:none" id="path4156-2-1-1-7-7" cx="537.45" cy="863.432" rx="3.51" ry="3.562" transform="matrix(0.87148834,0.49041623,-0.50557469,0.86278284,0,0)"/></g></svg>