<svg xmlns="http://www.w3.org/2000/svg" xmlns:svg="http://www.w3.org/2000/svg" id="svg4311" width="100%" height="100%" version="1.1" viewBox="0 0 64 64"><metadata id="metadata4316"/><g id="layer1" transform="translate(0,-988.36216)" style="display:inline"><ellipse style="fill:#ff8080;fill-opacity:1;stroke:#000;stroke-width:1;stroke-linecap:round;stroke-linejoin:round;stroke-miterlimit:4;stroke-dasharray:none;stroke-dashoffset:0;stroke-opacity:1" id="path4279" cx="31.861" cy="1021.172" rx="23.947" ry="23.608"/><g id="g4157" transform="translate(0.53033011,0.53033011)"><path id="path4175-7-2-1-1" d="m 23.699181,1033.6367 20.200694,-8.5525" style="display:inline;fill:none;fill-rule:evenodd;stroke:#000;stroke-width:.54697782;stroke-linecap:butt;stroke-linejoin:miter;stroke-miterlimit:4;stroke-dasharray:.54697781,4.37582249;stroke-dashoffset:0;stroke-opacity:1"/><path id="path4173-2-7-4-1" d="m 30.51161,1008.1184 -12.579563,18.7402" style="display:inline;fill:none;fill-rule:evenodd;stroke:#000;stroke-width:.54697782;stroke-linecap:butt;stroke-linejoin:miter;stroke-miterlimit:4;stroke-dasharray:.54697782,4.37582254;stroke-dashoffset:2.62549353;stroke-opacity:1"/><ellipse id="path4156-2-1-1-7" cx="-45.307" cy="1029.448" rx="4.494" ry="4.289" transform="matrix(0.99794033,-0.06414896,0.06414896,0.99794033,0,0)" style="display:inline;fill:#faa;fill-opacity:1;stroke:#000;stroke-width:.54697782;stroke-linecap:round;stroke-miterlimit:4;stroke-dasharray:none"/><ellipse id="path4156-6-9-3-8-3" cx="-28.069" cy="1016.917" rx="11.066" ry="10.793" transform="matrix(0.99794033,-0.06414896,0.06414896,0.99794033,0,0)" style="display:inline;fill:#f55;fill-opacity:1;stroke:#000;stroke-width:.54697782;stroke-linecap:round;stroke-miterlimit:4;stroke-dasharray:none"/><path id="path4181-1-4" d="m 23.837775,1029.4345 c 0.102734,0.5675 0.115001,1.1519 0.03908,1.7462 l -6.049551,0.097 c -0.101814,-0.5954 -0.09126,-1.1829 -0.01404,-1.766 z" style="display:inline;fill:#ffd5d5;fill-opacity:1;fill-rule:evenodd;stroke:#000;stroke-width:.5;stroke-linecap:butt;stroke-linejoin:miter;stroke-miterlimit:4;stroke-dasharray:none;stroke-opacity:1"/><path id="path4181-5" d="m 35.103288,1007.7366 c 1.378141,-0.2436 2.795724,-0.2729 4.269294,-10e-4 l 0.02786,6.598 6.476816,-0.052 c 0.283141,1.385 0.304766,2.8101 0.07156,4.2575 l -6.46464,0.016 0.06422,6.5739 c -1.413626,0.1997 -2.845846,0.3044 -4.354174,0.023 l 0.02049,-6.5373 -6.731568,0.039 c -0.279818,-1.4536 -0.235436,-2.8859 0.0013,-4.3057 l 6.719254,-0.047 z" style="display:inline;fill:#ff2a2a;fill-opacity:1;fill-rule:evenodd;stroke:#000;stroke-width:.5;stroke-linecap:butt;stroke-linejoin:miter;stroke-miterlimit:4;stroke-dasharray:none;stroke-opacity:1"/></g><path style="fill:#f9f9f9;fill-opacity:1;fill-rule:evenodd;stroke:none;stroke-width:1px;stroke-linecap:butt;stroke-linejoin:miter;stroke-opacity:1" id="path4281" d="m 33.182662,1000.6875 c 8.461942,1.1166 16.42753,3.7425 20.24587,18.9804 -11.689625,-16.7044 -13.195655,-13.7536 -20.24587,-18.9804 z"/><path style="fill:#000;fill-opacity:.44859811;fill-rule:evenodd;stroke:none;stroke-width:1px;stroke-linecap:butt;stroke-linejoin:miter;stroke-opacity:1" id="path4283" d="m 42.086563,1042.0758 c -21.987729,9.2736 -40.5847709,-11.5345 -31.665685,-30.3782 0.167726,16.1371 12.615755,31.9922 31.665685,30.3782 z"/></g></svg>