<svg xmlns="http://www.w3.org/2000/svg" xmlns:svg="http://www.w3.org/2000/svg" id="svg4311" width="100%" height="100%" version="1.1" viewBox="0 0 64 64"><metadata id="metadata4316"/><g id="layer1" transform="translate(0,-988.36216)" style="display:inline"><ellipse style="fill:#ff8080;fill-opacity:1;stroke:#000;stroke-width:1;stroke-linecap:round;stroke-linejoin:round;stroke-miterlimit:4;stroke-dasharray:none;stroke-dashoffset:0;stroke-opacity:1" id="path4279" cx="31.861" cy="1021.172" rx="23.947" ry="23.608"/><path style="fill:#f9f9f9;fill-opacity:1;fill-rule:evenodd;stroke:none;stroke-width:1px;stroke-linecap:butt;stroke-linejoin:miter;stroke-opacity:1" id="path4281" d="m 33.182662,1000.6875 c 8.461942,1.1166 16.42753,3.7425 20.24587,18.9804 -11.689625,-16.7044 -13.195655,-13.7536 -20.24587,-18.9804 z"/><path style="fill:#000;fill-opacity:.44859811;fill-rule:evenodd;stroke:none;stroke-width:1px;stroke-linecap:butt;stroke-linejoin:miter;stroke-opacity:1" id="path4283" d="m 42.086563,1042.0758 c -21.987729,9.2736 -40.5847709,-11.5345 -31.665685,-30.3782 0.167726,16.1371 12.615755,31.9922 31.665685,30.3782 z"/><g id="g4266" transform="matrix(2.3579477,0,0,2.3579477,87.242882,-1425.9657)" style="fill:#ff2a2a"><path style="fill:#ff2a2a;fill-opacity:1;fill-rule:evenodd;stroke:#000;stroke-width:.29633114px;stroke-linecap:butt;stroke-linejoin:miter;stroke-miterlimit:4;stroke-dasharray:none;stroke-opacity:1" id="path4141" d="m -22.35213,1040.6069 c 0.08467,1.8838 -1.185334,1.1007 -2.878639,3.8312 -0.635,0.6773 -1.926167,-0.127 -1.778,-0.5715 0.402167,-0.5715 0.508,-1.1219 0.6985,-1.7145 -2.666983,0.9948 -3.915808,-2.0743 -3.428977,-2.794 0.23283,-1.1853 7.006116,-0.4445 7.387116,1.2488 z"/><path style="fill:#ff2a2a;fill-opacity:1;fill-rule:evenodd;stroke:#000;stroke-width:.29633114px;stroke-linecap:butt;stroke-linejoin:miter;stroke-miterlimit:4;stroke-dasharray:none;stroke-opacity:1" id="path4143" d="m -23.516297,1032.0133 c 0.804333,-0.508 1.756833,-0.2963 2.053167,-0.042 0.338666,-0.127 0.931305,0.127 1.164138,0.5503 2.243667,0.4869 2.899833,1.3124 2.921,2.2014 1.037138,0.8043 0.973638,2.0531 0.529138,2.6034 -0.1905,1.6722 -0.867805,2.2649 -1.756805,2.286 -0.740833,0.5504 -1.799166,0.4234 -2.0955,0.063 -0.825471,1.1219 -2.116638,0.9314 -2.539971,0.6985 -1.672139,0.2752 -3.047972,0.2329 -3.344306,-0.8678 -0.994833,0.381 -1.968485,0.1693 -2.116652,-0.063 -1.82032,0.4868 -1.926153,-1.5028 -1.608656,-2.1378 -0.550328,-1.4182 0.550331,-2.3707 0.973661,-2.4765 -0.42333,-0.8255 0.761995,-1.524 1.523989,-1.1853 0,-0.8679 0.888992,-1.3759 1.206492,-1.1219 0.592666,-1.3546 2.476472,-1.1218 3.090305,-0.508 z"/><path style="fill:#ff2a2a;fill-opacity:1;fill-rule:evenodd;stroke:none" id="path4145" d="m -26.352602,1042.3002 c 0.465666,-0.6773 0.5715,-1.3335 0.592666,-1.9896 z"/><path style="fill:#ff2a2a;stroke:#000;stroke-width:.29633114px;stroke-linecap:butt;stroke-linejoin:miter;stroke-miterlimit:4;stroke-dasharray:none;stroke-opacity:1" id="path4147" d="m -26.352602,1042.3002 c 0.465666,-0.6773 0.5715,-1.3335 0.592666,-1.9896"/><path style="fill:#ff2a2a;fill-opacity:1;fill-rule:evenodd;stroke:none" id="path4149" d="m -20.701159,1039.6968 c -0.486805,-0.6139 -0.529138,-0.7832 -0.592638,-1.1854 z"/><path style="fill:#ff2a2a;stroke:#000;stroke-width:.29633114px;stroke-linecap:butt;stroke-linejoin:miter;stroke-miterlimit:4;stroke-dasharray:none;stroke-opacity:1" id="path4151" d="m -20.701159,1039.6968 c -0.486805,-0.6139 -0.529138,-0.7832 -0.592638,-1.1854"/><path style="fill:#ff2a2a;fill-opacity:1;fill-rule:evenodd;stroke:none" id="path4153" d="m -16.827687,1037.2414 c -0.550305,-0.5714 -1.015972,-0.1058 -1.312305,0 z"/><path style="fill:#ff2a2a;stroke:#000;stroke-width:.29633114px;stroke-linecap:butt;stroke-linejoin:miter;stroke-miterlimit:4;stroke-dasharray:none;stroke-opacity:1" id="path4155" d="m -16.827687,1037.2414 c -0.550305,-0.5714 -1.015972,-0.1058 -1.312305,0"/><path style="fill:#ff2a2a;fill-opacity:1;fill-rule:evenodd;stroke:none" id="path4157" d="m -17.356825,1034.7438 c -0.402167,1.7145 -3.026834,0.2328 -3.873472,1.3758 z"/><path style="fill:#ff2a2a;stroke:#000;stroke-width:.29633114px;stroke-linecap:butt;stroke-linejoin:miter;stroke-miterlimit:4;stroke-dasharray:none;stroke-opacity:1" id="path4159" d="m -17.356825,1034.7438 c -0.402167,1.7145 -3.026834,0.2328 -3.873472,1.3758"/><path style="fill:#ff2a2a;fill-opacity:1;fill-rule:evenodd;stroke:none" id="path4161" d="m -19.367659,1035.654 c -0.402166,-0.1905 -0.9525,-0.2964 -0.973666,-0.6985 z"/><path style="fill:#ff2a2a;stroke:#000;stroke-width:.29633114px;stroke-linecap:butt;stroke-linejoin:miter;stroke-miterlimit:4;stroke-dasharray:none;stroke-opacity:1" id="path4163" d="m -19.367659,1035.654 c -0.402166,-0.1905 -0.9525,-0.2964 -0.973666,-0.6985"/><path style="fill:#ff2a2a;fill-opacity:1;fill-rule:evenodd;stroke:none" id="path4165" d="m -20.320159,1032.4578 c -1.164138,0.5292 -0.994805,1.4605 -0.592666,2.0108 z"/><path style="fill:#ff2a2a;stroke:#000;stroke-width:.29633114px;stroke-linecap:butt;stroke-linejoin:miter;stroke-miterlimit:4;stroke-dasharray:none;stroke-opacity:1" id="path4167" d="m -20.320159,1032.4578 c -1.164138,0.5292 -0.994805,1.4605 -0.592666,2.0108"/><path style="fill:#ff2a2a;fill-opacity:1;fill-rule:evenodd;stroke:none" id="path4169" d="m -21.20913,1033.7066 c -0.0635,0.085 -0.4445,0.4022 -0.8255,0.2752 z"/><path style="fill:#ff2a2a;stroke:#000;stroke-width:.29633114px;stroke-linecap:butt;stroke-linejoin:miter;stroke-miterlimit:4;stroke-dasharray:none;stroke-opacity:1" id="path4171" d="m -21.20913,1033.7066 c -0.0635,0.085 -0.4445,0.4022 -0.8255,0.2752"/><path style="fill:#ff2a2a;fill-opacity:1;fill-rule:evenodd;stroke:none" id="path4173" d="m -23.473964,1031.9498 c 0.148167,0.2964 -0.550333,3.3232 0.486834,3.4502 z"/><path style="fill:#ff2a2a;stroke:#000;stroke-width:.29633114px;stroke-linecap:butt;stroke-linejoin:miter;stroke-miterlimit:4;stroke-dasharray:none;stroke-opacity:1" id="path4175" d="m -23.473964,1031.9498 c 0.148167,0.2964 -0.550333,3.3232 0.486834,3.4502"/><path style="fill:#ff2a2a;fill-opacity:1;fill-rule:evenodd;stroke:none" id="path4177" d="m -23.600964,1033.7701 c -0.613833,-0.021 -0.719666,0.1694 -0.8255,0.4657 z"/><path style="fill:#ff2a2a;stroke:#000;stroke-width:.29633114px;stroke-linecap:butt;stroke-linejoin:miter;stroke-miterlimit:4;stroke-dasharray:none;stroke-opacity:1" id="path4179" d="m -23.600964,1033.7701 c -0.613833,-0.021 -0.719666,0.1694 -0.8255,0.4657"/><path style="fill:#ff2a2a;fill-opacity:1;fill-rule:evenodd;stroke:none" id="path4181" d="m -26.606602,1032.5213 c -0.423334,1.016 0.910166,1.905 0.910166,1.905 z"/><path style="fill:#ff2a2a;stroke:#000;stroke-width:.29633114px;stroke-linecap:butt;stroke-linejoin:miter;stroke-miterlimit:4;stroke-dasharray:none;stroke-opacity:1" id="path4183" d="m -26.606602,1032.5213 c -0.423334,1.016 0.910166,1.905 0.910166,1.905"/><path style="fill:#ff2a2a;fill-opacity:1;fill-rule:evenodd;stroke:none" id="path4185" d="m -27.770769,1033.7701 c -0.740819,0.889 0.740833,1.6722 1.058333,1.2489 z"/><path style="fill:#ff2a2a;stroke:#000;stroke-width:.29633114px;stroke-linecap:butt;stroke-linejoin:miter;stroke-miterlimit:4;stroke-dasharray:none;stroke-opacity:1" id="path4187" d="m -27.770769,1033.7701 c -0.740819,0.889 0.740833,1.6722 1.058333,1.2489"/><path style="fill:#ff2a2a;fill-opacity:1;fill-rule:evenodd;stroke:none" id="path4189" d="m -27.791927,1034.6803 c -0.08467,0.3387 -0.359831,0.4657 -0.0635,1.2065 z"/><path style="fill:#ff2a2a;stroke:#000;stroke-width:.29633114px;stroke-linecap:butt;stroke-linejoin:miter;stroke-miterlimit:4;stroke-dasharray:none;stroke-opacity:1" id="path4191" d="m -27.791927,1034.6803 c -0.08467,0.3387 -0.359831,0.4657 -0.0635,1.2065"/><path style="fill:#ff2a2a;fill-opacity:1;fill-rule:evenodd;stroke:none" id="path4193" d="m -30.374242,1037.1356 c 0.380996,0.4868 1.883818,-0.063 1.883818,-0.063 z"/><path style="fill:#ff2a2a;stroke:#000;stroke-width:.29633114px;stroke-linecap:butt;stroke-linejoin:miter;stroke-miterlimit:4;stroke-dasharray:none;stroke-opacity:1" id="path4195" d="m -30.374242,1037.1356 c 0.380996,0.4868 1.883818,-0.063 1.883818,-0.063"/><path style="fill:#ff2a2a;fill-opacity:1;fill-rule:evenodd;stroke:none" id="path4197" d="m -28.702088,1039.4428 c 0.973652,-0.2752 0.719661,-1.3759 0.719661,-1.3759 z"/><path style="fill:#ff2a2a;stroke:#000;stroke-width:.29633114px;stroke-linecap:butt;stroke-linejoin:miter;stroke-miterlimit:4;stroke-dasharray:none;stroke-opacity:1" id="path4199" d="m -28.702088,1039.4428 c 0.973652,-0.2752 0.719661,-1.3759 0.719661,-1.3759"/><path style="fill:#ff2a2a;fill-opacity:1;fill-rule:evenodd;stroke:none" id="path4201" d="m -26.077436,1040.2048 c 1.143,-0.254 0.973667,-0.8255 0.846667,-1.2277 z"/><path style="fill:#ff2a2a;stroke:#000;stroke-width:.29633114px;stroke-linecap:butt;stroke-linejoin:miter;stroke-miterlimit:4;stroke-dasharray:none;stroke-opacity:1" id="path4203" d="m -26.077436,1040.2048 c 1.143,-0.254 0.973667,-0.8255 0.846667,-1.2277"/><path style="fill:#ff2a2a;fill-opacity:1;fill-rule:evenodd;stroke:none" id="path4205" d="m -23.36813,1040.3953 c 0.296333,-1.5452 -0.4445,-1.7357 -0.4445,-1.7357 z"/><path style="fill:#ff2a2a;stroke:#000;stroke-width:.29633114px;stroke-linecap:butt;stroke-linejoin:miter;stroke-miterlimit:4;stroke-dasharray:none;stroke-opacity:1" id="path4207" d="m -23.36813,1040.3953 c 0.296333,-1.5452 -0.4445,-1.7357 -0.4445,-1.7357"/><path style="fill:#ff2a2a;fill-opacity:1;fill-rule:evenodd;stroke:none" id="path4209" d="m -24.235964,1035.6963 c 0.275167,0.6985 -1.015972,1.2488 0.867834,2.1378 z"/><path style="fill:#ff2a2a;stroke:#000;stroke-width:.29633114px;stroke-linecap:butt;stroke-linejoin:miter;stroke-miterlimit:4;stroke-dasharray:none;stroke-opacity:1" id="path4211" d="m -24.235964,1035.6963 c 0.275167,0.6985 -1.015972,1.2488 0.867834,2.1378"/><path style="fill:#ff2a2a;fill-opacity:1;fill-rule:evenodd;stroke:none" id="path4213" d="m -24.38413,1036.543 c -0.423334,0.6773 -0.698472,0.7831 -0.931306,0.8043 z"/><path style="fill:#ff2a2a;stroke:#000;stroke-width:.29633114px;stroke-linecap:butt;stroke-linejoin:miter;stroke-miterlimit:4;stroke-dasharray:none;stroke-opacity:1" id="path4215" d="m -24.38413,1036.543 c -0.423334,0.6773 -0.698472,0.7831 -0.931306,0.8043"/><path style="fill:#ff2a2a;fill-opacity:1;fill-rule:evenodd;stroke:none" id="path4217" d="m -18.605659,1038.4479 c -0.846666,-1.1853 -1.735666,-0.254 -2.857471,-1.1006 z"/><path style="fill:#ff2a2a;stroke:#000;stroke-width:.29633114px;stroke-linecap:butt;stroke-linejoin:miter;stroke-miterlimit:4;stroke-dasharray:none;stroke-opacity:1" id="path4219" d="m -18.605659,1038.4479 c -0.846666,-1.1853 -1.735666,-0.254 -2.857471,-1.1006"/></g></g></svg>