<svg xmlns="http://www.w3.org/2000/svg" xmlns:svg="http://www.w3.org/2000/svg" id="svg4311" width="100%" height="100%" version="1.1" viewBox="0 0 64 64"><metadata id="metadata4316"/><g id="layer1" transform="translate(0,-988.36216)" style="display:inline"><ellipse style="fill:#ff8080;fill-opacity:1;stroke:#000;stroke-width:1;stroke-linecap:round;stroke-linejoin:round;stroke-miterlimit:4;stroke-dasharray:none;stroke-dashoffset:0;stroke-opacity:1" id="path4279" cx="31.861" cy="1021.172" rx="23.947" ry="23.608"/><path style="fill:#f9f9f9;fill-opacity:1;fill-rule:evenodd;stroke:none;stroke-width:1px;stroke-linecap:butt;stroke-linejoin:miter;stroke-opacity:1" id="path4281" d="m 33.182662,1000.6875 c 8.461942,1.1166 16.42753,3.7425 20.24587,18.9804 -11.689625,-16.7044 -13.195655,-13.7536 -20.24587,-18.9804 z"/><path style="fill:#000;fill-opacity:.44859811;fill-rule:evenodd;stroke:none;stroke-width:1px;stroke-linecap:butt;stroke-linejoin:miter;stroke-opacity:1" id="path4283" d="m 42.086563,1042.0758 c -21.987729,9.2736 -40.5847709,-11.5345 -31.665685,-30.3782 0.167726,16.1371 12.615755,31.9922 31.665685,30.3782 z"/><path style="display:inline;fill:#ff2a2a;fill-opacity:1;fill-rule:evenodd;stroke:#000;stroke-width:.623622;stroke-linecap:butt;stroke-linejoin:miter;stroke-miterlimit:4;stroke-dasharray:none;stroke-opacity:1" id="path4180" d="m 51.016452,1031.1524 c -12.012192,-4.7231 -14.540571,-10.4215 -9.865055,-17.9291 -8.274406,-7.2563 -23.264542,-6.2927 -29.677037,-1.5798 7.46612,-1.021 11.46761,6.5755 8.227706,9.9934 3.897741,-0.1265 10.649178,2.8822 10.438128,6.9437 4.847351,-0.4211 8.299572,2.4685 8.718909,5.6581 2.743468,-2.7005 6.597988,-1.5789 8.1049,-0.1837 -0.771871,-2.2536 0.933514,-3.744 4.052449,-2.9026 z"/><path style="display:inline;fill:none;fill-rule:evenodd;stroke:#000;stroke-width:.35099953;stroke-linecap:butt;stroke-linejoin:miter;stroke-miterlimit:4;stroke-dasharray:none;stroke-opacity:1" id="path4206" d="m 41.192332,1013.2233 c -6.908445,-0.111 -17.963599,3.7562 -21.162795,8.2298"/><path style="display:inline;fill:none;fill-rule:evenodd;stroke:#000;stroke-width:.35099953;stroke-linecap:butt;stroke-linejoin:miter;stroke-miterlimit:4;stroke-dasharray:none;stroke-opacity:1" id="path4208" d="m 40.905796,1013.6643 c -5.133899,3.8833 -8.184491,9.435 -10.479064,14.6591"/><path style="display:inline;fill:none;fill-rule:evenodd;stroke:#000;stroke-width:.35099953;stroke-linecap:butt;stroke-linejoin:miter;stroke-miterlimit:4;stroke-dasharray:none;stroke-opacity:1" id="path4210" d="m 38.94097,1033.8712 c -0.383318,-3.2479 -3.183388,-12.8893 2.141401,-20.5644"/><path style="display:inline;fill:none;fill-rule:evenodd;stroke:#000;stroke-width:.35099953;stroke-linecap:butt;stroke-linejoin:miter;stroke-miterlimit:4;stroke-dasharray:none;stroke-opacity:1" id="path4212" d="M 46.636531,1033.6875 C 43.549967,1026.5 35.257659,1023.3933 40.782992,1013.9582"/></g></svg>