<svg xmlns="http://www.w3.org/2000/svg" xmlns:svg="http://www.w3.org/2000/svg" id="svg4311" width="100%" height="100%" version="1.1" viewBox="0 0 64 64"><metadata id="metadata4316"/><g id="layer1" transform="translate(0,-988.36216)" style="display:inline"><ellipse style="fill:#ff8080;fill-opacity:1;stroke:#000;stroke-width:1;stroke-linecap:round;stroke-linejoin:round;stroke-miterlimit:4;stroke-dasharray:none;stroke-dashoffset:0;stroke-opacity:1" id="path4279" cx="31.861" cy="1021.172" rx="23.947" ry="23.608"/><path style="fill:#ffd5d5;fill-rule:evenodd;stroke:none;stroke-width:1px;stroke-linecap:butt;stroke-linejoin:miter;stroke-opacity:1" id="path4280" d="m 35.39815,1034.5649 c -5.399068,0.024 -11.526091,-0.2971 -15.610653,-4.441 l -3.030307,-7.1147 c 7.772647,-16.2142 24.271219,-15.831 30.486691,-5.6646 0.148481,10.0627 -3.641088,16.9231 -11.845731,17.2203 z"/><ellipse style="fill:#000;fill-opacity:1;stroke:#000;stroke-width:.35445574;stroke-miterlimit:4;stroke-dasharray:none" id="path4274" cx="33.368" cy="1023.559" rx="9.323" ry="11.028"/><path style="fill:#000;fill-rule:evenodd;stroke:#000;stroke-width:.36491254;stroke-linecap:butt;stroke-linejoin:miter;stroke-miterlimit:4;stroke-dasharray:none;stroke-opacity:1" id="path4236" d="m 17.23203,1024.8406 -2.856997,0.7049 c 4.450668,-14.4201 20.962827,-22.868 31.629178,-12.2793 l 1.509584,4.5605 c -5.252915,-7.4838 -14.072949,-7.3524 -20.392795,-4.2274 -5.816302,2.8761 -9.341089,8.3562 -9.88897,11.2413 z"/><path style="fill:#000;fill-rule:evenodd;stroke:none;stroke-width:1px;stroke-linecap:butt;stroke-linejoin:miter;stroke-opacity:1" id="path4238" d="m 15.06577,1024.1595 c -0.286307,0.1379 -0.889332,0.1902 -1.469606,0.1751 -0.574958,-0.015 -1.178747,-0.095 -1.545407,-0.2179 0.274572,0.3062 0.834845,0.5994 1.420125,0.8251 0.558397,0.2153 1.236544,0.4055 1.717856,0.4517 z"/><path style="fill:#000;fill-rule:evenodd;stroke:none;stroke-width:1px;stroke-linecap:butt;stroke-linejoin:miter;stroke-opacity:1" id="path4242" d="m 16.301358,1020.9997 c -0.912734,0.1897 -2.282297,0.06 -3.245115,-0.3431 0.719516,0.7899 2.044964,1.4487 3.178187,1.7283 z"/><path style="fill:#000;fill-rule:evenodd;stroke:none;stroke-width:1px;stroke-linecap:butt;stroke-linejoin:miter;stroke-opacity:1" id="path4246" d="m 18.913454,1017.0754 c -0.496924,0.046 -1.246346,-0.069 -1.972842,-0.2702 -0.718833,-0.1989 -1.439268,-0.487 -1.919111,-0.7974 0.327535,0.4921 0.946826,1.0073 1.62259,1.4466 0.659304,0.4285 1.427476,0.8196 2.049679,1.0314 z"/><path style="fill:#000;fill-rule:evenodd;stroke:none;stroke-width:1px;stroke-linecap:butt;stroke-linejoin:miter;stroke-opacity:1" id="path4250" d="m 16.915778,1022.6576 c -0.348884,0.1598 -0.691071,0.3719 -1.017991,0.6183 0.227484,1.0786 0.722094,2.3412 1.367345,3.5277 0.786089,1.4455 1.834333,2.8506 3.035569,3.8151 -0.919792,-1.2128 -1.599582,-2.7661 -1.991575,-4.2366 -0.329349,-1.2354 -0.453539,-2.4107 -0.351813,-3.2492 -0.351439,-0.1368 -0.706136,-0.2941 -1.041535,-0.4753 z"/><path style="fill:#000;fill-rule:evenodd;stroke:none;stroke-width:1px;stroke-linecap:butt;stroke-linejoin:miter;stroke-opacity:1" id="path4254" d="m 35.62395,1009.1713 c 0.225239,0.2012 0.442881,0.4043 0.652743,0.6094 5.019393,-0.5919 6.955831,-0.065 9.200657,0.8484 -2.03323,-1.3004 -4.002012,-2.3359 -9.298472,-2.1651 -0.183553,0.2346 -0.367797,0.4697 -0.554928,0.7073 z"/><path style="fill:#000;fill-rule:evenodd;stroke:none;stroke-width:1px;stroke-linecap:butt;stroke-linejoin:miter;stroke-opacity:1" id="path4258" d="m 23.797445,1033.1961 c -0.591098,0.208 -1.251521,0.7912 -1.579116,1.2786 0.50916,-0.3327 1.251679,-0.6204 1.69436,-0.558 z"/><path style="fill:#000;fill-rule:evenodd;stroke:none;stroke-width:1px;stroke-linecap:butt;stroke-linejoin:miter;stroke-opacity:1" id="path4262" d="m 25.585431,1033.5002 c -0.313028,0.173 -0.671265,0.4123 -0.936853,0.7 -0.27225,0.2949 -0.434574,0.6283 -0.37145,0.9584 0.05867,-0.3068 0.313481,-0.5219 0.598015,-0.6723 0.293827,-0.1554 0.653484,-0.2579 0.950674,-0.2969 z"/><path style="fill:#000;fill-rule:evenodd;stroke:none;stroke-width:1px;stroke-linecap:butt;stroke-linejoin:miter;stroke-opacity:1" id="path4266" d="m 27.820793,1033.684 c -0.489108,0.1923 -0.761269,0.5524 -0.922386,0.9142 -0.158818,0.3568 -0.229695,0.7597 -0.283736,1.1051 0.174283,-0.3219 0.352351,-0.6525 0.590653,-0.9077 0.238515,-0.2553 0.493106,-0.387 0.800499,-0.4056 z"/><path style="fill:#000;fill-rule:evenodd;stroke:none;stroke-width:1px;stroke-linecap:butt;stroke-linejoin:miter;stroke-opacity:1" id="path4270" d="m 39.438694,1033.7807 c -1.468191,0.2811 -2.843414,0.3958 -4.107788,0.3929 -2.983829,0.431 -5.508922,0.2037 -7.337591,-0.1268 1.756851,0.5799 4.307948,1.0838 7.415585,0.9011 1.28298,-0.2597 2.631591,-0.6363 4.029794,-1.1672 z"/><path style="fill:none;fill-rule:evenodd;stroke:#ffd5d5;stroke-width:3.64912534;stroke-linecap:round;stroke-linejoin:miter;stroke-miterlimit:4;stroke-dasharray:none;stroke-opacity:1" id="path4276" d="m 27.16659,1023.2384 c -0.994983,7.0013 8.489441,13.5768 11.687714,3.1402"/><ellipse style="fill:#ffd5d5;fill-opacity:1;stroke:#ffd5d5;stroke-width:2.16974854;stroke-linecap:round;stroke-miterlimit:4;stroke-dasharray:none" id="path4278" cx="-269.852" cy="986.045" rx="1.214" ry=".479" transform="matrix(0.95537471,-0.29539661,0.30252585,0.95314118,0,0)"/><path style="fill:#f9f9f9;fill-opacity:1;fill-rule:evenodd;stroke:none;stroke-width:1px;stroke-linecap:butt;stroke-linejoin:miter;stroke-opacity:1" id="path4281" d="m 33.182662,1000.6875 c 8.461942,1.1166 16.42753,3.7425 20.24587,18.9804 -11.689625,-16.7044 -13.195655,-13.7536 -20.24587,-18.9804 z"/><path style="fill:#000;fill-opacity:.44859811;fill-rule:evenodd;stroke:none;stroke-width:1px;stroke-linecap:butt;stroke-linejoin:miter;stroke-opacity:1" id="path4283" d="m 42.086563,1042.0758 c -21.987729,9.2736 -40.5847709,-11.5345 -31.665685,-30.3782 0.167726,16.1371 12.615755,31.9922 31.665685,30.3782 z"/></g></svg>