<svg xmlns="http://www.w3.org/2000/svg" xmlns:svg="http://www.w3.org/2000/svg" id="svg4311" width="100%" height="100%" version="1.1" viewBox="0 0 64 64"><metadata id="metadata4316"/><g id="layer1" transform="translate(0,-988.36216)" style="display:inline"><ellipse style="fill:#ff8080;fill-opacity:1;stroke:#000;stroke-width:1;stroke-linecap:round;stroke-linejoin:round;stroke-miterlimit:4;stroke-dasharray:none;stroke-dashoffset:0;stroke-opacity:1" id="path4279" cx="31.861" cy="1021.172" rx="23.947" ry="23.608"/><path style="display:inline;fill:none;fill-rule:evenodd;stroke:#000;stroke-width:.54697782;stroke-linecap:butt;stroke-linejoin:miter;stroke-miterlimit:4;stroke-dasharray:.54697781,4.37582249;stroke-dashoffset:0;stroke-opacity:1" id="path4175-7-2-1-1" d="m 35.52702,1035.5964 7.230694,-20.7106"/><path style="display:inline;fill:none;fill-rule:evenodd;stroke:#000;stroke-width:.54697782;stroke-linecap:butt;stroke-linejoin:miter;stroke-miterlimit:4;stroke-dasharray:.54697782,4.37582254;stroke-dashoffset:2.62549353;stroke-opacity:1" id="path4173-2-7-4-1" d="m 21.195998,1013.4105 5.435834,21.9064"/><ellipse style="display:inline;fill:#faa;fill-opacity:1;stroke:#000;stroke-width:.54697782;stroke-linecap:round;stroke-miterlimit:4;stroke-dasharray:none" id="path4156-2-1-1-7" cx="-790.833" cy="669.094" rx="4.494" ry="4.289" transform="matrix(0.62270956,-0.78245307,0.78245307,0.62270956,0,0)"/><ellipse style="display:inline;fill:#f55;fill-opacity:1;stroke:#000;stroke-width:.54697782;stroke-linecap:round;stroke-miterlimit:4;stroke-dasharray:none" id="path4156-6-9-3-8-3" cx="-773.595" cy="656.563" rx="11.066" ry="10.793" transform="matrix(0.62270956,-0.78245307,0.78245307,0.62270956,0,0)"/><path style="display:inline;fill:#ffd5d5;fill-opacity:1;fill-rule:evenodd;stroke:#000;stroke-width:.5;stroke-linecap:butt;stroke-linejoin:miter;stroke-miterlimit:4;stroke-dasharray:none;stroke-opacity:1" id="path4181-1-4" d="m 34.185212,1034.6203 c 0.09786,0.5684 0.10518,1.1529 0.02422,1.7465 l -6.050133,0.046 c -0.0968,-0.5962 -0.08126,-1.1836 9.52e-4,-1.7661 z"/><path style="display:inline;fill:#ff2a2a;fill-opacity:1;fill-rule:evenodd;stroke:#000;stroke-width:.5;stroke-linecap:butt;stroke-linejoin:miter;stroke-miterlimit:4;stroke-dasharray:none;stroke-opacity:1" id="path4181-5" d="m 29.802624,1005.2928 c 1.377921,-0.2445 2.795513,-0.2749 4.269313,-0 l 0.03245,6.598 6.476802,-0.057 c 0.284131,1.3848 0.306766,2.8099 0.07457,4.2575 l -6.464652,0.02 0.06885,6.5739 c -1.413431,0.2007 -2.845619,0.3064 -4.354131,0.026 l 0.0159,-6.5374 -6.731553,0.044 c -0.280809,-1.4534 -0.237472,-2.8858 -0.0017,-4.3057 l 6.719197,-0.052 z"/><path style="fill:#f9f9f9;fill-opacity:1;fill-rule:evenodd;stroke:none;stroke-width:1px;stroke-linecap:butt;stroke-linejoin:miter;stroke-opacity:1" id="path4281" d="m 33.182662,1000.6875 c 8.461942,1.1166 16.42753,3.7425 20.24587,18.9804 -11.689625,-16.7044 -13.195655,-13.7536 -20.24587,-18.9804 z"/><path style="fill:#000;fill-opacity:.44859811;fill-rule:evenodd;stroke:none;stroke-width:1px;stroke-linecap:butt;stroke-linejoin:miter;stroke-opacity:1" id="path4283" d="m 42.086563,1042.0758 c -21.987729,9.2736 -40.5847709,-11.5345 -31.665685,-30.3782 0.167726,16.1371 12.615755,31.9922 31.665685,30.3782 z"/></g></svg>