<svg xmlns="http://www.w3.org/2000/svg" xmlns:svg="http://www.w3.org/2000/svg" id="svg4311" width="100%" height="100%" version="1.1" viewBox="0 0 64 64"><metadata id="metadata4316"/><g id="layer1" transform="translate(0,-988.36216)" style="display:inline"><ellipse style="fill:#ff8080;fill-opacity:1;stroke:#000;stroke-width:1;stroke-linecap:round;stroke-linejoin:round;stroke-miterlimit:4;stroke-dasharray:none;stroke-dashoffset:0;stroke-opacity:1" id="path4279" cx="31.861" cy="1021.172" rx="23.947" ry="23.608"/><path style="fill:none;fill-rule:evenodd;stroke:#f55;stroke-width:2.35794783px;stroke-linecap:butt;stroke-linejoin:miter;stroke-opacity:1" id="path4183" d="m 31.255306,1022.3566 c 0.931012,0.2956 0.06092,1.4008 -0.491239,1.5474 -1.496319,0.3973 -2.602549,-1.2098 -2.603567,-2.5299 -0.0018,-2.3612 2.385862,-3.8749 4.568525,-3.6597 3.203145,0.3159 5.173045,3.5735 4.715893,6.6072 -0.609311,4.0434 -4.76465,6.4813 -8.64581,5.772 -4.884043,-0.8925 -7.794767,-5.9573 -6.82822,-10.6844 1.170618,-5.7251 7.150935,-9.1112 12.723095,-7.8844 6.566599,1.4457 10.429365,8.345 8.940547,14.7617 -1.718898,7.4084 -9.539459,11.7489 -16.80038,9.9968 -8.25032,-1.9909 -13.069133,-10.7342 -11.052874,-18.8391 2.261938,-9.0924 11.929008,-14.39 20.877666,-12.109 9.934706,2.5324 15.711489,13.124 13.165201,22.9163" transform="matrix(0.50578363,-0.91568839,0.91568839,0.50578363,-919.78802,534.53719)"/><g style="display:inline" id="g4221" transform="matrix(0.9,0,0,0.9,3.3400128,102.78996)"><path id="path4158" d="m 31.475883,1034.7774 c -5.193908,0.096 -8.888715,-3.6268 -8.740657,-8.0721 0.174464,-5.2379 6.605802,-10.0961 9.11741,-18.6337 2.436516,8.7003 7.846667,13.1796 8.213207,18.4074 0.324716,4.6312 -3.953672,8.2131 -8.58996,8.2984 z" style="display:inline;fill:#ff2a2a;fill-rule:evenodd;stroke:#000;stroke-width:.5;stroke-linecap:butt;stroke-linejoin:miter;stroke-miterlimit:4;stroke-dasharray:none;stroke-opacity:1"/><path id="path4219" d="m 37.436528,1030.4347 c 1.878283,-1.7762 1.562023,-5.7376 -0.293275,-8.2994" style="fill:none;fill-rule:evenodd;stroke:#fff;stroke-width:1;stroke-linecap:round;stroke-linejoin:miter;stroke-miterlimit:4;stroke-dasharray:none;stroke-opacity:1"/></g><path style="fill:#000;fill-opacity:.44859811;fill-rule:evenodd;stroke:none;stroke-width:1px;stroke-linecap:butt;stroke-linejoin:miter;stroke-opacity:1" id="path4283" d="m 42.086563,1042.0758 c -21.987729,9.2736 -40.5847709,-11.5345 -31.665685,-30.3782 0.167726,16.1371 12.615755,31.9922 31.665685,30.3782 z"/><path style="fill:#f9f9f9;fill-opacity:1;fill-rule:evenodd;stroke:none;stroke-width:1px;stroke-linecap:butt;stroke-linejoin:miter;stroke-opacity:1" id="path4281" d="m 33.182662,1000.6875 c 8.461942,1.1166 16.42753,3.7425 20.24587,18.9804 -11.689625,-16.7044 -13.195655,-13.7536 -20.24587,-18.9804 z"/></g></svg>