<svg xmlns="http://www.w3.org/2000/svg" xmlns:svg="http://www.w3.org/2000/svg" xmlns:xlink="http://www.w3.org/1999/xlink" id="svg4311" width="100%" height="100%" version="1.1" viewBox="0 0 64 64"><metadata id="metadata4316"/><g id="layer1" transform="translate(0,-988.36216)" style="display:inline"><ellipse style="fill:#ff8080;fill-opacity:1;stroke:#000;stroke-width:1;stroke-linecap:round;stroke-linejoin:round;stroke-miterlimit:4;stroke-dasharray:none;stroke-dashoffset:0;stroke-opacity:1" id="path4279" cx="31.861" cy="1021.172" rx="23.947" ry="23.608"/><path style="fill:#f9f9f9;fill-opacity:1;fill-rule:evenodd;stroke:none;stroke-width:1px;stroke-linecap:butt;stroke-linejoin:miter;stroke-opacity:1" id="path4281" d="m 33.182662,1000.6875 c 8.461942,1.1166 16.42753,3.7425 20.24587,18.9804 -11.689625,-16.7044 -13.195655,-13.7536 -20.24587,-18.9804 z"/><path style="fill:#000;fill-opacity:.44859811;fill-rule:evenodd;stroke:none;stroke-width:1px;stroke-linecap:butt;stroke-linejoin:miter;stroke-opacity:1" id="path4283" d="m 42.086563,1042.0758 c -21.987729,9.2736 -40.5847709,-11.5345 -31.665685,-30.3782 0.167726,16.1371 12.615755,31.9922 31.665685,30.3782 z"/><path style="fill:none;fill-rule:evenodd;stroke:#000;stroke-width:1px;stroke-linecap:round;stroke-linejoin:miter;stroke-opacity:1" id="path4176" d="m 19.926778,1023.7631 c -0.435484,13.2277 24.453205,15.8547 24.375001,0.125 -0.02776,-5.5841 -3.68272,-9.4709 -5.4375,-14.75"/><g id="g4231" transform="translate(-35.875002,-0.87500004)" style="stroke:#000"><path id="path4197" d="m 67.906253,1030.0497 c -7.360696,-2.1034 -2.016545,-12.084 0,-12.0938 2.110151,-0.01 7.136524,10.1137 0,12.0938 z" style="fill:#faa;fill-rule:evenodd;stroke:#000;stroke-width:.5;stroke-linecap:butt;stroke-linejoin:miter;stroke-miterlimit:4;stroke-dasharray:none;stroke-opacity:1"/><path id="path4199" d="m 67.875003,1029.1122 c -1.627622,-2.6798 -2.106512,-5.5495 0,-8.3125 2.045756,2.6739 2.03435,5.5519 0,8.3125 z" style="fill:#ff8080;fill-rule:evenodd;stroke:#000;stroke-width:.5;stroke-linecap:butt;stroke-linejoin:miter;stroke-miterlimit:4;stroke-dasharray:none;stroke-opacity:1"/><path id="path4199-0" d="m 67.874539,1028.8181 c -0.864984,-1.4241 -1.119486,-2.9492 0,-4.4176 1.0872,1.4211 1.081138,2.9505 0,4.4176 z" style="display:inline;fill:#f55;fill-rule:evenodd;stroke:#000;stroke-width:.26572052;stroke-linecap:butt;stroke-linejoin:miter;stroke-miterlimit:4;stroke-dasharray:none;stroke-opacity:1"/><ellipse id="path4174-8" cx="67.86" cy="1022.234" rx=".476" ry=".457" style="display:inline;fill:#faa;fill-opacity:1;stroke:#000;stroke-width:.10294557;stroke-linecap:round;stroke-linejoin:bevel;stroke-miterlimit:4;stroke-dasharray:none;stroke-dashoffset:0;stroke-opacity:1"/></g></g></svg>