<svg xmlns="http://www.w3.org/2000/svg" xmlns:svg="http://www.w3.org/2000/svg" id="svg4311" width="100%" height="100%" version="1.1" viewBox="0 0 64 64"><metadata id="metadata4316"/><g id="layer1" transform="translate(0,-988.36216)" style="display:inline"><ellipse style="fill:#ff8080;fill-opacity:1;stroke:#000;stroke-width:1;stroke-linecap:round;stroke-linejoin:round;stroke-miterlimit:4;stroke-dasharray:none;stroke-dashoffset:0;stroke-opacity:1" id="path4279" cx="31.861" cy="1021.172" rx="23.947" ry="23.608"/><g id="g4328" transform="matrix(1.1610648,0,0,0.96453977,-5.2837239,35.764739)" style="fill:#f55"><path id="path4251" d="m 18.43988,1030.676 4,0.062 c 0,0 -1.968802,-3.4078 -1.5,-5.125 0.768846,-2.8162 1.184309,-3.0655 -0.05492,-5.4362 -0.496113,-0.9491 -2.971536,-1.758 -1.599112,0.8201 1.352873,2.5413 0.169419,2.2631 -0.408471,4.2411 -0.509982,1.7456 -0.4375,5.438 -0.4375,5.438 z" style="fill:#f55;fill-rule:evenodd;stroke:#000;stroke-width:1px;stroke-linecap:butt;stroke-linejoin:miter;stroke-opacity:1"/><path id="path4251-3" d="m 28.215699,1030.7182 -4,0.062 c 0,0 1.438472,-4.8219 0.96967,-6.5391 -0.768846,-2.8162 0.450875,-4.7007 1.690104,-7.0714 0.496113,-0.9491 2.971536,-1.758 1.599112,0.8201 -1.352873,2.5413 -1.804603,3.8983 -1.226713,5.8763 0.509982,1.7456 0.96783,6.8521 0.967827,6.8521 z" style="display:inline;fill:#f55;fill-rule:evenodd;stroke:#000;stroke-width:1px;stroke-linecap:butt;stroke-linejoin:miter;stroke-opacity:1"/><path id="path4251-7" d="m 30.195172,1030.7269 4.106229,0.049 c 0,0 -2.021088,-2.7221 -1.539836,-4.0938 0.789264,-2.2496 1.215761,-2.4487 -0.05638,-4.3424 -0.509289,-0.7582 -3.050452,-1.4043 -1.64158,0.655 1.388801,2.03 0.173918,1.8078 -0.419319,3.3878 -0.523526,1.3944 -0.449119,4.3439 -0.449119,4.3439 z" style="display:inline;fill:#f55;fill-rule:evenodd;stroke:#000;stroke-width:.90554661px;stroke-linecap:butt;stroke-linejoin:miter;stroke-opacity:1"/><path id="path4251-3-0" d="m 36.19614,1030.7649 4.03497,0.057 c 0,0 -1.451048,-4.4226 -0.978148,-5.9977 0.775568,-2.583 -0.454816,-4.3115 -1.704879,-6.4859 -0.50045,-0.8705 -2.997515,-1.6124 -1.613092,0.7522 1.3647,2.3309 1.820379,3.5756 1.237437,5.3898 -0.535575,2.054 -0.749364,4.1784 -0.976288,6.2846 z" style="display:inline;fill:#f55;fill-rule:evenodd;stroke:#000;stroke-width:.96188349px;stroke-linecap:butt;stroke-linejoin:miter;stroke-opacity:1"/><path id="path4251-7-6" d="m 46.11962,1030.8158 -4.106229,0.049 c 0,0 2.021088,-2.7221 1.539836,-4.0938 -0.789264,-2.2496 -1.215761,-2.4487 0.05638,-4.3424 0.509289,-0.7582 3.050452,-1.4043 1.64158,0.655 -1.388801,2.03 -0.173918,1.8078 0.419319,3.3878 0.523526,1.3944 0.449119,4.3439 0.449119,4.3439 z" style="display:inline;fill:#f55;fill-rule:evenodd;stroke:#000;stroke-width:.90554661px;stroke-linecap:butt;stroke-linejoin:miter;stroke-opacity:1"/></g><path style="fill:#f9f9f9;fill-opacity:1;fill-rule:evenodd;stroke:none;stroke-width:1px;stroke-linecap:butt;stroke-linejoin:miter;stroke-opacity:1" id="path4281" d="m 33.182662,1000.6875 c 8.461942,1.1166 16.42753,3.7425 20.24587,18.9804 -11.689625,-16.7044 -13.195655,-13.7536 -20.24587,-18.9804 z"/><path style="fill:#000;fill-opacity:.44859811;fill-rule:evenodd;stroke:none;stroke-width:1px;stroke-linecap:butt;stroke-linejoin:miter;stroke-opacity:1" id="path4283" d="m 42.086563,1042.0758 c -21.987729,9.2736 -40.5847709,-11.5345 -31.665685,-30.3782 0.167726,16.1371 12.615755,31.9922 31.665685,30.3782 z"/></g></svg>