<svg xmlns="http://www.w3.org/2000/svg" xmlns:svg="http://www.w3.org/2000/svg" id="svg4311" width="100%" height="100%" version="1.1" viewBox="0 0 64 64"><metadata id="metadata4316"/><g id="layer1" transform="translate(0,-988.36216)" style="display:inline"><ellipse style="fill:#ff8080;fill-opacity:1;stroke:#000;stroke-width:1;stroke-linecap:round;stroke-linejoin:round;stroke-miterlimit:4;stroke-dasharray:none;stroke-dashoffset:0;stroke-opacity:1" id="path4279" cx="31.861" cy="1021.172" rx="23.947" ry="23.608"/><path style="fill:#f55;fill-opacity:1;fill-rule:evenodd;stroke:#000;stroke-width:.5;stroke-linecap:butt;stroke-linejoin:miter;stroke-miterlimit:4;stroke-dasharray:none;stroke-opacity:1" id="path4165" d="m 34.055016,1032.2304 c -0.407189,-4.7148 -0.102487,-10.1552 2.025262,-15.1134 3.050386,-7.1084 8.493172,-12.9999 9.471844,-12.4262 1.512052,0.8862 1.58798,10.7333 -0.646697,18.1638 -1.674979,5.5695 -5.090288,7.3769 -7.000213,11.194 -1.088717,-0.8564 -2.19084,-1.6955 -3.850196,-1.8182 z"/><path style="fill:#ff2a2a;fill-opacity:1;fill-rule:evenodd;stroke:#000;stroke-width:.5;stroke-linecap:butt;stroke-linejoin:miter;stroke-miterlimit:4;stroke-dasharray:none;stroke-opacity:1" id="path4167" d="m 36.130372,1031.6063 c -0.41146,-0.1335 -0.072,-6.0509 1.731062,-11.2185 1.736871,-4.9781 4.920453,-9.2197 5.528938,-9.0113 0.394811,0.1353 -1.027871,9.6896 -1.852812,12.6673 -0.759191,2.7403 -4.214237,7.9493 -5.407188,7.5625 z"/><path style="fill:#f55;fill-opacity:1;fill-rule:evenodd;stroke:#000;stroke-width:.5;stroke-linecap:butt;stroke-linejoin:miter;stroke-miterlimit:4;stroke-dasharray:none;stroke-opacity:1" id="path4169" d="m 25.84536,1033.8372 c 1.2772,-1.0712 2.721122,-1.427 3.894687,-1.4369 -0.715872,-5.9027 1.254855,-13.6567 -4.70765,-18.2445 l -6.825162,6.7117 c 2.897006,7.2481 5.092079,8.6465 7.638125,12.9697 z"/><path style="fill:#ff2a2a;fill-opacity:1;fill-rule:evenodd;stroke:#000;stroke-width:.5;stroke-linecap:butt;stroke-linejoin:miter;stroke-miterlimit:4;stroke-dasharray:none;stroke-opacity:1" id="path4173" d="m 27.049794,1031.7758 c -0.595126,0.2921 -5.508489,-7.686 -6.17636,-11.9516 l 1.97858,-4.8663 c 5.084032,5.0317 5.465509,16.1957 4.19778,16.8179 z"/><path style="fill:#f55;fill-opacity:1;fill-rule:evenodd;stroke:#000;stroke-width:.5;stroke-linecap:butt;stroke-linejoin:miter;stroke-miterlimit:4;stroke-dasharray:none;stroke-opacity:1" id="path4171" d="m 13.745365,1033.9507 c 1.51461,0.1161 7.877603,-12.1882 11.41937,-19.7004 -3.730854,-3.0755 -10.128157,-1.0756 -11.41937,3.2519 -1.880379,6.3019 -1.150391,16.3599 0,16.4485 z"/><path style="fill:#000;fill-opacity:.44859811;fill-rule:evenodd;stroke:none;stroke-width:1px;stroke-linecap:butt;stroke-linejoin:miter;stroke-opacity:1" id="path4283" d="m 42.086563,1042.0758 c -21.987729,9.2736 -40.5847709,-11.5345 -31.665685,-30.3782 0.167726,16.1371 12.615755,31.9922 31.665685,30.3782 z"/><path style="fill:#f9f9f9;fill-opacity:1;fill-rule:evenodd;stroke:none;stroke-width:1px;stroke-linecap:butt;stroke-linejoin:miter;stroke-opacity:1" id="path4281" d="m 33.182662,1000.6875 c 8.461942,1.1166 16.42753,3.7425 20.24587,18.9804 -11.689625,-16.7044 -13.195655,-13.7536 -20.24587,-18.9804 z"/></g></svg>