<svg xmlns="http://www.w3.org/2000/svg" xmlns:svg="http://www.w3.org/2000/svg" id="svg4311" width="100%" height="100%" version="1.1" viewBox="0 0 64 64"><metadata id="metadata4316"/><g id="layer1" transform="translate(0,-988.36216)" style="display:inline"><ellipse style="fill:#ff8080;fill-opacity:1;stroke:#000;stroke-width:1;stroke-linecap:round;stroke-linejoin:round;stroke-miterlimit:4;stroke-dasharray:none;stroke-dashoffset:0;stroke-opacity:1" id="path4279" cx="31.861" cy="1021.172" rx="23.947" ry="23.608"/><path style="display:inline;fill:#f55;fill-rule:evenodd;stroke:#000;stroke-width:.5;stroke-linecap:butt;stroke-linejoin:miter;stroke-miterlimit:4;stroke-dasharray:none;stroke-opacity:1" id="path4151-6" d="m 19.600755,1013.0456 2.732518,2.5574 0.144296,-3.663 c 0.115683,-2.9328 3.103085,-2.9152 3.091382,-0.7232 l -0.03945,7.3774 6.409461,5.9985 c 1.919949,1.7957 -0.64381,4.6027 -2.602318,2.7498 L 17.0949,1015.7607 c -1.962426,-1.8566 0.792929,-4.3179 2.505115,-2.7156 z"/><path style="display:inline;fill:#f55;fill-rule:evenodd;stroke:#000;stroke-width:.5;stroke-linecap:butt;stroke-linejoin:miter;stroke-miterlimit:4;stroke-dasharray:none;stroke-opacity:1" id="path4151-6-7" d="m 42.895202,1029.0259 -1.689829,-1.5528 -0.0452,2.0173 c -0.06571,2.9344 -3.094739,2.877 -3.099976,0.6851 l -0.01391,-5.7328 -1.981097,-1.8344 c -1.928939,-1.7862 0.667547,-4.5601 2.635533,-2.7179 l 6.807057,6.3717 c 1.774392,1.6608 -0.91541,4.3234 -2.611945,2.7645 z"/><path style="fill:#f9f9f9;fill-opacity:1;fill-rule:evenodd;stroke:none;stroke-width:1px;stroke-linecap:butt;stroke-linejoin:miter;stroke-opacity:1" id="path4281" d="m 33.182662,1000.6875 c 8.461942,1.1166 16.42753,3.7425 20.24587,18.9804 -11.689625,-16.7044 -13.195655,-13.7536 -20.24587,-18.9804 z"/><path style="fill:#000;fill-opacity:.44859811;fill-rule:evenodd;stroke:none;stroke-width:1px;stroke-linecap:butt;stroke-linejoin:miter;stroke-opacity:1" id="path4283" d="m 42.086563,1042.0758 c -21.987729,9.2736 -40.5847709,-11.5345 -31.665685,-30.3782 0.167726,16.1371 12.615755,31.9922 31.665685,30.3782 z"/></g></svg>