<svg xmlns="http://www.w3.org/2000/svg" xmlns:svg="http://www.w3.org/2000/svg" id="svg4311" width="100%" height="100%" version="1.1" viewBox="0 0 64 64"><metadata id="metadata4316"/><g id="layer1" transform="translate(0,-988.36216)" style="display:inline"><ellipse style="fill:#ff8080;fill-opacity:1;stroke:#000;stroke-width:1;stroke-linecap:round;stroke-linejoin:round;stroke-miterlimit:4;stroke-dasharray:none;stroke-dashoffset:0;stroke-opacity:1" id="path4279" cx="31.861" cy="1021.172" rx="23.947" ry="23.608"/><path style="fill:#ff2a2a;fill-rule:evenodd;stroke:#000;stroke-width:.55124998;stroke-linecap:butt;stroke-linejoin:miter;stroke-miterlimit:4;stroke-dasharray:none;stroke-opacity:1" id="path4153" d="m 31.196994,1000.9397 -4.282954,13.4583 -14.918203,0.1378 12.060747,8.5702 -4.806212,14.7546 12.226554,-9.2572 12.876855,9.9742 -5.624473,-15.575 12.127501,-8.8824 -15.159376,0.2476 z m 0.03445,8.1223 1.771381,4.7689 -3.338998,0.038 z m 5.822578,7.6487 5.994844,0 -4.720078,3.6175 z m -11.507344,0.035 -1.205859,3.4797 -4.651172,-3.4108 z m 8.37211,0 1.860469,5.547 -4.444454,3.1696 -4.237734,-3.3075 1.55039,-5.3402 z m 2.894062,8.441 1.963828,5.8226 -4.85789,-3.6176 z m -10.921641,0.035 2.962969,2.2739 -4.892344,3.652 z"/><path style="fill:#f9f9f9;fill-opacity:1;fill-rule:evenodd;stroke:none;stroke-width:1px;stroke-linecap:butt;stroke-linejoin:miter;stroke-opacity:1" id="path4281" d="m 33.182662,1000.6875 c 8.461942,1.1166 16.42753,3.7425 20.24587,18.9804 -11.689625,-16.7044 -13.195655,-13.7536 -20.24587,-18.9804 z"/><path style="fill:#000;fill-opacity:.44859811;fill-rule:evenodd;stroke:none;stroke-width:1px;stroke-linecap:butt;stroke-linejoin:miter;stroke-opacity:1" id="path4283" d="m 42.086563,1042.0758 c -21.987729,9.2736 -40.5847709,-11.5345 -31.665685,-30.3782 0.167726,16.1371 12.615755,31.9922 31.665685,30.3782 z"/></g></svg>