<svg xmlns="http://www.w3.org/2000/svg" xmlns:svg="http://www.w3.org/2000/svg" id="svg4311" width="100%" height="100%" version="1.1" viewBox="0 0 64 64"><metadata id="metadata4316"/><g id="layer1" transform="translate(0,-988.36216)" style="display:inline"><ellipse style="fill:#ff8080;fill-opacity:1;stroke:#000;stroke-width:1;stroke-linecap:round;stroke-linejoin:round;stroke-miterlimit:4;stroke-dasharray:none;stroke-dashoffset:0;stroke-opacity:1" id="path4279" cx="31.861" cy="1021.172" rx="23.947" ry="23.608"/><path style="fill:#f9f9f9;fill-opacity:1;fill-rule:evenodd;stroke:none;stroke-width:1px;stroke-linecap:butt;stroke-linejoin:miter;stroke-opacity:1" id="path4281" d="m 33.182662,1000.6875 c 8.461942,1.1166 16.42753,3.7425 20.24587,18.9804 -11.689625,-16.7044 -13.195655,-13.7536 -20.24587,-18.9804 z"/><path style="fill:#000;fill-opacity:.44859811;fill-rule:evenodd;stroke:none;stroke-width:1px;stroke-linecap:butt;stroke-linejoin:miter;stroke-opacity:1" id="path4283" d="m 42.086563,1042.0758 c -21.987729,9.2736 -40.5847709,-11.5345 -31.665685,-30.3782 0.167726,16.1371 12.615755,31.9922 31.665685,30.3782 z"/><path style="fill:#f55;fill-rule:evenodd;stroke:#000;stroke-width:.5;stroke-linecap:butt;stroke-linejoin:miter;stroke-miterlimit:4;stroke-dasharray:none;stroke-opacity:1" id="path4149" d="m 42.437502,1011.9247 c 0,0 0.03952,-0.088 0.03125,-0.4219 -0.01164,-0.47 0.844728,-0.8964 0.84375,0.062 -0.007,6.8755 0.23501,13.3466 0.25,21.3594 0.0014,0.7417 -0.75,0.8777 -0.75,0 l 0,-0.3125 c -11.469441,-6.4998 -18.093307,-7.9539 -28.311583,-8.5594 l 0.06262,-2.83 c 10.043739,-1.0961 20.612448,-2.6871 27.873963,-9.2976 z"/><path style="fill:#ffd5d5;fill-rule:evenodd;stroke:none;stroke-width:1px;stroke-linecap:butt;stroke-linejoin:miter;stroke-opacity:1" id="path4151" d="m 35.664753,1017.9758 c 0.566593,0.029 1.149001,-0.012 1.737572,-0.1122 2.152277,-1.2512 3.78557,-3.3244 4.547201,-4.641 -1.06134,1.148 -2.875623,2.8663 -5.000815,3.7226 -0.379999,0.3774 -0.807157,0.7304 -1.283958,1.0306 z"/></g></svg>