<svg xmlns="http://www.w3.org/2000/svg" xmlns:svg="http://www.w3.org/2000/svg" id="svg4311" width="100%" height="100%" version="1.1" viewBox="0 0 64 64"><metadata id="metadata4316"/><g id="layer1" transform="translate(0,-988.36216)" style="display:inline"><ellipse style="fill:#ff8080;fill-opacity:1;stroke:#000;stroke-width:1;stroke-linecap:round;stroke-linejoin:round;stroke-miterlimit:4;stroke-dasharray:none;stroke-dashoffset:0;stroke-opacity:1" id="path4279" cx="31.861" cy="1021.172" rx="23.947" ry="23.608"/><g id="g4299" transform="translate(0.90625004,-0.09375)"><ellipse id="path4200" cx="-400.457" cy="994.449" rx="1.226" ry="1.324" transform="matrix(0.95686256,-0.29054094,0.40976379,0.91219167,0,0)" style="fill:#f55;fill-opacity:.50196078;stroke:none;stroke-width:.0933093;stroke-linecap:round;stroke-linejoin:round;stroke-miterlimit:4;stroke-dasharray:none;stroke-dashoffset:0;stroke-opacity:1"/><path id="path4249" d="m 24.780892,1022.4123 c -1.369997,-0.7662 -2.192833,0.7672 -1.444431,1.6579 0.671599,0.7992 2.393096,1.0241 2.199474,-0.6812" style="fill:none;fill-rule:evenodd;stroke:#1a1a1a;stroke-width:.27886146;stroke-linecap:round;stroke-linejoin:miter;stroke-miterlimit:4;stroke-dasharray:none;stroke-opacity:1"/><path id="path4249-0" d="m 24.418119,1023.2148 c -0.460327,-0.2158 -0.736804,0.2162 -0.485338,0.4672 0.225662,0.2252 0.804095,0.2885 0.739038,-0.192" style="display:inline;fill:none;fill-rule:evenodd;stroke:#1a1a1a;stroke-width:.17013663;stroke-linecap:round;stroke-linejoin:miter;stroke-miterlimit:4;stroke-dasharray:none;stroke-opacity:1"/></g><path style="fill:none;fill-rule:evenodd;stroke:#1a1a1a;stroke-width:.5;stroke-linecap:round;stroke-linejoin:miter;stroke-miterlimit:4;stroke-dasharray:none;stroke-opacity:1" id="path4224" d="m 28.652461,1007.1899 c 0,0 0.0099,2.3431 -1.912099,3.9389 -1.385015,1.1499 -4.778369,0.5705 -6.396611,2.0771 -1.717146,1.5987 -0.712214,7.1129 -0.754165,11.0332 -0.04809,4.4946 -0.933335,8.3731 -0.933335,8.3731"/><path style="fill:none;fill-rule:evenodd;stroke:#1a1a1a;stroke-width:.5;stroke-linecap:round;stroke-linejoin:miter;stroke-miterlimit:4;stroke-dasharray:none;stroke-opacity:1" id="path4226" d="m 33.875002,1007.2997 c 0.05193,1.2632 -0.228893,2.5351 1.724593,3.8669 1.668231,1.1373 5.095857,0.7147 6.681658,2.4768 1.730892,1.9233 0.657876,7.1737 0.608298,11.1533 -0.05478,4.3976 0.547952,8.253 0.547952,8.253"/><path style="fill:none;fill-rule:evenodd;stroke:#1a1a1a;stroke-width:.5;stroke-linecap:round;stroke-linejoin:miter;stroke-miterlimit:4;stroke-dasharray:none;stroke-opacity:1" id="path4228" d="m 30.449788,1012.8526 c 0.54222,0.612 1.133846,0.8287 1.82301,0.2651"/><path style="fill:none;fill-rule:evenodd;stroke:#1a1a1a;stroke-width:.5;stroke-linecap:round;stroke-linejoin:miter;stroke-miterlimit:4;stroke-dasharray:none;stroke-opacity:1" id="path4243" d="m 22.737904,1033.9553 c 0.520859,-2.2665 0.876661,-5.594 0.690371,-8.0269"/><path style="fill:none;fill-rule:evenodd;stroke:#1a1a1a;stroke-width:.5;stroke-linecap:round;stroke-linejoin:miter;stroke-miterlimit:4;stroke-dasharray:none;stroke-opacity:1" id="path4245" d="m 23.530489,1026.117 c 1.0155,3.6077 0.107435,6.1816 -0.637906,8.0814"/><path style="fill:none;fill-rule:evenodd;stroke:#1a1a1a;stroke-width:.5;stroke-linecap:round;stroke-linejoin:miter;stroke-miterlimit:4;stroke-dasharray:none;stroke-opacity:1" id="path4247" d="m 22.631369,1018.7508 c -2.102871,3.1388 -0.521911,7.1533 1.941358,7.5753 4.24157,0.7267 6.54726,-3.0131 5.884951,-6.2925"/><path style="display:inline;fill:none;fill-rule:evenodd;stroke:#1a1a1a;stroke-width:.5;stroke-linecap:round;stroke-linejoin:miter;stroke-miterlimit:4;stroke-dasharray:none;stroke-opacity:1" id="path4247-9" d="m 39.525289,1018.6697 c 2.154868,3.1034 0.641003,7.1436 -1.814895,7.6066 -4.228875,0.7973 -6.596546,-2.9036 -5.988957,-6.1936"/><path style="fill:none;fill-rule:evenodd;stroke:#1a1a1a;stroke-width:.5;stroke-linecap:round;stroke-linejoin:miter;stroke-miterlimit:4;stroke-dasharray:none;stroke-opacity:1" id="path4296" d="m 39.785808,1034.2867 c -0.669868,-1.1818 -0.925128,-3.9223 -0.629768,-8.6289"/><path style="fill:#f9f9f9;fill-opacity:1;fill-rule:evenodd;stroke:none;stroke-width:1px;stroke-linecap:butt;stroke-linejoin:miter;stroke-opacity:1" id="path4281" d="m 33.182662,1000.6875 c 8.461942,1.1166 16.42753,3.7425 20.24587,18.9804 -11.689625,-16.7044 -13.195655,-13.7536 -20.24587,-18.9804 z"/><path style="fill:#000;fill-opacity:.44859811;fill-rule:evenodd;stroke:none;stroke-width:1px;stroke-linecap:butt;stroke-linejoin:miter;stroke-opacity:1" id="path4283" d="m 42.086563,1042.0758 c -21.987729,9.2736 -40.5847709,-11.5345 -31.665685,-30.3782 0.167726,16.1371 12.615755,31.9922 31.665685,30.3782 z"/><g id="g4304" transform="translate(-0.62500003,0.0625)"><ellipse id="path4200-7" cx="-457.39" cy="976.09" rx="1.226" ry="1.324" transform="matrix(-0.95686256,-0.29054094,-0.40976379,0.91219167,0,0)" style="fill:#f55;fill-opacity:.50196078;stroke:none;stroke-width:.0933093;stroke-linecap:round;stroke-linejoin:round;stroke-miterlimit:4;stroke-dasharray:none;stroke-dashoffset:0;stroke-opacity:1"/><path id="path4249-7" d="m 37.218749,1022.2067 c 1.369997,-0.7662 2.192833,0.7672 1.444431,1.6579 -0.671599,0.7992 -2.393096,1.0241 -2.199474,-0.6812" style="fill:none;fill-rule:evenodd;stroke:#1a1a1a;stroke-width:.27886146;stroke-linecap:round;stroke-linejoin:miter;stroke-miterlimit:4;stroke-dasharray:none;stroke-opacity:1"/><path id="path4249-0-9" d="m 37.581522,1023.0092 c 0.460327,-0.2158 0.736804,0.2162 0.485338,0.4672 -0.225662,0.2252 -0.804095,0.2885 -0.739038,-0.192" style="display:inline;fill:none;fill-rule:evenodd;stroke:#1a1a1a;stroke-width:.17013663;stroke-linecap:round;stroke-linejoin:miter;stroke-miterlimit:4;stroke-dasharray:none;stroke-opacity:1"/></g></g></svg>