<svg xmlns="http://www.w3.org/2000/svg" xmlns:svg="http://www.w3.org/2000/svg" xmlns:xlink="http://www.w3.org/1999/xlink" id="svg4311" width="100%" height="100%" version="1.1" viewBox="0 0 64 64"><defs id="defs4313"><linearGradient id="ashleyShopGradient"><stop style="stop-color:#f55;stop-opacity:1" id="stop4184" offset="0"/><stop style="stop-color:#ff8080;stop-opacity:1" id="stop4186" offset="1"/></linearGradient><linearGradient id="linearGradient15" x1="29.5" x2="44.125" y1="1025.487" y2="1003.362" gradientTransform="matrix(1.2884366,0,0,1.290513,-9.2250812,-296.31254)" gradientUnits="userSpaceOnUse" xlink:href="#ashleyShopGradient"/></defs><metadata id="metadata4316"/><g id="layer1" transform="translate(0,-988.36216)" style="display:inline"><ellipse id="ellipse4146" cx="32" cy="1020.368" rx="30.383" ry="30.381" style="display:inline;fill:url(#linearGradient15);fill-opacity:1;fill-rule:evenodd;stroke:none;stroke-width:5.4000001;stroke-linecap:butt;stroke-linejoin:miter;stroke-miterlimit:4;stroke-dasharray:none;stroke-opacity:1"/><g id="g4149" transform="matrix(1.61051,0,0,1.61051,-19.6555,-646.68722)"><path id="path4147" d="m 31.767756,1047.591 11.647402,-0.067 -0.04101,-11.7754 -11.625438,0.059 z" style="fill:#fff;fill-rule:evenodd;stroke:#fff;stroke-width:.59096688px;stroke-linecap:butt;stroke-linejoin:miter;stroke-opacity:1"/><path id="path4147-2" d="m 20.840601,1034.7833 7.661033,-0.02 -0.02698,-3.3444 -7.646588,0.017 z" style="display:inline;fill:#fff;fill-rule:evenodd;stroke:#fff;stroke-width:.44475746;stroke-linecap:butt;stroke-linejoin:miter;stroke-miterlimit:4;stroke-dasharray:none;stroke-opacity:1"/><path id="path4164" d="m 32.438934,1029.4521 c -14.458759,-0.2108 -0.455845,-10.6019 -0.151548,-0.6772 1.405009,-10.3168 13.541391,0.5913 0.121237,0.6772" style="fill:none;fill-rule:evenodd;stroke:#fff;stroke-width:2.39008713;stroke-linecap:butt;stroke-linejoin:miter;stroke-miterlimit:4;stroke-dasharray:none;stroke-opacity:1"/><path style="fill:#fff;fill-rule:evenodd;stroke:#fff;stroke-width:.44228971px;stroke-linecap:butt;stroke-linejoin:miter;stroke-opacity:1" id="path4166" d="m 21.932272,1047.6646 6.443954,-0.067 -0.0227,-11.9218 -6.431801,0.06 z"/><path style="display:inline;fill:#fff;fill-rule:evenodd;stroke:#fff;stroke-width:.55551046;stroke-linecap:butt;stroke-linejoin:miter;stroke-miterlimit:4;stroke-dasharray:none;stroke-opacity:1" id="path4168" d="m 31.725598,1034.7281 12.357578,-0.019 -0.04352,-3.2346 -12.334275,0.016 z"/></g></g></svg>