<svg xmlns="http://www.w3.org/2000/svg" xmlns:svg="http://www.w3.org/2000/svg" xmlns:xlink="http://www.w3.org/1999/xlink" id="svg4311" width="100%" height="100%" version="1.1" viewBox="0 0 64 64"><defs id="defs4313"><linearGradient id="genericShopGradient"><stop style="stop-color:#f55;stop-opacity:1" id="stop4184" offset="0"/><stop style="stop-color:#ff8080;stop-opacity:1" id="stop4186" offset="1"/></linearGradient><linearGradient id="linearGradient15" x1="29.5" x2="44.125" y1="1025.487" y2="1003.362" gradientTransform="matrix(1.2884366,0,0,1.290513,-9.2250812,-296.31254)" gradientUnits="userSpaceOnUse" xlink:href="#genericShopGradient"/></defs><metadata id="metadata4316"/><g id="layer1" transform="translate(0,-988.36216)" style="display:inline"><ellipse id="ellipse4146" cx="32" cy="1020.368" rx="30.383" ry="30.381" style="display:inline;fill:url(#linearGradient15);fill-opacity:1;fill-rule:evenodd;stroke:none;stroke-width:5.4000001;stroke-linecap:butt;stroke-linejoin:miter;stroke-miterlimit:4;stroke-dasharray:none;stroke-opacity:1"/><g style="display:inline" id="g4140" transform="matrix(1.2902161,0,0,1.2902162,-8.1153069,-295.42059)"><g id="g4185" transform="translate(-0.42302458,-0.42302461)"><path style="fill:#fff;fill-rule:evenodd;stroke:none;stroke-width:1px;stroke-linecap:butt;stroke-linejoin:miter;stroke-opacity:1" id="path4165" d="M 42.875,26.25 20.787109,26.257812 20.8125,41.125 c 0.0024,1.391 0.619977,2.753284 3.042969,2.771484 6.946333,0.052 9.218287,-6.25e-4 16.199219,-0.01563 2.622295,0 3.154223,-2.070659 3.132812,-3.068359 z m -17.716797,5.738281 2.335938,0 0,2.302735 -2.308594,-0.02734 z m 5.474609,0.0293 2.333985,0 0,2.300781 -2.306641,-0.02539 z m 5.101563,0.03516 2.335937,0 0,2.302735 -2.308593,-0.02539 z m -7.806778,4.19822 2.335937,0 0,2.302734 -2.308593,-0.02539 z m 5.49576,0.05045 2.335938,0 0,2.300781 -2.308594,-0.02539 z" transform="translate(0,988.36216)"/><path style="fill:none;fill-rule:evenodd;stroke:#fff;stroke-width:2.70735741;stroke-linecap:butt;stroke-linejoin:miter;stroke-miterlimit:4;stroke-dasharray:none;stroke-opacity:1" id="path4167" d="m 26.541052,1018.8831 0.02903,-6.1263 c 0.02684,-5.6647 10.487247,-5.6586 10.499996,0 l 0.0139,6.1692"/></g></g></g></svg>