<svg xmlns="http://www.w3.org/2000/svg" xmlns:svg="http://www.w3.org/2000/svg" xmlns:xlink="http://www.w3.org/1999/xlink" id="svg4311" width="100%" height="100%" version="1.1" viewBox="0 0 64 64"><defs id="defs4313"><linearGradient id="kateShopGradient"><stop style="stop-color:#f55;stop-opacity:1" id="stop4184" offset="0"/><stop style="stop-color:#ff8080;stop-opacity:1" id="stop4186" offset="1"/></linearGradient><linearGradient id="linearGradient15" x1="29.5" x2="44.125" y1="1025.487" y2="1003.362" gradientTransform="matrix(1.2884366,0,0,1.290513,-9.2250812,-296.31254)" gradientUnits="userSpaceOnUse" xlink:href="#kateShopGradient"/></defs><metadata id="metadata4316"/><g id="layer1" transform="translate(0,-988.36216)" style="display:inline"><ellipse id="ellipse4146" cx="32" cy="1020.368" rx="30.383" ry="30.381" style="display:inline;fill:url(#linearGradient15);fill-opacity:1;fill-rule:evenodd;stroke:none;stroke-width:5.4000001;stroke-linecap:butt;stroke-linejoin:miter;stroke-miterlimit:4;stroke-dasharray:none;stroke-opacity:1"/><g id="g4147" transform="matrix(1.61051,0,0,1.61051,-19.407576,-647.21017)"><path id="path4185" d="m 32.140806,1049.6481 c -3.757412,-6.0198 -5.439892,-6.5853 -10.25841,-12.5159 -3.500221,-4.308 3.521672,-13.0133 10.246766,-4.9315 7.482077,-8.474 13.298731,1.3257 10.186106,5.1685 -5.090862,6.2851 -6.217195,6.4307 -10.174462,12.2789 z" style="fill:#fff;fill-rule:evenodd;stroke:none;stroke-width:1px;stroke-linecap:butt;stroke-linejoin:miter;stroke-opacity:1"/><path id="path4187-9" d="m 42.901805,1036.0388 c 3.11255,-2.5753 3.418765,-7.5234 3.15625,-10.4062 -3.12945,4.7161 -5.124999,5.552 -7.749999,5.5937 z" style="display:inline;fill:#fff;fill-rule:evenodd;stroke:none;stroke-width:1px;stroke-linecap:butt;stroke-linejoin:miter;stroke-opacity:1"/><path id="path4187-9-6" d="m 21.255547,1035.8153 c -3.11255,-2.5753 -3.418765,-7.5234 -3.15625,-10.4062 3.12945,4.7161 5.124999,5.552 7.749999,5.5937 z" style="display:inline;fill:#fff;fill-rule:evenodd;stroke:none;stroke-width:1px;stroke-linecap:butt;stroke-linejoin:miter;stroke-opacity:1"/></g></g></svg>