<svg xmlns="http://www.w3.org/2000/svg" xmlns:svg="http://www.w3.org/2000/svg" xmlns:xlink="http://www.w3.org/1999/xlink" id="svg4311" width="100%" height="100%" version="1.1" viewBox="0 0 64 64"><defs id="defs4313"><linearGradient id="nyanShopGradient"><stop style="stop-color:#f55;stop-opacity:1" id="stop4184" offset="0"/><stop style="stop-color:#ff8080;stop-opacity:1" id="stop4186" offset="1"/></linearGradient><linearGradient id="linearGradient15" x1="29.5" x2="44.125" y1="1025.487" y2="1003.362" gradientTransform="matrix(1.2884366,0,0,1.290513,-9.2250812,-296.31254)" gradientUnits="userSpaceOnUse" xlink:href="#nyanShopGradient"/></defs><metadata id="metadata4316"/><g id="layer1" transform="translate(0,-988.36216)" style="display:inline"><ellipse id="ellipse4146" cx="32" cy="1020.368" rx="30.383" ry="30.381" style="display:inline;fill:url(#linearGradient15);fill-opacity:1;fill-rule:evenodd;stroke:none;stroke-width:5.4000001;stroke-linecap:butt;stroke-linejoin:miter;stroke-miterlimit:4;stroke-dasharray:none;stroke-opacity:1"/><path style="fill:#fff;fill-rule:evenodd;stroke:none;stroke-width:1px;stroke-linecap:butt;stroke-linejoin:miter;stroke-opacity:1" id="path4848" d="m 43.557149,1041.7486 c -2.919559,-0.03 -4.359545,0.041 -7.01896,-0.062 -1.949485,-0.076 -4.51913,-0.2979 -6.898398,-0.3646 -3.023792,-0.084 -5.968088,0.011 -9.43189,0.1953 0.416655,-8.215 0.355178,-16.4194 0.277966,-24.4009 -1.634591,0.8637 -2.401074,1.7445 -4.215835,2.534 -2.300113,-2.5355 -4.264177,-4.175 -6.3932455,-6.2542 4.8265765,-5.2538 5.5937845,-6.8601 9.0339325,-9.5898 1.534435,-1.2178 5.924853,-3.96334 7.336964,-4.22664 1.46551,0.94714 7.549567,1.72144 10.776775,-0.076 3.19622,1.21934 5.874352,2.20974 7.737213,3.83884 3.65794,3.1991 5.905394,6.5245 8.84862,9.7752 -1.837583,2.332 -4.045811,4.2932 -6.068953,6.4396 -1.748197,-0.5553 -2.538272,-1.8289 -3.771746,-3.0718 -0.308715,7.8527 -0.125785,17.4659 -0.212443,25.2629 z"/></g></svg>