<svg xmlns="http://www.w3.org/2000/svg" xmlns:svg="http://www.w3.org/2000/svg" xmlns:xlink="http://www.w3.org/1999/xlink" id="svg4311" width="100%" height="100%" version="1.1" viewBox="0 0 64 64"><defs id="defs4313"><linearGradient id="ralphShopGradient"><stop style="stop-color:#f55;stop-opacity:1" id="stop4184" offset="0"/><stop style="stop-color:#ff8080;stop-opacity:1" id="stop4186" offset="1"/></linearGradient><linearGradient id="linearGradient15" x1="29.5" x2="44.125" y1="1025.487" y2="1003.362" gradientTransform="matrix(1.2884366,0,0,1.290513,-9.2250812,-296.31254)" gradientUnits="userSpaceOnUse" xlink:href="#ralphShopGradient"/></defs><metadata id="metadata4316"/><g id="layer1" transform="translate(0,-988.36216)" style="display:inline"><ellipse id="ellipse4146" cx="32" cy="1020.368" rx="30.383" ry="30.381" style="display:inline;fill:url(#linearGradient15);fill-opacity:1;fill-rule:evenodd;stroke:none;stroke-width:5.4000001;stroke-linecap:butt;stroke-linejoin:miter;stroke-miterlimit:4;stroke-dasharray:none;stroke-opacity:1"/><path style="fill:#fff;fill-rule:evenodd;stroke:none;stroke-width:1px;stroke-linecap:butt;stroke-linejoin:miter;stroke-opacity:1" id="path4164" d="m 18.497762,1043.0664 15.121251,2e-4 0.125004,-25.5539 c 0.01586,-3.2412 -4.904277,-5.2749 -5.061312,-8.5123 l -0.517756,-10.67396 -4.150451,-0.0431 -0.1875,10.50586 c -0.05762,3.2285 -5.309057,5.3457 -5.311309,8.5747 z"/><path style="display:inline;fill:#fff;fill-rule:evenodd;stroke:none;stroke-width:1px;stroke-linecap:butt;stroke-linejoin:miter;stroke-opacity:1" id="path4164-3" d="m 36.692724,1042.8106 11.023392,0 0.09113,-18.6288 c 0.01156,-2.3628 -3.575217,-3.8454 -3.689696,-6.2054 l -0.377444,-7.7813 -3.025679,-0.032 -0.136687,7.6588 c -0.042,2.3535 -3.870303,3.897 -3.871944,6.2509 z"/></g></svg>