<svg xmlns="http://www.w3.org/2000/svg" xmlns:svg="http://www.w3.org/2000/svg" xmlns:xlink="http://www.w3.org/1999/xlink" id="svg4311" width="100%" height="100%" version="1.1" viewBox="0 0 64 64"><defs id="defs4313"><linearGradient id="officeGradient"><stop style="stop-color:#f55;stop-opacity:1" id="stop4184" offset="0"/><stop style="stop-color:#ff8080;stop-opacity:1" id="stop4186" offset="1"/></linearGradient><linearGradient id="linearGradient15" x1="29.5" x2="44.125" y1="1025.487" y2="1003.362" gradientTransform="matrix(1.2884366,0,0,1.290513,-9.2250812,-296.31254)" gradientUnits="userSpaceOnUse" xlink:href="#officeGradient"/></defs><metadata id="metadata4316"/><g id="layer1" transform="translate(0,-988.36216)" style="display:inline"><ellipse id="ellipse4146" cx="32" cy="1020.368" rx="30.383" ry="30.381" style="display:inline;fill:url(#linearGradient15);fill-opacity:1;fill-rule:evenodd;stroke:none;stroke-width:5.4000001;stroke-linecap:butt;stroke-linejoin:miter;stroke-miterlimit:4;stroke-dasharray:none;stroke-opacity:1"/><g id="g4226"><path id="path4149" d="m 14.767547,1026.3108 22.949579,5.2363 c 3.679665,-1.9995 7.856225,-1.7143 12.195842,-1.2885 3.592187,0.3525 10.752787,-5.799 10.10897,-7.4295 -0.69727,-1.7659 -12.844345,-2.4838 -19.365376,-10.2308 -2.052818,-2.4387 -7.551045,-2.3145 -10.839739,-3.0449 -0.68057,-4.3366 -1.770702,-8.4854 -4.384613,-11.93587 -0.808172,1.63499 -0.997783,4.07767 -1.248407,5.63297 -1.257312,-1.8867 -3.114966,-3.96309 -5.17626,-5.20669 0.580172,9.71889 -1.411156,18.69229 -4.239996,28.26699 z" style="fill:#fff;fill-rule:evenodd;stroke:#fff;stroke-width:.97435856;stroke-linecap:butt;stroke-linejoin:miter;stroke-miterlimit:4;stroke-dasharray:none;stroke-opacity:1"/><path id="path4151" d="m 11.787109,44.777344 24.28711,5.167968 c 2.327586,0.495202 3.637217,-4.326971 0.818359,-4.951171 l -23.726562,-5.25586 c -2.130789,-0.472008 -2.986691,4.696948 -1.378907,5.039063 z m 3.748047,-3.546875 c 0.948536,4.16e-4 1.71715,0.74542 1.716797,1.664062 3.54e-4,0.918642 -0.76826,1.663647 -1.716797,1.664063 -0.949299,6.29e-4 -1.719104,-0.744682 -1.71875,-1.664063 -3.53e-4,-0.91938 0.769451,-1.664691 1.71875,-1.664062 z m 5.855469,1.396484 c 0.947749,4.16e-4 1.716037,0.74423 1.716797,1.662109 3.54e-4,0.918642 -0.76826,1.663647 -1.716797,1.664063 -0.949299,6.29e-4 -1.719104,-0.744682 -1.71875,-1.664063 7.6e-4,-0.918618 0.770238,-1.662738 1.71875,-1.662109 z m 6.275391,1.369141 c 0.948536,4.17e-4 1.717149,0.745421 1.716796,1.664062 -7.59e-4,0.917879 -0.769047,1.661694 -1.716796,1.66211 -0.948512,6.29e-4 -1.71799,-0.743492 -1.71875,-1.66211 -3.53e-4,-0.91938 0.769451,-1.664691 1.71875,-1.664062 z m 5.855468,1.302734 c 0.948537,4.16e-4 1.717151,0.745421 1.716797,1.664063 3.53e-4,0.918642 -0.768261,1.663646 -1.716797,1.664062 -0.949299,6.29e-4 -1.719103,-0.744682 -1.71875,-1.664062 -3.54e-4,-0.919381 0.769451,-1.664692 1.71875,-1.664063 z" transform="translate(0,988.36216)" style="fill:#fff;fill-rule:evenodd;stroke:#fff;stroke-width:.97435856;stroke-linecap:butt;stroke-linejoin:miter;stroke-miterlimit:4;stroke-dasharray:none;stroke-opacity:1"/><path id="path4153" d="m 9.2373143,1031.5095 c 0.087887,-1.3323 0.1996441,-2.0017 0.9473417,-3.2727 l -4.8354416,0.646 z" style="fill:#fff;fill-rule:evenodd;stroke:#fff;stroke-width:.97435856;stroke-linecap:butt;stroke-linejoin:miter;stroke-miterlimit:4;stroke-dasharray:none;stroke-opacity:1"/><path id="path4153-6" d="m 40.085451,1034.9369 c -0.03858,1.3347 -0.125692,2.0078 -0.825924,3.3054 l 4.808303,-0.8239 z" style="display:inline;fill:#fff;fill-rule:evenodd;stroke:#fff;stroke-width:.97435856;stroke-linecap:butt;stroke-linejoin:miter;stroke-miterlimit:4;stroke-dasharray:none;stroke-opacity:1"/></g></g></svg>